<svg id="Layer_1" data-name="Layer 1" xmlns="http://www.w3.org/2000/svg" viewBox="0 0 6563.91 8204.28"><g id="LAYER_1-2" data-name="LAYER 1"><path d="M5.68-7.59H6567.14V8194.23H5.68Z" transform="translate(-4.45 8.82)" style="fill:none;stroke:#000;stroke-linejoin:bevel;stroke-width:2.4605453610420227px"/><path d="M3562.81,2268.41H3291.33l-596.27,1068.7,851.35,1522.26a6.15,6.15,0,0,1,0,7.38c-1.64,2.46-3.28,3.28-6.57,3.28H3079.72c-2.46,0-4.92-1.64-6.56-4.1L2192.29,3339.57a6.15,6.15,0,0,1,0-7.38l615.13-1064.6H2535.94l-596.27,1068.7L2791,4858.55a6.15,6.15,0,0,1,0,7.38c-1.64,2.46-3.28,3.28-6.56,3.28H2324.34c-2.46,0-4.93-1.64-6.57-4.1L1436.9,3338.75a6.15,6.15,0,0,1,0-7.38L2317.77,1805c1.64-2.46,3.28-4.1,6.57-4.1H4293.59c2.46,0,4.92,1.64,6.56,3.28a6.15,6.15,0,0,1,0,7.38l-849.7,1522.26L4041.8,4391l591.35-1057.21-178-321.51-464.23,813.62c-1.64,2.46-4.1,4.1-6.56,4.1s-4.92-1.64-6.56-4.1l-241.13-431.42a6.15,6.15,0,0,1,0-7.38l717.66-1222.07a7.46,7.46,0,0,1,6.56-3.28c2.46,0,4.92,1.64,6.56,4.1l668.45,1165.48a6.15,6.15,0,0,1,0,7.38L4255,4865.11c-1.64,2.46-3.28,4.1-6.56,4.1H3836.75c-2.46,0-4.92-1.64-6.56-3.28l-13.94-21.33-868.58-1505a6.15,6.15,0,0,1,0-7.38l615.14-1064.6Z" transform="translate(-4.45 8.82)" style="fill:none;stroke:#000;stroke-linejoin:bevel;stroke-width:2.4605453610420227px"/><path d="M3566.91,2266H3289.69L2691.78,3337.11,3544,4861a5.23,5.23,0,0,1,0,4.92,4.51,4.51,0,0,1-4.11,2.46H3079.72a4.51,4.51,0,0,1-4.1-2.46L2194.75,3339.57a5.23,5.23,0,0,1,0-4.92L2811.52,2266H2534.3L1936.39,3337.11,2788.56,4861a5.23,5.23,0,0,1,0,4.92,4.51,4.51,0,0,1-4.1,2.46H2324.34a4.52,4.52,0,0,1-4.11-2.46L1439.36,3339.57a5.23,5.23,0,0,1,0-4.92l880.87-1526.36a4.52,4.52,0,0,1,4.11-2.46H4293.59a4.51,4.51,0,0,1,4.1,2.46,5.23,5.23,0,0,1,0,4.92l-850.53,1523.9L4041,4399.24l594.63-1062.95-181.26-326.43-466.69,817.72a4.65,4.65,0,0,1-8.2,0l-241.13-431.42a5.23,5.23,0,0,1,0-4.92L4456,2169.17a4.65,4.65,0,0,1,8.2,0l668.45,1165.48a5.23,5.23,0,0,1,0,4.92L4251.76,4865.93a4.51,4.51,0,0,1-4.1,2.46H3835.93a4.51,4.51,0,0,1-4.1-2.46l-13.94-21.33-868.58-1505a5.23,5.23,0,0,1,0-4.92L3566.09,2266Z" transform="translate(-4.45 8.82)" style="fill:none;stroke:#5b5b5b;stroke-linejoin:bevel;stroke-width:2.4605453610420227px"/><path d="M3571,2263.49H3288.87L2689.32,3337.11l853,1524.72a1.54,1.54,0,0,1,0,2.46c-.82.82-.82.82-2.47.82H3079.72c-.82,0-1.64-.82-2.46-1.64L2196.39,3337.11a1.54,1.54,0,0,1,0-2.46l619.23-1072H2533.48L1933.93,3336.29l853,1524.72a1.54,1.54,0,0,1,0,2.46c-.82.82-.82.82-2.46.82H2324.34c-.82,0-1.64-.82-2.46-1.64L1441,3336.29a1.54,1.54,0,0,1,0-2.46l880.88-1526.36c.82-.82.82-1.64,2.46-1.64H4293.59c.82,0,1.64.82,2.46.82a1.54,1.54,0,0,1,0,2.46L3444.7,3333.83l597.1,1067.88,597.09-1067.88-183.72-332.18-468.33,821.83c-.82.82-1.64,1.64-2.46,1.64s-1.64-.82-2.46-1.64l-241.13-431.42a1.54,1.54,0,0,1,0-2.46l717.66-1222.07a3,3,0,0,1,2.46-.82c.82,0,1.64.82,2.46,1.64l668.45,1165.48a1.54,1.54,0,0,1,0,2.46L4250.94,4862.65c-.82.82-.82,1.64-2.46,1.64H3836.75c-.82,0-1.64-.82-2.46-.82l-13.94-21.33-868.58-1505a1.54,1.54,0,0,1,0-2.46l619.24-1072Z" transform="translate(-4.45 8.82)" style="fill:none;stroke:#adadad;stroke-linejoin:bevel;stroke-width:2.4605453610420227px"/><path d="M4248.48,4862.65H3836.75l-13.94-21.33-868.57-1505,620.87-1076.08H3287.23L2686.86,3336.29l853.81,1526.36H3080.54L2199.67,3336.29l620.88-1076.08H2532.66L1932.29,3336.29,2786.1,4862.65H2326L1445.1,3336.29,2326,1809.93H4295.23L3443.06,3336.29l599.56,1072.8,599.55-1072.8L4456,2999.19,3985.2,3824.3l-241.13-431.42,717.66-1222.07,668.45,1165.48L4249.3,4862.65Z" transform="translate(-4.45 8.82)" style="fill:none;stroke:#000;stroke-linejoin:bevel;stroke-width:2.4605453610420227px"/><path d="M6207.08,6220.87a124.44,124.44,0,0,1,23,7.38,77.54,77.54,0,0,1,25.43,17.22c8.2,9,13.12,19.69,17.22,30.35,4.92,14.76,6.56,32,6.56,47.57v77.92a2.17,2.17,0,0,1-2.46,2.46H6135.72a2.17,2.17,0,0,1-2.46-2.46v-55c0-14.77-1.64-36.91-11.48-48.39s-29.53-13.13-43.47-13.13h-219v117.29a2.17,2.17,0,0,1-2.46,2.46H5715.79a2.17,2.17,0,0,1-2.46-2.46v-459.3a2.17,2.17,0,0,1,2.46-2.46h425.67c22.15,0,46.75,2.46,68.08,9.84,16.4,5.74,32,14.76,43.47,28.7,11.48,12.31,18,27.89,22.14,44.29,4.92,18.87,6.56,37.73,6.56,56.6v29.52a239.66,239.66,0,0,1-3.28,41.83,81.85,81.85,0,0,1-36.91,58.24c-9.84,6.56-21.32,10.66-32.8,13.94Z" transform="translate(-4.45 8.82)" style="fill:none;stroke:#000;stroke-linejoin:bevel;stroke-width:2.4605453610420227px"/><path d="M5462.35,6321.75h-283l-41,79.56c-.82.82-1.64,1.64-2.46,1.64H4978.44c-.82,0-1.64-.82-2.46-.82a1.54,1.54,0,0,1,0-2.46l248.52-459.3c.82-.82,1.64-1.64,2.46-1.64h183.72c.82,0,1.64.82,2.46,1.64l252.62,459.3a1.54,1.54,0,0,1,0,2.46c-.82.82-.82.82-2.46.82H5506.64c-.82,0-1.64-.82-2.46-1.64l-43.47-80.38Z" transform="translate(-4.45 8.82)" style="fill:none;stroke:#000;stroke-linejoin:bevel;stroke-width:2.4605453610420227px"/><path d="M4571.63,6050.27v68.9H4912a2.17,2.17,0,0,1,2.46,2.46v95.14a2.17,2.17,0,0,1-2.46,2.46H4571.63v68.89h367.45a2.17,2.17,0,0,1,2.46,2.46v110.73a2.17,2.17,0,0,1-2.46,2.46h-511a2.17,2.17,0,0,1-2.46-2.46V5942a2.17,2.17,0,0,1,2.46-2.46h502.77a2.17,2.17,0,0,1,2.46,2.46v106.62a2.17,2.17,0,0,1-2.46,2.46H4571.63Z" transform="translate(-4.45 8.82)" style="fill:none;stroke:#000;stroke-linejoin:bevel;stroke-width:2.4605453610420227px"/><path d="M4199.27,6234.81H4026.21a2.17,2.17,0,0,1-2.46-2.46v-95.14a2.17,2.17,0,0,1,2.46-2.46H4342.8a2.17,2.17,0,0,1,2.46,2.46v130.41c0,25.42-2.46,54.95-13.94,78.74-9,18.86-23,33.62-41.83,42.65-22.14,10.66-47.57,14.76-71.35,16.4-34.45,2.46-68.9,3.28-102.53,3.28H3945.83c-28.7,0-57.41-1.64-85.29-7.38-23-4.1-45.11-12.3-64.8-26.25-18.86-13.12-32-31.16-41-51.67-10.66-25.42-13.94-55.77-13.94-83.66v-137c0-27.88,3.28-57.41,13.94-83.66,9-21.32,22.15-38.54,41-52.49,19.69-13.94,41.83-22.14,64.8-26.24a499.32,499.32,0,0,1,85.29-7.39h212.43c31.17,0,66.44,1.64,96.78,10.67,20.51,5.74,41,14.76,56.6,30.34,13.12,13.13,21.32,29.53,25.42,47.57,4.1,19.69,5.74,41,5.74,61.52v14.76a2.17,2.17,0,0,1-2.46,2.46H4201.73a2.17,2.17,0,0,1-2.46-2.46c0-8.2-.82-18-4.92-26.24a44.87,44.87,0,0,0-13.12-14.77c-6.56-4.1-13.95-5.74-21.33-6.56-9.84-.82-19.68-1.64-29.52-1.64H3977c-13.94,0-29.52.82-43.47,4.1-9.84,2.46-18.86,6.56-26.24,13.94-7.39,8.21-11.49,18.05-13.13,28.71-3.28,14.76-4.1,32-4.1,47.57v57.41c0,15.59.82,32.81,4.1,47.57,2.46,9.85,6.56,20.51,13.13,27.89s16.4,11.48,26.24,13.94c13.95,3.28,29.53,4.1,43.47,4.1h150.1c9,0,18-.82,27.06-1.64,8.2-.82,15.58-3.28,23-6.56,6.56-3.28,11.48-8.2,15.58-13.94,4.92-7.38,5.74-16.4,5.74-25.43v-10.66Z" transform="translate(-4.45 8.82)" style="fill:none;stroke:#000;stroke-linejoin:bevel;stroke-width:2.4605453610420227px"/><path d="M3579.21,6220.87a124.29,124.29,0,0,1,23,7.38,77.5,77.5,0,0,1,25.42,17.22c8.21,9,13.13,19.69,17.23,30.35,4.92,14.76,6.56,32,6.56,47.57v77.92a2.17,2.17,0,0,1-2.46,2.46H3507.86a2.17,2.17,0,0,1-2.46-2.46v-55c0-14.77-1.64-36.91-11.49-48.39s-29.52-13.13-43.46-13.13h-219v117.29a2.17,2.17,0,0,1-2.46,2.46H3087.92a2.17,2.17,0,0,1-2.46-2.46v-459.3a2.17,2.17,0,0,1,2.46-2.46H3513.6c22.14,0,46.75,2.46,68.07,9.84,16.41,5.74,32,14.76,43.47,28.7,11.49,12.31,18.05,27.89,22.15,44.29,4.92,18.87,6.56,37.73,6.56,56.6v29.52a239.66,239.66,0,0,1-3.28,41.83,81.85,81.85,0,0,1-36.91,58.24c-9.84,6.56-21.32,10.66-32.81,13.94Z" transform="translate(-4.45 8.82)" style="fill:none;stroke:#000;stroke-linejoin:bevel;stroke-width:2.4605453610420227px"/><path d="M2634.36,6050.27v68.9h340.38a2.17,2.17,0,0,1,2.46,2.46v95.14a2.17,2.17,0,0,1-2.46,2.46H2634.36v68.89h367.45a2.17,2.17,0,0,1,2.46,2.46v110.73a2.17,2.17,0,0,1-2.46,2.46h-511a2.17,2.17,0,0,1-2.46-2.46V5942a2.17,2.17,0,0,1,2.46-2.46H2993.6a2.17,2.17,0,0,1,2.46,2.46v106.62a2.17,2.17,0,0,1-2.46,2.46H2634.36Z" transform="translate(-4.45 8.82)" style="fill:none;stroke:#000;stroke-linejoin:bevel;stroke-width:2.4605453610420227px"/><path d="M1975.76,6107.68h62.33l177.16-168.13c.82-.82.82-.82,1.64-.82h191.92c.82,0,1.64.82,2.46,1.64a3,3,0,0,1-.82,2.46l-246.87,223.09,275.58,232.93a3,3,0,0,1,.82,2.46c0,.82-1.64,1.64-2.46,1.64h-199.3c-.82,0-.82,0-1.64-.82L2034,6225.79h-59v173.88a2.17,2.17,0,0,1-2.46,2.46H1831.41a2.17,2.17,0,0,1-2.46-2.46v-459.3a2.17,2.17,0,0,1,2.46-2.46h141.07a2.17,2.17,0,0,1,2.46,2.46v166.49Z" transform="translate(-4.45 8.82)" style="fill:none;stroke:#000;stroke-linejoin:bevel;stroke-width:2.4605453610420227px"/><path d="M1580.43,6321.75h-283l-41,79.56c-.82.82-1.64,1.64-2.46,1.64H1096.52c-.82,0-1.64-.82-2.46-.82a1.54,1.54,0,0,1,0-2.46l248.52-459.3c.82-.82,1.64-1.64,2.46-1.64h183.72c.82,0,1.64.82,2.46,1.64l252.62,459.3a1.54,1.54,0,0,1,0,2.46c-.82.82-.82.82-2.46.82H1624.72c-.82,0-1.64-.82-2.46-1.64l-43.47-80.38Z" transform="translate(-4.45 8.82)" style="fill:none;stroke:#000;stroke-linejoin:bevel;stroke-width:2.4605453610420227px"/><path d="M670.85,6232.35l157.47-292c.82-.82,1.64-1.64,2.46-1.64h216.53a2.17,2.17,0,0,1,2.46,2.46v459.3a2.17,2.17,0,0,1-2.46,2.46h-137a2.17,2.17,0,0,1-2.46-2.46V6077.34l-181.26,324c-.82.82-1.64,1.64-2.46,1.64h-105c-.82,0-1.64-.82-2.46-1.64l-181.26-324v323.15A2.17,2.17,0,0,1,433,6403H296a2.17,2.17,0,0,1-2.46-2.46v-459.3a2.17,2.17,0,0,1,2.46-2.46H512.55c.82,0,1.64.82,2.46,1.64l157.48,292Z" transform="translate(-4.45 8.82)" style="fill:none;stroke:#000;stroke-linejoin:bevel;stroke-width:2.4605453610420227px"/><path d="M5714.15,5941.19h425.67c27.07,0,49.21,3.28,67.26,9.84s32,15.58,41.83,27.88c10.66,11.49,18,26.25,22.14,42.65a233.36,233.36,0,0,1,6.56,56.6v29.52c0,15.59-.82,28.71-3.28,41s-5.74,23-11.48,32a82,82,0,0,1-23.79,23.78c-10.66,6.57-23.78,11.49-39.37,15.59v1.64c10.67,2.46,20.51,4.92,29.53,8.2s17.22,9,24.61,17.22c7.38,7.39,12.3,17.23,16.4,29.53s5.74,27.89,5.74,46.75v77.92H6134.9v-55c0-23.79-4.1-41-12.3-50s-23.79-13.95-45.11-13.95H5856v119.75H5715v-459.3Z" transform="translate(-4.45 8.82)" style="fill:none;stroke:#000;stroke-linejoin:bevel;stroke-width:2.4605453610420227px"/><path d="M5855.22,6167.56h232.93c18.86,0,32.81-4.1,40.19-11.49,8.2-8.2,11.48-19.68,11.48-36.9v-15.59c0-20.5-4.92-33.63-15.58-39.37s-27.07-9-49.21-9H5854.4v111.55Z" transform="translate(-4.45 8.82)" style="fill:none;stroke:#000;stroke-linejoin:bevel;stroke-width:2.4605453610420227px"/><path d="M5227.78,5941.19H5411.5l252.62,459.3H5507.46l-43.47-81.2H5178.57l-41,81.2H4980.08l248.52-459.3Z" transform="translate(-4.45 8.82)" style="fill:none;stroke:#000;stroke-linejoin:bevel;stroke-width:2.4605453610420227px"/><path d="M5230.24,6220.87h180.44l-91-173.06-88.58,173.06Z" transform="translate(-4.45 8.82)" style="fill:none;stroke:#000;stroke-linejoin:bevel;stroke-width:2.4605453610420227px"/><path d="M4428.1,5941.19h502.77v106.62h-361.7v73.82H4912v95.14H4569.17v73.81h369.91v110.73h-511V5941.19Z" transform="translate(-4.45 8.82)" style="fill:none;stroke:#000;stroke-linejoin:bevel;stroke-width:2.4605453610420227px"/><path d="M3743.25,6102.76c0-33.63,4.92-60.69,13.94-82.84,9-21.32,22.15-38.54,40.19-50.85,17.23-12.3,38.55-21.32,64-25.42,24.6-4.92,53.31-7.38,85.3-7.38h212.42c40.19,0,71.36,3.28,96,10.66,23.79,7.38,42.65,17.22,55,29.52,13.12,12.31,21.32,27.89,25.42,46.75,4.1,18.05,5.74,38.55,5.74,60.7v14.76H4202.55q0-17.22-4.92-27.06c-3.28-6.57-8.2-12.31-13.94-15.59s-13.95-5.74-22.15-7.38c-9-.82-18.86-1.64-30.34-1.64H3977.82c-18,0-32.81,1.64-44.29,4.1s-20.5,7.38-27.06,14.76-11.49,17.23-13.95,29.53-4.1,28.71-4.1,47.57v57.41c0,19.69,1.64,36.09,4.1,48.39s7.38,22.15,13.95,29.53,15.58,12.3,27.06,14.76,26.25,4.11,44.29,4.11h150.1c9,0,18-.82,27.06-1.65a72.85,72.85,0,0,0,23.79-6.56,44.09,44.09,0,0,0,17.22-15.58c4.1-6.56,6.56-15.58,6.56-27.07v-13.12H4027V6138h316.59v130.41c0,32.81-4.1,59.05-13.12,77.1-9,18.86-23,32-41,41s-41.83,14.76-70.53,16.4c-28.71,2.46-63.16,3.28-102.53,3.28H3946.66c-32,0-59.88-2.46-85.3-7.38-24.61-4.92-45.93-13.13-64-25.43a118.65,118.65,0,0,1-40.19-50.85c-9-21.32-13.94-49.21-13.94-82.84Z" transform="translate(-4.45 8.82)" style="fill:none;stroke:#000;stroke-linejoin:bevel;stroke-width:2.4605453610420227px"/><path d="M3087.1,5941.19h425.68c27.06,0,49.21,3.28,67.25,9.84s32,15.58,41.83,27.88c10.67,11.49,18,26.25,22.15,42.65a233.36,233.36,0,0,1,6.56,56.6v29.52c0,15.59-.82,28.71-3.28,41s-5.74,23-11.48,32a82.25,82.25,0,0,1-23.79,23.78c-10.66,6.57-23.78,11.49-39.37,15.59v1.64c10.66,2.46,20.51,4.92,29.53,8.2s17.22,9,24.6,17.22c7.39,7.39,12.31,17.23,16.41,29.53s5.74,27.89,5.74,46.75v77.92H3507.86v-55c0-23.79-4.1-41-12.3-50s-23.79-13.95-45.11-13.95H3229v119.75H3087.92v-459.3Z" transform="translate(-4.45 8.82)" style="fill:none;stroke:#000;stroke-linejoin:bevel;stroke-width:2.4605453610420227px"/><path d="M3228.18,6167.56h232.93c18.86,0,32.8-4.1,40.19-11.49,8.2-8.2,11.48-19.68,11.48-36.9v-15.59c0-20.5-4.92-33.63-15.58-39.37s-27.07-9-49.22-9H3227.36v111.55Z" transform="translate(-4.45 8.82)" style="fill:none;stroke:#000;stroke-linejoin:bevel;stroke-width:2.4605453610420227px"/><path d="M2490.83,5941.19H2993.6v106.62H2631.9v73.82h342.84v95.14H2631.9v73.81h369.91v110.73h-511V5941.19Z" transform="translate(-4.45 8.82)" style="fill:none;stroke:#000;stroke-linejoin:bevel;stroke-width:2.4605453610420227px"/><path d="M1832.23,5941.19H1973.3v169h65.61l178-169h191.92L2160.3,6165.92l278,234.57H2239l-203.41-176.34H1973.3v176.34H1832.23Z" transform="translate(-4.45 8.82)" style="fill:none;stroke:#000;stroke-linejoin:bevel;stroke-width:2.4605453610420227px"/><path d="M1345.86,5941.19h183.72l252.62,459.3H1625.54l-43.47-81.2H1296.65l-41,81.2H1098.16l248.52-459.3Z" transform="translate(-4.45 8.82)" style="fill:none;stroke:#000;stroke-linejoin:bevel;stroke-width:2.4605453610420227px"/><path d="M1348.32,6220.87h180.44l-91-173.06-88.58,173.06Z" transform="translate(-4.45 8.82)" style="fill:none;stroke:#000;stroke-linejoin:bevel;stroke-width:2.4605453610420227px"/><path d="M295.21,5941.19H511.73l159.12,296.08L830,5941.19h216.53v459.3h-137V6070h-1.64L723.34,6400.49h-105L433.82,6070h-1.64v330.54h-137Z" transform="translate(-4.45 8.82)" style="fill:none;stroke:#000;stroke-linejoin:bevel;stroke-width:2.4605453610420227px"/><path d="M1896.2,7793.16h123v-68.08a2.17,2.17,0,0,1,2.46-2.46h60.69a2.17,2.17,0,0,1,2.46,2.46v197.67a2.17,2.17,0,0,1-2.46,2.46h-60.69a2.17,2.17,0,0,1-2.46-2.46v-72.18h-123v72.18a2.17,2.17,0,0,1-2.46,2.46h-60.69a2.17,2.17,0,0,1-2.46-2.46V7725.08a2.17,2.17,0,0,1,2.46-2.46h60.69a2.17,2.17,0,0,1,2.46,2.46Z" transform="translate(-4.45 8.82)" style="fill:none;stroke:#000;stroke-linejoin:bevel;stroke-width:2.4605453610420227px"/><path d="M2116.83,7853V7794c0-12.31,1.64-25.43,5.74-36.91,4.1-9,9.84-17.23,18-23a68.43,68.43,0,0,1,28.71-11.48,187.25,187.25,0,0,1,36.91-3.28h97.6a187.25,187.25,0,0,1,36.91,3.28,78.33,78.33,0,0,1,28.71,11.48c8.2,5.74,13.94,13.95,18,23,4.92,11.48,5.74,24.6,5.74,36.91V7853c0,12.3-1.64,25.43-5.74,36.91-4.1,9-9.84,17.22-18,23a68.44,68.44,0,0,1-28.71,11.49,187.25,187.25,0,0,1-36.91,3.28h-97.6a187.25,187.25,0,0,1-36.91-3.28,78.35,78.35,0,0,1-28.71-11.49c-8.2-5.74-13.94-13.94-18-23C2117.65,7878.46,2116.83,7865.33,2116.83,7853Z" transform="translate(-4.45 8.82)" style="fill:none;stroke:#000;stroke-linejoin:bevel;stroke-width:2.4605453610420227px"/><path d="M2561.37,7776.75v146a2.17,2.17,0,0,1-2.46,2.46h-60.7a2.17,2.17,0,0,1-2.46-2.46v-146h-82.83a2.18,2.18,0,0,1-2.47-2.46v-49.21a2.18,2.18,0,0,1,2.47-2.46h231.29a2.17,2.17,0,0,1,2.46,2.46v49.21a2.17,2.17,0,0,1-2.46,2.46Z" transform="translate(-4.45 8.82)" style="fill:none;stroke:#000;stroke-linejoin:bevel;stroke-width:2.4605453610420227px"/><path d="M2800,7871.89V7858a2.17,2.17,0,0,1,2.46-2.46h60.69a2.18,2.18,0,0,1,2.47,2.46c0,3.28,0,8.2,1.64,11.48.82,2.46,2.46,4.1,4.1,5.74a13.16,13.16,0,0,0,7.38,2.47,54.14,54.14,0,0,0,11.48.82h83.66a23.94,23.94,0,0,0,7.38-1.64,21.81,21.81,0,0,0,4.92-4.11c1.64-2.46,1.64-4.92,1.64-7.38s0-6.56-1.64-9-6.56-4.1-9-4.1a133.51,133.51,0,0,0-25.43-2.46c-15.58,0-31.16-.82-45.93-.82-18,0-36.9,0-55-2.46-10.66-1.64-23-4.1-32-9a35.26,35.26,0,0,1-14.77-19.69,127.38,127.38,0,0,1-3.28-30.34c0-8.21.82-17.23,1.64-25.43a34.46,34.46,0,0,1,9.84-21.32c6.57-7.39,16.41-11.49,25.43-13.95,13.94-4.1,31.17-4.92,45.93-4.92h84.48c13.12,0,28.7.82,41.83,4.1a59.83,59.83,0,0,1,23.78,12.3,39,39,0,0,1,10.67,19.69,125.15,125.15,0,0,1,2.46,24.6v6.57a2.17,2.17,0,0,1-2.46,2.46h-60.7a2.17,2.17,0,0,1-2.46-2.46,33.71,33.71,0,0,0-.82-9,7.09,7.09,0,0,0-2.46-4.92c-1.64-1.64-4.92-2.46-7.38-3.28a99.24,99.24,0,0,0-15.58-.82H2887.8a35.53,35.53,0,0,0-15.58,3.28,11.69,11.69,0,0,0-4.92,9.84c0,2.47,0,6.57,1.64,9s5.74,3.28,8.2,4.1c6.56,1.64,14.76,1.64,21.32,1.64H2937c19.69,0,38.55,0,58.23,1.64,12.31.82,25.43,3.28,36.09,8.2a35.67,35.67,0,0,1,18.87,20.5c4.1,10.67,4.92,23.79,4.92,35.27,0,10.66-.82,23-4.1,32.81-3.28,9-8.21,15.58-16.41,20.5-9,5.75-20.5,8.21-31.16,9-16.41,1.64-33.63,2.46-50,2.46H2879.6a276.18,276.18,0,0,1-36.09-2.46c-8.2-1.64-17.22-4.1-24.6-8.21a37.9,37.9,0,0,1-14.77-17.22,76.62,76.62,0,0,1-4.92-27.89Z" transform="translate(-4.45 8.82)" style="fill:none;stroke:#000;stroke-linejoin:bevel;stroke-width:2.4605453610420227px"/><path d="M3087.1,7852.21V7725.08a2.18,2.18,0,0,1,2.47-2.46h60.69a2.17,2.17,0,0,1,2.46,2.46v114c0,8.2.82,18.86,7.38,25.42,5.74,6.56,16.4,7.38,24.61,7.38h59.87c8.2,0,18.86-.82,24.6-7.38s7.39-17.22,7.39-25.42v-114a2.17,2.17,0,0,1,2.46-2.46h60.69a2.17,2.17,0,0,1,2.46,2.46v127.13c0,20.5-4.1,42.65-20.5,56.59-16.41,14.77-41.83,18.05-63.16,18.05h-86.94c-21.32,0-46.75-3.28-63.15-18.05-15.58-14.76-20.51-36.09-20.51-56.59Z" transform="translate(-4.45 8.82)" style="fill:none;stroke:#000;stroke-linejoin:bevel;stroke-width:2.4605453610420227px"/><path d="M3597.26,7844.83c1.64.82,3.28.82,4.92,1.64a27.19,27.19,0,0,1,11.48,8.2,45.58,45.58,0,0,1,7.38,13.94c2.46,6.56,2.46,14,2.46,20.51v33.63a2.17,2.17,0,0,1-2.46,2.46h-60.69a2.17,2.17,0,0,1-2.46-2.46V7899c0-5.74-.82-15.58-4.92-19.68s-12.3-4.93-18-4.93h-92.68v49.22a2.17,2.17,0,0,1-2.46,2.46h-60.69a2.17,2.17,0,0,1-2.46-2.46V7725.9a2.17,2.17,0,0,1,2.46-2.46H3562c9.84,0,20.5.82,29.53,4.1a42.07,42.07,0,0,1,18.86,12.3,44.78,44.78,0,0,1,9.84,19.69,125.15,125.15,0,0,1,2.46,24.6v12.31c0,5.74,0,12.3-1.64,18-.82,4.92-2.46,10.66-5.74,14.76-2.46,4.93-6.56,8.21-11.48,10.67l-9.84,4.92Z" transform="translate(-4.45 8.82)" style="fill:none;stroke:#000;stroke-linejoin:bevel;stroke-width:2.4605453610420227px"/><path d="M3726.85,7775.11v32h137a2.17,2.17,0,0,1,2.46,2.46v45.93a2.17,2.17,0,0,1-2.46,2.46h-137v64.8a2.17,2.17,0,0,1-2.46,2.46h-60.7a2.17,2.17,0,0,1-2.46-2.46V7725.08a2.17,2.17,0,0,1,2.46-2.46h206.69a2.17,2.17,0,0,1,2.46,2.46v47.57a2.17,2.17,0,0,1-2.46,2.46Z" transform="translate(-4.45 8.82)" style="fill:none;stroke:#000;stroke-linejoin:bevel;stroke-width:2.4605453610420227px"/><path d="M4079.52,7889.94H3959.78l-17.23,33.63c-.82.82-1.64,1.64-2.46,1.64H3872c-.82,0-1.64-.82-2.46-.82a1.54,1.54,0,0,1,0-2.46L3977,7724.26c.82-.82,1.64-1.64,2.46-1.64h78.74c.82,0,1.64.82,2.46,1.64l109.08,197.67a1.54,1.54,0,0,1,0,2.46c-.82.82-.82.82-2.46.82H4100c-.82,0-1.64-.82-2.46-1.64Z" transform="translate(-4.45 8.82)" style="fill:none;stroke:#000;stroke-linejoin:bevel;stroke-width:2.4605453610420227px"/><path d="M4182.05,7853V7794c0-12.31,1.64-25.43,5.74-36.91,4.1-9,9.84-17.23,18-23a68.38,68.38,0,0,1,28.71-11.48,187.18,187.18,0,0,1,36.91-3.28h71.35c17.23,0,35.27.82,52.49,4.1,10.67,2.46,22.15,5.74,30.35,13.12a41.6,41.6,0,0,1,13.94,24.61,131.24,131.24,0,0,1,2.46,36.09,2.17,2.17,0,0,1-2.46,2.46h-60.69a2.17,2.17,0,0,1-2.46-2.46v-5.74c0-4.92-1.64-9.85-5.74-12.31-5.74-3.28-13.94-3.28-19.69-3.28h-66.43a74.45,74.45,0,0,0-18.86,2.46,31,31,0,0,0-10.67,7.39,28.75,28.75,0,0,0-4.92,11.48,100.94,100.94,0,0,0-1.64,16.4V7835c0,5.74,0,12.3,1.64,18a28.75,28.75,0,0,0,4.92,11.48c2.46,3.28,5.74,4.92,9.85,5.74a56.82,56.82,0,0,0,16.4,2.46h64.79c5.74,0,11.49,0,16.41-.82a20.09,20.09,0,0,0,9.84-3.28,12.75,12.75,0,0,0,4.92-6.56c1.64-4.1,1.64-9.84,1.64-13.94a2.17,2.17,0,0,1,2.46-2.46H4442a2.18,2.18,0,0,1,2.47,2.46V7867c0,8.2-.82,16.41-3.29,23.79-1.64,7.38-5.74,13.94-11.48,19.68-6.56,6.56-14.76,10.67-23,13.13-11.49,4.1-25.43,4.92-37.73,4.92h-97.6a187.18,187.18,0,0,1-36.91-3.28,78.28,78.28,0,0,1-28.71-11.49c-8.2-5.74-13.94-13.94-18-23-4.92-11.48-5.74-24.61-5.74-36.91Z" transform="translate(-4.45 8.82)" style="fill:none;stroke:#000;stroke-linejoin:bevel;stroke-width:2.4605453610420227px"/><path d="M4542.11,7773.47v27.07h145.17a2.17,2.17,0,0,1,2.46,2.46v41a2.17,2.17,0,0,1-2.46,2.46H4542.11v27.06h156.65a2.18,2.18,0,0,1,2.46,2.47v47.57a2.17,2.17,0,0,1-2.46,2.46H4479a2.17,2.17,0,0,1-2.46-2.46V7725.9a2.17,2.17,0,0,1,2.46-2.46h216.53a2.17,2.17,0,0,1,2.46,2.46v45.93a2.17,2.17,0,0,1-2.46,2.46H4542.11Z" transform="translate(-4.45 8.82)" style="fill:none;stroke:#000;stroke-linejoin:bevel;stroke-width:2.4605453610420227px"/><path d="M2184.08,7812.84v21.33c0,5.74,0,12.3,1.64,18a28.91,28.91,0,0,0,4.93,11.48c2.46,3.28,5.74,4.92,9.84,5.74a56.82,56.82,0,0,0,16.4,2.46h77.92c5.74,0,11.48,0,16.4-2.46a24,24,0,0,0,9.84-5.74,28.63,28.63,0,0,0,4.93-11.48,134.09,134.09,0,0,0,1.64-18v-21.33c0-5.74,0-10.66-1.64-16.4a28.73,28.73,0,0,0-4.93-11.49c-2.46-3.28-6.56-5.74-10.66-7.38-5.74-2.46-12.3-2.46-18.86-2.46h-71.36a74.45,74.45,0,0,0-18.86,2.46,31.2,31.2,0,0,0-10.66,7.38,29,29,0,0,0-4.93,11.49A100.94,100.94,0,0,0,2184.08,7812.84Z" transform="translate(-4.45 8.82)" style="fill:none;stroke:#000;stroke-linejoin:bevel;stroke-width:2.4605453610420227px"/><path d="M3443.06,7776.75v43.47h97.61c4.92,0,12.3-.82,15.58-4.1s4.1-9,4.1-13.94v-6.56c0-4.92-.82-12.31-5.74-14.77-4.92-3.28-13.94-3.28-19.69-3.28h-92.68Z" transform="translate(-4.45 8.82)" style="fill:none;stroke:#000;stroke-linejoin:bevel;stroke-width:2.4605453610420227px"/><path d="M4018.83,7775.93l-34.45,66.44h69.72Z" transform="translate(-4.45 8.82)" style="fill:none;stroke:#000;stroke-linejoin:bevel;stroke-width:2.4605453610420227px"/><path d="M1833.05,7922.75h60.69v-74.64h128v74.64h60.69V7725.08h-60.69v70.54h-128v-70.54h-60.69Z" transform="translate(-4.45 8.82)" style="fill:none;stroke:#000;stroke-linejoin:bevel;stroke-width:2.4605453610420227px"/><path d="M2119.29,7853c0,14.76,1.64,26.25,5.74,36.09a57.75,57.75,0,0,0,17.23,22.14c7.38,5.74,16.4,9,27.88,11.49a237.32,237.32,0,0,0,36.91,3.28h97.6c13.94,0,26.25-.82,36.91-3.28a65.07,65.07,0,0,0,27.89-11.49,52.26,52.26,0,0,0,17.22-22.14c4.1-9,5.74-21.33,5.74-36.09V7794c0-14.77-1.64-26.25-5.74-35.27a57.93,57.93,0,0,0-17.22-22.15c-7.39-5.74-16.41-9-27.89-11.48a237.32,237.32,0,0,0-36.91-3.28h-97.6c-13.94,0-26.25.82-36.91,3.28a65,65,0,0,0-27.88,11.48,57.86,57.86,0,0,0-17.23,22.15c-4.1,9-5.74,21.32-5.74,35.27Z" transform="translate(-4.45 8.82)" style="fill:none;stroke:#000;stroke-linejoin:bevel;stroke-width:2.4605453610420227px"/><path d="M2181.62,7812.84a92.21,92.21,0,0,1,1.64-16.4,28.64,28.64,0,0,1,5.75-12.31c2.46-3.28,6.56-5.74,11.48-8.2q7.38-2.46,19.68-2.46h71.36q12.3,0,19.68,2.46c4.92,1.64,9,4.1,11.49,8.2a28.63,28.63,0,0,1,5.74,12.31,100.94,100.94,0,0,1,1.64,16.4v21.33a104.42,104.42,0,0,1-1.64,18,27.77,27.77,0,0,1-4.92,12.3,16.08,16.08,0,0,1-10.67,6.56,54.51,54.51,0,0,1-17.22,2.46h-77.92q-11.07,0-17.22-2.46a26.39,26.39,0,0,1-10.66-6.56,27.78,27.78,0,0,1-4.93-12.3,113,113,0,0,1-1.64-18v-21.33Z" transform="translate(-4.45 8.82)" style="fill:none;stroke:#000;stroke-linejoin:bevel;stroke-width:2.4605453610420227px"/><path d="M2412.92,7774.29h85.29v148.46h60.7V7774.29h85.3v-49.21H2412.92Z" transform="translate(-4.45 8.82)" style="fill:none;stroke:#000;stroke-linejoin:bevel;stroke-width:2.4605453610420227px"/><path d="M2802.5,7871.89c0,10.67,1.64,19.69,4.1,26.25,3.28,6.56,7.38,12.3,14,16.4s13.94,6.57,23.78,8.21a215.69,215.69,0,0,0,35.27,2.46h73.81q30.77,0,49.22-2.46c13.12-1.64,23-4.11,30.34-9a31.08,31.08,0,0,0,14.77-18.86c2.46-8.2,4.1-18.86,4.1-32,0-14.76-1.64-25.42-4.92-34.45a33.85,33.85,0,0,0-18.05-18.86c-8.2-4.1-20.5-7.38-35.27-8.2s-34.44-1.64-58.23-1.64h-38.55a135.59,135.59,0,0,1-22.14-1.64q-7.38-1.23-9.84-4.92t-2.47-9.85a13.1,13.1,0,0,1,6.57-11.48,32.3,32.3,0,0,1,16.4-4.1h67.25a84.61,84.61,0,0,1,16.41,1.64c4.1.82,7.38,2.46,9,4.1s3.28,4.1,3.28,6.56c.82,2.46.82,5.75.82,9h60.69v-6.57a106,106,0,0,0-2.46-23.78c-1.64-7.38-4.92-13.12-9.84-18.87-4.92-4.92-13.12-9-23-12.3-9.85-2.46-23.79-4.1-41.83-4.1h-84.48c-18.87,0-34.45,1.64-45.11,4.92s-18.87,7.38-23.79,13.13a43.58,43.58,0,0,0-9.84,20.5,233.8,233.8,0,0,0-1.64,25.43c0,12.3.82,22.14,3.28,30.34a27.68,27.68,0,0,0,13.94,18.05c7.39,4.1,17.23,7.38,31.17,9,13.12,1.64,32,2.46,54.13,2.46,19.69,0,35.27,0,46.75.82,11.49,0,19.69.82,25.43,2.46s9,3.28,10.66,5.74,2.46,5.74,2.46,9.84-.82,6.56-2.46,9-3.28,4.11-5.74,4.93-4.92,1.64-8.2,2.46c-3.28,0-6.56.82-9.84.82H2887.8c-4.1,0-8.2,0-11.48-.82-3.28,0-5.74-1.64-8.2-3.28a12.85,12.85,0,0,1-4.93-6.57,49.63,49.63,0,0,1-1.64-12.3h-60.69v13.94Z" transform="translate(-4.45 8.82)" style="fill:none;stroke:#000;stroke-linejoin:bevel;stroke-width:2.4605453610420227px"/><path d="M3089.57,7852.21c0,24.61,6.56,43.47,19.68,54.95s33.63,18.05,61.51,18.05h86.94c27.89,0,48.39-5.75,61.52-18.05,13.12-11.48,19.68-30.34,19.68-54.95V7725.08h-60.69v114q0,18.45-7.38,27.06c-4.93,5.74-13.95,8.2-26.25,8.2h-59.87c-12.31,0-21.33-2.46-26.25-8.2s-7.38-14.76-7.38-27.06v-114h-60.69v127.13Z" transform="translate(-4.45 8.82)" style="fill:none;stroke:#000;stroke-linejoin:bevel;stroke-width:2.4605453610420227px"/><path d="M3440.6,7774.29h95.14c9.85,0,16.41,1.64,21.33,4.1,4.1,2.46,6.56,8.21,6.56,17.23v6.56c0,7.38-1.64,12.3-4.92,15.58s-9,4.92-17.22,4.92H3441.42v-48.39Z" transform="translate(-4.45 8.82)" style="fill:none;stroke:#000;stroke-linejoin:bevel;stroke-width:2.4605453610420227px"/><path d="M3379.91,7922.75h60.69v-51.68h95.14c9.85,0,16.41,1.64,19.69,5.75s5.74,11.48,5.74,21.32v23.79h60.69V7888.3a73.9,73.9,0,0,0-2.46-20.51c-1.64-4.92-4.1-9.84-7.38-13.12a31.2,31.2,0,0,0-10.66-7.38c-4.1-1.64-8.2-2.46-13.12-4.1v-.82a83.88,83.88,0,0,0,17.22-6.56,33.13,33.13,0,0,0,10.66-10.67,40.37,40.37,0,0,0,4.92-13.94,113,113,0,0,0,1.64-18v-12.31a113.61,113.61,0,0,0-2.46-24.6c-1.64-7.38-4.92-13.12-9.84-18.87-4.1-4.92-10.66-9-18-12.3-7.39-2.46-17.23-4.1-28.71-4.1h-182.9v197.66Z" transform="translate(-4.45 8.82)" style="fill:none;stroke:#000;stroke-linejoin:bevel;stroke-width:2.4605453610420227px"/><path d="M3663.69,7922.75h60.7v-67.26h139.43v-45.93H3724.39v-36.91h146v-47.57H3663.69Z" transform="translate(-4.45 8.82)" style="fill:none;stroke:#000;stroke-linejoin:bevel;stroke-width:2.4605453610420227px"/><path d="M3872,7922.75h68.07l18-35.27h123l18.87,35.27h67.25L4058.2,7725.08h-78.74Z" transform="translate(-4.45 8.82)" style="fill:none;stroke:#000;stroke-linejoin:bevel;stroke-width:2.4605453610420227px"/><path d="M4018.83,7771l39.37,74.64h-77.92Z" transform="translate(-4.45 8.82)" style="fill:none;stroke:#000;stroke-linejoin:bevel;stroke-width:2.4605453610420227px"/><path d="M4184.51,7853c0,14.76,1.64,26.25,5.74,36.09a57.82,57.82,0,0,0,17.22,22.14c7.38,5.74,16.41,9,27.89,11.49a237.2,237.2,0,0,0,36.91,3.28h97.6q23.37,0,36.91-4.92c9.84-3.29,17.22-7.39,22.14-13.13s9-11.48,10.66-18.86,3.29-14.77,3.29-23.79v-18.86h-60.7a61.08,61.08,0,0,1-1.64,14.76,15,15,0,0,1-5.74,8.2,32.16,32.16,0,0,1-10.66,4.1c-4.92.82-9.84.82-17.23.82h-64.79q-11.07,0-17.22-2.46a26.37,26.37,0,0,1-10.67-6.56,27.77,27.77,0,0,1-4.92-12.3,113,113,0,0,1-1.64-18v-21.33a92.21,92.21,0,0,1,1.64-16.4A28.63,28.63,0,0,1,4255,7785c2.46-3.28,6.56-5.74,11.49-8.2q7.38-2.46,19.68-2.46h66.44c9,0,16.4,1.64,21.32,4.1s7.38,7.39,7.38,14.77v5.74H4442a215.61,215.61,0,0,0-2.46-35.27,38.11,38.11,0,0,0-13.12-23q-9.84-8.62-29.53-12.31c-13.12-2.46-30.34-4.1-51.67-4.1h-71.35c-13.95,0-26.25.82-36.91,3.28a65.05,65.05,0,0,0-27.89,11.48,57.93,57.93,0,0,0-17.22,22.15c-4.1,9-5.74,21.32-5.74,35.27v59.05Z" transform="translate(-4.45 8.82)" style="fill:none;stroke:#000;stroke-linejoin:bevel;stroke-width:2.4605453610420227px"/><path d="M4479,7922.75h219.81v-47.58H4539.65v-32h147.63v-41H4539.65v-32h155.83v-45.93H4479v198.49Z" transform="translate(-4.45 8.82)" style="fill:none;stroke:#000;stroke-linejoin:bevel;stroke-width:2.4605453610420227px"/></g></svg>