<?xml version="1.0" encoding="UTF-8" standalone="no"?>
<!-- Created with Inkscape (http://www.inkscape.org/) -->

<svg
   width="320mm"
   height="640mm"
   viewBox="0 0 320 640"
   version="1.1"
   id="svg1"
   inkscape:export-filename="..\Users\Caroline HSP\Documents\HSP1-I\HSP PrusaSlicer Settings\HartSmart Products\hsp1_i.svg"
   inkscape:export-xdpi="384"
   inkscape:export-ydpi="384"
   xml:space="preserve"
   inkscape:version="1.3 (0e150ed6c4, 2023-07-21)"
   sodipodi:docname="HSP1 dupe bed.svg"
   xmlns:inkscape="http://www.inkscape.org/namespaces/inkscape"
   xmlns:sodipodi="http://sodipodi.sourceforge.net/DTD/sodipodi-0.dtd"
   xmlns="http://www.w3.org/2000/svg"
   xmlns:svg="http://www.w3.org/2000/svg"><sodipodi:namedview
     id="namedview1"
     pagecolor="#000000"
     bordercolor="#000000"
     borderopacity="0.25"
     inkscape:showpageshadow="2"
     inkscape:pageopacity="0.0"
     inkscape:pagecheckerboard="0"
     inkscape:deskcolor="#d1d1d1"
     inkscape:document-units="mm"
     inkscape:zoom="0.3266532"
     inkscape:cx="1134.2304"
     inkscape:cy="1175.5587"
     inkscape:window-width="1920"
     inkscape:window-height="1018"
     inkscape:window-x="-6"
     inkscape:window-y="-6"
     inkscape:window-maximized="1"
     inkscape:current-layer="svg1"
     inkscape:export-bgcolor="#fbfbfb00" /><defs
     id="defs1" /><g
     inkscape:label="GridCartesian:X13:Y13"
     transform="matrix(0.99693252,0,0,0.99693252,0.99693252,-9.0030675)"
     id="g8062"
     style="stroke:#ffffff;stroke-opacity:1"><g
       inkscape:label="MajorXGridlines"
       id="g7945"
       style="stroke:#ffffff;stroke-opacity:1"><path
         style="fill:none;stroke:#ffffff;stroke-width:1;stroke-opacity:1"
         d="M 50,0 V 650"
         inkscape:label="MajorXDiv1"
         id="path7934" /><path
         style="fill:none;stroke:#ffffff;stroke-width:1;stroke-opacity:1"
         d="m 100,0 -1.85e-4,560.15132 M 100,589.84942 V 650"
         inkscape:label="MajorXDiv2"
         id="path7935"
         sodipodi:nodetypes="cccc" /><path
         style="fill:none;stroke:#ffffff;stroke-width:1;stroke-opacity:1"
         d="m 150,0 v 560.15132 m 0,29.6981 C 150,609.89961 150,650 150,650"
         inkscape:label="MajorXDiv3"
         id="path7936"
         sodipodi:nodetypes="cccc" /><path
         style="fill:none;stroke:#ffffff;stroke-width:1;stroke-opacity:1"
         d="M 200,0 V 650"
         inkscape:label="MajorXDiv4"
         id="path7937" /><path
         style="fill:none;stroke:#ffffff;stroke-width:1;stroke-opacity:1"
         d="M 250,0 V 650"
         inkscape:label="MajorXDiv5"
         id="path7938" /><path
         style="fill:none;stroke:#ffffff;stroke-width:1;stroke-opacity:1"
         d="M 300,0 V 650"
         inkscape:label="MajorXDiv6"
         id="path7939" /><path
         style="fill:none;stroke:#ffffff;stroke-width:1;stroke-opacity:1"
         d="M 350,0 V 650"
         inkscape:label="MajorXDiv7"
         id="path7940" /><path
         style="fill:none;stroke:#ffffff;stroke-width:1;stroke-opacity:1"
         d="M 400,0 V 650"
         inkscape:label="MajorXDiv8"
         id="path7941" /><path
         style="fill:none;stroke:#ffffff;stroke-width:1;stroke-opacity:1"
         d="M 450,0 V 650"
         inkscape:label="MajorXDiv9"
         id="path7942" /><path
         style="fill:none;stroke:#ffffff;stroke-width:1;stroke-opacity:1"
         d="M 500,0 V 650"
         inkscape:label="MajorXDiv10"
         id="path7943" /><path
         style="fill:none;stroke:#ffffff;stroke-width:1;stroke-opacity:1"
         d="M 550,0 V 650"
         inkscape:label="MajorXDiv11"
         id="path7944" /><path
         style="fill:none;stroke:#ffffff;stroke-width:1;stroke-opacity:1"
         d="M 600,0 V 650"
         inkscape:label="MajorXDiv12"
         id="path7945" /></g><g
       inkscape:label="MajorYGridlines"
       id="g7957"
       style="stroke:#ffffff;stroke-opacity:1"><path
         style="fill:none;stroke:#ffffff;stroke-width:1;stroke-opacity:1"
         d="M 0,50 H 650"
         inkscape:label="MajorYDiv1"
         id="path7946" /><path
         style="fill:none;stroke:#ffffff;stroke-width:1;stroke-opacity:1"
         d="M 0,100 H 650"
         inkscape:label="MajorYDiv2"
         id="path7947" /><path
         style="fill:none;stroke:#ffffff;stroke-width:1;stroke-opacity:1"
         d="M 0,150 H 650"
         inkscape:label="MajorYDiv3"
         id="path7948" /><path
         style="fill:none;stroke:#ffffff;stroke-width:1;stroke-opacity:1"
         d="M 0,200 H 650"
         inkscape:label="MajorYDiv4"
         id="path7949" /><path
         style="fill:none;stroke:#ffffff;stroke-width:1;stroke-opacity:1"
         d="M 0,250 H 650"
         inkscape:label="MajorYDiv5"
         id="path7950" /><path
         style="fill:none;stroke:#ffffff;stroke-width:1;stroke-opacity:1"
         d="M 0,300 H 650"
         inkscape:label="MajorYDiv6"
         id="path7951" /><path
         style="fill:none;stroke:#ffffff;stroke-width:1;stroke-opacity:1"
         d="M 0,350 H 650"
         inkscape:label="MajorYDiv7"
         id="path7952" /><path
         style="fill:none;stroke:#ffffff;stroke-width:1;stroke-opacity:1"
         d="M 0,400 H 650"
         inkscape:label="MajorYDiv8"
         id="path7953" /><path
         style="fill:none;stroke:#ffffff;stroke-width:1;stroke-opacity:1"
         d="M 0,450 H 650"
         inkscape:label="MajorYDiv9"
         id="path7954" /><path
         style="fill:none;stroke:#ffffff;stroke-width:1;stroke-opacity:1"
         d="M 0,500 H 650"
         inkscape:label="MajorYDiv10"
         id="path7955" /><path
         style="fill:none;stroke:#ffffff;stroke-width:1;stroke-opacity:1"
         d="M 0,550 H 650"
         inkscape:label="MajorYDiv11"
         id="path7956" /><path
         style="fill:none;stroke:#ffffff;stroke-width:1;stroke-opacity:1"
         d="M 0,600 H 650"
         inkscape:label="MajorYDiv12"
         id="path7957" /></g><g
       inkscape:label="SubMinorXGridlines"
       id="g8009"
       style="stroke:#ffffff;stroke-opacity:1"><path
         style="fill:none;stroke:#ffffff;stroke-width:0.3;stroke-opacity:1"
         d="M 10,0 V 650"
         inkscape:label="SubminorXDiv0:0:1"
         id="path7958" /><path
         style="fill:none;stroke:#ffffff;stroke-width:0.3;stroke-opacity:1"
         d="M 20,0 V 650"
         inkscape:label="SubminorXDiv0:0:2"
         id="path7959" /><path
         style="fill:none;stroke:#ffffff;stroke-width:0.3;stroke-opacity:1"
         d="M 30,0 V 650"
         inkscape:label="SubminorXDiv0:0:3"
         id="path7960" /><path
         style="fill:none;stroke:#ffffff;stroke-width:0.3;stroke-opacity:1"
         d="M 40,0 V 650"
         inkscape:label="SubminorXDiv0:0:4"
         id="path7961" /><path
         style="fill:none;stroke:#ffffff;stroke-width:0.3;stroke-opacity:1"
         d="m 60,0 v 549.99015 m 0,50.00493 V 650"
         inkscape:label="SubminorXDiv1:0:1"
         id="path7962"
         sodipodi:nodetypes="cccc" /><path
         style="fill:none;stroke:#ffffff;stroke-width:0.3;stroke-opacity:1"
         d="m 70,0 v 549.99015 m 0,50.00493 V 650"
         inkscape:label="SubminorXDiv1:0:2"
         id="path7963"
         sodipodi:nodetypes="cccc" /><path
         style="fill:none;stroke:#ffffff;stroke-width:0.3;stroke-opacity:1"
         d="m 80,0 v 549.99015 m 0,50.00493 V 650"
         inkscape:label="SubminorXDiv1:0:3"
         id="path7964"
         sodipodi:nodetypes="cccc" /><path
         style="fill:none;stroke:#ffffff;stroke-width:0.3;stroke-opacity:1"
         d="m 90,0 v 549.99015 m 0,50.00493 V 650"
         inkscape:label="SubminorXDiv1:0:4"
         id="path7965"
         sodipodi:nodetypes="cccc" /><path
         style="fill:none;stroke:#ffffff;stroke-width:0.3;stroke-opacity:1"
         d="m 110,0 v 560.02092 m 4.9e-4,29.992 L 110,650"
         inkscape:label="SubminorXDiv2:0:1"
         id="path7966"
         sodipodi:nodetypes="cccc" /><path
         style="fill:none;stroke:#ffffff;stroke-width:0.3;stroke-opacity:1"
         d="m 120,0 v 560.02092 m 0,29.992 V 650"
         inkscape:label="SubminorXDiv2:0:2"
         id="path7967"
         sodipodi:nodetypes="cccc" /><path
         style="fill:none;stroke:#ffffff;stroke-width:0.3;stroke-opacity:1"
         d="m 130,0 v 560.02092 m 0,29.992 V 650"
         inkscape:label="SubminorXDiv2:0:3"
         id="path7968"
         sodipodi:nodetypes="cccc" /><path
         style="fill:none;stroke:#ffffff;stroke-width:0.3;stroke-opacity:1"
         d="m 140,0 v 560.02092 m 0,29.992 V 650"
         inkscape:label="SubminorXDiv2:0:4"
         id="path7969"
         sodipodi:nodetypes="cccc" /><path
         style="fill:none;stroke:#ffffff;stroke-width:0.3;stroke-opacity:1"
         d="m 160,0 v 560.02092 m 0,19.83083 V 650"
         inkscape:label="SubminorXDiv3:0:1"
         id="path7970"
         sodipodi:nodetypes="cccc" /><path
         style="fill:none;stroke:#ffffff;stroke-width:0.3;stroke-opacity:1"
         d="M 170,0 V 650"
         inkscape:label="SubminorXDiv3:0:2"
         id="path7971" /><path
         style="fill:none;stroke:#ffffff;stroke-width:0.3;stroke-opacity:1"
         d="M 180,0 V 650"
         inkscape:label="SubminorXDiv3:0:3"
         id="path7972" /><path
         style="fill:none;stroke:#ffffff;stroke-width:0.3;stroke-opacity:1"
         d="M 190,0 V 650"
         inkscape:label="SubminorXDiv3:0:4"
         id="path7973" /><path
         style="fill:none;stroke:#ffffff;stroke-width:0.3;stroke-opacity:1"
         d="M 210,0 V 650"
         inkscape:label="SubminorXDiv4:0:1"
         id="path7974" /><path
         style="fill:none;stroke:#ffffff;stroke-width:0.3;stroke-opacity:1"
         d="M 220,0 V 650"
         inkscape:label="SubminorXDiv4:0:2"
         id="path7975" /><path
         style="fill:none;stroke:#ffffff;stroke-width:0.3;stroke-opacity:1"
         d="M 230,0 V 650"
         inkscape:label="SubminorXDiv4:0:3"
         id="path7976" /><path
         style="fill:none;stroke:#ffffff;stroke-width:0.3;stroke-opacity:1"
         d="M 240,0 V 650"
         inkscape:label="SubminorXDiv4:0:4"
         id="path7977" /><path
         style="fill:none;stroke:#ffffff;stroke-width:0.3;stroke-opacity:1"
         d="M 260,0 V 650"
         inkscape:label="SubminorXDiv5:0:1"
         id="path7978" /><path
         style="fill:none;stroke:#ffffff;stroke-width:0.3;stroke-opacity:1"
         d="M 270,0 V 650"
         inkscape:label="SubminorXDiv5:0:2"
         id="path7979" /><path
         style="fill:none;stroke:#ffffff;stroke-width:0.3;stroke-opacity:1"
         d="M 280,0 V 650"
         inkscape:label="SubminorXDiv5:0:3"
         id="path7980" /><path
         style="fill:none;stroke:#ffffff;stroke-width:0.3;stroke-opacity:1"
         d="M 290,0 V 650"
         inkscape:label="SubminorXDiv5:0:4"
         id="path7981" /><path
         style="fill:none;stroke:#ffffff;stroke-width:0.3;stroke-opacity:1"
         d="M 310,0 V 650"
         inkscape:label="SubminorXDiv6:0:1"
         id="path7982" /><path
         style="fill:none;stroke:#ffffff;stroke-width:0.3;stroke-opacity:1"
         d="M 320,0 V 650"
         inkscape:label="SubminorXDiv6:0:2"
         id="path7983" /><path
         style="fill:none;stroke:#ffffff;stroke-width:0.3;stroke-opacity:1"
         d="M 330,0 V 650"
         inkscape:label="SubminorXDiv6:0:3"
         id="path7984" /><path
         style="fill:none;stroke:#ffffff;stroke-width:0.3;stroke-opacity:1"
         d="M 340,0 V 650"
         inkscape:label="SubminorXDiv6:0:4"
         id="path7985" /><path
         style="fill:none;stroke:#ffffff;stroke-width:0.3;stroke-opacity:1"
         d="M 360,0 V 650"
         inkscape:label="SubminorXDiv7:0:1"
         id="path7986" /><path
         style="fill:none;stroke:#ffffff;stroke-width:0.3;stroke-opacity:1"
         d="M 370,0 V 650"
         inkscape:label="SubminorXDiv7:0:2"
         id="path7987" /><path
         style="fill:none;stroke:#ffffff;stroke-width:0.3;stroke-opacity:1"
         d="M 380,0 V 650"
         inkscape:label="SubminorXDiv7:0:3"
         id="path7988" /><path
         style="fill:none;stroke:#ffffff;stroke-width:0.3;stroke-opacity:1"
         d="M 390,0 V 650"
         inkscape:label="SubminorXDiv7:0:4"
         id="path7989" /><path
         style="fill:none;stroke:#ffffff;stroke-width:0.3;stroke-opacity:1"
         d="M 410,0 V 650"
         inkscape:label="SubminorXDiv8:0:1"
         id="path7990" /><path
         style="fill:none;stroke:#ffffff;stroke-width:0.3;stroke-opacity:1"
         d="M 420,0 V 650"
         inkscape:label="SubminorXDiv8:0:2"
         id="path7991" /><path
         style="fill:none;stroke:#ffffff;stroke-width:0.3;stroke-opacity:1"
         d="M 430,0 V 650"
         inkscape:label="SubminorXDiv8:0:3"
         id="path7992" /><path
         style="fill:none;stroke:#ffffff;stroke-width:0.3;stroke-opacity:1"
         d="M 440,0 V 650"
         inkscape:label="SubminorXDiv8:0:4"
         id="path7993" /><path
         style="fill:none;stroke:#ffffff;stroke-width:0.3;stroke-opacity:1"
         d="M 460,0 V 650"
         inkscape:label="SubminorXDiv9:0:1"
         id="path7994" /><path
         style="fill:none;stroke:#ffffff;stroke-width:0.3;stroke-opacity:1"
         d="M 470,0 V 650"
         inkscape:label="SubminorXDiv9:0:2"
         id="path7995" /><path
         style="fill:none;stroke:#ffffff;stroke-width:0.3;stroke-opacity:1"
         d="M 480,0 V 650"
         inkscape:label="SubminorXDiv9:0:3"
         id="path7996" /><path
         style="fill:none;stroke:#ffffff;stroke-width:0.3;stroke-opacity:1"
         d="M 490,0 V 650"
         inkscape:label="SubminorXDiv9:0:4"
         id="path7997" /><path
         style="fill:none;stroke:#ffffff;stroke-width:0.3;stroke-opacity:1"
         d="M 510,0 V 650"
         inkscape:label="SubminorXDiv10:0:1"
         id="path7998" /><path
         style="fill:none;stroke:#ffffff;stroke-width:0.3;stroke-opacity:1"
         d="M 520,0 V 650"
         inkscape:label="SubminorXDiv10:0:2"
         id="path7999" /><path
         style="fill:none;stroke:#ffffff;stroke-width:0.3;stroke-opacity:1"
         d="M 530,0 V 650"
         inkscape:label="SubminorXDiv10:0:3"
         id="path8000" /><path
         style="fill:none;stroke:#ffffff;stroke-width:0.3;stroke-opacity:1"
         d="M 540,0 V 650"
         inkscape:label="SubminorXDiv10:0:4"
         id="path8001" /><path
         style="fill:none;stroke:#ffffff;stroke-width:0.3;stroke-opacity:1"
         d="M 560,0 V 650"
         inkscape:label="SubminorXDiv11:0:1"
         id="path8002" /><path
         style="fill:none;stroke:#ffffff;stroke-width:0.3;stroke-opacity:1"
         d="M 570,0 V 650"
         inkscape:label="SubminorXDiv11:0:2"
         id="path8003" /><path
         style="fill:none;stroke:#ffffff;stroke-width:0.3;stroke-opacity:1"
         d="M 580,0 V 650"
         inkscape:label="SubminorXDiv11:0:3"
         id="path8004" /><path
         style="fill:none;stroke:#ffffff;stroke-width:0.3;stroke-opacity:1"
         d="M 590,0 V 650"
         inkscape:label="SubminorXDiv11:0:4"
         id="path8005" /><path
         style="fill:none;stroke:#ffffff;stroke-width:0.3;stroke-opacity:1"
         d="M 610,0 V 650"
         inkscape:label="SubminorXDiv12:0:1"
         id="path8006" /><path
         style="fill:none;stroke:#ffffff;stroke-width:0.3;stroke-opacity:1"
         d="M 620,0 V 650"
         inkscape:label="SubminorXDiv12:0:2"
         id="path8007" /><path
         style="fill:none;stroke:#ffffff;stroke-width:0.3;stroke-opacity:1"
         d="M 630,0 V 650"
         inkscape:label="SubminorXDiv12:0:3"
         id="path8008" /><path
         style="fill:none;stroke:#ffffff;stroke-width:0.3;stroke-opacity:1"
         d="M 640,0 V 650"
         inkscape:label="SubminorXDiv12:0:4"
         id="path8009" /></g><g
       inkscape:label="SubMinorYGridlines"
       id="g8061"
       style="stroke:#ffffff;stroke-opacity:1"><path
         style="fill:none;stroke:#ffffff;stroke-width:0.3;stroke-opacity:1"
         d="M 0,10 H 650"
         inkscape:label="SubminorXDiv0:0:1"
         id="path8010" /><path
         style="fill:none;stroke:#ffffff;stroke-width:0.3;stroke-opacity:1"
         d="M 0,20 H 650"
         inkscape:label="SubminorXDiv0:0:2"
         id="path8011" /><path
         style="fill:none;stroke:#ffffff;stroke-width:0.3;stroke-opacity:1"
         d="M 0,30 H 650"
         inkscape:label="SubminorXDiv0:0:3"
         id="path8012" /><path
         style="fill:none;stroke:#ffffff;stroke-width:0.3;stroke-opacity:1"
         d="M 0,40 H 650"
         inkscape:label="SubminorXDiv0:0:4"
         id="path8013" /><path
         style="fill:none;stroke:#ffffff;stroke-width:0.3;stroke-opacity:1"
         d="M 0,60 H 650"
         inkscape:label="SubminorXDiv1:0:1"
         id="path8014" /><path
         style="fill:none;stroke:#ffffff;stroke-width:0.3;stroke-opacity:1"
         d="M 0,70 H 650"
         inkscape:label="SubminorXDiv1:0:2"
         id="path8015" /><path
         style="fill:none;stroke:#ffffff;stroke-width:0.3;stroke-opacity:1"
         d="M 0,80 H 650"
         inkscape:label="SubminorXDiv1:0:3"
         id="path8016" /><path
         style="fill:none;stroke:#ffffff;stroke-width:0.3;stroke-opacity:1"
         d="M 0,90 H 650"
         inkscape:label="SubminorXDiv1:0:4"
         id="path8017" /><path
         style="fill:none;stroke:#ffffff;stroke-width:0.3;stroke-opacity:1"
         d="M 0,110 H 650"
         inkscape:label="SubminorXDiv2:0:1"
         id="path8018" /><path
         style="fill:none;stroke:#ffffff;stroke-width:0.3;stroke-opacity:1"
         d="M 0,120 H 650"
         inkscape:label="SubminorXDiv2:0:2"
         id="path8019" /><path
         style="fill:none;stroke:#ffffff;stroke-width:0.3;stroke-opacity:1"
         d="M 0,130 H 650"
         inkscape:label="SubminorXDiv2:0:3"
         id="path8020" /><path
         style="fill:none;stroke:#ffffff;stroke-width:0.3;stroke-opacity:1"
         d="M 0,140 H 650"
         inkscape:label="SubminorXDiv2:0:4"
         id="path8021" /><path
         style="fill:none;stroke:#ffffff;stroke-width:0.3;stroke-opacity:1"
         d="M 0,160 H 650"
         inkscape:label="SubminorXDiv3:0:1"
         id="path8022" /><path
         style="fill:none;stroke:#ffffff;stroke-width:0.3;stroke-opacity:1"
         d="M 0,170 H 650"
         inkscape:label="SubminorXDiv3:0:2"
         id="path8023" /><path
         style="fill:none;stroke:#ffffff;stroke-width:0.3;stroke-opacity:1"
         d="M 0,180 H 650"
         inkscape:label="SubminorXDiv3:0:3"
         id="path8024" /><path
         style="fill:none;stroke:#ffffff;stroke-width:0.3;stroke-opacity:1"
         d="M 0,190 H 650"
         inkscape:label="SubminorXDiv3:0:4"
         id="path8025" /><path
         style="fill:none;stroke:#ffffff;stroke-width:0.3;stroke-opacity:1"
         d="M 0,210 H 650"
         inkscape:label="SubminorXDiv4:0:1"
         id="path8026" /><path
         style="fill:none;stroke:#ffffff;stroke-width:0.3;stroke-opacity:1"
         d="M 0,220 H 650"
         inkscape:label="SubminorXDiv4:0:2"
         id="path8027" /><path
         style="fill:none;stroke:#ffffff;stroke-width:0.3;stroke-opacity:1"
         d="M 0,230 H 650"
         inkscape:label="SubminorXDiv4:0:3"
         id="path8028" /><path
         style="fill:none;stroke:#ffffff;stroke-width:0.3;stroke-opacity:1"
         d="M 0,240 H 650"
         inkscape:label="SubminorXDiv4:0:4"
         id="path8029" /><path
         style="fill:none;stroke:#ffffff;stroke-width:0.3;stroke-opacity:1"
         d="M 0,260 H 650"
         inkscape:label="SubminorXDiv5:0:1"
         id="path8030" /><path
         style="fill:none;stroke:#ffffff;stroke-width:0.3;stroke-opacity:1"
         d="M 0,270 H 650"
         inkscape:label="SubminorXDiv5:0:2"
         id="path8031" /><path
         style="fill:none;stroke:#ffffff;stroke-width:0.3;stroke-opacity:1"
         d="M 0,280 H 650"
         inkscape:label="SubminorXDiv5:0:3"
         id="path8032" /><path
         style="fill:none;stroke:#ffffff;stroke-width:0.3;stroke-opacity:1"
         d="M 0,290 H 650"
         inkscape:label="SubminorXDiv5:0:4"
         id="path8033" /><path
         style="fill:none;stroke:#ffffff;stroke-width:0.3;stroke-opacity:1"
         d="M 0,310 H 650"
         inkscape:label="SubminorXDiv6:0:1"
         id="path8034" /><path
         style="fill:none;stroke:#ffffff;stroke-width:0.3;stroke-opacity:1"
         d="M 0,320 H 650"
         inkscape:label="SubminorXDiv6:0:2"
         id="path8035" /><path
         style="fill:none;stroke:#ffffff;stroke-width:0.3;stroke-opacity:1"
         d="M 0,330 H 650"
         inkscape:label="SubminorXDiv6:0:3"
         id="path8036" /><path
         style="fill:none;stroke:#ffffff;stroke-width:0.3;stroke-opacity:1"
         d="M 0,340 H 650"
         inkscape:label="SubminorXDiv6:0:4"
         id="path8037" /><path
         style="fill:none;stroke:#ffffff;stroke-width:0.3;stroke-opacity:1"
         d="M 0,360 H 650"
         inkscape:label="SubminorXDiv7:0:1"
         id="path8038" /><path
         style="fill:none;stroke:#ffffff;stroke-width:0.3;stroke-opacity:1"
         d="M 0,370 H 650"
         inkscape:label="SubminorXDiv7:0:2"
         id="path8039" /><path
         style="fill:none;stroke:#ffffff;stroke-width:0.3;stroke-opacity:1"
         d="M 0,380 H 650"
         inkscape:label="SubminorXDiv7:0:3"
         id="path8040" /><path
         style="fill:none;stroke:#ffffff;stroke-width:0.3;stroke-opacity:1"
         d="M 0,390 H 650"
         inkscape:label="SubminorXDiv7:0:4"
         id="path8041" /><path
         style="fill:none;stroke:#ffffff;stroke-width:0.3;stroke-opacity:1"
         d="M 0,410 H 650"
         inkscape:label="SubminorXDiv8:0:1"
         id="path8042" /><path
         style="fill:none;stroke:#ffffff;stroke-width:0.3;stroke-opacity:1"
         d="M 0,420 H 650"
         inkscape:label="SubminorXDiv8:0:2"
         id="path8043" /><path
         style="fill:none;stroke:#ffffff;stroke-width:0.3;stroke-opacity:1"
         d="M 0,430 H 650"
         inkscape:label="SubminorXDiv8:0:3"
         id="path8044" /><path
         style="fill:none;stroke:#ffffff;stroke-width:0.3;stroke-opacity:1"
         d="M 0,440 H 650"
         inkscape:label="SubminorXDiv8:0:4"
         id="path8045" /><path
         style="fill:none;stroke:#ffffff;stroke-width:0.3;stroke-opacity:1"
         d="M 0,460 H 650"
         inkscape:label="SubminorXDiv9:0:1"
         id="path8046" /><path
         style="fill:none;stroke:#ffffff;stroke-width:0.3;stroke-opacity:1"
         d="M 0,470 H 650"
         inkscape:label="SubminorXDiv9:0:2"
         id="path8047" /><path
         style="fill:none;stroke:#ffffff;stroke-width:0.3;stroke-opacity:1"
         d="M 0,480 H 650"
         inkscape:label="SubminorXDiv9:0:3"
         id="path8048" /><path
         style="fill:none;stroke:#ffffff;stroke-width:0.3;stroke-opacity:1"
         d="M 0,490 H 650"
         inkscape:label="SubminorXDiv9:0:4"
         id="path8049" /><path
         style="fill:none;stroke:#ffffff;stroke-width:0.3;stroke-opacity:1"
         d="M 0,510 H 650"
         inkscape:label="SubminorXDiv10:0:1"
         id="path8050" /><path
         style="fill:none;stroke:#ffffff;stroke-width:0.3;stroke-opacity:1"
         d="M 0,520 H 650"
         inkscape:label="SubminorXDiv10:0:2"
         id="path8051" /><path
         style="fill:none;stroke:#ffffff;stroke-width:0.3;stroke-opacity:1"
         d="M 0,530 H 650"
         inkscape:label="SubminorXDiv10:0:3"
         id="path8052" /><path
         style="fill:none;stroke:#ffffff;stroke-width:0.3;stroke-opacity:1"
         d="M 0,540 H 650"
         inkscape:label="SubminorXDiv10:0:4"
         id="path8053" /><path
         style="fill:none;stroke:#ffffff;stroke-width:0.3;stroke-opacity:1"
         d="m 0,560 h 50.004923 m 50.004927,0 H 650"
         inkscape:label="SubminorXDiv11:0:1"
         id="path8054"
         sodipodi:nodetypes="cccc" /><path
         style="fill:#808080;stroke:#ffffff;stroke-width:0.3;stroke-opacity:1"
         d="m 0,570 h 50.004923 m 120.019687,0 H 650"
         inkscape:label="SubminorXDiv11:0:2"
         id="path8055"
         sodipodi:nodetypes="cccc" /><path
         style="fill:none;stroke:#ffffff;stroke-width:0.3;stroke-opacity:1"
         d="m 0,580 h 50.004925 m 109.988925,0 H 650"
         inkscape:label="SubminorXDiv11:0:3"
         id="path8056"
         sodipodi:nodetypes="cccc" /><path
         style="fill:none;stroke:#ffffff;stroke-width:0.3;stroke-opacity:1"
         d="m 0,590 h 50.004923 m 50.004927,0 H 650"
         inkscape:label="SubminorXDiv11:0:4"
         id="path8057"
         sodipodi:nodetypes="cccc" /><path
         style="fill:none;stroke:#ffffff;stroke-width:0.3;stroke-opacity:1"
         d="M 0,610 H 650"
         inkscape:label="SubminorXDiv12:0:1"
         id="path8058" /><path
         style="fill:none;stroke:#ffffff;stroke-width:0.3;stroke-opacity:1"
         d="M 0,620 H 650"
         inkscape:label="SubminorXDiv12:0:2"
         id="path8059" /><path
         style="fill:none;stroke:#ffffff;stroke-width:0.3;stroke-opacity:1"
         d="M 0,630 H 650"
         inkscape:label="SubminorXDiv12:0:3"
         id="path8060" /><path
         style="fill:none;stroke:#ffffff;stroke-width:0.3;stroke-opacity:1"
         d="M 0,640 H 650"
         inkscape:label="SubminorXDiv12:0:4"
         id="path8061" /></g><path
       id="rect8061"
       style="fill:none;stroke-width:2"
       inkscape:label="Border"
       d="M 0,0 H 650 V 650 H 0 Z" /></g><path
     id="rect8062"
     style="fill:#ffffff;stroke:#ffffff"
     d="m 0.5,0.5 h 650 v 1 H 0.5 Z" /><path
     id="rect8062-4"
     style="fill:#ffffff;stroke:#ffffff;stroke-width:0.994319"
     d="m 318.49716,0.49715951 h 1.00568 V 639.50282 h -1.00568 z" /><g
     id="g55"
     style="fill:#ffffff;fill-opacity:1;image-rendering:crisp-edges"
     transform="matrix(0.22983726,0,0,0.22983726,28.871925,489.9543)"><path
       d="m 260.61,293.92 0.03,9.8 0.03,9.8 c 1.36,0.37 2.11,0.58 2.26,0.62 1.24,0.33 2.27,0.58 2.29,0.56 0.03,-0.03 0.04,-5.26 0.03,-11.63 0,-0.77 -0.02,-4.63 -0.04,-11.58 l -2.31,1.22 z"
       id="use53"
       style="fill:#ffffff;fill-opacity:1" /><g
       id="g54"
       style="fill:#ffffff;fill-opacity:1" /></g><g
     id="g3"
     style="fill:#ffffff;fill-opacity:1;image-rendering:crisp-edges"
     transform="matrix(0.22983726,0,0,0.22983726,30.271925,489.9543)"><path
       d="m 311.24,322.75 v -49 h 8.8 v 21 h 10 v -21 h 8.95 v 49 h -8.95 v -21 h -10 v 21 z"
       id="use1"
       style="fill:#ffffff;fill-opacity:1" /><g
       id="g2"
       style="fill:#ffffff;fill-opacity:1"><path
         d="m 311.24,322.75 v -49 h 8.8 v 21 h 10 v -21 h 8.95 v 49 h -8.95 v -21 h -10 v 21 z"
         id="use2"
         style="fill:#ffffff;fill-opacity:1;stroke:#000000;stroke-width:1;stroke-opacity:0" /></g></g><g
     id="g5"
     style="fill:#ffffff;fill-opacity:1;image-rendering:crisp-edges"
     transform="matrix(0.22983726,0,0,0.22983726,30.271925,489.9543)"><path
       d="m 364.99,322.75 -1.5,-8.9 h -10.8 l -1.5,8.9 h -8.1 l 8.95,-49 h 12.9 l 8.95,49 z m -2.7,-15.55 -4.25,-24.8 -4.25,24.8 z"
       id="use3"
       style="fill:#ffffff;fill-opacity:1" /><g
       id="g4"
       style="fill:#ffffff;fill-opacity:1"><path
         d="m 364.99,322.75 -1.5,-8.9 h -10.8 l -1.5,8.9 h -8.1 l 8.95,-49 h 12.9 l 8.95,49 z m -2.7,-15.55 -4.25,-24.8 -4.25,24.8 z"
         id="use4"
         style="fill:#ffffff;fill-opacity:1;stroke:#000000;stroke-width:1;stroke-opacity:0" /></g></g><g
     id="g7"
     style="fill:#ffffff;fill-opacity:1;image-rendering:crisp-edges"
     transform="matrix(0.22983726,0,0,0.22983726,30.271925,489.9543)"><path
       d="m 395.54,316.75 c 0,-0.78 0,-6.98 0,-7.75 0,-4.55 -1.75,-6.25 -5.75,-6.25 -0.2,0 -1.22,0 -3.05,0 v 19.95 h -8.8 v -49 c 7.98,0 12.41,0 13.3,0 9.1,0 13.05,3.7 13.05,11.25 0,0.38 0,3.46 0,3.85 0,5.05 -1.85,8.35 -5.75,9.95 4.4,1.6 5.85,5.3 5.85,10.45 0,0.75 0,6.79 0,7.55 0,2.4 0.1,4.15 0.95,5.95 -0.6,0 -3.6,0 -9,0 -0.53,-1.33 -0.8,-3.32 -0.8,-5.95 z m -8.8,-20.95 c 2.07,0 3.22,0 3.45,0 3.3,0 5.3,-1.25 5.3,-5.2 0,-0.49 0,-4.37 0,-4.85 0,-3.5 -1.35,-5.05 -4.5,-5.05 -0.28,0 -1.7,0 -4.25,0 z"
       id="use5"
       style="fill:#ffffff;fill-opacity:1" /><g
       id="g6"
       style="fill:#ffffff;fill-opacity:1"><path
         d="m 395.54,316.75 c 0,-0.78 0,-6.98 0,-7.75 0,-4.55 -1.75,-6.25 -5.75,-6.25 -0.2,0 -1.22,0 -3.05,0 v 19.95 h -8.8 v -49 c 7.98,0 12.41,0 13.3,0 9.1,0 13.05,3.7 13.05,11.25 0,0.38 0,3.46 0,3.85 0,5.05 -1.85,8.35 -5.75,9.95 4.4,1.6 5.85,5.3 5.85,10.45 0,0.75 0,6.79 0,7.55 0,2.4 0.1,4.15 0.95,5.95 -0.6,0 -3.6,0 -9,0 -0.53,-1.33 -0.8,-3.32 -0.8,-5.95 z m -8.8,-20.95 c 2.07,0 3.22,0 3.45,0 3.3,0 5.3,-1.25 5.3,-5.2 0,-0.49 0,-4.37 0,-4.85 0,-3.5 -1.35,-5.05 -4.5,-5.05 -0.28,0 -1.7,0 -4.25,0 z"
         id="use6"
         style="fill:#ffffff;fill-opacity:1;stroke:#000000;stroke-width:1;stroke-opacity:0" /></g></g><g
     id="g9"
     style="fill:#ffffff;fill-opacity:1;image-rendering:crisp-edges"
     transform="matrix(0.22983726,0,0,0.22983726,30.271925,489.9543)"><path
       d="m 434.74,273.75 v 7 h -9.2 v 42 h -8.8 v -42 h -9.2 v -7 z"
       id="use7"
       style="fill:#ffffff;fill-opacity:1" /><g
       id="g8"
       style="fill:#ffffff;fill-opacity:1"><path
         d="m 434.74,273.75 v 7 h -9.2 v 42 h -8.8 v -42 h -9.2 v -7 z"
         id="use8"
         style="fill:#ffffff;fill-opacity:1;stroke:#000000;stroke-width:1;stroke-opacity:0" /></g></g><g
     id="g11"
     style="fill:#ffffff;fill-opacity:1;image-rendering:crisp-edges"
     transform="matrix(0.22983726,0,0,0.22983726,30.271925,489.9543)"><path
       d="m 463.39,285.5 c 0,0.1 0,0.62 0,1.55 h -8.3 c 0,-1.23 0,-1.91 0,-2.05 0,-3.5 -1.6,-4.85 -4.4,-4.85 -2.8,0 -4.4,1.35 -4.4,4.85 0,10.1 17.2,11.95 17.2,25.95 0,7.85 -4.5,12.3 -13.1,12.3 -8.6,0 -13.1,-4.5 -13.1,-12.3 0,-0.2 0,-1.2 0,-3 h 8.3 c 0,2.1 0,3.27 0,3.5 0,3.5 1.75,4.75 4.55,4.75 2.8,0 4.55,-1.25 4.55,-4.75 0,-10.1 -17.2,-11.95 -17.2,-25.95 -0.05,-7.85 4.35,-12.3 12.95,-12.3 8.55,0 12.95,4.5 12.95,12.3 z"
       id="use9"
       style="fill:#ffffff;fill-opacity:1" /><g
       id="g10"
       style="fill:#ffffff;fill-opacity:1"><path
         d="m 463.39,285.5 c 0,0.1 0,0.62 0,1.55 h -8.3 c 0,-1.23 0,-1.91 0,-2.05 0,-3.5 -1.6,-4.85 -4.4,-4.85 -2.8,0 -4.4,1.35 -4.4,4.85 0,10.1 17.2,11.95 17.2,25.95 0,7.85 -4.5,12.3 -13.1,12.3 -8.6,0 -13.1,-4.5 -13.1,-12.3 0,-0.2 0,-1.2 0,-3 h 8.3 c 0,2.1 0,3.27 0,3.5 0,3.5 1.75,4.75 4.55,4.75 2.8,0 4.55,-1.25 4.55,-4.75 0,-10.1 -17.2,-11.95 -17.2,-25.95 -0.05,-7.85 4.35,-12.3 12.95,-12.3 8.55,0 12.95,4.5 12.95,12.3 z"
         id="use10"
         style="fill:#ffffff;fill-opacity:1;stroke:#000000;stroke-width:1;stroke-opacity:0" /></g></g><g
     id="g13"
     style="fill:#ffffff;fill-opacity:1;image-rendering:crisp-edges"
     transform="matrix(0.22983726,0,0,0.22983726,30.271925,489.9543)"><path
       d="m 493.14,273.75 h 12.25 v 49 h -8.3 V 287.6 l -6.1,35.15 h -8.3 l -6.55,-34.65 v 34.65 h -7.7 v -49 h 12.25 l 6.45,34.8 z"
       id="use11"
       style="fill:#ffffff;fill-opacity:1" /><g
       id="g12"
       style="fill:#ffffff;fill-opacity:1"><path
         d="m 493.14,273.75 h 12.25 v 49 h -8.3 V 287.6 l -6.1,35.15 h -8.3 l -6.55,-34.65 v 34.65 h -7.7 v -49 h 12.25 l 6.45,34.8 z"
         id="use12"
         style="fill:#ffffff;fill-opacity:1;stroke:#000000;stroke-width:1;stroke-opacity:0" /></g></g><g
     id="g15"
     style="fill:#ffffff;fill-opacity:1;image-rendering:crisp-edges"
     transform="matrix(0.22983726,0,0,0.22983726,30.271925,489.9543)"><path
       d="m 531.34,322.75 -1.5,-8.9 h -10.8 l -1.5,8.9 h -8.1 l 8.95,-49 h 12.9 l 8.95,49 z m -2.7,-15.55 -4.25,-24.8 -4.25,24.8 z"
       id="use13"
       style="fill:#ffffff;fill-opacity:1" /><g
       id="g14"
       style="fill:#ffffff;fill-opacity:1"><path
         d="m 531.34,322.75 -1.5,-8.9 h -10.8 l -1.5,8.9 h -8.1 l 8.95,-49 h 12.9 l 8.95,49 z m -2.7,-15.55 -4.25,-24.8 -4.25,24.8 z"
         id="use14"
         style="fill:#ffffff;fill-opacity:1;stroke:#000000;stroke-width:1;stroke-opacity:0" /></g></g><g
     id="g17"
     style="fill:#ffffff;fill-opacity:1;image-rendering:crisp-edges"
     transform="matrix(0.22983726,0,0,0.22983726,30.271925,489.9543)"><path
       d="m 561.89,316.75 c 0,-0.78 0,-6.98 0,-7.75 0,-4.55 -1.75,-6.25 -5.75,-6.25 -0.2,0 -1.22,0 -3.05,0 v 19.95 h -8.8 v -49 c 7.98,0 12.41,0 13.3,0 9.1,0 13.05,3.7 13.05,11.25 0,0.38 0,3.46 0,3.85 0,5.05 -1.85,8.35 -5.75,9.95 4.4,1.6 5.85,5.3 5.85,10.45 0,0.75 0,6.79 0,7.55 0,2.4 0.1,4.15 0.95,5.95 -0.6,0 -3.6,0 -9,0 -0.53,-1.33 -0.8,-3.32 -0.8,-5.95 z m -8.8,-20.95 c 2.07,0 3.22,0 3.45,0 3.3,0 5.3,-1.25 5.3,-5.2 0,-0.49 0,-4.37 0,-4.85 0,-3.5 -1.35,-5.05 -4.5,-5.05 -0.28,0 -1.7,0 -4.25,0 z"
       id="use15"
       style="fill:#ffffff;fill-opacity:1" /><g
       id="g16"
       style="fill:#ffffff;fill-opacity:1"><path
         d="m 561.89,316.75 c 0,-0.78 0,-6.98 0,-7.75 0,-4.55 -1.75,-6.25 -5.75,-6.25 -0.2,0 -1.22,0 -3.05,0 v 19.95 h -8.8 v -49 c 7.98,0 12.41,0 13.3,0 9.1,0 13.05,3.7 13.05,11.25 0,0.38 0,3.46 0,3.85 0,5.05 -1.85,8.35 -5.75,9.95 4.4,1.6 5.85,5.3 5.85,10.45 0,0.75 0,6.79 0,7.55 0,2.4 0.1,4.15 0.95,5.95 -0.6,0 -3.6,0 -9,0 -0.53,-1.33 -0.8,-3.32 -0.8,-5.95 z m -8.8,-20.95 c 2.07,0 3.22,0 3.45,0 3.3,0 5.3,-1.25 5.3,-5.2 0,-0.49 0,-4.37 0,-4.85 0,-3.5 -1.35,-5.05 -4.5,-5.05 -0.28,0 -1.7,0 -4.25,0 z"
         id="use16"
         style="fill:#ffffff;fill-opacity:1;stroke:#000000;stroke-width:1;stroke-opacity:0" /></g></g><g
     id="g19"
     style="fill:#ffffff;fill-opacity:1;image-rendering:crisp-edges"
     transform="matrix(0.22983726,0,0,0.22983726,30.271925,489.9543)"><path
       d="m 601.09,273.75 v 7 h -9.2 v 42 h -8.8 v -42 h -9.2 v -7 z"
       id="use17"
       style="fill:#ffffff;fill-opacity:1" /><g
       id="g18"
       style="fill:#ffffff;fill-opacity:1"><path
         d="m 601.09,273.75 v 7 h -9.2 v 42 h -8.8 v -42 h -9.2 v -7 z"
         id="use18"
         style="fill:#ffffff;fill-opacity:1;stroke:#000000;stroke-width:1;stroke-opacity:0" /></g></g><g
     id="g21"
     style="fill:#ffffff;fill-opacity:1;image-rendering:crisp-edges"
     transform="matrix(0.22983726,0,0,0.22983726,30.271925,489.9543)"><path
       d="m 337.29,346.17 c 0,7.85 -4.3,12.1 -13.1,12.1 -0.28,0 -1.66,0 -4.15,0 v 18.4 h -8.8 v -49 c 7.77,0 12.09,0 12.95,0 8.75,0.05 13.1,4.3 13.1,12.15 0,1.27 0,5.72 0,6.35 z m -17.3,5.15 c 2.49,0 3.87,0 4.15,0 2.8,0 4.3,-1.1 4.3,-4.6 0,-0.73 0,-6.61 0,-7.35 0,-3.5 -1.5,-4.6 -4.3,-4.6 -0.28,0 -1.66,0 -4.15,0 z"
       id="use19"
       style="fill:#ffffff;fill-opacity:1" /><g
       id="g20"
       style="fill:#ffffff;fill-opacity:1"><path
         d="m 337.29,346.17 c 0,7.85 -4.3,12.1 -13.1,12.1 -0.28,0 -1.66,0 -4.15,0 v 18.4 h -8.8 v -49 c 7.77,0 12.09,0 12.95,0 8.75,0.05 13.1,4.3 13.1,12.15 0,1.27 0,5.72 0,6.35 z m -17.3,5.15 c 2.49,0 3.87,0 4.15,0 2.8,0 4.3,-1.1 4.3,-4.6 0,-0.73 0,-6.61 0,-7.35 0,-3.5 -1.5,-4.6 -4.3,-4.6 -0.28,0 -1.66,0 -4.15,0 z"
         id="use20"
         style="fill:#ffffff;fill-opacity:1;stroke:#000000;stroke-width:1;stroke-opacity:0" /></g></g><g
     id="g23"
     style="fill:#ffffff;fill-opacity:1;image-rendering:crisp-edges"
     transform="matrix(0.22983726,0,0,0.22983726,30.271925,489.9543)"><path
       d="m 358.94,370.72 c 0,-0.77 0,-6.97 0,-7.75 0,-4.55 -1.75,-6.25 -5.75,-6.25 -0.2,0 -1.22,0 -3.05,0 v 19.95 h -8.8 v -49 c 7.98,0 12.41,0 13.3,0 9.1,0 13.05,3.7 13.05,11.25 0,0.39 0,3.47 0,3.85 0,5.05 -1.85,8.35 -5.75,9.95 4.4,1.6 5.85,5.3 5.85,10.45 0,0.76 0,6.8 0,7.55 0,2.4 0.1,4.15 0.95,5.95 -0.6,0 -3.6,0 -9,0 -0.53,-1.33 -0.8,-3.31 -0.8,-5.95 z m -8.8,-20.95 c 2.07,0 3.22,0 3.45,0 3.3,0 5.3,-1.25 5.3,-5.2 0,-0.48 0,-4.36 0,-4.85 0,-3.5 -1.35,-5.05 -4.5,-5.05 -0.28,0 -1.7,0 -4.25,0 z"
       id="use21"
       style="fill:#ffffff;fill-opacity:1" /><g
       id="g22"
       style="fill:#ffffff;fill-opacity:1"><path
         d="m 358.94,370.72 c 0,-0.77 0,-6.97 0,-7.75 0,-4.55 -1.75,-6.25 -5.75,-6.25 -0.2,0 -1.22,0 -3.05,0 v 19.95 h -8.8 v -49 c 7.98,0 12.41,0 13.3,0 9.1,0 13.05,3.7 13.05,11.25 0,0.39 0,3.47 0,3.85 0,5.05 -1.85,8.35 -5.75,9.95 4.4,1.6 5.85,5.3 5.85,10.45 0,0.76 0,6.8 0,7.55 0,2.4 0.1,4.15 0.95,5.95 -0.6,0 -3.6,0 -9,0 -0.53,-1.33 -0.8,-3.31 -0.8,-5.95 z m -8.8,-20.95 c 2.07,0 3.22,0 3.45,0 3.3,0 5.3,-1.25 5.3,-5.2 0,-0.48 0,-4.36 0,-4.85 0,-3.5 -1.35,-5.05 -4.5,-5.05 -0.28,0 -1.7,0 -4.25,0 z"
         id="use22"
         style="fill:#ffffff;fill-opacity:1;stroke:#000000;stroke-width:1;stroke-opacity:0" /></g></g><g
     id="g25"
     style="fill:#ffffff;fill-opacity:1;image-rendering:crisp-edges"
     transform="matrix(0.22983726,0,0,0.22983726,30.271925,489.9543)"><path
       d="m 386.14,327.17 c 8.65,0 13.35,4.5 13.35,12.3 0,2.55 0,22.95 0,25.5 0,7.85 -4.7,12.3 -13.35,12.3 -8.65,0 -13.35,-4.5 -13.35,-12.3 0,-2.55 0,-19.67 0,-24.59 0,-2.95 1.03,-5.8 2.91,-8.07 2.85,-3.42 6.33,-5.14 10.44,-5.14 z m 0,43.1 c 2.8,0 4.55,-1.35 4.55,-4.85 0,-2.64 0,-23.8 0,-26.45 0,-3.5 -1.75,-4.85 -4.55,-4.85 -2.8,0 -4.55,1.35 -4.55,4.85 0,1.77 0,10.58 0,26.45 1.17,3.24 2.68,4.85 4.55,4.85 z"
       id="use23"
       style="fill:#ffffff;fill-opacity:1" /><g
       id="g24"
       style="fill:#ffffff;fill-opacity:1"><path
         d="m 386.14,327.17 c 8.65,0 13.35,4.5 13.35,12.3 0,2.55 0,22.95 0,25.5 0,7.85 -4.7,12.3 -13.35,12.3 -8.65,0 -13.35,-4.5 -13.35,-12.3 0,-2.55 0,-19.67 0,-24.59 0,-2.95 1.03,-5.8 2.91,-8.07 2.85,-3.42 6.33,-5.14 10.44,-5.14 z m 0,43.1 c 2.8,0 4.55,-1.35 4.55,-4.85 0,-2.64 0,-23.8 0,-26.45 0,-3.5 -1.75,-4.85 -4.55,-4.85 -2.8,0 -4.55,1.35 -4.55,4.85 0,1.77 0,10.58 0,26.45 1.17,3.24 2.68,4.85 4.55,4.85 z"
         id="use24"
         style="fill:#ffffff;fill-opacity:1;stroke:#000000;stroke-width:1;stroke-opacity:0" /></g></g><g
     id="g27"
     style="fill:#ffffff;fill-opacity:1;image-rendering:crisp-edges"
     transform="matrix(0.22983726,0,0,0.22983726,30.271925,489.9543)"><path
       d="m 419.09,327.72 c 8.8,0 13.1,4.25 13.1,12.1 0,2.48 0,22.32 0,24.8 0,7.85 -4.3,12.1 -13.1,12.1 -0.93,0 -5.56,0 -13.9,0 v -49 c 8.34,0 12.97,0 13.9,0 z m -5.1,42 c 2.97,0 4.62,0 4.95,0 2.8,0 4.5,-1.25 4.5,-4.75 0,-2.55 0,-22.95 0,-25.5 0,-3.5 -1.7,-4.75 -4.5,-4.75 -0.33,0 -1.98,0 -4.95,0 z"
       id="use25"
       style="fill:#ffffff;fill-opacity:1" /><g
       id="g26"
       style="fill:#ffffff;fill-opacity:1"><path
         d="m 419.09,327.72 c 8.8,0 13.1,4.25 13.1,12.1 0,2.48 0,22.32 0,24.8 0,7.85 -4.3,12.1 -13.1,12.1 -0.93,0 -5.56,0 -13.9,0 v -49 c 8.34,0 12.97,0 13.9,0 z m -5.1,42 c 2.97,0 4.62,0 4.95,0 2.8,0 4.5,-1.25 4.5,-4.75 0,-2.55 0,-22.95 0,-25.5 0,-3.5 -1.7,-4.75 -4.5,-4.75 -0.33,0 -1.98,0 -4.95,0 z"
         id="use26"
         style="fill:#ffffff;fill-opacity:1;stroke:#000000;stroke-width:1;stroke-opacity:0" /></g></g><g
     id="g29"
     style="fill:#ffffff;fill-opacity:1;image-rendering:crisp-edges"
     transform="matrix(0.22983726,0,0,0.22983726,30.271925,489.9543)"><path
       d="m 446.19,365.52 c 0,3.5 1.75,4.75 4.55,4.75 2.8,0 4.55,-1.25 4.55,-4.75 0,-2.52 0,-15.12 0,-37.8 h 8.3 c 0,22.38 0,34.82 0,37.3 0,7.85 -4.5,12.3 -13.1,12.3 -8.65,0 -13.1,-4.5 -13.1,-12.3 0,-2.48 0,-14.92 0,-37.3 h 8.8 c 0,22.68 0,35.28 0,37.8 z"
       id="use27"
       style="fill:#ffffff;fill-opacity:1" /><g
       id="g28"
       style="fill:#ffffff;fill-opacity:1"><path
         d="m 446.19,365.52 c 0,3.5 1.75,4.75 4.55,4.75 2.8,0 4.55,-1.25 4.55,-4.75 0,-2.52 0,-15.12 0,-37.8 h 8.3 c 0,22.38 0,34.82 0,37.3 0,7.85 -4.5,12.3 -13.1,12.3 -8.65,0 -13.1,-4.5 -13.1,-12.3 0,-2.48 0,-14.92 0,-37.3 h 8.8 c 0,22.68 0,35.28 0,37.8 z"
         id="use28"
         style="fill:#ffffff;fill-opacity:1;stroke:#000000;stroke-width:1;stroke-opacity:0" /></g></g><g
     id="g31"
     style="fill:#ffffff;fill-opacity:1;image-rendering:crisp-edges"
     transform="matrix(0.22983726,0,0,0.22983726,30.271925,489.9543)"><path
       d="m 495.14,364.92 c 0,7.85 -4.5,12.3 -13.1,12.3 -8.65,0 -13.1,-4.5 -13.1,-12.3 0,-2.55 0,-22.95 0,-25.5 0,-7.85 4.5,-12.3 13.1,-12.3 8.65,0 13.1,4.5 13.1,12.3 0,0.32 0,1.9 0,4.75 h -8.3 c 0,-3.12 0,-4.85 0,-5.2 0,-3.5 -1.75,-4.85 -4.55,-4.85 -2.8,0 -4.55,1.35 -4.55,4.85 0,2.65 0,23.81 0,26.45 0,3.5 1.75,4.75 4.55,4.75 2.8,0 4.55,-1.25 4.55,-4.75 0,-0.46 0,-2.8 0,-7 h 8.3 c 0,3.9 0,6.07 0,6.5 z"
       id="use29"
       style="fill:#ffffff;fill-opacity:1" /><g
       id="g30"
       style="fill:#ffffff;fill-opacity:1"><path
         d="m 495.14,364.92 c 0,7.85 -4.5,12.3 -13.1,12.3 -8.65,0 -13.1,-4.5 -13.1,-12.3 0,-2.55 0,-22.95 0,-25.5 0,-7.85 4.5,-12.3 13.1,-12.3 8.65,0 13.1,4.5 13.1,12.3 0,0.32 0,1.9 0,4.75 h -8.3 c 0,-3.12 0,-4.85 0,-5.2 0,-3.5 -1.75,-4.85 -4.55,-4.85 -2.8,0 -4.55,1.35 -4.55,4.85 0,2.65 0,23.81 0,26.45 0,3.5 1.75,4.75 4.55,4.75 2.8,0 4.55,-1.25 4.55,-4.75 0,-0.46 0,-2.8 0,-7 h 8.3 c 0,3.9 0,6.07 0,6.5 z"
         id="use30"
         style="fill:#ffffff;fill-opacity:1;stroke:#000000;stroke-width:1;stroke-opacity:0" /></g></g><g
     id="g33"
     style="fill:#ffffff;fill-opacity:1;image-rendering:crisp-edges"
     transform="matrix(0.22983726,0,0,0.22983726,30.271925,489.9543)"><path
       d="m 525.14,327.72 v 7 h -9.2 v 42 h -8.8 v -42 h -9.2 v -7 z"
       id="use31"
       style="fill:#ffffff;fill-opacity:1" /><g
       id="g32"
       style="fill:#ffffff;fill-opacity:1"><path
         d="m 525.14,327.72 v 7 h -9.2 v 42 h -8.8 v -42 h -9.2 v -7 z"
         id="use32"
         style="fill:#ffffff;fill-opacity:1;stroke:#000000;stroke-width:1;stroke-opacity:0" /></g></g><g
     id="g35"
     style="fill:#ffffff;fill-opacity:1;image-rendering:crisp-edges"
     transform="matrix(0.22983726,0,0,0.22983726,30.271925,489.9543)"><path
       d="m 553.79,339.47 c 0,0.11 0,0.62 0,1.55 h -8.3 c 0,-1.23 0,-1.91 0,-2.05 0,-3.5 -1.6,-4.85 -4.4,-4.85 -2.8,0 -4.4,1.35 -4.4,4.85 0,10.1 17.2,11.95 17.2,25.95 0,7.85 -4.5,12.3 -13.1,12.3 -8.6,0 -13.1,-4.5 -13.1,-12.3 0,-0.2 0,-1.2 0,-3 h 8.3 c 0,2.1 0,3.27 0,3.5 0,3.5 1.75,4.75 4.55,4.75 2.8,0 4.55,-1.25 4.55,-4.75 0,-10.1 -17.2,-11.95 -17.2,-25.95 -0.05,-7.85 4.35,-12.3 12.95,-12.3 8.55,0 12.95,4.5 12.95,12.3 z"
       id="use33"
       style="fill:#ffffff;fill-opacity:1" /><g
       id="g34"
       style="fill:#ffffff;fill-opacity:1"><path
         d="m 553.79,339.47 c 0,0.11 0,0.62 0,1.55 h -8.3 c 0,-1.23 0,-1.91 0,-2.05 0,-3.5 -1.6,-4.85 -4.4,-4.85 -2.8,0 -4.4,1.35 -4.4,4.85 0,10.1 17.2,11.95 17.2,25.95 0,7.85 -4.5,12.3 -13.1,12.3 -8.6,0 -13.1,-4.5 -13.1,-12.3 0,-0.2 0,-1.2 0,-3 h 8.3 c 0,2.1 0,3.27 0,3.5 0,3.5 1.75,4.75 4.55,4.75 2.8,0 4.55,-1.25 4.55,-4.75 0,-10.1 -17.2,-11.95 -17.2,-25.95 -0.05,-7.85 4.35,-12.3 12.95,-12.3 8.55,0 12.95,4.5 12.95,12.3 z"
         id="use34"
         style="fill:#ffffff;fill-opacity:1;stroke:#000000;stroke-width:1;stroke-opacity:0" /></g></g><g
     id="g37"
     style="fill:#ffffff;fill-opacity:1;image-rendering:crisp-edges"
     transform="matrix(0.22983726,0,0,0.22983726,30.271925,489.9543)"><path
       d="m 192.72,220.29 c -6.3,3.26 -88.02,46.05 -88.47,46.33 -0.8,0.5 -1.84,1.64 -2.33,2.55 -0.87,1.62 -0.79,-3.21 -0.79,54.42 0,3.48 0,20.87 0,52.18 0.19,0.57 0.29,0.88 0.31,0.95 0.57,1.65 1.67,3.02 3.12,3.86 1.77,1.05 88.89,46.02 89.61,46.28 1.02,0.35 3.21,0.4 4.3,0.08 1.06,-0.3 91.88,-46.37 92.65,-47 0.84,-0.69 1.68,-1.8 2.1,-2.81 0.03,-0.06 0.15,-0.33 0.36,-0.81 0.02,-31.51 0.03,-49.02 0.04,-52.52 0.02,-47.69 0.01,-52.57 -0.18,-53.19 -0.35,-1.22 -0.92,-2.15 -1.87,-3.07 -0.06,-0.06 -0.35,-0.35 -0.89,-0.88 -27.48,-14.08 -42.74,-21.9 -45.79,-23.47 -29.36,-15.05 -46.04,-23.54 -46.51,-23.67 -0.91,-0.23 -3.03,-0.22 -3.9,0 -0.34,0.1 -1.13,0.44 -1.76,0.77 z m 82.39,61.24 -0.03,24.13 -0.03,24.13 -7.95,1.85 -7.94,1.86 c -2.34,-0.53 -3.65,-0.82 -3.91,-0.88 -2.15,-0.48 -4.01,-0.88 -4.13,-0.88 -0.21,0 -0.22,1.43 -0.24,24.47 -0.01,1.63 -0.02,9.79 -0.04,24.47 l -27.17,11.79 -27.16,11.79 -15.96,-7.59 -15.94,-7.6 c 0,-3.92 0,-6.09 0,-6.53 0,-3.59 0.03,-6.55 0.07,-6.59 0.06,-0.07 13.38,-2.95 13.62,-2.95 0.06,0 0.11,-7.96 0.11,-18.5 0,-1.24 0,-7.4 0,-18.51 -0.32,0.05 -0.49,0.07 -0.53,0.08 -0.3,0.04 -8.8,1.15 -18.89,2.47 -1.22,0.16 -7.33,0.96 -18.34,2.4 l -0.06,13.93 -0.06,13.93 -4.23,1.05 -4.22,1.05 -6.2,-2.46 -6.22,-2.46 v -41.85 -41.84 l 13.78,-6.83 13.78,-6.84 4.19,0.83 4.18,0.84 v 7.25 l -0.01,7.25 -7.47,3.46 -7.46,3.48 -0.04,13.33 -0.02,13.33 c 0.16,-0.04 0.26,-0.06 0.28,-0.06 0.16,-0.04 8.57,-1.94 18.69,-4.22 10.13,-2.27 18.51,-4.16 18.64,-4.2 0.2,-0.06 0.21,-0.99 0.18,-17.84 0,-1.19 -0.01,-7.11 -0.03,-17.78 -2.95,-0.14 -4.59,-0.22 -4.92,-0.24 -2.7,-0.12 -4.92,-0.24 -4.93,-0.25 -0.06,-0.14 0.23,-16.53 0.29,-16.55 0.05,-0.02 6.25,-3.27 13.78,-7.22 7.67,-4.01 13.81,-7.16 13.96,-7.15 0.15,0.01 17.9,8.71 39.43,19.33 5.22,2.58 18.27,9.02 39.15,19.32 z"
       id="use35"
       style="fill:#ffffff;fill-opacity:1" /><g
       id="g36"
       style="fill:#ffffff;fill-opacity:1"><path
         d="m 192.72,220.29 c -6.3,3.26 -88.02,46.05 -88.47,46.33 -0.8,0.5 -1.84,1.64 -2.33,2.55 -0.87,1.62 -0.79,-3.21 -0.79,54.42 0,3.48 0,20.87 0,52.18 0.19,0.57 0.29,0.88 0.31,0.95 0.57,1.65 1.67,3.02 3.12,3.86 1.77,1.05 88.89,46.02 89.61,46.28 1.02,0.35 3.21,0.4 4.3,0.08 1.06,-0.3 91.88,-46.37 92.65,-47 0.84,-0.69 1.68,-1.8 2.1,-2.81 0.03,-0.06 0.15,-0.33 0.36,-0.81 0.02,-31.51 0.03,-49.02 0.04,-52.52 0.02,-47.69 0.01,-52.57 -0.18,-53.19 -0.35,-1.22 -0.92,-2.15 -1.87,-3.07 -0.06,-0.06 -0.35,-0.35 -0.89,-0.88 -27.48,-14.08 -42.74,-21.9 -45.79,-23.47 -29.36,-15.05 -46.04,-23.54 -46.51,-23.67 -0.91,-0.23 -3.03,-0.22 -3.9,0 -0.34,0.1 -1.13,0.44 -1.76,0.77 z m 82.39,61.24 -0.03,24.13 -0.03,24.13 -7.95,1.85 -7.94,1.86 c -2.34,-0.53 -3.65,-0.82 -3.91,-0.88 -2.15,-0.48 -4.01,-0.88 -4.13,-0.88 -0.21,0 -0.22,1.43 -0.24,24.47 -0.01,1.63 -0.02,9.79 -0.04,24.47 l -27.17,11.79 -27.16,11.79 -15.96,-7.59 -15.94,-7.6 c 0,-3.92 0,-6.09 0,-6.53 0,-3.59 0.03,-6.55 0.07,-6.59 0.06,-0.07 13.38,-2.95 13.62,-2.95 0.06,0 0.11,-7.96 0.11,-18.5 0,-1.24 0,-7.4 0,-18.51 -0.32,0.05 -0.49,0.07 -0.53,0.08 -0.3,0.04 -8.8,1.15 -18.89,2.47 -1.22,0.16 -7.33,0.96 -18.34,2.4 l -0.06,13.93 -0.06,13.93 -4.23,1.05 -4.22,1.05 -6.2,-2.46 -6.22,-2.46 v -41.85 -41.84 l 13.78,-6.83 13.78,-6.84 4.19,0.83 4.18,0.84 v 7.25 l -0.01,7.25 -7.47,3.46 -7.46,3.48 -0.04,13.33 -0.02,13.33 c 0.16,-0.04 0.26,-0.06 0.28,-0.06 0.16,-0.04 8.57,-1.94 18.69,-4.22 10.13,-2.27 18.51,-4.16 18.64,-4.2 0.2,-0.06 0.21,-0.99 0.18,-17.84 0,-1.19 -0.01,-7.11 -0.03,-17.78 -2.95,-0.14 -4.59,-0.22 -4.92,-0.24 -2.7,-0.12 -4.92,-0.24 -4.93,-0.25 -0.06,-0.14 0.23,-16.53 0.29,-16.55 0.05,-0.02 6.25,-3.27 13.78,-7.22 7.67,-4.01 13.81,-7.16 13.96,-7.15 0.15,0.01 17.9,8.71 39.43,19.33 5.22,2.58 18.27,9.02 39.15,19.32 z"
         id="use36"
         style="fill:#ffffff;fill-opacity:1;stroke:#000000;stroke-width:1;stroke-opacity:0" /></g></g><g
     id="g39"
     style="fill:#ffffff;fill-opacity:1;image-rendering:crisp-edges"
     transform="matrix(0.22983726,0,0,0.22983726,30.271925,489.9543)"><path
       d="m 212.26,273.26 c 3.36,1.3 5.23,2.02 5.6,2.17 3.07,1.2 5.67,2.17 5.76,2.17 0.16,0 4.26,-3.25 4.19,-3.32 -0.03,-0.02 -3.5,-1.53 -7.73,-3.37 -4.23,-1.84 -7.73,-3.36 -7.79,-3.4 -0.05,-0.02 -0.08,1.25 -0.07,2.85 0.01,0.39 0.02,1.36 0.04,2.9 z"
       id="use37"
       style="fill:#ffffff;fill-opacity:1" /><g
       id="g38"
       style="fill:#ffffff;fill-opacity:1"><path
         d="m 212.26,273.26 c 3.36,1.3 5.23,2.02 5.6,2.17 3.07,1.2 5.67,2.17 5.76,2.17 0.16,0 4.26,-3.25 4.19,-3.32 -0.03,-0.02 -3.5,-1.53 -7.73,-3.37 -4.23,-1.84 -7.73,-3.36 -7.79,-3.4 -0.05,-0.02 -0.08,1.25 -0.07,2.85 0.01,0.39 0.02,1.36 0.04,2.9 z"
         id="use38"
         style="fill:#ffffff;fill-opacity:1;stroke:#000000;stroke-width:1;stroke-opacity:0" /></g></g><g
     id="g41"
     style="fill:#ffffff;fill-opacity:1;image-rendering:crisp-edges"
     transform="matrix(0.22983726,0,0,0.22983726,30.271925,489.9543)"><path
       d="m 172.17,272.44 c -0.03,0.01 -0.2,0.08 -0.5,0.21 0.52,0.05 0.82,0.08 0.88,0.09 0.49,0.05 2,0.09 3.38,0.1 0.16,0 0.99,0 2.48,0.01 0,-0.9 0,-1.4 0,-1.5 0,-1.13 -0.04,-1.5 -0.15,-1.49 -0.09,0 -1.39,0.54 -2.88,1.19 -1.48,0.64 -2.93,1.26 -3.21,1.39 z"
       id="use39"
       style="fill:#ffffff;fill-opacity:1" /><g
       id="g40"
       style="fill:#ffffff;fill-opacity:1"><path
         d="m 172.17,272.44 c -0.03,0.01 -0.2,0.08 -0.5,0.21 0.52,0.05 0.82,0.08 0.88,0.09 0.49,0.05 2,0.09 3.38,0.1 0.16,0 0.99,0 2.48,0.01 0,-0.9 0,-1.4 0,-1.5 0,-1.13 -0.04,-1.5 -0.15,-1.49 -0.09,0 -1.39,0.54 -2.88,1.19 -1.48,0.64 -2.93,1.26 -3.21,1.39 z"
         id="use40"
         style="fill:#ffffff;fill-opacity:1;stroke:#000000;stroke-width:1;stroke-opacity:0" /></g></g><g
     id="g43"
     style="fill:#ffffff;fill-opacity:1;image-rendering:crisp-edges"
     transform="matrix(0.22983726,0,0,0.22983726,30.271925,489.9543)"><path
       d="m 147.38,282.53 c 0.05,0.04 1.47,0.26 3.12,0.51 1.66,0.24 3.14,0.46 3.3,0.5 0.02,0.01 0.11,0.03 0.28,0.06 v -6 -6 c -0.17,-0.04 -0.26,-0.06 -0.28,-0.06 -1.25,-0.3 -6.42,-1.27 -6.47,-1.22 -0.11,0.12 -0.06,12.15 0.05,12.21 z"
       id="use41"
       style="fill:#ffffff;fill-opacity:1" /><g
       id="g42"
       style="fill:#ffffff;fill-opacity:1"><path
         d="m 147.38,282.53 c 0.05,0.04 1.47,0.26 3.12,0.51 1.66,0.24 3.14,0.46 3.3,0.5 0.02,0.01 0.11,0.03 0.28,0.06 v -6 -6 c -0.17,-0.04 -0.26,-0.06 -0.28,-0.06 -1.25,-0.3 -6.42,-1.27 -6.47,-1.22 -0.11,0.12 -0.06,12.15 0.05,12.21 z"
         id="use42"
         style="fill:#ffffff;fill-opacity:1;stroke:#000000;stroke-width:1;stroke-opacity:0" /></g></g><g
     id="g45"
     style="fill:#ffffff;fill-opacity:1;image-rendering:crisp-edges"
     transform="matrix(0.22983726,0,0,0.22983726,30.271925,489.9543)"><path
       d="m 212.2,304.83 c 5.22,5.44 8.13,8.45 8.71,9.06 4.79,4.96 8.99,9.31 9.33,9.66 0.04,0.04 0.25,0.25 0.62,0.63 V 311.1 298.02 l -3.97,-1.46 -3.98,-1.48 c 0,-4.71 0,-7.33 0,-7.85 0,-6.16 -0.03,-7.87 -0.15,-7.92 -0.09,-0.02 -2.46,-0.93 -5.27,-2.02 -2.8,-1.08 -5.14,-1.99 -5.19,-2.01 -0.05,-0.04 -0.1,6.6 -0.1,14.74 0,1.97 0,6.91 0,14.81 z"
       id="use43"
       style="fill:#ffffff;fill-opacity:1" /><g
       id="g44"
       style="fill:#ffffff;fill-opacity:1"><path
         d="m 212.2,304.83 c 5.22,5.44 8.13,8.45 8.71,9.06 4.79,4.96 8.99,9.31 9.33,9.66 0.04,0.04 0.25,0.25 0.62,0.63 V 311.1 298.02 l -3.97,-1.46 -3.98,-1.48 c 0,-4.71 0,-7.33 0,-7.85 0,-6.16 -0.03,-7.87 -0.15,-7.92 -0.09,-0.02 -2.46,-0.93 -5.27,-2.02 -2.8,-1.08 -5.14,-1.99 -5.19,-2.01 -0.05,-0.04 -0.1,6.6 -0.1,14.74 0,1.97 0,6.91 0,14.81 z"
         id="use44"
         style="fill:#ffffff;fill-opacity:1;stroke:#000000;stroke-width:1;stroke-opacity:0" /></g></g><g
     id="g47"
     style="fill:#ffffff;fill-opacity:1;image-rendering:crisp-edges"
     transform="matrix(0.22983726,0,0,0.22983726,30.271925,489.9543)"><path
       d="m 224.43,279.38 v 7.17 7.19 c 0.25,0.11 0.39,0.17 0.41,0.18 0.22,0.09 1.79,0.67 3.5,1.29 1.7,0.62 3.41,1.25 3.82,1.4 0.04,0.01 0.28,0.1 0.71,0.26 v 14.53 l 0.02,14.53 3.05,3.35 3.05,3.34 c 0.02,-11.2 0.03,-17.41 0.04,-18.66 0.01,-10.26 -0.02,-18.69 -0.07,-18.73 -0.06,-0.05 -2.33,-0.92 -5.04,-1.95 -0.33,-0.12 -1.98,-0.74 -4.95,-1.86 l -0.03,-7.79 -0.04,-7.8 -2.23,1.77 z"
       id="use45"
       style="fill:#ffffff;fill-opacity:1" /><g
       id="g46"
       style="fill:#ffffff;fill-opacity:1"><path
         d="m 224.43,279.38 v 7.17 7.19 c 0.25,0.11 0.39,0.17 0.41,0.18 0.22,0.09 1.79,0.67 3.5,1.29 1.7,0.62 3.41,1.25 3.82,1.4 0.04,0.01 0.28,0.1 0.71,0.26 v 14.53 l 0.02,14.53 3.05,3.35 3.05,3.34 c 0.02,-11.2 0.03,-17.41 0.04,-18.66 0.01,-10.26 -0.02,-18.69 -0.07,-18.73 -0.06,-0.05 -2.33,-0.92 -5.04,-1.95 -0.33,-0.12 -1.98,-0.74 -4.95,-1.86 l -0.03,-7.79 -0.04,-7.8 -2.23,1.77 z"
         id="use46"
         style="fill:#ffffff;fill-opacity:1;stroke:#000000;stroke-width:1;stroke-opacity:0" /></g></g><g
     id="g49"
     style="fill:#ffffff;fill-opacity:1;image-rendering:crisp-edges"
     transform="matrix(0.22983726,0,0,0.22983726,30.271925,489.9543)"><path
       d="m 251.03,289.57 c 2.63,0.95 4.09,1.48 4.39,1.59 2.4,0.86 4.42,1.57 4.48,1.57 0.16,0 4.61,-2.54 4.62,-2.64 0,-0.05 -12.52,-5.66 -13.26,-5.94 -0.22,-0.07 -0.23,0.12 -0.23,2.68 0,0.36 0,1.28 0,2.74 z"
       id="use47"
       style="fill:#ffffff;fill-opacity:1" /><g
       id="g48"
       style="fill:#ffffff;fill-opacity:1"><path
         d="m 251.03,289.57 c 2.63,0.95 4.09,1.48 4.39,1.59 2.4,0.86 4.42,1.57 4.48,1.57 0.16,0 4.61,-2.54 4.62,-2.64 0,-0.05 -12.52,-5.66 -13.26,-5.94 -0.22,-0.07 -0.23,0.12 -0.23,2.68 0,0.36 0,1.28 0,2.74 z"
         id="use48"
         style="fill:#ffffff;fill-opacity:1;stroke:#000000;stroke-width:1;stroke-opacity:0" /></g></g><g
     id="g51"
     style="fill:#ffffff;fill-opacity:1;image-rendering:crisp-edges"
     transform="matrix(0.22983726,0,0,0.22983726,30.271925,489.9543)"><path
       d="m 134.91,289.69 c -0.37,0.18 -0.63,0.34 -0.55,0.37 0.08,0.03 1.27,0.18 2.65,0.35 0.16,0.01 1,0.11 2.51,0.28 3.62,-1.69 5.63,-2.62 6.04,-2.81 4.42,-2.08 5.96,-2.85 5.79,-2.91 -0.29,-0.12 -4.23,-0.62 -4.77,-0.62 -0.23,0 -2.49,1 -5.68,2.52 -2.91,1.37 -5.61,2.65 -5.99,2.82 z"
       id="use49"
       style="fill:#ffffff;fill-opacity:1" /><g
       id="g50"
       style="fill:#ffffff;fill-opacity:1"><path
         d="m 134.91,289.69 c -0.37,0.18 -0.63,0.34 -0.55,0.37 0.08,0.03 1.27,0.18 2.65,0.35 0.16,0.01 1,0.11 2.51,0.28 3.62,-1.69 5.63,-2.62 6.04,-2.81 4.42,-2.08 5.96,-2.85 5.79,-2.91 -0.29,-0.12 -4.23,-0.62 -4.77,-0.62 -0.23,0 -2.49,1 -5.68,2.52 -2.91,1.37 -5.61,2.65 -5.99,2.82 z"
         id="use50"
         style="fill:#ffffff;fill-opacity:1;stroke:#000000;stroke-width:1;stroke-opacity:0" /></g></g><g
     id="g53"
     style="fill:#ffffff;fill-opacity:1;image-rendering:crisp-edges"
     transform="matrix(0.22983726,0,0,0.22983726,30.271925,489.9543)"><path
       d="m 251.09,310.77 c 2.35,0.66 3.65,1.03 3.91,1.1 2.16,0.62 3.98,1.12 4.07,1.12 0.13,0 0.15,-1.97 0.13,-9.58 0,-0.64 -0.02,-3.83 -0.04,-9.58 -2.38,-0.82 -3.69,-1.27 -3.96,-1.36 -2.17,-0.75 -4.01,-1.36 -4.06,-1.36 -0.06,0 -0.1,4.32 -0.09,9.82 0.01,1.32 0.02,4.6 0.04,9.84 z"
       id="use51"
       style="fill:#ffffff;fill-opacity:1" /><g
       id="g52"
       style="fill:#ffffff;fill-opacity:1"><path
         d="m 251.09,310.77 c 2.35,0.66 3.65,1.03 3.91,1.1 2.16,0.62 3.98,1.12 4.07,1.12 0.13,0 0.15,-1.97 0.13,-9.58 0,-0.64 -0.02,-3.83 -0.04,-9.58 -2.38,-0.82 -3.69,-1.27 -3.96,-1.36 -2.17,-0.75 -4.01,-1.36 -4.06,-1.36 -0.06,0 -0.1,4.32 -0.09,9.82 0.01,1.32 0.02,4.6 0.04,9.84 z"
         id="use52"
         style="fill:#ffffff;fill-opacity:1;stroke:#000000;stroke-width:1;stroke-opacity:0" /></g></g><path
     d="m 90.169814,557.50808 0.0069,2.2524 0.0069,2.25241 c 0.312578,0.085 0.484956,0.1333 0.519432,0.1425 0.284998,0.0758 0.52173,0.1333 0.526327,0.12871 0.0069,-0.007 0.0092,-1.20895 0.0069,-2.67301 0,-0.17698 -0.0046,-1.06415 -0.0092,-2.66152 l -0.530924,0.2804 z"
     id="use54"
     style="fill:#ffffff;fill-opacity:1;stroke:#000000;stroke-width:0.229837;stroke-opacity:0;image-rendering:crisp-edges" /><g
     id="g57"
     style="fill:#ffffff;fill-opacity:1;image-rendering:crisp-edges"
     transform="matrix(0.22983726,0,0,0.22983726,30.271925,489.9543)"><path
       d="m 132.39,320.23 c 0.22,-0.04 0.33,-0.06 0.36,-0.07 0.19,-0.03 1.67,-0.36 3.3,-0.72 0.2,-0.04 1.18,-0.26 2.96,-0.64 v -13.19 -13.19 c -1.62,-0.2 -2.53,-0.31 -2.71,-0.33 -1.49,-0.18 -2.97,-0.37 -3.3,-0.41 -0.04,-0.01 -0.24,-0.03 -0.61,-0.09 v 14.32 z"
       id="use55"
       style="fill:#ffffff;fill-opacity:1" /><g
       id="g56"
       style="fill:#ffffff;fill-opacity:1"><path
         d="m 132.39,320.23 c 0.22,-0.04 0.33,-0.06 0.36,-0.07 0.19,-0.03 1.67,-0.36 3.3,-0.72 0.2,-0.04 1.18,-0.26 2.96,-0.64 v -13.19 -13.19 c -1.62,-0.2 -2.53,-0.31 -2.71,-0.33 -1.49,-0.18 -2.97,-0.37 -3.3,-0.41 -0.04,-0.01 -0.24,-0.03 -0.61,-0.09 v 14.32 z"
         id="use56"
         style="fill:#ffffff;fill-opacity:1;stroke:#000000;stroke-width:1;stroke-opacity:0" /></g></g><g
     id="g59"
     style="fill:#ffffff;fill-opacity:1;image-rendering:crisp-edges"
     transform="matrix(0.22983726,0,0,0.22983726,30.271925,489.9543)"><path
       d="m 200.49,322.93 12.09,11.62 12.09,11.63 0.03,11.07 0.04,11.06 c 1.21,0.6 1.88,0.93 2.02,0.99 1.11,0.54 2.55,1.23 3.19,1.53 0.08,0.03 0.46,0.21 1.16,0.53 v -13.9 -13.9 c -9.05,-8.67 -14.07,-13.48 -15.08,-14.44 -8.3,-7.94 -15.19,-14.52 -15.32,-14.62 -0.24,-0.16 -0.24,-0.06 -0.24,4.13 0,0.57 0.01,2 0.02,4.3 z"
       id="use57"
       style="fill:#ffffff;fill-opacity:1" /><g
       id="g58"
       style="fill:#ffffff;fill-opacity:1"><path
         d="m 200.49,322.93 12.09,11.62 12.09,11.63 0.03,11.07 0.04,11.06 c 1.21,0.6 1.88,0.93 2.02,0.99 1.11,0.54 2.55,1.23 3.19,1.53 0.08,0.03 0.46,0.21 1.16,0.53 v -13.9 -13.9 c -9.05,-8.67 -14.07,-13.48 -15.08,-14.44 -8.3,-7.94 -15.19,-14.52 -15.32,-14.62 -0.24,-0.16 -0.24,-0.06 -0.24,4.13 0,0.57 0.01,2 0.02,4.3 z"
         id="use58"
         style="fill:#ffffff;fill-opacity:1;stroke:#000000;stroke-width:1;stroke-opacity:0" /></g></g><g
     id="g61"
     style="fill:#ffffff;fill-opacity:1;image-rendering:crisp-edges"
     transform="matrix(0.22983726,0,0,0.22983726,30.271925,489.9543)"><path
       d="m 250.97,330.3 4.09,0.93 4.1,0.91 c 3.49,-0.81 5.44,-1.26 5.82,-1.35 3.21,-0.75 5.79,-1.4 5.74,-1.44 -0.09,-0.08 -19.39,-4.36 -19.67,-4.36 -0.12,0 -0.15,0.57 -0.12,2.65 0,0.36 0.02,1.24 0.04,2.66 z"
       id="use59"
       style="fill:#ffffff;fill-opacity:1" /><g
       id="g60"
       style="fill:#ffffff;fill-opacity:1"><path
         d="m 250.97,330.3 4.09,0.93 4.1,0.91 c 3.49,-0.81 5.44,-1.26 5.82,-1.35 3.21,-0.75 5.79,-1.4 5.74,-1.44 -0.09,-0.08 -19.39,-4.36 -19.67,-4.36 -0.12,0 -0.15,0.57 -0.12,2.65 0,0.36 0.02,1.24 0.04,2.66 z"
         id="use60"
         style="fill:#ffffff;fill-opacity:1;stroke:#000000;stroke-width:1;stroke-opacity:0" /></g></g><g
     id="g63"
     style="fill:#ffffff;fill-opacity:1;image-rendering:crisp-edges"
     transform="matrix(0.22983726,0,0,0.22983726,30.271925,489.9543)"><path
       d="m 200.47,356.97 c 0.37,0.12 0.57,0.18 0.61,0.19 0.33,0.09 2.96,0.86 5.86,1.73 0.35,0.1 2.1,0.62 5.26,1.55 0,3.43 0,5.33 0,5.71 0,3.15 0.04,5.73 0.07,5.73 0.08,0 7.27,-2.09 9.74,-2.83 0.07,-0.02 0.41,-0.12 1.03,-0.31 0,-3.02 0,-4.69 0,-5.03 0,-2.76 -0.04,-7.69 -0.09,-10.94 0,-0.39 -0.03,-2.36 -0.07,-5.9 -6.18,-5.91 -9.61,-9.2 -10.29,-9.85 -5.66,-5.42 -10.71,-10.24 -11.2,-10.7 -0.06,-0.06 -0.36,-0.34 -0.92,-0.86 v 15.76 z"
       id="use61"
       style="fill:#ffffff;fill-opacity:1" /><g
       id="g62"
       style="fill:#ffffff;fill-opacity:1"><path
         d="m 200.47,356.97 c 0.37,0.12 0.57,0.18 0.61,0.19 0.33,0.09 2.96,0.86 5.86,1.73 0.35,0.1 2.1,0.62 5.26,1.55 0,3.43 0,5.33 0,5.71 0,3.15 0.04,5.73 0.07,5.73 0.08,0 7.27,-2.09 9.74,-2.83 0.07,-0.02 0.41,-0.12 1.03,-0.31 0,-3.02 0,-4.69 0,-5.03 0,-2.76 -0.04,-7.69 -0.09,-10.94 0,-0.39 -0.03,-2.36 -0.07,-5.9 -6.18,-5.91 -9.61,-9.2 -10.29,-9.85 -5.66,-5.42 -10.71,-10.24 -11.2,-10.7 -0.06,-0.06 -0.36,-0.34 -0.92,-0.86 v 15.76 z"
         id="use62"
         style="fill:#ffffff;fill-opacity:1;stroke:#000000;stroke-width:1;stroke-opacity:0" /></g></g><g
     id="g65"
     style="fill:#ffffff;fill-opacity:1;image-rendering:crisp-edges"
     transform="matrix(0.22983726,0,0,0.22983726,30.271925,489.9543)"><path
       d="m 134.66,337.12 c 0,0.04 1.16,0.61 2.57,1.27 0.18,0.08 1.04,0.48 2.59,1.2 l 19.26,-2.65 19.27,-2.65 c 0.02,-1.42 0.03,-2.2 0.03,-2.36 0.02,-1.3 -0.01,-2.4 -0.06,-2.44 -0.06,-0.05 -9.89,1.63 -21.87,3.73 -11.99,2.1 -21.79,3.85 -21.79,3.9 z"
       id="use63"
       style="fill:#ffffff;fill-opacity:1" /><g
       id="g64"
       style="fill:#ffffff;fill-opacity:1"><path
         d="m 134.66,337.12 c 0,0.04 1.16,0.61 2.57,1.27 0.18,0.08 1.04,0.48 2.59,1.2 l 19.26,-2.65 19.27,-2.65 c 0.02,-1.42 0.03,-2.2 0.03,-2.36 0.02,-1.3 -0.01,-2.4 -0.06,-2.44 -0.06,-0.05 -9.89,1.63 -21.87,3.73 -11.99,2.1 -21.79,3.85 -21.79,3.9 z"
         id="use64"
         style="fill:#ffffff;fill-opacity:1;stroke:#000000;stroke-width:1;stroke-opacity:0" /></g></g><g
     id="g67"
     style="fill:#ffffff;fill-opacity:1;image-rendering:crisp-edges"
     transform="matrix(0.22983726,0,0,0.22983726,30.271925,489.9543)"><path
       d="m 132.43,368.88 c 0.18,0 6.05,-1.22 6.43,-1.33 0.2,-0.06 0.22,-0.8 0.22,-13.28 0,-0.88 0,-5.29 0,-13.23 -1.99,-0.8 -3.09,-1.24 -3.31,-1.33 -1.83,-0.74 -3.35,-1.34 -3.4,-1.34 -0.06,0 -0.1,6.86 -0.1,15.25 0,12.47 0.02,15.26 0.16,15.26 z"
       id="use65"
       style="fill:#ffffff;fill-opacity:1" /><g
       id="g66"
       style="fill:#ffffff;fill-opacity:1"><path
         d="m 132.43,368.88 c 0.18,0 6.05,-1.22 6.43,-1.33 0.2,-0.06 0.22,-0.8 0.22,-13.28 0,-0.88 0,-5.29 0,-13.23 -1.99,-0.8 -3.09,-1.24 -3.31,-1.33 -1.83,-0.74 -3.35,-1.34 -3.4,-1.34 -0.06,0 -0.1,6.86 -0.1,15.25 0,12.47 0.02,15.26 0.16,15.26 z"
         id="use66"
         style="fill:#ffffff;fill-opacity:1;stroke:#000000;stroke-width:1;stroke-opacity:0" /></g></g><g
     id="g69"
     style="fill:#ffffff;fill-opacity:1;image-rendering:crisp-edges"
     transform="matrix(0.22983726,0,0,0.22983726,30.271925,489.9543)"><path
       d="m 200.47,361 c 0.25,-0.01 0.39,-0.01 0.42,-0.01 0.74,-0.02 6.13,-0.57 6.2,-0.64 0.04,-0.04 -1.39,-0.48 -3.18,-0.98 -1.79,-0.5 -3.29,-0.93 -3.34,-0.96 -0.06,-0.02 -0.1,0.54 -0.1,1.26 0,0.18 0,0.62 0,1.33 z"
       id="use67"
       style="fill:#ffffff;fill-opacity:1" /><g
       id="g68"
       style="fill:#ffffff;fill-opacity:1"><path
         d="m 200.47,361 c 0.25,-0.01 0.39,-0.01 0.42,-0.01 0.74,-0.02 6.13,-0.57 6.2,-0.64 0.04,-0.04 -1.39,-0.48 -3.18,-0.98 -1.79,-0.5 -3.29,-0.93 -3.34,-0.96 -0.06,-0.02 -0.1,0.54 -0.1,1.26 0,0.18 0,0.62 0,1.33 z"
         id="use68"
         style="fill:#ffffff;fill-opacity:1;stroke:#000000;stroke-width:1;stroke-opacity:0" /></g></g><g
     id="g71"
     style="fill:#ffffff;fill-opacity:1;image-rendering:crisp-edges"
     transform="matrix(0.22983726,0,0,0.22983726,30.271925,489.9543)"><path
       d="m 212.93,373.05 c -0.05,0.02 -0.29,0.09 -0.73,0.22 0,1.95 0,3.03 0,3.25 0,3.05 0.01,3.26 0.22,3.21 0.12,-0.04 4.08,-1.49 8.79,-3.23 4.72,-1.73 8.78,-3.22 9.02,-3.31 0.03,-0.01 0.17,-0.06 0.44,-0.16 -1.96,-0.95 -3.05,-1.47 -3.27,-1.58 -1.79,-0.86 -3.33,-1.57 -3.4,-1.56 -0.08,0 -2.44,0.66 -5.25,1.47 -2.81,0.82 -5.43,1.58 -5.82,1.69 z"
       id="use69"
       style="fill:#ffffff;fill-opacity:1" /><g
       id="g70"
       style="fill:#ffffff;fill-opacity:1"><path
         d="m 212.93,373.05 c -0.05,0.02 -0.29,0.09 -0.73,0.22 0,1.95 0,3.03 0,3.25 0,3.05 0.01,3.26 0.22,3.21 0.12,-0.04 4.08,-1.49 8.79,-3.23 4.72,-1.73 8.78,-3.22 9.02,-3.31 0.03,-0.01 0.17,-0.06 0.44,-0.16 -1.96,-0.95 -3.05,-1.47 -3.27,-1.58 -1.79,-0.86 -3.33,-1.57 -3.4,-1.56 -0.08,0 -2.44,0.66 -5.25,1.47 -2.81,0.82 -5.43,1.58 -5.82,1.69 z"
         id="use70"
         style="fill:#ffffff;fill-opacity:1;stroke:#000000;stroke-width:1;stroke-opacity:0" /></g></g><g
     id="g73"
     style="fill:#ffffff;fill-opacity:1;image-rendering:crisp-edges"
     transform="matrix(0.22983726,0,0,0.22983726,30.271925,489.9543)"><path
       d="m 167.24,376.67 c -0.04,0.03 0.13,0.12 0.35,0.18 0.23,0.08 2.7,0.88 5.49,1.77 2.78,0.9 5.13,1.63 5.19,1.63 0.1,0 0.14,-0.96 0.14,-2.93 0,-1.62 -0.04,-2.94 -0.09,-2.93 -0.06,0.01 -2.56,0.5 -5.56,1.11 -3,0.6 -5.48,1.13 -5.52,1.17 z"
       id="use71"
       style="fill:#ffffff;fill-opacity:1" /><g
       id="g72"
       style="fill:#ffffff;fill-opacity:1"><path
         d="m 167.24,376.67 c -0.04,0.03 0.13,0.12 0.35,0.18 0.23,0.08 2.7,0.88 5.49,1.77 2.78,0.9 5.13,1.63 5.19,1.63 0.1,0 0.14,-0.96 0.14,-2.93 0,-1.62 -0.04,-2.94 -0.09,-2.93 -0.06,0.01 -2.56,0.5 -5.56,1.11 -3,0.6 -5.48,1.13 -5.52,1.17 z"
         id="use72"
         style="fill:#ffffff;fill-opacity:1;stroke:#000000;stroke-width:1;stroke-opacity:0" /></g></g></svg>
