<?xml version="1.0" encoding="utf-8"?>
<svg viewBox="0 0 230 250" width="230px" height="250px"
  xmlns="http://www.w3.org/2000/svg" author="https://github.com/macdylan/3dp-configs">
  <path d="M 242.541 323.167 L 241.056 323.167 L 240.749 324.259 L 240.31 324.259 L 241.684 319.569 L 241.906 319.569 L 243.286 324.259 L 242.851 324.259 Z M 241.17 322.764 L 242.43 322.764 L 241.811 320.603 L 241.798 320.43 L 241.785 320.603 Z M 244.89 319.906 Q 244.733 319.906 244.598 319.965 Q 244.462 320.024 244.361 320.125 Q 244.259 320.227 244.2 320.362 Q 244.141 320.498 244.141 320.655 L 244.141 320.845 L 243.72 320.776 L 243.72 320.655 Q 243.72 320.416 243.809 320.207 Q 243.899 319.998 244.056 319.841 Q 244.213 319.684 244.423 319.594 Q 244.632 319.504 244.871 319.504 L 245.07 319.504 Q 245.309 319.504 245.52 319.589 Q 245.731 319.674 245.888 319.834 Q 246.045 319.995 246.135 320.219 Q 246.225 320.443 246.225 320.724 Q 246.225 321.002 246.141 321.283 Q 246.058 321.564 245.922 321.836 Q 245.786 322.107 245.611 322.362 Q 245.436 322.617 245.253 322.843 Q 244.825 323.369 244.282 323.857 L 246.257 323.857 L 246.257 324.259 L 243.618 324.259 L 243.618 323.925 Q 244.23 323.422 244.71 322.882 Q 244.916 322.65 245.113 322.388 Q 245.309 322.127 245.463 321.85 Q 245.616 321.574 245.71 321.288 Q 245.803 321.002 245.803 320.724 Q 245.803 320.518 245.741 320.364 Q 245.678 320.21 245.574 320.109 Q 245.469 320.008 245.333 319.957 Q 245.198 319.906 245.051 319.906 Z M 249.569 323.173 Q 249.569 323.412 249.479 323.621 Q 249.389 323.831 249.232 323.988 Q 249.075 324.145 248.866 324.234 Q 248.656 324.324 248.418 324.324 L 248.218 324.324 Q 247.98 324.324 247.769 324.234 Q 247.558 324.145 247.401 323.988 Q 247.244 323.831 247.154 323.621 Q 247.064 323.412 247.064 323.173 L 247.064 323.101 L 247.486 323.101 L 247.486 323.173 Q 247.486 323.33 247.545 323.466 Q 247.603 323.602 247.706 323.705 Q 247.809 323.808 247.945 323.867 Q 248.081 323.925 248.238 323.925 L 248.398 323.925 Q 248.555 323.925 248.691 323.867 Q 248.827 323.808 248.928 323.705 Q 249.029 323.602 249.088 323.466 Q 249.147 323.33 249.147 323.173 L 249.147 322.264 Q 249.147 322.107 249.088 321.971 Q 249.029 321.836 248.928 321.733 Q 248.827 321.63 248.691 321.571 Q 248.555 321.512 248.398 321.512 L 248.238 321.512 Q 248.081 321.512 247.945 321.571 Q 247.809 321.63 247.706 321.733 Q 247.603 321.836 247.545 321.971 Q 247.486 322.107 247.486 322.264 L 247.064 322.264 L 247.332 319.569 L 249.337 319.569 L 249.337 319.972 L 247.728 319.972 L 247.574 321.414 Q 247.724 321.27 247.924 321.19 Q 248.123 321.11 248.352 321.11 L 248.418 321.11 Q 248.656 321.11 248.866 321.2 Q 249.075 321.29 249.232 321.447 Q 249.389 321.604 249.479 321.814 Q 249.569 322.025 249.569 322.264 L 249.569 323.173 Z M 252.918 323.173 Q 252.918 323.412 252.828 323.621 Q 252.738 323.831 252.581 323.988 Q 252.425 324.145 252.215 324.234 Q 252.006 324.324 251.767 324.324 L 251.568 324.324 Q 251.329 324.324 251.118 324.234 Q 250.907 324.145 250.75 323.988 Q 250.593 323.831 250.503 323.621 Q 250.413 323.412 250.413 323.173 L 250.413 320.655 Q 250.413 320.416 250.503 320.207 Q 250.593 319.998 250.75 319.841 Q 250.907 319.684 251.118 319.594 Q 251.329 319.504 251.568 319.504 L 251.767 319.504 Q 252.006 319.504 252.215 319.594 Q 252.425 319.684 252.581 319.841 Q 252.738 319.998 252.828 320.207 Q 252.918 320.416 252.918 320.655 L 252.918 323.173 Z M 252.496 320.655 Q 252.496 320.498 252.438 320.362 Q 252.379 320.227 252.277 320.125 Q 252.176 320.024 252.04 319.965 Q 251.905 319.906 251.748 319.906 L 251.587 319.906 Q 251.43 319.906 251.295 319.965 Q 251.159 320.024 251.056 320.125 Q 250.953 320.227 250.894 320.362 Q 250.835 320.498 250.835 320.655 L 250.835 323.173 Q 250.835 323.33 250.894 323.466 Q 250.953 323.602 251.056 323.705 Q 251.159 323.808 251.295 323.867 Q 251.43 323.925 251.587 323.925 L 251.748 323.925 Q 251.905 323.925 252.04 323.867 Q 252.176 323.808 252.277 323.705 Q 252.379 323.602 252.438 323.466 Q 252.496 323.33 252.496 323.173 Z" transform="matrix(2.143394, 0, 0, 2.388948, -369.371063, -556.932434)" style="fill: rgb(209, 209, 211);" />
  <path d="M 255.033 324.661 L 256.901 319.17 L 257.323 319.17 L 255.455 324.661 Z M 262.171 323.108 Q 262.171 323.347 262.081 323.556 Q 261.991 323.765 261.834 323.922 Q 261.677 324.079 261.466 324.169 Q 261.255 324.259 261.017 324.259 L 259.532 324.259 L 259.532 319.569 L 261.017 319.569 Q 261.255 319.569 261.466 319.659 Q 261.677 319.749 261.834 319.906 Q 261.991 320.063 262.081 320.274 Q 262.171 320.485 262.171 320.724 L 262.171 323.108 Z M 261.749 320.724 Q 261.749 320.567 261.69 320.431 Q 261.632 320.295 261.529 320.192 Q 261.426 320.089 261.29 320.031 Q 261.154 319.972 260.997 319.972 L 259.954 319.972 L 259.954 323.857 L 260.997 323.857 Q 261.154 323.857 261.29 323.798 Q 261.426 323.739 261.529 323.638 Q 261.632 323.536 261.69 323.401 Q 261.749 323.265 261.749 323.108 Z M 265.143 324.259 L 264.92 323.919 Q 264.783 324.105 264.577 324.215 Q 264.371 324.324 264.126 324.324 L 264.024 324.324 Q 263.822 324.324 263.642 324.248 Q 263.462 324.171 263.328 324.037 Q 263.194 323.903 263.117 323.723 Q 263.04 323.543 263.04 323.34 L 263.04 320.91 L 263.442 320.91 L 263.442 323.363 Q 263.442 323.484 263.488 323.59 Q 263.534 323.697 263.612 323.775 Q 263.691 323.853 263.797 323.899 Q 263.903 323.945 264.024 323.945 L 264.293 323.945 Q 264.414 323.945 264.52 323.899 Q 264.626 323.853 264.705 323.775 Q 264.783 323.697 264.829 323.59 Q 264.875 323.484 264.875 323.363 L 264.875 320.91 L 265.277 320.91 L 265.277 324.259 Z M 268.182 324.259 L 267.96 323.925 Q 267.823 324.105 267.617 324.215 Q 267.411 324.324 267.165 324.324 L 267.064 324.324 Q 266.861 324.324 266.681 324.248 Q 266.502 324.171 266.367 324.037 Q 266.233 323.903 266.156 323.723 Q 266.08 323.543 266.08 323.34 L 266.08 323.307 Q 266.08 323.105 266.156 322.925 Q 266.233 322.745 266.367 322.611 Q 266.502 322.477 266.681 322.4 Q 266.861 322.323 267.064 322.323 L 267.914 322.323 L 267.914 321.806 Q 267.914 321.685 267.868 321.579 Q 267.823 321.473 267.744 321.394 Q 267.666 321.316 267.559 321.27 Q 267.453 321.224 267.332 321.224 L 267.097 321.224 Q 266.976 321.224 266.869 321.27 Q 266.763 321.316 266.685 321.394 Q 266.606 321.473 266.56 321.579 Q 266.515 321.685 266.515 321.806 L 266.515 321.927 L 266.112 321.862 L 266.112 321.829 Q 266.112 321.626 266.189 321.447 Q 266.266 321.267 266.4 321.133 Q 266.534 320.999 266.714 320.922 Q 266.894 320.845 267.097 320.845 L 267.332 320.845 Q 267.535 320.845 267.715 320.922 Q 267.895 320.999 268.029 321.133 Q 268.163 321.267 268.24 321.447 Q 268.317 321.626 268.317 321.829 L 268.317 324.259 Z M 267.914 322.637 L 267.064 322.637 Q 266.943 322.637 266.837 322.683 Q 266.73 322.729 266.652 322.809 Q 266.573 322.889 266.528 322.995 Q 266.482 323.101 266.482 323.222 L 266.482 323.363 Q 266.482 323.484 266.528 323.59 Q 266.573 323.697 266.652 323.775 Q 266.73 323.853 266.837 323.899 Q 266.943 323.945 267.064 323.945 L 267.332 323.945 Q 267.453 323.945 267.559 323.899 Q 267.666 323.853 267.744 323.775 Q 267.823 323.697 267.868 323.59 Q 267.914 323.484 267.914 323.363 Z M 269.253 324.259 L 269.253 319.569 L 269.656 319.569 L 269.656 324.259 Z" transform="matrix(2.143394, 0, 0, 2.388948, -369.371063, -556.932434)" style="fill: rgb(209, 209, 211);" />
  <path d="M 183.471 229.345 C 183.472 228.695 183.481 227.645 183.491 227.012 L 183.509 225.862 L 183.591 225.622 C 183.785 225.057 184.151 224.635 184.674 224.373 C 185.279 224.071 186.053 224.089 186.639 224.418 C 187.148 224.705 187.533 225.217 187.668 225.786 C 187.713 225.978 187.72 226.067 187.71 226.355 C 187.7 226.654 187.689 226.726 187.619 226.933 C 187.38 227.637 186.822 228.158 186.111 228.342 C 185.845 228.411 185.339 228.407 185.083 228.333 C 184.828 228.26 184.633 228.173 184.451 228.049 C 184.37 227.993 184.298 227.948 184.291 227.948 C 184.283 227.948 184.278 228.528 184.278 229.237 L 184.278 230.527 L 183.873 230.527 L 183.468 230.527 L 183.471 229.345 Z M 185.9 227.557 C 186.619 227.405 187.076 226.674 186.893 225.969 C 186.778 225.524 186.464 225.186 186.029 225.036 C 185.813 224.962 185.428 224.956 185.213 225.023 C 184.667 225.192 184.302 225.699 184.303 226.287 C 184.306 227.134 185.061 227.735 185.9 227.557 Z M 180.644 228.403 C 180.169 228.337 179.774 228.148 179.44 227.825 C 178.836 227.242 178.627 226.384 178.893 225.589 C 179.007 225.249 179.142 225.037 179.42 224.762 C 179.81 224.376 180.225 224.191 180.763 224.163 C 181.235 224.138 181.655 224.243 182.003 224.472 L 182.204 224.604 L 182.204 224.439 L 182.204 224.275 L 182.322 224.291 C 182.386 224.3 182.574 224.307 182.739 224.307 L 183.039 224.307 L 183.039 226.342 L 183.039 228.378 L 182.621 228.378 L 182.204 228.378 L 182.204 228.165 L 182.204 227.952 L 182.034 228.067 C 181.815 228.214 181.651 228.285 181.39 228.349 C 181.134 228.411 180.854 228.432 180.644 228.403 Z M 181.32 227.523 C 181.557 227.44 181.678 227.366 181.84 227.204 C 182.247 226.797 182.33 226.175 182.048 225.642 C 181.844 225.258 181.348 224.965 180.902 224.965 C 180.722 224.965 180.445 225.029 180.283 225.108 C 180.11 225.192 179.831 225.465 179.745 225.636 C 179.54 226.04 179.54 226.518 179.744 226.922 C 179.886 227.201 180.26 227.481 180.593 227.557 C 180.795 227.604 181.135 227.587 181.32 227.523 Z M 197.073 228.402 C 196.185 228.28 195.472 227.626 195.261 226.743 C 195.2 226.486 195.206 226.043 195.274 225.774 C 195.448 225.086 195.954 224.521 196.61 224.283 C 197.191 224.071 197.878 224.129 198.399 224.435 C 198.613 224.56 198.757 224.675 198.949 224.876 L 199.094 225.027 L 199.095 224.654 L 199.095 224.282 L 199.285 224.282 L 199.474 224.282 L 199.474 226.342 L 199.474 228.403 L 199.285 228.403 L 199.095 228.403 L 199.095 227.967 L 199.094 227.531 L 198.975 227.668 C 198.802 227.866 198.516 228.085 198.278 228.2 C 197.926 228.37 197.438 228.452 197.074 228.402 L 197.073 228.402 Z M 197.877 227.941 C 198.826 227.605 199.319 226.565 198.969 225.639 C 198.735 225.023 198.112 224.579 197.426 224.542 C 197.108 224.525 196.874 224.575 196.568 224.727 C 196.163 224.927 195.812 225.329 195.678 225.748 C 195.603 225.981 195.586 226.392 195.641 226.64 C 195.782 227.274 196.316 227.829 196.934 227.985 C 197.176 228.045 197.643 228.024 197.877 227.941 Z M 207.666 228.407 C 207.632 228.396 207.633 226.193 207.667 225.981 C 207.825 225.01 208.616 224.242 209.539 224.165 L 209.74 224.148 L 209.74 224.246 C 209.74 224.301 209.747 224.387 209.756 224.44 L 209.772 224.534 L 209.674 224.535 C 209.498 224.536 209.226 224.607 209.038 224.702 C 208.679 224.883 208.288 225.285 208.171 225.594 C 208.054 225.903 208.046 226.013 208.046 227.242 C 208.046 227.88 208.037 228.404 208.027 228.404 C 207.898 228.412 207.686 228.414 207.666 228.407 Z M 171.294 228.366 C 170.888 228.301 170.219 228.077 170.219 228.005 C 170.219 227.954 170.443 227.439 170.488 227.389 C 170.52 227.352 170.542 227.355 170.725 227.42 C 170.991 227.514 171.542 227.594 171.926 227.593 C 172.423 227.593 172.75 227.495 172.935 227.29 C 173.039 227.174 173.05 227.092 172.975 226.986 C 172.868 226.837 172.644 226.769 171.939 226.67 C 171.236 226.572 170.769 226.392 170.457 226.098 C 170.224 225.877 170.123 225.593 170.171 225.29 C 170.253 224.772 170.666 224.402 171.37 224.215 C 171.598 224.154 171.668 224.147 172.09 224.146 C 172.439 224.145 172.622 224.156 172.811 224.19 C 173.213 224.263 173.734 224.443 173.734 224.508 C 173.734 224.57 173.47 225.167 173.443 225.167 C 173.425 225.167 173.369 225.149 173.317 225.127 C 173.163 225.063 172.781 224.992 172.422 224.962 C 172.053 224.931 171.651 224.958 171.41 225.029 C 171.155 225.105 171.026 225.295 171.114 225.466 C 171.213 225.655 171.489 225.765 172.148 225.876 C 172.74 225.975 172.922 226.017 173.13 226.102 C 173.375 226.201 173.528 226.297 173.662 226.435 C 174.053 226.836 174.023 227.428 173.591 227.857 C 173.365 228.082 172.935 228.289 172.537 228.365 C 172.293 228.412 171.585 228.412 171.294 228.366 Z M 174.252 227.335 C 174.27 225.969 174.271 225.951 174.378 225.632 C 174.652 224.813 175.201 224.342 176.057 224.192 C 177.127 224.005 178.112 224.636 178.423 225.708 L 178.487 225.931 L 178.487 227.167 L 178.487 228.403 L 178.095 228.403 L 177.703 228.403 L 177.703 227.246 C 177.703 226.116 177.701 226.086 177.646 225.924 C 177.451 225.351 176.932 224.964 176.36 224.964 C 175.999 224.964 175.763 225.058 175.509 225.302 C 175.284 225.518 175.167 225.703 175.1 225.953 C 175.044 226.159 175.044 226.18 175.058 227.283 L 175.072 228.403 L 174.655 228.403 L 174.239 228.403 L 174.252 227.335 Z M 188.44 227.006 C 188.455 225.533 188.462 225.446 188.581 225.168 C 188.659 224.986 188.846 224.724 188.996 224.587 C 189.289 224.319 189.635 224.184 190.081 224.162 C 190.41 224.146 190.646 224.198 190.939 224.352 C 191.149 224.463 191.431 224.719 191.555 224.912 C 191.629 225.027 191.647 225.043 191.671 225.009 C 191.946 224.618 192.111 224.467 192.423 224.321 C 193.329 223.896 194.406 224.324 194.722 225.234 C 194.842 225.579 194.847 225.648 194.847 227.065 L 194.847 228.403 L 194.645 228.403 L 194.442 228.403 L 194.442 227.017 C 194.442 225.503 194.443 225.52 194.29 225.217 C 194.043 224.729 193.441 224.451 192.884 224.568 C 192.424 224.665 192.094 224.958 191.912 225.431 L 191.843 225.609 L 191.833 226.979 C 191.828 227.733 191.815 228.359 191.803 228.37 C 191.792 228.381 191.707 228.39 191.614 228.39 L 191.446 228.39 L 191.433 226.974 C 191.421 225.592 191.419 225.555 191.365 225.411 C 191.28 225.186 191.197 225.061 191.03 224.906 C 190.61 224.518 190.022 224.428 189.53 224.677 C 189.366 224.76 189.066 225.06 188.975 225.232 C 188.832 225.5 188.829 225.536 188.829 227.03 L 188.829 228.403 L 188.627 228.403 L 188.426 228.403 L 188.44 227.006 Z M 200.106 225.204 L 200.106 222.006 L 200.296 222.006 L 200.485 222.006 L 200.485 224.143 C 200.485 225.318 200.494 226.279 200.504 226.278 C 200.515 226.278 201.007 225.8 201.598 225.217 L 202.673 224.156 L 202.951 224.157 L 203.229 224.158 L 202.154 225.22 L 201.08 226.281 L 202.14 227.326 L 203.201 228.371 L 202.955 228.389 L 202.71 228.407 L 202.577 228.292 C 202.504 228.23 202.081 227.814 201.636 227.368 L 200.827 226.559 L 200.669 226.716 L 200.511 226.873 L 200.511 227.24 C 200.511 227.442 200.503 227.786 200.494 228.005 L 200.478 228.404 L 200.292 228.404 L 200.106 228.404 L 200.106 225.205 L 200.106 225.204 Z M 204.746 228.367 C 204.503 228.31 204.304 228.232 204.12 228.123 C 203.643 227.84 203.342 227.466 203.163 226.934 C 203.012 226.488 203.035 225.923 203.22 225.477 C 203.47 224.877 204.025 224.386 204.645 224.216 C 204.869 224.155 205.333 224.141 205.584 224.188 C 206.069 224.28 206.517 224.542 206.823 224.912 C 206.952 225.067 207.135 225.38 207.11 225.401 C 207.103 225.407 206.932 225.505 206.731 225.621 C 206.381 225.821 205.532 226.31 204.36 226.986 C 204.049 227.165 203.823 227.311 203.823 227.332 C 203.823 227.352 203.905 227.451 204.006 227.551 C 204.32 227.864 204.684 228.007 205.163 228.009 C 205.857 228.01 206.434 227.667 206.714 227.086 C 206.777 226.955 206.847 226.78 206.87 226.696 L 206.911 226.545 L 207.115 226.437 L 207.318 226.33 L 207.301 226.475 C 207.27 226.739 207.208 226.946 207.085 227.202 C 206.821 227.749 206.342 228.154 205.751 228.332 C 205.526 228.399 204.967 228.418 204.746 228.367 Z M 204.192 226.629 C 204.511 226.447 205.078 226.12 205.454 225.904 C 205.829 225.688 206.232 225.457 206.348 225.391 C 206.465 225.325 206.571 225.261 206.584 225.247 C 206.615 225.217 206.268 224.908 206.06 224.782 C 205.577 224.488 204.941 224.455 204.44 224.696 C 203.995 224.911 203.668 225.295 203.515 225.784 C 203.451 225.988 203.428 226.382 203.468 226.587 C 203.496 226.735 203.578 226.962 203.603 226.962 C 203.609 226.962 203.874 226.812 204.192 226.629 Z" id="path24" fill-rule="nonzero" style="fill: rgb(209, 209, 211);" />
  <path d="M 189.059 32.384 Q 189.059 32.61 188.978 32.809 Q 188.898 33.009 188.756 33.161 Q 188.614 33.312 188.422 33.407 Q 188.23 33.502 188.011 33.518 L 188.434 34.469 L 188.018 34.469 L 187.596 33.518 Q 187.36 33.518 187.153 33.43 Q 186.945 33.341 186.79 33.187 Q 186.635 33.032 186.547 32.826 Q 186.458 32.619 186.458 32.384 L 186.458 29.903 Q 186.458 29.667 186.547 29.461 Q 186.635 29.255 186.79 29.1 Q 186.945 28.946 187.153 28.857 Q 187.36 28.768 187.596 28.768 L 187.924 28.768 Q 188.16 28.768 188.366 28.857 Q 188.572 28.946 188.727 29.1 Q 188.881 29.255 188.97 29.461 Q 189.059 29.667 189.059 29.903 L 189.059 32.384 Z M 188.643 29.903 Q 188.643 29.748 188.585 29.614 Q 188.527 29.48 188.427 29.381 Q 188.327 29.281 188.193 29.223 Q 188.06 29.165 187.905 29.165 L 187.615 29.165 Q 187.46 29.165 187.327 29.223 Q 187.193 29.281 187.091 29.381 Q 186.99 29.48 186.932 29.614 Q 186.874 29.748 186.874 29.903 L 186.874 32.384 Q 186.874 32.539 186.932 32.673 Q 186.99 32.806 187.091 32.908 Q 187.193 33.009 187.327 33.067 Q 187.46 33.125 187.615 33.125 L 187.905 33.125 Q 188.06 33.125 188.193 33.067 Q 188.327 33.009 188.427 32.908 Q 188.527 32.806 188.585 32.673 Q 188.643 32.539 188.643 32.384 Z M 191.989 33.454 L 191.77 33.119 Q 191.635 33.303 191.432 33.41 Q 191.229 33.518 190.987 33.518 L 190.887 33.518 Q 190.687 33.518 190.51 33.443 Q 190.333 33.367 190.201 33.235 Q 190.068 33.103 189.993 32.925 Q 189.917 32.748 189.917 32.548 L 189.917 30.154 L 190.313 30.154 L 190.313 32.571 Q 190.313 32.69 190.359 32.795 Q 190.404 32.9 190.481 32.977 Q 190.558 33.054 190.663 33.1 Q 190.768 33.145 190.887 33.145 L 191.151 33.145 Q 191.271 33.145 191.375 33.1 Q 191.48 33.054 191.557 32.977 Q 191.635 32.9 191.68 32.795 Q 191.725 32.69 191.725 32.571 L 191.725 30.154 L 192.121 30.154 L 192.121 33.454 Z M 193.009 29.361 L 193.009 28.833 L 193.47 28.833 L 193.47 29.361 Z M 193.041 33.454 L 193.041 30.154 L 193.438 30.154 L 193.438 33.454 Z M 196.567 32.548 Q 196.567 32.748 196.491 32.925 Q 196.415 33.103 196.283 33.235 Q 196.151 33.367 195.974 33.443 Q 195.796 33.518 195.597 33.518 L 195.332 33.518 Q 195.133 33.518 194.955 33.443 Q 194.778 33.367 194.646 33.235 Q 194.514 33.103 194.438 32.925 Q 194.362 32.748 194.362 32.548 L 194.362 31.06 Q 194.362 30.86 194.438 30.683 Q 194.514 30.505 194.646 30.373 Q 194.778 30.241 194.955 30.165 Q 195.133 30.09 195.332 30.09 L 195.597 30.09 Q 195.796 30.09 195.974 30.165 Q 196.151 30.241 196.283 30.373 Q 196.415 30.505 196.491 30.683 Q 196.567 30.86 196.567 31.06 L 196.567 31.192 L 196.17 31.256 L 196.17 31.037 Q 196.17 30.918 196.125 30.813 Q 196.08 30.708 196.003 30.631 Q 195.925 30.554 195.821 30.508 Q 195.716 30.463 195.597 30.463 L 195.332 30.463 Q 195.213 30.463 195.108 30.508 Q 195.004 30.554 194.926 30.631 Q 194.849 30.708 194.804 30.813 Q 194.759 30.918 194.759 31.037 L 194.759 32.571 Q 194.759 32.69 194.804 32.795 Q 194.849 32.9 194.926 32.977 Q 195.004 33.054 195.108 33.1 Q 195.213 33.145 195.332 33.145 L 195.597 33.145 Q 195.716 33.145 195.821 33.1 Q 195.925 33.054 196.003 32.977 Q 196.08 32.9 196.125 32.795 Q 196.17 32.69 196.17 32.571 L 196.17 32.352 L 196.567 32.416 L 196.567 32.548 Z M 199.284 33.454 L 197.937 31.804 L 199.284 30.154 L 199.8 30.154 L 198.42 31.804 L 199.8 33.454 Z M 197.463 33.454 L 197.463 28.833 L 197.86 28.833 L 197.86 33.454 Z M 204.481 32.384 Q 204.481 32.619 204.386 32.826 Q 204.29 33.032 204.131 33.187 Q 203.971 33.341 203.76 33.43 Q 203.549 33.518 203.314 33.518 L 202.982 33.518 Q 202.747 33.518 202.536 33.43 Q 202.325 33.341 202.165 33.187 Q 202.006 33.032 201.911 32.826 Q 201.815 32.619 201.815 32.384 L 201.815 32.2 L 202.231 32.133 L 202.231 32.384 Q 202.231 32.539 202.294 32.673 Q 202.357 32.806 202.463 32.908 Q 202.57 33.009 202.71 33.067 Q 202.85 33.125 203.005 33.125 L 203.295 33.125 Q 203.449 33.125 203.588 33.067 Q 203.726 33.009 203.833 32.908 Q 203.939 32.806 204.002 32.673 Q 204.065 32.539 204.065 32.384 L 204.065 32.246 Q 204.065 32.007 203.971 31.849 Q 203.878 31.691 203.723 31.58 Q 203.569 31.469 203.374 31.391 Q 203.179 31.314 202.972 31.237 Q 202.766 31.159 202.571 31.066 Q 202.376 30.973 202.222 30.832 Q 202.067 30.692 201.973 30.489 Q 201.88 30.286 201.88 29.99 L 201.88 29.903 Q 201.88 29.667 201.969 29.461 Q 202.057 29.255 202.212 29.1 Q 202.367 28.946 202.574 28.857 Q 202.782 28.768 203.018 28.768 L 203.314 28.768 Q 203.549 28.768 203.755 28.857 Q 203.962 28.946 204.116 29.1 Q 204.271 29.255 204.36 29.461 Q 204.448 29.667 204.448 29.903 L 204.448 30.022 L 204.033 30.09 L 204.033 29.903 Q 204.033 29.748 203.975 29.614 Q 203.917 29.48 203.817 29.381 Q 203.717 29.281 203.583 29.223 Q 203.449 29.165 203.295 29.165 L 203.037 29.165 Q 202.882 29.165 202.748 29.223 Q 202.615 29.281 202.513 29.381 Q 202.412 29.48 202.354 29.614 Q 202.296 29.748 202.296 29.903 L 202.296 29.99 Q 202.296 30.212 202.389 30.363 Q 202.483 30.515 202.637 30.623 Q 202.792 30.731 202.987 30.81 Q 203.182 30.889 203.388 30.971 Q 203.594 31.053 203.789 31.151 Q 203.984 31.25 204.139 31.393 Q 204.294 31.537 204.387 31.743 Q 204.481 31.949 204.481 32.246 Z M 208.015 33.454 L 207.799 33.454 L 207.026 30.966 L 207.013 30.795 L 207 30.966 L 206.227 33.454 L 206.008 33.454 L 204.905 30.154 L 205.308 30.154 L 206.095 32.648 L 206.107 32.819 L 206.12 32.648 L 206.894 30.154 L 207.132 30.154 L 207.902 32.648 L 207.915 32.819 L 207.928 32.648 L 208.715 30.154 L 209.117 30.154 Z M 211.653 33.454 L 211.434 33.125 Q 211.299 33.303 211.096 33.41 Q 210.893 33.518 210.651 33.518 L 210.551 33.518 Q 210.351 33.518 210.174 33.443 Q 209.997 33.367 209.865 33.235 Q 209.733 33.103 209.657 32.925 Q 209.581 32.748 209.581 32.548 L 209.581 32.516 Q 209.581 32.316 209.657 32.139 Q 209.733 31.962 209.865 31.83 Q 209.997 31.698 210.174 31.622 Q 210.351 31.546 210.551 31.546 L 211.389 31.546 L 211.389 31.037 Q 211.389 30.918 211.344 30.813 Q 211.299 30.708 211.221 30.631 Q 211.144 30.554 211.039 30.508 Q 210.935 30.463 210.815 30.463 L 210.583 30.463 Q 210.464 30.463 210.359 30.508 Q 210.255 30.554 210.177 30.631 Q 210.1 30.708 210.055 30.813 Q 210.01 30.918 210.01 31.037 L 210.01 31.156 L 209.613 31.092 L 209.613 31.06 Q 209.613 30.86 209.689 30.683 Q 209.765 30.505 209.897 30.373 Q 210.029 30.241 210.206 30.165 Q 210.384 30.09 210.583 30.09 L 210.815 30.09 Q 211.015 30.09 211.192 30.165 Q 211.37 30.241 211.502 30.373 Q 211.634 30.505 211.71 30.683 Q 211.785 30.86 211.785 31.06 L 211.785 33.454 Z M 211.389 31.856 L 210.551 31.856 Q 210.432 31.856 210.327 31.901 Q 210.222 31.946 210.145 32.025 Q 210.068 32.104 210.023 32.208 Q 209.977 32.313 209.977 32.432 L 209.977 32.571 Q 209.977 32.69 210.023 32.795 Q 210.068 32.9 210.145 32.977 Q 210.222 33.054 210.327 33.1 Q 210.432 33.145 210.551 33.145 L 210.815 33.145 Q 210.935 33.145 211.039 33.1 Q 211.144 33.054 211.221 32.977 Q 211.299 32.9 211.344 32.795 Q 211.389 32.69 211.389 32.571 Z M 214.785 32.548 Q 214.785 32.748 214.71 32.925 Q 214.634 33.103 214.502 33.235 Q 214.37 33.367 214.192 33.443 Q 214.015 33.518 213.815 33.518 L 213.715 33.518 Q 213.493 33.518 213.303 33.428 Q 213.113 33.338 212.977 33.177 L 212.977 34.775 L 212.581 34.775 L 212.581 30.154 L 212.713 30.154 L 212.929 30.489 Q 213.064 30.305 213.269 30.198 Q 213.474 30.09 213.715 30.09 L 213.815 30.09 Q 214.015 30.09 214.192 30.165 Q 214.37 30.241 214.502 30.373 Q 214.634 30.505 214.71 30.683 Q 214.785 30.86 214.785 31.06 L 214.785 32.548 Z M 214.389 31.037 Q 214.389 30.918 214.344 30.813 Q 214.299 30.708 214.221 30.631 Q 214.144 30.554 214.039 30.508 Q 213.935 30.463 213.815 30.463 L 213.551 30.463 Q 213.432 30.463 213.327 30.508 Q 213.222 30.554 213.145 30.631 Q 213.068 30.708 213.023 30.813 Q 212.977 30.918 212.977 31.037 L 212.977 32.571 Q 212.977 32.69 213.023 32.795 Q 213.068 32.9 213.145 32.977 Q 213.222 33.054 213.327 33.1 Q 213.432 33.145 213.551 33.145 L 213.815 33.145 Q 213.935 33.145 214.039 33.1 Q 214.144 33.054 214.221 32.977 Q 214.299 32.9 214.344 32.795 Q 214.389 32.69 214.389 32.571 Z M 219.485 33.454 L 217.744 31.143 L 219.485 28.833 L 220 28.833 L 218.225 31.143 L 220 33.454 Z M 217.229 33.454 L 217.229 28.833 L 217.645 28.833 L 217.645 33.454 Z M 220.626 29.361 L 220.626 28.833 L 221.087 28.833 L 221.087 29.361 Z M 220.659 33.454 L 220.659 30.154 L 221.055 30.154 L 221.055 33.454 Z M 223.182 33.454 Q 223.001 33.454 222.842 33.386 Q 222.682 33.319 222.564 33.199 Q 222.447 33.08 222.378 32.922 Q 222.308 32.764 222.308 32.584 L 222.308 30.531 L 221.715 30.531 L 221.715 30.154 L 222.308 30.154 L 222.308 29.361 L 222.705 29.297 L 222.705 30.154 L 223.543 30.154 L 223.543 30.531 L 222.705 30.531 L 222.705 32.603 Q 222.705 32.703 222.742 32.789 Q 222.779 32.874 222.843 32.938 Q 222.908 33.003 222.995 33.04 Q 223.082 33.077 223.182 33.077 L 223.543 33.077 L 223.543 33.454 Z" style="fill: rgb(255, 0, 0);" />
  <line x1="0" y1="25.042" x2="230" y2="25.042" id="line-2" style="paint-order: fill; stroke-dasharray: 2px; stroke: rgb(255, 0, 0); stroke-width: 0.1px;" />
  <path d="M 199.58 18.32 Q 199.58 18.555 199.491 18.761 Q 199.402 18.967 199.248 19.122 Q 199.093 19.277 198.885 19.365 Q 198.677 19.454 198.442 19.454 L 196.979 19.454 L 196.979 14.833 L 198.442 14.833 Q 198.677 14.833 198.885 14.921 Q 199.093 15.01 199.248 15.165 Q 199.402 15.319 199.491 15.527 Q 199.58 15.735 199.58 15.97 L 199.58 16.015 Q 199.58 16.18 199.536 16.33 Q 199.493 16.479 199.412 16.608 Q 199.331 16.737 199.222 16.842 Q 199.112 16.947 198.977 17.018 Q 199.112 17.089 199.222 17.193 Q 199.331 17.298 199.412 17.429 Q 199.493 17.559 199.536 17.709 Q 199.58 17.859 199.58 18.023 L 199.58 18.32 Z M 199.164 17.955 Q 199.164 17.801 199.106 17.667 Q 199.048 17.533 198.946 17.433 Q 198.845 17.333 198.711 17.275 Q 198.577 17.217 198.423 17.217 L 197.395 17.217 L 197.395 19.058 L 198.423 19.058 Q 198.577 19.058 198.711 19 Q 198.845 18.942 198.946 18.842 Q 199.048 18.742 199.106 18.608 Q 199.164 18.474 199.164 18.32 Z M 199.164 15.97 Q 199.164 15.816 199.106 15.682 Q 199.048 15.548 198.946 15.447 Q 198.845 15.345 198.711 15.287 Q 198.577 15.229 198.423 15.229 L 197.395 15.229 L 197.395 16.821 L 198.423 16.821 Q 198.577 16.821 198.711 16.763 Q 198.845 16.705 198.946 16.604 Q 199.048 16.502 199.106 16.368 Q 199.164 16.235 199.164 16.08 Z M 201.207 16.531 Q 201.088 16.531 200.983 16.576 Q 200.879 16.621 200.801 16.699 Q 200.724 16.776 200.679 16.881 Q 200.634 16.985 200.634 17.105 L 200.634 19.454 L 200.237 19.454 L 200.237 16.154 L 200.369 16.154 L 200.585 16.489 Q 200.721 16.305 200.925 16.198 Q 201.13 16.09 201.372 16.09 L 201.604 16.09 L 201.604 16.531 Z M 204.2 19.454 L 203.981 19.125 Q 203.846 19.303 203.643 19.41 Q 203.44 19.518 203.198 19.518 L 203.098 19.518 Q 202.898 19.518 202.721 19.443 Q 202.544 19.367 202.412 19.235 Q 202.279 19.103 202.204 18.925 Q 202.128 18.748 202.128 18.548 L 202.128 18.516 Q 202.128 18.316 202.204 18.139 Q 202.279 17.962 202.412 17.83 Q 202.544 17.698 202.721 17.622 Q 202.898 17.546 203.098 17.546 L 203.936 17.546 L 203.936 17.037 Q 203.936 16.918 203.891 16.813 Q 203.846 16.708 203.768 16.631 Q 203.691 16.554 203.586 16.508 Q 203.481 16.463 203.362 16.463 L 203.13 16.463 Q 203.011 16.463 202.906 16.508 Q 202.801 16.554 202.724 16.631 Q 202.647 16.708 202.602 16.813 Q 202.557 16.918 202.557 17.037 L 202.557 17.156 L 202.16 17.092 L 202.16 17.06 Q 202.16 16.86 202.236 16.683 Q 202.312 16.505 202.444 16.373 Q 202.576 16.241 202.753 16.165 Q 202.93 16.09 203.13 16.09 L 203.362 16.09 Q 203.562 16.09 203.739 16.165 Q 203.917 16.241 204.049 16.373 Q 204.181 16.505 204.257 16.683 Q 204.332 16.86 204.332 17.06 L 204.332 19.454 Z M 203.936 17.856 L 203.098 17.856 Q 202.979 17.856 202.874 17.901 Q 202.769 17.946 202.692 18.025 Q 202.615 18.104 202.569 18.208 Q 202.524 18.313 202.524 18.432 L 202.524 18.571 Q 202.524 18.69 202.569 18.795 Q 202.615 18.9 202.692 18.977 Q 202.769 19.054 202.874 19.1 Q 202.979 19.145 203.098 19.145 L 203.362 19.145 Q 203.481 19.145 203.586 19.1 Q 203.691 19.054 203.768 18.977 Q 203.846 18.9 203.891 18.795 Q 203.936 18.69 203.936 18.571 Z M 207.332 18.548 Q 207.332 18.748 207.257 18.925 Q 207.181 19.103 207.049 19.235 Q 206.917 19.367 206.739 19.443 Q 206.562 19.518 206.362 19.518 L 206.098 19.518 Q 205.898 19.518 205.721 19.443 Q 205.544 19.367 205.412 19.235 Q 205.279 19.103 205.204 18.925 Q 205.128 18.748 205.128 18.548 L 205.128 17.06 Q 205.128 16.86 205.204 16.683 Q 205.279 16.505 205.412 16.373 Q 205.544 16.241 205.721 16.165 Q 205.898 16.09 206.098 16.09 L 206.362 16.09 Q 206.562 16.09 206.739 16.165 Q 206.917 16.241 207.049 16.373 Q 207.181 16.505 207.257 16.683 Q 207.332 16.86 207.332 17.06 L 207.332 17.192 L 206.936 17.256 L 206.936 17.037 Q 206.936 16.918 206.891 16.813 Q 206.846 16.708 206.768 16.631 Q 206.691 16.554 206.586 16.508 Q 206.481 16.463 206.362 16.463 L 206.098 16.463 Q 205.979 16.463 205.874 16.508 Q 205.769 16.554 205.692 16.631 Q 205.615 16.708 205.569 16.813 Q 205.524 16.918 205.524 17.037 L 205.524 18.571 Q 205.524 18.69 205.569 18.795 Q 205.615 18.9 205.692 18.977 Q 205.769 19.054 205.874 19.1 Q 205.979 19.145 206.098 19.145 L 206.362 19.145 Q 206.481 19.145 206.586 19.1 Q 206.691 19.054 206.768 18.977 Q 206.846 18.9 206.891 18.795 Q 206.936 18.69 206.936 18.571 L 206.936 18.352 L 207.332 18.416 L 207.332 18.548 Z M 208.228 15.361 L 208.228 14.833 L 208.689 14.833 L 208.689 15.361 Z M 208.26 19.454 L 208.26 16.154 L 208.656 16.154 L 208.656 19.454 Z M 211.389 19.454 L 211.389 17.037 Q 211.389 16.918 211.344 16.813 Q 211.299 16.708 211.221 16.631 Q 211.144 16.554 211.039 16.508 Q 210.935 16.463 210.815 16.463 L 210.551 16.463 Q 210.432 16.463 210.327 16.508 Q 210.222 16.554 210.145 16.631 Q 210.068 16.708 210.023 16.813 Q 209.977 16.918 209.977 17.037 L 209.977 19.454 L 209.581 19.454 L 209.581 16.154 L 209.713 16.154 L 209.929 16.489 Q 210.064 16.305 210.269 16.198 Q 210.474 16.09 210.715 16.09 L 210.815 16.09 Q 211.015 16.09 211.192 16.165 Q 211.37 16.241 211.502 16.373 Q 211.634 16.505 211.71 16.683 Q 211.785 16.86 211.785 17.06 L 211.785 19.454 Z M 214.81 19.87 Q 214.81 20.07 214.734 20.237 Q 214.658 20.405 214.526 20.524 Q 214.394 20.643 214.217 20.709 Q 214.04 20.775 213.84 20.775 L 213.675 20.775 Q 213.476 20.775 213.298 20.709 Q 213.121 20.643 212.989 20.524 Q 212.857 20.405 212.781 20.237 Q 212.705 20.07 212.705 19.87 L 212.705 19.857 Q 212.705 19.663 212.776 19.502 Q 212.847 19.341 212.97 19.222 Q 212.815 19.129 212.723 18.969 Q 212.631 18.809 212.631 18.616 Q 212.631 18.442 212.705 18.292 Q 212.78 18.142 212.908 18.049 Q 212.754 17.914 212.664 17.723 Q 212.573 17.533 212.573 17.308 L 212.573 17.06 Q 212.573 16.86 212.649 16.683 Q 212.725 16.505 212.857 16.373 Q 212.989 16.241 213.166 16.165 Q 213.343 16.09 213.543 16.09 L 213.708 16.09 Q 213.949 16.09 214.154 16.198 Q 214.359 16.305 214.494 16.489 L 214.71 16.154 L 214.842 16.154 L 214.842 17.308 Q 214.842 17.508 214.766 17.685 Q 214.691 17.862 214.558 17.994 Q 214.426 18.126 214.249 18.202 Q 214.072 18.278 213.872 18.278 L 213.298 18.278 Q 213.231 18.278 213.169 18.305 Q 213.108 18.333 213.061 18.378 Q 213.015 18.423 212.989 18.486 Q 212.963 18.548 212.963 18.616 Q 212.963 18.684 212.989 18.745 Q 213.015 18.806 213.061 18.853 Q 213.108 18.9 213.169 18.925 Q 213.231 18.951 213.298 18.951 L 213.84 18.951 Q 214.04 18.951 214.217 19.017 Q 214.394 19.083 214.526 19.203 Q 214.658 19.322 214.734 19.489 Q 214.81 19.657 214.81 19.857 L 214.81 19.87 Z M 214.449 17.037 Q 214.449 16.918 214.404 16.813 Q 214.359 16.708 214.28 16.631 Q 214.201 16.554 214.096 16.508 Q 213.991 16.463 213.872 16.463 L 213.543 16.463 Q 213.424 16.463 213.319 16.508 Q 213.215 16.554 213.137 16.631 Q 213.06 16.708 213.015 16.813 Q 212.97 16.918 212.97 17.037 L 212.97 17.33 Q 212.97 17.45 213.015 17.554 Q 213.06 17.659 213.137 17.736 Q 213.215 17.814 213.319 17.859 Q 213.424 17.904 213.543 17.904 L 213.872 17.904 Q 213.991 17.904 214.096 17.859 Q 214.201 17.814 214.28 17.736 Q 214.359 17.659 214.404 17.554 Q 214.449 17.45 214.449 17.33 Z M 214.433 19.837 Q 214.433 19.718 214.388 19.623 Q 214.343 19.528 214.265 19.464 Q 214.188 19.399 214.083 19.364 Q 213.978 19.328 213.859 19.328 L 213.656 19.328 Q 213.537 19.328 213.432 19.364 Q 213.327 19.399 213.25 19.464 Q 213.173 19.528 213.128 19.623 Q 213.082 19.718 213.082 19.837 L 213.082 19.889 Q 213.082 20.008 213.128 20.102 Q 213.173 20.195 213.25 20.261 Q 213.327 20.327 213.432 20.363 Q 213.537 20.398 213.656 20.398 L 213.859 20.398 Q 213.978 20.398 214.083 20.363 Q 214.188 20.327 214.265 20.261 Q 214.343 20.195 214.388 20.102 Q 214.433 20.008 214.433 19.889 Z M 219.477 19.454 L 217.737 17.143 L 219.477 14.833 L 219.993 14.833 L 218.217 17.143 L 219.993 19.454 Z M 217.221 19.454 L 217.221 14.833 L 217.637 14.833 L 217.637 19.454 Z M 220.626 15.361 L 220.626 14.833 L 221.087 14.833 L 221.087 15.361 Z M 220.659 19.454 L 220.659 16.154 L 221.055 16.154 L 221.055 19.454 Z M 223.182 19.454 Q 223.001 19.454 222.842 19.386 Q 222.682 19.319 222.564 19.199 Q 222.447 19.08 222.378 18.922 Q 222.308 18.764 222.308 18.584 L 222.308 16.531 L 221.715 16.531 L 221.715 16.154 L 222.308 16.154 L 222.308 15.361 L 222.705 15.297 L 222.705 16.154 L 223.543 16.154 L 223.543 16.531 L 222.705 16.531 L 222.705 18.603 Q 222.705 18.703 222.742 18.789 Q 222.779 18.874 222.843 18.938 Q 222.908 19.003 222.995 19.04 Q 223.082 19.077 223.182 19.077 L 223.543 19.077 L 223.543 19.454 Z" style="fill: rgb(62, 0, 255);" />
  <line x1="0" y1="22.042" x2="230" y2="22.042" id="line-1" style="paint-order: fill; stroke-dasharray: 2px; stroke: rgb(62, 0, 255); stroke-width: 0.1px;" />
  <line x1="0" y1="37.042" x2="230" y2="37.042" id="line-3" style="paint-order: fill; stroke-dasharray: 2px; stroke: rgb(255, 255, 255); stroke-width: 0.1px;" />
  <g id="Page-1" stroke="none" stroke-width="1" fill="none" fill-rule="evenodd">
    <g id="A250_texture">
      <rect id="rect835" stroke="#000000" stroke-width="0.264787" stroke-linecap="round" width="230" height="250" style="" />
      <g style="">
        <line x1="15" y1="5" x2="15" y2="245" id="path837-0-1-9-5-9-3-6" stroke-width="0.264999" style="stroke: rgb(209, 209, 211);" />
        <line x1="65" y1="5" x2="65" y2="245" id="line-4" stroke-width="0.264999" style="stroke: rgb(209, 209, 211);" />
        <line x1="115" y1="5" x2="115" y2="245" id="path837-0-1-9-5-9-3-6-4-6-8" stroke-width="0.264999" style="stroke: rgb(209, 209, 211);" />
        <path d="M 164.9 37 L 165 200" id="path837-0-1-9-5-9-3-6-4-6" stroke-width="0.264999" style="stroke: rgb(209, 209, 211);" />
        <path d="M 215 37 L 215 245.041" id="path-1" stroke-width="0.264999" style="stroke: rgb(209, 209, 211);" />
      </g>
      <g transform="matrix(1, 0, 0, 1, 0, 36)" style="">
        <line x1="5" y1="199" x2="225" y2="199" id="path837-0-1-9-5-9" stroke-width="0.264999" style="fill: rgb(209, 209, 211); stroke: rgb(209, 209, 211);" />
        <line x1="5" y1="64" x2="225" y2="64" id="path837-0-1" stroke-width="0.264999" style="fill: rgb(209, 209, 211); stroke: rgb(209, 209, 211);" />
        <line x1="5" y1="114" x2="225" y2="114" id="path837-0-1-9" stroke-width="0.264999" style="fill: rgb(209, 209, 211); stroke: rgb(209, 209, 211);" />
        <line x1="5" y1="164" x2="225" y2="164" id="path837-0-1-9-5" stroke-width="0.264999" style="fill: rgb(209, 209, 211); stroke: rgb(209, 209, 211);" />
        <line x1="5" y1="14" x2="225" y2="14" id="line-5" stroke-width="0.264999" style="fill: rgb(209, 209, 211); stroke: rgb(209, 209, 211);" />
      </g>
      <g transform="matrix(1, 0, 0, 1, -11.469999, -12.299103)" style="">
        <path d="M 20.751 258.167 L 20.751 260.487 L 21.314 260.487 Q 21.372 260.487 21.398 260.509 Q 21.423 260.532 21.423 260.569 Q 21.423 260.604 21.398 260.628 Q 21.372 260.651 21.314 260.651 L 20.025 260.651 Q 19.966 260.651 19.941 260.628 Q 19.915 260.604 19.915 260.569 Q 19.915 260.532 19.941 260.509 Q 19.966 260.487 20.025 260.487 L 20.587 260.487 L 20.587 258.393 L 20.052 258.561 Q 20.013 258.573 19.995 258.573 Q 19.966 258.573 19.942 258.548 Q 19.917 258.524 19.917 258.491 Q 19.917 258.462 19.937 258.436 Q 19.952 258.421 20.001 258.403 Z M 22.616 258.366 L 22.616 259.169 Q 22.761 259.108 22.894 259.078 Q 23.027 259.047 23.146 259.047 Q 23.454 259.047 23.662 259.264 Q 23.87 259.481 23.87 259.835 Q 23.87 260.225 23.636 260.467 Q 23.402 260.71 23.05 260.71 Q 22.818 260.71 22.603 260.606 Q 22.45 260.534 22.325 260.426 Q 22.251 260.362 22.251 260.319 Q 22.251 260.284 22.275 260.259 Q 22.298 260.235 22.329 260.235 Q 22.363 260.235 22.4 260.27 Q 22.695 260.546 23.042 260.546 Q 23.329 260.546 23.517 260.349 Q 23.704 260.153 23.704 259.827 Q 23.704 259.549 23.542 259.38 Q 23.38 259.212 23.13 259.212 Q 22.874 259.212 22.618 259.346 Q 22.556 259.378 22.531 259.378 Q 22.495 259.378 22.474 259.354 Q 22.452 259.331 22.452 259.288 L 22.452 258.2 L 23.597 258.2 Q 23.656 258.2 23.681 258.223 Q 23.706 258.247 23.706 258.284 Q 23.706 258.319 23.681 258.342 Q 23.656 258.366 23.597 258.366 Z" style="fill: rgb(209, 209, 211);" />
      </g>
      <g transform="matrix(1, 0, 0, 1, -11.469999, -12.299103)" style="">
        <path d="M 70.181 259.614 Q 70.333 259.389 70.494 259.282 Q 70.656 259.174 70.853 259.174 Q 71.115 259.174 71.318 259.392 Q 71.521 259.61 71.521 259.93 Q 71.521 260.223 71.335 260.466 Q 71.15 260.71 70.824 260.71 Q 70.611 260.71 70.426 260.579 Q 70.241 260.448 70.136 260.176 Q 70.005 259.839 70.005 259.428 Q 70.005 259.12 70.128 258.854 Q 70.222 258.649 70.378 258.494 Q 70.534 258.339 70.742 258.24 Q 70.95 258.141 71.193 258.141 Q 71.357 258.141 71.466 258.208 Q 71.513 258.237 71.513 258.286 Q 71.513 258.321 71.491 258.343 Q 71.47 258.366 71.437 258.366 Q 71.411 258.366 71.376 258.346 Q 71.296 258.307 71.177 258.307 Q 70.796 258.307 70.483 258.634 Q 70.169 258.962 70.169 259.413 Q 70.169 259.477 70.181 259.614 Z M 70.218 259.885 Q 70.292 260.241 70.451 260.393 Q 70.611 260.546 70.827 260.546 Q 71.046 260.546 71.201 260.375 Q 71.357 260.204 71.357 259.93 Q 71.357 259.674 71.2 259.506 Q 71.044 259.339 70.847 259.339 Q 70.658 259.339 70.482 259.501 Q 70.365 259.608 70.218 259.885 Z M 72.616 258.366 L 72.616 259.169 Q 72.761 259.108 72.894 259.078 Q 73.027 259.047 73.146 259.047 Q 73.454 259.047 73.662 259.264 Q 73.87 259.481 73.87 259.835 Q 73.87 260.225 73.636 260.467 Q 73.402 260.71 73.05 260.71 Q 72.818 260.71 72.603 260.606 Q 72.45 260.534 72.325 260.426 Q 72.251 260.362 72.251 260.319 Q 72.251 260.284 72.275 260.259 Q 72.298 260.235 72.329 260.235 Q 72.363 260.235 72.4 260.27 Q 72.695 260.546 73.042 260.546 Q 73.329 260.546 73.517 260.349 Q 73.704 260.153 73.704 259.827 Q 73.704 259.549 73.542 259.38 Q 73.38 259.212 73.13 259.212 Q 72.874 259.212 72.618 259.346 Q 72.556 259.378 72.531 259.378 Q 72.495 259.378 72.474 259.354 Q 72.452 259.331 72.452 259.288 L 72.452 258.2 L 73.597 258.2 Q 73.656 258.2 73.681 258.223 Q 73.706 258.247 73.706 258.284 Q 73.706 258.319 73.681 258.342 Q 73.656 258.366 73.597 258.366 Z" style="fill: rgb(209, 209, 211);" />
      </g>
      <g transform="matrix(1, 0, 0, 1, -11.469999, -12.299103)" style="">
        <path d="M 119.751 258.167 L 119.751 260.487 L 120.314 260.487 Q 120.372 260.487 120.398 260.509 Q 120.423 260.532 120.423 260.569 Q 120.423 260.604 120.398 260.628 Q 120.372 260.651 120.314 260.651 L 119.025 260.651 Q 118.966 260.651 118.941 260.628 Q 118.915 260.604 118.915 260.569 Q 118.915 260.532 118.941 260.509 Q 118.966 260.487 119.025 260.487 L 119.587 260.487 L 119.587 258.393 L 119.052 258.561 Q 119.013 258.573 118.995 258.573 Q 118.966 258.573 118.942 258.548 Q 118.917 258.524 118.917 258.491 Q 118.917 258.462 118.937 258.436 Q 118.952 258.421 119.001 258.403 Z M 122.15 258.167 L 122.15 260.487 L 122.712 260.487 Q 122.771 260.487 122.796 260.509 Q 122.822 260.532 122.822 260.569 Q 122.822 260.604 122.796 260.628 Q 122.771 260.651 122.712 260.651 L 121.423 260.651 Q 121.365 260.651 121.339 260.628 Q 121.314 260.604 121.314 260.569 Q 121.314 260.532 121.339 260.509 Q 121.365 260.487 121.423 260.487 L 121.986 260.487 L 121.986 258.393 L 121.45 258.561 Q 121.411 258.573 121.394 258.573 Q 121.365 258.573 121.34 258.548 Q 121.316 258.524 121.316 258.491 Q 121.316 258.462 121.335 258.436 Q 121.351 258.421 121.4 258.403 Z M 124.015 258.366 L 124.015 259.169 Q 124.159 259.108 124.292 259.078 Q 124.425 259.047 124.544 259.047 Q 124.853 259.047 125.061 259.264 Q 125.269 259.481 125.269 259.835 Q 125.269 260.225 125.034 260.467 Q 124.8 260.71 124.449 260.71 Q 124.216 260.71 124.001 260.606 Q 123.849 260.534 123.724 260.426 Q 123.65 260.362 123.65 260.319 Q 123.65 260.284 123.673 260.259 Q 123.697 260.235 123.728 260.235 Q 123.761 260.235 123.798 260.27 Q 124.093 260.546 124.441 260.546 Q 124.728 260.546 124.915 260.349 Q 125.103 260.153 125.103 259.827 Q 125.103 259.549 124.941 259.38 Q 124.779 259.212 124.529 259.212 Q 124.273 259.212 124.017 259.346 Q 123.954 259.378 123.929 259.378 Q 123.894 259.378 123.872 259.354 Q 123.851 259.331 123.851 259.288 L 123.851 258.2 L 124.995 258.2 Q 125.054 258.2 125.079 258.223 Q 125.105 258.247 125.105 258.284 Q 125.105 258.319 125.079 258.342 Q 125.054 258.366 124.995 258.366 Z" style="fill: rgb(209, 209, 211);" />
      </g>
      <g transform="matrix(1, 0, 0, 1, -11.469999, -12.299103)" style="">
        <path d="M 169.221 258.167 L 169.221 260.487 L 169.784 260.487 Q 169.842 260.487 169.868 260.509 Q 169.893 260.532 169.893 260.569 Q 169.893 260.604 169.868 260.628 Q 169.842 260.651 169.784 260.651 L 168.495 260.651 Q 168.436 260.651 168.411 260.628 Q 168.385 260.604 168.385 260.569 Q 168.385 260.532 168.411 260.509 Q 168.436 260.487 168.495 260.487 L 169.057 260.487 L 169.057 258.393 L 168.522 258.561 Q 168.483 258.573 168.465 258.573 Q 168.436 258.573 168.412 258.548 Q 168.387 258.524 168.387 258.491 Q 168.387 258.462 168.407 258.436 Q 168.422 258.421 168.471 258.403 Z M 171.049 259.614 Q 171.202 259.389 171.363 259.282 Q 171.524 259.174 171.721 259.174 Q 171.983 259.174 172.186 259.392 Q 172.389 259.61 172.389 259.93 Q 172.389 260.223 172.204 260.466 Q 172.018 260.71 171.692 260.71 Q 171.479 260.71 171.294 260.579 Q 171.11 260.448 171.004 260.176 Q 170.874 259.839 170.874 259.428 Q 170.874 259.12 170.997 258.854 Q 171.09 258.649 171.247 258.494 Q 171.403 258.339 171.611 258.24 Q 171.819 258.141 172.061 258.141 Q 172.225 258.141 172.335 258.208 Q 172.381 258.237 172.381 258.286 Q 172.381 258.321 172.36 258.343 Q 172.338 258.366 172.305 258.366 Q 172.28 258.366 172.245 258.346 Q 172.165 258.307 172.045 258.307 Q 171.665 258.307 171.351 258.634 Q 171.038 258.962 171.038 259.413 Q 171.038 259.477 171.049 259.614 Z M 171.086 259.885 Q 171.161 260.241 171.32 260.393 Q 171.479 260.546 171.696 260.546 Q 171.915 260.546 172.07 260.375 Q 172.225 260.204 172.225 259.93 Q 172.225 259.674 172.069 259.506 Q 171.913 259.339 171.715 259.339 Q 171.526 259.339 171.35 259.501 Q 171.233 259.608 171.086 259.885 Z M 173.485 258.366 L 173.485 259.169 Q 173.629 259.108 173.762 259.078 Q 173.895 259.047 174.014 259.047 Q 174.323 259.047 174.531 259.264 Q 174.739 259.481 174.739 259.835 Q 174.739 260.225 174.504 260.467 Q 174.27 260.71 173.919 260.71 Q 173.686 260.71 173.471 260.606 Q 173.319 260.534 173.194 260.426 Q 173.12 260.362 173.12 260.319 Q 173.12 260.284 173.143 260.259 Q 173.167 260.235 173.198 260.235 Q 173.231 260.235 173.268 260.27 Q 173.563 260.546 173.911 260.546 Q 174.198 260.546 174.385 260.349 Q 174.573 260.153 174.573 259.827 Q 174.573 259.549 174.411 259.38 Q 174.249 259.212 173.999 259.212 Q 173.743 259.212 173.487 259.346 Q 173.424 259.378 173.399 259.378 Q 173.364 259.378 173.342 259.354 Q 173.321 259.331 173.321 259.288 L 173.321 258.2 L 174.465 258.2 Q 174.524 258.2 174.549 258.223 Q 174.575 258.247 174.575 258.284 Q 174.575 258.319 174.549 258.342 Q 174.524 258.366 174.465 258.366 Z" style="fill: rgb(209, 209, 211);" />
      </g>
      <g transform="matrix(1, 0, 0, 1, -11.469999, -12.299103)" style="">
        <path d="M 218.964 260.487 L 220.224 260.487 L 220.224 260.422 Q 220.224 260.364 220.247 260.339 Q 220.271 260.313 220.308 260.313 Q 220.343 260.313 220.366 260.339 Q 220.39 260.364 220.39 260.422 L 220.39 260.651 L 218.804 260.651 L 218.804 260.409 Q 219.304 259.96 219.777 259.495 Q 219.997 259.278 220.079 259.176 Q 220.161 259.075 220.192 258.998 Q 220.222 258.921 220.222 258.842 Q 220.222 258.631 220.052 258.469 Q 219.882 258.307 219.642 258.307 Q 219.427 258.307 219.261 258.43 Q 219.095 258.553 219.046 258.735 Q 219.034 258.782 219.017 258.796 Q 218.993 258.815 218.962 258.815 Q 218.929 258.815 218.907 258.793 Q 218.884 258.77 218.884 258.739 Q 218.884 258.645 218.987 258.485 Q 219.089 258.325 219.27 258.233 Q 219.45 258.141 219.64 258.141 Q 219.947 258.141 220.167 258.354 Q 220.388 258.567 220.388 258.837 Q 220.388 258.95 220.351 259.045 Q 220.314 259.139 220.225 259.252 Q 220.136 259.364 219.906 259.59 Q 219.327 260.161 218.964 260.475 Z M 222.15 258.167 L 222.15 260.487 L 222.712 260.487 Q 222.771 260.487 222.796 260.509 Q 222.822 260.532 222.822 260.569 Q 222.822 260.604 222.796 260.628 Q 222.771 260.651 222.712 260.651 L 221.423 260.651 Q 221.365 260.651 221.339 260.628 Q 221.314 260.604 221.314 260.569 Q 221.314 260.532 221.339 260.509 Q 221.365 260.487 221.423 260.487 L 221.986 260.487 L 221.986 258.393 L 221.45 258.561 Q 221.411 258.573 221.394 258.573 Q 221.365 258.573 221.34 258.548 Q 221.316 258.524 221.316 258.491 Q 221.316 258.462 221.335 258.436 Q 221.351 258.421 221.4 258.403 Z M 224.015 258.366 L 224.015 259.169 Q 224.159 259.108 224.292 259.078 Q 224.425 259.047 224.544 259.047 Q 224.853 259.047 225.061 259.264 Q 225.269 259.481 225.269 259.835 Q 225.269 260.225 225.034 260.467 Q 224.8 260.71 224.449 260.71 Q 224.216 260.71 224.001 260.606 Q 223.849 260.534 223.724 260.426 Q 223.65 260.362 223.65 260.319 Q 223.65 260.284 223.673 260.259 Q 223.697 260.235 223.728 260.235 Q 223.761 260.235 223.798 260.27 Q 224.093 260.546 224.441 260.546 Q 224.728 260.546 224.915 260.349 Q 225.103 260.153 225.103 259.827 Q 225.103 259.549 224.941 259.38 Q 224.779 259.212 224.529 259.212 Q 224.273 259.212 224.017 259.346 Q 223.954 259.378 223.929 259.378 Q 223.894 259.378 223.872 259.354 Q 223.851 259.331 223.851 259.288 L 223.851 258.2 L 224.995 258.2 Q 225.054 258.2 225.079 258.223 Q 225.105 258.247 225.105 258.284 Q 225.105 258.319 225.079 258.342 Q 225.054 258.366 224.995 258.366 Z" style="fill: rgb(209, 209, 211);" />
      </g>
      <g transform="matrix(1, 0, 0, 1, -11.469999, -12.299103)">
        <path d="M 232.964 260.487 L 234.224 260.487 L 234.224 260.422 Q 234.224 260.364 234.247 260.339 Q 234.271 260.313 234.308 260.313 Q 234.343 260.313 234.366 260.339 Q 234.39 260.364 234.39 260.422 L 234.39 260.651 L 232.804 260.651 L 232.804 260.409 Q 233.304 259.96 233.777 259.495 Q 233.997 259.278 234.079 259.176 Q 234.161 259.075 234.192 258.998 Q 234.222 258.921 234.222 258.842 Q 234.222 258.631 234.052 258.469 Q 233.882 258.307 233.642 258.307 Q 233.427 258.307 233.261 258.43 Q 233.095 258.553 233.046 258.735 Q 233.034 258.782 233.017 258.796 Q 232.993 258.815 232.962 258.815 Q 232.929 258.815 232.907 258.793 Q 232.884 258.77 232.884 258.739 Q 232.884 258.645 232.987 258.485 Q 233.089 258.325 233.27 258.233 Q 233.45 258.141 233.64 258.141 Q 233.947 258.141 234.167 258.354 Q 234.388 258.567 234.388 258.837 Q 234.388 258.95 234.351 259.045 Q 234.314 259.139 234.225 259.252 Q 234.136 259.364 233.906 259.59 Q 233.327 260.161 232.964 260.475 Z M 236.406 259.317 Q 236.632 259.419 236.751 259.595 Q 236.87 259.772 236.87 259.964 Q 236.87 260.258 236.631 260.484 Q 236.392 260.71 236.033 260.71 Q 235.822 260.71 235.595 260.62 Q 235.368 260.53 235.279 260.436 Q 235.249 260.405 235.249 260.37 Q 235.249 260.339 235.272 260.315 Q 235.294 260.292 235.325 260.292 Q 235.357 260.292 235.396 260.321 Q 235.699 260.546 236.036 260.546 Q 236.322 260.546 236.514 260.367 Q 236.706 260.188 236.706 259.969 Q 236.706 259.823 236.612 259.682 Q 236.517 259.542 236.339 259.461 Q 236.161 259.38 235.98 259.38 Q 235.921 259.38 235.896 259.357 Q 235.87 259.335 235.87 259.297 Q 235.87 259.262 235.895 259.239 Q 235.919 259.215 235.968 259.215 L 236.109 259.217 Q 236.329 259.217 236.473 259.083 Q 236.616 258.948 236.616 258.77 Q 236.616 258.587 236.466 258.446 Q 236.316 258.305 236.074 258.305 Q 235.904 258.305 235.761 258.364 Q 235.618 258.422 235.533 258.524 Q 235.501 258.563 235.485 258.572 Q 235.468 258.581 235.447 258.581 Q 235.413 258.581 235.39 258.558 Q 235.366 258.536 235.366 258.505 Q 235.366 258.426 235.536 258.307 Q 235.773 258.141 236.074 258.141 Q 236.384 258.141 236.583 258.328 Q 236.783 258.514 236.783 258.772 Q 236.783 258.936 236.687 259.083 Q 236.591 259.229 236.406 259.317 Z M 239.22 259.223 L 239.22 259.63 Q 239.22 260.159 238.968 260.467 Q 238.771 260.71 238.47 260.71 Q 238.325 260.71 238.198 260.652 Q 238.07 260.594 237.98 260.491 Q 237.923 260.426 237.856 260.284 Q 237.788 260.141 237.759 260.022 Q 237.714 259.854 237.714 259.63 L 237.714 259.223 Q 237.714 258.692 237.966 258.383 Q 238.163 258.141 238.464 258.141 Q 238.611 258.141 238.738 258.199 Q 238.865 258.256 238.954 258.36 Q 239.013 258.426 239.079 258.569 Q 239.146 258.712 239.177 258.829 Q 239.22 258.997 239.22 259.223 Z M 239.056 259.245 Q 239.056 259.012 238.991 258.812 Q 238.925 258.612 238.843 258.493 Q 238.794 258.424 238.716 258.376 Q 238.605 258.307 238.466 258.307 Q 238.191 258.307 238.034 258.589 Q 237.878 258.87 237.878 259.245 L 237.878 259.606 Q 237.878 259.839 237.944 260.04 Q 238.009 260.241 238.093 260.36 Q 238.14 260.426 238.218 260.475 Q 238.329 260.546 238.47 260.546 Q 238.743 260.546 238.9 260.263 Q 239.056 259.981 239.056 259.606 Z" style="fill: rgb(209, 209, 211);" />
      </g>
      <g transform="matrix(1, 0, 0, 1, -5.47, -5.299099)" style="">
        <path d="M 7.964 10.487 L 9.224 10.487 L 9.224 10.422 Q 9.224 10.364 9.247 10.339 Q 9.271 10.313 9.308 10.313 Q 9.343 10.313 9.366 10.339 Q 9.39 10.364 9.39 10.422 L 9.39 10.651 L 7.804 10.651 L 7.804 10.409 Q 8.304 9.96 8.777 9.495 Q 8.997 9.278 9.079 9.176 Q 9.161 9.075 9.192 8.998 Q 9.222 8.921 9.222 8.842 Q 9.222 8.631 9.052 8.469 Q 8.882 8.307 8.642 8.307 Q 8.427 8.307 8.261 8.43 Q 8.095 8.553 8.046 8.735 Q 8.034 8.782 8.017 8.796 Q 7.993 8.815 7.962 8.815 Q 7.929 8.815 7.907 8.793 Q 7.884 8.77 7.884 8.739 Q 7.884 8.645 7.987 8.485 Q 8.089 8.325 8.27 8.233 Q 8.45 8.141 8.64 8.141 Q 8.947 8.141 9.167 8.354 Q 9.388 8.567 9.388 8.837 Q 9.388 8.95 9.351 9.045 Q 9.314 9.139 9.225 9.252 Q 9.136 9.364 8.906 9.59 Q 8.327 10.161 7.964 10.475 Z M 10.616 8.366 L 10.616 9.169 Q 10.761 9.108 10.894 9.078 Q 11.027 9.047 11.146 9.047 Q 11.454 9.047 11.662 9.264 Q 11.87 9.481 11.87 9.835 Q 11.87 10.225 11.636 10.467 Q 11.402 10.71 11.05 10.71 Q 10.818 10.71 10.603 10.606 Q 10.45 10.534 10.325 10.426 Q 10.251 10.362 10.251 10.319 Q 10.251 10.284 10.275 10.259 Q 10.298 10.235 10.329 10.235 Q 10.363 10.235 10.4 10.27 Q 10.695 10.546 11.042 10.546 Q 11.329 10.546 11.517 10.349 Q 11.704 10.153 11.704 9.827 Q 11.704 9.549 11.542 9.38 Q 11.38 9.212 11.13 9.212 Q 10.874 9.212 10.618 9.346 Q 10.556 9.378 10.531 9.378 Q 10.495 9.378 10.474 9.354 Q 10.452 9.331 10.452 9.288 L 10.452 8.2 L 11.597 8.2 Q 11.656 8.2 11.681 8.223 Q 11.706 8.247 11.706 8.284 Q 11.706 8.319 11.681 8.342 Q 11.656 8.366 11.597 8.366 Z M 14.22 9.223 L 14.22 9.63 Q 14.22 10.159 13.968 10.467 Q 13.771 10.71 13.47 10.71 Q 13.325 10.71 13.198 10.652 Q 13.07 10.594 12.98 10.491 Q 12.923 10.426 12.856 10.284 Q 12.788 10.141 12.759 10.022 Q 12.714 9.854 12.714 9.63 L 12.714 9.223 Q 12.714 8.692 12.966 8.383 Q 13.163 8.141 13.464 8.141 Q 13.611 8.141 13.738 8.199 Q 13.865 8.256 13.954 8.36 Q 14.013 8.426 14.079 8.569 Q 14.146 8.712 14.177 8.829 Q 14.22 8.997 14.22 9.223 Z M 14.056 9.245 Q 14.056 9.012 13.991 8.812 Q 13.925 8.612 13.843 8.493 Q 13.794 8.424 13.716 8.376 Q 13.605 8.307 13.466 8.307 Q 13.191 8.307 13.034 8.589 Q 12.878 8.87 12.878 9.245 L 12.878 9.606 Q 12.878 9.839 12.944 10.04 Q 13.009 10.241 13.093 10.36 Q 13.14 10.426 13.218 10.475 Q 13.329 10.546 13.47 10.546 Q 13.743 10.546 13.9 10.263 Q 14.056 9.981 14.056 9.606 Z" style="fill: rgb(209, 209, 211);" />
      </g>
      <g transform="matrix(1, 0, 0, 1, -5.47, -5.299099)" style="">
        <path d="M 7.964 60.487 L 9.224 60.487 L 9.224 60.422 Q 9.224 60.364 9.247 60.339 Q 9.271 60.313 9.308 60.313 Q 9.343 60.313 9.366 60.339 Q 9.39 60.364 9.39 60.422 L 9.39 60.651 L 7.804 60.651 L 7.804 60.409 Q 8.304 59.96 8.777 59.495 Q 8.997 59.278 9.079 59.176 Q 9.161 59.075 9.192 58.998 Q 9.222 58.921 9.222 58.842 Q 9.222 58.631 9.052 58.469 Q 8.882 58.307 8.642 58.307 Q 8.427 58.307 8.261 58.43 Q 8.095 58.553 8.046 58.735 Q 8.034 58.782 8.017 58.796 Q 7.993 58.815 7.962 58.815 Q 7.929 58.815 7.907 58.793 Q 7.884 58.77 7.884 58.739 Q 7.884 58.645 7.987 58.485 Q 8.089 58.325 8.27 58.233 Q 8.45 58.141 8.64 58.141 Q 8.947 58.141 9.167 58.354 Q 9.388 58.567 9.388 58.837 Q 9.388 58.95 9.351 59.045 Q 9.314 59.139 9.225 59.252 Q 9.136 59.364 8.906 59.59 Q 8.327 60.161 7.964 60.475 Z M 11.822 59.223 L 11.822 59.63 Q 11.822 60.159 11.57 60.467 Q 11.372 60.71 11.072 60.71 Q 10.927 60.71 10.799 60.652 Q 10.671 60.594 10.581 60.491 Q 10.525 60.426 10.457 60.284 Q 10.39 60.141 10.361 60.022 Q 10.316 59.854 10.316 59.63 L 10.316 59.223 Q 10.316 58.692 10.568 58.383 Q 10.765 58.141 11.066 58.141 Q 11.212 58.141 11.339 58.199 Q 11.466 58.256 11.556 58.36 Q 11.615 58.426 11.681 58.569 Q 11.747 58.712 11.779 58.829 Q 11.822 58.997 11.822 59.223 Z M 11.657 59.245 Q 11.657 59.012 11.592 58.812 Q 11.527 58.612 11.445 58.493 Q 11.396 58.424 11.318 58.376 Q 11.206 58.307 11.068 58.307 Q 10.792 58.307 10.636 58.589 Q 10.48 58.87 10.48 59.245 L 10.48 59.606 Q 10.48 59.839 10.545 60.04 Q 10.611 60.241 10.695 60.36 Q 10.741 60.426 10.82 60.475 Q 10.931 60.546 11.072 60.546 Q 11.345 60.546 11.501 60.263 Q 11.657 59.981 11.657 59.606 Z M 14.22 59.223 L 14.22 59.63 Q 14.22 60.159 13.968 60.467 Q 13.771 60.71 13.47 60.71 Q 13.325 60.71 13.198 60.652 Q 13.07 60.594 12.98 60.491 Q 12.923 60.426 12.856 60.284 Q 12.788 60.141 12.759 60.022 Q 12.714 59.854 12.714 59.63 L 12.714 59.223 Q 12.714 58.692 12.966 58.383 Q 13.163 58.141 13.464 58.141 Q 13.611 58.141 13.738 58.199 Q 13.865 58.256 13.954 58.36 Q 14.013 58.426 14.079 58.569 Q 14.146 58.712 14.177 58.829 Q 14.22 58.997 14.22 59.223 Z M 14.056 59.245 Q 14.056 59.012 13.991 58.812 Q 13.925 58.612 13.843 58.493 Q 13.794 58.424 13.716 58.376 Q 13.605 58.307 13.466 58.307 Q 13.191 58.307 13.034 58.589 Q 12.878 58.87 12.878 59.245 L 12.878 59.606 Q 12.878 59.839 12.944 60.04 Q 13.009 60.241 13.093 60.36 Q 13.14 60.426 13.218 60.475 Q 13.329 60.546 13.47 60.546 Q 13.743 60.546 13.9 60.263 Q 14.056 59.981 14.056 59.606 Z" style="fill: rgb(209, 209, 211);" />
      </g>
      <g transform="matrix(1, 0, 0, 1, -5.47, -5.299099)">
        <path d="M 8.751 108.167 L 8.751 110.487 L 9.314 110.487 Q 9.372 110.487 9.398 110.509 Q 9.423 110.532 9.423 110.569 Q 9.423 110.604 9.398 110.628 Q 9.372 110.651 9.314 110.651 L 8.025 110.651 Q 7.966 110.651 7.941 110.628 Q 7.915 110.604 7.915 110.569 Q 7.915 110.532 7.941 110.509 Q 7.966 110.487 8.025 110.487 L 8.587 110.487 L 8.587 108.393 L 8.052 108.561 Q 8.013 108.573 7.995 108.573 Q 7.966 108.573 7.942 108.548 Q 7.917 108.524 7.917 108.491 Q 7.917 108.462 7.937 108.436 Q 7.952 108.421 8.001 108.403 Z M 10.616 108.366 L 10.616 109.169 Q 10.761 109.108 10.894 109.078 Q 11.027 109.047 11.146 109.047 Q 11.454 109.047 11.662 109.264 Q 11.87 109.481 11.87 109.835 Q 11.87 110.225 11.636 110.467 Q 11.402 110.71 11.05 110.71 Q 10.818 110.71 10.603 110.606 Q 10.45 110.534 10.325 110.426 Q 10.251 110.362 10.251 110.319 Q 10.251 110.284 10.275 110.259 Q 10.298 110.235 10.329 110.235 Q 10.363 110.235 10.4 110.27 Q 10.695 110.546 11.042 110.546 Q 11.329 110.546 11.517 110.349 Q 11.704 110.153 11.704 109.827 Q 11.704 109.549 11.542 109.38 Q 11.38 109.212 11.13 109.212 Q 10.874 109.212 10.618 109.346 Q 10.556 109.378 10.531 109.378 Q 10.495 109.378 10.474 109.354 Q 10.452 109.331 10.452 109.288 L 10.452 108.2 L 11.597 108.2 Q 11.656 108.2 11.681 108.223 Q 11.706 108.247 11.706 108.284 Q 11.706 108.319 11.681 108.342 Q 11.656 108.366 11.597 108.366 Z M 14.22 109.223 L 14.22 109.63 Q 14.22 110.159 13.968 110.467 Q 13.771 110.71 13.47 110.71 Q 13.325 110.71 13.198 110.652 Q 13.07 110.594 12.98 110.491 Q 12.923 110.426 12.856 110.284 Q 12.788 110.141 12.759 110.022 Q 12.714 109.854 12.714 109.63 L 12.714 109.223 Q 12.714 108.692 12.966 108.383 Q 13.163 108.141 13.464 108.141 Q 13.611 108.141 13.738 108.199 Q 13.865 108.256 13.954 108.36 Q 14.013 108.426 14.079 108.569 Q 14.146 108.712 14.177 108.829 Q 14.22 108.997 14.22 109.223 Z M 14.056 109.245 Q 14.056 109.012 13.991 108.812 Q 13.925 108.612 13.843 108.493 Q 13.794 108.424 13.716 108.376 Q 13.605 108.307 13.466 108.307 Q 13.191 108.307 13.034 108.589 Q 12.878 108.87 12.878 109.245 L 12.878 109.606 Q 12.878 109.839 12.944 110.04 Q 13.009 110.241 13.093 110.36 Q 13.14 110.426 13.218 110.475 Q 13.329 110.546 13.47 110.546 Q 13.743 110.546 13.9 110.263 Q 14.056 109.981 14.056 109.606 Z" style="fill: rgb(209, 209, 211);" />
      </g>
      <g transform="matrix(1, 0, 0, 1, -5.47, -5.299099)" style="">
        <path d="M 8.751 158.167 L 8.751 160.487 L 9.314 160.487 Q 9.372 160.487 9.398 160.509 Q 9.423 160.532 9.423 160.569 Q 9.423 160.604 9.398 160.628 Q 9.372 160.651 9.314 160.651 L 8.025 160.651 Q 7.966 160.651 7.941 160.628 Q 7.915 160.604 7.915 160.569 Q 7.915 160.532 7.941 160.509 Q 7.966 160.487 8.025 160.487 L 8.587 160.487 L 8.587 158.393 L 8.052 158.561 Q 8.013 158.573 7.995 158.573 Q 7.966 158.573 7.942 158.548 Q 7.917 158.524 7.917 158.491 Q 7.917 158.462 7.937 158.436 Q 7.952 158.421 8.001 158.403 Z M 11.822 159.223 L 11.822 159.63 Q 11.822 160.159 11.57 160.467 Q 11.372 160.71 11.072 160.71 Q 10.927 160.71 10.799 160.652 Q 10.671 160.594 10.581 160.491 Q 10.525 160.426 10.457 160.284 Q 10.39 160.141 10.361 160.022 Q 10.316 159.854 10.316 159.63 L 10.316 159.223 Q 10.316 158.692 10.568 158.383 Q 10.765 158.141 11.066 158.141 Q 11.212 158.141 11.339 158.199 Q 11.466 158.256 11.556 158.36 Q 11.615 158.426 11.681 158.569 Q 11.747 158.712 11.779 158.829 Q 11.822 158.997 11.822 159.223 Z M 11.657 159.245 Q 11.657 159.012 11.592 158.812 Q 11.527 158.612 11.445 158.493 Q 11.396 158.424 11.318 158.376 Q 11.206 158.307 11.068 158.307 Q 10.792 158.307 10.636 158.589 Q 10.48 158.87 10.48 159.245 L 10.48 159.606 Q 10.48 159.839 10.545 160.04 Q 10.611 160.241 10.695 160.36 Q 10.741 160.426 10.82 160.475 Q 10.931 160.546 11.072 160.546 Q 11.345 160.546 11.501 160.263 Q 11.657 159.981 11.657 159.606 Z M 14.22 159.223 L 14.22 159.63 Q 14.22 160.159 13.968 160.467 Q 13.771 160.71 13.47 160.71 Q 13.325 160.71 13.198 160.652 Q 13.07 160.594 12.98 160.491 Q 12.923 160.426 12.856 160.284 Q 12.788 160.141 12.759 160.022 Q 12.714 159.854 12.714 159.63 L 12.714 159.223 Q 12.714 158.692 12.966 158.383 Q 13.163 158.141 13.464 158.141 Q 13.611 158.141 13.738 158.199 Q 13.865 158.256 13.954 158.36 Q 14.013 158.426 14.079 158.569 Q 14.146 158.712 14.177 158.829 Q 14.22 158.997 14.22 159.223 Z M 14.056 159.245 Q 14.056 159.012 13.991 158.812 Q 13.925 158.612 13.843 158.493 Q 13.794 158.424 13.716 158.376 Q 13.605 158.307 13.466 158.307 Q 13.191 158.307 13.034 158.589 Q 12.878 158.87 12.878 159.245 L 12.878 159.606 Q 12.878 159.839 12.944 160.04 Q 13.009 160.241 13.093 160.36 Q 13.14 160.426 13.218 160.475 Q 13.329 160.546 13.47 160.546 Q 13.743 160.546 13.9 160.263 Q 14.056 159.981 14.056 159.606 Z" style="fill: rgb(209, 209, 211);" />
      </g>
      <g transform="matrix(1, 0, 0, 1, -3.47, -5.299099)">
        <path d="M 8.218 208.366 L 8.218 209.169 Q 8.363 209.108 8.495 209.078 Q 8.628 209.047 8.747 209.047 Q 9.056 209.047 9.264 209.264 Q 9.472 209.481 9.472 209.835 Q 9.472 210.225 9.238 210.467 Q 9.003 210.71 8.652 210.71 Q 8.419 210.71 8.204 210.606 Q 8.052 210.534 7.927 210.426 Q 7.853 210.362 7.853 210.319 Q 7.853 210.284 7.876 210.259 Q 7.9 210.235 7.931 210.235 Q 7.964 210.235 8.001 210.27 Q 8.296 210.546 8.644 210.546 Q 8.931 210.546 9.118 210.349 Q 9.306 210.153 9.306 209.827 Q 9.306 209.549 9.144 209.38 Q 8.982 209.212 8.732 209.212 Q 8.476 209.212 8.22 209.346 Q 8.157 209.378 8.132 209.378 Q 8.097 209.378 8.075 209.354 Q 8.054 209.331 8.054 209.288 L 8.054 208.2 L 9.199 208.2 Q 9.257 208.2 9.282 208.223 Q 9.308 208.247 9.308 208.284 Q 9.308 208.319 9.282 208.342 Q 9.257 208.366 9.199 208.366 Z M 11.822 209.223 L 11.822 209.63 Q 11.822 210.159 11.57 210.467 Q 11.372 210.71 11.072 210.71 Q 10.927 210.71 10.799 210.652 Q 10.671 210.594 10.581 210.491 Q 10.525 210.426 10.457 210.284 Q 10.39 210.141 10.361 210.022 Q 10.316 209.854 10.316 209.63 L 10.316 209.223 Q 10.316 208.692 10.568 208.383 Q 10.765 208.141 11.066 208.141 Q 11.212 208.141 11.339 208.199 Q 11.466 208.256 11.556 208.36 Q 11.615 208.426 11.681 208.569 Q 11.747 208.712 11.779 208.829 Q 11.822 208.997 11.822 209.223 Z M 11.657 209.245 Q 11.657 209.012 11.592 208.812 Q 11.527 208.612 11.445 208.493 Q 11.396 208.424 11.318 208.376 Q 11.206 208.307 11.068 208.307 Q 10.792 208.307 10.636 208.589 Q 10.48 208.87 10.48 209.245 L 10.48 209.606 Q 10.48 209.839 10.545 210.04 Q 10.611 210.241 10.695 210.36 Q 10.741 210.426 10.82 210.475 Q 10.931 210.546 11.072 210.546 Q 11.345 210.546 11.501 210.263 Q 11.657 209.981 11.657 209.606 Z" style="fill: rgb(209, 209, 211);" />
      </g>
      <g transform="matrix(1, 0, 0, 1, -5.47, 8.700901)" />
    </g>
  </g>
</svg>
