<?xml version="1.0" encoding="utf-8"?>
<svg viewBox="0 0 320 350" xmlns="http://www.w3.org/2000/svg" author="https://github.com/macdylan/3dp-configs">
  <g id="Page-1" stroke="none" stroke-width="1" fill="none" fill-rule="evenodd">
    <g id="A350_texture">
      <rect id="rect835" stroke="#000000" stroke-width="0.264787" stroke-linecap="round" width="320" height="350" style=""/>
      <g transform="matrix(0.96875, 0, 0, 1, -1.78125, -2)">
        <line x1="7" y1="32" x2="327" y2="32" id="path837" stroke-width="0.265" style="fill: rgb(209, 209, 211); stroke: rgb(209, 209, 211);"/>
        <line x1="7" y1="82" x2="327" y2="82" id="path837-0" stroke-width="0.264999" style="fill: rgb(209, 209, 211); stroke: rgb(209, 209, 211);"/>
        <line x1="7" y1="132" x2="327" y2="132" id="path837-0-1" stroke-width="0.264999" style="fill: rgb(209, 209, 211); stroke: rgb(209, 209, 211);"/>
        <line x1="7" y1="182" x2="327" y2="182" id="path837-0-1-9" stroke-width="0.264999" style="fill: rgb(209, 209, 211); stroke: rgb(209, 209, 211);"/>
        <line x1="7" y1="232" x2="327" y2="232" id="path837-0-1-9-5" stroke-width="0.264999" style="fill: rgb(209, 209, 211); stroke: rgb(209, 209, 211);"/>
        <line x1="7" y1="282" x2="327" y2="282" id="path837-0-1-9-5-9" stroke-width="0.264999" style="fill: rgb(209, 209, 211); stroke: rgb(209, 209, 211);"/>
        <line x1="7" y1="332" x2="327" y2="332" id="line-1" stroke-width="0.264999" style="fill: rgb(209, 209, 211); stroke: rgb(209, 209, 211);"/>
      </g>
      <g transform="matrix(1, 0, 0, 1, -7, -7)" style="">
        <line x1="17" y1="12" x2="17" y2="352" id="path837-0-1-9-5-9-3-6" stroke-width="0.264999" style="fill: rgb(209, 209, 211); stroke: rgb(209, 209, 211);"/>
        <line x1="67" y1="12" x2="67" y2="352" id="line-3" stroke-width="0.264999" style="fill: rgb(209, 209, 211); stroke: rgb(209, 209, 211);"/>
        <line x1="117" y1="12" x2="117" y2="352" id="line-4" stroke-width="0.264999" style="fill: rgb(209, 209, 211); stroke: rgb(209, 209, 211);"/>
        <line x1="167" y1="12" x2="167" y2="352" id="path837-0-1-9-5-9-3-6-4-6-8" stroke-width="0.264999" style="fill: rgb(209, 209, 211); stroke: rgb(209, 209, 211);"/>
        <line x1="217" y1="12" x2="217" y2="352" id="path837-0-1-9-5-9-3-6-4-6-8-8" stroke-width="0.264999" style="fill: rgb(209, 209, 211); stroke: rgb(209, 209, 211);"/>
        <line x1="267" y1="12" x2="267" y2="295" id="path837-0-1-9-5-9-3-6-4-6-8-8-1" stroke-width="0.264999" style="fill: rgb(209, 209, 211); stroke: rgb(209, 209, 211); transform-box: fill-box; transform-origin: 50% 50%;"/>
        <line x1="317" y1="12" x2="317" y2="352" id="path837-0-1-9-5-9-3-6-4-6-8-8-1-3" stroke-width="0.264999" style="fill: rgb(209, 209, 211); stroke: rgb(209, 209, 211);"/>
      </g>
      <g id="text1063" transform="matrix(1, 0, 0, 1, 2.05266, 5)" fill="#000000" fill-rule="nonzero" style="">
        <path d="M1.5003353,1.383208 C1.5554553,1.432588 1.60081563,1.4946 1.6364163,1.569244 C1.6720163,1.64388733 1.6898163,1.74035 1.6898163,1.858632 C1.6898163,1.97576533 1.66857297,2.08313733 1.6260863,2.180748 C1.58359963,2.27835933 1.52388463,2.36333867 1.4469413,2.435686 C1.3608137,2.51607133 1.25918323,2.57578633 1.1420499,2.614831 C1.02606497,2.65272433 0.898596367,2.671671 0.7596441,2.671671 C0.6172467,2.671671 0.477146033,2.65444433 0.3393421,2.619991 C0.201538233,2.586691 0.0884242,2.54994333 0,2.509748 L0,2.149736 L0.025838,2.149736 C0.123449133,2.21404267 0.238285733,2.26744167 0.3703478,2.309933 C0.502409867,2.35241967 0.6298785,2.373663 0.7527537,2.373663 C0.8251007,2.373663 0.9020412,2.36160633 0.9835752,2.337493 C1.0651092,2.31337967 1.13114023,2.27778033 1.1816683,2.230695 C1.23449297,2.18016833 1.2735374,2.12447267 1.2988016,2.063608 C1.32521427,2.00274133 1.3384206,1.925801 1.3384206,1.832787 C1.3384206,1.74091767 1.32349193,1.66512533 1.2936346,1.60541 C1.26492527,1.54454333 1.22473247,1.49688633 1.1730562,1.462439 C1.12137953,1.426839 1.0587936,1.40272233 0.9852984,1.390089 C0.911802933,1.376309 0.832565667,1.369419 0.7475866,1.369419 L0.5925518,1.369419 L0.5925518,1.083476 L0.7131302,1.083476 C0.887681867,1.083476 1.02663417,1.04730233 1.1299871,0.974955 C1.23448837,0.901459667 1.286739,0.794661667 1.286739,0.654561 C1.286739,0.592547667 1.27353267,0.538574667 1.24712,0.492642 C1.22070733,0.445562 1.1839596,0.407091667 1.1368768,0.377231 C1.0874968,0.347371 1.034672,0.326701 0.9784024,0.315221 C0.9221324,0.303741 0.858398067,0.298001 0.7871994,0.298001 C0.678104667,0.298001 0.562119733,0.317524333 0.4392446,0.356571 C0.3163694,0.395617667 0.200384433,0.450739333 0.0912897,0.521936 L0.0740637,0.521936 L0.0740637,0.161923 C0.1555977,0.121729667 0.264118267,0.084982 0.3996254,0.05168 C0.536281,0.0172266667 0.6683431,-1.77635684e-15 0.7958117,-1.77635684e-15 C0.920983567,-1.77635684e-15 1.0312267,0.0114833333 1.1265411,0.03445 C1.22185543,0.0574166667 1.30798287,0.0941643333 1.3849234,0.144693 C1.46760607,0.199813 1.53019207,0.266418 1.5726814,0.344508 C1.61516807,0.422597333 1.6364114,0.513892667 1.6364114,0.618394 C1.6364114,0.760791333 1.5858834,0.885389 1.4848274,0.992187 C1.38491947,1.09783633 1.26663773,1.16444133 1.1299822,1.192002 L1.1299822,1.216122 C1.18510353,1.22530867 1.24826363,1.244832 1.3194625,1.274692 C1.3906611,1.30339867 1.4509504,1.339572 1.5003304,1.383212 L1.5003353,1.383208 Z" id="path1525" style="fill: rgb(209, 209, 211);"/>
        <path d="M4.0273143,1.896528 L3.6466303,1.896528 L3.6466303,2.618276 L3.3159013,2.618276 L3.3159013,1.896528 L2.0877243,1.896528 L2.0877243,1.500342 L3.3296813,0.053401 L3.6466303,0.053401 L3.6466303,1.62092 L4.0273143,1.62092 L4.0273143,1.896528 Z M3.3159013,1.62092 L3.3159013,0.463367 L2.3219903,1.62092 L3.3159013,1.62092 Z" id="path1527" style="fill: rgb(209, 209, 211);"/>
        <path d="M6.2080613,1.334977 C6.2080613,1.79547167 6.1357143,2.13366533 5.9910203,2.349558 C5.8474743,2.56430267 5.62411697,2.671675 5.3209483,2.671675 C5.0131863,2.671675 4.78810663,2.56258033 4.6457093,2.344391 C4.50445997,2.126201 4.4338353,1.790878 4.4338353,1.338422 C4.4338353,0.882520667 4.5056083,0.546049333 4.6491543,0.329008 C4.7927003,0.110818667 5.01663163,0.001724 5.3209483,0.001724 C5.6287103,0.001724 5.85321597,0.112541333 5.9944653,0.334176 C6.13686263,0.554662667 6.2080613,0.888263 6.2080613,1.334977 L6.2080613,1.334977 Z M5.7550303,2.117014 C5.79522363,2.02399667 5.8222103,1.914902 5.8359903,1.78973 C5.85091697,1.66341 5.8583803,1.51182567 5.8583803,1.334977 C5.8583803,1.16042567 5.85091697,1.00884133 5.8359903,0.880224 C5.8222103,0.751607333 5.7946503,0.642512667 5.7533103,0.55294 C5.71311697,0.464516 5.6579953,0.397910667 5.5879453,0.353124 C5.5190433,0.308337333 5.43004497,0.285944 5.3209503,0.285944 C5.21300363,0.285944 5.12343097,0.308337333 5.0522323,0.353124 C4.9821823,0.397910667 4.92648663,0.465664333 4.8851453,0.556385 C4.84609863,0.641364333 4.81911197,0.752181667 4.8041853,0.888837 C4.7904053,1.02549233 4.7835153,1.175354 4.7835153,1.338422 C4.7835153,1.51756733 4.78983197,1.667429 4.8024653,1.788007 C4.81509863,1.90858567 4.8420853,2.01653233 4.8834253,2.111847 C4.92131863,2.201419 4.97471763,2.26974667 5.0436223,2.31683 C5.1136723,2.36391 5.20611563,2.38745 5.3209523,2.38745 C5.42889897,2.38745 5.51847163,2.36505667 5.5896703,2.32027 C5.66086897,2.27548333 5.7159903,2.20772967 5.7550343,2.117009 L5.7550303,2.117014 Z" id="path1529" style="fill: rgb(209, 209, 211);"/>
      </g>
      <g id="text1063-7" transform="matrix(1, 0, 0, 1, 2.108084, 24.986595)" fill="#000000" fill-rule="nonzero">
        <path d="M1.5003401,1.383209 C1.5554601,1.432589 1.60082043,1.49460067 1.6364211,1.569244 C1.6720211,1.64388733 1.6898211,1.74034967 1.6898211,1.858631 C1.6898211,1.97576433 1.66857443,2.08313633 1.6260811,2.180747 C1.58359443,2.27835767 1.52387977,2.36333633 1.4469371,2.435683 C1.36080977,2.51606833 1.2591796,2.57578333 1.1420466,2.614828 C1.026062,2.65272133 0.898593767,2.671668 0.7596419,2.671668 C0.6172449,2.671668 0.477144633,2.65444133 0.3393411,2.619988 C0.201537633,2.586688 0.0884239333,2.54994033 1.77635684e-15,2.509745 L1.77635684e-15,2.149741 L0.025838,2.149741 C0.123448867,2.21404767 0.238285133,2.26744667 0.3703468,2.309938 C0.502408533,2.35242467 0.6298768,2.373668 0.7527516,2.373668 C0.825098467,2.373668 0.902038767,2.36161133 0.9835725,2.337498 C1.06510623,2.31338467 1.13113707,2.27778567 1.181665,2.230701 C1.23448967,2.18017433 1.273534,2.12447867 1.298798,2.063614 C1.32521133,2.002754 1.338418,1.92581367 1.338418,1.832793 C1.338418,1.74092367 1.323488,1.66513167 1.293628,1.605417 C1.26491933,1.54455033 1.22472677,1.49689333 1.1730503,1.462446 C1.12137363,1.426846 1.05878787,1.40272933 0.985293,1.390096 C0.9117978,1.376316 0.8325608,1.369426 0.747582,1.369426 L0.5925591,1.369426 L0.5925591,1.083483 L0.7131372,1.083483 C0.887688333,1.083483 1.0266402,1.04730967 1.1299928,0.974963 C1.23449367,0.901467667 1.2867441,0.79467 1.2867441,0.65457 C1.2867441,0.592556667 1.2735381,0.538583667 1.2471261,0.492651 C1.2207141,0.445571 1.1839665,0.407100667 1.1368833,0.37724 C1.08750397,0.34738 1.0346793,0.32671 0.9784093,0.31523 C0.9221393,0.303743333 0.858405167,0.298 0.7872069,0.298 C0.678112433,0.298 0.5621278,0.317523333 0.439253,0.35657 C0.3163782,0.395616667 0.200393567,0.450738 0.0912991,0.521934 L0.0740741,0.521934 L0.0740741,0.161922 C0.155607833,0.121728667 0.2641281,0.0849813333 0.3996349,0.05168 C0.536290033,0.0172266667 0.668351733,0 0.79582,0 C0.920991533,0 1.03123433,0.0114833333 1.1265484,0.03445 C1.22186253,0.0574166667 1.30798967,0.0941643333 1.3849298,0.144693 C1.4676118,0.199813 1.5301978,0.266418 1.5726878,0.344508 C1.61517447,0.422596667 1.6364178,0.513891333 1.6364178,0.618392 C1.6364178,0.760789333 1.5858898,0.885387 1.4848338,0.992185 C1.3849258,1.09783433 1.26664437,1.16443933 1.1299895,1.192 L1.1299895,1.21612 C1.18511083,1.22530667 1.24827093,1.24483 1.3194698,1.27469 C1.3906678,1.30339667 1.4509568,1.33957 1.5003368,1.38321 L1.5003401,1.383209 Z" id="path1532" style="fill: rgb(209, 209, 211);"/>
        <path d="M3.9687451,2.618273 L2.2324211,2.618273 L2.2324211,2.258261 C2.3529991,2.15490833 2.4735771,2.05155567 2.5941551,1.948203 C2.71588177,1.84485033 2.82899543,1.742072 2.9334961,1.639868 C3.1539821,1.42627267 3.3049921,1.25688933 3.3865261,1.131718 C3.46805943,1.005398 3.5088261,0.869317 3.5088261,0.723475 C3.5088261,0.590265 3.4646141,0.486338 3.3761901,0.411694 C3.28891477,0.335902 3.1666141,0.298006 3.0092881,0.298006 C2.90478743,0.298006 2.79167377,0.316379333 2.6699471,0.353126 C2.5482211,0.389872667 2.42936577,0.446142333 2.3133811,0.521935 L2.2961511,0.521935 L2.2961511,0.160201 C2.3776851,0.120007667 2.48620543,0.08326 2.6217121,0.049958 C2.75836743,0.016658 2.8904291,8.00000001e-06 3.0178971,8.00000001e-06 C3.28087243,8.00000001e-06 3.48700343,0.0637423333 3.6362901,0.191211 C3.78557743,0.317530333 3.8602211,0.489210333 3.8602211,0.706251 C3.8602211,0.803861667 3.84758777,0.895156667 3.8223211,0.980136 C3.79820777,1.063966 3.76203443,1.143777 3.7138011,1.219569 C3.66901443,1.29076767 3.61618977,1.360818 3.5553271,1.42972 C3.49561377,1.49862133 3.42269277,1.57498733 3.3365641,1.658818 C3.21368943,1.779396 3.08679543,1.896529 2.9558821,2.010217 C2.8249681,2.12275633 2.70266743,2.22725733 2.5889801,2.32372 L3.9687451,2.32372 L3.9687451,2.618273 Z" id="path1534" style="fill: rgb(209, 209, 211);"/>
        <path d="M6.2080521,1.334978 C6.2080521,1.79547133 6.13570543,2.133664 5.9910121,2.349556 C5.84746677,2.5643 5.6241101,2.671672 5.3209421,2.671672 C5.01318077,2.671672 4.78810177,2.56257767 4.6457051,2.344389 C4.50445643,2.12619967 4.4338321,1.79087767 4.4338321,1.338423 C4.4338321,0.882523 4.50560477,0.546052667 4.6491501,0.329012 C4.79269543,0.110823333 5.0166261,0.001729 5.3209421,0.001729 C5.62870343,0.001729 5.85320843,0.112546 5.9944571,0.33418 C6.13685377,0.554665333 6.2080521,0.888264667 6.2080521,1.334978 L6.2080521,1.334978 Z M5.7550231,2.117013 C5.79521643,2.02399567 5.8222031,1.914901 5.8359831,1.789729 C5.85090977,1.66340967 5.8583731,1.511826 5.8583731,1.334978 C5.8583731,1.16042667 5.85090977,1.00884267 5.8359831,0.880226 C5.8222031,0.751609333 5.7946431,0.642515 5.7533031,0.552943 C5.71310977,0.464519 5.65798843,0.397914 5.5879391,0.353128 C5.5190371,0.308341333 5.43003877,0.285948 5.3209441,0.285948 C5.2129981,0.285948 5.12342577,0.308341333 5.0522271,0.353128 C4.9821771,0.397914667 4.92648177,0.465668 4.8851411,0.556388 C4.84609443,0.641366667 4.81910777,0.752183667 4.8041811,0.888839 C4.7904011,1.02549433 4.7835111,1.17535567 4.7835111,1.338423 C4.7835111,1.51756767 4.78982777,1.667429 4.8024611,1.788007 C4.81509443,1.908585 4.8420811,2.016531 4.8834211,2.111845 C4.92131443,2.20141767 4.97471343,2.26974533 5.0436181,2.316828 C5.1136681,2.363908 5.2061111,2.387448 5.3209471,2.387448 C5.4288931,2.387448 5.51846543,2.36505467 5.5896641,2.320268 C5.66086277,2.27548133 5.7159841,2.207728 5.7550281,2.117008 L5.7550231,2.117013 Z" id="path1536" style="fill: rgb(209, 209, 211);"/>
      </g>
      <g id="text1063-5" transform="matrix(1, 0, 0, 1, 2.097752, 74.879471)" fill="#000000" fill-rule="nonzero">
        <path d="M1.7363243,2.618264 L0,2.618264 L0,2.258253 C0.120578067,2.15490033 0.241156133,2.05154767 0.3617342,1.948195 C0.483460667,1.84484233 0.5965744,1.74206367 0.7010754,1.639859 C0.921561,1.42626367 1.07257067,1.25688033 1.1541044,1.131709 C1.23563813,1.005389 1.276405,0.869308 1.276405,0.723466 C1.276405,0.590256 1.23219307,0.486329 1.1437692,0.411685 C1.0564936,0.335893667 0.934192967,0.297998 0.7768673,0.297998 C0.6723663,0.297998 0.559252567,0.316371333 0.4375261,0.353118 C0.3157997,0.389864667 0.196944167,0.446134333 0.0809595,0.521927 L0.0637345,0.521927 L0.0637345,0.160193 C0.145268233,0.119999667 0.2537885,0.083252 0.3892953,0.04995 C0.525950433,0.01665 0.658012133,0 0.7854804,0 C1.04845547,0 1.25458657,0.0637343333 1.4038737,0.191203 C1.55316103,0.317523 1.6278047,0.489203 1.6278047,0.706243 C1.6278047,0.803854333 1.61517137,0.895149333 1.5899047,0.980128 C1.56579137,1.06395867 1.5296177,1.14377 1.4813837,1.219562 C1.43659703,1.29076 1.38377237,1.36081 1.3229097,1.429712 C1.26319503,1.498614 1.19027413,1.57498 1.104147,1.65881 C0.9812722,1.779388 0.854378133,1.896521 0.7234648,2.010209 C0.592551467,2.122749 0.470250867,2.22725 0.356563,2.323712 L1.7363243,2.323712 L1.7363243,2.618264 Z" id="path1539" style="fill: rgb(209, 209, 211);"/>
        <polygon id="path1541" points="3.9859673 0.437524 2.8249723 2.618264 2.4563483 2.618264 3.6914123 0.354841 2.2306943 0.354841 2.2306943 0.053396 3.9859673 0.053396" style="fill: rgb(209, 209, 211);"/>
        <path d="M6.2183833,1.334969 C6.2183833,1.79546233 6.14603663,2.133655 6.0013433,2.349547 C5.85779797,2.564291 5.6344413,2.671663 5.3312733,2.671663 C5.02351197,2.671663 4.79843297,2.56256867 4.6560363,2.34438 C4.51478763,2.12619067 4.4441633,1.79086867 4.4441633,1.338414 C4.4441633,0.882514 4.51593597,0.546043667 4.6594813,0.329003 C4.80302663,0.110814333 5.0269573,0.00172 5.3312733,0.00172 C5.63903463,0.00172 5.86353963,0.112537 6.0047883,0.334171 C6.14718497,0.554656333 6.2183833,0.888255667 6.2183833,1.334969 L6.2183833,1.334969 Z M5.7653543,2.117004 C5.80554763,2.02398667 5.8325343,1.91489233 5.8463143,1.789721 C5.86124097,1.663401 5.8687043,1.511817 5.8687043,1.334969 C5.8687043,1.16041767 5.86124097,1.00883367 5.8463143,0.880217 C5.8325343,0.751600333 5.8049743,0.642506 5.7636343,0.552934 C5.72344097,0.46451 5.66831963,0.397905 5.5982703,0.353119 C5.5293683,0.308332333 5.44036997,0.285939 5.3312753,0.285939 C5.2233293,0.285939 5.13375697,0.308332333 5.0625583,0.353119 C4.9925083,0.397905667 4.93681297,0.465659 4.8954723,0.556379 C4.85642563,0.641357667 4.82943897,0.752174667 4.8145123,0.88883 C4.8007323,1.02548533 4.7938423,1.17534667 4.7938423,1.338414 C4.7938423,1.51755867 4.80015897,1.66742 4.8127923,1.787998 C4.82542563,1.908576 4.8524123,2.016522 4.8937523,2.111836 C4.93164563,2.20140867 4.98504463,2.26973633 5.0539493,2.316819 C5.1239993,2.363899 5.2164423,2.387439 5.3312783,2.387439 C5.4392243,2.387439 5.52879663,2.36504567 5.5999953,2.320259 C5.67119397,2.27547233 5.7263153,2.207719 5.7653593,2.116999 L5.7653543,2.117004 Z" id="path1543" style="fill: rgb(209, 209, 211);"/>
      </g>
      <g id="text1063-5-0" transform="matrix(1, 0, 0, 1, 2, 124.978638)" fill="#000000" fill-rule="nonzero">
        <path d="M1.7363244,2.61833 L1.77635684e-15,2.61833 L1.77635684e-15,2.25832 C0.120578067,2.15496667 0.241156133,2.05161333 0.3617342,1.94826 C0.483460667,1.84490667 0.5965744,1.74213 0.7010754,1.63993 C0.921561,1.42633 1.07257067,1.25694667 1.1541044,1.13178 C1.23563813,1.00546 1.276405,0.869376667 1.276405,0.72353 C1.276405,0.590323333 1.23219307,0.486396667 1.1437692,0.41175 C1.0564936,0.335963333 0.934192967,0.29807 0.7768673,0.29807 C0.6723663,0.29807 0.559252567,0.316436667 0.4375261,0.35317 C0.3157997,0.389903333 0.196944167,0.446173333 0.0809595,0.52198 L0.0637345,0.52198 L0.0637345,0.16024 C0.145268233,0.12004 0.2537885,0.0832933333 0.3892953,0.05 C0.525950433,0.0166666667 0.658012133,0 0.7854804,0 C1.04845547,0 1.2545866,0.0637366667 1.4038738,0.19121 C1.55316113,0.31753 1.6278048,0.48921 1.6278048,0.70625 C1.6278048,0.803856667 1.61517147,0.89515 1.5899048,0.98013 C1.56579147,1.06396333 1.5296178,1.14377667 1.4813838,1.21957 C1.43659713,1.29076333 1.38377257,1.36081333 1.3229101,1.42972 C1.26319543,1.49862 1.1902744,1.57498333 1.104147,1.65881 C0.9812722,1.77939 0.854378133,1.89652333 0.7234648,2.01021 C0.592551467,2.12275 0.470250867,2.22725333 0.356563,2.32372 L1.7363244,2.32372 L1.7363244,2.61833 Z" id="path1546" style="fill: rgb(209, 209, 211);"/>
        <path d="M3.9790764,2.61833 L2.2427524,2.61833 L2.2427524,2.25832 C2.3633304,2.15496667 2.4839084,2.05161333 2.6044864,1.94826 C2.72621307,1.84490667 2.83932673,1.74213 2.9438274,1.63993 C3.1643134,1.42633 3.31532307,1.25694667 3.3968564,1.13178 C3.4783904,1.00546 3.5191574,0.869376667 3.5191574,0.72353 C3.5191574,0.590323333 3.4749454,0.486396667 3.3865214,0.41175 C3.29924607,0.335963333 3.1769454,0.29807 3.0196194,0.29807 C2.91511873,0.29807 2.80200507,0.316436667 2.6802784,0.35317 C2.5585524,0.389903333 2.43969707,0.446173333 2.3237124,0.52198 L2.3064824,0.52198 L2.3064824,0.16024 C2.3880164,0.12004 2.49653673,0.0832933333 2.6320434,0.05 C2.76869873,0.0166666667 2.9007604,0 3.0282284,0 C3.29120373,0 3.49733473,0.0637366667 3.6466214,0.19121 C3.79590873,0.31753 3.8705524,0.48921 3.8705524,0.70625 C3.8705524,0.803856667 3.85791907,0.89515 3.8326524,0.98013 C3.80853907,1.06396333 3.77236573,1.14377667 3.7241324,1.21957 C3.67934573,1.29076333 3.62652107,1.36081333 3.5656584,1.42972 C3.50594507,1.49862 3.43302407,1.57498333 3.3468954,1.65881 C3.22402007,1.77939 3.09712573,1.89652333 2.9662124,2.01021 C2.83529907,2.12275 2.71299873,2.22725333 2.5993114,2.32372 L3.9790764,2.32372 L3.9790764,2.61833 Z" id="path1548" style="fill: rgb(209, 209, 211);"/>
        <path d="M6.2183834,1.33504 C6.2183834,1.79553333 6.14603673,2.13372333 6.0013434,2.34961 C5.85779807,2.56435667 5.6344414,2.67173 5.3312734,2.67173 C5.02351207,2.67173 4.79843307,2.56263667 4.6560364,2.34445 C4.51478773,2.12625667 4.4441634,1.79093333 4.4441634,1.33848 C4.4441634,0.88258 4.51593607,0.54611 4.6594814,0.32907 C4.80302673,0.110883333 5.0269574,0.00179 5.3312734,0.00179 C5.63903473,0.00179 5.86353973,0.112606667 6.0047884,0.33424 C6.14718507,0.554726667 6.2183834,0.888326667 6.2183834,1.33504 L6.2183834,1.33504 Z M5.7653544,2.11707 C5.80554773,2.02405667 5.8325344,1.91496333 5.8463144,1.78979 C5.86124107,1.66347 5.8687044,1.51188667 5.8687044,1.33504 C5.8687044,1.16048667 5.86124107,1.0089 5.8463144,0.88028 C5.8325344,0.751666667 5.8049744,0.642573333 5.7636344,0.553 C5.72344107,0.46458 5.6683194,0.397976667 5.5982694,0.35319 C5.52936807,0.30839 5.44037007,0.28599 5.3312754,0.28599 C5.2233294,0.28599 5.13375707,0.30839 5.0625584,0.35319 C4.9925084,0.39799 4.93681307,0.465743333 4.8954724,0.55645 C4.85642573,0.641423333 4.82943907,0.75224 4.8145124,0.8889 C4.8007324,1.02555333 4.7938424,1.17541333 4.7938424,1.33848 C4.7938424,1.51762667 4.80015907,1.66749 4.8127924,1.78807 C4.82542573,1.90864333 4.8524124,2.01658667 4.8937524,2.1119 C4.93164573,2.20147333 4.98504473,2.26980333 5.0539494,2.31689 C5.1239994,2.36395667 5.2164424,2.38749 5.3312784,2.38749 C5.4392244,2.38749 5.52879673,2.36509 5.5999954,2.32029 C5.67119407,2.27549 5.7263154,2.20773667 5.7653594,2.11703 L5.7653544,2.11707 Z" id="path1550" style="fill: rgb(209, 209, 211);"/>
      </g>
      <g id="text1063-5-0-5" transform="matrix(1, 0, 0, 1, 2.234944, 174.893005)" fill="#000000" fill-rule="nonzero">
        <path d="M1.3883708,2.61654 L0,2.61654 L0,2.35472 L0.5339886,2.35472 L0.5339886,0.63562 L0,0.63562 L0,0.40135 C0.0723468,0.40135 0.149861267,0.395616667 0.2325434,0.38415 C0.315225533,0.37155 0.3778113,0.35375 0.4203007,0.33075 C0.473125367,0.302016667 0.514466433,0.265843333 0.5443239,0.22223 C0.5753299,0.17743 0.593129567,0.117713333 0.5977229,0.04308 L0.8647172,0.04308 L0.8647172,2.35474 L1.3883708,2.35474 L1.3883708,2.61654 Z" id="path1553" style="fill: rgb(209, 209, 211);"/>
        <polygon id="path1555" points="3.7844296 0.4358 2.6234346 2.61654 2.2548106 2.61654 3.4898746 0.35312 2.0291566 0.35312 2.0291566 0.05168 3.7844296 0.05168" style="fill: rgb(209, 209, 211);"/>
        <path d="M6.0168456,1.33325 C6.0168456,1.79374333 5.94449893,2.13193667 5.7998056,2.34783 C5.65626027,2.56257 5.4329036,2.66994 5.1297356,2.66994 C4.82197493,2.66994 4.59689593,2.56084667 4.4544986,2.34266 C4.31324993,2.12447333 4.2426256,1.78915 4.2426256,1.33669 C4.2426256,0.88079 4.31439827,0.54432 4.4579436,0.32728 C4.60148893,0.109093333 4.8254196,0 5.1297356,0 C5.43749693,0 5.66200193,0.110816667 5.8032506,0.33245 C5.94564727,0.552936667 6.0168456,0.886536667 6.0168456,1.33325 L6.0168456,1.33325 Z M5.5638166,2.11528 C5.60400993,2.02226667 5.6309966,1.91317333 5.6447766,1.788 C5.65970327,1.66168 5.6671666,1.51009667 5.6671666,1.33325 C5.6671666,1.15869667 5.65970327,1.00711333 5.6447766,0.8785 C5.6309966,0.74988 5.6034366,0.640783333 5.5620966,0.55121 C5.52190327,0.46279 5.46678193,0.396186667 5.3967326,0.3514 C5.3278306,0.3066 5.23883227,0.2842 5.1297376,0.2842 C5.0217916,0.2842 4.93221927,0.3066 4.8610206,0.3514 C4.7909706,0.3962 4.73527527,0.463953333 4.6939346,0.55466 C4.65488793,0.63964 4.62790127,0.750456667 4.6129746,0.88711 C4.5991946,1.02376333 4.5923046,1.17362333 4.5923046,1.33669 C4.5923046,1.51583667 4.59862127,1.6657 4.6112546,1.78628 C4.62388793,1.90686 4.6508746,2.01480667 4.6922146,2.11012 C4.73010793,2.19968667 4.78350693,2.26801333 4.8524116,2.3151 C4.9224616,2.36216667 5.0149046,2.3857 5.1297406,2.3857 C5.2376866,2.3857 5.32725893,2.3633 5.3984576,2.3185 C5.46965627,2.2737 5.5247776,2.20594667 5.5638216,2.11524 L5.5638166,2.11528 Z" id="path1557" style="fill: rgb(209, 209, 211);"/>
      </g>
      <g id="text1063-5-0-1" transform="matrix(1, 0, 0, 1, 2.268353, 224.904022)" fill="#000000" fill-rule="nonzero">
        <path d="M1.3883707,2.61834 L1.77635684e-15,2.61834 L1.77635684e-15,2.35651 L0.5339886,2.35651 L0.5339886,0.63742 L1.77635684e-15,0.63742 L1.77635684e-15,0.40315 C0.0723468667,0.40315 0.149861333,0.397416667 0.2325434,0.38595 C0.315225533,0.37335 0.3778113,0.35555 0.4203007,0.33255 C0.473125367,0.303816667 0.514466433,0.267643333 0.5443239,0.22403 C0.5753299,0.17923 0.593129567,0.119513333 0.5977229,0.04488 L0.8647173,0.04488 L0.8647173,2.35653 L1.3883707,2.35653 L1.3883707,2.61834 Z" id="path1560" style="fill: rgb(209, 209, 211);"/>
        <path d="M3.7775395,2.61834 L2.0412145,2.61834 L2.0412145,2.25833 C2.1617925,2.15497667 2.28237083,2.05162333 2.4029495,1.94827 C2.5246755,1.84491667 2.63778917,1.74214 2.7422905,1.63994 C2.96277583,1.42634 3.1137855,1.25695667 3.1953195,1.13179 C3.27685283,1.00547 3.3176195,0.869386667 3.3176195,0.72354 C3.3176195,0.590333333 3.2734075,0.486406667 3.1849835,0.41176 C3.09770817,0.335966667 2.97540783,0.29807 2.8180825,0.29807 C2.71358117,0.29807 2.60046717,0.316436667 2.4787405,0.35317 C2.3570145,0.389903333 2.23815917,0.446173333 2.1221745,0.52198 L2.1049445,0.52198 L2.1049445,0.16024 C2.1864785,0.12004 2.29499883,0.0832933333 2.4305055,0.05 C2.56716083,0.0166666667 2.6992225,0 2.8266905,0 C3.08966583,0 3.29579717,0.0637366667 3.4450845,0.19121 C3.59437117,0.31753 3.6690145,0.48921 3.6690145,0.70625 C3.6690145,0.803856667 3.65638117,0.89515 3.6311145,0.98013 C3.60700117,1.06396333 3.57082783,1.14377667 3.5225945,1.21957 C3.47780783,1.29076333 3.42498317,1.36081333 3.3641205,1.42972 C3.30440717,1.49862 3.23148617,1.57498333 3.1453575,1.65881 C3.02248283,1.77939 2.89558883,1.89652333 2.7646755,2.01021 C2.63376217,2.12275 2.5114615,2.22725333 2.3977735,2.32372 L3.7775395,2.32372 L3.7775395,2.61834 Z" id="path1562" style="fill: rgb(209, 209, 211);"/>
        <path d="M6.0168465,1.33505 C6.0168465,1.79554333 5.9444995,2.13373333 5.7998055,2.34962 C5.65626017,2.56436667 5.4329035,2.67174 5.1297355,2.67174 C4.82197483,2.67174 4.59689583,2.56264667 4.4544985,2.34446 C4.31324983,2.12626667 4.2426255,1.79094333 4.2426255,1.33849 C4.2426255,0.88259 4.31439817,0.54612 4.4579435,0.32908 C4.60148883,0.110893333 4.8254195,0.0018 5.1297355,0.0018 C5.43749683,0.0018 5.66200183,0.112616667 5.8032505,0.33425 C5.94564783,0.554736667 6.0168465,0.888336667 6.0168465,1.33505 Z M5.5638175,2.11708 C5.60401083,2.02406667 5.6309975,1.91497333 5.6447775,1.7898 C5.65970417,1.66348 5.6671675,1.51189667 5.6671675,1.33505 C5.6671675,1.16049667 5.65970417,1.00891 5.6447775,0.88029 C5.6309975,0.751676667 5.6034375,0.642583333 5.5620975,0.55301 C5.52190417,0.46459 5.46678283,0.397986667 5.3967335,0.3532 C5.3278315,0.3084 5.23883317,0.286 5.1297385,0.286 C5.0217925,0.286 4.9322205,0.3084 4.8610225,0.3532 C4.79097183,0.398 4.73527617,0.465753333 4.6939355,0.55646 C4.65488883,0.641433333 4.62790217,0.75225 4.6129755,0.88891 C4.5991955,1.02556333 4.5923055,1.17542333 4.5923055,1.33849 C4.5923055,1.51763667 4.59862217,1.6675 4.6112555,1.78808 C4.62388883,1.90865333 4.6508755,2.01659667 4.6922155,2.11191 C4.73010883,2.20148333 4.78350783,2.26981333 4.8524125,2.3169 C4.9224625,2.36396667 5.0149055,2.3875 5.1297415,2.3875 C5.23768817,2.3875 5.3272605,2.3651 5.3984585,2.3203 C5.46965717,2.2755 5.52477883,2.20774667 5.5638235,2.11704 L5.5638175,2.11708 Z" id="path1564" style="fill: rgb(209, 209, 211);"/>
      </g>
      <g id="text1063-5-0-1-8" transform="matrix(1, 0, 0, 1, 2.02135, 274.885193)" fill="#000000" fill-rule="nonzero">
        <polygon id="path1567" points="1.7552726 0.4358 0.5942777 2.61654 0.2256533 2.61654 1.4607176 0.35312 0 0.35312 0 0.05167 1.7552726 0.05167" style="fill: rgb(209, 209, 211);"/>
        <path d="M3.9876896,1.33325 C3.9876896,1.79374333 3.9153426,2.13193333 3.7706486,2.34782 C3.62710327,2.56256667 3.40374693,2.66994 3.1005796,2.66994 C2.79281827,2.66994 2.56773893,2.56084667 2.4253416,2.34266 C2.2840936,2.12446667 2.2134696,1.78914333 2.2134696,1.33669 C2.2134696,0.88079 2.28524227,0.54432 2.4287876,0.32728 C2.57233293,0.109093333 2.7962636,5.68434189e-14 3.1005796,5.68434189e-14 C3.40834093,5.68434189e-14 3.6328456,0.110816667 3.7740936,0.33245 C3.91649093,0.552936667 3.9876896,0.886536667 3.9876896,1.33325 L3.9876896,1.33325 Z M3.5346606,2.11528 C3.57485393,2.02226667 3.6018406,1.91317333 3.6156206,1.788 C3.63054727,1.66168 3.6380106,1.51009667 3.6380106,1.33325 C3.6380106,1.15869667 3.63054727,1.00711 3.6156206,0.87849 C3.6018406,0.749876667 3.5742806,0.640783333 3.5329406,0.55121 C3.49274727,0.46279 3.43762593,0.396186667 3.3675766,0.3514 C3.2986746,0.3066 3.2096766,0.2842 3.1005826,0.2842 C2.9926366,0.2842 2.90306427,0.3066 2.8318656,0.3514 C2.7618156,0.3962 2.70611993,0.463953333 2.6647786,0.55466 C2.62573193,0.639633333 2.59874527,0.75045 2.5838186,0.88711 C2.5700386,1.02376333 2.5631486,1.17362333 2.5631486,1.33669 C2.5631486,1.51583667 2.56946527,1.6657 2.5820986,1.78628 C2.59473193,1.90685333 2.6217186,2.01479667 2.6630586,2.11011 C2.70095193,2.19968333 2.7543506,2.26801333 2.8232546,2.3151 C2.8933046,2.36216667 2.98574793,2.3857 3.1005846,2.3857 C3.2085306,2.3857 3.29810293,2.3633 3.3693016,2.3185 C3.4404996,2.2737 3.49562093,2.20594667 3.5346656,2.11524 L3.5346606,2.11528 Z" id="path1569" style="fill: rgb(209, 209, 211);"/>
      </g>
      <g id="text1063-5-0-1-1" transform="matrix(1, 0, 0, 1, 2.033408, 324.862854)" fill="#000000" fill-rule="nonzero">
        <path d="M1.7363248,2.61833 L0,2.61833 L0,2.25832 C0.120578067,2.15496667 0.241156133,2.05161333 0.3617342,1.94826 C0.483460667,1.84490667 0.5965744,1.74213 0.7010754,1.63993 C0.921561,1.42633 1.0725707,1.25694667 1.1541045,1.13178 C1.23563823,1.00546 1.2764051,0.869376667 1.2764051,0.72353 C1.2764051,0.590323333 1.23219313,0.486396667 1.1437692,0.41175 C1.05649367,0.335963333 0.934193033,0.29807 0.7768673,0.29807 C0.6723663,0.29807 0.5592526,0.316436667 0.4375262,0.35317 C0.315799733,0.389903333 0.1969442,0.446173333 0.0809596,0.52198 L0.0637336,0.52198 L0.0637336,0.16024 C0.1452674,0.12004 0.253787667,0.0832933333 0.3892944,0.05 C0.5259496,0.0166666667 0.658011333,0 0.7854796,0 C1.0484546,0 1.25458583,0.0637333333 1.4038733,0.1912 C1.55315997,0.31752 1.6278033,0.4892 1.6278033,0.70624 C1.6278033,0.803853333 1.61516997,0.895146667 1.5899033,0.98012 C1.56578997,1.06395333 1.52961663,1.14376667 1.4813833,1.21956 C1.43659663,1.29075333 1.38377197,1.36080333 1.3229093,1.42971 C1.26319463,1.49861 1.1902736,1.57497667 1.1041462,1.65881 C0.9812714,1.77938333 0.854377333,1.89651333 0.723464,2.0102 C0.592550667,2.12274 0.470250033,2.22724333 0.3565621,2.32371 L1.7363248,2.32371 L1.7363248,2.61833 Z" id="path1572" style="fill: rgb(209, 209, 211);"/>
        <path d="M3.9756318,1.33504 C3.9756318,1.79553333 3.9032848,2.13372667 3.7585908,2.34962 C3.61504547,2.56436 3.39168913,2.67173 3.0885218,2.67173 C2.78076047,2.67173 2.55568113,2.56263667 2.4132838,2.34445 C2.2720358,2.12626333 2.2014118,1.79094 2.2014118,1.33848 C2.2014118,0.88258 2.27318447,0.54611 2.4167298,0.32907 C2.56027513,0.110883333 2.7842058,0.00179 3.0885218,0.00179 C3.39628313,0.00179 3.6207878,0.112606667 3.7620358,0.33424 C3.90443313,0.554726667 3.9756318,0.888326667 3.9756318,1.33504 L3.9756318,1.33504 Z M3.5226028,2.11707 C3.56279613,2.02405667 3.5897828,1.91496333 3.6035628,1.78979 C3.61848947,1.66347 3.6259528,1.51188667 3.6259528,1.33504 C3.6259528,1.16048667 3.61848947,1.00890333 3.6035628,0.88029 C3.5897828,0.75167 3.5622228,0.642573333 3.5208828,0.553 C3.48068947,0.46458 3.42556813,0.397976667 3.3555188,0.35319 C3.2866168,0.30839 3.1976188,0.28599 3.0885248,0.28599 C2.9805788,0.28599 2.89100647,0.30839 2.8198078,0.35319 C2.7497578,0.39799 2.69406213,0.465743333 2.6527208,0.55645 C2.61367413,0.64143 2.58668747,0.752246667 2.5717608,0.8889 C2.5579808,1.02555333 2.5510908,1.17541333 2.5510908,1.33848 C2.5510908,1.51762667 2.55740747,1.66749 2.5700408,1.78807 C2.58267413,1.90864333 2.6096608,2.01658667 2.6510008,2.1119 C2.68889413,2.20147333 2.7422928,2.26980333 2.8111968,2.31689 C2.8812468,2.36395667 2.97369013,2.38749 3.0885268,2.38749 C3.1964728,2.38749 3.28604513,2.36509 3.3572438,2.32029 C3.4284418,2.27549 3.48356313,2.20773667 3.5226078,2.11703 L3.5226028,2.11707 Z" id="path1574" style="fill: rgb(209, 209, 211);"/>
      </g>
      <g id="text1063-5-0-1-0" transform="matrix(1, 0, 0, 1, 3, 344.0242)" fill="#000000" fill-rule="nonzero">
        <path d="M1.388372,2.61654 L3.55271368e-15,2.61654 L3.55271368e-15,2.35472 L0.533989,2.35472 L0.533989,0.63562 L3.55271368e-15,0.63562 L3.55271368e-15,0.40135 C0.0723466667,0.40135 0.149861333,0.395616667 0.232544,0.38415 C0.315226,0.371483333 0.377811667,0.353683333 0.420301,0.33075 C0.473127667,0.302016667 0.514468667,0.265843333 0.544324,0.22223 C0.575330667,0.17743 0.593130667,0.117713333 0.597724,0.04308 L0.864718,0.04308 L0.864718,2.35474 L1.388372,2.35474 L1.388372,2.61654 Z" id="path1588" style="fill: rgb(209, 209, 211);"/>
        <path d="M3.774094,1.33325 C3.774094,1.79374333 3.70174733,2.13193667 3.557054,2.34783 C3.41350867,2.56257 3.190152,2.66994 2.886984,2.66994 C2.57922267,2.66994 2.35414367,2.56084667 2.211747,2.34266 C2.07049833,2.12446667 1.999874,1.78914333 1.999874,1.33669 C1.999874,0.88079 2.07164667,0.54432 2.215192,0.32728 C2.35873733,0.109093333 2.582668,0 2.886984,0 C3.19474533,0 3.41925033,0.110816667 3.560499,0.33245 C3.70289567,0.552936667 3.774094,0.886536667 3.774094,1.33325 L3.774094,1.33325 Z M3.321065,2.11528 C3.36125833,2.02226667 3.388245,1.91317333 3.402025,1.788 C3.41695167,1.66168 3.424415,1.51009667 3.424415,1.33325 C3.424415,1.15869667 3.41695167,1.00711333 3.402025,0.8785 C3.388245,0.74988 3.360685,0.640783333 3.319345,0.55121 C3.27915167,0.46279 3.22403,0.396186667 3.15398,0.3514 C3.08507867,0.3066 2.99608067,0.2842 2.886986,0.2842 C2.77904,0.2842 2.68946767,0.3066 2.618269,0.3514 C2.548219,0.3962 2.49252333,0.463953333 2.451182,0.55466 C2.41213533,0.63964 2.38514867,0.750456667 2.370222,0.88711 C2.356442,1.02376333 2.349552,1.17362333 2.349552,1.33669 C2.349552,1.51583667 2.35586867,1.6657 2.368502,1.78628 C2.38113533,1.90685333 2.408122,2.01479667 2.449462,2.11011 C2.48735533,2.19968333 2.540754,2.26801333 2.609658,2.3151 C2.67970867,2.36216667 2.772152,2.3857 2.886988,2.3857 C2.994934,2.3857 3.08450633,2.3633 3.155705,2.3185 C3.22690367,2.2737 3.282025,2.20594667 3.321069,2.11524 L3.321065,2.11528 Z" id="path1590" style="fill: rgb(209, 209, 211);"/>
      </g>
      <g id="text1063-5-0-1-3" transform="matrix(1, 0, 0, 1, 52.843403, 344.025421)" fill="#000000" fill-rule="nonzero">
        <path d="M1.815565,1.78455 C1.815565,2.04523 1.72943767,2.25825333 1.557183,2.42362 C1.386077,2.58783333 1.17592667,2.66994 0.926732,2.66994 C0.800412,2.66994 0.685575667,2.65040667 0.582223,2.61134 C0.478870333,2.57227333 0.387575667,2.51428 0.308339,2.43736 C0.209579667,2.34204667 0.133213333,2.21572667 0.07924,2.0584 C0.0264133333,1.90107333 0,1.71159333 0,1.48996 C0,1.26258667 0.0241166667,1.06105 0.07235,0.88535 C0.12173,0.70965 0.199818667,0.55347 0.306616,0.41681 C0.407672,0.28705 0.538011333,0.185996667 0.697634,0.11365 C0.857256,0.04015 1.04329067,0.0034 1.255738,0.0034 C1.32349133,0.0034 1.38033533,0.0064 1.42627,0.0124 C1.47220333,0.0184 1.518712,0.0287333333 1.565796,0.0434 L1.565796,0.37241 L1.54857,0.37241 C1.51641667,0.35521 1.46761133,0.339143333 1.402154,0.32421 C1.33784733,0.308143333 1.27181667,0.30011 1.204062,0.30011 C0.957164,0.30011 0.760219667,0.377623333 0.613229,0.53265 C0.466238333,0.686536667 0.380685333,0.894966667 0.35657,1.15794 C0.453032667,1.09934 0.547772667,1.05512667 0.64079,1.0253 C0.734955333,0.9943 0.843475667,0.9788 0.966351,0.9788 C1.075445,0.9788 1.171333,0.989133333 1.254015,1.0098 C1.33784567,1.02933333 1.42339867,1.06952667 1.510674,1.13038 C1.61173,1.20042667 1.687522,1.28885 1.73805,1.39565 C1.78972333,1.50245 1.815565,1.63221333 1.815565,1.78494 L1.815565,1.78455 Z M1.465888,1.79835 C1.465888,1.69155667 1.44981133,1.60313333 1.417658,1.53308 C1.38665133,1.46303333 1.334975,1.40217 1.262629,1.35049 C1.20980233,1.31375667 1.151236,1.28965667 1.08693,1.27819 C1.02262333,1.26672333 0.955444,1.26099 0.885392,1.26099 C0.787781333,1.26099 0.697060667,1.27245667 0.61323,1.29539 C0.529399333,1.31839 0.443272,1.35399 0.354848,1.40219 C0.352581333,1.42745667 0.350848,1.45215667 0.349648,1.47629 C0.348514667,1.49922333 0.347948,1.52852333 0.347948,1.56419 C0.347948,1.74563 0.366321333,1.88917333 0.403068,1.99482 C0.440961333,2.09932667 0.492637667,2.18201 0.558097,2.24287 C0.610923667,2.29340333 0.667767333,2.33072667 0.728628,2.35484 C0.790641333,2.37784 0.857820667,2.38934 0.930166,2.38934 C1.09667867,2.38934 1.227592,2.33881 1.322906,2.23775 C1.41822,2.13555 1.465888,1.98913333 1.465888,1.7985 L1.465888,1.79835 Z" id="path1593" style="fill: rgb(209, 209, 211);"/>
        <path d="M4.016976,1.33325 C4.016976,1.79374333 3.94462933,2.13193667 3.799936,2.34783 C3.65639067,2.56257 3.433034,2.66994 3.129866,2.66994 C2.82210467,2.66994 2.59702567,2.56084667 2.454629,2.34266 C2.31338033,2.12446667 2.242756,1.78914333 2.242756,1.33669 C2.242756,0.88079 2.31452867,0.54432 2.458074,0.32728 C2.60161933,0.109093333 2.82555,0 3.129866,0 C3.43762733,0 3.66213233,0.110816667 3.803381,0.33245 C3.94577767,0.552936667 4.016976,0.886536667 4.016976,1.33325 L4.016976,1.33325 Z M3.563947,2.11528 C3.60414033,2.02226667 3.631127,1.91317333 3.644907,1.788 C3.65983367,1.66168 3.667297,1.51009667 3.667297,1.33325 C3.667297,1.15869667 3.65983367,1.00711333 3.644907,0.8785 C3.631127,0.74988 3.603567,0.640783333 3.562227,0.55121 C3.52203367,0.46279 3.466912,0.396186667 3.396862,0.3514 C3.32796067,0.3066 3.23896267,0.2842 3.129868,0.2842 C3.021922,0.2842 2.93234967,0.3066 2.861151,0.3514 C2.791101,0.3962 2.73540533,0.463953333 2.694064,0.55466 C2.65501733,0.63964 2.62803067,0.750456667 2.613104,0.88711 C2.599324,1.02376333 2.592434,1.17362333 2.592434,1.33669 C2.592434,1.51583667 2.59875067,1.6657 2.611384,1.78628 C2.62401733,1.90685333 2.651004,2.01479667 2.692344,2.11011 C2.73023733,2.19968333 2.783636,2.26801333 2.85254,2.3151 C2.92259067,2.36216667 3.015034,2.3857 3.12987,2.3857 C3.237816,2.3857 3.32738833,2.3633 3.398587,2.3185 C3.46978567,2.2737 3.524907,2.20594667 3.563951,2.11524 L3.563947,2.11528 Z" id="path1595" style="fill: rgb(209, 209, 211);"/>
      </g>
      <g id="text1063-5-0-1-08" transform="matrix(1, 0, 0, 1, 101.679832, 344.025452)" fill="#000000" fill-rule="nonzero">
        <path d="M1.38837,2.61654 L0,2.61654 L0,2.35472 L0.53398,2.35472 L0.53398,0.63562 L0,0.63562 L0,0.40135 C0.0723466667,0.40135 0.14986,0.395616667 0.23254,0.38415 C0.31522,0.371483333 0.377806667,0.353683333 0.4203,0.33075 C0.4731,0.302016667 0.51444,0.265843333 0.54432,0.22223 C0.57532,0.17743 0.59312,0.117713333 0.59772,0.04308 L0.86471,0.04308 L0.86471,2.35474 L1.38837,2.35474 L1.38837,2.61654 Z" id="path1598" style="fill: rgb(209, 209, 211);"/>
        <path d="M3.63112,2.61654 L2.24275,2.61654 L2.24275,2.35472 L2.77674,2.35472 L2.77674,0.63562 L2.24275,0.63562 L2.24275,0.40135 C2.31509667,0.40135 2.39261,0.395616667 2.47529,0.38415 C2.55797667,0.371483333 2.62056333,0.353683333 2.66305,0.33075 C2.71585,0.302016667 2.75719,0.265843333 2.78707,0.22223 C2.81807,0.17743 2.83587,0.117713333 2.84047,0.04308 L3.10747,0.04308 L3.10747,2.35474 L3.63112,2.35474 L3.63112,2.61654 Z" id="path1600" style="fill: rgb(209, 209, 211);"/>
        <path d="M6.01684,1.33325 C6.01684,1.79374333 5.94449333,2.13193667 5.7998,2.34783 C5.65625333,2.56257 5.43289667,2.66994 5.12973,2.66994 C4.82197,2.66994 4.59689,2.56084667 4.45449,2.34266 C4.31324333,2.12447333 4.24262,1.78915 4.24262,1.33669 C4.24262,0.88079 4.31439333,0.54432 4.45794,0.32728 C4.60148667,0.109093333 4.82541667,5.68434189e-14 5.12973,5.68434189e-14 C5.43749,5.68434189e-14 5.66199667,0.110816667 5.80325,0.33245 C5.94564333,0.552936667 6.01684,0.886536667 6.01684,1.33325 L6.01684,1.33325 Z M5.56381,2.11528 C5.60401,2.02226667 5.63101,1.91317333 5.64481,1.788 C5.65974333,1.66168 5.66721,1.51009667 5.66721,1.33325 C5.66721,1.15869667 5.65974333,1.00711333 5.64481,0.8785 C5.63101,0.74988 5.60344333,0.640783333 5.56211,0.55121 C5.52191,0.46279 5.46679,0.396186667 5.39675,0.3514 C5.32784333,0.3066 5.23884333,0.2842 5.12975,0.2842 C5.02180333,0.2842 4.93223333,0.3066 4.86104,0.3514 C4.79098667,0.3962 4.73529,0.463953333 4.69395,0.55466 C4.65488333,0.63964 4.62788333,0.750456667 4.61295,0.88711 C4.59915,1.02376333 4.59225,1.17362333 4.59225,1.33669 C4.59225,1.51583667 4.59855,1.6657 4.61115,1.78628 C4.62375,1.90685333 4.65075,2.0148 4.69215,2.11012 C4.73001667,2.19968667 4.78341333,2.26801333 4.85234,2.3151 C4.92239333,2.36216667 5.01483667,2.3857 5.12967,2.3857 C5.23761667,2.3857 5.32719,2.3633 5.39839,2.3185 C5.46959,2.2737 5.52471,2.20594667 5.56375,2.11524 L5.56381,2.11528 Z" id="path1602" style="fill: rgb(209, 209, 211);"/>
      </g>
      <g id="text1063-5-0-1-4" transform="matrix(1, 0, 0, 1, 151.738068, 344.025421)" fill="#000000" fill-rule="nonzero">
        <path d="M1.38837,2.61654 L0,2.61654 L0,2.35472 L0.53399,2.35472 L0.53399,0.63562 L0,0.63562 L0,0.40135 C0.0723466667,0.40135 0.14986,0.395616667 0.23254,0.38415 C0.315226667,0.371483333 0.377813333,0.353683333 0.4203,0.33075 C0.4731,0.302016667 0.51444,0.265843333 0.54432,0.22223 C0.57532,0.17743 0.59312,0.117713333 0.59772,0.04308 L0.86472,0.04308 L0.86472,2.35474 L1.38837,2.35474 L1.38837,2.61654 Z" id="path1605" style="fill: rgb(209, 209, 211);"/>
        <path d="M3.81543,1.78455 C3.81543,2.04523 3.72930333,2.25825333 3.55705,2.42362 C3.38594333,2.58783333 3.17579333,2.66994 2.9266,2.66994 C2.80028,2.66994 2.68544333,2.65040667 2.58209,2.61134 C2.47873667,2.57227333 2.38744333,2.51428 2.30821,2.43736 C2.20945,2.34204667 2.13308333,2.21572667 2.07911,2.0584 C2.02631,1.90107333 1.99991,1.71159333 1.99991,1.48996 C1.99991,1.26258667 2.02404333,1.06105 2.07231,0.88535 C2.12171,0.70965 2.1998,0.55347 2.30658,0.41681 C2.40763333,0.28705 2.53797,0.185996667 2.69759,0.11365 C2.85721667,0.04015 3.04325333,0.0034 3.2557,0.0034 C3.32345333,0.0034 3.38029667,0.0064 3.42623,0.0124 C3.47216333,0.0184 3.51867333,0.0287333333 3.56576,0.0434 L3.56576,0.37241 L3.54856,0.37241 C3.51642667,0.35521 3.46762,0.339143333 3.40214,0.32421 C3.33780667,0.308143333 3.27177667,0.30011 3.20405,0.30011 C2.95715,0.30011 2.76020667,0.377623333 2.61322,0.53265 C2.46622667,0.686536667 2.38067333,0.894966667 2.35656,1.15794 C2.45302,1.09934 2.54776,1.05512667 2.64078,1.0253 C2.73494667,0.9943 2.84346667,0.9788 2.96634,0.9788 C3.07543333,0.9788 3.17132,0.989133333 3.254,1.0098 C3.33783333,1.02933333 3.42338667,1.06952667 3.51066,1.13038 C3.61172,1.20042667 3.68751333,1.28885 3.73804,1.39565 C3.78970667,1.50245 3.81554,1.63221333 3.81554,1.78494 L3.81543,1.78455 Z M3.46576,1.79835 C3.46576,1.69155667 3.44969333,1.60313333 3.41756,1.53308 C3.38656,1.46303333 3.33488333,1.40217 3.26253,1.35049 C3.20973,1.31375667 3.15116333,1.28965667 3.08683,1.27819 C3.02249667,1.26672333 2.95531667,1.26099 2.88529,1.26099 C2.78767667,1.26099 2.69695667,1.27245667 2.61313,1.29539 C2.52929667,1.31839 2.44317,1.35399 2.35475,1.40219 C2.35275,1.42745667 2.35108333,1.45215667 2.34975,1.47629 C2.34841667,1.49922333 2.34775,1.52852333 2.34775,1.56419 C2.34775,1.74563 2.36611667,1.88917333 2.40285,1.99482 C2.44071667,2.09932667 2.49239333,2.18201 2.55788,2.24287 C2.61068,2.29340333 2.66752333,2.33072667 2.72841,2.35484 C2.79041,2.37784 2.85759,2.38934 2.92995,2.38934 C3.09646333,2.38934 3.22737667,2.33881 3.32269,2.23775 C3.41800333,2.13555 3.46566,1.98913333 3.46566,1.7985 L3.46576,1.79835 Z" id="path1607" style="fill: rgb(209, 209, 211);"/>
        <path d="M6.01684,1.33325 C6.01684,1.79374333 5.94449333,2.13193667 5.7998,2.34783 C5.65626,2.56257 5.43290333,2.66994 5.12973,2.66994 C4.82197,2.66994 4.59689333,2.56084667 4.4545,2.34266 C4.31324667,2.12446667 4.24262,1.78914333 4.24262,1.33669 C4.24262,0.88079 4.31439333,0.54432 4.45794,0.32728 C4.60148667,0.109093333 4.82541667,0 5.12973,0 C5.43749667,0 5.66200333,0.110816667 5.80325,0.33245 C5.94564333,0.552936667 6.01684,0.886536667 6.01684,1.33325 L6.01684,1.33325 Z M5.56382,2.11528 C5.60402,2.02226667 5.63102,1.91317333 5.64482,1.788 C5.65975333,1.66168 5.66722,1.51009667 5.66722,1.33325 C5.66722,1.15869667 5.65975333,1.00711333 5.64482,0.8785 C5.63102,0.74988 5.60345333,0.640783333 5.56212,0.55121 C5.52192,0.46279 5.4668,0.396186667 5.39676,0.3514 C5.32786,0.3066 5.23886,0.2842 5.12976,0.2842 C5.02182,0.2842 4.93225,0.3066 4.86105,0.3514 C4.79099667,0.3962 4.7353,0.463953333 4.69396,0.55466 C4.65489333,0.63964 4.62789333,0.750456667 4.61296,0.88711 C4.59916,1.02376333 4.59226,1.17362333 4.59226,1.33669 C4.59226,1.51583667 4.59859333,1.6657 4.61126,1.78628 C4.62386,1.90685333 4.65086,2.01479667 4.69226,2.11011 C4.73012667,2.19968333 4.78352667,2.26801333 4.85246,2.3151 C4.92250667,2.36216667 5.01494667,2.3857 5.12978,2.3857 C5.23772667,2.3857 5.3273,2.3633 5.3985,2.3185 C5.4697,2.2737 5.52482333,2.20594667 5.56387,2.11524 L5.56382,2.11528 Z" id="path1609" style="fill: rgb(209, 209, 211);"/>
      </g>
      <g id="text1063-5-0-1-9" transform="matrix(1, 0, 0, 1, 201.571121, 344.000031)" fill="#000000" fill-rule="nonzero">
        <path d="M1.73633,2.61833 L2.84217094e-14,2.61833 L2.84217094e-14,2.25832 C0.12058,2.15496667 0.24116,2.05161333 0.36174,1.94826 C0.483466667,1.84490667 0.59658,1.74213 0.70108,1.63993 C0.921566667,1.42633 1.07257667,1.25694667 1.15411,1.13178 C1.23564333,1.00546 1.27641,0.869376667 1.27641,0.72353 C1.27641,0.590323333 1.23219667,0.486396667 1.14377,0.41175 C1.05649667,0.335963333 0.934196667,0.29807 0.77687,0.29807 C0.67237,0.29807 0.559256667,0.316436667 0.43753,0.35317 C0.315803333,0.389903333 0.196946667,0.446173333 0.08096,0.52198 L0.06376,0.52198 L0.06376,0.16024 C0.145293333,0.12004 0.253813333,0.0832933333 0.38932,0.05 C0.525973333,0.0166666667 0.658033333,0 0.7855,0 C1.04848,0 1.25461333,0.0637333333 1.4039,0.1912 C1.55318667,0.31752 1.62783,0.4892 1.62783,0.70624 C1.62783,0.803853333 1.61519667,0.895146667 1.58993,0.98012 C1.56579667,1.06395333 1.52962333,1.14376667 1.48141,1.21956 C1.43661,1.29075333 1.38378667,1.36080333 1.32294,1.42971 C1.26320667,1.49861 1.19028333,1.57497667 1.10417,1.65881 C0.981296667,1.77938333 0.854403333,1.89651333 0.72349,2.0102 C0.592576667,2.12274 0.470276667,2.22724333 0.35659,2.32371 L1.73635,2.32371 L1.73633,2.61833 Z" id="path1612" style="fill: rgb(209, 209, 211);"/>
        <path d="M3.83266,2.61833 L2.44429,2.61833 L2.44429,2.35651 L2.97828,2.35651 L2.97828,0.63741 L2.44429,0.63741 L2.44429,0.40314 C2.51663667,0.40314 2.59415333,0.397406667 2.67684,0.38594 C2.75952,0.373273333 2.82210333,0.355473333 2.86459,0.33254 C2.91739,0.303806667 2.95873333,0.267633333 2.98862,0.22402 C3.01962,0.17922 3.03742,0.119503333 3.04202,0.04487 L3.30901,0.04487 L3.30901,2.35653 L3.83266,2.35653 L3.83266,2.61833 Z" id="path1614" style="fill: rgb(209, 209, 211);"/>
        <path d="M6.21839,1.33504 C6.21839,1.79553333 6.14604333,2.13372667 6.00135,2.34962 C5.85780333,2.56436 5.63444667,2.67173 5.33128,2.67173 C5.02351333,2.67173 4.79843333,2.56263667 4.65604,2.34445 C4.51479333,2.12625667 4.44417,1.79093333 4.44417,1.33848 C4.44417,0.88258 4.51594,0.54611 4.65948,0.32907 C4.80302667,0.110883333 5.02696,0.00179 5.33128,0.00179 C5.63904,0.00179 5.86354333,0.112606667 6.00479,0.33424 C6.14719,0.554726667 6.21839,0.888326667 6.21839,1.33504 L6.21839,1.33504 Z M5.76536,2.11707 C5.80556,2.02405667 5.83256,1.91496333 5.84636,1.78979 C5.86129333,1.66347 5.86876,1.51188667 5.86876,1.33504 C5.86876,1.16048667 5.86129333,1.00890333 5.84636,0.88029 C5.83256,0.75167 5.80499333,0.642573333 5.76366,0.553 C5.72346,0.46458 5.66833667,0.397976667 5.59829,0.35319 C5.52939,0.30839 5.44039333,0.28599 5.3313,0.28599 C5.22335333,0.28599 5.13378,0.30839 5.06258,0.35319 C4.99252667,0.39799 4.93683,0.465743333 4.89549,0.55645 C4.85642333,0.64143 4.82942333,0.752246667 4.81449,0.8889 C4.80069,1.02555333 4.79379,1.17541333 4.79379,1.33848 C4.79379,1.51762667 4.80009,1.66749 4.81269,1.78807 C4.82535667,1.90864333 4.85235667,2.01658667 4.89369,2.1119 C4.93155667,2.20147333 4.98495667,2.26980333 5.05389,2.31689 C5.12393667,2.36395667 5.21638,2.38749 5.33122,2.38749 C5.43916667,2.38749 5.52873667,2.36509 5.59993,2.32029 C5.67113,2.27549 5.72625333,2.20773667 5.7653,2.11703 L5.76536,2.11707 Z" id="path1616" style="fill: rgb(209, 209, 211);"/>
      </g>
      <g id="text1063-5-0-1-98" transform="matrix(1, 0, 0, 1, 251.463989, 344.000031)" fill="#000000" fill-rule="nonzero">
        <path d="M1.73633,2.61833 L0,2.61833 L0,2.25832 C0.12058,2.15496667 0.24116,2.05161333 0.36174,1.94826 C0.48346,1.84490667 0.596573333,1.74213 0.70108,1.63993 C0.92156,1.42633 1.07257,1.25694667 1.15411,1.13178 C1.23564333,1.00546 1.27641,0.869376667 1.27641,0.72353 C1.27641,0.590323333 1.23219667,0.486396667 1.14377,0.41175 C1.05649667,0.335963333 0.934196667,0.29807 0.77687,0.29807 C0.67237,0.29807 0.559256667,0.316436667 0.43753,0.35317 C0.315803333,0.389903333 0.196946667,0.446173333 0.08096,0.52198 L0.06376,0.52198 L0.06376,0.16024 C0.145293333,0.12004 0.253813333,0.0832933333 0.38932,0.05 C0.525973333,0.0166666667 0.658033333,0 0.7855,0 C1.04847333,0 1.25460333,0.0637333333 1.40389,0.1912 C1.55318333,0.31752 1.62783,0.4892 1.62783,0.70624 C1.62783,0.803853333 1.61519667,0.895146667 1.58993,0.98012 C1.56579667,1.06395333 1.52962333,1.14376667 1.48141,1.21956 C1.43661,1.29075333 1.38378333,1.36080333 1.32293,1.42971 C1.26319667,1.49861 1.19027667,1.57497667 1.10417,1.65881 C0.981296667,1.77938333 0.854403333,1.89651333 0.72349,2.0102 C0.592576667,2.12274 0.470276667,2.22724333 0.35659,2.32371 L1.73635,2.32371 L1.73633,2.61833 Z" id="path1619" style="fill: rgb(209, 209, 211);"/>
        <path d="M4.01697,1.78634 C4.01697,2.04702 3.93084333,2.26004333 3.75859,2.42541 C3.58748333,2.58962333 3.37733333,2.67173 3.12814,2.67173 C3.00182,2.67173 2.88698333,2.65219667 2.78363,2.61313 C2.68027667,2.57406333 2.58898333,2.51607 2.50975,2.43915 C2.41099,2.34383667 2.33462333,2.21751667 2.28065,2.06019 C2.22785,1.90286333 2.20145,1.71338333 2.20145,1.49175 C2.20145,1.26437667 2.22558333,1.06284 2.27385,0.88714 C2.32325,0.71144 2.40134,0.55526 2.50812,0.4186 C2.60917333,0.28884 2.73951,0.187786667 2.89913,0.11544 C3.05875667,0.04194 3.24479333,0.00519 3.45724,0.00519 C3.52499333,0.00519 3.58183667,0.00819 3.62777,0.01419 C3.67370333,0.02019 3.72021,0.0305233333 3.76729,0.04519 L3.76729,0.3742 L3.75009,0.3742 C3.71795667,0.357 3.66915,0.340933333 3.60367,0.326 C3.53933667,0.309933333 3.47330667,0.3019 3.40558,0.3019 C3.15868,0.3019 2.96173667,0.379413333 2.81475,0.53444 C2.66775667,0.688326667 2.58220333,0.896756667 2.55809,1.15973 C2.65455,1.10113 2.74929,1.05691667 2.84231,1.02709 C2.93647667,0.99609 3.04499667,0.98059 3.16787,0.98059 C3.27696333,0.98059 3.37285,0.990923333 3.45553,1.01159 C3.53936333,1.03112333 3.62491667,1.07131667 3.71219,1.13217 C3.81325,1.20221667 3.88904333,1.29064 3.93957,1.39744 C3.99123667,1.50424 4.01707,1.63400333 4.01707,1.78673 L4.01697,1.78634 Z M3.6673,1.80014 C3.6673,1.69334667 3.65123333,1.60492333 3.6191,1.53487 C3.5881,1.46482333 3.53642333,1.40396 3.46407,1.35228 C3.41127,1.31554667 3.35270333,1.29144667 3.28837,1.27998 C3.22403667,1.26851333 3.15685667,1.26278 3.08683,1.26278 C2.98921667,1.26278 2.89849667,1.27424667 2.81467,1.29718 C2.73083667,1.32011333 2.64471,1.35571333 2.55629,1.40398 C2.55429,1.42924667 2.55262333,1.45394667 2.55129,1.47808 C2.54995667,1.50101333 2.54929,1.53031333 2.54929,1.56598 C2.54929,1.74742 2.56765667,1.89096333 2.60439,1.99661 C2.64225667,2.10111667 2.69393333,2.1838 2.75942,2.24466 C2.81222,2.29519333 2.86906333,2.33251667 2.92995,2.35663 C2.99195,2.37956333 3.05913,2.39103 3.13149,2.39103 C3.29799667,2.39103 3.42891,2.3405 3.52423,2.23944 C3.61954333,2.13724 3.6672,1.99082333 3.6672,1.80019 L3.6673,1.80014 Z" id="path1621" style="fill: rgb(209, 209, 211);"/>
        <path d="M6.21838,1.33504 C6.21838,1.79553333 6.14603333,2.13372667 6.00134,2.34962 C5.8578,2.56436 5.63444333,2.67173 5.33127,2.67173 C5.02351,2.67173 4.79843333,2.56263667 4.65604,2.34445 C4.51478667,2.12625667 4.44416,1.79093333 4.44416,1.33848 C4.44416,0.88258 4.51593333,0.54611 4.65948,0.32907 C4.80302667,0.110883333 5.02695667,0.00179 5.33127,0.00179 C5.63903667,0.00179 5.86354333,0.112606667 6.00479,0.33424 C6.14718333,0.554726667 6.21838,0.888326667 6.21838,1.33504 L6.21838,1.33504 Z M5.76536,2.11707 C5.80556,2.02405667 5.83256,1.91496333 5.84636,1.78979 C5.86129333,1.66347 5.86876,1.51188667 5.86876,1.33504 C5.86876,1.16048667 5.86129333,1.00890333 5.84636,0.88029 C5.83256,0.75167 5.80499333,0.642573333 5.76366,0.553 C5.72346,0.46458 5.66834,0.397976667 5.5983,0.35319 C5.5294,0.30839 5.4404,0.28599 5.3313,0.28599 C5.22336,0.28599 5.13379,0.30839 5.06259,0.35319 C4.99253667,0.39799 4.93684,0.465743333 4.8955,0.55645 C4.85643333,0.64143 4.82943333,0.752246667 4.8145,0.8889 C4.8007,1.02555333 4.7938,1.17541333 4.7938,1.33848 C4.7938,1.51762667 4.8001,1.66749 4.8127,1.78807 C4.82536667,1.90864333 4.85236667,2.01658667 4.8937,2.1119 C4.93156667,2.20147333 4.98496333,2.26980333 5.05389,2.31689 C5.12394333,2.36395667 5.21638667,2.38749 5.33122,2.38749 C5.43916667,2.38749 5.52874,2.36509 5.59994,2.32029 C5.67114,2.27549 5.72626333,2.20773667 5.76531,2.11703 L5.76536,2.11707 Z" id="path1623" style="fill: rgb(209, 209, 211);"/>
      </g>
      <g id="text1063-5-0-1-10" transform="matrix(1, 0, 0, 1, 311.51355, 344)" fill="#000000" fill-rule="nonzero">
        <path d="M1.50031,1.38326 C1.55544333,1.43266 1.60080333,1.49467 1.63639,1.56929 C1.67199,1.64393667 1.68979,1.7404 1.68979,1.85868 C1.68979,1.97581333 1.66855667,2.08318667 1.62609,2.1808 C1.58362333,2.27840667 1.52390667,2.36338333 1.44694,2.43573 C1.36081333,2.51611667 1.25918333,2.57583333 1.14205,2.61488 C1.02606333,2.65274667 0.898596667,2.67168 0.75965,2.67168 C0.61725,2.67168 0.477146667,2.65444667 0.33934,2.61998 C0.20154,2.58664667 0.0884266667,2.5499 0,2.50974 L0,2.14973 L0.0258,2.14973 C0.123413333,2.21406333 0.23825,2.26746333 0.37031,2.30993 C0.50237,2.35239667 0.62984,2.37363 0.75272,2.37363 C0.825066667,2.37363 0.902006667,2.36156333 0.98354,2.33743 C1.06507333,2.31329667 1.13110333,2.27769667 1.18163,2.23063 C1.23443,2.18009667 1.27347333,2.1244 1.29876,2.06354 C1.32516,2.00267333 1.33836,1.92573333 1.33836,1.83272 C1.33836,1.74085333 1.32342667,1.66506333 1.29356,1.60535 C1.26482667,1.54448333 1.22463667,1.49682667 1.17299,1.46238 C1.12132333,1.42678 1.05873667,1.40268 0.98523,1.39008 C0.911736667,1.37628 0.8325,1.36938 0.74752,1.36938 L0.59249,1.36938 L0.59249,1.08344 L0.71307,1.08344 C0.887616667,1.08344 1.02656667,1.04726667 1.12992,0.97492 C1.23442,0.90142 1.28667,0.79462 1.28667,0.65452 C1.28667,0.59252 1.27347,0.538546667 1.24707,0.4926 C1.22067,0.445533333 1.18392,0.407063333 1.13682,0.37719 C1.08742,0.347323333 1.03459667,0.326656667 0.97835,0.31519 C0.922083333,0.303723333 0.85835,0.29799 0.78715,0.29799 C0.67805,0.29799 0.562063333,0.317523333 0.43919,0.35659 C0.316316667,0.395656667 0.200333333,0.45078 0.09124,0.52196 L0.07404,0.52196 L0.07404,0.16194 C0.155573333,0.12174 0.264093333,0.0849933333 0.3996,0.0517 C0.53626,0.0172333333 0.668323333,0 0.79579,0 C0.920963333,0 1.03120667,0.0114666667 1.12652,0.0344 C1.22183333,0.0573333333 1.30796,0.09408 1.3849,0.14464 C1.46758,0.199773333 1.53016667,0.266376667 1.57266,0.34445 C1.61512667,0.422543333 1.63636,0.51384 1.63636,0.61834 C1.63636,0.760733333 1.58583333,0.88533 1.48478,0.99213 C1.38487333,1.09777667 1.26659,1.16438333 1.12993,1.19195 L1.12993,1.21605 C1.18506333,1.22525 1.24822333,1.24478333 1.31941,1.27465 C1.39061,1.30338333 1.4509,1.33955667 1.50028,1.38317 L1.50031,1.38326 Z" id="path1633" style="fill: rgb(209, 209, 211);"/>
        <path d="M3.96871,2.61832 L2.23239,2.61832 L2.23239,2.25831 C2.35297,2.15495667 2.47354667,2.05160333 2.59412,1.94825 C2.71584667,1.84489667 2.82896333,1.74212 2.93347,1.63992 C3.15395,1.42632 3.30496,1.25693667 3.3865,1.13177 C3.46803333,1.00545 3.5088,0.869366667 3.5088,0.72352 C3.5088,0.590313333 3.46458667,0.486386667 3.37616,0.41174 C3.28888667,0.335953333 3.16658667,0.29806 3.00926,0.29806 C2.90476,0.29806 2.79164667,0.316426667 2.66992,0.35316 C2.54819333,0.389893333 2.42933667,0.446163333 2.31335,0.52197 L2.29615,0.52197 L2.29615,0.16023 C2.37769,0.12003 2.48621333,0.0832833333 2.62172,0.04999 C2.75837333,0.0167233333 2.89043333,8.99999999e-05 3.0179,8.99999999e-05 C3.28087333,8.99999999e-05 3.48700333,0.0638233333 3.63629,0.19129 C3.78557667,0.31761 3.86022,0.48929 3.86022,0.70633 C3.86022,0.803936667 3.84758667,0.89523 3.82232,0.98021 C3.79818667,1.06404333 3.76201333,1.14385667 3.7138,1.21965 C3.669,1.29084333 3.61617333,1.36089333 3.55532,1.4298 C3.49558667,1.4987 3.42266667,1.57506667 3.33656,1.6589 C3.21368667,1.77947333 3.08679333,1.89660333 2.95588,2.01029 C2.82496667,2.12283 2.70266667,2.22733333 2.58898,2.3238 L3.96873,2.3238 L3.96871,2.61832 Z" id="path1635" style="fill: rgb(209, 209, 211);"/>
        <path d="M6.20802,1.33503 C6.20802,1.79552333 6.13567333,2.13371667 5.99098,2.34961 C5.84743333,2.56435 5.62407667,2.67172 5.32091,2.67172 C5.01315,2.67172 4.78807,2.56262667 4.64567,2.34444 C4.50442333,2.12624667 4.4338,1.79092333 4.4338,1.33847 C4.4338,0.88257 4.50557333,0.5461 4.64912,0.32906 C4.79266667,0.110873333 5.01659667,0.00178 5.32091,0.00178 C5.62867,0.00178 5.85317667,0.112596667 5.99443,0.33423 C6.13682333,0.554716667 6.20802,0.888316667 6.20802,1.33503 L6.20802,1.33503 Z M5.75499,2.11706 C5.79519,2.02404667 5.82219,1.91495333 5.83599,1.78978 C5.85092333,1.66346 5.85839,1.51187667 5.85839,1.33503 C5.85839,1.16047667 5.85092333,1.00889333 5.83599,0.88028 C5.82219,0.75166 5.79462333,0.642563333 5.75329,0.55299 C5.71309,0.46457 5.65797,0.397966667 5.58793,0.35318 C5.51902333,0.30838 5.43002333,0.28598 5.32093,0.28598 C5.21298333,0.28598 5.12341333,0.30838 5.05222,0.35318 C4.98216667,0.39798 4.92647,0.465733333 4.88513,0.55644 C4.84606333,0.64142 4.81906333,0.752236667 4.80413,0.88889 C4.79033,1.02554333 4.78343,1.17540333 4.78343,1.33847 C4.78343,1.51761667 4.78976333,1.66748 4.80243,1.78806 C4.81503,1.90863333 4.84203,2.01657667 4.88343,2.11189 C4.92129667,2.20146333 4.97469333,2.26979333 5.04362,2.31688 C5.11367333,2.36394667 5.20611667,2.38748 5.32095,2.38748 C5.42889667,2.38748 5.51847,2.36508 5.58967,2.32028 C5.66087,2.27548 5.71599,2.20772667 5.75503,2.11702 L5.75499,2.11706 Z" id="path1637" style="fill: rgb(209, 209, 211);"/>
      </g>
      <g id="text1063-5-0-1-107" transform="matrix(1, 0, 0, 1, 301.426239, 344.02356)" fill="#000000" fill-rule="nonzero">
        <path d="M1.5003,1.38337 C1.55543333,1.43277 1.60079333,1.49478 1.63638,1.5694 C1.67198,1.64404667 1.68978,1.74051 1.68978,1.85879 C1.68978,1.97592333 1.66854667,2.08329667 1.62608,2.18091 C1.58361333,2.27851667 1.5239,2.36349333 1.44694,2.43584 C1.36081333,2.51622667 1.25918333,2.57594333 1.14205,2.61499 C1.02606333,2.65285667 0.898593333,2.67179 0.75964,2.67179 C0.617246667,2.67179 0.477146667,2.65455667 0.33934,2.62009 C0.20154,2.58675667 0.0884266667,2.55000667 0,2.50984 L0,2.14983 L0.0258,2.14983 C0.123413333,2.21416333 0.23825,2.26756333 0.37031,2.31003 C0.50237,2.35249667 0.629836667,2.37373 0.75271,2.37373 C0.825056667,2.37373 0.902,2.36166333 0.98354,2.33753 C1.06507333,2.31339667 1.13110333,2.27779667 1.18163,2.23073 C1.23443,2.18019667 1.27347333,2.1245 1.29876,2.06364 C1.32516,2.00277333 1.33836,1.92583333 1.33836,1.83282 C1.33836,1.74095333 1.32342667,1.66516333 1.29356,1.60545 C1.26482667,1.54458333 1.22463667,1.49692667 1.17299,1.46248 C1.12132333,1.42688 1.05873667,1.40274667 0.98523,1.39008 C0.911736667,1.37628 0.8325,1.36938 0.74752,1.36938 L0.59249,1.36938 L0.59249,1.08344 L0.71307,1.08344 C0.887616667,1.08344 1.02656667,1.04726667 1.12992,0.97492 C1.23442,0.90142 1.28667,0.79462 1.28667,0.65452 C1.28667,0.59252 1.27347,0.538546667 1.24707,0.4926 C1.22067,0.445533333 1.18392333,0.407063333 1.13683,0.37719 C1.08743,0.347323333 1.03460667,0.326656667 0.97836,0.31519 C0.922093333,0.303723333 0.85836,0.29799 0.78716,0.29799 C0.67806,0.29799 0.562073333,0.317523333 0.4392,0.35659 C0.316326667,0.395656667 0.200343333,0.45078 0.09125,0.52196 L0.07405,0.52196 L0.07405,0.16195 C0.155583333,0.12175 0.264103333,0.085 0.39961,0.0517 C0.53627,0.0172333333 0.668333333,0 0.7958,0 C0.920973333,0 1.03121667,0.0114666667 1.12653,0.0344 C1.22184333,0.0573333333 1.30797,0.09408 1.38491,0.14464 C1.46759,0.199773333 1.53017667,0.26638 1.57267,0.34446 C1.61513667,0.422546667 1.63637,0.51384 1.63637,0.61834 C1.63637,0.76074 1.58584333,0.885336667 1.48479,0.99213 C1.38487667,1.09778333 1.26659333,1.16439 1.12994,1.19195 L1.12994,1.21605 C1.18507333,1.22525 1.24823333,1.24478333 1.31942,1.27465 C1.39062,1.30338333 1.45091,1.33955667 1.50029,1.38317 L1.5003,1.38337 Z" id="path1626" style="fill: rgb(209, 209, 211);"/>
        <path d="M3.82229,2.61843 L2.43392,2.61843 L2.43392,2.35661 L2.96791,2.35661 L2.96791,0.63751 L2.43392,0.63751 L2.43392,0.40324 C2.50626667,0.40324 2.58378,0.397506667 2.66646,0.38604 C2.74914,0.373373333 2.81172667,0.355573333 2.85422,0.33264 C2.90702,0.303906667 2.94836,0.267733333 2.97824,0.22412 C3.00924,0.17932 3.02704,0.119603333 3.03164,0.04497 L3.29863,0.04497 L3.29863,2.35663 L3.82229,2.35663 L3.82229,2.61843 Z" id="path1628" style="fill: rgb(209, 209, 211);"/>
        <path d="M6.20801,1.33514 C6.20801,1.79563333 6.13566333,2.13382667 5.99097,2.34972 C5.84742333,2.56446 5.62406667,2.67183 5.3209,2.67183 C5.01314,2.67183 4.78806,2.56273667 4.64566,2.34455 C4.50441333,2.12636333 4.43379,1.79104 4.43379,1.33858 C4.43379,0.88268 4.50556333,0.54621 4.64911,0.32917 C4.79265667,0.110983333 5.01658667,0.00189 5.3209,0.00189 C5.62866,0.00189 5.85316667,0.112706667 5.99442,0.33434 C6.13681333,0.554826667 6.20801,0.888426667 6.20801,1.33514 L6.20801,1.33514 Z M5.75498,2.11717 C5.79518,2.02415667 5.82218,1.91506333 5.83598,1.78989 C5.85091333,1.66357 5.85838,1.51198667 5.85838,1.33514 C5.85838,1.16058667 5.85091333,1.00900333 5.83598,0.88039 C5.82218,0.75177 5.79461333,0.642673333 5.75328,0.5531 C5.71308,0.46468 5.65796,0.398076667 5.58792,0.35329 C5.51901333,0.30849 5.43001333,0.28609 5.32092,0.28609 C5.21297333,0.28609 5.1234,0.30849 5.0522,0.35329 C4.98215333,0.39809 4.92646,0.465843333 4.88512,0.55655 C4.84605333,0.64153 4.81905333,0.752346667 4.80412,0.889 C4.79032,1.02565333 4.78342,1.17551333 4.78342,1.33858 C4.78342,1.51772667 4.78975333,1.66759 4.80242,1.78817 C4.81502,1.90874333 4.84202,2.01669 4.88342,2.11201 C4.92128667,2.20157667 4.97468333,2.26990333 5.04361,2.31699 C5.11366333,2.36405667 5.20610667,2.38759 5.32094,2.38759 C5.42888667,2.38759 5.51846,2.36519 5.58966,2.32039 C5.66086,2.27559 5.71598,2.20783667 5.75502,2.11713 L5.75498,2.11717 Z" id="path1630" style="fill: rgb(209, 209, 211);"/>
      </g>
      <path d="M 248.931 313.193 C 248.933 312.024 248.949 310.137 248.967 309 L 248.999 306.932 L 249.146 306.5 C 249.495 305.484 250.153 304.725 251.093 304.256 C 252.181 303.713 253.573 303.745 254.625 304.337 C 255.541 304.853 256.233 305.772 256.476 306.795 C 256.557 307.14 256.569 307.301 256.552 307.818 C 256.534 308.356 256.513 308.485 256.387 308.857 C 255.958 310.123 254.955 311.06 253.676 311.391 C 253.199 311.515 252.289 311.507 251.828 311.375 C 251.37 311.244 251.019 311.086 250.693 310.863 C 250.547 310.763 250.417 310.682 250.404 310.682 C 250.391 310.682 250.381 311.725 250.381 313 L 250.381 315.318 L 249.653 315.318 L 248.926 315.318 L 248.931 313.193 Z M 253.298 309.98 C 254.59 309.706 255.411 308.392 255.082 307.124 C 254.875 306.324 254.311 305.716 253.529 305.448 C 253.141 305.315 252.449 305.303 252.062 305.423 C 251.08 305.728 250.424 306.64 250.427 307.695 C 250.431 309.218 251.789 310.299 253.298 309.98 Z M 243.849 311.499 C 242.994 311.382 242.285 311.042 241.683 310.461 C 240.599 309.413 240.222 307.871 240.701 306.441 C 240.906 305.83 241.148 305.45 241.649 304.954 C 242.35 304.261 243.095 303.928 244.062 303.877 C 244.911 303.833 245.665 304.021 246.292 304.433 L 246.653 304.671 L 246.653 304.375 L 246.653 304.078 L 246.864 304.107 C 246.98 304.123 247.318 304.136 247.614 304.136 L 248.153 304.136 L 248.153 307.795 L 248.153 311.454 L 247.403 311.454 L 246.653 311.454 L 246.653 311.072 L 246.653 310.69 L 246.347 310.896 C 245.953 311.16 245.66 311.289 245.19 311.403 C 244.73 311.515 244.226 311.551 243.849 311.499 Z M 245.065 309.917 C 245.49 309.769 245.708 309.635 245.999 309.345 C 246.731 308.613 246.88 307.494 246.372 306.537 C 246.005 305.846 245.114 305.319 244.312 305.32 C 243.988 305.32 243.492 305.434 243.2 305.576 C 242.888 305.727 242.387 306.218 242.232 306.525 C 241.864 307.252 241.863 308.112 242.231 308.838 C 242.486 309.34 243.158 309.843 243.756 309.98 C 244.121 310.063 244.731 310.034 245.065 309.917 Z M 273.384 311.498 C 271.787 311.279 270.504 310.104 270.125 308.515 C 270.015 308.053 270.026 307.258 270.149 306.774 C 270.462 305.537 271.372 304.522 272.551 304.093 C 273.596 303.712 274.83 303.817 275.767 304.366 C 276.152 304.592 276.41 304.799 276.755 305.159 L 277.017 305.432 L 277.017 304.761 L 277.018 304.091 L 277.359 304.091 L 277.699 304.091 L 277.699 307.795 L 277.699 311.5 L 277.359 311.5 L 277.018 311.5 L 277.017 310.716 L 277.016 309.932 L 276.801 310.179 C 276.492 310.535 275.977 310.928 275.549 311.135 C 274.916 311.441 274.039 311.588 273.385 311.498 L 273.384 311.498 Z M 274.828 310.67 C 276.533 310.066 277.42 308.196 276.79 306.532 C 276.371 305.423 275.251 304.626 274.017 304.56 C 273.446 304.529 273.026 304.619 272.475 304.891 C 271.747 305.25 271.117 305.974 270.874 306.727 C 270.739 307.146 270.709 307.884 270.809 308.331 C 271.062 309.471 272.022 310.468 273.133 310.748 C 273.568 310.857 274.408 310.819 274.828 310.67 Z M 292.426 311.508 C 292.365 311.487 292.366 307.526 292.428 307.146 C 292.712 305.4 294.134 304.019 295.792 303.881 L 296.154 303.851 L 296.154 304.028 C 296.155 304.125 296.167 304.281 296.183 304.375 L 296.211 304.545 L 296.035 304.546 C 295.719 304.548 295.229 304.676 294.892 304.847 C 294.246 305.172 293.544 305.895 293.334 306.451 C 293.123 307.006 293.108 307.203 293.108 309.412 C 293.108 310.56 293.093 311.501 293.074 311.502 C 292.842 311.516 292.462 311.519 292.426 311.508 Z M 227.04 311.433 C 226.31 311.317 225.108 310.913 225.108 310.785 C 225.108 310.693 225.511 309.768 225.591 309.677 C 225.649 309.611 225.687 309.616 226.018 309.733 C 226.496 309.902 227.487 310.045 228.176 310.044 C 229.071 310.044 229.657 309.867 229.99 309.499 C 230.177 309.291 230.197 309.143 230.061 308.953 C 229.87 308.685 229.467 308.562 228.199 308.385 C 226.936 308.209 226.095 307.884 225.536 307.356 C 225.116 306.96 224.935 306.448 225.021 305.904 C 225.169 304.973 225.912 304.307 227.176 303.971 C 227.587 303.862 227.712 303.85 228.471 303.847 C 229.099 303.845 229.428 303.865 229.767 303.926 C 230.49 304.058 231.426 304.381 231.426 304.499 C 231.426 304.61 230.952 305.682 230.903 305.682 C 230.872 305.682 230.77 305.65 230.678 305.611 C 230.399 305.495 229.714 305.369 229.068 305.314 C 228.404 305.258 227.682 305.306 227.249 305.435 C 226.79 305.571 226.559 305.913 226.717 306.219 C 226.894 306.56 227.39 306.757 228.575 306.956 C 229.64 307.135 229.967 307.211 230.341 307.363 C 230.781 307.542 231.055 307.714 231.297 307.962 C 231.999 308.683 231.946 309.746 231.169 310.519 C 230.763 310.923 229.99 311.295 229.274 311.432 C 228.835 311.516 227.562 311.516 227.04 311.433 Z M 232.358 309.58 C 232.389 307.124 232.392 307.091 232.584 306.518 C 233.076 305.046 234.063 304.2 235.602 303.93 C 237.526 303.593 239.297 304.728 239.855 306.655 L 239.972 307.056 L 239.972 309.278 L 239.972 311.5 L 239.267 311.5 L 238.562 311.5 L 238.562 309.42 C 238.561 307.389 238.559 307.334 238.459 307.043 C 238.108 306.013 237.176 305.318 236.146 305.318 C 235.499 305.318 235.074 305.487 234.618 305.925 C 234.212 306.314 234.003 306.647 233.882 307.096 C 233.782 307.467 233.781 307.504 233.806 309.486 L 233.832 311.5 L 233.083 311.5 L 232.334 311.5 L 232.358 309.58 Z M 257.864 308.989 C 257.891 306.341 257.902 306.185 258.116 305.685 C 258.257 305.357 258.593 304.887 258.862 304.64 C 259.389 304.159 260.012 303.915 260.813 303.876 C 261.405 303.848 261.829 303.942 262.356 304.218 C 262.733 304.416 263.24 304.877 263.462 305.224 C 263.596 305.432 263.629 305.459 263.671 305.398 C 264.166 304.696 264.462 304.425 265.023 304.162 C 266.653 303.398 268.589 304.167 269.157 305.803 C 269.372 306.424 269.381 306.548 269.381 309.094 L 269.381 311.5 L 269.017 311.5 L 268.654 311.5 L 268.654 309.008 C 268.654 306.286 268.656 306.318 268.38 305.773 C 267.937 304.895 266.854 304.395 265.853 304.606 C 265.025 304.781 264.431 305.307 264.104 306.157 L 263.981 306.477 L 263.963 308.941 C 263.953 310.296 263.93 311.421 263.91 311.441 C 263.89 311.461 263.737 311.477 263.57 311.477 L 263.267 311.477 L 263.244 308.932 C 263.222 306.447 263.219 306.38 263.121 306.121 C 262.968 305.716 262.82 305.492 262.519 305.214 C 261.765 304.516 260.707 304.354 259.823 304.802 C 259.529 304.95 258.989 305.49 258.824 305.799 C 258.568 306.282 258.562 306.346 258.562 309.032 L 258.562 311.5 L 258.2 311.5 L 257.838 311.5 L 257.864 308.989 Z M 278.835 305.75 L 278.835 300 L 279.176 300 L 279.517 300 L 279.517 303.841 C 279.517 305.953 279.533 307.681 279.551 307.68 C 279.57 307.68 280.455 306.821 281.517 305.772 L 283.449 303.865 L 283.949 303.867 L 284.449 303.869 L 282.517 305.777 L 280.585 307.685 L 282.492 309.563 L 284.399 311.442 L 283.958 311.474 L 283.516 311.507 L 283.278 311.301 C 283.147 311.188 282.386 310.441 281.586 309.64 L 280.132 308.185 L 279.847 308.467 L 279.563 308.749 L 279.563 309.409 C 279.563 309.772 279.549 310.392 279.533 310.785 L 279.503 311.501 L 279.169 311.501 L 278.836 311.501 L 278.836 305.751 L 278.835 305.75 Z M 287.176 311.434 C 286.74 311.332 286.381 311.192 286.052 310.996 C 285.194 310.487 284.653 309.815 284.33 308.858 C 284.06 308.058 284.1 307.042 284.434 306.24 C 284.882 305.162 285.88 304.279 286.995 303.974 C 287.398 303.863 288.232 303.838 288.683 303.923 C 289.554 304.088 290.361 304.559 290.911 305.224 C 291.142 305.503 291.471 306.066 291.425 306.103 C 291.414 306.113 291.107 306.291 290.745 306.499 C 290.117 306.858 288.589 307.737 286.483 308.952 C 285.924 309.274 285.517 309.537 285.517 309.575 C 285.517 309.611 285.666 309.788 285.847 309.969 C 286.411 310.53 287.065 310.789 287.926 310.791 C 289.174 310.794 290.212 310.176 290.714 309.132 C 290.827 308.897 290.953 308.582 290.994 308.432 L 291.069 308.159 L 291.435 307.966 L 291.8 307.773 L 291.77 308.034 C 291.714 308.509 291.603 308.881 291.381 309.341 C 290.906 310.324 290.046 311.052 288.983 311.371 C 288.58 311.493 287.574 311.528 287.176 311.434 Z M 286.181 308.312 C 286.754 307.983 287.774 307.396 288.449 307.008 C 289.124 306.62 289.848 306.205 290.057 306.086 C 290.266 305.968 290.457 305.851 290.481 305.827 C 290.536 305.772 289.912 305.217 289.539 304.991 C 288.67 304.462 287.527 304.402 286.626 304.836 C 285.826 305.222 285.238 305.913 284.963 306.792 C 284.848 307.158 284.807 307.867 284.878 308.236 C 284.93 308.501 285.078 308.909 285.122 308.909 C 285.133 308.909 285.609 308.64 286.181 308.312 Z" id="path24" fill-rule="nonzero" style="fill: rgb(209, 209, 211);"/>
    </g>
  </g>
</svg>
