<?xml version="1.0" encoding="utf-8"?>
<svg viewBox="-12 0 324 200" xmlns="http://www.w3.org/2000/svg" author="https://github.com/macdylan/3dp-configs">
  <g id="g15224" style="display: inline;">
    <g id="g15076" style="display: inline;">
      <path style="fill: none; stroke-width: 0.264583; stroke: rgb(209, 209, 211);" d="M 10,0 V 200" id="path15018"/>
      <path style="fill: none; stroke-width: 0.264583; stroke: rgb(209, 209, 211);" d="M 30 0 L 30 200" id="path-1"/>
      <path style="fill: none; stroke-width: 0.264583; stroke: rgb(209, 209, 211);" d="M 50 0 L 50 200" id="path-2"/>
      <path style="fill: none; stroke-width: 0.264583; stroke: rgb(209, 209, 211);" d="M 70 0 L 70 200" id="path-3"/>
      <path style="fill: none; stroke-width: 0.264583; stroke: rgb(209, 209, 211);" d="M 90,0 V 200" id="path15034"/>
      <path style="fill: none; stroke-width: 0.264583; stroke: rgb(209, 209, 211);" d="M 110,0 V 200" id="path15038"/>
      <path style="fill: none; stroke-width: 0.264583; stroke: rgb(209, 209, 211);" d="M 130,0 V 200" id="path15042"/>
      <path style="display:inline;fill:#00112b;stroke:#0066ff;stroke-width:0.258;stroke-dasharray:1.548, 0.258;stroke-dashoffset:0;stroke-opacity:1" d="M 160,10 V 200" id="path15048"/>
      <path style="fill:none;stroke:#ff0000;stroke-width:0.265;stroke-dasharray:1.59, 0.265;stroke-dashoffset:0;stroke-opacity:1" d="M 150,0 V 190" id="path15046"/>
      <path style="fill: none; stroke-width: 0.264583; stroke: rgb(209, 209, 211);" d="M 180,0 V 200" id="path15052"/>
      <path style="fill: none; stroke-width: 0.264583; stroke: rgb(209, 209, 211);" d="M 200,0 V 200" id="path15056"/>
      <path style="fill: none; stroke-width: 0.264583; stroke: rgb(209, 209, 211);" d="M 220 0 L 220 182.031 M 220 198.022 L 220 200" id="path15060"/>
      <path style="fill: none; stroke-width: 0.264583; stroke: rgb(209, 209, 211);" d="M 240 0 L 240 182.031 M 240 198.022 L 240 200" id="path15064"/>
      <path style="fill: none; stroke-width: 0.264583; stroke: rgb(209, 209, 211);" d="M 260 0 L 260 182.031 M 260 198.022 L 260 200" id="path15068"/>
      <path style="fill: none; stroke-width: 0.264583; stroke: rgb(209, 209, 211);" d="M 280 0 L 280 182.031 M 280 198.022 L 280 200" id="path15072"/>
      <g aria-label="MIRROR" id="text16399" style="font-size:10.5833px;line-height:1.25;letter-spacing:0px;word-spacing:0px;display:inline;stroke-width:0.264583">
        <path d="m 143.06355,193.62239 h 0.51849 l 0.65629,1.75011 0.65973,-1.75011 h 0.51849 v 2.57176 h -0.33934 v -2.25826 l -0.66318,1.76389 h -0.34968 l -0.66318,-1.76389 v 2.25826 h -0.33762 z" style="font-size:3.52778px;-inkscape-font-specification:'sans-serif, Normal';fill:#ff0000" id="path17403"/>
        <path d="m 146.10729,193.62239 h 0.34796 v 2.57176 h -0.34796 z" style="font-size:3.52778px;-inkscape-font-specification:'sans-serif, Normal';fill:#ff0000" id="path17405"/>
        <path d="m 148.36728,194.98837 q 0.11196,0.0379 0.21704,0.16192 0.10679,0.12402 0.21359,0.34106 l 0.35313,0.7028 h -0.3738 l -0.329,-0.65973 q -0.12747,-0.25839 -0.24805,-0.34279 -0.11886,-0.0844 -0.32556,-0.0844 h -0.37896 v 1.08693 h -0.34796 v -2.57176 h 0.78548 q 0.44098,0 0.65802,0.18431 0.21704,0.18431 0.21704,0.55638 0,0.24288 -0.11369,0.40308 -0.11197,0.1602 -0.32728,0.22221 z m -0.87161,-1.08004 v 0.91295 h 0.43752 q 0.2515,0 0.37896,-0.11541 0.1292,-0.11713 0.1292,-0.34279 0,-0.22565 -0.1292,-0.33934 -0.12746,-0.11541 -0.37896,-0.11541 z" style="font-size:3.52778px;-inkscape-font-specification:'sans-serif, Normal';fill:#ff0000" id="path17407"/>
        <path d="m 150.81846,194.98837 q 0.11197,0.0379 0.21704,0.16192 0.1068,0.12402 0.2136,0.34106 l 0.35312,0.7028 h -0.37379 l -0.32901,-0.65973 q -0.12747,-0.25839 -0.24804,-0.34279 -0.11886,-0.0844 -0.32557,-0.0844 h -0.37896 v 1.08693 h -0.34795 v -2.57176 h 0.78548 q 0.44097,0 0.65801,0.18431 0.21705,0.18431 0.21705,0.55638 0,0.24288 -0.11369,0.40308 -0.11197,0.1602 -0.32729,0.22221 z m -0.87161,-1.08004 v 0.91295 h 0.43753 q 0.25149,0 0.37896,-0.11541 0.12919,-0.11713 0.12919,-0.34279 0,-0.22565 -0.12919,-0.33934 -0.12747,-0.11541 -0.37896,-0.11541 z" style="font-size:3.52778px;-inkscape-font-specification:'sans-serif, Normal';fill:#ff0000" id="path17409"/>
        <path d="m 153.09395,193.85838 q -0.37896,0 -0.60289,0.28249 -0.22221,0.2825 -0.22221,0.76998 0,0.48576 0.22221,0.76826 0.22393,0.2825 0.60289,0.2825 0.37896,0 0.59945,-0.2825 0.22221,-0.2825 0.22221,-0.76826 0,-0.48748 -0.22221,-0.76998 -0.22049,-0.28249 -0.59945,-0.28249 z m 0,-0.2825 q 0.54088,0 0.86472,0.36346 0.32384,0.36173 0.32384,0.97151 0,0.60806 -0.32384,0.97152 -0.32384,0.36174 -0.86472,0.36174 -0.5426,0 -0.86816,-0.36174 -0.32384,-0.36173 -0.32384,-0.97152 0,-0.60978 0.32384,-0.97151 0.32556,-0.36346 0.86816,-0.36346 z" style="font-size:3.52778px;-inkscape-font-specification:'sans-serif, Normal';fill:#ff0000" id="path17411"/>
        <path d="m 156.0464,194.98837 q 0.11196,0.0379 0.21704,0.16192 0.1068,0.12402 0.2136,0.34106 l 0.35312,0.7028 h -0.37379 l -0.32901,-0.65973 q -0.12747,-0.25839 -0.24805,-0.34279 -0.11885,-0.0844 -0.32556,-0.0844 h -0.37896 v 1.08693 h -0.34796 v -2.57176 h 0.78549 q 0.44097,0 0.65801,0.18431 0.21704,0.18431 0.21704,0.55638 0,0.24288 -0.11369,0.40308 -0.11196,0.1602 -0.32728,0.22221 z m -0.87161,-1.08004 v 0.91295 h 0.43753 q 0.25149,0 0.37896,-0.11541 0.12919,-0.11713 0.12919,-0.34279 0,-0.22565 -0.12919,-0.33934 -0.12747,-0.11541 -0.37896,-0.11541 z" style="font-size:3.52778px;-inkscape-font-specification:'sans-serif, Normal';fill:#ff0000" id="path17413"/>
      </g>
      <g aria-label="COPY" id="text16407" style="font-size:10.5833px;line-height:1.25;letter-spacing:0px;word-spacing:0px;display:inline;fill:#0066ff;stroke-width:0.264583">
        <path d="m 157.69645,3.740946 v 0.3669029 q -0.1757,-0.1636422 -0.37552,-0.244602 -0.19809,-0.08096 -0.42202,-0.08096 -0.44097,0 -0.67524,0.2704401 -0.23427,0.2687176 -0.23427,0.7785921 0,0.5081519 0.23427,0.7785921 0.23427,0.2687176 0.67524,0.2687176 0.22393,0 0.42202,-0.08096 0.19982,-0.08096 0.37552,-0.2446019 v 0.3634578 q -0.18259,0.1240235 -0.38757,0.1860353 -0.20326,0.062012 -0.43064,0.062012 -0.58394,0 -0.91984,-0.3565676 -0.3359,-0.3582902 -0.3359,-0.9766852 0,-0.6201176 0.3359,-0.9766852 0.3359,-0.3582902 0.91984,-0.3582902 0.23082,0 0.43408,0.062012 0.20498,0.060289 0.38413,0.1825902 z" style="font-size:3.52778px;-inkscape-font-specification:'sans-serif, Normal'" id="path17394"/>
        <path d="m 159.27775,3.7788421 q -0.37896,0 -0.60289,0.282498 -0.22221,0.282498 -0.22221,0.7699793 0,0.4857588 0.22221,0.7682568 0.22393,0.282498 0.60289,0.282498 0.37896,0 0.59945,-0.282498 0.22221,-0.282498 0.22221,-0.7682568 0,-0.4874813 -0.22221,-0.7699793 -0.22049,-0.282498 -0.59945,-0.282498 z m 0,-0.2824981 q 0.54088,0 0.86472,0.3634578 0.32384,0.3617353 0.32384,0.9715176 0,0.6080598 -0.32384,0.9715176 -0.32384,0.3617352 -0.86472,0.3617352 -0.5426,0 -0.86816,-0.3617352 -0.32384,-0.3617353 -0.32384,-0.9715176 0,-0.6097823 0.32384,-0.9715176 0.32556,-0.3634578 0.86816,-0.3634578 z" style="font-size:3.52778px;-inkscape-font-specification:'sans-serif, Normal'" id="path17396"/>
        <path d="m 161.35859,3.828796 v 0.9663499 h 0.43753 q 0.24288,0 0.37551,-0.1257461 0.13264,-0.1257461 0.13264,-0.3582902 0,-0.2308215 -0.13264,-0.3565676 -0.13263,-0.125746 -0.37551,-0.125746 z m -0.34796,-0.2859431 h 0.78549 q 0.43236,0 0.65284,0.1963705 0.22221,0.1946481 0.22221,0.5718862 0,0.3806833 -0.22221,0.5753314 -0.22048,0.194648 -0.65284,0.194648 h -0.43753 v 1.0335293 h -0.34796 z" style="font-size:3.52778px;-inkscape-font-specification:'sans-serif, Normal'" id="path17398"/>
        <path d="m 162.70734,3.5428529 h 0.3738 l 0.71313,1.057645 0.70797,-1.057645 h 0.37379 l -0.9095,1.3470332 v 1.2247322 h -0.34968 V 4.8898861 Z" style="font-size:3.52778px;-inkscape-font-specification:'sans-serif, Normal'" id="path17400"/>
      </g>
    </g>
    <g id="g15116" style="display: inline;">
      <path style="fill: none; stroke-width: 0.264583; stroke: rgb(209, 209, 211);" d="M 0,10 H 300" id="path15078"/>
      <path style="fill: none; stroke-width: 0.264583; stroke: rgb(209, 209, 211);" d="M 0,30 H 300" id="path15082"/>
      <path style="fill: none; stroke-width: 0.264583; stroke: rgb(209, 209, 211);" d="M 0,50 H 300" id="path15086"/>
      <path style="fill: none; stroke-width: 0.264583; stroke: rgb(209, 209, 211);" d="M 0,70 H 300" id="path15090"/>
      <path style="fill: none; stroke-width: 0.264583; stroke: rgb(209, 209, 211);" d="M 0,90 H 300" id="path15094"/>
      <path style="fill: none; stroke-width: 0.264583; stroke: rgb(209, 209, 211);" d="M 0,110 H 300" id="path15098"/>
      <path style="fill: none; stroke-width: 0.264583; stroke: rgb(209, 209, 211);" d="M 0,130 H 300" id="path15102"/>
      <path style="fill: none; stroke-width: 0.264583; stroke: rgb(209, 209, 211);" d="M 0,150 H 300" id="path15106"/>
      <path style="fill: none; stroke-width: 0.264583; stroke: rgb(209, 209, 211);" d="M 0,170 H 300" id="path15110"/>
      <path style="fill: none; stroke-width: 0.264583; stroke: rgb(209, 209, 211);" d="M 0 190 L 211.966 190 M 288.345 189.927 L 300 190" id="path15114"/>
    </g>
    <rect width="12" height="200" style="stroke-linejoin: round; paint-order: fill; fill-opacity: 0.55; fill: rgba(151, 151, 151, 0.81);" x="-12"/>
    <rect width="12" height="200" style="stroke-linejoin: round; paint-order: fill; fill-opacity: 0.55; fill: rgba(151, 151, 151, 0.81);" x="300"/>
  </g>
  <g id="layer3" style="display: inline;" transform="matrix(1, 0, 0, 1, -6.999999999999999, -2)">
    <rect style="stroke-width: 0.154526; fill: rgb(209, 209, 211);" id="rect527" width="0.78233474" height="10.43113" x="279.55826" y="186.86078"/>
    <path d="m 287.28671,193.04701 q 0,0.99111 -0.157,1.47195 -0.1472,0.48083 -0.58878,0.77522 -0.43178,0.28458 -0.94205,0.28458 -0.50046,0 -0.93224,-0.15701 -0.42196,-0.15701 -1.00092,-0.65747 l 0.4514,-0.66728 q 0.56915,0.41214 0.86354,0.54952 0.29439,0.13739 0.56915,0.13739 0.28458,0 0.52009,-0.20608 0.23551,-0.20607 0.29439,-0.5299 0.0687,-0.33364 0.0687,-1.03036 v -4.79856 h 0.85373 z" id="path3063" style="fill: rgb(209, 209, 211);"/>
    <path d="m 291.33947,195.40213 h -0.83411 v -6.35883 h -1.16774 l 0.51027,-0.82429 h 1.49158 z" id="path3065" style="fill: rgb(209, 209, 211);"/>
    <path d="M 241.056 196.496 C 241.058 195.638 241.07 194.253 241.083 193.418 L 241.106 191.9 L 241.215 191.583 C 241.47 190.838 241.953 190.281 242.644 189.936 C 243.442 189.538 244.464 189.561 245.236 189.996 C 245.908 190.374 246.416 191.049 246.594 191.8 C 246.654 192.053 246.663 192.171 246.65 192.551 C 246.637 192.945 246.622 193.04 246.529 193.314 C 246.214 194.242 245.478 194.931 244.539 195.174 C 244.189 195.264 243.521 195.258 243.183 195.162 C 242.846 195.065 242.589 194.949 242.35 194.786 C 242.242 194.713 242.147 194.653 242.137 194.653 C 242.128 194.653 242.12 195.419 242.12 196.355 L 242.12 198.056 L 241.587 198.056 L 241.053 198.056 L 241.056 196.496 Z M 244.262 194.137 C 245.21 193.936 245.813 192.972 245.571 192.041 C 245.419 191.454 245.006 191.008 244.432 190.811 C 244.146 190.713 243.638 190.705 243.355 190.793 C 242.634 191.017 242.152 191.686 242.154 192.461 C 242.157 193.579 243.154 194.372 244.262 194.137 L 244.262 194.137 Z M 237.326 195.253 C 236.698 195.167 236.178 194.917 235.736 194.491 C 234.94 193.722 234.664 192.59 235.015 191.54 C 235.166 191.091 235.343 190.812 235.711 190.449 C 236.226 189.94 236.773 189.696 237.483 189.658 C 238.105 189.626 238.659 189.764 239.119 190.066 L 239.385 190.241 L 239.385 190.023 L 239.385 189.806 L 239.539 189.827 C 239.624 189.839 239.872 189.848 240.09 189.848 L 240.486 189.848 L 240.486 192.534 L 240.486 195.22 L 239.935 195.22 L 239.385 195.22 L 239.385 194.939 L 239.385 194.659 L 239.159 194.81 C 238.871 195.004 238.655 195.098 238.31 195.182 C 237.973 195.264 237.603 195.291 237.326 195.253 Z M 238.218 194.092 C 238.531 193.983 238.691 193.885 238.904 193.671 C 239.441 193.134 239.551 192.313 239.178 191.611 C 238.909 191.104 238.254 190.717 237.666 190.717 C 237.428 190.717 237.064 190.801 236.849 190.905 C 236.62 191.016 236.253 191.376 236.139 191.602 C 235.869 192.135 235.869 192.766 236.139 193.299 C 236.326 193.668 236.819 194.037 237.258 194.137 C 237.526 194.199 237.973 194.177 238.218 194.092 L 238.218 194.092 Z M 259.005 195.252 C 257.833 195.091 256.892 194.229 256.614 193.062 C 256.533 192.724 256.54 192.139 256.631 191.785 C 256.861 190.877 257.528 190.132 258.394 189.816 C 259.161 189.537 260.067 189.614 260.754 190.017 C 261.037 190.183 261.226 190.335 261.48 190.599 L 261.672 190.799 L 261.672 190.307 L 261.673 189.815 L 261.923 189.815 L 262.173 189.815 L 262.173 192.534 L 262.173 195.253 L 261.923 195.253 L 261.673 195.253 L 261.672 194.678 L 261.671 194.102 L 261.514 194.284 C 261.286 194.545 260.909 194.833 260.595 194.986 C 260.13 195.21 259.486 195.318 259.006 195.252 L 259.005 195.252 Z M 260.065 194.644 C 261.317 194.201 261.968 192.828 261.506 191.607 C 261.198 190.793 260.375 190.208 259.47 190.159 C 259.051 190.137 258.743 190.203 258.338 190.402 C 257.804 190.666 257.341 191.197 257.163 191.75 C 257.064 192.057 257.042 192.599 257.115 192.928 C 257.301 193.764 258.006 194.496 258.821 194.701 C 259.141 194.782 259.757 194.753 260.065 194.644 L 260.065 194.644 Z M 272.983 195.259 C 272.938 195.244 272.939 192.337 272.984 192.058 C 273.192 190.776 274.237 189.762 275.453 189.661 L 275.719 189.639 L 275.719 189.768 C 275.72 189.84 275.729 189.955 275.74 190.024 L 275.761 190.149 L 275.632 190.149 C 275.4 190.151 275.04 190.245 274.793 190.37 C 274.319 190.609 273.804 191.139 273.649 191.547 C 273.495 191.955 273.484 192.099 273.484 193.721 C 273.484 194.564 273.472 195.254 273.459 195.255 C 273.288 195.265 273.009 195.268 272.983 195.259 L 272.983 195.259 Z M 224.988 195.204 C 224.452 195.119 223.57 194.823 223.57 194.729 C 223.57 194.661 223.866 193.982 223.924 193.916 C 223.967 193.867 223.995 193.871 224.238 193.957 C 224.588 194.081 225.316 194.186 225.822 194.185 C 226.478 194.185 226.909 194.055 227.153 193.784 C 227.291 193.632 227.305 193.524 227.206 193.384 C 227.065 193.187 226.769 193.097 225.838 192.967 C 224.911 192.838 224.295 192.599 223.884 192.211 C 223.576 191.921 223.443 191.546 223.506 191.146 C 223.614 190.463 224.16 189.973 225.088 189.727 C 225.389 189.647 225.481 189.638 226.039 189.636 C 226.499 189.634 226.74 189.649 226.989 189.694 C 227.52 189.791 228.207 190.028 228.207 190.114 C 228.207 190.196 227.859 190.983 227.823 190.983 C 227.8 190.983 227.726 190.96 227.658 190.931 C 227.454 190.846 226.951 190.753 226.477 190.713 C 225.989 190.672 225.459 190.707 225.141 190.801 C 224.804 190.901 224.635 191.152 224.751 191.377 C 224.88 191.628 225.245 191.772 226.115 191.918 C 226.896 192.05 227.136 192.105 227.411 192.217 C 227.734 192.348 227.935 192.475 228.113 192.657 C 228.628 193.186 228.589 193.966 228.018 194.533 C 227.72 194.83 227.153 195.103 226.628 195.204 C 226.306 195.265 225.371 195.266 224.988 195.204 L 224.988 195.204 Z M 228.891 193.844 C 228.914 192.041 228.916 192.017 229.057 191.596 C 229.418 190.516 230.143 189.895 231.273 189.697 C 232.685 189.45 233.985 190.282 234.395 191.697 L 234.48 191.991 L 234.48 193.622 L 234.48 195.254 L 233.963 195.254 L 233.446 195.254 L 233.445 193.727 C 233.444 192.236 233.443 192.196 233.369 191.982 C 233.112 191.226 232.428 190.716 231.672 190.716 C 231.197 190.716 230.885 190.839 230.55 191.161 C 230.252 191.447 230.099 191.691 230.01 192.021 C 229.937 192.293 229.936 192.32 229.954 193.775 L 229.973 195.254 L 229.423 195.254 L 228.873 195.254 L 228.891 193.844 Z M 247.613 193.41 C 247.633 191.466 247.642 191.352 247.799 190.985 C 247.902 190.745 248.148 190.399 248.346 190.218 C 248.733 189.865 249.19 189.686 249.778 189.657 C 250.212 189.636 250.524 189.705 250.91 189.909 C 251.187 190.054 251.559 190.392 251.723 190.646 C 251.821 190.799 251.845 190.819 251.876 190.775 C 252.239 190.259 252.457 190.06 252.868 189.867 C 254.065 189.306 255.486 189.871 255.903 191.072 C 256.061 191.527 256.067 191.619 256.067 193.487 L 256.067 195.254 L 255.8 195.254 L 255.533 195.254 L 255.533 193.425 C 255.533 191.426 255.535 191.45 255.333 191.05 C 255.007 190.405 254.212 190.039 253.477 190.193 C 252.87 190.321 252.434 190.708 252.194 191.331 L 252.103 191.567 L 252.091 193.375 C 252.083 194.37 252.066 195.195 252.051 195.21 C 252.036 195.225 251.924 195.237 251.802 195.237 L 251.579 195.237 L 251.563 193.368 C 251.546 191.544 251.544 191.495 251.472 191.305 C 251.36 191.008 251.251 190.844 251.03 190.639 C 250.477 190.127 249.7 190.008 249.051 190.337 C 248.835 190.446 248.439 190.842 248.318 191.069 C 248.13 191.423 248.126 191.47 248.126 193.442 L 248.126 195.254 L 247.86 195.254 L 247.595 195.254 L 247.613 193.41 Z M 263.007 191.033 L 263.007 186.812 L 263.257 186.812 L 263.507 186.812 L 263.507 189.632 C 263.507 191.182 263.519 192.45 263.532 192.45 C 263.546 192.449 264.195 191.819 264.975 191.049 L 266.393 189.65 L 266.76 189.651 L 267.127 189.652 L 265.709 191.053 L 264.291 192.453 L 265.691 193.832 L 267.091 195.211 L 266.767 195.235 L 266.442 195.259 L 266.268 195.108 C 266.172 195.025 265.613 194.476 265.026 193.888 L 263.958 192.82 L 263.749 193.027 L 263.541 193.234 L 263.541 193.719 C 263.541 193.985 263.531 194.44 263.519 194.729 L 263.497 195.254 L 263.252 195.254 L 263.007 195.254 L 263.007 191.034 L 263.007 191.033 Z M 269.129 195.205 C 268.809 195.13 268.546 195.028 268.304 194.884 C 267.674 194.51 267.277 194.017 267.04 193.314 C 266.842 192.727 266.871 191.981 267.116 191.393 C 267.445 190.601 268.178 189.953 268.996 189.729 C 269.292 189.648 269.905 189.63 270.235 189.692 C 270.875 189.813 271.467 190.158 271.87 190.646 C 272.04 190.852 272.282 191.265 272.248 191.292 C 272.239 191.3 272.015 191.43 271.748 191.582 C 271.288 191.846 270.166 192.492 268.62 193.383 C 268.21 193.62 267.911 193.812 267.911 193.84 C 267.911 193.867 268.02 193.997 268.153 194.129 C 268.568 194.542 269.048 194.731 269.68 194.733 C 270.596 194.735 271.357 194.282 271.726 193.516 C 271.809 193.343 271.902 193.112 271.932 193.001 L 271.987 192.801 L 272.255 192.66 L 272.523 192.518 L 272.501 192.71 C 272.46 193.058 272.379 193.331 272.215 193.669 C 271.867 194.39 271.236 194.925 270.455 195.159 C 270.159 195.248 269.421 195.274 269.129 195.205 Z M 268.399 192.913 C 268.819 192.672 269.568 192.241 270.064 191.956 C 270.559 191.671 271.09 191.367 271.244 191.28 C 271.397 191.193 271.537 191.107 271.555 191.09 C 271.596 191.049 271.137 190.642 270.864 190.475 C 270.226 190.088 269.387 190.043 268.726 190.362 C 268.138 190.645 267.707 191.153 267.505 191.797 C 267.42 192.066 267.39 192.587 267.442 192.858 C 267.48 193.052 267.589 193.352 267.621 193.352 C 267.629 193.352 267.979 193.154 268.399 192.913 Z" id="path24" fill-rule="nonzero" style="fill: rgb(209, 209, 211);"/>
  </g>
</svg>
