<?xml version="1.0" encoding="utf-8"?>
<svg viewBox="0 0 230 250" xmlns="http://www.w3.org/2000/svg" author="https://github.com/macdylan/3dp-configs">
  <g id="Page-1" stroke="none" stroke-width="1" fill="none" fill-rule="evenodd" transform="matrix(1, 0, 0, 1, 0, 1.7763568394002505e-15)">
    <g id="A250_texture">
      <rect id="rect835" stroke="#000000" stroke-width="0.264787" stroke-linecap="round" width="230" height="250" style=""/>
      <g style="">
        <line x1="15" y1="5" x2="15" y2="245" id="path837-0-1-9-5-9-3-6" stroke-width="0.264999" style="stroke: rgb(209, 209, 211);"/>
        <line x1="65" y1="5" x2="65" y2="245" id="line-4" stroke-width="0.264999" style="stroke: rgb(209, 209, 211);"/>
        <line x1="115" y1="5" x2="115" y2="245" id="path837-0-1-9-5-9-3-6-4-6-8" stroke-width="0.264999" style="stroke: rgb(209, 209, 211);"/>
        <path d="M 165 15 L 165 245" id="path837-0-1-9-5-9-3-6-4-6" stroke-width="0.264999" style="stroke: rgb(209, 209, 211);"/>
        <path d="M 215 5 L 215 213.518 M 215 231.544 L 215 245" id="path-1" stroke-width="0.264999" style="stroke: rgb(209, 209, 211);"/>
      </g>
      <g transform="matrix(1, 0, 0, 1, 0, 36)" style="">
        <line x1="5" y1="199" x2="225" y2="199" id="path837-0-1-9-5-9" stroke-width="0.264999" style="fill: rgb(209, 209, 211); stroke: rgb(209, 209, 211);"/>
        <line x1="5" y1="64" x2="225" y2="64" id="path837-0-1" stroke-width="0.264999" style="fill: rgb(209, 209, 211); stroke: rgb(209, 209, 211);"/>
        <line x1="5" y1="114" x2="225" y2="114" id="path837-0-1-9" stroke-width="0.264999" style="fill: rgb(209, 209, 211); stroke: rgb(209, 209, 211);"/>
        <line x1="5" y1="164" x2="225" y2="164" id="path837-0-1-9-5" stroke-width="0.264999" style="fill: rgb(209, 209, 211); stroke: rgb(209, 209, 211);"/>
        <line x1="5" y1="14" x2="225" y2="14" id="line-1" stroke-width="0.264999" style="fill: rgb(209, 209, 211); stroke: rgb(209, 209, 211);"/>
      </g>
      <path d="M 187.577 227.752 C 187.578 226.771 187.592 225.188 187.607 224.234 L 187.634 222.499 L 187.758 222.136 C 188.05 221.284 188.602 220.647 189.391 220.254 C 190.304 219.798 191.472 219.825 192.354 220.322 C 193.123 220.754 193.703 221.525 193.907 222.384 C 193.975 222.674 193.985 222.808 193.971 223.242 C 193.956 223.693 193.938 223.801 193.832 224.114 C 193.472 225.176 192.631 225.962 191.558 226.24 C 191.158 226.344 190.394 226.337 190.008 226.226 C 189.623 226.116 189.329 225.984 189.055 225.797 C 188.933 225.713 188.823 225.645 188.813 225.645 C 188.802 225.645 188.793 226.52 188.793 227.59 L 188.793 229.535 L 188.183 229.535 L 187.573 229.535 L 187.577 227.752 Z M 191.24 225.056 C 192.325 224.826 193.013 223.724 192.737 222.66 C 192.564 221.989 192.091 221.479 191.435 221.254 C 191.109 221.142 190.528 221.132 190.204 221.233 C 189.38 221.489 188.83 222.254 188.832 223.139 C 188.835 224.417 189.975 225.324 191.24 225.056 Z M 183.313 226.331 C 182.596 226.232 182.001 225.947 181.496 225.459 C 180.586 224.581 180.27 223.287 180.672 222.087 C 180.844 221.574 181.047 221.255 181.467 220.84 C 182.055 220.258 182.681 219.979 183.492 219.936 C 184.204 219.899 184.837 220.056 185.363 220.402 L 185.666 220.602 L 185.666 220.353 L 185.666 220.105 L 185.843 220.129 C 185.94 220.142 186.223 220.153 186.472 220.153 L 186.924 220.153 L 186.924 223.223 L 186.924 226.293 L 186.295 226.293 L 185.666 226.293 L 185.666 225.972 L 185.666 225.652 L 185.409 225.824 C 185.079 226.046 184.832 226.154 184.438 226.25 C 184.053 226.344 183.629 226.374 183.313 226.331 Z M 184.333 225.003 C 184.69 224.879 184.873 224.767 185.117 224.523 C 185.731 223.909 185.856 222.97 185.43 222.168 C 185.122 221.588 184.374 221.146 183.702 221.146 C 183.43 221.146 183.013 221.242 182.768 221.361 C 182.507 221.488 182.087 221.9 181.956 222.157 C 181.647 222.767 181.647 223.488 181.956 224.098 C 182.17 224.519 182.733 224.941 183.235 225.056 C 183.541 225.125 184.053 225.101 184.333 225.003 Z M 208.092 226.33 C 206.753 226.146 205.677 225.16 205.359 223.827 C 205.266 223.44 205.275 222.772 205.378 222.366 C 205.642 221.329 206.404 220.477 207.394 220.117 C 208.27 219.797 209.306 219.885 210.092 220.346 C 210.415 220.535 210.631 220.709 210.921 221.011 L 211.141 221.24 L 211.141 220.678 L 211.141 220.115 L 211.427 220.115 L 211.713 220.115 L 211.713 223.223 L 211.713 226.331 L 211.427 226.331 L 211.141 226.331 L 211.141 225.673 L 211.14 225.016 L 210.96 225.223 C 210.7 225.522 210.268 225.851 209.909 226.025 C 209.378 226.282 208.642 226.406 208.093 226.33 L 208.092 226.33 Z M 209.304 225.635 C 210.735 225.128 211.479 223.559 210.951 222.163 C 210.599 221.233 209.659 220.564 208.624 220.508 C 208.145 220.483 207.792 220.558 207.33 220.787 C 206.72 221.088 206.19 221.695 205.987 222.327 C 205.874 222.678 205.849 223.297 205.932 223.673 C 206.145 224.629 206.95 225.466 207.882 225.7 C 208.247 225.792 208.952 225.76 209.304 225.635 Z M 224.069 226.338 C 224.017 226.32 224.019 222.997 224.071 222.678 C 224.308 221.214 225.502 220.055 226.893 219.939 L 227.196 219.914 L 227.197 220.062 C 227.197 220.144 227.208 220.275 227.221 220.354 L 227.245 220.497 L 227.097 220.497 C 226.832 220.499 226.421 220.606 226.137 220.749 C 225.596 221.022 225.007 221.629 224.83 222.095 C 224.654 222.561 224.641 222.726 224.641 224.58 C 224.641 225.543 224.628 226.332 224.613 226.333 C 224.418 226.345 224.099 226.348 224.069 226.338 Z M 169.21 226.275 C 168.599 226.178 167.589 225.839 167.589 225.731 C 167.589 225.654 167.928 224.878 167.995 224.802 C 168.044 224.746 168.076 224.751 168.353 224.849 C 168.754 224.991 169.585 225.111 170.164 225.11 C 170.914 225.109 171.406 224.961 171.686 224.652 C 171.843 224.478 171.859 224.354 171.745 224.194 C 171.585 223.969 171.247 223.866 170.183 223.718 C 169.123 223.57 168.418 223.298 167.949 222.854 C 167.597 222.522 167.445 222.093 167.517 221.637 C 167.64 220.855 168.264 220.296 169.325 220.014 C 169.669 219.923 169.774 219.913 170.412 219.91 C 170.938 219.909 171.214 219.925 171.498 219.977 C 172.105 220.087 172.89 220.358 172.89 220.457 C 172.89 220.551 172.493 221.45 172.451 221.45 C 172.425 221.45 172.34 221.423 172.262 221.391 C 172.029 221.293 171.454 221.187 170.912 221.142 C 170.355 221.095 169.749 221.135 169.386 221.243 C 169.001 221.357 168.807 221.644 168.94 221.901 C 169.088 222.187 169.504 222.352 170.498 222.519 C 171.392 222.67 171.666 222.733 171.98 222.861 C 172.349 223.011 172.58 223.155 172.782 223.363 C 173.371 223.968 173.326 224.86 172.675 225.508 C 172.334 225.847 171.686 226.16 171.085 226.274 C 170.717 226.345 169.649 226.345 169.21 226.275 Z M 173.672 224.72 C 173.699 222.66 173.701 222.633 173.862 222.151 C 174.275 220.917 175.103 220.207 176.394 219.98 C 178.008 219.698 179.494 220.649 179.963 222.266 L 180.06 222.603 L 180.06 224.467 L 180.06 226.331 L 179.469 226.331 L 178.878 226.331 L 178.877 224.587 C 178.876 222.882 178.875 222.836 178.791 222.592 C 178.496 221.728 177.714 221.145 176.851 221.145 C 176.307 221.145 175.951 221.286 175.568 221.654 C 175.228 221.981 175.053 222.26 174.951 222.637 C 174.867 222.947 174.866 222.979 174.887 224.642 L 174.909 226.331 L 174.28 226.331 L 173.652 226.331 L 173.672 224.72 Z M 195.071 224.224 C 195.094 222.003 195.104 221.872 195.283 221.453 C 195.401 221.178 195.683 220.783 195.909 220.576 C 196.351 220.172 196.874 219.968 197.545 219.935 C 198.042 219.911 198.398 219.99 198.84 220.222 C 199.156 220.388 199.582 220.775 199.769 221.066 C 199.881 221.24 199.908 221.263 199.944 221.212 C 200.359 220.623 200.607 220.395 201.078 220.175 C 202.445 219.534 204.07 220.179 204.546 221.552 C 204.727 222.072 204.734 222.177 204.734 224.313 L 204.734 226.331 L 204.429 226.331 L 204.124 226.331 L 204.124 224.241 C 204.124 221.957 204.126 221.984 203.895 221.526 C 203.522 220.79 202.614 220.371 201.774 220.548 C 201.08 220.694 200.582 221.135 200.307 221.848 L 200.204 222.117 L 200.189 224.184 C 200.181 225.321 200.161 226.265 200.144 226.282 C 200.127 226.298 199.999 226.312 199.859 226.312 L 199.605 226.312 L 199.586 224.177 C 199.567 222.092 199.564 222.036 199.482 221.819 C 199.354 221.479 199.229 221.291 198.977 221.057 C 198.345 220.472 197.457 220.336 196.715 220.711 C 196.468 220.836 196.015 221.289 195.877 221.548 C 195.662 221.953 195.658 222.007 195.658 224.261 L 195.658 226.331 L 195.354 226.331 L 195.05 226.331 L 195.071 224.224 Z M 212.666 221.507 L 212.666 216.683 L 212.952 216.683 L 213.238 216.683 L 213.238 219.905 C 213.238 221.678 213.251 223.127 213.267 223.127 C 213.283 223.126 214.025 222.406 214.916 221.526 L 216.537 219.926 L 216.957 219.928 L 217.376 219.929 L 215.755 221.53 L 214.135 223.13 L 215.735 224.706 L 217.335 226.283 L 216.964 226.31 L 216.593 226.337 L 216.393 226.165 C 216.284 226.07 215.645 225.443 214.974 224.771 L 213.754 223.55 L 213.515 223.786 L 213.277 224.023 L 213.277 224.577 C 213.277 224.882 213.265 225.401 213.252 225.732 L 213.227 226.332 L 212.947 226.332 L 212.666 226.332 L 212.666 221.508 L 212.666 221.507 Z M 219.664 226.276 C 219.298 226.19 218.997 226.073 218.721 225.909 C 218.001 225.481 217.547 224.918 217.276 224.115 C 217.05 223.443 217.083 222.591 217.363 221.918 C 217.739 221.014 218.577 220.273 219.512 220.017 C 219.851 219.924 220.55 219.903 220.928 219.975 C 221.659 220.113 222.336 220.508 222.797 221.065 C 222.991 221.3 223.267 221.772 223.229 221.804 C 223.219 221.812 222.962 221.961 222.658 222.135 C 222.131 222.437 220.85 223.175 219.083 224.193 C 218.614 224.464 218.272 224.684 218.272 224.716 C 218.272 224.747 218.397 224.895 218.549 225.047 C 219.023 225.518 219.571 225.735 220.294 225.736 C 221.34 225.739 222.211 225.221 222.632 224.345 C 222.727 224.148 222.833 223.883 222.867 223.757 L 222.93 223.528 L 223.237 223.367 L 223.544 223.205 L 223.518 223.424 C 223.471 223.822 223.378 224.134 223.192 224.52 C 222.793 225.345 222.072 225.956 221.18 226.223 C 220.842 226.325 219.998 226.355 219.664 226.276 Z M 218.83 223.656 C 219.31 223.381 220.166 222.889 220.732 222.563 C 221.298 222.237 221.906 221.889 222.081 221.789 C 222.257 221.69 222.417 221.592 222.437 221.572 C 222.483 221.525 221.959 221.06 221.647 220.87 C 220.917 220.427 219.958 220.376 219.203 220.74 C 218.532 221.064 218.038 221.644 217.807 222.381 C 217.711 222.688 217.676 223.283 217.736 223.593 C 217.779 223.815 217.903 224.158 217.941 224.158 C 217.95 224.158 218.35 223.932 218.83 223.656 Z" id="path24" fill-rule="nonzero" style="fill: rgb(209, 209, 211);"/>
      <g transform="matrix(1, 0, 0, 1, -11.469999, -12.299103)" style="">
        <path d="M 20.751 258.167 L 20.751 260.487 L 21.314 260.487 Q 21.372 260.487 21.398 260.509 Q 21.423 260.532 21.423 260.569 Q 21.423 260.604 21.398 260.628 Q 21.372 260.651 21.314 260.651 L 20.025 260.651 Q 19.966 260.651 19.941 260.628 Q 19.915 260.604 19.915 260.569 Q 19.915 260.532 19.941 260.509 Q 19.966 260.487 20.025 260.487 L 20.587 260.487 L 20.587 258.393 L 20.052 258.561 Q 20.013 258.573 19.995 258.573 Q 19.966 258.573 19.942 258.548 Q 19.917 258.524 19.917 258.491 Q 19.917 258.462 19.937 258.436 Q 19.952 258.421 20.001 258.403 Z M 22.616 258.366 L 22.616 259.169 Q 22.761 259.108 22.894 259.078 Q 23.027 259.047 23.146 259.047 Q 23.454 259.047 23.662 259.264 Q 23.87 259.481 23.87 259.835 Q 23.87 260.225 23.636 260.467 Q 23.402 260.71 23.05 260.71 Q 22.818 260.71 22.603 260.606 Q 22.45 260.534 22.325 260.426 Q 22.251 260.362 22.251 260.319 Q 22.251 260.284 22.275 260.259 Q 22.298 260.235 22.329 260.235 Q 22.363 260.235 22.4 260.27 Q 22.695 260.546 23.042 260.546 Q 23.329 260.546 23.517 260.349 Q 23.704 260.153 23.704 259.827 Q 23.704 259.549 23.542 259.38 Q 23.38 259.212 23.13 259.212 Q 22.874 259.212 22.618 259.346 Q 22.556 259.378 22.531 259.378 Q 22.495 259.378 22.474 259.354 Q 22.452 259.331 22.452 259.288 L 22.452 258.2 L 23.597 258.2 Q 23.656 258.2 23.681 258.223 Q 23.706 258.247 23.706 258.284 Q 23.706 258.319 23.681 258.342 Q 23.656 258.366 23.597 258.366 Z" style="fill: rgb(209, 209, 211);"/>
      </g>
      <g transform="matrix(1, 0, 0, 1, -11.469999, -12.299103)" style="">
        <path d="M 70.181 259.614 Q 70.333 259.389 70.494 259.282 Q 70.656 259.174 70.853 259.174 Q 71.115 259.174 71.318 259.392 Q 71.521 259.61 71.521 259.93 Q 71.521 260.223 71.335 260.466 Q 71.15 260.71 70.824 260.71 Q 70.611 260.71 70.426 260.579 Q 70.241 260.448 70.136 260.176 Q 70.005 259.839 70.005 259.428 Q 70.005 259.12 70.128 258.854 Q 70.222 258.649 70.378 258.494 Q 70.534 258.339 70.742 258.24 Q 70.95 258.141 71.193 258.141 Q 71.357 258.141 71.466 258.208 Q 71.513 258.237 71.513 258.286 Q 71.513 258.321 71.491 258.343 Q 71.47 258.366 71.437 258.366 Q 71.411 258.366 71.376 258.346 Q 71.296 258.307 71.177 258.307 Q 70.796 258.307 70.483 258.634 Q 70.169 258.962 70.169 259.413 Q 70.169 259.477 70.181 259.614 Z M 70.218 259.885 Q 70.292 260.241 70.451 260.393 Q 70.611 260.546 70.827 260.546 Q 71.046 260.546 71.201 260.375 Q 71.357 260.204 71.357 259.93 Q 71.357 259.674 71.2 259.506 Q 71.044 259.339 70.847 259.339 Q 70.658 259.339 70.482 259.501 Q 70.365 259.608 70.218 259.885 Z M 72.616 258.366 L 72.616 259.169 Q 72.761 259.108 72.894 259.078 Q 73.027 259.047 73.146 259.047 Q 73.454 259.047 73.662 259.264 Q 73.87 259.481 73.87 259.835 Q 73.87 260.225 73.636 260.467 Q 73.402 260.71 73.05 260.71 Q 72.818 260.71 72.603 260.606 Q 72.45 260.534 72.325 260.426 Q 72.251 260.362 72.251 260.319 Q 72.251 260.284 72.275 260.259 Q 72.298 260.235 72.329 260.235 Q 72.363 260.235 72.4 260.27 Q 72.695 260.546 73.042 260.546 Q 73.329 260.546 73.517 260.349 Q 73.704 260.153 73.704 259.827 Q 73.704 259.549 73.542 259.38 Q 73.38 259.212 73.13 259.212 Q 72.874 259.212 72.618 259.346 Q 72.556 259.378 72.531 259.378 Q 72.495 259.378 72.474 259.354 Q 72.452 259.331 72.452 259.288 L 72.452 258.2 L 73.597 258.2 Q 73.656 258.2 73.681 258.223 Q 73.706 258.247 73.706 258.284 Q 73.706 258.319 73.681 258.342 Q 73.656 258.366 73.597 258.366 Z" style="fill: rgb(209, 209, 211);"/>
      </g>
      <g transform="matrix(1, 0, 0, 1, -11.469999, -12.299103)" style="">
        <path d="M 119.751 258.167 L 119.751 260.487 L 120.314 260.487 Q 120.372 260.487 120.398 260.509 Q 120.423 260.532 120.423 260.569 Q 120.423 260.604 120.398 260.628 Q 120.372 260.651 120.314 260.651 L 119.025 260.651 Q 118.966 260.651 118.941 260.628 Q 118.915 260.604 118.915 260.569 Q 118.915 260.532 118.941 260.509 Q 118.966 260.487 119.025 260.487 L 119.587 260.487 L 119.587 258.393 L 119.052 258.561 Q 119.013 258.573 118.995 258.573 Q 118.966 258.573 118.942 258.548 Q 118.917 258.524 118.917 258.491 Q 118.917 258.462 118.937 258.436 Q 118.952 258.421 119.001 258.403 Z M 122.15 258.167 L 122.15 260.487 L 122.712 260.487 Q 122.771 260.487 122.796 260.509 Q 122.822 260.532 122.822 260.569 Q 122.822 260.604 122.796 260.628 Q 122.771 260.651 122.712 260.651 L 121.423 260.651 Q 121.365 260.651 121.339 260.628 Q 121.314 260.604 121.314 260.569 Q 121.314 260.532 121.339 260.509 Q 121.365 260.487 121.423 260.487 L 121.986 260.487 L 121.986 258.393 L 121.45 258.561 Q 121.411 258.573 121.394 258.573 Q 121.365 258.573 121.34 258.548 Q 121.316 258.524 121.316 258.491 Q 121.316 258.462 121.335 258.436 Q 121.351 258.421 121.4 258.403 Z M 124.015 258.366 L 124.015 259.169 Q 124.159 259.108 124.292 259.078 Q 124.425 259.047 124.544 259.047 Q 124.853 259.047 125.061 259.264 Q 125.269 259.481 125.269 259.835 Q 125.269 260.225 125.034 260.467 Q 124.8 260.71 124.449 260.71 Q 124.216 260.71 124.001 260.606 Q 123.849 260.534 123.724 260.426 Q 123.65 260.362 123.65 260.319 Q 123.65 260.284 123.673 260.259 Q 123.697 260.235 123.728 260.235 Q 123.761 260.235 123.798 260.27 Q 124.093 260.546 124.441 260.546 Q 124.728 260.546 124.915 260.349 Q 125.103 260.153 125.103 259.827 Q 125.103 259.549 124.941 259.38 Q 124.779 259.212 124.529 259.212 Q 124.273 259.212 124.017 259.346 Q 123.954 259.378 123.929 259.378 Q 123.894 259.378 123.872 259.354 Q 123.851 259.331 123.851 259.288 L 123.851 258.2 L 124.995 258.2 Q 125.054 258.2 125.079 258.223 Q 125.105 258.247 125.105 258.284 Q 125.105 258.319 125.079 258.342 Q 125.054 258.366 124.995 258.366 Z" style="fill: rgb(209, 209, 211);"/>
      </g>
      <g transform="matrix(1, 0, 0, 1, -11.469999, -12.299103)" style="">
        <path d="M 169.221 258.167 L 169.221 260.487 L 169.784 260.487 Q 169.842 260.487 169.868 260.509 Q 169.893 260.532 169.893 260.569 Q 169.893 260.604 169.868 260.628 Q 169.842 260.651 169.784 260.651 L 168.495 260.651 Q 168.436 260.651 168.411 260.628 Q 168.385 260.604 168.385 260.569 Q 168.385 260.532 168.411 260.509 Q 168.436 260.487 168.495 260.487 L 169.057 260.487 L 169.057 258.393 L 168.522 258.561 Q 168.483 258.573 168.465 258.573 Q 168.436 258.573 168.412 258.548 Q 168.387 258.524 168.387 258.491 Q 168.387 258.462 168.407 258.436 Q 168.422 258.421 168.471 258.403 Z M 171.049 259.614 Q 171.202 259.389 171.363 259.282 Q 171.524 259.174 171.721 259.174 Q 171.983 259.174 172.186 259.392 Q 172.389 259.61 172.389 259.93 Q 172.389 260.223 172.204 260.466 Q 172.018 260.71 171.692 260.71 Q 171.479 260.71 171.294 260.579 Q 171.11 260.448 171.004 260.176 Q 170.874 259.839 170.874 259.428 Q 170.874 259.12 170.997 258.854 Q 171.09 258.649 171.247 258.494 Q 171.403 258.339 171.611 258.24 Q 171.819 258.141 172.061 258.141 Q 172.225 258.141 172.335 258.208 Q 172.381 258.237 172.381 258.286 Q 172.381 258.321 172.36 258.343 Q 172.338 258.366 172.305 258.366 Q 172.28 258.366 172.245 258.346 Q 172.165 258.307 172.045 258.307 Q 171.665 258.307 171.351 258.634 Q 171.038 258.962 171.038 259.413 Q 171.038 259.477 171.049 259.614 Z M 171.086 259.885 Q 171.161 260.241 171.32 260.393 Q 171.479 260.546 171.696 260.546 Q 171.915 260.546 172.07 260.375 Q 172.225 260.204 172.225 259.93 Q 172.225 259.674 172.069 259.506 Q 171.913 259.339 171.715 259.339 Q 171.526 259.339 171.35 259.501 Q 171.233 259.608 171.086 259.885 Z M 173.485 258.366 L 173.485 259.169 Q 173.629 259.108 173.762 259.078 Q 173.895 259.047 174.014 259.047 Q 174.323 259.047 174.531 259.264 Q 174.739 259.481 174.739 259.835 Q 174.739 260.225 174.504 260.467 Q 174.27 260.71 173.919 260.71 Q 173.686 260.71 173.471 260.606 Q 173.319 260.534 173.194 260.426 Q 173.12 260.362 173.12 260.319 Q 173.12 260.284 173.143 260.259 Q 173.167 260.235 173.198 260.235 Q 173.231 260.235 173.268 260.27 Q 173.563 260.546 173.911 260.546 Q 174.198 260.546 174.385 260.349 Q 174.573 260.153 174.573 259.827 Q 174.573 259.549 174.411 259.38 Q 174.249 259.212 173.999 259.212 Q 173.743 259.212 173.487 259.346 Q 173.424 259.378 173.399 259.378 Q 173.364 259.378 173.342 259.354 Q 173.321 259.331 173.321 259.288 L 173.321 258.2 L 174.465 258.2 Q 174.524 258.2 174.549 258.223 Q 174.575 258.247 174.575 258.284 Q 174.575 258.319 174.549 258.342 Q 174.524 258.366 174.465 258.366 Z" style="fill: rgb(209, 209, 211);"/>
      </g>
      <g transform="matrix(1, 0, 0, 1, -11.469999, -12.299103)" style="">
        <path d="M 218.964 260.487 L 220.224 260.487 L 220.224 260.422 Q 220.224 260.364 220.247 260.339 Q 220.271 260.313 220.308 260.313 Q 220.343 260.313 220.366 260.339 Q 220.39 260.364 220.39 260.422 L 220.39 260.651 L 218.804 260.651 L 218.804 260.409 Q 219.304 259.96 219.777 259.495 Q 219.997 259.278 220.079 259.176 Q 220.161 259.075 220.192 258.998 Q 220.222 258.921 220.222 258.842 Q 220.222 258.631 220.052 258.469 Q 219.882 258.307 219.642 258.307 Q 219.427 258.307 219.261 258.43 Q 219.095 258.553 219.046 258.735 Q 219.034 258.782 219.017 258.796 Q 218.993 258.815 218.962 258.815 Q 218.929 258.815 218.907 258.793 Q 218.884 258.77 218.884 258.739 Q 218.884 258.645 218.987 258.485 Q 219.089 258.325 219.27 258.233 Q 219.45 258.141 219.64 258.141 Q 219.947 258.141 220.167 258.354 Q 220.388 258.567 220.388 258.837 Q 220.388 258.95 220.351 259.045 Q 220.314 259.139 220.225 259.252 Q 220.136 259.364 219.906 259.59 Q 219.327 260.161 218.964 260.475 Z M 222.15 258.167 L 222.15 260.487 L 222.712 260.487 Q 222.771 260.487 222.796 260.509 Q 222.822 260.532 222.822 260.569 Q 222.822 260.604 222.796 260.628 Q 222.771 260.651 222.712 260.651 L 221.423 260.651 Q 221.365 260.651 221.339 260.628 Q 221.314 260.604 221.314 260.569 Q 221.314 260.532 221.339 260.509 Q 221.365 260.487 221.423 260.487 L 221.986 260.487 L 221.986 258.393 L 221.45 258.561 Q 221.411 258.573 221.394 258.573 Q 221.365 258.573 221.34 258.548 Q 221.316 258.524 221.316 258.491 Q 221.316 258.462 221.335 258.436 Q 221.351 258.421 221.4 258.403 Z M 224.015 258.366 L 224.015 259.169 Q 224.159 259.108 224.292 259.078 Q 224.425 259.047 224.544 259.047 Q 224.853 259.047 225.061 259.264 Q 225.269 259.481 225.269 259.835 Q 225.269 260.225 225.034 260.467 Q 224.8 260.71 224.449 260.71 Q 224.216 260.71 224.001 260.606 Q 223.849 260.534 223.724 260.426 Q 223.65 260.362 223.65 260.319 Q 223.65 260.284 223.673 260.259 Q 223.697 260.235 223.728 260.235 Q 223.761 260.235 223.798 260.27 Q 224.093 260.546 224.441 260.546 Q 224.728 260.546 224.915 260.349 Q 225.103 260.153 225.103 259.827 Q 225.103 259.549 224.941 259.38 Q 224.779 259.212 224.529 259.212 Q 224.273 259.212 224.017 259.346 Q 223.954 259.378 223.929 259.378 Q 223.894 259.378 223.872 259.354 Q 223.851 259.331 223.851 259.288 L 223.851 258.2 L 224.995 258.2 Q 225.054 258.2 225.079 258.223 Q 225.105 258.247 225.105 258.284 Q 225.105 258.319 225.079 258.342 Q 225.054 258.366 224.995 258.366 Z" style="fill: rgb(209, 209, 211);"/>
      </g>
      <g transform="matrix(1, 0, 0, 1, -11.469999, -12.299103)">
        <path d="M 232.964 260.487 L 234.224 260.487 L 234.224 260.422 Q 234.224 260.364 234.247 260.339 Q 234.271 260.313 234.308 260.313 Q 234.343 260.313 234.366 260.339 Q 234.39 260.364 234.39 260.422 L 234.39 260.651 L 232.804 260.651 L 232.804 260.409 Q 233.304 259.96 233.777 259.495 Q 233.997 259.278 234.079 259.176 Q 234.161 259.075 234.192 258.998 Q 234.222 258.921 234.222 258.842 Q 234.222 258.631 234.052 258.469 Q 233.882 258.307 233.642 258.307 Q 233.427 258.307 233.261 258.43 Q 233.095 258.553 233.046 258.735 Q 233.034 258.782 233.017 258.796 Q 232.993 258.815 232.962 258.815 Q 232.929 258.815 232.907 258.793 Q 232.884 258.77 232.884 258.739 Q 232.884 258.645 232.987 258.485 Q 233.089 258.325 233.27 258.233 Q 233.45 258.141 233.64 258.141 Q 233.947 258.141 234.167 258.354 Q 234.388 258.567 234.388 258.837 Q 234.388 258.95 234.351 259.045 Q 234.314 259.139 234.225 259.252 Q 234.136 259.364 233.906 259.59 Q 233.327 260.161 232.964 260.475 Z M 236.406 259.317 Q 236.632 259.419 236.751 259.595 Q 236.87 259.772 236.87 259.964 Q 236.87 260.258 236.631 260.484 Q 236.392 260.71 236.033 260.71 Q 235.822 260.71 235.595 260.62 Q 235.368 260.53 235.279 260.436 Q 235.249 260.405 235.249 260.37 Q 235.249 260.339 235.272 260.315 Q 235.294 260.292 235.325 260.292 Q 235.357 260.292 235.396 260.321 Q 235.699 260.546 236.036 260.546 Q 236.322 260.546 236.514 260.367 Q 236.706 260.188 236.706 259.969 Q 236.706 259.823 236.612 259.682 Q 236.517 259.542 236.339 259.461 Q 236.161 259.38 235.98 259.38 Q 235.921 259.38 235.896 259.357 Q 235.87 259.335 235.87 259.297 Q 235.87 259.262 235.895 259.239 Q 235.919 259.215 235.968 259.215 L 236.109 259.217 Q 236.329 259.217 236.473 259.083 Q 236.616 258.948 236.616 258.77 Q 236.616 258.587 236.466 258.446 Q 236.316 258.305 236.074 258.305 Q 235.904 258.305 235.761 258.364 Q 235.618 258.422 235.533 258.524 Q 235.501 258.563 235.485 258.572 Q 235.468 258.581 235.447 258.581 Q 235.413 258.581 235.39 258.558 Q 235.366 258.536 235.366 258.505 Q 235.366 258.426 235.536 258.307 Q 235.773 258.141 236.074 258.141 Q 236.384 258.141 236.583 258.328 Q 236.783 258.514 236.783 258.772 Q 236.783 258.936 236.687 259.083 Q 236.591 259.229 236.406 259.317 Z M 239.22 259.223 L 239.22 259.63 Q 239.22 260.159 238.968 260.467 Q 238.771 260.71 238.47 260.71 Q 238.325 260.71 238.198 260.652 Q 238.07 260.594 237.98 260.491 Q 237.923 260.426 237.856 260.284 Q 237.788 260.141 237.759 260.022 Q 237.714 259.854 237.714 259.63 L 237.714 259.223 Q 237.714 258.692 237.966 258.383 Q 238.163 258.141 238.464 258.141 Q 238.611 258.141 238.738 258.199 Q 238.865 258.256 238.954 258.36 Q 239.013 258.426 239.079 258.569 Q 239.146 258.712 239.177 258.829 Q 239.22 258.997 239.22 259.223 Z M 239.056 259.245 Q 239.056 259.012 238.991 258.812 Q 238.925 258.612 238.843 258.493 Q 238.794 258.424 238.716 258.376 Q 238.605 258.307 238.466 258.307 Q 238.191 258.307 238.034 258.589 Q 237.878 258.87 237.878 259.245 L 237.878 259.606 Q 237.878 259.839 237.944 260.04 Q 238.009 260.241 238.093 260.36 Q 238.14 260.426 238.218 260.475 Q 238.329 260.546 238.47 260.546 Q 238.743 260.546 238.9 260.263 Q 239.056 259.981 239.056 259.606 Z" style="fill: rgb(209, 209, 211);"/>
      </g>
      <g transform="matrix(1, 0, 0, 1, -5.47, -5.299099)" style="">
        <path d="M 7.964 10.487 L 9.224 10.487 L 9.224 10.422 Q 9.224 10.364 9.247 10.339 Q 9.271 10.313 9.308 10.313 Q 9.343 10.313 9.366 10.339 Q 9.39 10.364 9.39 10.422 L 9.39 10.651 L 7.804 10.651 L 7.804 10.409 Q 8.304 9.96 8.777 9.495 Q 8.997 9.278 9.079 9.176 Q 9.161 9.075 9.192 8.998 Q 9.222 8.921 9.222 8.842 Q 9.222 8.631 9.052 8.469 Q 8.882 8.307 8.642 8.307 Q 8.427 8.307 8.261 8.43 Q 8.095 8.553 8.046 8.735 Q 8.034 8.782 8.017 8.796 Q 7.993 8.815 7.962 8.815 Q 7.929 8.815 7.907 8.793 Q 7.884 8.77 7.884 8.739 Q 7.884 8.645 7.987 8.485 Q 8.089 8.325 8.27 8.233 Q 8.45 8.141 8.64 8.141 Q 8.947 8.141 9.167 8.354 Q 9.388 8.567 9.388 8.837 Q 9.388 8.95 9.351 9.045 Q 9.314 9.139 9.225 9.252 Q 9.136 9.364 8.906 9.59 Q 8.327 10.161 7.964 10.475 Z M 10.616 8.366 L 10.616 9.169 Q 10.761 9.108 10.894 9.078 Q 11.027 9.047 11.146 9.047 Q 11.454 9.047 11.662 9.264 Q 11.87 9.481 11.87 9.835 Q 11.87 10.225 11.636 10.467 Q 11.402 10.71 11.05 10.71 Q 10.818 10.71 10.603 10.606 Q 10.45 10.534 10.325 10.426 Q 10.251 10.362 10.251 10.319 Q 10.251 10.284 10.275 10.259 Q 10.298 10.235 10.329 10.235 Q 10.363 10.235 10.4 10.27 Q 10.695 10.546 11.042 10.546 Q 11.329 10.546 11.517 10.349 Q 11.704 10.153 11.704 9.827 Q 11.704 9.549 11.542 9.38 Q 11.38 9.212 11.13 9.212 Q 10.874 9.212 10.618 9.346 Q 10.556 9.378 10.531 9.378 Q 10.495 9.378 10.474 9.354 Q 10.452 9.331 10.452 9.288 L 10.452 8.2 L 11.597 8.2 Q 11.656 8.2 11.681 8.223 Q 11.706 8.247 11.706 8.284 Q 11.706 8.319 11.681 8.342 Q 11.656 8.366 11.597 8.366 Z M 14.22 9.223 L 14.22 9.63 Q 14.22 10.159 13.968 10.467 Q 13.771 10.71 13.47 10.71 Q 13.325 10.71 13.198 10.652 Q 13.07 10.594 12.98 10.491 Q 12.923 10.426 12.856 10.284 Q 12.788 10.141 12.759 10.022 Q 12.714 9.854 12.714 9.63 L 12.714 9.223 Q 12.714 8.692 12.966 8.383 Q 13.163 8.141 13.464 8.141 Q 13.611 8.141 13.738 8.199 Q 13.865 8.256 13.954 8.36 Q 14.013 8.426 14.079 8.569 Q 14.146 8.712 14.177 8.829 Q 14.22 8.997 14.22 9.223 Z M 14.056 9.245 Q 14.056 9.012 13.991 8.812 Q 13.925 8.612 13.843 8.493 Q 13.794 8.424 13.716 8.376 Q 13.605 8.307 13.466 8.307 Q 13.191 8.307 13.034 8.589 Q 12.878 8.87 12.878 9.245 L 12.878 9.606 Q 12.878 9.839 12.944 10.04 Q 13.009 10.241 13.093 10.36 Q 13.14 10.426 13.218 10.475 Q 13.329 10.546 13.47 10.546 Q 13.743 10.546 13.9 10.263 Q 14.056 9.981 14.056 9.606 Z" style="fill: rgb(209, 209, 211);"/>
      </g>
      <g transform="matrix(1, 0, 0, 1, -5.47, -5.299099)" style="">
        <path d="M 7.964 60.487 L 9.224 60.487 L 9.224 60.422 Q 9.224 60.364 9.247 60.339 Q 9.271 60.313 9.308 60.313 Q 9.343 60.313 9.366 60.339 Q 9.39 60.364 9.39 60.422 L 9.39 60.651 L 7.804 60.651 L 7.804 60.409 Q 8.304 59.96 8.777 59.495 Q 8.997 59.278 9.079 59.176 Q 9.161 59.075 9.192 58.998 Q 9.222 58.921 9.222 58.842 Q 9.222 58.631 9.052 58.469 Q 8.882 58.307 8.642 58.307 Q 8.427 58.307 8.261 58.43 Q 8.095 58.553 8.046 58.735 Q 8.034 58.782 8.017 58.796 Q 7.993 58.815 7.962 58.815 Q 7.929 58.815 7.907 58.793 Q 7.884 58.77 7.884 58.739 Q 7.884 58.645 7.987 58.485 Q 8.089 58.325 8.27 58.233 Q 8.45 58.141 8.64 58.141 Q 8.947 58.141 9.167 58.354 Q 9.388 58.567 9.388 58.837 Q 9.388 58.95 9.351 59.045 Q 9.314 59.139 9.225 59.252 Q 9.136 59.364 8.906 59.59 Q 8.327 60.161 7.964 60.475 Z M 11.822 59.223 L 11.822 59.63 Q 11.822 60.159 11.57 60.467 Q 11.372 60.71 11.072 60.71 Q 10.927 60.71 10.799 60.652 Q 10.671 60.594 10.581 60.491 Q 10.525 60.426 10.457 60.284 Q 10.39 60.141 10.361 60.022 Q 10.316 59.854 10.316 59.63 L 10.316 59.223 Q 10.316 58.692 10.568 58.383 Q 10.765 58.141 11.066 58.141 Q 11.212 58.141 11.339 58.199 Q 11.466 58.256 11.556 58.36 Q 11.615 58.426 11.681 58.569 Q 11.747 58.712 11.779 58.829 Q 11.822 58.997 11.822 59.223 Z M 11.657 59.245 Q 11.657 59.012 11.592 58.812 Q 11.527 58.612 11.445 58.493 Q 11.396 58.424 11.318 58.376 Q 11.206 58.307 11.068 58.307 Q 10.792 58.307 10.636 58.589 Q 10.48 58.87 10.48 59.245 L 10.48 59.606 Q 10.48 59.839 10.545 60.04 Q 10.611 60.241 10.695 60.36 Q 10.741 60.426 10.82 60.475 Q 10.931 60.546 11.072 60.546 Q 11.345 60.546 11.501 60.263 Q 11.657 59.981 11.657 59.606 Z M 14.22 59.223 L 14.22 59.63 Q 14.22 60.159 13.968 60.467 Q 13.771 60.71 13.47 60.71 Q 13.325 60.71 13.198 60.652 Q 13.07 60.594 12.98 60.491 Q 12.923 60.426 12.856 60.284 Q 12.788 60.141 12.759 60.022 Q 12.714 59.854 12.714 59.63 L 12.714 59.223 Q 12.714 58.692 12.966 58.383 Q 13.163 58.141 13.464 58.141 Q 13.611 58.141 13.738 58.199 Q 13.865 58.256 13.954 58.36 Q 14.013 58.426 14.079 58.569 Q 14.146 58.712 14.177 58.829 Q 14.22 58.997 14.22 59.223 Z M 14.056 59.245 Q 14.056 59.012 13.991 58.812 Q 13.925 58.612 13.843 58.493 Q 13.794 58.424 13.716 58.376 Q 13.605 58.307 13.466 58.307 Q 13.191 58.307 13.034 58.589 Q 12.878 58.87 12.878 59.245 L 12.878 59.606 Q 12.878 59.839 12.944 60.04 Q 13.009 60.241 13.093 60.36 Q 13.14 60.426 13.218 60.475 Q 13.329 60.546 13.47 60.546 Q 13.743 60.546 13.9 60.263 Q 14.056 59.981 14.056 59.606 Z" style="fill: rgb(209, 209, 211);"/>
      </g>
      <g transform="matrix(1, 0, 0, 1, -5.47, -5.299099)">
        <path d="M 8.751 108.167 L 8.751 110.487 L 9.314 110.487 Q 9.372 110.487 9.398 110.509 Q 9.423 110.532 9.423 110.569 Q 9.423 110.604 9.398 110.628 Q 9.372 110.651 9.314 110.651 L 8.025 110.651 Q 7.966 110.651 7.941 110.628 Q 7.915 110.604 7.915 110.569 Q 7.915 110.532 7.941 110.509 Q 7.966 110.487 8.025 110.487 L 8.587 110.487 L 8.587 108.393 L 8.052 108.561 Q 8.013 108.573 7.995 108.573 Q 7.966 108.573 7.942 108.548 Q 7.917 108.524 7.917 108.491 Q 7.917 108.462 7.937 108.436 Q 7.952 108.421 8.001 108.403 Z M 10.616 108.366 L 10.616 109.169 Q 10.761 109.108 10.894 109.078 Q 11.027 109.047 11.146 109.047 Q 11.454 109.047 11.662 109.264 Q 11.87 109.481 11.87 109.835 Q 11.87 110.225 11.636 110.467 Q 11.402 110.71 11.05 110.71 Q 10.818 110.71 10.603 110.606 Q 10.45 110.534 10.325 110.426 Q 10.251 110.362 10.251 110.319 Q 10.251 110.284 10.275 110.259 Q 10.298 110.235 10.329 110.235 Q 10.363 110.235 10.4 110.27 Q 10.695 110.546 11.042 110.546 Q 11.329 110.546 11.517 110.349 Q 11.704 110.153 11.704 109.827 Q 11.704 109.549 11.542 109.38 Q 11.38 109.212 11.13 109.212 Q 10.874 109.212 10.618 109.346 Q 10.556 109.378 10.531 109.378 Q 10.495 109.378 10.474 109.354 Q 10.452 109.331 10.452 109.288 L 10.452 108.2 L 11.597 108.2 Q 11.656 108.2 11.681 108.223 Q 11.706 108.247 11.706 108.284 Q 11.706 108.319 11.681 108.342 Q 11.656 108.366 11.597 108.366 Z M 14.22 109.223 L 14.22 109.63 Q 14.22 110.159 13.968 110.467 Q 13.771 110.71 13.47 110.71 Q 13.325 110.71 13.198 110.652 Q 13.07 110.594 12.98 110.491 Q 12.923 110.426 12.856 110.284 Q 12.788 110.141 12.759 110.022 Q 12.714 109.854 12.714 109.63 L 12.714 109.223 Q 12.714 108.692 12.966 108.383 Q 13.163 108.141 13.464 108.141 Q 13.611 108.141 13.738 108.199 Q 13.865 108.256 13.954 108.36 Q 14.013 108.426 14.079 108.569 Q 14.146 108.712 14.177 108.829 Q 14.22 108.997 14.22 109.223 Z M 14.056 109.245 Q 14.056 109.012 13.991 108.812 Q 13.925 108.612 13.843 108.493 Q 13.794 108.424 13.716 108.376 Q 13.605 108.307 13.466 108.307 Q 13.191 108.307 13.034 108.589 Q 12.878 108.87 12.878 109.245 L 12.878 109.606 Q 12.878 109.839 12.944 110.04 Q 13.009 110.241 13.093 110.36 Q 13.14 110.426 13.218 110.475 Q 13.329 110.546 13.47 110.546 Q 13.743 110.546 13.9 110.263 Q 14.056 109.981 14.056 109.606 Z" style="fill: rgb(209, 209, 211);"/>
      </g>
      <g transform="matrix(1, 0, 0, 1, -5.47, -5.299099)" style="">
        <path d="M 8.751 158.167 L 8.751 160.487 L 9.314 160.487 Q 9.372 160.487 9.398 160.509 Q 9.423 160.532 9.423 160.569 Q 9.423 160.604 9.398 160.628 Q 9.372 160.651 9.314 160.651 L 8.025 160.651 Q 7.966 160.651 7.941 160.628 Q 7.915 160.604 7.915 160.569 Q 7.915 160.532 7.941 160.509 Q 7.966 160.487 8.025 160.487 L 8.587 160.487 L 8.587 158.393 L 8.052 158.561 Q 8.013 158.573 7.995 158.573 Q 7.966 158.573 7.942 158.548 Q 7.917 158.524 7.917 158.491 Q 7.917 158.462 7.937 158.436 Q 7.952 158.421 8.001 158.403 Z M 11.822 159.223 L 11.822 159.63 Q 11.822 160.159 11.57 160.467 Q 11.372 160.71 11.072 160.71 Q 10.927 160.71 10.799 160.652 Q 10.671 160.594 10.581 160.491 Q 10.525 160.426 10.457 160.284 Q 10.39 160.141 10.361 160.022 Q 10.316 159.854 10.316 159.63 L 10.316 159.223 Q 10.316 158.692 10.568 158.383 Q 10.765 158.141 11.066 158.141 Q 11.212 158.141 11.339 158.199 Q 11.466 158.256 11.556 158.36 Q 11.615 158.426 11.681 158.569 Q 11.747 158.712 11.779 158.829 Q 11.822 158.997 11.822 159.223 Z M 11.657 159.245 Q 11.657 159.012 11.592 158.812 Q 11.527 158.612 11.445 158.493 Q 11.396 158.424 11.318 158.376 Q 11.206 158.307 11.068 158.307 Q 10.792 158.307 10.636 158.589 Q 10.48 158.87 10.48 159.245 L 10.48 159.606 Q 10.48 159.839 10.545 160.04 Q 10.611 160.241 10.695 160.36 Q 10.741 160.426 10.82 160.475 Q 10.931 160.546 11.072 160.546 Q 11.345 160.546 11.501 160.263 Q 11.657 159.981 11.657 159.606 Z M 14.22 159.223 L 14.22 159.63 Q 14.22 160.159 13.968 160.467 Q 13.771 160.71 13.47 160.71 Q 13.325 160.71 13.198 160.652 Q 13.07 160.594 12.98 160.491 Q 12.923 160.426 12.856 160.284 Q 12.788 160.141 12.759 160.022 Q 12.714 159.854 12.714 159.63 L 12.714 159.223 Q 12.714 158.692 12.966 158.383 Q 13.163 158.141 13.464 158.141 Q 13.611 158.141 13.738 158.199 Q 13.865 158.256 13.954 158.36 Q 14.013 158.426 14.079 158.569 Q 14.146 158.712 14.177 158.829 Q 14.22 158.997 14.22 159.223 Z M 14.056 159.245 Q 14.056 159.012 13.991 158.812 Q 13.925 158.612 13.843 158.493 Q 13.794 158.424 13.716 158.376 Q 13.605 158.307 13.466 158.307 Q 13.191 158.307 13.034 158.589 Q 12.878 158.87 12.878 159.245 L 12.878 159.606 Q 12.878 159.839 12.944 160.04 Q 13.009 160.241 13.093 160.36 Q 13.14 160.426 13.218 160.475 Q 13.329 160.546 13.47 160.546 Q 13.743 160.546 13.9 160.263 Q 14.056 159.981 14.056 159.606 Z" style="fill: rgb(209, 209, 211);"/>
      </g>
      <g transform="matrix(1, 0, 0, 1, -3.47, -5.299099)">
        <path d="M 8.218 208.366 L 8.218 209.169 Q 8.363 209.108 8.495 209.078 Q 8.628 209.047 8.747 209.047 Q 9.056 209.047 9.264 209.264 Q 9.472 209.481 9.472 209.835 Q 9.472 210.225 9.238 210.467 Q 9.003 210.71 8.652 210.71 Q 8.419 210.71 8.204 210.606 Q 8.052 210.534 7.927 210.426 Q 7.853 210.362 7.853 210.319 Q 7.853 210.284 7.876 210.259 Q 7.9 210.235 7.931 210.235 Q 7.964 210.235 8.001 210.27 Q 8.296 210.546 8.644 210.546 Q 8.931 210.546 9.118 210.349 Q 9.306 210.153 9.306 209.827 Q 9.306 209.549 9.144 209.38 Q 8.982 209.212 8.732 209.212 Q 8.476 209.212 8.22 209.346 Q 8.157 209.378 8.132 209.378 Q 8.097 209.378 8.075 209.354 Q 8.054 209.331 8.054 209.288 L 8.054 208.2 L 9.199 208.2 Q 9.257 208.2 9.282 208.223 Q 9.308 208.247 9.308 208.284 Q 9.308 208.319 9.282 208.342 Q 9.257 208.366 9.199 208.366 Z M 11.822 209.223 L 11.822 209.63 Q 11.822 210.159 11.57 210.467 Q 11.372 210.71 11.072 210.71 Q 10.927 210.71 10.799 210.652 Q 10.671 210.594 10.581 210.491 Q 10.525 210.426 10.457 210.284 Q 10.39 210.141 10.361 210.022 Q 10.316 209.854 10.316 209.63 L 10.316 209.223 Q 10.316 208.692 10.568 208.383 Q 10.765 208.141 11.066 208.141 Q 11.212 208.141 11.339 208.199 Q 11.466 208.256 11.556 208.36 Q 11.615 208.426 11.681 208.569 Q 11.747 208.712 11.779 208.829 Q 11.822 208.997 11.822 209.223 Z M 11.657 209.245 Q 11.657 209.012 11.592 208.812 Q 11.527 208.612 11.445 208.493 Q 11.396 208.424 11.318 208.376 Q 11.206 208.307 11.068 208.307 Q 10.792 208.307 10.636 208.589 Q 10.48 208.87 10.48 209.245 L 10.48 209.606 Q 10.48 209.839 10.545 210.04 Q 10.611 210.241 10.695 210.36 Q 10.741 210.426 10.82 210.475 Q 10.931 210.546 11.072 210.546 Q 11.345 210.546 11.501 210.263 Q 11.657 209.981 11.657 209.606 Z" style="fill: rgb(209, 209, 211);"/>
      </g>
      <g transform="matrix(1, 0, 0, 1, -5.47, 8.700901)">
        <path d="M 7.964 10.487 L 9.224 10.487 L 9.224 10.422 Q 9.224 10.364 9.247 10.339 Q 9.271 10.313 9.308 10.313 Q 9.343 10.313 9.366 10.339 Q 9.39 10.364 9.39 10.422 L 9.39 10.651 L 7.804 10.651 L 7.804 10.409 Q 8.304 9.96 8.777 9.495 Q 8.997 9.278 9.079 9.176 Q 9.161 9.075 9.192 8.998 Q 9.222 8.921 9.222 8.842 Q 9.222 8.631 9.052 8.469 Q 8.882 8.307 8.642 8.307 Q 8.427 8.307 8.261 8.43 Q 8.095 8.553 8.046 8.735 Q 8.034 8.782 8.017 8.796 Q 7.993 8.815 7.962 8.815 Q 7.929 8.815 7.907 8.793 Q 7.884 8.77 7.884 8.739 Q 7.884 8.645 7.987 8.485 Q 8.089 8.325 8.27 8.233 Q 8.45 8.141 8.64 8.141 Q 8.947 8.141 9.167 8.354 Q 9.388 8.567 9.388 8.837 Q 9.388 8.95 9.351 9.045 Q 9.314 9.139 9.225 9.252 Q 9.136 9.364 8.906 9.59 Q 8.327 10.161 7.964 10.475 Z M 11.406 9.317 Q 11.632 9.419 11.751 9.595 Q 11.87 9.772 11.87 9.964 Q 11.87 10.258 11.631 10.484 Q 11.392 10.71 11.032 10.71 Q 10.822 10.71 10.595 10.62 Q 10.368 10.53 10.279 10.436 Q 10.249 10.405 10.249 10.37 Q 10.249 10.339 10.272 10.315 Q 10.294 10.292 10.325 10.292 Q 10.357 10.292 10.396 10.321 Q 10.699 10.546 11.036 10.546 Q 11.322 10.546 11.514 10.367 Q 11.706 10.188 11.706 9.969 Q 11.706 9.823 11.612 9.682 Q 11.517 9.542 11.339 9.461 Q 11.161 9.38 10.98 9.38 Q 10.921 9.38 10.896 9.357 Q 10.87 9.335 10.87 9.297 Q 10.87 9.262 10.895 9.239 Q 10.919 9.215 10.968 9.215 L 11.109 9.217 Q 11.329 9.217 11.473 9.083 Q 11.616 8.948 11.616 8.77 Q 11.616 8.587 11.466 8.446 Q 11.316 8.305 11.074 8.305 Q 10.904 8.305 10.761 8.364 Q 10.618 8.422 10.532 8.524 Q 10.501 8.563 10.485 8.572 Q 10.468 8.581 10.447 8.581 Q 10.413 8.581 10.39 8.558 Q 10.366 8.536 10.366 8.505 Q 10.366 8.426 10.536 8.307 Q 10.773 8.141 11.074 8.141 Q 11.384 8.141 11.583 8.328 Q 11.782 8.514 11.782 8.772 Q 11.782 8.936 11.687 9.083 Q 11.591 9.229 11.406 9.317 Z M 13.015 8.366 L 13.015 9.169 Q 13.159 9.108 13.292 9.078 Q 13.425 9.047 13.544 9.047 Q 13.853 9.047 14.061 9.264 Q 14.269 9.481 14.269 9.835 Q 14.269 10.225 14.034 10.467 Q 13.8 10.71 13.449 10.71 Q 13.216 10.71 13.001 10.606 Q 12.849 10.534 12.724 10.426 Q 12.65 10.362 12.65 10.319 Q 12.65 10.284 12.673 10.259 Q 12.697 10.235 12.728 10.235 Q 12.761 10.235 12.798 10.27 Q 13.093 10.546 13.441 10.546 Q 13.728 10.546 13.915 10.349 Q 14.103 10.153 14.103 9.827 Q 14.103 9.549 13.941 9.38 Q 13.779 9.212 13.529 9.212 Q 13.273 9.212 13.017 9.346 Q 12.954 9.378 12.929 9.378 Q 12.894 9.378 12.872 9.354 Q 12.851 9.331 12.851 9.288 L 12.851 8.2 L 13.995 8.2 Q 14.054 8.2 14.079 8.223 Q 14.105 8.247 14.105 8.284 Q 14.105 8.319 14.079 8.342 Q 14.054 8.366 13.995 8.366 Z" style="fill: rgb(209, 209, 211);"/>
      </g>
    </g>
  </g>
  <g transform="matrix(1, 0, 0, 1, 0, 1.7763568394002505e-15)">
    <path d="M 135.287 9.875 C 135.161 9.982 134.991 10.035 134.778 10.035 C 134.616 10.035 134.476 10.001 134.359 9.932 C 134.241 9.874 134.145 9.798 134.072 9.704 C 133.982 9.606 133.923 9.478 133.894 9.319 C 133.861 9.161 133.844 8.858 133.844 8.41 C 133.844 7.962 133.861 7.657 133.894 7.494 C 133.923 7.34 133.982 7.214 134.072 7.116 C 134.145 7.022 134.241 6.944 134.359 6.882 C 134.476 6.822 134.616 6.789 134.778 6.785 C 134.943 6.789 135.086 6.822 135.206 6.882 C 135.321 6.944 135.413 7.022 135.481 7.116 C 135.571 7.214 135.633 7.34 135.666 7.494 C 135.697 7.657 135.712 7.962 135.712 8.41 C 135.712 8.892 135.691 9.209 135.647 9.363 L 135.116 8.941 L 134.706 9.413 L 135.287 9.875 Z M 135.853 10.329 L 136.428 10.791 L 136.837 10.316 L 136.237 9.838 C 136.3 9.734 136.345 9.588 136.372 9.4 C 136.393 9.213 136.403 8.883 136.403 8.41 C 136.403 7.881 136.39 7.527 136.362 7.347 C 136.334 7.169 136.281 7.024 136.203 6.913 C 136.097 6.703 135.924 6.515 135.684 6.35 C 135.443 6.184 135.141 6.098 134.778 6.094 C 134.42 6.098 134.121 6.184 133.881 6.35 C 133.638 6.515 133.461 6.703 133.35 6.913 C 133.282 7.024 133.231 7.169 133.197 7.347 C 133.166 7.527 133.15 7.881 133.15 8.41 C 133.15 8.931 133.166 9.283 133.197 9.466 C 133.214 9.564 133.235 9.646 133.259 9.71 C 133.287 9.773 133.317 9.839 133.35 9.907 C 133.461 10.117 133.638 10.303 133.881 10.463 C 134.121 10.63 134.42 10.717 134.778 10.725 C 135.226 10.717 135.585 10.585 135.853 10.329 Z M 137.145 9.6 C 137.15 9.967 137.27 10.244 137.505 10.432 C 137.722 10.624 137.965 10.721 138.233 10.725 C 138.579 10.725 138.859 10.597 139.073 10.341 L 139.086 10.341 L 139.086 10.688 L 139.739 10.688 L 139.739 7.444 L 139.086 7.444 L 139.086 9.375 C 139.086 9.595 139.026 9.766 138.905 9.888 C 138.787 10.011 138.633 10.072 138.445 10.072 C 138.258 10.072 138.104 10.011 137.983 9.888 C 137.86 9.766 137.798 9.595 137.798 9.375 L 137.798 7.444 L 137.145 7.444 L 137.145 9.6 Z M 140.602 10.688 L 141.255 10.688 L 141.255 7.444 L 140.602 7.444 L 140.602 10.688 Z M 140.602 6.785 L 141.255 6.785 L 141.255 6.132 L 140.602 6.132 L 140.602 6.785 Z M 144.02 9.735 C 143.856 9.956 143.636 10.068 143.361 10.072 C 142.807 10.083 142.526 9.749 142.517 9.069 C 142.526 8.386 142.807 8.049 143.361 8.057 C 143.636 8.065 143.856 8.179 144.02 8.397 L 144.502 7.969 C 144.36 7.799 144.194 7.662 144.002 7.56 C 143.81 7.46 143.588 7.408 143.336 7.404 C 142.953 7.4 142.617 7.528 142.327 7.788 C 142.027 8.053 141.873 8.48 141.864 9.069 C 141.873 9.653 142.027 10.075 142.327 10.335 C 142.617 10.595 142.953 10.725 143.336 10.725 C 143.588 10.721 143.81 10.666 144.002 10.56 C 144.194 10.458 144.36 10.326 144.502 10.163 L 144.02 9.735 Z M 144.958 10.688 L 145.611 10.688 L 145.611 9.754 L 146.123 9.172 L 146.986 10.688 L 147.805 10.688 L 146.533 8.71 L 147.652 7.444 L 146.87 7.444 L 145.623 8.966 L 145.611 8.966 L 145.611 6.132 L 144.958 6.132 L 144.958 10.688 Z M 149.933 9.582 L 149.48 10.1 C 149.966 10.517 150.546 10.725 151.22 10.725 C 152.264 10.713 152.798 10.272 152.82 9.4 C 152.82 9.078 152.719 8.794 152.517 8.55 C 152.313 8.303 151.998 8.15 151.57 8.091 C 151.354 8.064 151.183 8.04 151.058 8.019 C 150.833 7.978 150.669 7.903 150.567 7.794 C 150.465 7.688 150.414 7.57 150.414 7.438 C 150.418 7.22 150.494 7.055 150.642 6.944 C 150.784 6.838 150.961 6.785 151.173 6.785 C 151.584 6.793 151.96 6.91 152.302 7.135 L 152.686 6.566 C 152.268 6.264 151.775 6.107 151.208 6.094 C 150.738 6.098 150.374 6.221 150.117 6.463 C 149.853 6.707 149.72 7.028 149.72 7.425 C 149.72 7.757 149.826 8.038 150.036 8.269 C 150.24 8.495 150.538 8.64 150.93 8.704 C 151.149 8.735 151.35 8.763 151.533 8.788 C 151.933 8.857 152.131 9.061 152.127 9.4 C 152.119 9.815 151.819 10.027 151.227 10.035 C 150.727 10.031 150.296 9.88 149.933 9.582 Z M 156.061 10.688 L 156.639 10.688 L 157.673 7.444 L 156.983 7.444 L 156.364 9.716 L 156.352 9.716 L 155.614 7.444 L 155.142 7.444 L 154.405 9.716 L 154.392 9.716 L 153.77 7.444 L 153.08 7.444 L 154.117 10.688 L 154.692 10.688 L 155.37 8.416 L 155.383 8.416 L 156.061 10.688 Z M 159.809 10.688 L 160.462 10.688 L 160.462 8.472 C 160.458 8.077 160.335 7.798 160.091 7.635 C 159.847 7.477 159.521 7.4 159.112 7.404 C 158.629 7.396 158.264 7.554 158.016 7.879 L 158.528 8.269 C 158.584 8.176 158.661 8.109 158.759 8.069 C 158.853 8.036 158.982 8.019 159.144 8.019 C 159.592 8.011 159.814 8.15 159.809 8.435 L 159.809 8.775 L 158.906 8.775 C 158.56 8.78 158.298 8.874 158.119 9.057 C 157.94 9.236 157.85 9.462 157.85 9.735 C 157.85 10.021 157.953 10.255 158.159 10.438 C 158.355 10.626 158.635 10.721 158.997 10.725 C 159.218 10.725 159.391 10.698 159.516 10.644 C 159.643 10.592 159.737 10.511 159.797 10.4 L 159.809 10.4 L 159.809 10.688 Z M 159.809 9.547 C 159.809 9.791 159.758 9.948 159.656 10.016 C 159.544 10.085 159.351 10.117 159.078 10.113 C 158.862 10.113 158.706 10.071 158.612 9.985 C 158.515 9.908 158.466 9.814 158.466 9.704 C 158.462 9.452 158.649 9.321 159.028 9.313 L 159.809 9.313 L 159.809 9.547 Z M 161.309 12 L 161.962 12 L 161.962 10.341 C 162.082 10.458 162.212 10.55 162.353 10.616 C 162.485 10.689 162.634 10.725 162.8 10.725 C 163.002 10.721 163.175 10.681 163.319 10.604 C 163.465 10.529 163.582 10.429 163.672 10.304 C 163.762 10.198 163.823 10.061 163.856 9.894 C 163.888 9.728 163.903 9.453 163.903 9.069 C 163.903 8.676 163.888 8.397 163.856 8.232 C 163.823 8.066 163.762 7.931 163.672 7.829 C 163.489 7.556 163.198 7.414 162.8 7.404 C 162.458 7.414 162.179 7.54 161.962 7.782 L 161.962 7.444 L 161.309 7.444 L 161.309 12 Z M 162.603 10.072 C 162.457 10.072 162.342 10.041 162.256 9.979 C 162.167 9.919 162.101 9.839 162.059 9.741 C 162.02 9.643 161.994 9.534 161.981 9.413 C 161.969 9.299 161.962 9.184 161.962 9.069 C 161.962 8.947 161.969 8.825 161.981 8.704 C 161.994 8.59 162.02 8.483 162.059 8.385 C 162.101 8.287 162.167 8.208 162.256 8.147 C 162.342 8.087 162.457 8.057 162.603 8.057 C 162.757 8.057 162.879 8.083 162.969 8.135 C 163.059 8.191 163.122 8.268 163.159 8.366 C 163.201 8.46 163.23 8.569 163.244 8.691 C 163.248 8.814 163.25 8.94 163.25 9.069 C 163.25 9.193 163.248 9.313 163.244 9.429 C 163.23 9.548 163.201 9.656 163.159 9.754 C 163.122 9.848 163.059 9.925 162.969 9.985 C 162.879 10.043 162.757 10.072 162.603 10.072 Z M 166.22 10.688 L 166.911 10.688 L 166.911 9.3 L 167.711 8.46 L 168.952 10.688 L 169.77 10.688 L 168.158 7.929 L 169.617 6.132 L 168.798 6.132 L 166.923 8.479 L 166.911 8.479 L 166.911 6.132 L 166.22 6.132 L 166.22 10.688 Z M 170.211 10.688 L 170.864 10.688 L 170.864 7.444 L 170.211 7.444 L 170.211 10.688 Z M 170.211 6.785 L 170.864 6.785 L 170.864 6.132 L 170.211 6.132 L 170.211 6.785 Z M 171.769 7.444 L 171.444 7.444 L 171.444 7.941 L 171.769 7.941 L 171.769 9.888 C 171.769 10.144 171.844 10.34 171.994 10.475 C 172.14 10.617 172.327 10.688 172.556 10.688 L 172.897 10.688 L 172.897 10.072 L 172.653 10.072 C 172.495 10.077 172.418 9.997 172.422 9.832 L 172.422 7.941 L 172.897 7.941 L 172.897 7.444 L 172.422 7.444 L 172.422 6.457 L 171.769 6.457 L 171.769 7.444 Z M 175.103 10.688 L 175.794 10.688 L 175.794 6.132 L 175.103 6.132 L 175.103 10.688 Z M 176.692 10.688 L 177.345 10.688 L 177.345 8.757 C 177.345 8.53 177.407 8.357 177.53 8.238 C 177.651 8.118 177.805 8.057 177.992 8.057 C 178.18 8.057 178.333 8.118 178.452 8.238 C 178.573 8.357 178.633 8.53 178.633 8.757 L 178.633 10.688 L 179.286 10.688 L 179.286 8.532 C 179.276 8.161 179.16 7.88 178.939 7.688 C 178.717 7.499 178.471 7.404 178.202 7.404 C 177.854 7.404 177.573 7.532 177.358 7.788 L 177.345 7.788 L 177.345 7.444 L 176.692 7.444 L 176.692 10.688 Z M 180.227 9.697 L 179.77 10.144 C 180.194 10.532 180.67 10.725 181.198 10.725 C 181.588 10.721 181.908 10.632 182.158 10.457 C 182.41 10.286 182.538 10.043 182.542 9.729 C 182.542 9.46 182.473 9.238 182.333 9.063 C 182.183 8.884 181.94 8.782 181.602 8.757 L 181.064 8.716 C 180.906 8.7 180.796 8.661 180.733 8.6 C 180.665 8.546 180.632 8.483 180.636 8.41 C 180.636 8.296 180.679 8.202 180.764 8.129 C 180.846 8.056 180.988 8.019 181.192 8.019 C 181.372 8.019 181.53 8.045 181.667 8.097 C 181.807 8.156 181.94 8.23 182.064 8.319 L 182.467 7.847 C 182.309 7.71 182.13 7.601 181.93 7.519 C 181.826 7.482 181.714 7.453 181.595 7.432 C 181.477 7.414 181.342 7.404 181.192 7.404 C 180.846 7.404 180.561 7.488 180.336 7.654 C 180.105 7.821 179.987 8.071 179.983 8.404 C 179.987 8.681 180.077 8.896 180.252 9.05 C 180.423 9.209 180.645 9.301 180.917 9.325 L 181.492 9.375 C 181.613 9.38 181.71 9.406 181.783 9.454 C 181.854 9.5 181.889 9.581 181.889 9.697 C 181.889 9.829 181.83 9.931 181.711 10.004 C 181.593 10.077 181.44 10.113 181.252 10.113 C 180.833 10.113 180.491 9.975 180.227 9.697 Z M 183.237 7.444 L 182.912 7.444 L 182.912 7.941 L 183.237 7.941 L 183.237 9.888 C 183.237 10.144 183.312 10.34 183.462 10.475 C 183.608 10.617 183.796 10.688 184.025 10.688 L 184.366 10.688 L 184.366 10.072 L 184.122 10.072 C 183.964 10.077 183.887 9.997 183.891 9.832 L 183.891 7.941 L 184.366 7.941 L 184.366 7.444 L 183.891 7.444 L 183.891 6.457 L 183.237 6.457 L 183.237 7.444 Z M 186.684 10.688 L 187.337 10.688 L 187.337 8.472 C 187.333 8.077 187.21 7.798 186.966 7.635 C 186.722 7.477 186.396 7.4 185.987 7.404 C 185.504 7.396 185.139 7.554 184.891 7.879 L 185.403 8.269 C 185.459 8.176 185.536 8.109 185.634 8.069 C 185.728 8.036 185.857 8.019 186.019 8.019 C 186.467 8.011 186.689 8.15 186.684 8.435 L 186.684 8.775 L 185.781 8.775 C 185.435 8.78 185.173 8.874 184.994 9.057 C 184.815 9.236 184.725 9.462 184.725 9.735 C 184.725 10.021 184.828 10.255 185.034 10.438 C 185.23 10.626 185.51 10.721 185.872 10.725 C 186.093 10.725 186.266 10.698 186.391 10.644 C 186.518 10.592 186.612 10.511 186.672 10.4 L 186.684 10.4 L 186.684 10.688 Z M 186.684 9.547 C 186.684 9.791 186.633 9.948 186.531 10.016 C 186.419 10.085 186.226 10.117 185.953 10.113 C 185.737 10.113 185.581 10.071 185.487 9.985 C 185.39 9.908 185.341 9.814 185.341 9.704 C 185.337 9.452 185.524 9.321 185.903 9.313 L 186.684 9.313 L 186.684 9.547 Z M 188.177 9.9 C 188.177 10.186 188.258 10.39 188.42 10.51 C 188.575 10.629 188.771 10.688 189.008 10.688 L 189.298 10.688 L 189.298 10.072 L 189.073 10.072 C 188.911 10.072 188.83 9.998 188.83 9.85 L 188.83 6.132 L 188.177 6.132 L 188.177 9.9 Z M 189.833 9.9 C 189.833 10.186 189.915 10.39 190.077 10.51 C 190.231 10.629 190.427 10.688 190.664 10.688 L 190.955 10.688 L 190.955 10.072 L 190.73 10.072 C 190.568 10.072 190.486 9.998 190.486 9.85 L 190.486 6.132 L 189.833 6.132 L 189.833 9.9 Z M 193.997 9.313 L 193.997 8.775 C 193.993 8.349 193.861 8.013 193.6 7.769 C 193.344 7.53 193.031 7.408 192.659 7.404 C 192.505 7.404 192.349 7.432 192.191 7.488 C 192.031 7.544 191.886 7.636 191.756 7.763 C 191.63 7.888 191.526 8.059 191.444 8.275 C 191.363 8.488 191.322 8.755 191.322 9.075 C 191.322 9.409 191.369 9.68 191.462 9.888 C 191.548 10.105 191.66 10.274 191.797 10.394 C 191.868 10.453 191.944 10.502 192.025 10.541 C 192.103 10.587 192.182 10.624 192.262 10.65 C 192.425 10.7 192.592 10.725 192.762 10.725 C 193.21 10.73 193.6 10.555 193.931 10.2 L 193.459 9.797 C 193.251 10.008 193.015 10.113 192.75 10.113 C 192.523 10.113 192.34 10.045 192.2 9.907 C 192.05 9.772 191.975 9.574 191.975 9.313 L 193.997 9.313 Z M 191.975 8.775 C 191.988 8.523 192.056 8.333 192.178 8.204 C 192.304 8.081 192.464 8.019 192.659 8.019 C 192.855 8.019 193.016 8.081 193.141 8.204 C 193.268 8.333 193.336 8.523 193.344 8.775 L 191.975 8.775 Z M 196.617 10.347 L 196.617 10.688 L 197.27 10.688 L 197.27 6.132 L 196.617 6.132 L 196.617 7.788 C 196.497 7.674 196.371 7.58 196.239 7.507 C 196.098 7.439 195.944 7.404 195.777 7.404 C 195.381 7.414 195.092 7.556 194.908 7.829 C 194.818 7.931 194.759 8.066 194.73 8.232 C 194.695 8.397 194.677 8.674 194.677 9.063 C 194.677 9.447 194.695 9.722 194.73 9.888 C 194.759 10.063 194.818 10.202 194.908 10.304 C 195.006 10.429 195.128 10.529 195.273 10.604 C 195.413 10.681 195.581 10.721 195.777 10.725 C 196.123 10.717 196.403 10.591 196.617 10.347 Z M 195.977 8.057 C 196.131 8.057 196.253 8.087 196.342 8.147 C 196.432 8.208 196.494 8.287 196.527 8.385 C 196.569 8.483 196.597 8.59 196.611 8.704 C 196.615 8.818 196.617 8.938 196.617 9.063 C 196.617 9.178 196.615 9.295 196.611 9.413 C 196.597 9.534 196.569 9.643 196.527 9.741 C 196.494 9.839 196.432 9.919 196.342 9.979 C 196.253 10.041 196.131 10.072 195.977 10.072 C 195.823 10.072 195.705 10.043 195.623 9.985 C 195.534 9.925 195.469 9.848 195.427 9.754 C 195.387 9.656 195.361 9.546 195.348 9.422 C 195.336 9.306 195.33 9.186 195.33 9.063 C 195.33 8.934 195.336 8.808 195.348 8.685 C 195.361 8.571 195.387 8.464 195.427 8.366 C 195.469 8.268 195.534 8.191 195.623 8.135 C 195.705 8.083 195.823 8.057 195.977 8.057 Z" style="white-space: pre; fill: rgb(209, 209, 211);"/>
    <line x1="5" y1="15" x2="225" y2="15" id="line-2" stroke-width="0.265" style="paint-order: fill; stroke-dasharray: 2px; stroke: rgb(255, 0, 0);"/>
  </g>
</svg>
