<svg id="Layer_1" data-name="Layer 1" xmlns="http://www.w3.org/2000/svg" xmlns:xlink="http://www.w3.org/1999/xlink" width="505mm" height="505mm" viewBox="0 0 1431.5 1431.5">
  <defs>
    <radialGradient id="radial-gradient" cx="-170.12" cy="1053.45" r="60.14" gradientTransform="translate(1223.5 -489.1) scale(1.68 1.68)" gradientUnits="userSpaceOnUse">
      <stop offset="0" stop-color="#4db5e7"/>
      <stop offset="1" stop-color="#167ab9"/>
    </radialGradient>
    <radialGradient id="radial-gradient-2" cx="-178.09" cy="1065.43" fx="-248.40843722592865" r="70.56" gradientTransform="translate(1223.5 -489.1) scale(1.68 1.68)" gradientUnits="userSpaceOnUse">
      <stop offset="0" stop-color="#fff"/>
      <stop offset="1" stop-color="#749194"/>
    </radialGradient>
  </defs>
  <g>
    <rect width="643.5" height="1431.5" style="fill: #1a1a1a"/>
    <g>
      <path d="M379,88.4v32.8c0,34.8-25.4,62.5-60.8,62.5s-60.9-27.5-60.9-62.5V88.4ZM277.6,158.3a54.9,54.9,0,0,0,40.6,17.4c32.1,0,53.8-24.5,53.8-55.7V96H264.3v24C264.3,137.3,270.2,150.2,277.6,158.3Z" style="fill: #4d4d4d"/>
      <path d="M272.6,258.1c-10.2-4.4-17.1-15.2-17.1-26.7,0-21.8,13.1-28,34.8-28h48.3v7.4H288.3c-12.5,0-26.1,2.5-26.1,21.2s18.2,26.1,34.4,26.1h42v7.4H257.3v-7.4Z" style="fill: #4d4d4d"/>
      <path d="M338.6,290.1v7.4l-18-.2c12.7,5.3,19.5,18,19.5,32,0,25.4-18.6,39.5-42.6,39.5s-42-15.9-42-40.1c0-11.4,4.6-23.8,17.7-31.4H223.6v-7.2ZM297.9,361c19.6,0,35.6-11.5,35.6-31.9s-16-32-35.6-32-35.7,11.5-35.7,32S278.5,361,297.9,361Z" style="fill: #4d4d4d"/>
      <path d="M379,388.5v7.3H257.3v-7.3Z" style="fill: #4d4d4d"/>
      <path d="M338.6,420.7V428H257.3v-7.3Zm22.6,3.7a6.9,6.9,0,0,1,6.9-6.7,6.7,6.7,0,1,1,0,13.4A6.9,6.9,0,0,1,361.2,424.4Z" style="fill: #4d4d4d"/>
      <path d="M255.5,486.6c0-22.3,17.7-40.1,42.6-40.1s42,18,42,40.6-12,30.2-14.7,32.1l-4.6-5.6c4.3-3.7,12.2-10.4,12.2-27s-14.1-32.1-34.4-32.1-36,13.6-36,32.6a37.4,37.4,0,0,0,12,27.4l-4.6,5.1C266.3,516.4,255.5,508.1,255.5,486.6Z" style="fill: #4d4d4d"/>
      <path d="M269.6,585.5c-4-3.4-14.1-13.4-14.1-29.3s10.8-26.5,24.4-26.5,24,10.8,24.7,34.1l.7,21.9h4.8c15.7,0,23.1-9.9,23.1-24.7,0-10.8-5-21.4-6.6-23.5l5.5-3.2c3.4,4.4,8,15.9,8,26.1,0,12-2.7,18.9-7.8,24.4s-10.6,8.3-24.7,8.3H257.3v-7.6Zm28.5-20.8c-.6-20.1-8.3-27-18.4-27s-17.3,7.4-17.3,20.4,9.2,23.3,15.7,27.4h20.5Z" style="fill: #4d4d4d"/>
      <path d="M255.5,635.6c0-6.7,2.3-11.7,6.9-14.7s13.2-3.7,26.7-3.7h42.1V604.9h7.1v12.3h26.3v7.4H338.3v20.9h-7.1v-21h-49c-11.8,0-20,1.4-20,12.3a17.3,17.3,0,0,0,2.3,8.8l-6.5.9C256.4,644.4,255.5,640.7,255.5,635.6Z" style="fill: #4d4d4d"/>
      <path d="M338.6,661.2v7.2H257.3v-7.2Zm22.6,3.7a6.9,6.9,0,0,1,6.9-6.7,6.7,6.7,0,1,1,0,13.4A6.9,6.9,0,0,1,361.2,664.9Z" style="fill: #4d4d4d"/>
      <path d="M298.1,687.1c23.8,0,42,16.1,42,41.3s-18.2,41.3-42,41.3-42.6-16.1-42.6-41.3S273.5,687.1,298.1,687.1Zm-.2,7.9c-19.3,0-35.5,12.9-35.5,33.4s16.2,33.3,35.5,33.3,35.3-13,35.3-33.3S317.8,695,297.9,695Z" style="fill: #4d4d4d"/>
      <path d="M306.2,843.9c13,0,27.1-3.6,27.1-21.7s-15.7-26-35.8-26H257.3v-7.4h81.3v7.3H322.9c10.3,3.8,17.2,14.9,17.2,26.6,0,23.3-14.9,28.6-34.1,28.6H257.3v-7.4Z" style="fill: #4d4d4d"/>
      <path d="M245.1,863,396,936.9l-3.4,6.6L241.8,869.7C242.8,867.6,243.9,865.1,245.1,863Z" style="fill: #4d4d4d"/>
      <path d="M365.3,1057.6l-108.9-45.4v-1.8l108.5-44.6L257.3,954.9v-7.8L379,960v8.6l-106.5,43.3,106.5,43v8.8l-121.7,12.7v-7.7Z" style="fill: #4d4d4d"/>
      <path d="M338.6,1098.7v7.3H257.3v-7.3Zm22.6,3.7a6.9,6.9,0,0,1,6.9-6.7,6.7,6.7,0,1,1,0,13.4A6.9,6.9,0,0,1,361.2,1102.4Z" style="fill: #4d4d4d"/>
      <path d="M338.6,1130.5v7.2H324.2c10.7,4.1,15.9,12,15.9,20.8a47,47,0,0,1-1.1,9.7l-7.8-1a34.9,34.9,0,0,0,1.3-9.7c0-7.5-5.2-12.2-7.1-13.8-3.7-2.8-9.3-6-21.7-6H257.3v-7.2Z" style="fill: #4d4d4d"/>
      <path d="M338.6,1181.6v7.2H324.2c10.7,4.1,15.9,12,15.9,20.8a47,47,0,0,1-1.1,9.7l-7.8-1a33.8,33.8,0,0,0,1.3-9.7c0-7.4-5.2-12.2-7.1-13.8-3.7-2.8-9.3-6-21.7-6H257.3v-7.2Z" style="fill: #4d4d4d"/>
      <path d="M298.1,1223c23.8,0,42,16,42,41.2s-18.2,41.3-42,41.3-42.6-16-42.6-41.3S273.5,1223,298.1,1223Zm-.2,7.9c-19.3,0-35.5,12.9-35.5,33.3s16.2,33.4,35.5,33.4,35.3-13.1,35.3-33.4S317.8,1230.9,297.9,1230.9Z" style="fill: #4d4d4d"/>
      <path d="M338.6,1324.7v7.2H324.2c10.7,4.1,15.9,12,15.9,20.8a47,47,0,0,1-1.1,9.7l-7.8-1a33.8,33.8,0,0,0,1.3-9.7c0-7.4-5.2-12.2-7.1-13.8-3.7-2.8-9.3-6-21.7-6H257.3v-7.2Z" style="fill: #4d4d4d"/>
    </g>
    <line x1="715.7" y1="658.5" x2="715.7" y2="773" style="fill: none;stroke: #fff;stroke-miterlimit: 10;stroke-width: 0.25px"/>
    <line x1="715.7" y1="3.8" x2="715.7" style="fill: none;stroke: #fff;stroke-miterlimit: 10;stroke-width: 10px"/>
    <line x1="715.7" y1="1431.5" x2="715.7" y2="1427.7" style="fill: none;stroke: #fff;stroke-miterlimit: 10;stroke-width: 10px"/>
    <line x1="3.8" y1="715.7" y2="715.7" style="fill: none;stroke: #fff;stroke-miterlimit: 10;stroke-width: 10px"/>
    <line x1="1431.5" y1="715.7" x2="1427.7" y2="715.7" style="fill: none;stroke: #fff;stroke-miterlimit: 10;stroke-width: 10px"/>
    <line x1="773" y1="715.7" x2="658.5" y2="715.7" style="fill: none;stroke: #fff;stroke-miterlimit: 10;stroke-width: 0.25px"/>
    <line x1="715.7" y1="658.5" x2="715.7" y2="773" style="fill: none;stroke: #fff;stroke-miterlimit: 10;stroke-width: 0.25px"/>
    <path d="M1287,.1V1431.4H643.7V.1H1287m.1-.1H643.6V1431.5h643.5V0Z" style="fill: #fff"/>
  </g>
  <g>
    <polygon points="911.7 1286.6 854 1385 873.4 1385 922.3 1300.7 911.7 1286.6" style="fill: url(#radial-gradient)"/>
    <path d="M971.3,1349.5v-39.3h9.2v31.7h13.6v7.6Z" style="fill: #fff"/>
    <path d="M1024.3,1349.5l-17.3-26.6s.2,4.7.2,8.9v17.7h-9v-39.3h9.9l16.8,26.4s-.2-4.4-.2-8.5v-17.9h9v39.3Z" style="fill: #fff"/>
    <path d="M1038.3,1349.5v-39.3h9.1v31.7H1061v7.6Z" style="fill: #fff"/>
    <path d="M1078.7,1350.1c-8.1,0-13-4.5-14.3-6.5l4.2-5.5c1.6,2,5.8,4.9,9.6,4.9s6.9-2,6.9-5.5-2.8-5.3-6.3-5.3h-3.5v-6.4h3.5c3.1,0,5.2-1.6,5.2-4.6s-2.5-4.6-5.6-4.6-6.2,1.2-9.4,3.8l-3.4-5.8c2.7-2.4,6.3-4.9,13.5-4.9s13.6,3.8,13.6,10.4-3,7.6-5.6,8.6v.2a9.3,9.3,0,0,1,6.9,9.1C1094,1345.9,1086.8,1350.1,1078.7,1350.1Z" style="fill: #fff"/>
    <path d="M1110.6,1349.5h-13.3v-39.3h13.3c12.3,0,21.5,6.6,21.5,19.7S1123,1349.5,1110.6,1349.5Zm.5-31.6h-4.7v23.8h4.7c7.3,0,11.6-4.5,11.6-11.8S1118.5,1317.9,1111.1,1317.9Z" style="fill: #fff"/>
    <path d="M979.7,1382.6c3.7,0,6.3-2,6.3-5.5s-2.5-4.7-5.4-6l-4.5-1.9c-3.5-1.5-5.2-3.8-5.2-7.5s4.7-7.9,9.4-7.9a10.9,10.9,0,0,1,8.5,4l-2,2.2a8.3,8.3,0,0,0-6.6-3.3c-3.3,0-5.9,1.7-5.9,4.8s2.2,4.4,4.3,5.2l4.2,1.8c3.7,1.6,6.7,3.7,6.7,8.2s-4.3,8.8-10.2,8.8-8-3.1-9.6-5.5l2.3-2.2C973.3,1379.9,976.4,1382.6,979.7,1382.6Z" style="fill: #fff"/>
    <path d="M992.9,1374.6a10.9,10.9,0,1,1,21.8,0,10.9,10.9,0,0,1-21.8,0Zm18.4-.1c0-4.5-2.9-8-7.5-8s-7.5,3.5-7.5,8,2.8,8,7.5,8S1011.3,1378.9,1011.3,1374.5Z" style="fill: #fff"/>
    <path d="M1017.9,1354.2h3.3v30.7h-3.3Z" style="fill: #fff"/>
    <path d="M1043.8,1364v20.9h-3.2v-3.3c-.9,2.2-3.6,3.7-6.6,3.7-5.9,0-7.4-3.7-7.4-8.6V1364h3.3v12.4c0,3.9,1.3,6,5.2,6s5.5-3.2,5.5-6.8V1364Z" style="fill: #fff"/>
    <path d="M1055.7,1385.4c-5,0-5-4.7-5-8.5v-10h-3.1v-2.8h3.1v-6.5h3.3v6.5h5.2v2.8H1054v10.7c0,1.7,0,3.2.7,4.1s1.1.8,2.1.8a5.7,5.7,0,0,0,2.3-.5l.2,2.7A8,8,0,0,1,1055.7,1385.4Z" style="fill: #fff"/>
    <path d="M1065.8,1359.1a2.2,2.2,0,0,1-2.3-2.2,2.3,2.3,0,0,1,2.3-2.3,2.2,2.2,0,0,1,2.3,2.3A2.1,2.1,0,0,1,1065.8,1359.1Zm-1.6,4.9h3.3v20.9h-3.3Z" style="fill: #fff"/>
    <path d="M1071.6,1374.6a10.9,10.9,0,1,1,21.8,0,10.9,10.9,0,0,1-21.8,0Zm18.4-.1c0-4.5-2.9-8-7.5-8s-7.5,3.5-7.5,8,2.8,8,7.5,8S1090,1378.9,1090,1374.5Z" style="fill: #fff"/>
    <path d="M1114.6,1372.3v12.6h-3.3v-12.4c0-3.9-1.2-6-5.1-6s-5.6,3.1-5.6,6.7v11.7h-3.3V1364h3.3v3.4h.1c.9-2.2,3.5-3.8,6.5-3.8C1113.2,1363.6,1114.6,1367.3,1114.6,1372.3Z" style="fill: #fff"/>
    <path d="M1125.7,1382.8c2.2,0,4.4-1,4.4-3.5s-3.5-3.4-5.1-3.9-6-1.5-6-5.9,3.4-5.9,6.8-5.9a9.7,9.7,0,0,1,6.8,2.5l-1.6,2a8.5,8.5,0,0,0-5.2-1.9c-2.2,0-3.7,1-3.7,3s2.1,2.8,4.4,3.5,6.7,1.8,6.7,6.3-3.3,6.4-7.6,6.4a9.4,9.4,0,0,1-7.8-3.7l1.8-2.1C1121.6,1381.9,1123.7,1382.8,1125.7,1382.8Z" style="fill: #fff"/>
    <polygon points="930 1376.8 905.4 1344.5 913.6 1341.7 938.2 1374.1 930 1376.8" style="fill: #99d0a0"/>
    <polyline points="913.6 1385 913.6 1385 883.5 1385 883.5 1377.3 904.1 1377.3 904.1 1341.7 913.6 1341.7" style="fill: #4db6e8"/>
    <polygon points="925.1 1306 920.5 1313.8 949.1 1349.5 960.1 1349.5 925.1 1306" style="fill: url(#radial-gradient-2)"/>
    <polyline points="929.9 1385 929.9 1385 960 1385 960 1377.3 939.4 1377.3 939.4 1341.7 929.9 1341.7" style="fill: #f4bf1f"/>
  </g>
</svg>
