<svg id="Layer_1" data-name="Layer 1" xmlns="http://www.w3.org/2000/svg" xmlns:xlink="http://www.w3.org/1999/xlink" width="605mm" height="610mm" viewBox="0 0 1715 1729.1">
  <defs>
    <radialGradient id="radial-gradient" cx="-621.49" cy="1264.08" r="72.58" gradientTransform="translate(2311.2 -601.6) scale(1.67 1.68)" gradientUnits="userSpaceOnUse">
      <stop offset="0" stop-color="#4db5e7"/>
      <stop offset="1" stop-color="#167ab9"/>
    </radialGradient>
    <radialGradient id="radial-gradient-2" cx="-631.1" cy="1278.54" fx="-546.7997793489187" fy="1278.54238997403" r="85.15" gradientTransform="translate(2311.2 -601.6) scale(1.67 1.68)" gradientUnits="userSpaceOnUse">
      <stop offset="0" stop-color="#fff"/>
      <stop offset="1" stop-color="#749194"/>
    </radialGradient>
  </defs>
  <g>
    <g>
      <rect width="793.7" height="1729.13" style="fill: #1a1a1a"/>
      <g>
        <path d="M454.1,106.8v39.6c0,42-30.4,75.5-72.9,75.5s-73-33.3-73-75.5V106.8ZM332.6,191.2a65.1,65.1,0,0,0,48.6,21.1c38.4,0,64.5-29.6,64.5-67.4v-29h-129v29C316.7,165.8,323.7,181.4,332.6,191.2Z" style="fill: #4d4d4d"/>
        <path d="M326.6,311.7c-12.2-5.3-20.5-18.3-20.5-32.1,0-26.5,15.7-33.9,41.7-33.9h57.9v8.9H345.4c-15,0-31.2,3-31.2,25.6s21.7,31.5,41.2,31.5h50.3v9H308.2v-9Z" style="fill: #4d4d4d"/>
        <path d="M405.7,350.4v9l-21.6-.3c15.3,6.4,23.3,21.8,23.3,38.6,0,30.7-22.2,47.8-51,47.8s-50.3-19.2-50.3-48.4c0-13.9,5.5-28.8,21.2-38H267.9v-8.7Zm-48.8,85.7c23.4,0,42.7-13.9,42.7-38.6s-19.3-38.6-42.7-38.6-42.7,13.9-42.7,38.6S333.6,436.1,356.9,436.1Z" style="fill: #4d4d4d"/>
        <path d="M454.1,469.3V478H308.2v-8.7Z" style="fill: #4d4d4d"/>
        <path d="M405.7,508.2v8.7H308.2v-8.7Zm27.1,4.5a8.2,8.2,0,0,1,8.2-8.1,8.1,8.1,0,1,1,0,16.2A8.2,8.2,0,0,1,432.8,512.7Z" style="fill: #4d4d4d"/>
        <path d="M306.1,587.7c0-26.8,21.2-48.3,51-48.3s50.3,21.7,50.3,49-14.4,36.4-17.6,38.8l-5.5-6.8c5.1-4.5,14.6-12.6,14.6-32.7S382,549,357.7,549s-43.1,16.4-43.1,39.4a45.1,45.1,0,0,0,14.4,33l-5.5,6.2C319,623.8,306.1,613.8,306.1,587.7Z" style="fill: #4d4d4d"/>
        <path d="M323,707.2c-4.8-4-16.9-16.2-16.9-35.3s12.9-32,29.2-32,28.7,13,29.6,41.1l.8,26.5h5.7c18.9,0,27.7-12,27.7-29.9,0-13-5.9-25.8-7.8-28.3l6.6-3.9c4,5.4,9.5,19.2,9.5,31.6,0,14.5-3.2,22.8-9.3,29.4s-12.7,10-29.6,10H308.2v-9.2Zm34.1-25.1c-.7-24.3-10-32.6-22-32.6s-20.7,8.9-20.7,24.7,11,28.1,18.8,33h24.5Z" style="fill: #4d4d4d"/>
        <path d="M306.1,767.7c0-8.1,2.8-14,8.3-17.7s15.8-4.4,31.9-4.4h50.5v-15h8.5v15h31.5v8.9H405.3v25.2h-8.5V754.3H338c-14.1,0-23.8,1.7-23.8,14.9a21.7,21.7,0,0,0,2.7,10.7l-7.8,1C307.2,778.4,306.1,773.9,306.1,767.7Z" style="fill: #4d4d4d"/>
        <path d="M405.7,798.7v8.7H308.2v-8.7Zm27.1,4.5a8.2,8.2,0,0,1,8.2-8.1,8.1,8.1,0,1,1,0,16.2A8.3,8.3,0,0,1,432.8,803.2Z" style="fill: #4d4d4d"/>
        <path d="M357.1,830c28.5,0,50.3,19.4,50.3,49.8s-21.8,49.9-50.3,49.9-51-19.4-51-49.9S327.7,830,357.1,830Zm-.2,9.6c-23.1,0-42.5,15.5-42.5,40.2s19.4,40.3,42.5,40.3,42.2-15.8,42.2-40.3S380.8,839.6,356.9,839.6Z" style="fill: #4d4d4d"/>
        <path d="M366.8,1019.3c15.6,0,32.6-4.2,32.6-26.2s-18.9-31.3-43-31.3H308.2v-9h97.5v8.8H386.9c12.2,4.7,20.5,18.1,20.5,32.2,0,28.1-17.8,34.5-40.8,34.5H308.2v-9Z" style="fill: #4d4d4d"/>
        <path d="M293.7,1042.5l180.7,89.3-4,7.8-180.8-89C290.9,1048,292.2,1045,293.7,1042.5Z" style="fill: #4d4d4d"/>
        <path d="M437.6,1277.4l-130.4-54.7v-2.2l130-53.9-129-13.2V1144l145.9,15.6V1170l-127.7,52.2,127.7,52v10.7l-145.9,15.3v-9.3Z" style="fill: #4d4d4d"/>
        <path d="M405.7,1327.2v8.7H308.2v-8.7Zm27.1,4.4a8.3,8.3,0,0,1,8.2-8.1,8.1,8.1,0,1,1,0,16.2A8.2,8.2,0,0,1,432.8,1331.6Z" style="fill: #4d4d4d"/>
        <path d="M405.7,1365.5v8.7H388.4c12.9,4.9,19,14.5,19,25.2a57.2,57.2,0,0,1-1.3,11.7l-9.3-1.3a39.1,39.1,0,0,0,1.5-11.7c0-8.9-6.1-14.7-8.5-16.6-4.4-3.4-11.2-7.3-26-7.3H308.2v-8.7Z" style="fill: #4d4d4d"/>
        <path d="M405.7,1427.3v8.7H388.4c12.9,4.9,19,14.5,19,25.1a58.9,58.9,0,0,1-1.3,11.8l-9.3-1.3a39.6,39.6,0,0,0,1.5-11.7c0-9-6.1-14.7-8.5-16.7-4.4-3.4-11.2-7.2-26-7.2H308.2v-8.7Z" style="fill: #4d4d4d"/>
        <path d="M357.1,1477.2c28.5,0,50.3,19.4,50.3,49.9s-21.8,49.9-50.3,49.9-51-19.4-51-49.9S327.7,1477.2,357.1,1477.2Zm-.2,9.6c-23.1,0-42.5,15.6-42.5,40.3s19.4,40.3,42.5,40.3,42.2-15.8,42.2-40.3S380.8,1486.8,356.9,1486.8Z" style="fill: #4d4d4d"/>
        <path d="M405.7,1600.1v8.7H388.4c12.9,4.9,19,14.5,19,25.2a57.2,57.2,0,0,1-1.3,11.7l-9.3-1.3a39.1,39.1,0,0,0,1.5-11.7c0-8.9-6.1-14.7-8.5-16.6-4.4-3.4-11.2-7.3-26-7.3H308.2v-8.7Z" style="fill: #4d4d4d"/>
      </g>
      <line x1="857.5" y1="795.4" x2="857.5" y2="933.7" style="fill: none;stroke: #fff;stroke-miterlimit: 10;stroke-width: 0.25px"/>
      <line x1="857.5" y1="4.6" x2="857.5" style="fill: none;stroke: #fff;stroke-miterlimit: 10;stroke-width: 10px"/>
      <line x1="857.5" y1="1729.1" x2="857.5" y2="1724.5" style="fill: none;stroke: #fff;stroke-miterlimit: 10;stroke-width: 10px"/>
      <line x1="4.6" y1="864.6" y2="864.6" style="fill: none;stroke: #fff;stroke-miterlimit: 10;stroke-width: 10px"/>
      <line x1="1715" y1="864.6" x2="1710.4" y2="864.6" style="fill: none;stroke: #fff;stroke-miterlimit: 10;stroke-width: 10px"/>
      <line x1="926.1" y1="864.6" x2="788.9" y2="864.6" style="fill: none;stroke: #fff;stroke-miterlimit: 10;stroke-width: 0.25px"/>
      <line x1="857.5" y1="795.4" x2="857.5" y2="933.7" style="fill: none;stroke: #fff;stroke-miterlimit: 10;stroke-width: 0.25px"/>
      <path d="M1586.3.1V1729H792.8V.1h793.5m.1-.1H792.7V1729.1h793.7V0Z" style="fill: #fff"/>
    </g>
    <g>
      <polygon points="1242.2 1531.1 1173.1 1650 1196.4 1650 1255 1548.1 1242.2 1531.1" style="fill: url(#radial-gradient)"/>
      <path d="M1313.7,1607.1v-47.4h10.9v38.2h16.3v9.2Z" style="fill: #fff"/>
      <path d="M1377.1,1607.1l-20.6-32.2s.2,5.7.2,10.8v21.4h-10.8v-47.4h11.8l20.2,31.9s-.2-5.4-.2-10.4v-21.5h10.7v47.4Z" style="fill: #fff"/>
      <path d="M1393.8,1607.1v-47.4h11v38.2h16.3v9.2Z" style="fill: #fff"/>
      <path d="M1442.3,1607.8c-9.7,0-15.5-5.5-17.2-7.9l5.1-6.6c1.9,2.4,6.9,6,11.5,6s8.2-2.5,8.2-6.7-3.2-6.4-7.5-6.4h-4.1v-7.8h4.1c3.7,0,6.3-1.8,6.3-5.5s-3.1-5.6-6.8-5.6-7.4,1.5-11.3,4.6l-4-7c3.2-2.9,7.6-5.9,16.2-5.9s16.3,4.7,16.3,12.6-3.6,9.1-6.7,10.4v.2a11.2,11.2,0,0,1,8.2,11C1460.6,1602.7,1452,1607.8,1442.3,1607.8Z" style="fill: #fff"/>
      <path d="M1480.5,1607.1h-16v-47.4h16c14.8,0,25.7,7.9,25.7,23.7S1495.3,1607.1,1480.5,1607.1Zm.6-38.2h-5.6v28.8h5.6c8.7,0,14-5.5,14-14.3S1490,1568.9,1481.1,1568.9Z" style="fill: #fff"/>
      <path d="M1323.7,1647c4.4,0,7.6-2.3,7.6-6.5s-3.1-5.8-6.5-7.3l-5.5-2.4c-4.1-1.7-6.1-4.5-6.1-9,0-6.2,5.6-9.5,11.3-9.5a13.1,13.1,0,0,1,10.1,4.8l-2.4,2.7a10,10,0,0,0-7.9-4c-4,0-7.1,2.1-7.1,5.7s2.7,5.4,5.1,6.4l5.1,2.1c4.4,2,8,4.6,8,9.9s-5.1,10.6-12.2,10.6-9.6-3.7-11.5-6.6l2.7-2.6C1316,1643.8,1319.7,1647,1323.7,1647Z" style="fill: #fff"/>
      <path d="M1339.5,1637.4a13.1,13.1,0,1,1,26.1,0,12.6,12.6,0,0,1-13,13C1345.2,1650.4,1339.5,1645.1,1339.5,1637.4Zm22.1-.1c0-5.5-3.5-9.7-9-9.7s-9,4.2-9,9.7,3.4,9.6,9,9.6S1361.6,1642.6,1361.6,1637.3Z" style="fill: #fff"/>
      <path d="M1369.5,1612.8h4v37.1h-4Z" style="fill: #fff"/>
      <path d="M1400.5,1624.6v25.3h-3.9v-4c-1.1,2.7-4.3,4.4-7.9,4.4-7.2,0-8.9-4.4-8.9-10.4v-15.3h4v15c0,4.7,1.5,7.3,6.1,7.3s6.7-3.9,6.7-8.3v-14Z" style="fill: #fff"/>
      <path d="M1414.7,1650.4c-5.9,0-5.9-5.6-5.9-10.2V1628H1405v-3.3h3.8v-7.8h4v7.8h6.1v3.3h-6.2v13c0,2.1,0,3.8.8,5a2.9,2.9,0,0,0,2.6,1,6.7,6.7,0,0,0,2.7-.6l.3,3.2A9.9,9.9,0,0,1,1414.7,1650.4Z" style="fill: #fff"/>
      <path d="M1426.9,1618.7a2.6,2.6,0,0,1-2.8-2.7,2.7,2.7,0,0,1,2.8-2.8,2.8,2.8,0,1,1,0,5.5Zm-2,6h4v25.2h-4Z" style="fill: #fff"/>
      <path d="M1433.8,1637.4a13.1,13.1,0,1,1,13,13A12.6,12.6,0,0,1,1433.8,1637.4Zm22-.1c0-5.5-3.4-9.7-9-9.7s-9,4.2-9,9.7,3.5,9.6,9,9.6S1455.8,1642.6,1455.8,1637.3Z" style="fill: #fff"/>
      <path d="M1485.3,1634.6v15.3h-3.9v-15c0-4.7-1.5-7.3-6.2-7.3s-6.7,3.7-6.7,8.1v14.2h-3.9v-25.2h3.9v4h.2c1.1-2.6,4.2-4.5,7.8-4.5C1483.6,1624.2,1485.3,1628.6,1485.3,1634.6Z" style="fill: #fff"/>
      <path d="M1498.6,1647.3c2.7,0,5.3-1.2,5.3-4.2s-4.2-4.1-6.1-4.7-7.2-1.8-7.2-7.2,4-7,8.1-7a11.5,11.5,0,0,1,8.2,2.9l-1.9,2.5a9.6,9.6,0,0,0-6.3-2.4c-2.6,0-4.5,1.3-4.5,3.6s2.6,3.4,5.4,4.4,8,2.1,8,7.5-4,7.7-9.1,7.7-7.5-1.7-9.3-4.4l2.1-2.6C1493.7,1646.2,1496.2,1647.3,1498.6,1647.3Z" style="fill: #fff"/>
      <polygon points="1264.2 1640.1 1234.7 1601 1244.5 1597.7 1274 1636.8 1264.2 1640.1" style="fill: #99d0a0"/>
      <polyline points="1244.5 1650 1244.5 1650 1208.5 1650 1208.5 1640.6 1233.1 1640.6 1233.1 1597.7 1244.5 1597.7" style="fill: #4db6e8"/>
      <polygon points="1258.3 1554.6 1252.8 1563.9 1287.1 1607.1 1300.2 1607.1 1258.3 1554.6" style="fill: url(#radial-gradient-2)"/>
      <polyline points="1264 1650 1264 1650 1300.1 1650 1300.1 1640.6 1275.4 1640.6 1275.4 1597.7 1264 1597.7" style="fill: #f4bf1f"/>
    </g>
  </g>
</svg>
