<?xml version="1.0" encoding="UTF-8"?>
<svg id="_图层_1" data-name=" 图层 1" xmlns="http://www.w3.org/2000/svg" width="129.3mm" height="124.3mm" viewBox="0 0 366.4 352.2">
  <g>
    <path d="M13,334.4c-.2,0-.4,0-.4,0h0c-.2,0-.4,0-.5-.1l-1-.4c-.2,0-.4-.2-.7-.4l-.6-.6c-.6-.6-1-1.4-1.3-2.5-.3-.9-.4-2-.4-3.3s.2-2.6,.6-3.5c.5-1.2,1.3-2.2,2.5-2.9,.3-.2,.8-.3,1.4-.4,.6,0,3-.1,7.4-.1v2.5h-5.8c-1.1,0-1.9,.5-2.5,1.4-.4,.7-.6,1.7-.6,2.8v1.5c0,.2,0,.4,.1,.5h0c0,.3,0,.5,0,.6,.1,.7,.4,1.3,.9,1.7,.5,.4,2.1,.6,5,.6v-3.3h-3.6v-2.5h6.4v8.4h-6.8Z" style="fill: #fff; fill-rule: evenodd;"/>
    <path d="M27.2,334.4h-1.1c0,0-.4,0-.4,0,0,0-.2,0-.3,0,0,0-.1,0-.1,0,0,0-.1,0-.2,0-1.3-.4-2.3-1.2-2.9-2.5-.3-.5-.5-1.1-.6-1.7-.2-.6-.2-1.2-.2-1.9,0-1.3,0-2.4,.3-3.3,.2-.9,.5-1.7,1-2.4,.5-.8,1.2-1.3,2-1.6,.3-.1,.8-.3,1.4-.4,.5,0,2.5-.1,6-.1v2.5h-4.4c-2,0-3,1.1-3,3.3h7.5v2.5h-7.5c0,.6,0,1,.1,1.4,0,.2,0,.4,.2,.6,0,.1,.2,.3,.3,.5l.5,.5c.2,.1,.3,.2,.6,.3,.2,0,.5,.1,.7,.1h5.2v2.5h-4.6Z" style="fill: #fff; fill-rule: evenodd;"/>
    <path d="M39.4,334.4h-1.1c0,0-.4,0-.4,0,0,0-.2,0-.3,0,0,0-.1,0-.1,0,0,0-.1,0-.2,0-1.3-.4-2.3-1.2-2.9-2.5-.3-.5-.5-1.1-.6-1.7-.2-.6-.2-1.2-.2-1.9,0-1.3,0-2.4,.3-3.3,.2-.9,.5-1.7,1-2.4,.5-.8,1.2-1.3,2-1.6,.3-.1,.8-.3,1.4-.4,.5,0,2.5-.1,6-.1v2.5h-4.4c-2,0-3,1.1-3,3.3h7.5v2.5h-7.5c0,.6,0,1,.1,1.4,0,.2,0,.4,.2,.6,0,.1,.2,.3,.3,.5l.5,.5c.2,.1,.3,.2,.6,.3,.2,0,.5,.1,.7,.1h5.2v2.5h-4.6Z" style="fill: #fff; fill-rule: evenodd;"/>
    <path d="M51.5,334.4h-1.1c0,0-.4,0-.4,0,0,0-.2,0-.3,0,0,0-.1,0-.1,0,0,0-.1,0-.2,0-1.3-.4-2.3-1.2-2.9-2.5-.3-.5-.5-1.1-.6-1.7-.2-.6-.2-1.2-.2-1.9,0-1.3,0-2.4,.3-3.3,.2-.9,.5-1.7,1-2.4,.5-.8,1.2-1.3,2-1.6,.3-.1,.8-.3,1.4-.4,.5,0,2.5-.1,6-.1v2.5h-4.4c-2,0-3,1.1-3,3.3h7.5v2.5h-7.5c0,.6,0,1,.1,1.4,0,.2,0,.4,.2,.6,0,.1,.2,.3,.3,.5l.5,.5c.2,.1,.3,.2,.6,.3,.2,0,.5,.1,.7,.1h5.2v2.5h-4.6Z" style="fill: #fff; fill-rule: evenodd;"/>
    <polygon points="64 322.7 64 334.4 61.2 334.4 61.2 322.7 57.1 322.7 57.1 320.2 68.2 320.2 68.2 322.7 64 322.7" style="fill: #fff; fill-rule: evenodd;"/>
    <path d="M74.7,334.4h-1.1c0,0-.4,0-.4,0,0,0-.2,0-.3,0,0,0-.1,0-.1,0,0,0-.1,0-.2,0-1.3-.4-2.3-1.2-2.9-2.5-.3-.5-.5-1.1-.6-1.7-.2-.6-.2-1.2-.2-1.9,0-1.3,0-2.4,.3-3.3,.2-.9,.5-1.7,1-2.4,.5-.8,1.2-1.3,2-1.6,.3-.1,.8-.3,1.4-.4,.5,0,2.5-.1,6-.1v2.5h-4.4c-2,0-3,1.1-3,3.3h7.5v2.5h-7.5c0,.6,0,1,.1,1.4,0,.2,0,.4,.2,.6,0,.1,.2,.3,.3,.5l.5,.5c.2,.1,.3,.2,.6,.3,.2,0,.5,.1,.7,.1h5.2v2.5h-4.6Z" style="fill: #fff; fill-rule: evenodd;"/>
    <path d="M86.8,334.4h-1.1c0,0-.4,0-.4,0,0,0-.2,0-.3,0,0,0-.1,0-.1,0,0,0-.1,0-.2,0-1.3-.4-2.3-1.2-2.9-2.5-.6-1.1-.9-2.3-.9-3.6s0-2.4,.3-3.3c.2-.9,.5-1.7,1-2.4,.5-.8,1.2-1.3,2-1.6,.5-.2,.9-.3,1.4-.4,.5,0,2.5-.1,6-.1v2.4h-4.4c-.9,0-1.5,.3-2.1,.8-.4,.4-.7,1.1-.9,1.8-.2,.8-.3,1.6-.3,2.5s.1,1.7,.3,2.4c.3,.9,.8,1.4,1.5,1.6h.3c0,0,.3,0,.3,0h5.2v2.5h-4.6Z" style="fill: #fff; fill-rule: evenodd;"/>
    <polygon points="101 334.4 101 328.4 96.1 328.4 96.1 334.4 93.3 334.4 93.3 320.2 96.1 320.2 96.1 325.9 101 325.9 101 320.2 103.7 320.2 103.7 334.4 101 334.4" style="fill: #fff; fill-rule: evenodd;"/>
  </g>
  <rect x=".4" y=".4" width="365.7" height="351.5" style="fill: none; stroke: #fff; stroke-miterlimit: 10; stroke-width: .8px;"/>
  <line x1="112.9" y1="326.8" x2="366" y2="326.8" style="fill: none; stroke: #fff; stroke-miterlimit: 10; stroke-width: .8px;"/>
  <line x1=".4" y1="301.7" x2="366" y2="301.7" style="fill: none; stroke: #fff; stroke-miterlimit: 10; stroke-width: .8px;"/>
  <line x1=".4" y1="276.6" x2="366" y2="276.6" style="fill: none; stroke: #fff; stroke-miterlimit: 10; stroke-width: .8px;"/>
  <line x1=".4" y1="251.4" x2="366" y2="251.4" style="fill: none; stroke: #fff; stroke-miterlimit: 10; stroke-width: .8px;"/>
  <line x1=".4" y1="226.3" x2="366" y2="226.3" style="fill: none; stroke: #fff; stroke-miterlimit: 10; stroke-width: .8px;"/>
  <line x1=".4" y1="201.2" x2="366" y2="201.2" style="fill: none; stroke: #fff; stroke-miterlimit: 10; stroke-width: .8px;"/>
  <line x1=".4" y1="176.1" x2="366" y2="176.1" style="fill: none; stroke: #fff; stroke-miterlimit: 10; stroke-width: .8px;"/>
  <line x1=".4" y1="151" x2="366" y2="151" style="fill: none; stroke: #fff; stroke-miterlimit: 10; stroke-width: .8px;"/>
  <line x1=".4" y1="125.9" x2="366" y2="125.9" style="fill: none; stroke: #fff; stroke-miterlimit: 10; stroke-width: .8px;"/>
  <line x1=".4" y1="100.8" x2="366" y2="100.8" style="fill: none; stroke: #fff; stroke-miterlimit: 10; stroke-width: .8px;"/>
  <line x1=".4" y1="75.7" x2="366" y2="75.7" style="fill: none; stroke: #fff; stroke-miterlimit: 10; stroke-width: .8px;"/>
  <line x1=".4" y1="50.6" x2="366" y2="50.6" style="fill: none; stroke: #fff; stroke-miterlimit: 10; stroke-width: .8px;"/>
  <line x1=".4" y1="25.5" x2="366" y2="25.5" style="fill: none; stroke: #fff; stroke-miterlimit: 10; stroke-width: .8px;"/>
  <line x1="337.9" y1=".4" x2="337.9" y2="351.9" style="fill: none; stroke: #fff; stroke-miterlimit: 10; stroke-width: .8px;"/>
  <line x1="309.8" y1=".4" x2="309.8" y2="351.9" style="fill: none; stroke: #fff; stroke-miterlimit: 10; stroke-width: .8px;"/>
  <line x1="281.7" y1=".4" x2="281.7" y2="351.9" style="fill: none; stroke: #fff; stroke-miterlimit: 10; stroke-width: .8px;"/>
  <line x1="253.5" y1=".4" x2="253.5" y2="351.9" style="fill: none; stroke: #fff; stroke-miterlimit: 10; stroke-width: .8px;"/>
  <line x1="225.4" y1=".4" x2="225.4" y2="351.9" style="fill: none; stroke: #fff; stroke-miterlimit: 10; stroke-width: .8px;"/>
  <line x1="197.3" y1=".4" x2="197.3" y2="351.9" style="fill: none; stroke: #fff; stroke-miterlimit: 10; stroke-width: .8px;"/>
  <line x1="169.1" y1=".4" x2="169.1" y2="351.9" style="fill: none; stroke: #fff; stroke-miterlimit: 10; stroke-width: .8px;"/>
  <line x1="141" y1=".4" x2="141" y2="351.9" style="fill: none; stroke: #fff; stroke-miterlimit: 10; stroke-width: .8px;"/>
  <line x1="112.9" y1=".4" x2="112.9" y2="351.9" style="fill: none; stroke: #fff; stroke-miterlimit: 10; stroke-width: .8px;"/>
  <line x1="84.8" y1=".4" x2="84.8" y2="301.7" style="fill: none; stroke: #fff; stroke-miterlimit: 10; stroke-width: .8px;"/>
  <line x1="56.6" y1=".4" x2="56.6" y2="301.7" style="fill: none; stroke: #fff; stroke-miterlimit: 10; stroke-width: .8px;"/>
  <line x1="28.5" y1=".4" x2="28.5" y2="301.7" style="fill: none; stroke: #fff; stroke-miterlimit: 10; stroke-width: .8px;"/>
</svg>