<?xml version="1.0" encoding="UTF-8"?>
<svg id="_图层_1" data-name=" 图层 1" xmlns="http://www.w3.org/2000/svg" width="150mm" height="150mm" viewBox="0 0 425.2 425.2">
  <g>
    <rect x="311" y="375.2" width="93.6" height="29.5" style="fill: none;"/>
    <g>
      <path d="M340.4,398.5h0l-10.9-18.8c0-.2-.3-.3-.5-.3s-.5,.2-.5,.3l-10.9,18.8c0,.2,0,.5,0,.6,0,.2,.3,.3,.5,.3h21.7c.2,0,.5-.2,.5-.3,0-.2,0-.5,0-.6h0Zm-21.2-.3l9.8-16.9,9.8,16.9h-19.5Z" style="fill: #fff;"/>
      <rect x="324.2" y="396.1" width="9.5" height="1" style="fill: #fff;"/>
      <path d="M327.1,395.4l-.5-.4c1-1.4,.5-2.3,0-3.2-.6-1-1.3-2.2,0-3.9l.5,.4c-1,1.4-.5,2.3,0,3.2,.6,1,1.3,2.2,0,3.9h0Z" style="fill: #fff;"/>
      <path d="M329.4,395.4l-.5-.4c1-1.4,.5-2.3,0-3.2-.6-1-1.3-2.2,0-3.8l.5,.4c-1,1.4-.5,2.3,0,3.2,.6,1,1.3,2.2,0,3.8h0Z" style="fill: #fff;"/>
      <path d="M331.7,395.4l-.5-.4c1-1.4,.5-2.3,0-3.2-.6-1.1-1.2-2.2,0-3.9l.5,.4c-1,1.4-.5,2.3,0,3.2,.6,1.1,1.2,2.2,0,3.9Z" style="fill: #fff;"/>
    </g>
    <g>
      <path d="M346,387.6c-.5,0-.8,0-1.2-.2-.4,0-.7-.2-.9-.5-.2-.2-.5-.6-.6-1-.2-.5-.2-1-.2-1.7s0-1.1,.2-1.5c.2-.5,.3-.8,.6-1,.2-.2,.5-.5,.9-.5,.4,0,.8-.2,1.2-.2h.8c.2,0,.5,0,.6,.2v.8c-.2,0-.4-.2-.6-.2h-.8c-.3,0-.7,0-.9,.2-.3,0-.5,.2-.7,.5-.2,.2-.3,.5-.4,.8s-.2,.7-.2,1.2,0,.9,.2,1.2c0,.3,.2,.6,.4,.8s.4,.3,.6,.4,.5,.2,.9,.2h.8c.2,0,.5,0,.7-.2v.7c-.2,0-.4,.2-.7,.2-.2,0-.5,0-.9,0l.2-.2Z" style="fill: #fff;"/>
      <path d="M350.6,382.6c.4,0,.7,0,1,.2,.2,0,.5,.2,.6,.3s.2,.3,.3,.5c0,.2,0,.4,0,.6v3.5h-.7l-.2-.8c0,.2-.2,.2-.3,.4s-.2,.2-.4,.2-.3,.2-.5,.2h-.5c-.6,0-1-.2-1.3-.4s-.4-.6-.4-1.1,0-.5,.2-.8c0-.2,.2-.4,.4-.5,.2-.2,.4-.2,.6-.2s.5,0,.8,0h1.5v-.8c0-.2,0-.2-.2-.3s-.2-.2-.4-.2h-1.1c-.2,0-.4,0-.5,0v-.7h1.1v-.2Zm-.6,4.4c.4,0,.8,0,1.1-.2s.5-.4,.6-.7v-.8h-2c-.2,0-.3,0-.4,.2s-.2,.2-.2,.3v.5c0,.3,0,.5,.2,.6s.4,.2,.8,.2h0Z" style="fill: #fff;"/>
      <path d="M358.1,382.7v4.9h-.7v-.7l-.4,.4c0,0-.2,.2-.4,.2-.2,0-.3,0-.5,.2h-.5c-.3,0-.6,0-.8-.2-.2,0-.4-.2-.5-.3s-.2-.3-.2-.5,0-.4,0-.7v-3.4h.8v3.6c0,.2,0,.3,.2,.4s.2,.2,.3,.2,.3,0,.5,0h.5c.2,0,.3,0,.4-.2s.2-.2,.3-.3c0-.2,.2-.3,.2-.5v-3.3h1Z" style="fill: #fff;"/>
      <path d="M361.4,387h.5v.7h-1.3c-.2,0-.3-.2-.5-.2-.2-.2-.2-.3-.2-.5,0-.2,0-.5,0-.8v-2.8h-.8v-.7h.8v-1.1h.8v1.1h1.2v.7h-1.2v3.2c0,0,0,.2,0,.3s.2,.2,.2,.2h.5Z" style="fill: #fff;"/>
      <path d="M363.2,381.8c-.2,0-.3,0-.4,0,0,0,0-.2,0-.4s0-.3,0-.4c0,0,.2,0,.4,0s.3,0,.4,0c0,0,0,.2,0,.4s0,.3,0,.4c0,0-.2,0-.4,0Zm-.4,.9h.8v4.9h-.8v-4.9Z" style="fill: #fff;"/>
      <path d="M367.3,387.6c-.4,0-.7,0-1-.2-.3,0-.5-.2-.7-.5-.2-.2-.4-.5-.5-.8s-.2-.8-.2-1.2,0-.9,.2-1.2c0-.3,.2-.6,.5-.8,.2-.2,.5-.3,.7-.5,.3,0,.6-.2,1-.2s.7,0,1,.2c.3,0,.5,.2,.7,.5,.2,.2,.3,.5,.5,.8,0,.3,.2,.8,.2,1.2s0,.9-.2,1.2c0,.3-.2,.6-.5,.8-.2,.2-.5,.3-.7,.5-.3,0-.6,.2-1,.2Zm0-.7c.3,0,.5,0,.7,0s.3-.2,.5-.3c0-.2,.2-.3,.2-.6s0-.5,0-.9v-.9c0-.2-.2-.5-.2-.6s-.2-.2-.5-.3c-.2,0-.4,0-.7,0s-.5,0-.7,0c-.2,0-.3,.2-.5,.3,0,.2-.2,.4-.2,.6v1.8c0,.2,.2,.5,.2,.6,.2,.2,.2,.2,.5,.3s.4,0,.7,0Z" style="fill: #fff;"/>
      <path d="M373.2,382.6c.3,0,.6,0,.8,.2,.2,0,.4,.2,.5,.3,.2,.2,.2,.3,.3,.5,0,.2,0,.4,0,.7v3.4h-.8v-3.6c0-.2,0-.3-.2-.4,0,0-.2-.2-.3-.2s-.3,0-.5,0h-.5c-.2,0-.3,0-.5,.2s-.2,.2-.4,.3-.2,.3-.2,.5v3.3h-.8v-4.9h.8v.7c0-.2,.2-.3,.3-.4s.2-.2,.4-.2,.3,0,.5-.2,.3,0,.5,0h-.2Z" style="fill: #fff;"/>
      <path d="M383.6,381.3v6.3h-.8v-3.1h-3.1v3.1h-.8v-6.3h.8v2.6h3.1v-2.6h.8Z" style="fill: #fff;"/>
      <path d="M385.6,381.8c-.2,0-.3,0-.4,0,0,0,0-.2,0-.4s0-.3,0-.4c0,0,.2,0,.4,0s.3,0,.4,0c0,0,0,.2,0,.4s0,.3,0,.4c0,0-.2,0-.4,0Zm-.4,.9h.8v4.9h-.8v-4.9Z" style="fill: #fff;"/>
      <path d="M391.8,382.7v4.6c0,.7-.2,1.2-.6,1.6s-1,.6-1.8,.6-.5,0-.6,0c-.2,0-.4,0-.5,0v-.7c.4,0,.8,0,1.2,0s1-.2,1.2-.4,.4-.7,.4-1.2v-.5c0,.3-.3,.5-.5,.7s-.6,.2-1.1,.2-.8,0-1-.2-.5-.3-.6-.5-.2-.5-.3-.8c0-.3,0-.7,0-1.1s0-.7,0-1c0-.3,.2-.6,.3-.8s.4-.4,.6-.5,.6-.2,1-.2,.5,0,.7,0c.2,0,.3,.2,.5,.2,.2,0,.2,.2,.3,.3,0,.2,.2,.2,.2,.4v-.9h.7Zm-2.3,4.3c.3,0,.5,0,.8-.2,.2,0,.4-.2,.5-.4s.2-.4,.2-.6v-1.5c0-.2-.2-.5-.2-.6s-.3-.3-.5-.4-.5-.2-.8-.2-.5,0-.7,.2c-.2,0-.3,.2-.4,.4s-.2,.4-.2,.6v1.4c0,.2,0,.5,.2,.6,0,.2,.2,.3,.4,.4s.4,.2,.7,.2h0Z" style="fill: #fff;"/>
      <path d="M395.8,382.6c.3,0,.6,0,.8,.2,.2,0,.4,.2,.5,.3,.2,.2,.2,.3,.3,.5,0,.2,0,.4,0,.7v3.4h-.8v-3.6c0-.2,0-.3-.2-.4,0,0-.2-.2-.3-.2s-.3,0-.5,0h-.5c-.2,0-.3,0-.5,.2s-.2,.2-.4,.3-.2,.3-.2,.5v3.3h-.8v-6.9h.8v2.7c0-.2,.2-.3,.3-.4s.2-.2,.4-.2,.3,0,.5-.2,.3,0,.5,0h-.2Z" style="fill: #fff;"/>
      <path d="M347.1,392.9h-1.8v5.6h-.8v-5.6h-1.8v-.8h4.5v.8h0Z" style="fill: #fff;"/>
      <path d="M351.7,395.4v.5l-3.3,.2c0,.3,0,.5,0,.7,0,.2,.2,.4,.2,.5,.2,.2,.3,.2,.5,.3,.2,0,.5,0,.8,0s.5,0,.8,0,.5-.2,.7-.2v.8s-.2,0-.3,0c-.2,0-.2,0-.4,0h-1c-.4,0-.7,0-1-.2-.3,0-.5-.2-.7-.5-.2-.2-.4-.5-.5-.8s-.2-.8-.2-1.2,0-.9,.2-1.2c0-.3,.2-.6,.5-.8,.2-.2,.5-.3,.7-.5,.3,0,.6-.2,.9-.2s.8,0,1,.2,.5,.3,.6,.5c.2,.2,.2,.5,.3,.7v.8l.2,.2Zm-.8,0v-.5c0-.2,0-.3-.2-.5s-.2-.2-.4-.3c-.2,0-.4-.2-.6-.2s-.5,0-.7,0c-.2,0-.3,.2-.5,.3,0,.2-.2,.3-.2,.5v.7l2.6-.2h0Z" style="fill: #fff;"/>
      <path d="M358.4,393.4c.3,0,.5,0,.8,.2,.2,0,.4,.2,.5,.3,.2,.2,.2,.3,.3,.5,0,.2,0,.4,0,.7v3.4h-.8v-3.1c0-.4,0-.7-.2-.9-.2-.2-.4-.3-.8-.3h-.4c0,0-.2,0-.4,.2,0,0-.2,.2-.3,.2,0,0-.2,.2-.2,.5h0v3.5h-.8v-3.1c0-.4,0-.7-.2-.9s-.4-.3-.8-.3h-.5c-.2,0-.2,0-.4,.2,0,0-.2,.2-.3,.3,0,.2-.2,.3-.2,.5v3.4h-.8v-4.9h.8v.7c.2-.3,.4-.5,.6-.6,.2,0,.5-.2,.8-.2s.7,0,.9,.2c.2,.2,.4,.3,.5,.6,0-.2,.2-.3,.3-.4,0,0,.2-.2,.4-.2,.2,0,.3,0,.5-.2s.3,0,.5,0v-.2Z" style="fill: #fff;"/>
      <path d="M364.2,393.4c.4,0,.8,0,1,.2s.5,.3,.6,.5,.2,.5,.3,.8c0,.3,0,.7,0,1.1s0,.7,0,1c0,.3-.2,.6-.3,.8s-.4,.5-.6,.5c-.2,.2-.6,.2-1,.2s-.8,0-1.1-.2c-.2-.2-.4-.4-.5-.7v2.6h-.8v-6.7h.8v.9c0-.3,.3-.5,.5-.7s.6-.3,1.1-.3h0Zm0,4.4c.3,0,.5,0,.7-.2s.3-.2,.4-.5c0-.2,.2-.4,.2-.6v-1.4c0-.2,0-.5-.2-.6,0-.2-.2-.3-.4-.4s-.4-.2-.7-.2-.5,0-.8,.2-.4,.2-.5,.4c-.2,.2-.2,.4-.2,.6v1.5c0,.2,.2,.5,.2,.6,.2,.2,.3,.3,.5,.4,.2,0,.5,.2,.8,.2Z" style="fill: #fff;"/>
      <path d="M371.7,395.4v.5l-3.3,.2c0,.3,0,.5,0,.7,0,.2,.2,.4,.2,.5,.2,.2,.3,.2,.5,.3,.2,0,.5,0,.8,0s.5,0,.8,0,.5-.2,.7-.2v.8s-.2,0-.3,0c-.2,0-.2,0-.4,0h-1c-.4,0-.7,0-1-.2-.3,0-.5-.2-.7-.5-.2-.2-.4-.5-.5-.8s-.2-.8-.2-1.2,0-.9,.2-1.2c0-.3,.2-.6,.5-.8,.2-.2,.5-.3,.7-.5,.3,0,.6-.2,.9-.2s.8,0,1,.2,.5,.3,.6,.5c.2,.2,.2,.5,.3,.7v.8l.2,.2Zm-.8,0v-.5c0-.2,0-.3-.2-.5s-.2-.2-.4-.3c-.2,0-.4-.2-.6-.2s-.5,0-.7,0c-.2,0-.3,.2-.5,.3,0,.2-.2,.3-.2,.5v.7l2.6-.2h0Z" style="fill: #fff;"/>
      <path d="M375.6,393.4v.7h-.6c-.2,0-.3,0-.5,.2-.2,0-.2,.2-.4,.3,0,.2-.2,.3-.2,.5v3.2h-.8v-4.9h.8v.9c0-.2,.2-.4,.3-.5s.2-.2,.4-.3c.2,0,.3-.2,.5-.2h.5Z" style="fill: #fff;"/>
      <path d="M378.4,393.4c.4,0,.7,0,1,.2,.2,0,.5,.2,.6,.3s.2,.3,.3,.5c0,.2,0,.4,0,.6v3.5h-.7l-.2-.8c0,.2-.2,.2-.3,.4s-.2,.2-.4,.2-.3,.2-.5,.2h-.5c-.6,0-1-.2-1.3-.4s-.4-.6-.4-1.1,0-.5,.2-.8c0-.2,.2-.4,.4-.5,.2-.2,.4-.2,.6-.2s.5,0,.8,0h1.5v-.8c0-.2,0-.2-.2-.3s-.2-.2-.4-.2h-1.1c-.2,0-.4,0-.5,0v-.7h1.1v-.2Zm-.6,4.4c.4,0,.8,0,1.1-.2s.5-.4,.6-.7v-.8h-2c-.2,0-.3,0-.4,.2s-.2,.2-.2,.3v.5c0,.3,0,.5,.2,.6s.4,.2,.8,.2h0Z" style="fill: #fff;"/>
      <path d="M383.7,397.8h.5v.7h-1.3c-.2,0-.3-.2-.5-.2-.2-.2-.2-.3-.2-.5,0-.2,0-.5,0-.8v-2.8h-.8v-.7h.8v-1.1h.8v1.1h1.2v.7h-1.2v3.2c0,0,0,.2,0,.3s.2,.2,.2,.2h.5Z" style="fill: #fff;"/>
      <path d="M389.4,393.5v4.9h-.7v-.7l-.4,.4c0,0-.2,.2-.4,.2-.2,0-.3,0-.5,.2h-.5c-.3,0-.6,0-.8-.2-.2,0-.4-.2-.5-.3s-.2-.3-.2-.5,0-.4,0-.7v-3.4h.8v3.6c0,.2,0,.3,.2,.4s.2,.2,.3,.2,.3,0,.5,0h.5c.2,0,.3,0,.4-.2s.2-.2,.3-.3c0-.2,.2-.3,.2-.5v-3.3h1Z" style="fill: #fff;"/>
      <path d="M393.7,393.4v.7h-.6c-.2,0-.3,0-.5,.2-.2,0-.2,.2-.4,.3,0,.2-.2,.3-.2,.5v3.2h-.8v-4.9h.8v.9c0-.2,.2-.4,.3-.5s.2-.2,.4-.3c.2,0,.3-.2,.5-.2h.5Z" style="fill: #fff;"/>
      <path d="M398.6,395.4v.5l-3.3,.2c0,.3,0,.5,0,.7,0,.2,.2,.4,.2,.5,.2,.2,.3,.2,.5,.3,.2,0,.5,0,.8,0s.5,0,.8,0,.5-.2,.7-.2v.8s-.2,0-.3,0c-.2,0-.2,0-.4,0h-1c-.4,0-.7,0-1-.2-.3,0-.5-.2-.7-.5-.2-.2-.4-.5-.5-.8s-.2-.8-.2-1.2,0-.9,.2-1.2c0-.3,.2-.6,.5-.8,.2-.2,.5-.3,.7-.5,.3,0,.6-.2,.9-.2s.8,0,1,.2,.5,.3,.6,.5c.2,.2,.2,.5,.3,.7v.8l.2,.2Zm-.8,0v-.5c0-.2,0-.3-.2-.5s-.2-.2-.4-.3c-.2,0-.4-.2-.6-.2s-.5,0-.7,0c-.2,0-.3,.2-.5,.3,0,.2-.2,.3-.2,.5v.7l2.6-.2h0Z" style="fill: #fff;"/>
    </g>
    <g>
      <path d="M307.6,409.3h.5l1.5,5.6h0l1.8-5.6h.7l1.9,5.6h0l1.5-5.6h.5l-1.7,6.2h-.6l-1.9-5.6h0l-1.9,5.6h-.6l-1.7-6.2h0Z" style="fill: #fff;"/>
      <path d="M316.5,409.3h.5l1.5,5.6h0l1.8-5.6h.7l1.9,5.6h0l1.5-5.6h.5l-1.7,6.2h-.6l-1.9-5.6h0l-1.9,5.6h-.6l-1.7-6.2h0Z" style="fill: #fff;"/>
      <path d="M325.3,409.3h.5l1.5,5.6h0l1.8-5.6h.7l1.9,5.6h0l1.5-5.6h.5l-1.7,6.2h-.6l-1.9-5.6h0l-1.9,5.6h-.6l-1.7-6.2h0Z" style="fill: #fff;"/>
      <path d="M334.6,415.5c-.2,0-.3,0-.4,0,0,0,0-.2,0-.5s0-.4,0-.4c0,0,.2,0,.4,0s.3,0,.4,0c0,0,0,.2,0,.4s0,.4,0,.5c0,0-.2,0-.4,0Z" style="fill: #fff;"/>
      <path d="M341.9,409.3v5.7c0,.8-.2,1.5-.7,2-.5,.5-1.2,.7-2.1,.7s-.5,0-.8,0-.5,0-.6,0v-.5c.2,0,.5,0,.7,.2h.8c.8,0,1.4-.2,1.7-.6s.5-1,.5-1.7v-.8c-.2,.5-.4,.8-.8,1s-.8,.4-1.5,.4-.8,0-1.1-.2c-.3-.2-.5-.3-.8-.6-.2-.2-.3-.6-.4-1s-.2-.8-.2-1.4,0-.9,.2-1.3c0-.4,.2-.8,.4-1,.2-.3,.5-.5,.8-.6s.7-.2,1.1-.2,.6,0,.9,0c.2,0,.5,.2,.6,.3l.5,.5c.2,.2,.2,.4,.3,.6v-1.3h.5Zm-2.6,5.7c.5,0,.8,0,1.1-.2s.5-.3,.7-.5,.3-.5,.4-.8,0-.7,0-1.1,0-.8,0-1.1c0-.3-.2-.6-.4-.8s-.4-.5-.7-.5-.6-.2-1.1-.2-.8,0-1,.2-.5,.3-.6,.5-.2,.5-.3,.8c0,.3,0,.7,0,1.1s0,.8,0,1.1c0,.3,.2,.6,.3,.8s.4,.4,.6,.5,.6,.2,1,.2Z" style="fill: #fff;"/>
      <path d="M348.5,411.7v.6l-4.4,.3c0,.5,0,.8,.2,1.1,0,.3,.2,.6,.4,.8,.2,.2,.4,.4,.7,.5s.6,.2,1.1,.2,.7,0,1,0c.4,0,.7-.2,.9-.3v.5c0,0-.2,0-.4,.2-.2,0-.3,0-.5,.2-.2,0-.4,0-.5,0h-.6c-.5,0-.9,0-1.2-.2-.4,0-.6-.3-.8-.5s-.4-.6-.5-1-.2-.9-.2-1.5,0-1.1,.2-1.5,.2-.8,.5-1,.5-.5,.8-.5c.3,0,.8-.2,1.2-.2s.9,0,1.2,.2c.3,.2,.5,.4,.7,.6s.2,.5,.3,.8,0,.6,0,.9v-.2Zm-.5,.2v-.9c0-.3-.2-.5-.2-.7-.2-.2-.3-.4-.5-.5s-.5-.2-1-.2-.8,0-1,.2c-.3,0-.5,.2-.6,.5s-.3,.5-.4,.8c0,.3,0,.7-.2,1.1l3.8-.3h0Z" style="fill: #fff;"/>
      <path d="M354.8,411.7v.6l-4.4,.3c0,.5,0,.8,.2,1.1,0,.3,.2,.6,.4,.8,.2,.2,.4,.4,.7,.5s.6,.2,1.1,.2,.7,0,1,0c.4,0,.7-.2,.9-.3v.5c0,0-.2,0-.4,.2-.2,0-.3,0-.5,.2-.2,0-.4,0-.5,0h-.6c-.5,0-.9,0-1.2-.2-.4,0-.6-.3-.8-.5s-.4-.6-.5-1-.2-.9-.2-1.5,0-1.1,.2-1.5,.2-.8,.5-1,.5-.5,.8-.5c.3,0,.8-.2,1.2-.2s.9,0,1.2,.2c.3,.2,.5,.4,.7,.6s.2,.5,.3,.8,0,.6,0,.9v-.2Zm-.5,.2v-.9c0-.3-.2-.5-.2-.7-.2-.2-.3-.4-.5-.5s-.5-.2-1-.2-.8,0-1,.2c-.3,0-.5,.2-.6,.5s-.3,.5-.4,.8c0,.3,0,.7-.2,1.1l3.8-.3h0Z" style="fill: #fff;"/>
      <path d="M361.1,411.7v.6l-4.4,.3c0,.5,0,.8,.2,1.1,0,.3,.2,.6,.4,.8,.2,.2,.4,.4,.7,.5s.6,.2,1.1,.2,.7,0,1,0c.4,0,.7-.2,.9-.3v.5c0,0-.2,0-.4,.2-.2,0-.3,0-.5,.2-.2,0-.4,0-.5,0h-.6c-.5,0-.9,0-1.2-.2-.4,0-.6-.3-.8-.5s-.4-.6-.5-1-.2-.9-.2-1.5,0-1.1,.2-1.5,.2-.8,.5-1,.5-.5,.8-.5c.3,0,.8-.2,1.2-.2s.9,0,1.2,.2c.3,.2,.5,.4,.7,.6s.2,.5,.3,.8,0,.6,0,.9v-.2Zm-.5,.2v-.9c0-.3-.2-.5-.2-.7-.2-.2-.3-.4-.5-.5s-.5-.2-1-.2-.8,0-1,.2c-.3,0-.5,.2-.6,.5s-.3,.5-.4,.8c0,.3,0,.7-.2,1.1l3.8-.3h0Z" style="fill: #fff;"/>
      <path d="M364.5,415h.8v.5h-1.5c-.2,0-.4-.2-.5-.3-.2-.2-.2-.3-.2-.6s0-.6,0-1v-3.8h-1v-.5h1v-1.4h.5v1.4h1.7v.5h-1.7v4.5c0,.2,0,.3,.2,.5s.2,.2,.3,.2h.5Z" style="fill: #fff;"/>
      <path d="M370.8,411.7v.6l-4.4,.3c0,.5,0,.8,.2,1.1,0,.3,.2,.6,.4,.8,.2,.2,.4,.4,.7,.5s.6,.2,1.1,.2,.7,0,1,0c.4,0,.7-.2,.9-.3v.5c0,0-.2,0-.4,.2-.2,0-.3,0-.5,.2-.2,0-.4,0-.5,0h-.6c-.5,0-.9,0-1.2-.2-.4,0-.6-.3-.8-.5s-.4-.6-.5-1-.2-.9-.2-1.5,0-1.1,.2-1.5,.2-.8,.5-1,.5-.5,.8-.5c.3,0,.8-.2,1.2-.2s.9,0,1.2,.2c.3,.2,.5,.4,.7,.6s.2,.5,.3,.8,0,.6,0,.9v-.2Zm-.5,.2v-.9c0-.3-.2-.5-.2-.7-.2-.2-.3-.4-.5-.5s-.5-.2-1-.2-.8,0-1,.2c-.3,0-.5,.2-.6,.5s-.3,.5-.4,.8c0,.3,0,.7-.2,1.1l3.8-.3h0Z" style="fill: #fff;"/>
      <path d="M374.8,415.5c-.5,0-.8,0-1.2-.2-.3,0-.6-.3-.8-.5s-.4-.6-.5-1-.2-.9-.2-1.5,0-1.1,.2-1.5c0-.4,.2-.8,.5-1s.5-.5,.8-.5c.3,0,.7-.2,1.2-.2h.9c.2,0,.5,0,.7,.2v.5c-.2,0-.5-.2-.8-.2h-.8c-.3,0-.7,0-1,.2-.2,0-.5,.2-.6,.5s-.3,.5-.4,.8c0,.4,0,.8,0,1.3s0,.9,0,1.3c0,.4,.2,.6,.4,.8,.2,.2,.4,.4,.6,.5s.6,.2,1,.2,.6,0,.9,0c.2,0,.5-.2,.8-.2v.5c-.2,0-.4,.2-.7,.2-.3,0-.6,0-.9,0v-.2Z" style="fill: #fff;"/>
      <path d="M380.5,409.1c.4,0,.7,0,1,.2,.2,0,.5,.2,.6,.4s.2,.4,.3,.6c0,.2,0,.5,0,.8v4.3h-.5v-4.8c0-.2-.2-.5-.2-.5-.2-.2-.3-.2-.5-.3s-.5,0-.8,0h-.6c-.2,0-.4,0-.6,.2s-.4,.2-.5,.5-.2,.5-.3,.8v4.3h-.5v-8.6h.5v3.5c0-.2,.2-.4,.3-.5s.3-.3,.5-.4,.4-.2,.6-.2,.5,0,.7,0h0Z" style="fill: #fff;"/>
      <path d="M385,415.5c-.2,0-.3,0-.4,0,0,0,0-.2,0-.5s0-.4,0-.4c0,0,.2,0,.4,0s.3,0,.4,0c0,0,0,.2,0,.4s0,.4,0,.5c0,0-.2,0-.4,0Z" style="fill: #fff;"/>
      <path d="M389.2,415.5c-.5,0-.8,0-1.2-.2-.3,0-.6-.3-.8-.5s-.4-.6-.5-1-.2-.9-.2-1.5,0-1.1,.2-1.5c0-.4,.2-.8,.5-1s.5-.5,.8-.5c.3,0,.7-.2,1.2-.2h.9c.2,0,.5,0,.7,.2v.5c-.2,0-.5-.2-.8-.2h-.8c-.3,0-.7,0-1,.2-.2,0-.5,.2-.6,.5s-.3,.5-.4,.8c0,.4,0,.8,0,1.3s0,.9,0,1.3c0,.4,.2,.6,.4,.8,.2,.2,.4,.4,.6,.5s.6,.2,1,.2,.6,0,.9,0c.2,0,.5-.2,.8-.2v.5c-.2,0-.4,.2-.7,.2-.3,0-.6,0-.9,0v-.2Z" style="fill: #fff;"/>
      <path d="M394.6,415.5c-.5,0-.9,0-1.2-.2-.3,0-.6-.3-.8-.5s-.4-.6-.5-1-.2-.9-.2-1.5,0-1.1,.2-1.5c0-.4,.2-.8,.5-1s.5-.5,.8-.5,.8-.2,1.2-.2,.8,0,1.2,.2c.3,0,.6,.3,.8,.5s.4,.6,.5,1,.2,.9,.2,1.5,0,1.1-.2,1.5c0,.4-.2,.8-.5,1s-.5,.5-.8,.5c-.3,0-.8,.2-1.2,.2Zm0-.5c.4,0,.8,0,1.1-.2,.3,0,.5-.2,.7-.5,.2-.2,.3-.5,.4-.8s0-.8,0-1.3,0-.9,0-1.3-.2-.6-.4-.8-.4-.4-.7-.5-.6-.2-1-.2-.8,0-1,.2c-.3,0-.5,.2-.7,.5-.2,.2-.3,.5-.3,.8s0,.8,0,1.3,0,.9,0,1.3c0,.4,.2,.6,.3,.8s.4,.4,.7,.5,.6,.2,1,.2h0Z" style="fill: #fff;"/>
      <path d="M405.2,409.1c.4,0,.7,0,.9,.2,.2,0,.5,.2,.6,.4s.2,.4,.3,.6c0,.2,0,.5,0,.8v4.3h-.5v-4.8c0-.2,0-.5-.2-.5,0-.2-.2-.2-.5-.3-.2,0-.5,0-.7,0h-.6c-.2,0-.4,0-.5,.2-.2,0-.3,.2-.5,.5-.2,.2-.2,.5-.3,.8h0v4.3h-.5v-4.8c0-.2,0-.5-.2-.5,0-.2-.2-.2-.5-.3s-.5,0-.7,0h-.6c-.2,0-.4,0-.5,.2-.2,0-.3,.2-.5,.5-.2,.2-.2,.5-.3,.8v4.4h-.5v-6.2h.5v1.1c0-.2,.2-.4,.3-.5s.3-.2,.5-.4c.2,0,.4-.2,.5-.2s.5,0,.6,0c.5,0,1,0,1.2,.3,.3,.2,.5,.5,.5,.9,0-.2,.2-.4,.3-.5s.3-.3,.5-.4,.4-.2,.6-.2,.5,0,.7,0v-.2Z" style="fill: #fff;"/>
    </g>
  </g>
  <g>
    <path d="M33.4,406.4c-.2,0-.4,0-.4,0h0c-.2,0-.4,0-.6-.1l-1-.4c-.2,0-.4-.2-.8-.5l-.7-.6c-.6-.6-1.1-1.4-1.4-2.6-.3-.9-.4-2.1-.4-3.5s.2-2.7,.6-3.7c.5-1.3,1.4-2.3,2.6-3,.3-.2,.8-.4,1.4-.4,.6,0,3.2-.1,7.8-.1v2.6h-6.1c-1.2,0-2,.5-2.6,1.5-.4,.8-.6,1.7-.6,3v1.6c0,.2,.1,.4,.1,.5h0c0,.3,0,.5,0,.6,.2,.7,.5,1.3,.9,1.8,.5,.4,2.2,.7,5.2,.7v-3.5h-3.8v-2.6h6.7v8.8h-7.2Z" style="fill: #fff; fill-rule: evenodd;"/>
    <path d="M48.3,406.4h-1.2c0,0-.4,0-.4,0-.1,0-.2,0-.4,0,0,0-.1,0-.2,0,0,0-.1,0-.2,0-1.3-.4-2.4-1.2-3.1-2.6-.3-.6-.5-1.2-.7-1.8-.2-.6-.2-1.3-.2-2,0-1.4,0-2.5,.3-3.5,.2-1,.5-1.8,1-2.5,.5-.8,1.2-1.4,2.1-1.7,.3-.1,.8-.3,1.4-.4,.5,0,2.6-.1,6.2-.1v2.6h-4.6c-2.1,0-3.2,1.2-3.2,3.5h7.8v2.6h-7.8c0,.6,0,1.1,.1,1.5,0,.2,0,.4,.2,.6,0,.2,.2,.3,.3,.5l.5,.5c.2,.1,.4,.2,.6,.3,.2,0,.5,.1,.7,.1h5.4v2.6h-4.8Z" style="fill: #fff; fill-rule: evenodd;"/>
    <path d="M61,406.4h-1.2c0,0-.4,0-.4,0-.1,0-.2,0-.4,0,0,0-.1,0-.1,0,0,0-.1,0-.2,0-1.3-.4-2.4-1.2-3.1-2.6-.3-.6-.5-1.2-.7-1.8-.2-.6-.2-1.3-.2-2,0-1.4,0-2.5,.3-3.5,.2-1,.5-1.8,1-2.5,.5-.8,1.2-1.4,2.1-1.7,.3-.1,.8-.3,1.4-.4,.6,0,2.6-.1,6.2-.1v2.6h-4.6c-2.1,0-3.2,1.2-3.2,3.5h7.8v2.6h-7.8c0,.6,0,1.1,.1,1.5,0,.2,0,.4,.2,.6,0,.2,.2,.3,.3,.5l.5,.5c.2,.1,.4,.2,.6,.3,.3,0,.5,.1,.7,.1h5.4v2.6h-4.8Z" style="fill: #fff; fill-rule: evenodd;"/>
    <path d="M73.7,406.4h-1.2c0,0-.4,0-.4,0-.1,0-.2,0-.4,0,0,0-.1,0-.2,0,0,0-.1,0-.2,0-1.3-.4-2.4-1.2-3.1-2.6-.3-.6-.5-1.2-.7-1.8-.2-.6-.2-1.3-.2-2,0-1.4,0-2.5,.3-3.5,.2-1,.5-1.8,1-2.5,.5-.8,1.2-1.4,2.1-1.7,.3-.1,.8-.3,1.4-.4,.5,0,2.6-.1,6.2-.1v2.6h-4.7c-2.1,0-3.2,1.2-3.2,3.5h7.8v2.6h-7.8c0,.6,0,1.1,.1,1.5,0,.2,0,.4,.2,.6,0,.2,.2,.3,.3,.5l.5,.5c.2,.1,.4,.2,.6,.3,.2,0,.5,.1,.7,.1h5.4v2.6h-4.8Z" style="fill: #fff; fill-rule: evenodd;"/>
    <polygon points="86.8 394.1 86.8 406.4 83.8 406.4 83.8 394.1 79.5 394.1 79.5 391.5 91.1 391.5 91.1 394.1 86.8 394.1" style="fill: #fff; fill-rule: evenodd;"/>
    <path d="M97.9,406.4h-1.2c0,0-.4,0-.4,0-.1,0-.2,0-.4,0,0,0-.1,0-.2,0,0,0-.1,0-.2,0-1.3-.4-2.4-1.2-3.1-2.6-.3-.6-.5-1.2-.7-1.8-.2-.6-.2-1.3-.2-2,0-1.4,0-2.5,.3-3.5,.2-1,.5-1.8,1-2.5,.5-.8,1.2-1.4,2.1-1.7,.3-.1,.8-.3,1.4-.4,.5,0,2.6-.1,6.2-.1v2.6h-4.6c-2.1,0-3.2,1.2-3.2,3.5h7.8v2.6h-7.8c0,.6,0,1.1,.1,1.5,0,.2,0,.4,.2,.6,0,.2,.2,.3,.3,.5l.5,.5c.2,.1,.4,.2,.6,.3,.2,0,.5,.1,.7,.1h5.4v2.6h-4.8Z" style="fill: #fff; fill-rule: evenodd;"/>
    <path d="M110.6,406.4h-1.2c0,0-.4,0-.4,0-.1,0-.2,0-.4,0,0,0-.1,0-.2,0,0,0-.1,0-.2,0-1.3-.4-2.4-1.2-3.1-2.6-.6-1.2-.9-2.5-.9-3.8s0-2.5,.3-3.5c.2-1,.5-1.8,1-2.5,.5-.8,1.2-1.4,2.1-1.7,.5-.2,1-.3,1.4-.4,.5,0,2.6-.1,6.2-.1v2.5h-4.6c-.9,0-1.6,.3-2.2,.8-.4,.5-.7,1.1-.9,1.9-.2,.8-.3,1.7-.3,2.6s.1,1.8,.3,2.5c.3,.9,.8,1.5,1.6,1.7h.3c0,0,.3,.1,.3,.1h5.4v2.6h-4.8Z" style="fill: #fff; fill-rule: evenodd;"/>
    <polygon points="125.5 406.4 125.5 400.1 120.3 400.1 120.3 406.4 117.5 406.4 117.5 391.5 120.3 391.5 120.3 397.5 125.5 397.5 125.5 391.5 128.3 391.5 128.3 406.4 125.5 406.4" style="fill: #fff; fill-rule: evenodd;"/>
  </g>
  <rect x="1.4" y="1.4" width="422.4" height="422.4" style="fill: none; stroke: #fff; stroke-miterlimit: 10; stroke-width: .8px;"/>
  <line x1="159.8" y1="397.4" x2="291.8" y2="397.4" style="fill: none; stroke: #fff; stroke-miterlimit: 10; stroke-width: .8px;"/>
  <line x1="1.4" y1="371" x2="423.8" y2="371" style="fill: none; stroke: #fff; stroke-miterlimit: 10; stroke-width: .8px;"/>
  <line x1="1.4" y1="344.6" x2="423.8" y2="344.6" style="fill: none; stroke: #fff; stroke-miterlimit: 10; stroke-width: .8px;"/>
  <line x1="1.4" y1="318.2" x2="423.8" y2="318.2" style="fill: none; stroke: #fff; stroke-miterlimit: 10; stroke-width: .8px;"/>
  <line x1="1.4" y1="291.8" x2="423.8" y2="291.8" style="fill: none; stroke: #fff; stroke-miterlimit: 10; stroke-width: .8px;"/>
  <line x1="1.4" y1="265.4" x2="423.8" y2="265.4" style="fill: none; stroke: #fff; stroke-miterlimit: 10; stroke-width: .8px;"/>
  <line x1="1.4" y1="239" x2="423.8" y2="239" style="fill: none; stroke: #fff; stroke-miterlimit: 10; stroke-width: .8px;"/>
  <line x1="1.4" y1="212.6" x2="423.8" y2="212.6" style="fill: none; stroke: #fff; stroke-miterlimit: 10; stroke-width: .8px;"/>
  <line x1="1.4" y1="186.2" x2="423.8" y2="186.2" style="fill: none; stroke: #fff; stroke-miterlimit: 10; stroke-width: .8px;"/>
  <line x1="1.4" y1="159.8" x2="423.8" y2="159.8" style="fill: none; stroke: #fff; stroke-miterlimit: 10; stroke-width: .8px;"/>
  <line x1="1.4" y1="133.4" x2="423.8" y2="133.4" style="fill: none; stroke: #fff; stroke-miterlimit: 10; stroke-width: .8px;"/>
  <line x1="1.4" y1="107" x2="423.8" y2="107" style="fill: none; stroke: #fff; stroke-miterlimit: 10; stroke-width: .8px;"/>
  <line x1="1.4" y1="80.6" x2="423.8" y2="80.6" style="fill: none; stroke: #fff; stroke-miterlimit: 10; stroke-width: .8px;"/>
  <line x1="1.4" y1="54.2" x2="423.8" y2="54.2" style="fill: none; stroke: #fff; stroke-miterlimit: 10; stroke-width: .8px;"/>
  <line x1="1.4" y1="27.8" x2="423.8" y2="27.8" style="fill: none; stroke: #fff; stroke-miterlimit: 10; stroke-width: .8px;"/>
  <line x1="397.4" y1="1.4" x2="397.4" y2="371" style="fill: none; stroke: #fff; stroke-miterlimit: 10; stroke-width: .8px;"/>
  <line x1="371" y1="1.4" x2="371" y2="371" style="fill: none; stroke: #fff; stroke-miterlimit: 10; stroke-width: .8px;"/>
  <line x1="344.6" y1="1.4" x2="344.6" y2="371" style="fill: none; stroke: #fff; stroke-miterlimit: 10; stroke-width: .8px;"/>
  <line x1="318.2" y1="1.4" x2="318.2" y2="371" style="fill: none; stroke: #fff; stroke-miterlimit: 10; stroke-width: .8px;"/>
  <line x1="291.8" y1="1.4" x2="291.8" y2="423.8" style="fill: none; stroke: #fff; stroke-miterlimit: 10; stroke-width: .8px;"/>
  <line x1="265.4" y1="1.4" x2="265.4" y2="423.8" style="fill: none; stroke: #fff; stroke-miterlimit: 10; stroke-width: .8px;"/>
  <line x1="239" y1="1.4" x2="239" y2="423.8" style="fill: none; stroke: #fff; stroke-miterlimit: 10; stroke-width: .8px;"/>
  <line x1="212.6" y1="1.4" x2="212.6" y2="423.8" style="fill: none; stroke: #fff; stroke-miterlimit: 10; stroke-width: .8px;"/>
  <line x1="186.2" y1="1.4" x2="186.2" y2="423.8" style="fill: none; stroke: #fff; stroke-miterlimit: 10; stroke-width: .8px;"/>
  <line x1="159.8" y1="1.4" x2="159.8" y2="423.8" style="fill: none; stroke: #fff; stroke-miterlimit: 10; stroke-width: .8px;"/>
  <line x1="133.4" y1="1.4" x2="133.4" y2="371" style="fill: none; stroke: #fff; stroke-miterlimit: 10; stroke-width: .8px;"/>
  <line x1="107" y1="1.4" x2="107" y2="371" style="fill: none; stroke: #fff; stroke-miterlimit: 10; stroke-width: .8px;"/>
  <line x1="80.6" y1="1.4" x2="80.6" y2="371" style="fill: none; stroke: #fff; stroke-miterlimit: 10; stroke-width: .8px;"/>
  <line x1="54.2" y1="1.4" x2="54.2" y2="371" style="fill: none; stroke: #fff; stroke-miterlimit: 10; stroke-width: .8px;"/>
  <line x1="27.8" y1="1.4" x2="27.8" y2="371" style="fill: none; stroke: #fff; stroke-miterlimit: 10; stroke-width: .8px;"/>
</svg>