<?xml version="1.0" encoding="UTF-8"?>
<svg id="_图层_1" data-name=" 图层 1" xmlns="http://www.w3.org/2000/svg" width="180mm" height="150mm" viewBox="0 0 510.2 425.2">
  <g>
    <rect x="393.4" y="373.9" width="99.4" height="31.3" style="fill: none;"/>
    <g>
      <path d="M424.6,398.7h0l-11.6-19.9c0-.2-.3-.3-.6-.3s-.5,.2-.6,.3l-11.6,19.9c0,.2,0,.5,0,.6,0,.2,.3,.3,.6,.3h23c.2,0,.5-.2,.6-.3,0-.2,0-.5,0-.6h0Zm-22.5-.3l10.4-17.9,10.4,17.9h-20.7Z" style="fill: #fff;"/>
      <rect x="407.4" y="396.1" width="10.1" height="1" style="fill: #fff;"/>
      <path d="M410.4,395.4l-.6-.4c1-1.5,.5-2.4,0-3.4-.6-1-1.4-2.3,0-4.1l.6,.4c-1,1.4-.6,2.4,0,3.4,.6,1,1.4,2.3,0,4.1h0Z" style="fill: #fff;"/>
      <path d="M412.9,395.4l-.6-.4c1-1.5,.5-2.4,0-3.4-.6-1-1.4-2.3,0-4.1l.6,.4c-1,1.4-.6,2.4,0,3.4,.6,1,1.4,2.3,0,4.1h0Z" style="fill: #fff;"/>
      <path d="M415.4,395.4l-.6-.4c1-1.5,.6-2.4,0-3.4-.6-1.1-1.3-2.3,0-4.1l.6,.4c-1,1.5-.6,2.4,0,3.4,.6,1.1,1.3,2.3,0,4.1Z" style="fill: #fff;"/>
    </g>
    <g>
      <path d="M430.5,387.1c-.5,0-.9,0-1.3-.2-.4,0-.7-.2-1-.6-.2-.2-.5-.6-.6-1-.2-.5-.2-1-.2-1.8s0-1.2,.2-1.6c.2-.5,.3-.8,.6-1,.2-.2,.6-.5,1-.6,.4,0,.8-.2,1.3-.2h.8c.2,0,.5,0,.6,.2v.8c-.2,0-.4-.2-.6-.2h-.8c-.3,0-.7,0-1,.2-.3,0-.5,.2-.7,.5-.2,.2-.3,.5-.4,.8s-.2,.7-.2,1.3,0,1,.2,1.3c0,.3,.2,.6,.4,.8s.4,.3,.6,.4,.6,.2,1,.2h.8c.2,0,.5,0,.7-.2v.7c-.2,0-.4,.2-.7,.2-.2,0-.6,0-1,0l.2-.2Z" style="fill: #fff;"/>
      <path d="M435.5,381.8c.4,0,.7,0,1,.2,.2,0,.5,.2,.6,.3s.2,.3,.3,.5c0,.2,0,.4,0,.6v3.7h-.7l-.2-.8c0,.2-.2,.2-.3,.4s-.2,.2-.4,.2-.3,.2-.6,.2h-.6c-.6,0-1-.2-1.4-.4s-.4-.6-.4-1.1,0-.6,.2-.8c0-.2,.2-.4,.4-.5,.2-.2,.4-.2,.6-.2s.6,0,.9,0h1.6v-.8c0-.2,0-.2-.2-.3s-.2-.2-.4-.2h-1.2c-.2,0-.4,0-.6,0v-.7h1.1v-.2Zm-.6,4.7c.4,0,.8,0,1.1-.2s.6-.4,.6-.7v-.9h-2.1c-.2,0-.3,0-.4,.2s-.2,.2-.2,.3v.5c0,.3,0,.5,.2,.6s.4,.2,.8,.2h0Z" style="fill: #fff;"/>
      <path d="M443.4,381.8v5.2h-.7v-.7l-.4,.4c0,0-.2,.2-.4,.2-.2,0-.3,0-.5,.2h-.5c-.3,0-.6,0-.9-.2-.2,0-.4-.2-.6-.3s-.2-.3-.2-.6,0-.4,0-.7v-3.6h.8v3.8c0,.2,0,.3,.2,.4s.2,.2,.3,.2,.3,0,.5,0h.5c.2,0,.3,0,.4-.2s.2-.2,.3-.3c0-.2,.2-.3,.2-.6v-3.5h1Z" style="fill: #fff;"/>
      <path d="M446.9,386.4h.6v.7h-1.4c-.2,0-.3-.2-.5-.2-.2-.2-.2-.3-.2-.5,0-.2,0-.5,0-.8v-2.9h-.8v-.7h.8v-1.2h.8v1.2h1.3v.7h-1.3v3.3c0,0,0,.2,0,.3s.2,.2,.2,.2h.5Z" style="fill: #fff;"/>
      <path d="M448.9,380.9c-.2,0-.3,0-.4,0,0,0,0-.2,0-.4s0-.3,0-.4c0,0,.2,0,.4,0s.3,0,.4,0c0,0,0,.2,0,.4s0,.3,0,.4c0,0-.2,0-.4,0Zm-.4,1h.8v5.2h-.8v-5.2Z" style="fill: #fff;"/>
      <path d="M453.2,387.1c-.4,0-.7,0-1-.2-.3,0-.6-.2-.7-.5-.2-.2-.4-.5-.5-.8s-.2-.8-.2-1.3,0-1,.2-1.3c0-.3,.2-.6,.5-.8,.2-.2,.5-.3,.7-.5,.3,0,.6-.2,1-.2s.7,0,1,.2c.3,0,.6,.2,.7,.5,.2,.2,.3,.5,.5,.8,0,.3,.2,.8,.2,1.3s0,1-.2,1.3c0,.3-.2,.6-.5,.8-.2,.2-.5,.3-.7,.5-.3,0-.6,.2-1,.2Zm0-.7c.3,0,.6,0,.7,0s.3-.2,.5-.3c0-.2,.2-.3,.2-.6s0-.6,0-1v-1c0-.2-.2-.5-.2-.6s-.2-.2-.5-.3c-.2,0-.4,0-.7,0s-.6,0-.7,0c-.2,0-.3,.2-.5,.3,0,.2-.2,.4-.2,.6v1.9c0,.2,.2,.5,.2,.6,.2,.2,.2,.2,.5,.3s.4,0,.7,0Z" style="fill: #fff;"/>
      <path d="M459.5,381.8c.3,0,.6,0,.9,.2,.2,0,.4,.2,.6,.3,.2,.2,.2,.3,.3,.6,0,.2,0,.4,0,.7v3.6h-.8v-3.8c0-.2,0-.3-.2-.4,0,0-.2-.2-.3-.2s-.3,0-.5,0h-.5c-.2,0-.3,0-.5,.2s-.2,.2-.4,.3-.2,.3-.2,.6v3.5h-.8v-5.2h.8v.7c0-.2,.2-.3,.3-.4s.2-.2,.4-.2,.3,0,.5-.2,.3,0,.5,0h-.2Z" style="fill: #fff;"/>
      <path d="M470.5,380.3v6.7h-.9v-3.3h-3.3v3.3h-.9v-6.7h.9v2.7h3.3v-2.7h.9Z" style="fill: #fff;"/>
      <path d="M472.6,380.9c-.2,0-.3,0-.4,0,0,0,0-.2,0-.4s0-.3,0-.4c0,0,.2,0,.4,0s.3,0,.4,0c0,0,0,.2,0,.4s0,.3,0,.4c0,0-.2,0-.4,0Zm-.4,1h.8v5.2h-.8v-5.2Z" style="fill: #fff;"/>
      <path d="M479.1,381.8v4.9c0,.7-.2,1.3-.6,1.7s-1,.6-1.9,.6-.5,0-.6,0c-.2,0-.4,0-.6,0v-.7c.4,0,.8,0,1.3,0s1-.2,1.3-.4,.4-.7,.4-1.3v-.6c0,.3-.3,.6-.6,.7s-.6,.2-1.1,.2-.8,0-1-.2-.5-.3-.6-.6-.2-.5-.3-.8c0-.3,0-.7,0-1.1s0-.7,0-1c0-.3,.2-.6,.3-.9s.4-.4,.6-.6,.6-.2,1-.2,.5,0,.7,0c.2,0,.3,.2,.5,.2,.2,0,.2,.2,.3,.3,0,.2,.2,.2,.2,.4v-1h.7Zm-2.4,4.5c.3,0,.6,0,.8-.2,.2,0,.4-.2,.5-.4s.2-.4,.2-.6v-1.6c0-.2-.2-.5-.2-.6s-.3-.3-.5-.4-.5-.2-.8-.2-.6,0-.7,.2c-.2,0-.3,.2-.4,.4s-.2,.4-.2,.6v1.5c0,.2,0,.5,.2,.6,0,.2,.2,.3,.4,.4s.4,.2,.7,.2h0Z" style="fill: #fff;"/>
      <path d="M483.4,381.8c.3,0,.6,0,.9,.2,.2,0,.4,.2,.6,.3,.2,.2,.2,.3,.3,.6,0,.2,0,.4,0,.7v3.6h-.8v-3.8c0-.2,0-.3-.2-.4,0,0-.2-.2-.3-.2s-.3,0-.5,0h-.5c-.2,0-.3,0-.5,.2s-.2,.2-.4,.3-.2,.3-.2,.6v3.5h-.8v-7.3h.8v2.9c0-.2,.2-.3,.3-.4s.2-.2,.4-.2,.3,0,.5-.2,.3,0,.5,0h-.2Z" style="fill: #fff;"/>
      <path d="M431.7,392.7h-1.9v5.9h-.9v-5.9h-1.9v-.8h4.8v.8h0Z" style="fill: #fff;"/>
      <path d="M436.6,395.4v.6l-3.5,.2c0,.3,0,.6,0,.7,0,.2,.2,.4,.2,.5,.2,.2,.3,.2,.5,.3,.2,0,.5,0,.8,0s.6,0,.9,0,.6-.2,.7-.2v.8s-.2,0-.3,0c-.2,0-.2,0-.4,0h-1c-.4,0-.7,0-1-.2-.3,0-.6-.2-.7-.5-.2-.2-.4-.5-.5-.8s-.2-.8-.2-1.3,0-1,.2-1.3c0-.3,.2-.6,.5-.8,.2-.2,.5-.3,.7-.5,.3,0,.6-.2,1-.2s.8,0,1,.2,.5,.3,.6,.5c.2,.2,.2,.5,.3,.7v.8l.2,.2Zm-.8,0v-.6c0-.2,0-.3-.2-.5s-.2-.2-.4-.3c-.2,0-.4-.2-.6-.2s-.6,0-.7,0c-.2,0-.3,.2-.5,.3,0,.2-.2,.3-.2,.6v.7l2.7-.2h0Z" style="fill: #fff;"/>
      <path d="M443.7,393.2c.3,0,.6,0,.8,.2,.2,0,.4,.2,.6,.3,.2,.2,.2,.3,.3,.6,0,.2,0,.4,0,.7v3.6h-.8v-3.3c0-.4,0-.7-.2-1-.2-.2-.4-.3-.8-.3h-.4c0,0-.2,0-.4,.2,0,0-.2,.2-.3,.2,0,0-.2,.2-.2,.5h0v3.7h-.8v-3.3c0-.4,0-.7-.2-1s-.4-.3-.8-.3h-.5c-.2,0-.2,0-.4,.2,0,0-.2,.2-.3,.3,0,.2-.2,.3-.2,.5v3.6h-.8v-5.2h.8v.7c.2-.3,.4-.5,.6-.6,.2,0,.6-.2,.9-.2s.7,0,1,.2c.2,.2,.4,.3,.6,.6,0-.2,.2-.3,.3-.4,0,0,.2-.2,.4-.2,.2,0,.3,0,.5-.2s.3,0,.5,0v-.2Z" style="fill: #fff;"/>
      <path d="M449.8,393.2c.4,0,.8,0,1,.2s.5,.3,.6,.6,.2,.6,.3,.9c0,.3,0,.7,0,1.1s0,.7,0,1c0,.3-.2,.6-.3,.9s-.4,.5-.6,.6c-.2,.2-.6,.2-1,.2s-.9,0-1.1-.2c-.2-.2-.4-.4-.6-.7v2.8h-.8v-7.1h.8v1c0-.3,.3-.6,.6-.7s.6-.3,1.1-.3h0Zm0,4.6c.3,0,.6,0,.7-.2s.3-.2,.4-.5c0-.2,.2-.4,.2-.6v-1.5c0-.2,0-.5-.2-.6,0-.2-.2-.3-.4-.4s-.4-.2-.7-.2-.6,0-.8,.2-.4,.2-.5,.4c-.2,.2-.2,.4-.2,.6v1.6c0,.2,.2,.5,.2,.6,.2,.2,.3,.3,.5,.4,.2,0,.5,.2,.8,.2Z" style="fill: #fff;"/>
      <path d="M457.8,395.4v.6l-3.5,.2c0,.3,0,.6,0,.7,0,.2,.2,.4,.2,.5,.2,.2,.3,.2,.5,.3,.2,0,.5,0,.8,0s.6,0,.9,0,.6-.2,.7-.2v.8s-.2,0-.3,0c-.2,0-.2,0-.4,0h-1c-.4,0-.7,0-1-.2-.3,0-.6-.2-.7-.5-.2-.2-.4-.5-.5-.8s-.2-.8-.2-1.3,0-1,.2-1.3c0-.3,.2-.6,.5-.8,.2-.2,.5-.3,.7-.5,.3,0,.6-.2,1-.2s.8,0,1,.2,.5,.3,.6,.5c.2,.2,.2,.5,.3,.7v.8l.2,.2Zm-.8,0v-.6c0-.2,0-.3-.2-.5s-.2-.2-.4-.3c-.2,0-.4-.2-.6-.2s-.6,0-.7,0c-.2,0-.3,.2-.5,.3,0,.2-.2,.3-.2,.6v.7l2.7-.2h0Z" style="fill: #fff;"/>
      <path d="M462,393.2v.7h-.6c-.2,0-.3,0-.5,.2-.2,0-.2,.2-.4,.3,0,.2-.2,.3-.2,.6v3.4h-.8v-5.2h.8v1c0-.2,.2-.4,.3-.6s.2-.2,.4-.3c.2,0,.3-.2,.5-.2h.6Z" style="fill: #fff;"/>
      <path d="M465,393.2c.4,0,.7,0,1,.2,.2,0,.5,.2,.6,.3s.2,.3,.3,.5c0,.2,0,.4,0,.6v3.7h-.7l-.2-.8c0,.2-.2,.2-.3,.4s-.2,.2-.4,.2-.3,.2-.6,.2h-.6c-.6,0-1-.2-1.4-.4s-.4-.6-.4-1.1,0-.6,.2-.8c0-.2,.2-.4,.4-.5,.2-.2,.4-.2,.6-.2s.6,0,.9,0h1.6v-.8c0-.2,0-.2-.2-.3s-.2-.2-.4-.2h-1.2c-.2,0-.4,0-.6,0v-.7h1.1v-.2Zm-.6,4.7c.4,0,.8,0,1.1-.2s.6-.4,.6-.7v-.9h-2.1c-.2,0-.3,0-.4,.2s-.2,.2-.2,.3v.5c0,.3,0,.5,.2,.6s.4,.2,.8,.2h0Z" style="fill: #fff;"/>
      <path d="M470.6,397.9h.6v.7h-1.4c-.2,0-.3-.2-.5-.2-.2-.2-.2-.3-.2-.5,0-.2,0-.5,0-.8v-2.9h-.8v-.7h.8v-1.2h.8v1.2h1.3v.7h-1.3v3.3c0,0,0,.2,0,.3s.2,.2,.2,.2h.5Z" style="fill: #fff;"/>
      <path d="M476.6,393.3v5.2h-.7v-.7l-.4,.4c0,0-.2,.2-.4,.2-.2,0-.3,0-.5,.2h-.5c-.3,0-.6,0-.9-.2-.2,0-.4-.2-.6-.3s-.2-.3-.2-.6,0-.4,0-.7v-3.6h.8v3.8c0,.2,0,.3,.2,.4s.2,.2,.3,.2,.3,0,.5,0h.5c.2,0,.3,0,.4-.2s.2-.2,.3-.3c0-.2,.2-.3,.2-.6v-3.5h1Z" style="fill: #fff;"/>
      <path d="M481.1,393.2v.7h-.6c-.2,0-.3,0-.5,.2-.2,0-.2,.2-.4,.3,0,.2-.2,.3-.2,.6v3.4h-.8v-5.2h.8v1c0-.2,.2-.4,.3-.6s.2-.2,.4-.3c.2,0,.3-.2,.5-.2h.6Z" style="fill: #fff;"/>
      <path d="M486.4,395.4v.6l-3.5,.2c0,.3,0,.6,0,.7,0,.2,.2,.4,.2,.5,.2,.2,.3,.2,.5,.3,.2,0,.5,0,.8,0s.6,0,.9,0,.6-.2,.7-.2v.8s-.2,0-.3,0c-.2,0-.2,0-.4,0h-1c-.4,0-.7,0-1-.2-.3,0-.6-.2-.7-.5-.2-.2-.4-.5-.5-.8s-.2-.8-.2-1.3,0-1,.2-1.3c0-.3,.2-.6,.5-.8,.2-.2,.5-.3,.7-.5,.3,0,.6-.2,1-.2s.8,0,1,.2,.5,.3,.6,.5c.2,.2,.2,.5,.3,.7v.8l.2,.2Zm-.8,0v-.6c0-.2,0-.3-.2-.5s-.2-.2-.4-.3c-.2,0-.4-.2-.6-.2s-.6,0-.7,0c-.2,0-.3,.2-.5,.3,0,.2-.2,.3-.2,.6v.7l2.7-.2h0Z" style="fill: #fff;"/>
    </g>
    <g>
      <path d="M389.8,410h.6l1.6,5.9h0l1.9-5.9h.7l2,5.9h0l1.6-5.9h.6l-1.8,6.5h-.6l-2-6h0l-2,6h-.6l-1.8-6.5h0Z" style="fill: #fff;"/>
      <path d="M399.2,410h.6l1.6,5.9h0l1.9-5.9h.7l2,5.9h0l1.6-5.9h.6l-1.8,6.5h-.6l-2-6h0l-2,6h-.6l-1.8-6.5h0Z" style="fill: #fff;"/>
      <path d="M408.5,410h.6l1.6,5.9h0l1.9-5.9h.7l2,5.9h0l1.6-5.9h.6l-1.8,6.5h-.6l-2-6h0l-2,6h-.6l-1.8-6.5h0Z" style="fill: #fff;"/>
      <path d="M418.5,416.7c-.2,0-.3,0-.4,0,0,0,0-.2,0-.5s0-.4,0-.4c0,0,.2,0,.4,0s.3,0,.4,0c0,0,0,.2,0,.4s0,.4,0,.5c0,0-.2,0-.4,0Z" style="fill: #fff;"/>
      <path d="M426.2,410v6.1c0,.9-.2,1.6-.7,2.1-.5,.5-1.3,.7-2.2,.7s-.6,0-.8,0-.5,0-.6,0v-.6c.2,0,.5,0,.7,.2h.8c.9,0,1.4-.2,1.8-.6s.6-1,.6-1.8v-.9c-.2,.5-.4,.8-.8,1s-.9,.4-1.6,.4-.9,0-1.2-.2c-.3-.2-.6-.3-.8-.6-.2-.2-.3-.6-.4-1s-.2-.9-.2-1.4,0-1,.2-1.4c0-.4,.2-.8,.4-1,.2-.3,.5-.5,.8-.6s.7-.2,1.2-.2,.6,0,1,0c.2,0,.5,.2,.6,.3l.5,.5c.2,.2,.2,.4,.3,.6v-1.4h.5Zm-2.8,6.1c.5,0,.8,0,1.1-.2s.6-.3,.7-.6,.3-.6,.4-.9,0-.7,0-1.1,0-.8,0-1.1c0-.3-.2-.6-.4-.9s-.4-.5-.7-.6-.6-.2-1.1-.2-.8,0-1,.2-.5,.3-.6,.6-.2,.6-.3,.9c0,.3,0,.7,0,1.2s0,.9,0,1.2c0,.3,.2,.6,.3,.9s.4,.4,.6,.6,.6,.2,1,.2Z" style="fill: #fff;"/>
      <path d="M433.2,412.6v.6l-4.6,.3c0,.5,0,.9,.2,1.2,0,.3,.2,.6,.4,.8,.2,.2,.4,.4,.7,.5s.6,.2,1.1,.2,.7,0,1,0c.4,0,.7-.2,1-.3v.6c0,0-.2,0-.4,.2-.2,0-.3,0-.5,.2-.2,0-.4,0-.6,0h-.6c-.5,0-1,0-1.3-.2-.4,0-.6-.3-.9-.6s-.4-.6-.5-1-.2-1-.2-1.6,0-1.2,.2-1.6,.2-.8,.5-1,.5-.5,.9-.6c.3,0,.8-.2,1.3-.2s1,0,1.3,.2c.3,.2,.6,.4,.7,.6s.2,.6,.3,.9,0,.6,0,1v-.2Zm-.6,.2v-1c0-.3-.2-.6-.2-.7-.2-.2-.3-.4-.6-.5s-.6-.2-1-.2-.8,0-1,.2c-.3,0-.5,.2-.6,.5s-.3,.5-.4,.8c0,.3,0,.7-.2,1.2l4.1-.3h0Z" style="fill: #fff;"/>
      <path d="M439.9,412.6v.6l-4.6,.3c0,.5,0,.9,.2,1.2,0,.3,.2,.6,.4,.8,.2,.2,.4,.4,.7,.5s.6,.2,1.1,.2,.7,0,1,0c.4,0,.7-.2,1-.3v.6c0,0-.2,0-.4,.2-.2,0-.3,0-.5,.2-.2,0-.4,0-.6,0h-.6c-.5,0-1,0-1.3-.2-.4,0-.6-.3-.9-.6s-.4-.6-.5-1-.2-1-.2-1.6,0-1.2,.2-1.6,.2-.8,.5-1,.5-.5,.9-.6c.3,0,.8-.2,1.3-.2s1,0,1.3,.2c.3,.2,.6,.4,.7,.6s.2,.6,.3,.9,0,.6,0,1v-.2Zm-.6,.2v-1c0-.3-.2-.6-.2-.7-.2-.2-.3-.4-.6-.5s-.6-.2-1-.2-.8,0-1,.2c-.3,0-.5,.2-.6,.5s-.3,.5-.4,.8c0,.3,0,.7-.2,1.2l4.1-.3h0Z" style="fill: #fff;"/>
      <path d="M446.5,412.6v.6l-4.6,.3c0,.5,0,.9,.2,1.2,0,.3,.2,.6,.4,.8,.2,.2,.4,.4,.7,.5s.6,.2,1.1,.2,.7,0,1,0c.4,0,.7-.2,1-.3v.6c0,0-.2,0-.4,.2-.2,0-.3,0-.5,.2-.2,0-.4,0-.6,0h-.6c-.5,0-1,0-1.3-.2-.4,0-.6-.3-.9-.6s-.4-.6-.5-1-.2-1-.2-1.6,0-1.2,.2-1.6,.2-.8,.5-1,.5-.5,.9-.6c.3,0,.8-.2,1.3-.2s1,0,1.3,.2c.3,.2,.6,.4,.7,.6s.2,.6,.3,.9,0,.6,0,1v-.2Zm-.6,.2v-1c0-.3-.2-.6-.2-.7-.2-.2-.3-.4-.6-.5s-.6-.2-1-.2-.8,0-1,.2c-.3,0-.5,.2-.6,.5s-.3,.5-.4,.8c0,.3,0,.7-.2,1.2l4.1-.3h0Z" style="fill: #fff;"/>
      <path d="M450.1,416.1h.9v.5h-1.6c-.2,0-.4-.2-.5-.3-.2-.2-.2-.3-.2-.6s0-.6,0-1v-4.1h-1v-.5h1v-1.5h.6v1.5h1.8v.5h-1.8v4.8c0,.2,0,.3,.2,.5s.2,.2,.3,.2h.5Z" style="fill: #fff;"/>
      <path d="M456.9,412.6v.6l-4.6,.3c0,.5,0,.9,.2,1.2,0,.3,.2,.6,.4,.8,.2,.2,.4,.4,.7,.5s.6,.2,1.1,.2,.7,0,1,0c.4,0,.7-.2,1-.3v.6c0,0-.2,0-.4,.2-.2,0-.3,0-.5,.2-.2,0-.4,0-.6,0h-.6c-.5,0-1,0-1.3-.2-.4,0-.6-.3-.9-.6s-.4-.6-.5-1-.2-1-.2-1.6,0-1.2,.2-1.6,.2-.8,.5-1,.5-.5,.9-.6c.3,0,.8-.2,1.3-.2s1,0,1.3,.2c.3,.2,.6,.4,.7,.6s.2,.6,.3,.9,0,.6,0,1v-.2Zm-.6,.2v-1c0-.3-.2-.6-.2-.7-.2-.2-.3-.4-.6-.5s-.6-.2-1-.2-.8,0-1,.2c-.3,0-.5,.2-.6,.5s-.3,.5-.4,.8c0,.3,0,.7-.2,1.2l4.1-.3h0Z" style="fill: #fff;"/>
      <path d="M461.1,416.7c-.5,0-.9,0-1.3-.2-.3,0-.6-.3-.9-.6s-.4-.6-.5-1-.2-1-.2-1.6,0-1.2,.2-1.6c0-.4,.2-.8,.5-1s.5-.5,.9-.6c.3,0,.7-.2,1.3-.2h1c.2,0,.6,0,.7,.2v.6c-.2,0-.5-.2-.8-.2h-.9c-.3,0-.7,0-1,.2-.2,0-.5,.2-.6,.5s-.3,.5-.4,.9c0,.4,0,.8,0,1.4s0,1,0,1.4c0,.4,.2,.6,.4,.9,.2,.2,.4,.4,.6,.5s.6,.2,1,.2,.6,0,1,0c.2,0,.6-.2,.8-.2v.6c-.2,0-.4,.2-.7,.2-.3,0-.6,0-1,0v-.2Z" style="fill: #fff;"/>
      <path d="M467.2,409.9c.4,0,.7,0,1,.2,.2,0,.5,.2,.6,.4s.2,.4,.3,.6c0,.2,0,.6,0,.9v4.5h-.6v-5.1c0-.2-.2-.5-.2-.6-.2-.2-.3-.2-.5-.3s-.5,0-.8,0h-.6c-.2,0-.4,0-.6,.2s-.4,.2-.6,.5-.2,.5-.3,.8v4.5h-.6v-9.2h.6v3.7c0-.2,.2-.4,.3-.6s.3-.3,.6-.4,.4-.2,.6-.2,.5,0,.7,0h0Z" style="fill: #fff;"/>
      <path d="M472,416.7c-.2,0-.3,0-.4,0,0,0,0-.2,0-.5s0-.4,0-.4c0,0,.2,0,.4,0s.3,0,.4,0c0,0,0,.2,0,.4s0,.4,0,.5c0,0-.2,0-.4,0Z" style="fill: #fff;"/>
      <path d="M476.4,416.7c-.5,0-.9,0-1.3-.2-.3,0-.6-.3-.9-.6s-.4-.6-.5-1-.2-1-.2-1.6,0-1.2,.2-1.6c0-.4,.2-.8,.5-1s.5-.5,.9-.6c.3,0,.7-.2,1.3-.2h1c.2,0,.6,0,.7,.2v.6c-.2,0-.5-.2-.8-.2h-.9c-.3,0-.7,0-1,.2-.2,0-.5,.2-.6,.5s-.3,.5-.4,.9c0,.4,0,.8,0,1.4s0,1,0,1.4c0,.4,.2,.6,.4,.9,.2,.2,.4,.4,.6,.5s.6,.2,1,.2,.6,0,1,0c.2,0,.6-.2,.8-.2v.6c-.2,0-.4,.2-.7,.2-.3,0-.6,0-1,0v-.2Z" style="fill: #fff;"/>
      <path d="M482.2,416.7c-.5,0-1,0-1.3-.2-.3,0-.6-.3-.9-.6s-.4-.6-.5-1-.2-1-.2-1.6,0-1.2,.2-1.6c0-.4,.2-.8,.5-1s.5-.5,.9-.6,.8-.2,1.3-.2,.9,0,1.3,.2c.3,0,.6,.3,.9,.6s.4,.6,.5,1,.2,1,.2,1.6,0,1.2-.2,1.6c0,.4-.2,.8-.5,1s-.6,.5-.9,.6c-.3,0-.8,.2-1.3,.2Zm0-.5c.4,0,.8,0,1.1-.2,.3,0,.5-.2,.7-.5,.2-.2,.3-.6,.4-.9s0-.8,0-1.4,0-1,0-1.4-.2-.6-.4-.9-.4-.4-.7-.5-.6-.2-1-.2-.8,0-1,.2c-.3,0-.5,.2-.7,.5-.2,.2-.3,.6-.3,.9s0,.8,0,1.4,0,1,0,1.4c0,.4,.2,.6,.3,.9s.4,.4,.7,.5,.6,.2,1,.2h0Z" style="fill: #fff;"/>
      <path d="M493.4,409.9c.4,0,.7,0,1,.2,.2,0,.5,.2,.6,.4s.2,.4,.3,.6c0,.2,0,.6,0,.9v4.5h-.6v-5.1c0-.2,0-.5-.2-.6,0-.2-.2-.2-.5-.3-.2,0-.5,0-.7,0h-.6c-.2,0-.4,0-.6,.2-.2,0-.3,.2-.5,.5-.2,.2-.2,.5-.3,.8h0v4.5h-.6v-5.1c0-.2,0-.5-.2-.6,0-.2-.2-.2-.5-.3s-.5,0-.7,0h-.6c-.2,0-.4,0-.6,.2-.2,0-.3,.2-.5,.5-.2,.2-.2,.5-.3,.8v4.6h-.6v-6.5h.6v1.1c0-.2,.2-.4,.3-.6s.3-.2,.5-.4c.2,0,.4-.2,.6-.2s.5,0,.6,0c.6,0,1,0,1.3,.3,.3,.2,.5,.6,.6,1,0-.2,.2-.4,.3-.6s.3-.3,.5-.4,.4-.2,.6-.2,.5,0,.7,0v-.2Z" style="fill: #fff;"/>
    </g>
  </g>
  <g>
    <path d="M20,405.8c-.3,0-.4,0-.5,0h0c-.2,0-.4,0-.6-.2l-1.1-.4c-.2,0-.5-.2-.8-.5l-.7-.6c-.6-.6-1.1-1.5-1.5-2.7-.3-1-.4-2.2-.4-3.7s.2-2.8,.7-3.9c.5-1.4,1.4-2.4,2.8-3.2,.4-.2,.9-.4,1.5-.5,.6,0,3.4-.1,8.2-.1v2.7h-6.4c-1.2,0-2.1,.5-2.7,1.6-.4,.8-.7,1.9-.7,3.1v1.6c0,.2,.1,.4,.1,.5h0c0,.3,0,.5,0,.7,.2,.8,.5,1.4,1,1.9,.5,.5,2.4,.7,5.6,.7v-3.7h-4v-2.8h7.1v9.4h-7.6Z" style="fill: #fff; fill-rule: evenodd;"/>
    <path d="M35.8,405.8h-1.3c0,0-.5,0-.5,0-.1,0-.2,0-.4,0,0,0-.1,0-.2,0,0,0-.1,0-.2,0-1.4-.4-2.5-1.3-3.3-2.8-.3-.6-.6-1.2-.7-1.9-.2-.7-.3-1.4-.3-2.1,0-1.5,.1-2.7,.3-3.7,.2-1,.6-1.9,1.1-2.7,.6-.9,1.3-1.5,2.2-1.8,.4-.1,.9-.3,1.5-.4,.6,0,2.8-.1,6.6-.1v2.7h-4.9c-2.3,0-3.4,1.2-3.4,3.7h8.3v2.7h-8.3c0,.6,0,1.2,.1,1.6,0,.2,0,.5,.2,.7,0,.2,.2,.3,.3,.5l.5,.6c.2,.1,.4,.3,.6,.4,.3,0,.5,.1,.7,.1h5.8v2.8h-5.1Z" style="fill: #fff; fill-rule: evenodd;"/>
    <path d="M49.3,405.8h-1.3c0,0-.5,0-.5,0-.1,0-.2,0-.4,0,0,0-.1,0-.2,0,0,0-.1,0-.2,0-1.4-.4-2.5-1.3-3.3-2.8-.3-.6-.6-1.2-.7-1.9-.2-.7-.3-1.4-.3-2.1,0-1.5,.1-2.7,.3-3.7,.2-1,.6-1.9,1.1-2.7,.6-.9,1.3-1.5,2.2-1.8,.4-.1,.9-.3,1.5-.4,.6,0,2.8-.1,6.6-.1v2.7h-4.9c-2.3,0-3.4,1.2-3.4,3.7h8.3v2.7h-8.3c0,.6,0,1.2,.1,1.6,0,.2,0,.5,.2,.7,0,.2,.2,.3,.3,.5l.5,.6c.2,.1,.4,.3,.6,.4,.3,0,.5,.1,.7,.1h5.8v2.8h-5.1Z" style="fill: #fff; fill-rule: evenodd;"/>
    <path d="M62.7,405.8h-1.3c0,0-.5,0-.5,0-.1,0-.2,0-.4,0,0,0-.1,0-.2,0,0,0-.1,0-.2,0-1.4-.4-2.5-1.3-3.3-2.8-.3-.6-.6-1.2-.7-1.9-.2-.7-.3-1.4-.3-2.1,0-1.5,.1-2.7,.3-3.7,.2-1,.6-1.9,1.1-2.7,.6-.9,1.3-1.5,2.2-1.8,.4-.1,.9-.3,1.5-.4,.6,0,2.8-.1,6.6-.1v2.7h-4.9c-2.3,0-3.4,1.2-3.4,3.7h8.3v2.7h-8.3c0,.6,0,1.2,.1,1.6,0,.2,0,.5,.2,.7,0,.2,.2,.3,.3,.5l.5,.6c.2,.1,.4,.3,.6,.4,.3,0,.5,.1,.7,.1h5.8v2.8h-5.1Z" style="fill: #fff; fill-rule: evenodd;"/>
    <polygon points="76.7 392.7 76.7 405.8 73.5 405.8 73.5 392.7 69 392.7 69 390 81.3 390 81.3 392.7 76.7 392.7" style="fill: #fff; fill-rule: evenodd;"/>
    <path d="M88.5,405.8h-1.3c0,0-.5,0-.5,0-.1,0-.2,0-.4,0,0,0-.1,0-.2,0,0,0-.1,0-.2,0-1.4-.4-2.5-1.3-3.3-2.8-.3-.6-.6-1.2-.7-1.9-.2-.7-.3-1.4-.3-2.1,0-1.5,.1-2.7,.3-3.7,.2-1,.6-1.9,1.1-2.7,.6-.9,1.3-1.5,2.2-1.8,.4-.1,.9-.3,1.5-.4,.6,0,2.8-.1,6.6-.1v2.7h-4.9c-2.3,0-3.4,1.2-3.4,3.7h8.3v2.7h-8.3c0,.6,0,1.2,.1,1.6,0,.2,0,.5,.2,.7,0,.2,.2,.3,.3,.5l.5,.6c.2,.1,.4,.3,.6,.4,.3,0,.5,.1,.7,.1h5.8v2.8h-5.1Z" style="fill: #fff; fill-rule: evenodd;"/>
    <path d="M102,405.8h-1.3c0,0-.5,0-.5,0-.1,0-.2,0-.4,0,0,0-.1,0-.2,0,0,0-.1,0-.2,0-1.4-.4-2.5-1.3-3.3-2.8-.7-1.3-1-2.6-1-4s.1-2.7,.3-3.7c.2-1,.6-1.9,1.1-2.7,.6-.9,1.3-1.5,2.2-1.8,.5-.2,1-.3,1.5-.4,.6,0,2.8-.1,6.6-.1v2.7h-4.9c-1,0-1.7,.3-2.3,.9-.5,.5-.8,1.2-1,2-.2,.9-.3,1.8-.3,2.8s.1,1.9,.4,2.7c.3,1,.9,1.6,1.7,1.8h.3c0,0,.4,.1,.4,.1h5.8v2.8h-5.1Z" style="fill: #fff; fill-rule: evenodd;"/>
    <polygon points="117.7 405.8 117.7 399.1 112.2 399.1 112.2 405.8 109.2 405.8 109.2 390 112.2 390 112.2 396.4 117.7 396.4 117.7 390 120.7 390 120.7 405.8 117.7 405.8" style="fill: #fff; fill-rule: evenodd;"/>
  </g>
  <rect x="1.4" y="1.4" width="507.4" height="422.4" style="fill: none; stroke: #fff; stroke-miterlimit: 10; stroke-width: .8px;"/>
  <line x1="134.9" y1="397.4" x2="375.3" y2="397.4" style="fill: none; stroke: #fff; stroke-miterlimit: 10; stroke-width: .8px;"/>
  <line x1="1.4" y1="371" x2="508.8" y2="371" style="fill: none; stroke: #fff; stroke-miterlimit: 10; stroke-width: .8px;"/>
  <line x1="1.4" y1="344.6" x2="508.8" y2="344.6" style="fill: none; stroke: #fff; stroke-miterlimit: 10; stroke-width: .8px;"/>
  <line x1="1.4" y1="318.2" x2="508.8" y2="318.2" style="fill: none; stroke: #fff; stroke-miterlimit: 10; stroke-width: .8px;"/>
  <line x1="1.4" y1="291.8" x2="508.8" y2="291.8" style="fill: none; stroke: #fff; stroke-miterlimit: 10; stroke-width: .8px;"/>
  <line x1="1.4" y1="265.4" x2="508.8" y2="265.4" style="fill: none; stroke: #fff; stroke-miterlimit: 10; stroke-width: .8px;"/>
  <line x1="1.4" y1="239" x2="508.8" y2="239" style="fill: none; stroke: #fff; stroke-miterlimit: 10; stroke-width: .8px;"/>
  <line x1="1.4" y1="212.6" x2="508.8" y2="212.6" style="fill: none; stroke: #fff; stroke-miterlimit: 10; stroke-width: .8px;"/>
  <line x1="1.4" y1="186.2" x2="508.8" y2="186.2" style="fill: none; stroke: #fff; stroke-miterlimit: 10; stroke-width: .8px;"/>
  <line x1="1.4" y1="159.8" x2="508.8" y2="159.8" style="fill: none; stroke: #fff; stroke-miterlimit: 10; stroke-width: .8px;"/>
  <line x1="1.4" y1="133.4" x2="508.8" y2="133.4" style="fill: none; stroke: #fff; stroke-miterlimit: 10; stroke-width: .8px;"/>
  <line x1="1.4" y1="107" x2="508.8" y2="107" style="fill: none; stroke: #fff; stroke-miterlimit: 10; stroke-width: .8px;"/>
  <line x1="1.4" y1="80.6" x2="508.8" y2="80.6" style="fill: none; stroke: #fff; stroke-miterlimit: 10; stroke-width: .8px;"/>
  <line x1="1.4" y1="54.2" x2="508.8" y2="54.2" style="fill: none; stroke: #fff; stroke-miterlimit: 10; stroke-width: .8px;"/>
  <line x1="1.4" y1="27.8" x2="508.8" y2="27.8" style="fill: none; stroke: #fff; stroke-miterlimit: 10; stroke-width: .8px;"/>
  <line x1="482.1" y1="1.4" x2="482.1" y2="371" style="fill: none; stroke: #fff; stroke-miterlimit: 10; stroke-width: .8px;"/>
  <line x1="455.4" y1="1.4" x2="455.4" y2="371" style="fill: none; stroke: #fff; stroke-miterlimit: 10; stroke-width: .8px;"/>
  <line x1="428.7" y1="1.4" x2="428.7" y2="371" style="fill: none; stroke: #fff; stroke-miterlimit: 10; stroke-width: .8px;"/>
  <line x1="402" y1="1.4" x2="402" y2="371" style="fill: none; stroke: #fff; stroke-miterlimit: 10; stroke-width: .8px;"/>
  <line x1="375.3" y1="1.4" x2="375.3" y2="423.8" style="fill: none; stroke: #fff; stroke-miterlimit: 10; stroke-width: .8px;"/>
  <line x1="348.6" y1="1.4" x2="348.6" y2="423.8" style="fill: none; stroke: #fff; stroke-miterlimit: 10; stroke-width: .8px;"/>
  <line x1="321.9" y1="1.4" x2="321.9" y2="423.8" style="fill: none; stroke: #fff; stroke-miterlimit: 10; stroke-width: .8px;"/>
  <line x1="295.2" y1="1.4" x2="295.2" y2="423.8" style="fill: none; stroke: #fff; stroke-miterlimit: 10; stroke-width: .8px;"/>
  <line x1="268.5" y1="1.4" x2="268.5" y2="423.8" style="fill: none; stroke: #fff; stroke-miterlimit: 10; stroke-width: .8px;"/>
  <line x1="241.8" y1="1.4" x2="241.8" y2="423.8" style="fill: none; stroke: #fff; stroke-miterlimit: 10; stroke-width: .8px;"/>
  <line x1="215.1" y1="1.4" x2="215.1" y2="423.8" style="fill: none; stroke: #fff; stroke-miterlimit: 10; stroke-width: .8px;"/>
  <line x1="188.4" y1="1.4" x2="188.4" y2="423.8" style="fill: none; stroke: #fff; stroke-miterlimit: 10; stroke-width: .8px;"/>
  <line x1="161.6" y1="1.4" x2="161.6" y2="423.8" style="fill: none; stroke: #fff; stroke-miterlimit: 10; stroke-width: .8px;"/>
  <line x1="134.9" y1="1.4" x2="134.9" y2="423.8" style="fill: none; stroke: #fff; stroke-miterlimit: 10; stroke-width: .8px;"/>
  <line x1="108.2" y1="1.4" x2="108.2" y2="371" style="fill: none; stroke: #fff; stroke-miterlimit: 10; stroke-width: .8px;"/>
  <line x1="81.5" y1="1.4" x2="81.5" y2="371" style="fill: none; stroke: #fff; stroke-miterlimit: 10; stroke-width: .8px;"/>
  <line x1="54.8" y1="1.4" x2="54.8" y2="371" style="fill: none; stroke: #fff; stroke-miterlimit: 10; stroke-width: .8px;"/>
  <line x1="28.1" y1="1.4" x2="28.1" y2="371" style="fill: none; stroke: #fff; stroke-miterlimit: 10; stroke-width: .8px;"/>
</svg>