<?xml version="1.0" encoding="UTF-8"?>
<svg id="_图层_1" data-name=" 图层 1" xmlns="http://www.w3.org/2000/svg" width="200mm" height="200mm" viewBox="0 0 566.9 566.9">
  <g>
    <rect x="453.6" y="515.8" width="90.9" height="28.7" style="fill: none;"/>
    <g>
      <path d="M482.1,538.5h0l-10.6-18.2c0-.2-.3-.3-.5-.3s-.4,.1-.5,.3l-10.6,18.2c0,.2,0,.4,0,.6,0,.2,.3,.3,.5,.3h21.1c.2,0,.4-.1,.5-.3,0-.2,0-.4,0-.6h0Zm-20.6-.3l9.5-16.4,9.5,16.4h-19Z" style="fill: #fff;"/>
      <rect x="466.4" y="536.2" width="9.3" height=".9" style="fill: #fff;"/>
      <path d="M469.2,535.5l-.5-.4c.9-1.4,.4-2.2,0-3.1-.6-.9-1.2-2.1,0-3.8l.5,.4c-.9,1.3-.5,2.2,0,3.1,.6,.9,1.2,2.1,0,3.8h0Z" style="fill: #fff;"/>
      <path d="M471.4,535.5l-.5-.4c.9-1.4,.4-2.2,0-3.1-.6-.9-1.2-2.1,0-3.7l.5,.4c-.9,1.3-.5,2.2,0,3.1,.6,.9,1.2,2.1,0,3.7h0Z" style="fill: #fff;"/>
      <path d="M473.7,535.5l-.5-.4c.9-1.4,.5-2.2,0-3.1-.6-1-1.2-2.1,0-3.8l.5,.4c-.9,1.4-.5,2.2,0,3.1,.6,1,1.2,2.1,0,3.8Z" style="fill: #fff;"/>
    </g>
    <g>
      <path d="M487.5,527.9c-.4,0-.8,0-1.2-.1-.4,0-.7-.2-.9-.5-.2-.2-.4-.6-.6-.9-.1-.4-.2-.9-.2-1.6s0-1.1,.2-1.5c.1-.4,.3-.7,.6-.9,.2-.2,.5-.4,.9-.5,.4,0,.7-.1,1.2-.1h.7c.2,0,.4,0,.6,.1v.7c-.1,0-.4-.1-.6-.1h-.7c-.3,0-.7,0-.9,.1-.3,0-.4,.2-.7,.4-.1,.2-.3,.4-.4,.7s-.1,.7-.1,1.2,0,.9,.1,1.2c0,.3,.2,.6,.4,.7s.4,.3,.6,.4,.5,.1,.9,.1h.7c.2,0,.4,0,.7-.1v.7c-.1,0-.4,.1-.7,.2-.2,0-.5,0-.9,0h.2Z" style="fill: #fff;"/>
      <path d="M492,523c.4,0,.7,0,.9,.1,.2,0,.4,.1,.6,.3s.2,.3,.3,.4c0,.1,0,.4,0,.6v3.4h-.7v-.7c-.1,.1-.3,.2-.4,.4s-.2,.2-.4,.2-.3,.1-.5,.1h-.5c-.6,0-.9-.1-1.2-.4s-.4-.6-.4-1,0-.5,.1-.7c0-.2,.2-.4,.4-.4,.1-.1,.4-.2,.6-.2s.5,0,.8,0h1.5v-.7c0-.1,0-.2-.1-.3s-.2-.1-.4-.2h-1.1c-.1,0-.4,0-.5,0v-.7h.9Zm-.5,4.2c.4,0,.7,0,1-.2s.5-.4,.6-.7v-.8h-1.9c-.1,0-.3,0-.4,.1s-.1,.1-.2,.3v.4c0,.3,0,.4,.2,.6s.4,.2,.7,.2h0Z" style="fill: #fff;"/>
      <path d="M499.3,523.1v4.7h-.7v-.7l-.4,.4c0,0-.2,.1-.4,.2-.1,0-.3,0-.4,.1h-.4c-.3,0-.6,0-.8-.1-.2,0-.4-.1-.5-.3s-.2-.3-.2-.5,0-.4,0-.7v-3.3h.7v3.5c0,.1,0,.3,.1,.4s.1,.1,.3,.2,.3,0,.4,0h.4c.1,0,.3,0,.4-.1s.2-.1,.3-.3c0-.1,.1-.3,.2-.5v-3.2h.9Z" style="fill: #fff;"/>
      <path d="M502.5,527.3h.5v.7h-1.2c-.1,0-.3-.1-.4-.2-.1-.1-.2-.3-.2-.4,0-.2,0-.4,0-.7v-2.7h-.7v-.7h.7v-1.1h.7v1.1h1.2v.7h-1.2v3.1c0,0,0,.2,0,.3s.1,.1,.2,.1h.4Z" style="fill: #fff;"/>
      <path d="M504.3,522.2c-.1,0-.3,0-.4,0,0,0,0-.1,0-.4s0-.3,0-.4c0,0,.2,0,.4,0s.3,0,.4,0c0,0,0,.1,0,.4s0,.3,0,.4c0,0-.2,0-.4,0Zm-.4,.9h.7v4.7h-.7v-4.7Z" style="fill: #fff;"/>
      <path d="M508.2,527.9c-.4,0-.7,0-.9-.1-.3,0-.5-.2-.7-.4-.2-.2-.4-.4-.4-.7s-.1-.7-.1-1.2,0-.9,.1-1.2c0-.3,.2-.6,.4-.7,.2-.2,.4-.3,.7-.4,.3,0,.6-.1,.9-.1s.7,0,.9,.1c.3,0,.5,.2,.7,.4,.2,.2,.3,.4,.4,.7,0,.3,.1,.7,.1,1.2s0,.9-.1,1.2c0,.3-.2,.6-.4,.7-.2,.2-.4,.3-.7,.4-.3,0-.6,.1-.9,.1Zm0-.7c.3,0,.5,0,.7,0s.3-.1,.4-.3c0-.1,.1-.3,.2-.6s0-.5,0-.9v-.9c0-.2-.1-.4-.2-.6s-.2-.2-.4-.3c-.1,0-.4,0-.7,0s-.5,0-.7,0c-.1,0-.3,.1-.4,.3,0,.1-.2,.4-.2,.6v1.7c0,.2,.1,.4,.2,.6,.1,.1,.2,.2,.4,.3s.4,0,.7,0Z" style="fill: #fff;"/>
      <path d="M514,523c.3,0,.6,0,.8,.1,.2,0,.4,.2,.5,.3,.1,.1,.2,.3,.3,.5,0,.2,0,.4,0,.7v3.3h-.7v-3.5c0-.1,0-.3-.1-.4,0,0-.1-.1-.3-.2s-.3,0-.4,0h-.4c-.1,0-.3,0-.4,.1s-.2,.1-.4,.3-.2,.3-.2,.5v3.2h-.7v-4.7h.7v.7c0-.1,.1-.3,.3-.4s.2-.1,.4-.2,.3,0,.4-.1,.3,0,.4,0h-.1Z" style="fill: #fff;"/>
      <path d="M524.1,521.7v6.1h-.8v-3h-3v3h-.8v-6.1h.8v2.5h3v-2.5h.8Z" style="fill: #fff;"/>
      <path d="M526,522.2c-.1,0-.3,0-.4,0,0,0,0-.1,0-.4s0-.3,0-.4c0,0,.2,0,.4,0s.3,0,.4,0c0,0,0,.1,0,.4s0,.3,0,.4c0,0-.2,0-.4,0Zm-.4,.9h.7v4.7h-.7v-4.7Z" style="fill: #fff;"/>
      <path d="M532,523.1v4.4c0,.7-.2,1.2-.6,1.5s-.9,.6-1.7,.6-.4,0-.6,0c-.2,0-.4,0-.5,0v-.7c.4,0,.7,0,1.2,0s.9-.1,1.2-.4,.4-.7,.4-1.2v-.5c0,.3-.3,.5-.5,.7s-.6,.2-1,.2-.7,0-.9-.1-.4-.3-.6-.5-.2-.4-.3-.7c0-.3,0-.7,0-1s0-.7,0-.9c0-.3,.1-.6,.3-.8s.4-.4,.6-.5,.6-.2,.9-.2,.4,0,.7,0c.1,0,.3,.1,.4,.2,.1,0,.2,.2,.3,.3,0,.1,.1,.2,.2,.4v-.9h.7Zm-2.2,4.2c.3,0,.5,0,.7-.1,.2,0,.4-.2,.4-.4s.2-.4,.2-.6v-1.5c0-.2-.1-.4-.2-.6s-.3-.3-.4-.4-.4-.1-.7-.1-.5,0-.7,.1c-.1,0-.3,.2-.4,.4s-.1,.4-.1,.6v1.4c0,.2,0,.4,.1,.6,0,.1,.2,.3,.4,.4s.4,.1,.7,.1h0Z" style="fill: #fff;"/>
      <path d="M535.9,523c.3,0,.6,0,.8,.1,.2,0,.4,.2,.5,.3,.1,.1,.2,.3,.3,.5,0,.2,0,.4,0,.7v3.3h-.7v-3.5c0-.1,0-.3-.1-.4,0,0-.1-.1-.3-.2s-.3,0-.4,0h-.4c-.1,0-.3,0-.4,.1s-.2,.1-.4,.3-.2,.3-.2,.5v3.2h-.7v-6.7h.7v2.6c0-.1,.1-.3,.3-.4s.2-.1,.4-.2,.3,0,.4-.1,.3,0,.4,0h-.1Z" style="fill: #fff;"/>
      <path d="M488.6,533h-1.7v5.4h-.8v-5.4h-1.7v-.7h4.4v.7h0Z" style="fill: #fff;"/>
      <path d="M493.1,535.5v.5l-3.2,.2c0,.3,0,.5,0,.7,0,.2,.1,.4,.2,.4,.1,.1,.3,.2,.4,.3,.2,0,.4,0,.7,0s.5,0,.8,0,.5-.1,.7-.2v.7s-.1,0-.3,0c-.1,0-.2,0-.4,0h-.9c-.4,0-.7,0-.9-.1-.3,0-.5-.2-.7-.4-.2-.2-.4-.4-.4-.7s-.1-.7-.1-1.2,0-.9,.1-1.2c0-.3,.2-.6,.4-.7,.2-.2,.4-.3,.7-.4,.3,0,.6-.1,.9-.1s.7,0,.9,.1,.4,.3,.6,.4c.1,.2,.2,.4,.3,.7v.9Zm-.6,0v-.5c0-.1,0-.3-.1-.4s-.2-.2-.4-.3c-.1,0-.4-.1-.6-.1s-.5,0-.7,0c-.1,0-.3,.1-.4,.3,0,.1-.1,.3-.2,.5v.7l2.5-.2h0Z" style="fill: #fff;"/>
      <path d="M499.6,533.5c.3,0,.5,0,.7,.1,.2,0,.4,.2,.5,.3,.1,.1,.2,.3,.3,.5,0,.2,0,.4,0,.7v3.3h-.7v-3c0-.4,0-.7-.2-.9-.1-.2-.4-.3-.7-.3h-.4c0,0-.2,0-.4,.1,0,0-.2,.1-.3,.2,0,0-.1,.2-.2,.4h0v3.4h-.7v-3c0-.4,0-.7-.1-.9s-.4-.3-.7-.3h-.4c-.1,0-.2,0-.4,.1,0,0-.2,.1-.3,.3,0,.1-.1,.3-.2,.4v3.3h-.7v-4.7h.7v.7c.1-.3,.4-.4,.6-.6,.2,0,.5-.1,.8-.1s.7,0,.9,.2c.2,.1,.4,.3,.5,.6,0-.1,.1-.3,.3-.4,0,0,.2-.1,.4-.2,.1,0,.3,0,.4-.1s.3,0,.4,0h0Z" style="fill: #fff;"/>
      <path d="M505.2,533.5c.4,0,.7,0,.9,.1s.4,.3,.6,.5,.2,.5,.3,.8c0,.3,0,.7,0,1s0,.7,0,.9c0,.3-.1,.6-.3,.8s-.4,.4-.6,.5c-.2,.1-.6,.2-.9,.2s-.8,0-1-.2c-.2-.1-.4-.4-.5-.7v2.6h-.7v-6.5h.7v.9c0-.3,.3-.5,.5-.7s.6-.3,1-.3h0Zm0,4.2c.3,0,.5,0,.7-.1s.3-.2,.4-.4c0-.1,.1-.4,.1-.6v-1.4c0-.2,0-.4-.1-.6,0-.1-.2-.3-.4-.4s-.4-.1-.7-.1-.5,0-.7,.1-.4,.2-.4,.4c-.1,.1-.2,.4-.2,.6v1.5c0,.2,.1,.4,.2,.6,.1,.1,.3,.3,.4,.4,.2,0,.4,.1,.7,.1Z" style="fill: #fff;"/>
      <path d="M512.5,535.5v.5l-3.2,.2c0,.3,0,.5,0,.7,0,.2,.1,.4,.2,.4,.1,.1,.3,.2,.4,.3,.2,0,.4,0,.7,0s.5,0,.8,0,.5-.1,.7-.2v.7s-.1,0-.3,0c-.1,0-.2,0-.4,0h-.9c-.4,0-.7,0-.9-.1-.3,0-.5-.2-.7-.4-.2-.2-.4-.4-.4-.7s-.1-.7-.1-1.2,0-.9,.1-1.2c0-.3,.2-.6,.4-.7,.2-.2,.4-.3,.7-.4,.3,0,.6-.1,.9-.1s.7,0,.9,.1,.4,.3,.6,.4c.1,.2,.2,.4,.3,.7v.9Zm-.6,0v-.5c0-.1,0-.3-.1-.4s-.2-.2-.4-.3c-.1,0-.4-.1-.6-.1s-.5,0-.7,0c-.1,0-.3,.1-.4,.3,0,.1-.1,.3-.2,.5v.7l2.5-.2h0Z" style="fill: #fff;"/>
      <path d="M516.3,533.5v.7h-.6c-.1,0-.3,0-.4,.1-.1,0-.2,.2-.4,.3,0,.1-.2,.3-.2,.5v3.1h-.7v-4.7h.7v.9c0-.2,.1-.4,.3-.5s.2-.2,.4-.3c.1,0,.3-.1,.4-.1h.5Z" style="fill: #fff;"/>
      <path d="M519,533.5c.4,0,.7,0,.9,.1,.2,0,.4,.1,.6,.3s.2,.3,.3,.4c0,.1,0,.4,0,.6v3.4h-.7v-.7c-.1,.1-.3,.2-.4,.4s-.2,.2-.4,.2-.3,.1-.5,.1h-.5c-.6,0-.9-.1-1.2-.4s-.4-.6-.4-1,0-.5,.1-.7c0-.2,.2-.4,.4-.4,.1-.1,.4-.2,.6-.2s.5,0,.8,0h1.5v-.7c0-.1,0-.2-.1-.3s-.2-.1-.4-.2h-1.1c-.1,0-.4,0-.5,0v-.7h.9Zm-.5,4.2c.4,0,.7,0,1-.2s.5-.4,.6-.7v-.8h-1.9c-.1,0-.3,0-.4,.1s-.1,.1-.2,.3v.4c0,.3,0,.4,.2,.6s.4,.2,.7,.2h0Z" style="fill: #fff;"/>
      <path d="M524.2,537.8h.5v.7h-1.2c-.1,0-.3-.1-.4-.2-.1-.1-.2-.3-.2-.4,0-.2,0-.4,0-.7v-2.7h-.7v-.7h.7v-1.1h.7v1.1h1.2v.7h-1.2v3.1c0,0,0,.2,0,.3s.1,.1,.2,.1h.4Z" style="fill: #fff;"/>
      <path d="M529.7,533.6v4.7h-.7v-.7l-.4,.4c0,0-.2,.1-.4,.2-.1,0-.3,0-.4,.1h-.4c-.3,0-.6,0-.8-.1-.2,0-.4-.1-.5-.3s-.2-.3-.2-.5,0-.4,0-.7v-3.3h.7v3.5c0,.1,0,.3,.1,.4s.1,.1,.3,.2,.3,0,.4,0h.4c.1,0,.3,0,.4-.1s.2-.1,.3-.3c0-.1,.1-.3,.2-.5v-3.2h.9Z" style="fill: #fff;"/>
      <path d="M533.8,533.5v.7h-.6c-.1,0-.3,0-.4,.1-.1,0-.2,.2-.4,.3,0,.1-.2,.3-.2,.5v3.1h-.7v-4.7h.7v.9c0-.2,.1-.4,.3-.5s.2-.2,.4-.3c.1,0,.3-.1,.4-.1h.5Z" style="fill: #fff;"/>
      <path d="M538.6,535.5v.5l-3.2,.2c0,.3,0,.5,0,.7,0,.2,.1,.4,.2,.4,.1,.1,.3,.2,.4,.3,.2,0,.4,0,.7,0s.5,0,.8,0,.5-.1,.7-.2v.7s-.1,0-.3,0c-.1,0-.2,0-.4,0h-.9c-.4,0-.7,0-.9-.1-.3,0-.5-.2-.7-.4-.2-.2-.4-.4-.4-.7s-.1-.7-.1-1.2,0-.9,.1-1.2c0-.3,.2-.6,.4-.7,.2-.2,.4-.3,.7-.4,.3,0,.6-.1,.9-.1s.7,0,.9,.1,.4,.3,.6,.4c.1,.2,.2,.4,.3,.7v.9Zm-.6,0v-.5c0-.1,0-.3-.1-.4s-.2-.2-.4-.3c-.1,0-.4-.1-.6-.1s-.5,0-.7,0c-.1,0-.3,.1-.4,.3,0,.1-.1,.3-.2,.5v.7l2.5-.2h0Z" style="fill: #fff;"/>
    </g>
    <g>
      <path d="M450.3,548.9h.5l1.5,5.4h0l1.7-5.4h.7l1.8,5.4h0l1.5-5.4h.5l-1.7,6h-.6l-1.8-5.5h0l-1.8,5.5h-.6l-1.7-6h0Z" style="fill: #fff;"/>
      <path d="M458.9,548.9h.5l1.5,5.4h0l1.7-5.4h.7l1.8,5.4h0l1.5-5.4h.5l-1.7,6h-.6l-1.8-5.5h0l-1.8,5.5h-.6l-1.7-6h0Z" style="fill: #fff;"/>
      <path d="M467.4,548.9h.5l1.5,5.4h0l1.7-5.4h.7l1.8,5.4h0l1.5-5.4h.5l-1.7,6h-.6l-1.8-5.5h0l-1.8,5.5h-.6l-1.7-6h0Z" style="fill: #fff;"/>
      <path d="M476.5,555c-.1,0-.3,0-.4,0,0,0,0-.2,0-.4s0-.4,0-.4c0,0,.2,0,.4,0s.3,0,.4,0c0,0,0,.2,0,.4s0,.4,0,.4c0,0-.2,0-.4,0Z" style="fill: #fff;"/>
      <path d="M483.6,548.9v5.5c0,.8-.2,1.5-.7,1.9-.4,.4-1.2,.7-2,.7s-.5,0-.7,0-.4,0-.6,0v-.5c.2,0,.4,0,.7,.1h.7c.8,0,1.3-.2,1.7-.6s.5-.9,.5-1.7v-.8c-.1,.4-.4,.7-.7,.9s-.8,.4-1.5,.4-.8,0-1.1-.2c-.3-.1-.5-.3-.7-.6-.1-.2-.3-.6-.4-.9s-.1-.8-.1-1.3,0-.9,.1-1.2c0-.4,.2-.7,.4-.9,.1-.3,.4-.4,.7-.6s.7-.2,1.1-.2,.6,0,.9,0c.2,0,.4,.1,.6,.3l.4,.4c.1,.1,.2,.4,.3,.6v-1.2h.4Zm-2.6,5.5c.4,0,.7,0,1-.2s.5-.3,.7-.5,.3-.5,.4-.8,0-.7,0-1,0-.7,0-1c0-.3-.1-.6-.4-.8s-.4-.4-.7-.5-.6-.2-1-.2-.7,0-.9,.1-.4,.3-.6,.5-.2,.5-.3,.8c0,.3,0,.7,0,1.1s0,.8,0,1.1c0,.3,.1,.6,.3,.8s.4,.4,.6,.5,.6,.1,.9,.1Z" style="fill: #fff;"/>
      <path d="M490,551.3v.6l-4.2,.3c0,.4,0,.8,.1,1.1,0,.3,.2,.6,.4,.7,.1,.2,.4,.4,.7,.4s.6,.1,1,.1,.7,0,.9,0c.4,0,.7-.1,.9-.3v.5c0,0-.2,0-.4,.1-.1,0-.3,0-.4,.1-.1,0-.4,0-.5,0h-.6c-.4,0-.9,0-1.2-.1-.4,0-.6-.3-.8-.5s-.4-.6-.4-.9-.1-.9-.1-1.5,0-1.1,.1-1.5,.2-.7,.4-.9,.4-.4,.8-.5c.3,0,.7-.1,1.2-.1s.9,0,1.2,.2c.3,.1,.5,.4,.7,.6s.2,.5,.3,.8,0,.6,0,.9h0Zm-.5,0v-.9c0-.3-.1-.5-.2-.7-.1-.2-.3-.4-.5-.4s-.5-.1-.9-.1-.7,0-.9,.1c-.3,0-.4,.2-.6,.4s-.3,.4-.4,.7c0,.3,0,.7-.1,1.1l3.7-.3h0Z" style="fill: #fff;"/>
      <path d="M496.1,551.3v.6l-4.2,.3c0,.4,0,.8,.1,1.1,0,.3,.2,.6,.4,.7,.1,.2,.4,.4,.7,.4s.6,.1,1,.1,.7,0,.9,0c.4,0,.7-.1,.9-.3v.5c0,0-.2,0-.4,.1-.1,0-.3,0-.4,.1-.1,0-.4,0-.5,0h-.6c-.4,0-.9,0-1.2-.1-.4,0-.6-.3-.8-.5s-.4-.6-.4-.9-.1-.9-.1-1.5,0-1.1,.1-1.5,.2-.7,.4-.9,.4-.4,.8-.5c.3,0,.7-.1,1.2-.1s.9,0,1.2,.2c.3,.1,.5,.4,.7,.6s.2,.5,.3,.8,0,.6,0,.9h0Zm-.5,0v-.9c0-.3-.1-.5-.2-.7-.1-.2-.3-.4-.5-.4s-.5-.1-.9-.1-.7,0-.9,.1c-.3,0-.4,.2-.6,.4s-.3,.4-.4,.7c0,.3,0,.7-.1,1.1l3.7-.3h0Z" style="fill: #fff;"/>
      <path d="M502.2,551.3v.6l-4.2,.3c0,.4,0,.8,.1,1.1,0,.3,.2,.6,.4,.7,.1,.2,.4,.4,.7,.4s.6,.1,1,.1,.7,0,.9,0c.4,0,.7-.1,.9-.3v.5c0,0-.2,0-.4,.1-.1,0-.3,0-.4,.1-.1,0-.4,0-.5,0h-.6c-.4,0-.9,0-1.2-.1-.4,0-.6-.3-.8-.5s-.4-.6-.4-.9-.1-.9-.1-1.5,0-1.1,.1-1.5,.2-.7,.4-.9,.4-.4,.8-.5c.3,0,.7-.1,1.2-.1s.9,0,1.2,.2c.3,.1,.5,.4,.7,.6s.2,.5,.3,.8,0,.6,0,.9h0Zm-.5,0v-.9c0-.3-.1-.5-.2-.7-.1-.2-.3-.4-.5-.4s-.5-.1-.9-.1-.7,0-.9,.1c-.3,0-.4,.2-.6,.4s-.3,.4-.4,.7c0,.3,0,.7-.1,1.1l3.7-.3h0Z" style="fill: #fff;"/>
      <path d="M505.5,554.5h.8v.4h-1.5c-.2,0-.4-.1-.4-.3-.1-.1-.2-.3-.2-.6s0-.6,0-.9v-3.7h-.9v-.4h.9v-1.4h.5v1.4h1.7v.4h-1.7v4.4c0,.1,0,.3,.1,.4s.1,.1,.3,.2h.4Z" style="fill: #fff;"/>
      <path d="M511.7,551.3v.6l-4.2,.3c0,.4,0,.8,.1,1.1,0,.3,.2,.6,.4,.7,.1,.2,.4,.4,.7,.4s.6,.1,1,.1,.7,0,.9,0c.4,0,.7-.1,.9-.3v.5c0,0-.2,0-.4,.1-.1,0-.3,0-.4,.1-.1,0-.4,0-.5,0h-.6c-.4,0-.9,0-1.2-.1-.4,0-.6-.3-.8-.5s-.4-.6-.4-.9-.1-.9-.1-1.5,0-1.1,.1-1.5,.2-.7,.4-.9,.4-.4,.8-.5c.3,0,.7-.1,1.2-.1s.9,0,1.2,.2c.3,.1,.5,.4,.7,.6s.2,.5,.3,.8,0,.6,0,.9h0Zm-.5,0v-.9c0-.3-.1-.5-.2-.7-.1-.2-.3-.4-.5-.4s-.5-.1-.9-.1-.7,0-.9,.1c-.3,0-.4,.2-.6,.4s-.3,.4-.4,.7c0,.3,0,.7-.1,1.1l3.7-.3h0Z" style="fill: #fff;"/>
      <path d="M515.5,555c-.4,0-.8,0-1.2-.1-.3,0-.6-.3-.8-.5s-.4-.6-.4-.9-.1-.9-.1-1.5,0-1.1,.1-1.5c0-.4,.2-.7,.4-.9s.4-.4,.8-.5c.3,0,.7-.1,1.2-.1h.9c.2,0,.5,0,.7,.1v.5c-.2,0-.4-.1-.7-.1h-.8c-.3,0-.7,0-.9,.1-.2,0-.4,.2-.6,.4s-.3,.4-.4,.8c0,.4,0,.7,0,1.2s0,.9,0,1.2c0,.4,.1,.6,.4,.8,.1,.2,.4,.4,.6,.4s.6,.1,.9,.1,.6,0,.9,0c.2,0,.5-.1,.7-.2v.5c-.1,0-.4,.1-.7,.2-.3,0-.6,0-.9,0h0Z" style="fill: #fff;"/>
      <path d="M521.1,548.8c.4,0,.7,0,.9,.1,.2,0,.4,.2,.6,.4s.2,.4,.3,.6c0,.2,0,.5,0,.8v4.2h-.5v-4.7c0-.2-.1-.4-.2-.5-.1-.1-.3-.2-.4-.3s-.4,0-.7,0h-.6c-.2,0-.4,0-.6,.2s-.4,.2-.5,.4-.2,.4-.3,.7v4.2h-.5v-8.4h.5v3.4c0-.2,.1-.4,.3-.5s.3-.3,.5-.4,.4-.1,.6-.2,.4,0,.7,0h0Z" style="fill: #fff;"/>
      <path d="M525.4,555c-.1,0-.3,0-.4,0,0,0,0-.2,0-.4s0-.4,0-.4c0,0,.2,0,.4,0s.3,0,.4,0c0,0,0,.2,0,.4s0,.4,0,.4c0,0-.2,0-.4,0Z" style="fill: #fff;"/>
      <path d="M529.5,555c-.4,0-.8,0-1.2-.1-.3,0-.6-.3-.8-.5s-.4-.6-.4-.9-.1-.9-.1-1.5,0-1.1,.1-1.5c0-.4,.2-.7,.4-.9s.4-.4,.8-.5c.3,0,.7-.1,1.2-.1h.9c.2,0,.5,0,.7,.1v.5c-.2,0-.4-.1-.7-.1h-.8c-.3,0-.7,0-.9,.1-.2,0-.4,.2-.6,.4s-.3,.4-.4,.8c0,.4,0,.7,0,1.2s0,.9,0,1.2c0,.4,.1,.6,.4,.8,.1,.2,.4,.4,.6,.4s.6,.1,.9,.1,.6,0,.9,0c.2,0,.5-.1,.7-.2v.5c-.1,0-.4,.1-.7,.2-.3,0-.6,0-.9,0h0Z" style="fill: #fff;"/>
      <path d="M534.8,555c-.4,0-.9,0-1.2-.1-.3,0-.6-.3-.8-.5s-.4-.6-.4-.9-.1-.9-.1-1.5,0-1.1,.1-1.5c0-.4,.2-.7,.4-.9s.4-.4,.8-.5,.7-.1,1.2-.1,.8,0,1.2,.1c.3,0,.6,.3,.8,.5s.4,.6,.4,.9,.1,.9,.1,1.5,0,1.1-.1,1.5c0,.4-.2,.7-.4,.9s-.5,.4-.8,.5c-.3,0-.7,.1-1.2,.1Zm0-.4c.4,0,.7,0,1-.1,.3,0,.4-.2,.7-.4,.1-.2,.3-.5,.4-.8s0-.7,0-1.2,0-.9,0-1.2-.1-.6-.4-.8-.4-.4-.7-.4-.6-.1-.9-.1-.7,0-.9,.1c-.3,0-.4,.2-.7,.4-.1,.2-.3,.5-.3,.8s0,.7,0,1.2,0,.9,0,1.2c0,.4,.1,.6,.3,.8s.4,.4,.7,.4,.6,.1,.9,.1h0Z" style="fill: #fff;"/>
      <path d="M545.1,548.8c.4,0,.7,0,.9,.1,.2,0,.4,.2,.6,.4s.2,.4,.3,.6c0,.2,0,.5,0,.8v4.2h-.5v-4.7c0-.2,0-.4-.2-.5,0-.1-.2-.2-.4-.3-.1,0-.4,0-.7,0h-.6c-.2,0-.4,0-.5,.2-.1,0-.3,.2-.4,.4-.1,.2-.2,.4-.3,.7h0v4.2h-.5v-4.7c0-.2,0-.4-.2-.5,0-.1-.2-.2-.4-.3s-.4,0-.7,0h-.6c-.2,0-.4,0-.5,.2-.1,0-.3,.2-.4,.4-.1,.1-.2,.4-.3,.7v4.2h-.5v-6h.5v1c0-.2,.1-.4,.3-.5s.3-.2,.4-.4c.1,0,.4-.1,.5-.2s.4,0,.6,0c.5,0,.9,0,1.2,.3,.3,.2,.4,.5,.5,.9,0-.2,.1-.4,.3-.5s.3-.3,.4-.4,.4-.1,.6-.2,.4,0,.7,0h0Z" style="fill: #fff;"/>
    </g>
  </g>
  <g>
    <path d="M14.6,548.8c-.3,0-.5,0-.5,0h0c-.2,0-.4-.1-.7-.2l-1.2-.4c-.2,0-.5-.3-.9-.5l-.8-.7c-.7-.7-1.3-1.7-1.7-3-.3-1.1-.5-2.5-.5-4.1s.3-3.2,.8-4.4c.6-1.5,1.6-2.7,3.1-3.5,.4-.2,1-.4,1.7-.5,.7,0,3.7-.1,9.2-.1v3.1h-7.2c-1.4,0-2.4,.6-3,1.7-.5,.9-.7,2.1-.7,3.5v1.8c0,.3,.1,.5,.1,.6h0c0,.3,0,.6,.1,.8,.2,.9,.5,1.6,1.1,2.1,.6,.5,2.6,.8,6.2,.8v-4.1h-4.5v-3.1h7.9v10.4H14.6Z" style="fill: #fff; fill-rule: evenodd;"/>
    <path d="M32.2,548.8h-1.4c0,0-.5,0-.5,0-.1,0-.3,0-.4,0-.1,0-.2,0-.2,0,0,0-.2,0-.2,0-1.6-.4-2.8-1.5-3.6-3.1-.4-.7-.6-1.4-.8-2.2-.2-.7-.3-1.5-.3-2.4,0-1.6,.1-3,.4-4.1,.2-1.1,.6-2.1,1.2-3,.6-1,1.5-1.6,2.4-2,.4-.2,1-.3,1.7-.5,.6,0,3.1-.1,7.4-.1v3.1h-5.5c-2.5,0-3.8,1.4-3.8,4.1h9.3v3.1h-9.3c0,.7,0,1.3,.2,1.8,0,.3,.1,.5,.2,.7,0,.2,.2,.4,.4,.6l.6,.6c.2,.2,.4,.3,.7,.4,.3,0,.6,.1,.8,.1h6.4v3.1h-5.6Z" style="fill: #fff; fill-rule: evenodd;"/>
    <path d="M47.2,548.8h-1.4c0,0-.5,0-.5,0-.1,0-.3,0-.4,0-.1,0-.2,0-.2,0,0,0-.2,0-.2,0-1.6-.4-2.8-1.5-3.6-3.1-.4-.7-.6-1.4-.8-2.2-.2-.7-.3-1.5-.3-2.4,0-1.6,.1-3,.4-4.1,.2-1.1,.6-2.1,1.2-3,.6-1,1.5-1.6,2.4-2,.4-.2,1-.3,1.7-.5,.6,0,3.1-.1,7.4-.1v3.1h-5.5c-2.5,0-3.8,1.4-3.8,4.1h9.3v3.1h-9.3c0,.7,0,1.3,.2,1.8,0,.3,.1,.5,.2,.7,0,.2,.2,.4,.4,.6l.6,.6c.2,.2,.4,.3,.7,.4,.3,0,.6,.1,.8,.1h6.4v3.1h-5.6Z" style="fill: #fff; fill-rule: evenodd;"/>
    <path d="M62.1,548.8h-1.4c0,0-.5,0-.5,0-.1,0-.3,0-.4,0-.1,0-.2,0-.2,0,0,0-.2,0-.2,0-1.6-.4-2.8-1.5-3.6-3.1-.4-.7-.6-1.4-.8-2.2-.2-.7-.3-1.5-.3-2.4,0-1.6,.1-3,.4-4.1,.2-1.1,.6-2.1,1.2-3,.6-1,1.5-1.6,2.4-2,.4-.2,1-.3,1.7-.5,.6,0,3.1-.1,7.4-.1v3.1h-5.5c-2.5,0-3.8,1.4-3.8,4.1h9.3v3.1h-9.3c0,.7,0,1.3,.2,1.8,0,.3,.1,.5,.2,.7,0,.2,.2,.4,.4,.6l.6,.6c.2,.2,.4,.3,.7,.4,.3,0,.6,.1,.8,.1h6.4v3.1h-5.6Z" style="fill: #fff; fill-rule: evenodd;"/>
    <polygon points="77.6 534.3 77.6 548.8 74.2 548.8 74.2 534.3 69.1 534.3 69.1 531.2 82.8 531.2 82.8 534.3 77.6 534.3" style="fill: #fff; fill-rule: evenodd;"/>
    <path d="M90.8,548.8h-1.4c0,0-.5,0-.5,0-.1,0-.3,0-.4,0-.1,0-.2,0-.2,0,0,0-.2,0-.2,0-1.6-.4-2.8-1.5-3.6-3.1-.4-.7-.6-1.4-.8-2.2-.2-.7-.3-1.5-.3-2.4,0-1.6,.1-3,.4-4.1,.2-1.1,.6-2.1,1.2-3,.6-1,1.5-1.6,2.4-2,.4-.2,1-.3,1.7-.5,.6,0,3.1-.1,7.4-.1v3.1h-5.5c-2.5,0-3.8,1.4-3.8,4.1h9.3v3.1h-9.3c0,.7,0,1.3,.2,1.8,0,.3,.1,.5,.2,.7,0,.2,.2,.4,.4,.6l.6,.6c.2,.2,.4,.3,.7,.4,.3,0,.6,.1,.8,.1h6.4v3.1h-5.6Z" style="fill: #fff; fill-rule: evenodd;"/>
    <path d="M105.8,548.8h-1.4c0,0-.5,0-.5,0-.1,0-.3,0-.4,0-.1,0-.2,0-.2,0,0,0-.2,0-.2,0-1.6-.4-2.8-1.5-3.6-3.1-.7-1.4-1.1-2.9-1.1-4.5s.1-3,.4-4.1c.2-1.1,.6-2.1,1.2-3,.6-1,1.5-1.6,2.4-2,.6-.2,1.1-.4,1.7-.5,.6,0,3.1-.1,7.4-.1v3h-5.5c-1.1,0-1.9,.3-2.5,1-.5,.6-.9,1.3-1.1,2.3-.2,1-.3,2-.3,3.1s.1,2.2,.4,3c.4,1.1,1,1.8,1.9,2h.4c0,0,.4,.1,.4,.1h6.4v3.1h-5.6Z" style="fill: #fff; fill-rule: evenodd;"/>
    <polygon points="123.4 548.8 123.4 541.4 117.2 541.4 117.2 548.8 113.9 548.8 113.9 531.2 117.2 531.2 117.2 538.3 123.4 538.3 123.4 531.2 126.7 531.2 126.7 548.8 123.4 548.8" style="fill: #fff; fill-rule: evenodd;"/>
  </g>
  <rect x="1.4" y="1.4" width="564.1" height="564.1" style="fill: none; stroke: #fff; stroke-miterlimit: 10; stroke-width: .8px;"/>
  <line x1="135.7" y1="538.7" x2="431.2" y2="538.7" style="fill: none; stroke: #fff; stroke-miterlimit: 10; stroke-width: .8px;"/>
  <line x1="1.4" y1="511.8" x2="565.5" y2="511.8" style="fill: none; stroke: #fff; stroke-miterlimit: 10; stroke-width: .8px;"/>
  <line x1="1.4" y1="484.9" x2="565.5" y2="484.9" style="fill: none; stroke: #fff; stroke-miterlimit: 10; stroke-width: .8px;"/>
  <line x1="1.4" y1="458.1" x2="565.5" y2="458.1" style="fill: none; stroke: #fff; stroke-miterlimit: 10; stroke-width: .8px;"/>
  <line x1="1.4" y1="431.2" x2="565.5" y2="431.2" style="fill: none; stroke: #fff; stroke-miterlimit: 10; stroke-width: .8px;"/>
  <line x1="1.4" y1="404.3" x2="565.5" y2="404.3" style="fill: none; stroke: #fff; stroke-miterlimit: 10; stroke-width: .8px;"/>
  <line x1="1.4" y1="377.5" x2="565.5" y2="377.5" style="fill: none; stroke: #fff; stroke-miterlimit: 10; stroke-width: .8px;"/>
  <line x1="1.4" y1="350.6" x2="565.5" y2="350.6" style="fill: none; stroke: #fff; stroke-miterlimit: 10; stroke-width: .8px;"/>
  <line x1="1.4" y1="323.8" x2="565.5" y2="323.8" style="fill: none; stroke: #fff; stroke-miterlimit: 10; stroke-width: .8px;"/>
  <line x1="1.4" y1="296.9" x2="565.5" y2="296.9" style="fill: none; stroke: #fff; stroke-miterlimit: 10; stroke-width: .8px;"/>
  <line x1="1.4" y1="270" x2="565.5" y2="270" style="fill: none; stroke: #fff; stroke-miterlimit: 10; stroke-width: .8px;"/>
  <line x1="1.4" y1="243.2" x2="565.5" y2="243.2" style="fill: none; stroke: #fff; stroke-miterlimit: 10; stroke-width: .8px;"/>
  <line x1="1.4" y1="216.3" x2="565.5" y2="216.3" style="fill: none; stroke: #fff; stroke-miterlimit: 10; stroke-width: .8px;"/>
  <line x1="1.4" y1="189.4" x2="565.5" y2="189.4" style="fill: none; stroke: #fff; stroke-miterlimit: 10; stroke-width: .8px;"/>
  <line x1="1.4" y1="162.6" x2="565.5" y2="162.6" style="fill: none; stroke: #fff; stroke-miterlimit: 10; stroke-width: .8px;"/>
  <line x1="1.4" y1="135.7" x2="565.5" y2="135.7" style="fill: none; stroke: #fff; stroke-miterlimit: 10; stroke-width: .8px;"/>
  <line x1="1.4" y1="108.9" x2="565.5" y2="108.9" style="fill: none; stroke: #fff; stroke-miterlimit: 10; stroke-width: .8px;"/>
  <line x1="1.4" y1="82" x2="565.5" y2="82" style="fill: none; stroke: #fff; stroke-miterlimit: 10; stroke-width: .8px;"/>
  <line x1="1.4" y1="55.1" x2="565.5" y2="55.1" style="fill: none; stroke: #fff; stroke-miterlimit: 10; stroke-width: .8px;"/>
  <line x1="1.4" y1="28.3" x2="565.5" y2="28.3" style="fill: none; stroke: #fff; stroke-miterlimit: 10; stroke-width: .8px;"/>
  <line x1="538.7" y1="1.4" x2="538.7" y2="511.8" style="fill: none; stroke: #fff; stroke-miterlimit: 10; stroke-width: .8px;"/>
  <line x1="511.8" y1="1.4" x2="511.8" y2="511.8" style="fill: none; stroke: #fff; stroke-miterlimit: 10; stroke-width: .8px;"/>
  <line x1="484.9" y1="1.4" x2="484.9" y2="511.8" style="fill: none; stroke: #fff; stroke-miterlimit: 10; stroke-width: .8px;"/>
  <line x1="458.1" y1="1.4" x2="458.1" y2="511.8" style="fill: none; stroke: #fff; stroke-miterlimit: 10; stroke-width: .8px;"/>
  <line x1="431.2" y1="1.4" x2="431.2" y2="565.5" style="fill: none; stroke: #fff; stroke-miterlimit: 10; stroke-width: .8px;"/>
  <line x1="404.3" y1="1.4" x2="404.3" y2="565.5" style="fill: none; stroke: #fff; stroke-miterlimit: 10; stroke-width: .8px;"/>
  <line x1="377.5" y1="1.4" x2="377.5" y2="565.5" style="fill: none; stroke: #fff; stroke-miterlimit: 10; stroke-width: .8px;"/>
  <line x1="350.6" y1="1.4" x2="350.6" y2="565.5" style="fill: none; stroke: #fff; stroke-miterlimit: 10; stroke-width: .8px;"/>
  <line x1="323.8" y1="1.4" x2="323.8" y2="565.5" style="fill: none; stroke: #fff; stroke-miterlimit: 10; stroke-width: .8px;"/>
  <line x1="296.9" y1="1.4" x2="296.9" y2="565.5" style="fill: none; stroke: #fff; stroke-miterlimit: 10; stroke-width: .8px;"/>
  <line x1="270" y1="1.4" x2="270" y2="565.5" style="fill: none; stroke: #fff; stroke-miterlimit: 10; stroke-width: .8px;"/>
  <line x1="243.2" y1="1.4" x2="243.2" y2="565.5" style="fill: none; stroke: #fff; stroke-miterlimit: 10; stroke-width: .8px;"/>
  <line x1="216.3" y1="1.4" x2="216.3" y2="565.5" style="fill: none; stroke: #fff; stroke-miterlimit: 10; stroke-width: .8px;"/>
  <line x1="189.4" y1="1.4" x2="189.4" y2="565.5" style="fill: none; stroke: #fff; stroke-miterlimit: 10; stroke-width: .8px;"/>
  <line x1="162.6" y1="1.4" x2="162.6" y2="565.5" style="fill: none; stroke: #fff; stroke-miterlimit: 10; stroke-width: .8px;"/>
  <line x1="135.7" y1="1.4" x2="135.7" y2="565.5" style="fill: none; stroke: #fff; stroke-miterlimit: 10; stroke-width: .8px;"/>
  <line x1="108.9" y1="1.4" x2="108.9" y2="511.8" style="fill: none; stroke: #fff; stroke-miterlimit: 10; stroke-width: .8px;"/>
  <line x1="82" y1="1.4" x2="82" y2="511.8" style="fill: none; stroke: #fff; stroke-miterlimit: 10; stroke-width: .8px;"/>
  <line x1="55.1" y1="1.4" x2="55.1" y2="511.8" style="fill: none; stroke: #fff; stroke-miterlimit: 10; stroke-width: .8px;"/>
  <line x1="28.3" y1="1.4" x2="28.3" y2="511.8" style="fill: none; stroke: #fff; stroke-miterlimit: 10; stroke-width: .8px;"/>
</svg>