<?xml version="1.0" encoding="UTF-8"?>
<svg id="_图层_1" data-name=" 图层 1" xmlns="http://www.w3.org/2000/svg" width="300mm" height="180mm" viewBox="0 0 850.4 510.2">
  <g>
    <rect x="702.4" y="437.4" width="131" height="41.2" style="fill: none;"/>
    <g>
      <path d="M743.5,470h0l-15.2-26.2c-.1-.3-.4-.4-.7-.4s-.6,.2-.7,.4l-15.2,26.2c-.1,.3-.1,.6,0,.8,.1,.3,.4,.4,.7,.4h30.4c.3,0,.6-.2,.7-.4,.1-.3,.1-.6,0-.8h.1Zm-29.6-.4l13.7-23.6,13.7,23.6h-27.3Z" style="fill: #fff;"/>
      <rect x="720.9" y="466.6" width="13.3" height="1.4" style="fill: #fff;"/>
      <path d="M724.9,465.7l-.7-.5c1.4-2,.6-3.1-.1-4.5-.8-1.4-1.8-3,0-5.5l.7,.5c-1.4,1.9-.7,3.1,0,4.5,.8,1.4,1.8,3,0,5.5h.1Z" style="fill: #fff;"/>
      <path d="M728.2,465.7l-.7-.5c1.4-2,.6-3.1-.1-4.5-.8-1.4-1.8-3,0-5.3l.7,.5c-1.4,1.9-.7,3.1,0,4.5,.8,1.4,1.8,3,0,5.3h.1Z" style="fill: #fff;"/>
      <path d="M731.4,465.7l-.7-.5c1.4-2,.7-3.1,0-4.5-.8-1.5-1.7-3,0-5.5l.7,.5c-1.4,2-.7,3.1,0,4.5,.8,1.5,1.7,3,0,5.5Z" style="fill: #fff;"/>
    </g>
    <g>
      <path d="M751.4,454.8c-.6,0-1.2,0-1.7-.2-.5-.1-.9-.3-1.3-.7-.3-.3-.6-.8-.8-1.4-.2-.6-.3-1.4-.3-2.3s0-1.6,.3-2.1c.2-.6,.4-1,.8-1.4,.3-.3,.7-.6,1.3-.7,.5-.1,1.1-.2,1.7-.2h1.1c.3,0,.6,.1,.8,.2v1c-.2,0-.5-.2-.8-.2h-1.1c-.4,0-.9,0-1.3,.2-.4,.1-.6,.3-.9,.6-.2,.3-.4,.6-.5,1s-.2,.9-.2,1.7,0,1.3,.2,1.7c.1,.4,.3,.8,.5,1s.5,.4,.8,.5,.7,.2,1.3,.2h1.1c.3,0,.6-.1,.9-.2v.9c-.2,.1-.5,.2-.9,.3-.3,0-.7,.1-1.3,.1l.3-.2Z" style="fill: #fff;"/>
      <path d="M757.9,447.8c.5,0,.9,0,1.4,.2,.3,0,.6,.2,.8,.4s.3,.4,.4,.6c0,.2,.1,.5,.1,.8v4.8h-.9l-.2-1c0,.2-.2,.3-.4,.5s-.3,.3-.5,.3-.4,.2-.7,.2h-.7c-.8,0-1.4-.2-1.8-.5s-.5-.8-.5-1.5,0-.7,.2-1c.1-.3,.3-.5,.5-.6,.2-.2,.5-.3,.8-.3s.7-.1,1.2-.1h2.1v-1c0-.2-.1-.3-.2-.4s-.3-.2-.5-.3h-1.6c-.2,0-.5,0-.7,.1v-.9h1.5v-.2Zm-.8,6.2c.5,0,1.1-.1,1.5-.3s.7-.5,.8-.9v-1.2h-2.7c-.2,0-.4,0-.5,.2s-.2,.2-.3,.4v.6c0,.4,0,.6,.3,.8s.5,.3,1.1,.3h-.1Z" style="fill: #fff;"/>
      <path d="M768.4,447.9v6.8h-.9v-.9l-.5,.5c-.1,.1-.3,.2-.5,.3-.2,0-.4,.1-.6,.2h-.6c-.4,0-.8,0-1.2-.2-.3-.1-.5-.2-.7-.4s-.3-.4-.3-.7-.1-.5-.1-.9v-4.7h1.1v5c0,.2,0,.4,.2,.5s.2,.2,.4,.3,.4,.1,.6,.1h.6c.2,0,.4,0,.5-.2s.3-.2,.4-.4c.1-.2,.2-.4,.3-.7v-4.6h1.4Z" style="fill: #fff;"/>
      <path d="M772.9,453.8h.7v.9h-1.8c-.2,0-.4-.2-.6-.3-.2-.2-.3-.4-.3-.6,0-.3-.1-.6-.1-1v-3.9h-1.1v-.9h1.1v-1.6h1.1v1.6h1.7v.9h-1.7v4.4c0,.1,0,.3,.1,.4s.2,.2,.3,.2h.6Z" style="fill: #fff;"/>
      <path d="M775.5,446.6c-.2,0-.4,0-.5-.1,0,0-.1-.2-.1-.5s0-.4,.1-.5c0,0,.3-.1,.5-.1s.4,0,.5,.1c0,0,.1,.2,.1,.5s0,.4-.1,.5c0,0-.3,.1-.5,.1Zm-.5,1.3h1.1v6.8h-1.1v-6.8Z" style="fill: #fff;"/>
      <path d="M781.2,454.8c-.5,0-.9,0-1.4-.2-.4-.1-.7-.3-.9-.6-.3-.3-.5-.6-.6-1s-.2-1-.2-1.7,0-1.3,.2-1.7c.1-.4,.3-.8,.6-1,.3-.3,.6-.4,.9-.6,.4-.1,.8-.2,1.4-.2s.9,0,1.4,.2c.4,.1,.7,.3,.9,.6,.3,.3,.4,.6,.6,1,.1,.4,.2,1,.2,1.7s0,1.3-.2,1.7c-.1,.4-.3,.8-.6,1-.3,.3-.6,.4-.9,.6-.4,.1-.8,.2-1.4,.2Zm0-.9c.4,0,.7,0,.9-.1s.4-.2,.6-.4c.1-.2,.2-.4,.3-.8s0-.7,0-1.3v-1.3c0-.3-.2-.6-.3-.8s-.3-.3-.6-.4c-.2,0-.5-.1-.9-.1s-.7,0-.9,.1c-.2,0-.4,.2-.6,.4-.1,.2-.3,.5-.3,.8v2.5c0,.3,.2,.6,.3,.8,.2,.2,.3,.3,.6,.4s.5,.1,.9,.1Z" style="fill: #fff;"/>
      <path d="M789.5,447.8c.4,0,.8,0,1.2,.2,.3,.1,.5,.3,.7,.4,.2,.2,.3,.4,.4,.7,0,.3,.1,.5,.1,.9v4.7h-1.1v-5c0-.2,0-.4-.2-.5,0-.1-.2-.2-.4-.3s-.4-.1-.6-.1h-.6c-.2,0-.4,0-.6,.2s-.3,.2-.5,.4-.3,.4-.3,.7v4.6h-1.1v-6.8h1.1v.9c0-.2,.2-.4,.4-.5s.3-.2,.5-.3,.4-.1,.6-.2,.4,0,.6,0h-.2Z" style="fill: #fff;"/>
      <path d="M804,445.9v8.8h-1.2v-4.3h-4.3v4.3h-1.2v-8.8h1.2v3.6h4.3v-3.6h1.2Z" style="fill: #fff;"/>
      <path d="M806.9,446.6c-.2,0-.4,0-.5-.1,0,0-.1-.2-.1-.5s0-.4,.1-.5c0,0,.3-.1,.5-.1s.4,0,.5,.1c0,0,.1,.2,.1,.5s0,.4-.1,.5c0,0-.3,.1-.5,.1Zm-.5,1.3h1.1v6.8h-1.1v-6.8Z" style="fill: #fff;"/>
      <path d="M815.5,447.9v6.4c0,.9-.3,1.7-.8,2.2s-1.4,.8-2.5,.8-.6,0-.8,0c-.3,0-.5,0-.7-.1v-.9c.5,0,1.1,.1,1.7,.1s1.4-.2,1.7-.5,.5-.9,.5-1.7v-.7c-.1,.4-.4,.7-.7,.9s-.8,.3-1.5,.3-1.1,0-1.4-.2-.6-.4-.8-.7-.3-.6-.4-1c0-.4-.1-.9-.1-1.5s0-.9,.1-1.4c0-.4,.2-.8,.4-1.2s.5-.5,.8-.7,.8-.3,1.4-.3,.6,0,.9,.1c.2,0,.4,.2,.6,.3,.2,.1,.3,.3,.4,.4,.1,.2,.2,.3,.3,.5v-1.3h.9Zm-3.2,6c.4,0,.7,0,1.1-.2,.3-.1,.5-.3,.6-.5s.3-.5,.3-.8v-2.1c0-.3-.2-.6-.3-.8s-.4-.4-.6-.5-.6-.2-1.1-.2-.7,0-.9,.2c-.2,.1-.4,.3-.5,.5s-.2,.5-.2,.8v2c0,.3,.1,.6,.2,.8,.1,.2,.3,.4,.5,.5s.5,.2,.9,.2h0Z" style="fill: #fff;"/>
      <path d="M821,447.8c.4,0,.8,0,1.2,.2,.3,.1,.5,.3,.7,.4,.2,.2,.3,.4,.4,.7,0,.3,.1,.5,.1,.9v4.7h-1.1v-5c0-.2,0-.4-.2-.5,0-.1-.2-.2-.4-.3s-.4-.1-.6-.1h-.6c-.2,0-.4,0-.6,.2s-.3,.2-.5,.4-.3,.4-.3,.7v4.6h-1.1v-9.6h1.1v3.8c0-.2,.2-.4,.4-.5s.3-.2,.5-.3,.4-.1,.6-.2,.4,0,.6,0h-.2Z" style="fill: #fff;"/>
      <path d="M752.9,462.1h-2.5v7.8h-1.2v-7.8h-2.5v-1h6.3v1h-.1Z" style="fill: #fff;"/>
      <path d="M759.4,465.7v.7l-4.6,.3c0,.4,0,.7,.1,.9,0,.3,.2,.5,.3,.6,.2,.2,.4,.3,.6,.4,.3,0,.6,.1,1.1,.1s.7,0,1.2-.1,.7-.2,.9-.3v1s-.2,0-.4,.1c-.2,0-.3,0-.5,.1h-1.4c-.5,0-.9,0-1.4-.2-.4-.1-.7-.3-.9-.6-.3-.3-.5-.6-.6-1s-.2-1-.2-1.7,0-1.3,.2-1.7c.1-.4,.3-.8,.6-1,.3-.3,.6-.4,.9-.6,.4-.1,.8-.2,1.3-.2s1.1,0,1.4,.2,.6,.4,.8,.6c.2,.3,.3,.6,.4,.9v1l.2,.3Zm-1.1,0v-.7c0-.2-.1-.4-.2-.6s-.3-.3-.5-.4c-.2-.1-.5-.2-.8-.2s-.7,0-.9,.1c-.2,0-.4,.2-.6,.4-.1,.2-.2,.4-.3,.7v.9l3.6-.3h-.1Z" style="fill: #fff;"/>
      <path d="M768.7,462.9c.4,0,.7,0,1.1,.2,.3,.1,.5,.3,.7,.4,.2,.2,.3,.4,.4,.7,0,.3,.1,.5,.1,.9v4.7h-1.1v-4.3c0-.5,0-.9-.3-1.3-.2-.3-.5-.4-1.1-.4h-.5c-.1,0-.3,0-.5,.2-.1,0-.3,.2-.4,.3-.1,.1-.2,.3-.3,.6h0v4.8h-1.1v-4.3c0-.5,0-.9-.2-1.3s-.5-.4-1.1-.4h-.6c-.2,0-.3,0-.5,.2-.1,0-.3,.2-.4,.4-.1,.2-.2,.4-.3,.6v4.7h-1.1v-6.8h1.1v.9c.2-.4,.5-.6,.8-.8,.3-.1,.7-.2,1.2-.2s.9,0,1.3,.3c.3,.2,.5,.4,.7,.8,0-.2,.2-.4,.4-.5,.1-.1,.3-.2,.5-.3,.2,0,.4-.1,.6-.2s.4,0,.6,0v-.2Z" style="fill: #fff;"/>
      <path d="M776.8,462.9c.5,0,1.1,0,1.4,.2s.6,.4,.8,.7,.3,.7,.4,1.2c0,.4,.1,.9,.1,1.5s0,.9-.1,1.4c0,.4-.2,.8-.4,1.2s-.5,.6-.8,.7c-.3,.2-.8,.3-1.4,.3s-1.2-.1-1.5-.3c-.3-.2-.5-.5-.7-.9v3.7h-1.1v-9.3h1.1v1.3c.1-.4,.4-.7,.7-.9s.8-.4,1.5-.4h0Zm-.1,6.1c.4,0,.7,0,.9-.2s.4-.3,.5-.6c.1-.2,.2-.5,.2-.8v-2c0-.3-.1-.6-.2-.8-.1-.2-.3-.4-.5-.5s-.5-.2-.9-.2-.7,0-1.1,.2-.5,.3-.6,.5c-.2,.2-.3,.5-.3,.8v2.1c0,.3,.2,.6,.3,.8,.2,.2,.4,.4,.6,.5,.3,.1,.6,.2,1.1,.2Z" style="fill: #fff;"/>
      <path d="M787.3,465.7v.7l-4.6,.3c0,.4,0,.7,.1,.9,0,.3,.2,.5,.3,.6,.2,.2,.4,.3,.6,.4,.3,0,.6,.1,1.1,.1s.7,0,1.2-.1,.7-.2,.9-.3v1s-.2,0-.4,.1c-.2,0-.3,0-.5,.1h-1.4c-.5,0-.9,0-1.4-.2-.4-.1-.7-.3-.9-.6-.3-.3-.5-.6-.6-1s-.2-1-.2-1.7,0-1.3,.2-1.7c.1-.4,.3-.8,.6-1,.3-.3,.6-.4,.9-.6,.4-.1,.8-.2,1.3-.2s1.1,0,1.4,.2,.6,.4,.8,.6c.2,.3,.3,.6,.4,.9v1l.2,.3Zm-1.1,0v-.7c0-.2-.1-.4-.2-.6s-.3-.3-.5-.4c-.2-.1-.5-.2-.8-.2s-.7,0-.9,.1c-.2,0-.4,.2-.6,.4-.1,.2-.2,.4-.3,.7v.9l3.6-.3h-.1Z" style="fill: #fff;"/>
      <path d="M792.9,462.9v.9h-.8c-.2,0-.4,.1-.6,.2-.2,.1-.3,.3-.5,.4-.1,.2-.3,.4-.3,.7v4.5h-1.1v-6.8h1.1v1.3c.1-.3,.2-.5,.4-.7s.3-.3,.5-.4c.2,0,.4-.2,.6-.2h.7Z" style="fill: #fff;"/>
      <path d="M796.8,462.9c.5,0,.9,0,1.4,.2,.3,0,.6,.2,.8,.4s.3,.4,.4,.6c0,.2,.1,.5,.1,.8v4.8h-.9l-.2-1c0,.2-.2,.3-.4,.5s-.3,.3-.5,.3-.4,.2-.7,.2h-.7c-.8,0-1.4-.2-1.8-.5s-.5-.8-.5-1.5,0-.7,.2-1c.1-.3,.3-.5,.5-.6,.2-.2,.5-.3,.8-.3s.7-.1,1.2-.1h2.1v-1c0-.2-.1-.3-.2-.4s-.3-.2-.5-.3h-1.6c-.2,0-.5,0-.7,.1v-.9h1.5v-.2Zm-.8,6.2c.5,0,1.1-.1,1.5-.3s.7-.5,.8-.9v-1.2h-2.7c-.2,0-.4,0-.5,.2s-.2,.2-.3,.4v.6c0,.4,0,.6,.3,.8s.5,.3,1.1,.3h-.1Z" style="fill: #fff;"/>
      <path d="M804.2,469h.7v.9h-1.8c-.2,0-.4-.2-.6-.3-.2-.2-.3-.4-.3-.6,0-.3-.1-.6-.1-1v-3.9h-1.1v-.9h1.1v-1.6h1.1v1.6h1.7v.9h-1.7v4.4c0,.1,0,.3,.1,.4s.2,.2,.3,.2h.6Z" style="fill: #fff;"/>
      <path d="M812.1,463v6.8h-.9v-.9l-.5,.5c-.1,.1-.3,.2-.5,.3-.2,0-.4,.1-.6,.2h-.6c-.4,0-.8,0-1.2-.2-.3-.1-.5-.2-.7-.4s-.3-.4-.3-.7-.1-.5-.1-.9v-4.7h1.1v5c0,.2,0,.4,.2,.5s.2,.2,.4,.3,.4,.1,.6,.1h.6c.2,0,.4,0,.5-.2s.3-.2,.4-.4c.1-.2,.2-.4,.3-.7v-4.6h1.4Z" style="fill: #fff;"/>
      <path d="M818.1,462.9v.9h-.8c-.2,0-.4,.1-.6,.2-.2,.1-.3,.3-.5,.4-.1,.2-.3,.4-.3,.7v4.5h-1.1v-6.8h1.1v1.3c.1-.3,.2-.5,.4-.7s.3-.3,.5-.4c.2,0,.4-.2,.6-.2h.7Z" style="fill: #fff;"/>
      <path d="M825,465.7v.7l-4.6,.3c0,.4,0,.7,.1,.9,0,.3,.2,.5,.3,.6,.2,.2,.4,.3,.6,.4,.3,0,.6,.1,1.1,.1s.7,0,1.2-.1,.7-.2,.9-.3v1s-.2,0-.4,.1c-.2,0-.3,0-.5,.1h-1.4c-.5,0-.9,0-1.4-.2-.4-.1-.7-.3-.9-.6-.3-.3-.5-.6-.6-1s-.2-1-.2-1.7,0-1.3,.2-1.7c.1-.4,.3-.8,.6-1,.3-.3,.6-.4,.9-.6,.4-.1,.8-.2,1.3-.2s1.1,0,1.4,.2,.6,.4,.8,.6c.2,.3,.3,.6,.4,.9v1l.2,.3Zm-1.1,0v-.7c0-.2-.1-.4-.2-.6s-.3-.3-.5-.4c-.2-.1-.5-.2-.8-.2s-.7,0-.9,.1c-.2,0-.4,.2-.6,.4-.1,.2-.2,.4-.3,.7v.9l3.6-.3h-.1Z" style="fill: #fff;"/>
    </g>
    <g>
      <path d="M697.7,485h.7l2.1,7.8h0l2.5-7.8h.9l2.6,7.8h0l2.1-7.8h.7l-2.4,8.6h-.8l-2.6-7.9h0l-2.6,7.9h-.8l-2.4-8.6h0Z" style="fill: #fff;"/>
      <path d="M710.1,485h.7l2.1,7.8h0l2.5-7.8h.9l2.6,7.8h0l2.1-7.8h.7l-2.4,8.6h-.8l-2.6-7.9h0l-2.6,7.9h-.8l-2.4-8.6h0Z" style="fill: #fff;"/>
      <path d="M722.4,485h.7l2.1,7.8h0l2.5-7.8h.9l2.6,7.8h0l2.1-7.8h.7l-2.4,8.6h-.8l-2.6-7.9h0l-2.6,7.9h-.8l-2.4-8.6h0Z" style="fill: #fff;"/>
      <path d="M735.5,493.7c-.2,0-.4,0-.5-.1,0,0-.1-.3-.1-.6s0-.5,.1-.5c0,0,.3-.1,.5-.1s.4,0,.5,.1c0,0,.1,.3,.1,.5s0,.5-.1,.6c0,0-.3,.1-.5,.1Z" style="fill: #fff;"/>
      <path d="M745.7,485v8c0,1.2-.3,2.1-.9,2.7-.6,.6-1.7,.9-2.9,.9s-.7,0-1.1,0-.6,0-.8-.1v-.7c.3,0,.6,.1,.9,.2h1.1c1.2,0,1.9-.3,2.4-.8s.7-1.4,.7-2.4v-1.2c-.2,.6-.5,1-1.1,1.4s-1.2,.5-2.1,.5-1.2,0-1.6-.3c-.4-.2-.7-.4-1.1-.8-.2-.3-.4-.8-.5-1.4s-.2-1.2-.2-1.9,0-1.3,.2-1.8c.1-.5,.3-1,.5-1.4,.2-.4,.6-.6,1.1-.8s.9-.3,1.6-.3,.8,0,1.3,.1c.3,0,.6,.2,.8,.4l.6,.6c.2,.2,.3,.5,.4,.8v-1.8h.6Zm-3.7,8c.6,0,1.1,0,1.5-.3s.7-.4,.9-.7,.4-.7,.5-1.2,.1-.9,.1-1.5,0-1-.1-1.5c0-.4-.2-.8-.5-1.2s-.5-.6-.9-.7-.8-.3-1.5-.3-1.1,0-1.4,.2-.6,.4-.8,.7-.3,.7-.4,1.2c0,.4-.1,.9-.1,1.6s0,1.2,.1,1.6c0,.4,.2,.8,.4,1.2s.5,.5,.8,.7,.8,.2,1.4,.2Z" style="fill: #fff;"/>
      <path d="M754.9,488.3v.8l-6.1,.4c0,.6,0,1.2,.2,1.6,0,.4,.3,.8,.5,1,.2,.3,.5,.5,.9,.6s.8,.2,1.5,.2,.9,0,1.4-.1c.5,0,.9-.2,1.3-.4v.7c-.1,0-.3,.1-.5,.2-.2,0-.4,.1-.6,.2-.2,0-.5,0-.7,.1h-.8c-.6,0-1.3,0-1.7-.2-.5-.1-.8-.4-1.2-.7s-.5-.8-.6-1.4-.2-1.3-.2-2.1,0-1.6,.2-2.1,.3-1,.6-1.4,.6-.6,1.2-.7c.4-.1,1.1-.2,1.7-.2s1.3,.1,1.7,.3c.4,.2,.7,.5,.9,.8s.3,.7,.4,1.2,0,.8,0,1.3v-.2Zm-.7,.2v-1.3c0-.4-.2-.7-.3-.9-.2-.3-.4-.5-.7-.6s-.7-.2-1.4-.2-1.1,0-1.4,.2c-.4,.1-.6,.3-.8,.6s-.4,.6-.5,1c0,.4-.1,.9-.2,1.6l5.4-.4h0Z" style="fill: #fff;"/>
      <path d="M763.8,488.3v.8l-6.1,.4c0,.6,0,1.2,.2,1.6,0,.4,.3,.8,.5,1,.2,.3,.5,.5,.9,.6s.8,.2,1.5,.2,.9,0,1.4-.1c.5,0,.9-.2,1.3-.4v.7c-.1,0-.3,.1-.5,.2-.2,0-.4,.1-.6,.2-.2,0-.5,0-.7,.1h-.8c-.6,0-1.3,0-1.7-.2-.5-.1-.8-.4-1.2-.7s-.5-.8-.6-1.4-.2-1.3-.2-2.1,0-1.6,.2-2.1,.3-1,.6-1.4,.6-.6,1.2-.7c.4-.1,1.1-.2,1.7-.2s1.3,.1,1.7,.3c.4,.2,.7,.5,.9,.8s.3,.7,.4,1.2,0,.8,0,1.3v-.2Zm-.7,.2v-1.3c0-.4-.2-.7-.3-.9-.2-.3-.4-.5-.7-.6s-.7-.2-1.4-.2-1.1,0-1.4,.2c-.4,.1-.6,.3-.8,.6s-.4,.6-.5,1c0,.4-.1,.9-.2,1.6l5.4-.4h0Z" style="fill: #fff;"/>
      <path d="M772.5,488.3v.8l-6.1,.4c0,.6,0,1.2,.2,1.6,0,.4,.3,.8,.5,1,.2,.3,.5,.5,.9,.6s.8,.2,1.5,.2,.9,0,1.4-.1c.5,0,.9-.2,1.3-.4v.7c-.1,0-.3,.1-.5,.2-.2,0-.4,.1-.6,.2-.2,0-.5,0-.7,.1h-.8c-.6,0-1.3,0-1.7-.2-.5-.1-.8-.4-1.2-.7s-.5-.8-.6-1.4-.2-1.3-.2-2.1,0-1.6,.2-2.1,.3-1,.6-1.4,.6-.6,1.2-.7c.4-.1,1.1-.2,1.7-.2s1.3,.1,1.7,.3c.4,.2,.7,.5,.9,.8s.3,.7,.4,1.2,0,.8,0,1.3v-.2Zm-.7,.2v-1.3c0-.4-.2-.7-.3-.9-.2-.3-.4-.5-.7-.6s-.7-.2-1.4-.2-1.1,0-1.4,.2c-.4,.1-.6,.3-.8,.6s-.4,.6-.5,1c0,.4-.1,.9-.2,1.6l5.4-.4h0Z" style="fill: #fff;"/>
      <path d="M777.2,492.9h1.2v.6h-2.1c-.3,0-.5-.2-.6-.4-.2-.2-.3-.4-.3-.8s-.1-.8-.1-1.4v-5.3h-1.4v-.6h1.4v-2h.7v2h2.4v.6h-2.4v6.3c0,.2,.1,.4,.2,.6s.2,.2,.4,.3h.6Z" style="fill: #fff;"/>
      <path d="M786.2,488.3v.8l-6.1,.4c0,.6,0,1.2,.2,1.6,0,.4,.3,.8,.5,1,.2,.3,.5,.5,.9,.6s.8,.2,1.5,.2,.9,0,1.4-.1c.5,0,.9-.2,1.3-.4v.7c-.1,0-.3,.1-.5,.2-.2,0-.4,.1-.6,.2-.2,0-.5,0-.7,.1h-.8c-.6,0-1.3,0-1.7-.2-.5-.1-.8-.4-1.2-.7s-.5-.8-.6-1.4-.2-1.3-.2-2.1,0-1.6,.2-2.1,.3-1,.6-1.4,.6-.6,1.2-.7c.4-.1,1.1-.2,1.7-.2s1.3,.1,1.7,.3c.4,.2,.7,.5,.9,.8s.3,.7,.4,1.2,0,.8,0,1.3v-.2Zm-.7,.2v-1.3c0-.4-.2-.7-.3-.9-.2-.3-.4-.5-.7-.6s-.7-.2-1.4-.2-1.1,0-1.4,.2c-.4,.1-.6,.3-.8,.6s-.4,.6-.5,1c0,.4-.1,.9-.2,1.6l5.4-.4h0Z" style="fill: #fff;"/>
      <path d="M791.7,493.7c-.6,0-1.2,0-1.7-.2-.4-.1-.8-.4-1.2-.7s-.5-.8-.6-1.4-.2-1.3-.2-2.1,0-1.6,.2-2.1c.1-.5,.3-1,.6-1.4s.6-.6,1.2-.7c.4-.1,.9-.2,1.7-.2h1.3c.3,0,.7,.1,.9,.2v.7c-.3-.1-.6-.2-1.1-.2h-1.2c-.4,0-.9,0-1.4,.2-.3,.1-.6,.3-.8,.6s-.4,.6-.5,1.2c0,.5-.1,1-.1,1.8s0,1.3,.1,1.8c0,.5,.2,.8,.5,1.2,.2,.3,.5,.5,.8,.6s.8,.2,1.4,.2,.8,0,1.3-.1c.3,0,.7-.2,1.1-.3v.7c-.2,0-.5,.2-.9,.3-.4,0-.8,.1-1.3,.1v-.2Z" style="fill: #fff;"/>
      <path d="M799.7,484.8c.5,0,.9,0,1.4,.2,.3,.1,.6,.3,.8,.5s.3,.5,.4,.8c0,.3,.1,.7,.1,1.2v6h-.7v-6.7c0-.3-.2-.6-.3-.7-.2-.2-.4-.3-.6-.4s-.6-.1-1.1-.1h-.8c-.3,0-.5,.1-.8,.3s-.5,.3-.7,.6-.3,.6-.4,1v6h-.7v-12.1h.7v4.9c0-.3,.2-.5,.4-.7s.4-.4,.7-.5,.5-.2,.8-.3,.6,0,.9,0h-.1Z" style="fill: #fff;"/>
      <path d="M806,493.7c-.2,0-.4,0-.5-.1,0,0-.1-.3-.1-.6s0-.5,.1-.5c0,0,.3-.1,.5-.1s.4,0,.5,.1c0,0,.1,.3,.1,.5s0,.5-.1,.6c0,0-.3,.1-.5,.1Z" style="fill: #fff;"/>
      <path d="M811.9,493.7c-.6,0-1.2,0-1.7-.2-.4-.1-.8-.4-1.2-.7s-.5-.8-.6-1.4-.2-1.3-.2-2.1,0-1.6,.2-2.1c.1-.5,.3-1,.6-1.4s.6-.6,1.2-.7c.4-.1,.9-.2,1.7-.2h1.3c.3,0,.7,.1,.9,.2v.7c-.3-.1-.6-.2-1.1-.2h-1.2c-.4,0-.9,0-1.4,.2-.3,.1-.6,.3-.8,.6s-.4,.6-.5,1.2c0,.5-.1,1-.1,1.8s0,1.3,.1,1.8c0,.5,.2,.8,.5,1.2,.2,.3,.5,.5,.8,.6s.8,.2,1.4,.2,.8,0,1.3-.1c.3,0,.7-.2,1.1-.3v.7c-.2,0-.5,.2-.9,.3-.4,0-.8,.1-1.3,.1v-.2Z" style="fill: #fff;"/>
      <path d="M819.5,493.7c-.6,0-1.3,0-1.7-.2-.4-.1-.8-.4-1.2-.7s-.5-.8-.6-1.4-.2-1.3-.2-2.1,0-1.6,.2-2.1c.1-.5,.3-1,.6-1.4s.6-.6,1.2-.7,1.1-.2,1.7-.2,1.2,0,1.7,.2c.4,.1,.8,.4,1.2,.7s.5,.8,.6,1.4,.2,1.3,.2,2.1,0,1.6-.2,2.1c-.1,.5-.3,1-.6,1.4s-.7,.6-1.2,.7c-.4,.1-1.1,.2-1.7,.2Zm0-.6c.5,0,1.1,0,1.5-.2,.4-.1,.6-.3,.9-.6,.2-.3,.4-.7,.5-1.2s.1-1,.1-1.8,0-1.3-.1-1.8-.2-.8-.5-1.2-.5-.5-.9-.6-.8-.2-1.4-.2-1.1,0-1.4,.2c-.4,.1-.6,.3-.9,.6-.2,.3-.4,.7-.4,1.2s-.1,1-.1,1.8,0,1.3,.1,1.8c0,.5,.2,.8,.4,1.2s.5,.5,.9,.6,.8,.2,1.4,.2h-.1Z" style="fill: #fff;"/>
      <path d="M834.3,484.8c.5,0,.9,0,1.3,.2,.3,.1,.6,.3,.8,.5s.3,.5,.4,.8c0,.3,.1,.7,.1,1.2v6h-.7v-6.7c0-.3-.1-.6-.3-.7-.1-.2-.3-.3-.6-.4-.2,0-.6-.1-.9-.1h-.8c-.3,0-.5,.1-.7,.3-.2,.1-.4,.3-.6,.6-.2,.3-.3,.6-.4,1h0v6h-.7v-6.7c0-.3-.1-.6-.3-.7-.1-.2-.3-.3-.6-.4s-.6-.1-.9-.1h-.8c-.3,0-.5,.1-.7,.3-.2,.1-.4,.3-.6,.6-.2,.2-.3,.6-.4,1v6.1h-.7v-8.6h.7v1.5c0-.3,.2-.5,.4-.7s.4-.3,.6-.5c.2-.1,.5-.2,.7-.3s.6,0,.8,0c.7,0,1.4,.1,1.7,.4,.4,.3,.6,.7,.7,1.3,0-.3,.2-.5,.4-.7s.4-.4,.6-.5,.5-.2,.8-.3,.6,0,.9,0v-.2Z" style="fill: #fff;"/>
    </g>
  </g>
  <g>
    <path d="M27.5,493.9c-.4,0-.6,0-.7,0h0c-.3,0-.6-.1-.9-.2l-1.5-.6c-.3-.1-.6-.4-1.1-.7l-1-.9c-.9-.9-1.6-2.2-2.1-3.9-.4-1.4-.6-3.2-.6-5.3s.3-4.1,1-5.6c.7-2,2.1-3.5,4-4.5,.5-.3,1.3-.5,2.2-.7,.9-.1,4.8-.2,11.8-.2v3.9h-9.3c-1.8,0-3.1,.7-3.9,2.2-.6,1.2-.9,2.7-.9,4.5v2.4c.1,.3,.2,.6,.2,.8h0c0,.4,0,.7,.1,1,.2,1.1,.7,2,1.4,2.7,.7,.7,3.4,1,8,1v-5.3h-5.7v-4h10.1v13.4h-10.9Z" style="fill: #fff; fill-rule: evenodd;"/>
    <path d="M50.2,493.9h-1.8c0,0-.7-.1-.7-.1-.2,0-.3,0-.5,0-.1,0-.2,0-.2,0-.1,0-.2,0-.3,0-2-.6-3.6-1.9-4.7-4-.5-.8-.8-1.8-1-2.8-.2-.9-.4-2-.4-3.1,0-2.1,.2-3.8,.5-5.3,.3-1.5,.8-2.7,1.5-3.8,.8-1.2,1.9-2.1,3.1-2.6,.5-.2,1.2-.4,2.2-.6,.8-.1,4-.2,9.5-.2v3.9h-7.1c-3.2,0-4.9,1.8-4.9,5.3h11.9v3.9h-11.9c0,.9,0,1.7,.2,2.3,0,.3,.1,.7,.3,.9,0,.2,.3,.5,.5,.8l.8,.8c.2,.2,.6,.4,.9,.5,.4,.1,.7,.2,1.1,.2h8.3v4h-7.3Z" style="fill: #fff; fill-rule: evenodd;"/>
    <path d="M69.6,493.9h-1.8c0,0-.7-.1-.7-.1-.2,0-.3,0-.5,0-.1,0-.2,0-.2,0-.1,0-.2,0-.3,0-2-.6-3.6-1.9-4.7-4-.5-.8-.8-1.8-1-2.8-.2-.9-.4-2-.4-3.1,0-2.1,.2-3.8,.5-5.3,.3-1.5,.8-2.7,1.5-3.8,.8-1.2,1.9-2.1,3.1-2.6,.5-.2,1.2-.4,2.2-.6,.8-.1,4-.2,9.5-.2v3.9h-7.1c-3.2,0-4.9,1.8-4.9,5.3h11.9v3.9h-11.9c0,.9,0,1.7,.2,2.3,0,.3,.1,.7,.3,.9,0,.2,.3,.5,.5,.8l.8,.8c.2,.2,.6,.4,.9,.5,.4,.1,.7,.2,1.1,.2h8.3v4h-7.3Z" style="fill: #fff; fill-rule: evenodd;"/>
    <path d="M88.9,493.9h-1.8c0,0-.7-.1-.7-.1-.2,0-.3,0-.5,0-.1,0-.2,0-.2,0-.1,0-.2,0-.3,0-2-.6-3.6-1.9-4.7-4-.5-.8-.8-1.8-1-2.8-.2-.9-.4-2-.4-3.1,0-2.1,.2-3.8,.5-5.3,.3-1.5,.8-2.7,1.5-3.8,.8-1.2,1.9-2.1,3.1-2.6,.5-.2,1.2-.4,2.2-.6,.8-.1,4-.2,9.5-.2v3.9h-7.1c-3.2,0-4.9,1.8-4.9,5.3h11.9v3.9h-11.9c0,.9,0,1.7,.2,2.3,0,.3,.1,.7,.3,.9,0,.2,.3,.5,.5,.8l.8,.8c.2,.2,.6,.4,.9,.5,.4,.1,.7,.2,1.1,.2h8.3v4h-7.3Z" style="fill: #fff; fill-rule: evenodd;"/>
    <polygon points="108.9 475.3 108.9 493.9 104.4 493.9 104.4 475.3 97.8 475.3 97.8 471.3 115.5 471.3 115.5 475.3 108.9 475.3" style="fill: #fff; fill-rule: evenodd;"/>
    <path d="M125.9,493.9h-1.8c0,0-.7-.1-.7-.1-.2,0-.3,0-.5,0-.1,0-.2,0-.2,0-.1,0-.2,0-.3,0-2-.6-3.6-1.9-4.7-4-.5-.8-.8-1.8-1-2.8-.2-.9-.4-2-.4-3.1,0-2.1,.2-3.8,.5-5.3,.3-1.5,.8-2.7,1.5-3.8,.8-1.2,1.9-2.1,3.1-2.6,.5-.2,1.2-.4,2.2-.6,.8-.1,4-.2,9.5-.2v3.9h-7.1c-3.2,0-4.9,1.8-4.9,5.3h11.9v3.9h-11.9c0,.9,0,1.7,.2,2.3,0,.3,.1,.7,.3,.9,0,.2,.3,.5,.5,.8l.8,.8c.2,.2,.6,.4,.9,.5,.4,.1,.7,.2,1.1,.2h8.3v4h-7.3Z" style="fill: #fff; fill-rule: evenodd;"/>
    <path d="M145.2,493.9h-1.8c0,0-.7-.1-.7-.1-.2,0-.3,0-.5,0-.1,0-.2,0-.2,0-.1,0-.2,0-.3,0-2-.6-3.6-1.9-4.7-4-.9-1.8-1.4-3.7-1.4-5.8s.2-3.9,.5-5.3c.3-1.5,.8-2.7,1.5-3.8,.8-1.2,1.9-2.1,3.1-2.6,.7-.3,1.5-.5,2.2-.6,.8-.1,4-.2,9.5-.2v3.9h-7.1c-1.4,0-2.5,.4-3.3,1.3-.6,.7-1.1,1.7-1.4,2.9-.3,1.3-.4,2.6-.4,4s.2,2.8,.5,3.8c.5,1.4,1.3,2.3,2.4,2.6h.5c0,.1,.5,.2,.5,.2h8.3v4h-7.3Z" style="fill: #fff; fill-rule: evenodd;"/>
    <polygon points="167.9 493.9 167.9 484.4 159.9 484.4 159.9 493.9 155.6 493.9 155.6 471.3 159.9 471.3 159.9 480.4 167.9 480.4 167.9 471.3 172.2 471.3 172.2 493.9 167.9 493.9" style="fill: #fff; fill-rule: evenodd;"/>
  </g>
  <rect x="1.4" y="1.4" width="847.6" height="507.4" style="fill: none; stroke: #fff; stroke-miterlimit: 10; stroke-width: .8px;"/>
  <line x1="192.8" y1="482.1" x2="684.9" y2="482.1" style="fill: none; stroke: #fff; stroke-miterlimit: 10; stroke-width: .8px;"/>
  <line x1="1.4" y1="455.4" x2="684.9" y2="455.4" style="fill: none; stroke: #fff; stroke-miterlimit: 10; stroke-width: .8px;"/>
  <line x1="1.4" y1="428.7" x2="849" y2="428.7" style="fill: none; stroke: #fff; stroke-miterlimit: 10; stroke-width: .8px;"/>
  <line x1="1.4" y1="402" x2="849" y2="402" style="fill: none; stroke: #fff; stroke-miterlimit: 10; stroke-width: .8px;"/>
  <line x1="1.4" y1="375.3" x2="849" y2="375.3" style="fill: none; stroke: #fff; stroke-miterlimit: 10; stroke-width: .8px;"/>
  <line x1="1.4" y1="348.6" x2="849" y2="348.6" style="fill: none; stroke: #fff; stroke-miterlimit: 10; stroke-width: .8px;"/>
  <line x1="1.4" y1="321.9" x2="849" y2="321.9" style="fill: none; stroke: #fff; stroke-miterlimit: 10; stroke-width: .8px;"/>
  <line x1="1.4" y1="295.2" x2="849" y2="295.2" style="fill: none; stroke: #fff; stroke-miterlimit: 10; stroke-width: .8px;"/>
  <line x1="1.4" y1="268.5" x2="849" y2="268.5" style="fill: none; stroke: #fff; stroke-miterlimit: 10; stroke-width: .8px;"/>
  <line x1="1.4" y1="241.8" x2="849" y2="241.8" style="fill: none; stroke: #fff; stroke-miterlimit: 10; stroke-width: .8px;"/>
  <line x1="1.4" y1="215.1" x2="849" y2="215.1" style="fill: none; stroke: #fff; stroke-miterlimit: 10; stroke-width: .8px;"/>
  <line x1="1.4" y1="188.4" x2="849" y2="188.4" style="fill: none; stroke: #fff; stroke-miterlimit: 10; stroke-width: .8px;"/>
  <line x1="1.4" y1="161.6" x2="849" y2="161.6" style="fill: none; stroke: #fff; stroke-miterlimit: 10; stroke-width: .8px;"/>
  <line x1="1.4" y1="134.9" x2="849" y2="134.9" style="fill: none; stroke: #fff; stroke-miterlimit: 10; stroke-width: .8px;"/>
  <line x1="1.4" y1="108.2" x2="849" y2="108.2" style="fill: none; stroke: #fff; stroke-miterlimit: 10; stroke-width: .8px;"/>
  <line x1="1.4" y1="81.5" x2="849" y2="81.5" style="fill: none; stroke: #fff; stroke-miterlimit: 10; stroke-width: .8px;"/>
  <line x1="1.4" y1="54.8" x2="849" y2="54.8" style="fill: none; stroke: #fff; stroke-miterlimit: 10; stroke-width: .8px;"/>
  <line x1="1.4" y1="28.1" x2="849" y2="28.1" style="fill: none; stroke: #fff; stroke-miterlimit: 10; stroke-width: .8px;"/>
  <line x1="821.6" y1="1.4" x2="821.6" y2="428.7" style="fill: none; stroke: #fff; stroke-miterlimit: 10; stroke-width: .8px;"/>
  <line x1="794.3" y1="1.4" x2="794.3" y2="428.7" style="fill: none; stroke: #fff; stroke-miterlimit: 10; stroke-width: .8px;"/>
  <line x1="767" y1="1.4" x2="767" y2="428.7" style="fill: none; stroke: #fff; stroke-miterlimit: 10; stroke-width: .8px;"/>
  <line x1="739.6" y1="1.4" x2="739.6" y2="428.7" style="fill: none; stroke: #fff; stroke-miterlimit: 10; stroke-width: .8px;"/>
  <line x1="712.3" y1="1.4" x2="712.3" y2="428.7" style="fill: none; stroke: #fff; stroke-miterlimit: 10; stroke-width: .8px;"/>
  <line x1="684.9" y1="1.4" x2="684.9" y2="508.8" style="fill: none; stroke: #fff; stroke-miterlimit: 10; stroke-width: .8px;"/>
  <line x1="657.6" y1="1.4" x2="657.6" y2="508.8" style="fill: none; stroke: #fff; stroke-miterlimit: 10; stroke-width: .8px;"/>
  <line x1="630.3" y1="1.4" x2="630.3" y2="508.8" style="fill: none; stroke: #fff; stroke-miterlimit: 10; stroke-width: .8px;"/>
  <line x1="602.9" y1="1.4" x2="602.9" y2="508.8" style="fill: none; stroke: #fff; stroke-miterlimit: 10; stroke-width: .8px;"/>
  <line x1="575.6" y1="1.4" x2="575.6" y2="508.8" style="fill: none; stroke: #fff; stroke-miterlimit: 10; stroke-width: .8px;"/>
  <line x1="548.2" y1="1.4" x2="548.2" y2="508.8" style="fill: none; stroke: #fff; stroke-miterlimit: 10; stroke-width: .8px;"/>
  <line x1="520.9" y1="1.4" x2="520.9" y2="508.8" style="fill: none; stroke: #fff; stroke-miterlimit: 10; stroke-width: .8px;"/>
  <line x1="493.5" y1="1.4" x2="493.5" y2="508.8" style="fill: none; stroke: #fff; stroke-miterlimit: 10; stroke-width: .8px;"/>
  <line x1="466.2" y1="1.4" x2="466.2" y2="508.8" style="fill: none; stroke: #fff; stroke-miterlimit: 10; stroke-width: .8px;"/>
  <line x1="438.9" y1="1.4" x2="438.9" y2="508.8" style="fill: none; stroke: #fff; stroke-miterlimit: 10; stroke-width: .8px;"/>
  <line x1="411.5" y1="1.4" x2="411.5" y2="508.8" style="fill: none; stroke: #fff; stroke-miterlimit: 10; stroke-width: .8px;"/>
  <line x1="384.2" y1="1.4" x2="384.2" y2="508.8" style="fill: none; stroke: #fff; stroke-miterlimit: 10; stroke-width: .8px;"/>
  <line x1="356.8" y1="1.4" x2="356.8" y2="508.8" style="fill: none; stroke: #fff; stroke-miterlimit: 10; stroke-width: .8px;"/>
  <line x1="329.5" y1="1.4" x2="329.5" y2="508.8" style="fill: none; stroke: #fff; stroke-miterlimit: 10; stroke-width: .8px;"/>
  <line x1="302.2" y1="1.4" x2="302.2" y2="508.8" style="fill: none; stroke: #fff; stroke-miterlimit: 10; stroke-width: .8px;"/>
  <line x1="274.8" y1="1.4" x2="274.8" y2="508.8" style="fill: none; stroke: #fff; stroke-miterlimit: 10; stroke-width: .8px;"/>
  <line x1="247.5" y1="1.4" x2="247.5" y2="508.8" style="fill: none; stroke: #fff; stroke-miterlimit: 10; stroke-width: .8px;"/>
  <line x1="220.1" y1="1.4" x2="220.1" y2="508.8" style="fill: none; stroke: #fff; stroke-miterlimit: 10; stroke-width: .8px;"/>
  <line x1="192.8" y1="1.4" x2="192.8" y2="508.8" style="fill: none; stroke: #fff; stroke-miterlimit: 10; stroke-width: .8px;"/>
  <line x1="165.5" y1="1.4" x2="165.5" y2="455.4" style="fill: none; stroke: #fff; stroke-miterlimit: 10; stroke-width: .8px;"/>
  <line x1="138.1" y1="1.4" x2="138.1" y2="455.4" style="fill: none; stroke: #fff; stroke-miterlimit: 10; stroke-width: .8px;"/>
  <line x1="110.8" y1="1.4" x2="110.8" y2="455.4" style="fill: none; stroke: #fff; stroke-miterlimit: 10; stroke-width: .8px;"/>
  <line x1="83.4" y1="1.4" x2="83.4" y2="455.4" style="fill: none; stroke: #fff; stroke-miterlimit: 10; stroke-width: .8px;"/>
  <line x1="56.1" y1="1.4" x2="56.1" y2="455.4" style="fill: none; stroke: #fff; stroke-miterlimit: 10; stroke-width: .8px;"/>
  <line x1="28.8" y1="1.4" x2="28.8" y2="455.4" style="fill: none; stroke: #fff; stroke-miterlimit: 10; stroke-width: .8px;"/>
</svg>