<?xml version="1.0" encoding="UTF-8" standalone="no"?>
<!-- Created with Inkscape (http://www.inkscape.org/) -->

<svg
   width="100mm"
   height="110mm"
   viewBox="0 0 100 110"
   version="1.1"
   id="svg5"
   inkscape:version="1.2.1 (9c6d41e410, 2022-07-14)"
   sodipodi:docname="mycusini2.0_printbed.svg"
   xmlns:inkscape="http://www.inkscape.org/namespaces/inkscape"
   xmlns:sodipodi="http://sodipodi.sourceforge.net/DTD/sodipodi-0.dtd"
   xmlns="http://www.w3.org/2000/svg"
   xmlns:svg="http://www.w3.org/2000/svg">
  <sodipodi:namedview
     id="namedview7"
     pagecolor="#ffffff"
     bordercolor="#666666"
     borderopacity="1.0"
     inkscape:pageshadow="2"
     inkscape:pageopacity="0"
     inkscape:pagecheckerboard="true"
     inkscape:document-units="mm"
     showgrid="false"
     inkscape:snap-to-guides="false"
     inkscape:snap-grids="false"
     inkscape:snap-global="true"
     inkscape:zoom="8.7988368"
     inkscape:cx="285.77641"
     inkscape:cy="344.70465"
     inkscape:window-width="3840"
     inkscape:window-height="2080"
     inkscape:window-x="-11"
     inkscape:window-y="-11"
     inkscape:window-maximized="1"
     inkscape:current-layer="layer1"
     inkscape:showpageshadow="2"
     inkscape:deskcolor="#d1d1d1" />
  <defs
     id="defs2">
    <marker
       style="overflow:visible"
       id="Arrow1Lstart"
       refX="0.0"
       refY="0.0"
       orient="auto"
       inkscape:stockid="Arrow1Lstart"
       inkscape:isstock="true">
      <path
         transform="scale(0.8) translate(12.5,0)"
         style="fill-rule:evenodd;fill:context-stroke;stroke:context-stroke;stroke-width:1.0pt"
         d="M 0.0,0.0 L 5.0,-5.0 L -12.5,0.0 L 5.0,5.0 L 0.0,0.0 z "
         id="path2735" />
    </marker>
  </defs>
  <g
     inkscape:label="Layer 1"
     inkscape:groupmode="layer"
     id="layer1"
     transform="translate(-17.350515,-57.494846)">
    <rect
       style="display:inline;fill:#ffffff;fill-opacity:0.5;stroke:none;stroke-width:2.83606;stroke-linejoin:round;stroke-dasharray:none"
       id="rect6619"
       width="100"
       height="110"
       x="17.350515"
       y="57.494846" />
    <path
       id="rect1815"
       style="display:inline;fill:#323232;fill-opacity:1;stroke:none;stroke-width:3.58768;stroke-linejoin:round;stroke-dasharray:none"
       d="M 17.350515,57.494846 V 167.49485 H 117.35061 V 57.494846 Z m 4.88859,2.999817 h 90.222405 c 1.04636,0 1.88877,0.842404 1.88877,1.888773 V 162.60626 c 0,1.04637 -0.84241,1.88877 -1.88877,1.88877 H 22.239105 c -1.046369,0 -1.888773,-0.8424 -1.888773,-1.88877 V 62.383436 c 0,-1.046369 0.842404,-1.888773 1.888773,-1.888773 z" />
    <rect
       style="display:inline;fill:#323232;fill-opacity:1;fill-rule:evenodd;stroke:none;stroke-width:0.025227"
       id="rect31"
       width="100"
       height="1"
       x="17.350515"
       y="-112.99484"
       transform="scale(1,-1)" />
    <rect
       style="fill:#323232;fill-opacity:1;fill-rule:evenodd;stroke:none;stroke-width:0.0264583"
       id="rect31-1"
       width="1"
       height="110"
       x="66.850517"
       y="-167.49484"
       transform="scale(1,-1)" />
    <rect
       style="fill:#323232;fill-opacity:1;fill-rule:evenodd;stroke:none;stroke-width:0.0229831"
       id="rect31-1-6"
       width="1"
       height="83"
       x="91.850517"
       y="-140.49481"
       transform="scale(1,-1)" />
    <rect
       style="fill:#323232;fill-opacity:1;fill-rule:evenodd;stroke:none;stroke-width:0.0264583"
       id="rect31-1-4"
       width="1"
       height="110"
       x="41.850513"
       y="-167.49484"
       transform="scale(1,-1)" />
    <rect
       style="fill:#323232;fill-opacity:1;fill-rule:evenodd;stroke:none;stroke-width:0.025227"
       id="rect31-5"
       width="100"
       height="1"
       x="17.350515"
       y="-140.49484"
       transform="scale(1,-1)" />
    <rect
       style="fill:#323232;fill-opacity:1;fill-rule:evenodd;stroke:none;stroke-width:0.025227"
       id="rect31-8"
       width="100"
       height="1"
       x="17.350515"
       y="-85.494843"
       transform="scale(1,-1)" />
    <g
       transform="matrix(0.01004114,0,0,-0.01004115,77.288332,160.09414)"
       fill="#000000"
       stroke="none"
       id="g1873"
       style="fill:#323232;fill-opacity:1">
      <path
         d="m 1593,1049 c -25,-6 -58,-24 -78,-43 -21,-20 -50,-36 -71,-39 -83,-14 -127,-72 -121,-160 3,-46 9,-63 32,-87 16,-17 44,-35 61,-42 30,-11 33,-16 36,-57 3,-51 29,-68 53,-34 12,16 29,18 143,18 113,0 133,-2 151,-19 30,-28 53,-6 49,47 -3,37 -1,41 26,48 34,9 72,43 92,81 44,85 -22,203 -119,212 -23,2 -49,13 -65,28 -51,48 -115,64 -189,47 z m 128,-65 c 33,-17 57,-53 67,-101 6,-29 13,-39 31,-41 22,-3 23,-1 19,37 -2,29 0,41 10,41 25,0 61,-32 72,-65 21,-63 -22,-118 -100,-127 -21,-3 -25,-9 -28,-40 -3,-36 -3,-37 -40,-30 -48,9 -166,9 -214,0 -38,-7 -38,-7 -38,28 0,29 -3,34 -25,34 -58,0 -105,47 -105,104 0,29 41,81 69,89 18,4 20,0 18,-32 -2,-32 1,-36 23,-36 20,0 26,6 30,35 8,47 24,75 57,98 48,34 96,36 154,6 z"
         id="path1855"
         style="fill:#323232;fill-opacity:1" />
      <path
         d="M 107,536 C 24,506 9,474 7,317 5,197 5,195 28,192 c 12,-2 22,0 22,5 4,210 6,229 23,255 37,54 123,60 168,12 22,-23 24,-37 29,-147 4,-109 7,-122 24,-125 30,-6 36,16 36,134 0,110 0,110 31,140 42,40 106,41 146,1 27,-26 28,-32 33,-150 4,-109 7,-122 24,-125 29,-6 36,16 36,113 0,116 -11,155 -59,198 -63,57 -155,58 -216,1 l -27,-25 -27,26 c -26,24 -79,46 -111,45 -8,-1 -32,-7 -53,-14 z"
         id="path1857"
         style="fill:#323232;fill-opacity:1" />
      <path
         d="m 674,536 c -3,-8 -4,-67 -2,-130 3,-123 11,-145 70,-189 39,-29 114,-33 161,-9 l 37,20 V 173 C 940,124 936,114 906,84 865,43 809,37 766,71 737,94 707,90 712,64 718,30 766,7 828,7 c 64,0 104,18 137,61 18,25 20,45 23,246 2,120 -1,223 -6,228 -5,5 -16,6 -25,2 -15,-5 -17,-23 -17,-121 V 308 l -34,-34 c -27,-27 -42,-34 -73,-34 -83,0 -106,40 -113,190 -4,99 -7,115 -23,118 -9,2 -20,-3 -23,-12 z"
         id="path1859"
         style="fill:#323232;fill-opacity:1" />
      <path
         d="m 1177,535 c -76,-27 -117,-84 -117,-165 0,-102 59,-170 155,-178 30,-2 65,-2 79,2 35,9 86,54 86,77 0,24 -32,25 -51,2 -23,-26 -78,-45 -112,-37 -46,10 -73,31 -91,69 -32,66 -12,139 47,175 49,30 99,26 142,-11 57,-50 93,-16 38,36 -47,43 -110,54 -176,30 z"
         id="path1861"
         style="fill:#323232;fill-opacity:1" />
      <path
         d="m 1994,540 c -31,-12 -64,-59 -64,-90 0,-46 34,-78 110,-101 78,-23 95,-38 86,-73 -12,-47 -99,-53 -162,-11 -23,15 -28,15 -41,2 -49,-48 130,-102 207,-62 36,19 50,43 50,90 0,47 -31,75 -107,99 -88,28 -112,56 -75,89 23,21 72,22 119,2 31,-13 39,-13 51,-2 38,39 -104,85 -174,57 z"
         id="path1863"
         style="fill:#323232;fill-opacity:1" />
      <path
         d="m 2321,541 c -8,-5 -11,-55 -9,-177 3,-161 4,-169 23,-169 19,0 20,8 23,171 2,138 0,173 -11,177 -8,3 -19,2 -26,-2 z"
         id="path1865"
         style="fill:#323232;fill-opacity:1" />
      <path
         d="m 2590,528 c -77,-40 -85,-60 -85,-206 0,-120 1,-127 20,-127 19,0 20,8 25,115 3,66 10,125 18,137 15,26 61,53 92,53 31,0 77,-27 92,-53 8,-12 15,-71 18,-137 5,-107 6,-115 25,-115 19,0 20,8 23,121 2,111 1,123 -20,155 -25,37 -98,79 -138,79 -14,0 -46,-10 -70,-22 z"
         id="path1867"
         style="fill:#323232;fill-opacity:1" />
      <path
         d="m 1490,417 c 0,-112 2,-127 23,-157 64,-95 200,-93 271,3 19,25 21,42 21,150 0,119 -1,122 -22,125 -23,3 -23,1 -23,-98 0,-110 -13,-157 -51,-184 -46,-32 -134,-14 -155,32 -5,9 -11,69 -14,132 -5,110 -6,115 -27,118 -23,3 -23,2 -23,-121 z"
         id="path1869"
         style="fill:#323232;fill-opacity:1" />
      <path
         d="m 2952,368 c 3,-163 4,-173 22,-173 19,0 20,9 20,170 0,168 -1,170 -22,173 l -22,3 z"
         id="path1871"
         style="fill:#323232;fill-opacity:1" />
    </g>
  </g>
</svg>
