<svg id="Capa_1" data-name="Capa 1" xmlns="http://www.w3.org/2000/svg" viewBox="0 0 708.66 708.66"><rect width="708.66" height="708.66" rx="11.02" style="fill:#060707"/><polygon points="649.54 635.04 649.54 635.12 649.5 635.12 649.54 635.04" style="fill:#fff"/><path d="M653.19,612h-7.92v.88H621.56V612h-7.89l-2.25,3.91,4.35,7.61.77-.45,5.21,9,2.68,4.65,2.59,4.5-.77.44,4.86,8.44h4.54l4.86-8.44-.77-.44,2.58-4.5,2.69-4.65,5.2-9,.78.45,4.4-7.61Zm-4.46,10.21.77.44-5.44,9.46-2.67,4.64-2.34,4-.77-.44-4.12,7.08H632.7l-4.08-7.09-.77.44-2.34-4-2.69-4.64-5.43-9.46.77-.44-3.65-6.3.73-1.25h6.34v-.9h23.69v.89h6.35l.71,1.25Z" style="fill:#fff"/><path d="M659,614.44l-2.75-4.77a3,3,0,0,0-2.56-1.47H613.19a2.92,2.92,0,0,0-2.54,1.47l-2.76,4.77a3,3,0,0,0,0,2.94l20.24,35.06a3,3,0,0,0,2.55,1.47h5.5a3,3,0,0,0,2.57-1.47L659,617.38A3,3,0,0,0,659,614.44Zm-1.17,2.27-11.53,20h0l-8.7,15a1.6,1.6,0,0,1-1.39.8h-5.5a1.6,1.6,0,0,1-1.39-.8l-20.24-35.05a1.65,1.65,0,0,1,0-1.61l2.76-4.76a1.61,1.61,0,0,1,1.38-.8h40.48a1.63,1.63,0,0,1,1.39.8l2.75,4.76a1.62,1.62,0,0,1,0,1.66Z" style="fill:#fff"/><polygon points="642.06 632.7 640.07 636.16 626.79 636.16 624.79 632.7 642.06 632.7" style="fill:#fff"/><path d="M628.15,616.28a11.76,11.76,0,0,0-1.22,1.76,6.29,6.29,0,0,0-.75,1.91,3.61,3.61,0,0,0,.12,1.9,4.3,4.3,0,0,0,1.14,1.53l.82.77a4.33,4.33,0,0,1,.69,1,3.52,3.52,0,0,1,.42,2.31,5.79,5.79,0,0,1-2.45,3.64,6.85,6.85,0,0,0,1.74-3.71,2.93,2.93,0,0,0-.46-1.82,4,4,0,0,0-.58-.77l-.77-.71a4.73,4.73,0,0,1-1.36-1.92,4.09,4.09,0,0,1,0-2.35A7,7,0,0,1,628.15,616.28Z" style="fill:#fff"/><path d="M634.2,616.28A11.74,11.74,0,0,0,633,618.1a6,6,0,0,0-.75,1.91,3.57,3.57,0,0,0,.12,1.89,4,4,0,0,0,1.15,1.53l.8.77a4.37,4.37,0,0,1,.7,1,3.53,3.53,0,0,1,.41,2.32,5.85,5.85,0,0,1-2.43,3.64,7,7,0,0,0,1.74-3.72,3,3,0,0,0-.47-1.82,4.37,4.37,0,0,0-.59-.77l-.76-.7a4.69,4.69,0,0,1-1.36-1.93,4.09,4.09,0,0,1,0-2.35A7.11,7.11,0,0,1,634.2,616.28Z" style="fill:#fff"/><path d="M640.26,616.28A11.76,11.76,0,0,0,639,618a6.56,6.56,0,0,0-.75,1.91,3.61,3.61,0,0,0,.12,1.9,4.13,4.13,0,0,0,1.15,1.53l.82.77a5,5,0,0,1,.68,1,3.44,3.44,0,0,1,.43,2.31,5.82,5.82,0,0,1-2.45,3.64,6.85,6.85,0,0,0,1.74-3.71,3.06,3.06,0,0,0-.46-1.82,4,4,0,0,0-.58-.77l-.78-.71a4.73,4.73,0,0,1-1.35-1.92,3.93,3.93,0,0,1,0-2.35A6.94,6.94,0,0,1,640.26,616.28Z" style="fill:#fff"/><path d="M606.14,664.65v2.47h-.83v-5.55h2.45c1.36,0,1.93.52,1.93,1.53s-.58,1.58-1.92,1.58Zm0-2.38v1.66H608c.58,0,1-.29,1-.86s-.38-.8-.94-.8Z" style="fill:#fff"/><path d="M613.26,664.92H612v2.18h-.88v-5.53h2.45a2.11,2.11,0,0,1,1.54.52,1.6,1.6,0,0,1,.44,1.17h0a1.68,1.68,0,0,1-1.34,1.66l1.42,2.18H614.5Zm.15-2.6H612v2h1.48c.71,0,1.18-.38,1.18-1h0C614.61,662.66,614.1,662.32,613.41,662.32Z" style="fill:#fff"/><path d="M617.77,663.93h2.67v.72h-2.67v1.75H621v.73h-4.09v-5.56H621v.73h-3.26Z" style="fill:#fff"/><path d="M622.82,666.31a2.84,2.84,0,0,1,0-4,2.72,2.72,0,0,1,2-.8,3.21,3.21,0,0,1,1.94.62l-.56.6a2.41,2.41,0,0,0-1.38-.42,1.94,1.94,0,0,0-1.44.56,2.1,2.1,0,0,0,0,2.86,2,2,0,0,0,1.44.55,2.3,2.3,0,0,0,1.37-.41l.56.6a3.21,3.21,0,0,1-1.94.62A2.76,2.76,0,0,1,622.82,666.31Z" style="fill:#fff"/><path d="M631.94,665.65h-2.66l-.66,1.47h-.74l2.36-5.55h.89l2.35,5.55h-.83Zm-2.44-.72h2.17l-1.09-2.78Z" style="fill:#fff"/><path d="M636.82,667.12a2.52,2.52,0,0,1-1.74-.59,1.81,1.81,0,0,1-.67-1.4v-3.56h.82v3.26a1.33,1.33,0,0,0,.47,1.09,1.68,1.68,0,0,0,1.09.37,1.79,1.79,0,0,0,1.09-.37,1.4,1.4,0,0,0,.47-1.09v-3.26h.81v3.59a1.8,1.8,0,0,1-.67,1.4A2.52,2.52,0,0,1,636.82,667.12Z" style="fill:#fff"/><path d="M641.4,666.31a2.86,2.86,0,0,1,0-4,2.74,2.74,0,0,1,2-.8,3.15,3.15,0,0,1,1.92.62l-.54.6a2.44,2.44,0,0,0-1.38-.42,2.09,2.09,0,0,0-1.46.56,2.19,2.19,0,0,0,0,2.86,2,2,0,0,0,1.45.55,2.3,2.3,0,0,0,1.37-.41l.54.6a3.09,3.09,0,0,1-1.92.62A2.75,2.75,0,0,1,641.4,666.31Z" style="fill:#fff"/><path d="M646.69,661.57h.82v5.58h-.82Z" style="fill:#fff"/><path d="M651.65,667.12a2.68,2.68,0,0,1-2-.8,2.8,2.8,0,0,1,0-3.91,2.93,2.93,0,0,1,4,0,2.8,2.8,0,0,1,0,3.91A2.72,2.72,0,0,1,651.65,667.12Zm0-4.79a1.91,1.91,0,0,0-1.44.6,2.19,2.19,0,0,0,0,2.88,2,2,0,0,0,2.87,0,2.08,2.08,0,0,0,.55-1.44,2,2,0,0,0-.55-1.44,1.87,1.87,0,0,0-1.43-.6Zm.21-1.27.64-1,.64.28-.77.71Z" style="fill:#fff"/><path d="M656.61,663.15v4h-.82v-5.55h.13l4,4v-4h.82v5.58h-.16Z" style="fill:#fff"/><path d="M597.58,677.54a2.68,2.68,0,0,1-.81-2,2.76,2.76,0,0,1,2.74-2.78h.07a3.14,3.14,0,0,1,1.94.62l-.54.6a2.48,2.48,0,0,0-1.36-.45,2,2,0,0,0-1.45.55,1.93,1.93,0,0,0-.55,1.42,1.9,1.9,0,0,0,1.8,2h.21a2.51,2.51,0,0,0,1.38-.41l.54.59a3.07,3.07,0,0,1-1.93.62A2.75,2.75,0,0,1,597.58,677.54Z" style="fill:#fff"/><path d="M606.69,676.87H604l-.65,1.46h-.81l2.36-5.53h.89l2.36,5.53h-.82Zm-2.44-.72h2.17l-1.09-2.78Z" style="fill:#fff"/><path d="M614.26,674.62l-2,2.17-2-2.17v3.76h-.8V672.8h.12l2.66,3,2.67-3h.12v5.58h-.8Z" style="fill:#fff"/><path d="M620.55,676.87h-2.67l-.65,1.46h-.8l2.35-5.53h.9l2.35,5.53h-.83Zm-2.45-.72h2.23l-1.08-2.78Z" style="fill:#fff"/><path d="M627.55,677.54a2.72,2.72,0,0,1-.8-2,2.69,2.69,0,0,1,.81-2,2.72,2.72,0,0,1,2-.8,3.23,3.23,0,0,1,1.94.62l-.56.6a2.41,2.41,0,0,0-1.38-.42,2,2,0,0,0-1.45.56,2.18,2.18,0,0,0,0,2.87,2,2,0,0,0,1.44.54,2.36,2.36,0,0,0,1.37-.4l.56.58a3.08,3.08,0,0,1-1.94.62A2.79,2.79,0,0,1,627.55,677.54Z" style="fill:#fff"/><path d="M636.67,676.87H634l-.65,1.46h-.8l2.36-5.53h.89l2.35,5.53h-.83Zm-2.44-.72h2.17l-1.09-2.78Z" style="fill:#fff"/><path d="M639.48,672.76h.82v4.85h3.26v.72h-4.07Z" style="fill:#fff"/><path d="M644.91,672.76h.82v5.57h-.82Z" style="fill:#fff"/><path d="M648.1,675.15h2.67v.72H648.1v1.74h3.26v.72h-4.09v-5.56h4.09v.76H648.1Z" style="fill:#fff"/><path d="M653.53,674.37v4h-.82v-5.57h.17l4,4v-4h.82v5.57h-.17Z" style="fill:#fff"/><path d="M661.87,678.33h-.81v-4.8h-2v-.73h4.83v.73h-2Z" style="fill:#fff"/><path d="M666.06,675.15h2.68v.72h-2.68v1.74h3.26v.72h-4.08v-5.56h4.09v.76h-3.26Z" style="fill:#fff"/><path d="M292.9,678.33l-1.88-7-1.89,7h-1.25l-2.1-8H287l1.67,6.61,1.72-6.61h1.3l1.68,6.63,1.66-6.63h1.22l-2.07,7.91Z" style="fill:#fff"/><path d="M305.3,678.33l-1.89-7-1.88,7h-1.26l-2.09-8h1.22l1.66,6.61,1.73-6.61h1.31l1.66,6.63,1.66-6.63h1.22l-2.09,8Z" style="fill:#fff"/><path d="M317.69,678.33l-1.88-7-1.89,7h-1.26l-2.1-8h1.22l1.68,6.61,1.71-6.61h1.31l1.67,6.63,1.66-6.63H321l-2.09,8Z" style="fill:#fff"/><path d="M323,677.59a.8.8,0,0,1,.74-.86.8.8,0,0,1,.13,1.6h-.08a.72.72,0,0,1-.79-.63Z" style="fill:#fff"/><path d="M331.14,678.33h-1.09v-6.92h-2.87v-1h6.89v1h-2.93Z" style="fill:#fff"/><path d="M339.11,675.2h-1.87v3.13H336v-7.91h3.5a3,3,0,0,1,2.17.74,2.16,2.16,0,0,1,.62,1.67h0a2.4,2.4,0,0,1-1.9,2.38l2,3.1H340.8Zm.21-3.71h-2.08v2.89h2.12c1,0,1.67-.55,1.67-1.44h0C341,671.94,340.3,671.49,339.32,671.49Z" style="fill:#fff"/><path d="M344.37,670.37h1.16v8h-1.16Z" style="fill:#fff"/><path d="M354.54,673l-2.82,3.14L348.89,673v5.38h-1.15v-8h.16l3.82,4.35,3.82-4.35h.16v8h-1.15Z" style="fill:#fff"/><path d="M363.52,676.24h-3.8l-.94,2.09h-1.14l3.36-7.91h1.28l3.36,7.91h-1.17Zm-3.49-1h3.19l-1.65-4Z" style="fill:#fff"/><path d="M372.38,678.33l-3.69-4v4h-1.17v-8h1.17v3.78l3.26-3.78h1.21L370,674.07l3.84,4.26Z" style="fill:#fff"/><path d="M377,673.78h3.82v1H377v2.5h4.66v1h-5.84v-8h5.85v1H377Z" style="fill:#fff"/><path d="M386.73,675.2h-1.87v3.13H383.6v-7.91h3.49a3,3,0,0,1,2.17.74,2.25,2.25,0,0,1,.62,1.67h0a2.42,2.42,0,0,1-1.91,2.38l2,3.1h-1.59Zm.21-3.71h-2.08v2.89H387c1,0,1.67-.55,1.67-1.44h0c0-1-.72-1.45-1.71-1.45Z" style="fill:#fff"/><path d="M392,677.59a.79.79,0,1,1,.85.74h-.06a.72.72,0,0,1-.79-.63Z" style="fill:#fff"/><path d="M397.31,677.19a4.06,4.06,0,0,1,0-5.67,3.91,3.91,0,0,1,2.86-1.09,4.48,4.48,0,0,1,2.76.88l-.78.85a3.54,3.54,0,0,0-2-.59,2.78,2.78,0,0,0-2.06.8,2.74,2.74,0,0,0-.8,2,2.85,2.85,0,0,0,.81,2.07,2.79,2.79,0,0,0,2.06.79,3.44,3.44,0,0,0,2-.58l.78.84a4.35,4.35,0,0,1-2.76.89A3.92,3.92,0,0,1,397.31,677.19Z" style="fill:#fff"/><path d="M408.23,678.33a4,4,0,1,1,2.88-1.19A3.92,3.92,0,0,1,408.23,678.33Zm0-6.92a2.7,2.7,0,0,0-2.05.85,3.19,3.19,0,0,0,0,4.18,2.87,2.87,0,0,0,4.06,0l0,0a3.17,3.17,0,0,0,0-4.18,2.68,2.68,0,0,0-2.06-.85Z" style="fill:#fff"/><path d="M420.94,673l-2.82,3.14L415.29,673v5.38h-1.15v-8h.16l3.82,4.35,3.82-4.35h.17v8H421Z" style="fill:#fff"/><polygon points="351.79 241.13 311.23 319.45 351.79 290.18 351.79 241.13" style="fill:#fff"/><polygon points="357.19 290.18 397.76 319.45 357.19 241.13 357.19 290.18" style="fill:#fff"/><polygon points="314.07 325.02 394.64 325.02 354.63 295.25 314.07 325.02" style="fill:#fff"/><polygon points="355.85 351.68 353.14 351.68 353.14 357.72 346.75 357.72 346.75 360.36 353.14 360.36 353.14 366.39 355.85 366.39 355.85 360.36 362.24 360.36 362.24 357.72 355.85 357.72 355.85 351.68" style="fill:#fff"/><polygon points="295.81 247.71 293.11 247.71 293.11 253.74 286.72 253.74 286.72 256.38 293.11 256.38 293.11 262.4 295.81 262.4 295.81 256.38 302.2 256.38 302.2 253.74 295.81 253.74 295.81 247.71" style="fill:#fff"/><polygon points="415.54 253.86 415.54 247.84 412.83 247.84 412.83 253.86 406.45 253.86 406.45 256.5 412.83 256.5 412.83 262.53 415.54 262.53 415.54 256.5 421.93 256.5 421.93 253.86 415.54 253.86" style="fill:#fff"/><path d="M214.76,432.5V414.13H223v-9.21h-8.31V391.68l-10.26,5.07-.09,8.17h-5.32v9.3h5.36v19.63c0,8.87,6.25,9.63,7,9.71,7.05,1,11-1.69,11-1.69l1.09-9.21C214.59,437.14,214.76,432.5,214.76,432.5Z" style="fill:#fff"/><path d="M244.8,406.89v-2.1H234.4v39.07h10.33V420.69s-.13-5.57,4.75-6.33a10.61,10.61,0,0,1,8.29,2.41l1.46-9.78S251.54,402.14,244.8,406.89Z" style="fill:#fff"/><rect x="269.1" y="404.84" width="10.39" height="39.01" style="fill:#fff"/><path d="M274.34,389.64a5.92,5.92,0,1,0,5.91,5.91,5.92,5.92,0,0,0-5.91-5.91Z" style="fill:#fff"/><path d="M331.44,406c-8.1,0-10.95,5.16-10.95,5.16s-2.6-5.1-9.88-5.1c-6.79,0-9,3.56-9.25,4.06v-3.26h-7.69v36.95h7.69V420.38c0-1.77,1.62-7.32,7.15-7.27,6.9,0,6.81,7.43,6.81,7.43l.06,23.32h7.68v-23c0-2.84,2-7.77,7.45-7.75,6.09,0,6.52,6.14,6.52,6.14v24.58h7.69L344.51,418C344.18,410.64,339.54,406,331.44,406Z" style="fill:#fff"/><path d="M359.25,408.91l2.17,6.14a17.55,17.55,0,0,1,11.14-3.26c7.07.16,7.38,4,7.51,6.85h0v3.1a14,14,0,0,0-8.71-2.56c-9.54,0-14.67,5.52-14.67,12.33s4.25,12,12.35,12.31a15.46,15.46,0,0,0,11-3.79v3.83h7V418.92h0s.68-6.25-3.55-10.57S368.68,403,359.25,408.91Zm20.8,24.19a10.27,10.27,0,0,1-8,4.22c-6.14,0-8.18-2.6-8.18-5.82s2.48-7.11,9.66-6.52c3.09.26,5.28.91,6.52,2.17Z" style="fill:#fff"/><polygon points="428.53 406.87 419.28 406.87 408.43 418.4 408.43 391.66 400.92 395 400.92 443.85 408.43 443.85 408.43 427.17 413.25 422.52 424.22 443.86 432.44 443.86 418.56 417.03 428.53 406.87" style="fill:#fff"/><path d="M458.89,404.79c-9,0-16.3,7.12-16.25,19.64,0,10.71,5.43,19.36,16.25,19.38,6.28,0,10.47-2.06,13-5.54l-4.85-5c-1.34,2.28-3.76,3.8-8,3.82-4.64,0-8.64-3.59-9-10h25.15c0-.86,0-1.75.06-2.65C475.49,413.41,471.48,404.79,458.89,404.79ZM450,421.1c.41-6.4,4.27-9.42,8.9-9.42,6.38,0,8.7,4.13,9,9.42Z" style="fill:#fff"/><path d="M500.92,406.29c-1.44.35-3.39.83-5.76,5.22v-4.64h-7.5v36.95h7.51V421.47c.43-2.83,1.76-7.43,6.08-8a10.09,10.09,0,0,1,7.23,1.71l1.14-7S506.75,405.05,500.92,406.29Z" style="fill:#fff"/><path d="M60,662.32c0-.24.18-.43.54-.43s.57.19.57.43-.2.44-.56.44S60,662.56,60,662.32Zm1,4.45c0,.28,0,.38-.47.38s-.5-.11-.46-.4l.27-3.51h.37Z" style="fill:#fff"/><path d="M65,667.11a3.36,3.36,0,0,1-1.33-.23,3.14,3.14,0,0,1-.82-.51l.62-.61a1.91,1.91,0,0,0,1.33.49,1.15,1.15,0,0,0,1.09-.38.71.71,0,0,0,0-.77,1.33,1.33,0,0,0-1.09-.47,3.11,3.11,0,0,1-1.25-.4,1.19,1.19,0,0,1-.53-1.09,1.33,1.33,0,0,1,.62-1.09,2.3,2.3,0,0,1,1.32-.44,3.12,3.12,0,0,1,1.21.18,2.57,2.57,0,0,1,.73.48l-.62.61a1.51,1.51,0,0,0-1.09-.42,1.11,1.11,0,0,0-1,.39.56.56,0,0,0,0,.69,1.56,1.56,0,0,0,1,.38,3.18,3.18,0,0,1,1.3.47,1.41,1.41,0,0,1,0,2.29A2.25,2.25,0,0,1,65,667.11Z" style="fill:#fff"/><path d="M70.79,667.11a2.6,2.6,0,0,1-1.73-.59,1.8,1.8,0,0,1-.68-1.41v-3.54h.93v3.26a1.25,1.25,0,0,0,.44,1.09,1.65,1.65,0,0,0,1.09.34,1.61,1.61,0,0,0,1.08-.34,1.22,1.22,0,0,0,.44-1.09v-3.26h.94v3.52a1.77,1.77,0,0,1-.68,1.42A2.58,2.58,0,0,1,70.79,667.11Zm-.24-5.9.74-1.08.79.35-.86.79Z" style="fill:#fff"/><path d="M79.39,663.55l-1.85,2.07-1.83-2.07v3.56h-.94v-5.54H75l2.56,2.93,2.57-2.93h.22v5.58h-.93Z" style="fill:#fff"/><path d="M85.76,665.68H83.31l-.57,1.43h-1l2.36-5.55h1l2.35,5.55h-1Zm-2.17-.85h1.8l-.9-2.54Z" style="fill:#fff"/><path d="M90.34,667.11H89.4v-4.72H87.46v-.82h4.82v.86H90.34Z" style="fill:#fff"/><path d="M94.59,663.86h2.57v.83H94.59v1.55h3.14v.85H93.64v-5.52h4.1v.86H94.59Z" style="fill:#fff"/><path d="M106.52,665.68H104l-.57,1.43h-1l2.35-5.55h1l2.36,5.55h-1Zm-2.17-.85h1.79l-.9-2.54Z" style="fill:#fff"/><path d="M109.4,661.57h.95v4.72h3.14v.86H109.4Z" style="fill:#fff"/><path d="M41.2,678.4a2.54,2.54,0,0,1-1.73-.6,1.8,1.8,0,0,1-.69-1.42v-3.56h.94v3.26a1.27,1.27,0,0,0,.43,1.09,1.8,1.8,0,0,0,2.1,0,1.27,1.27,0,0,0,.43-1.09v-3.26h.94v3.56a1.8,1.8,0,0,1-.69,1.42A2.54,2.54,0,0,1,41.2,678.4Z" style="fill:#fff"/><path d="M46.1,674.62v3.76h-1V672.8h.23l3.82,3.79V672.8h.93v5.58h-.26Z" style="fill:#fff"/><path d="M51.49,672.82h1v5.58h-1Z" style="fill:#fff"/><path d="M56.08,678.4l-2.18-5.58h1l1.73,4.45,1.69-4.45h1l-2.23,5.58Z" style="fill:#fff"/><path d="M61.58,675.14h2.6V676h-2.6v1.55h3.14v.86H60.66v-5.58h4.1v.85H61.58Z" style="fill:#fff"/><path d="M68.26,676.27H67.12v2.17h-1V672.9h2.43a2.13,2.13,0,0,1,1.56.53,1.59,1.59,0,0,1,.43,1.19h0a1.67,1.67,0,0,1-1.25,1.66l1.41,2.17H69.45Zm.2-2.54H67.12v1.82h1.36c.65,0,1.08-.35,1.08-.9h0C69.53,674,69.1,673.73,68.46,673.73Z" style="fill:#fff"/><path d="M74.2,678.4a3.33,3.33,0,0,1-1.33-.23,2.72,2.72,0,0,1-.82-.52l.61-.6a2,2,0,0,0,1.34.49c.53,0,.91-.11,1.09-.39a.71.71,0,0,0,0-.77,1.38,1.38,0,0,0-1.09-.46,2.89,2.89,0,0,1-1.24-.41,1.16,1.16,0,0,1-.53-1.09,1.33,1.33,0,0,1,.62-1.09,2.17,2.17,0,0,1,1.3-.44,3.2,3.2,0,0,1,1.23.18,2.52,2.52,0,0,1,.72.48l-.61.6a1.53,1.53,0,0,0-1.09-.41c-.48,0-.84.1-1,.39a.59.59,0,0,0,0,.69,1.56,1.56,0,0,0,1,.38,3.13,3.13,0,0,1,1.3.47,1.35,1.35,0,0,1,.56,1.21,1.37,1.37,0,0,1-.61,1.08A2.25,2.25,0,0,1,74.2,678.4Z" style="fill:#fff"/><path d="M80.38,678.4a2.73,2.73,0,1,1,2.78-2.67,2.7,2.7,0,0,1-.79,1.86A2.66,2.66,0,0,1,80.38,678.4Zm0-4.73a1.76,1.76,0,0,0-1.34.57,2,2,0,0,0-.52,1.37A2,2,0,0,0,79,677a1.91,1.91,0,0,0,2.68,0,2,2,0,0,0,.51-1.38,1.92,1.92,0,0,0-.51-1.37A1.76,1.76,0,0,0,80.38,673.67Z" style="fill:#fff"/><path d="M90.76,678.4h-.92v-4.73h-2v-.85h4.84v.85h-2Z" style="fill:#fff"/><path d="M96.22,676.27H95.06v2.17h-1V672.9H96.5a2.07,2.07,0,0,1,1.54.53,1.54,1.54,0,0,1,.49,1.19h0a1.65,1.65,0,0,1-1.26,1.66l1.41,2.17H97.45Zm.18-2.54H95.06v1.82h1.36c.66,0,1.09-.35,1.09-.9h0c-.06-.63-.47-.92-1.15-.92Z" style="fill:#fff"/><path d="M100,672.82h1v5.58h-1Z" style="fill:#fff"/><path d="M107.23,674.84l-1.86,2.07-1.85-2.07v3.56h-.93v-5.58h.21l2.57,2.93,2.58-2.93h.21v5.58h-.93Z" style="fill:#fff"/><path d="M113.54,677h-2.49l-.58,1.44h-1l2.36-5.54h1l2.35,5.54h-1Zm-2.17-.84h1.79l-.89-2.55Z" style="fill:#fff"/><path d="M117.41,675.7v2.7h-.94v-5.58h.94v2.52l2.12-2.52h1l-2.17,2.6,2.66,3h-1.2Z" style="fill:#fff"/><path d="M123.31,675.14h2.58V676h-2.58v1.55h3.15v.86h-4.09v-5.58h4.1v.85h-3.16Z" style="fill:#fff"/><path d="M130,676.27h-1.16v2.17h-1V672.9h2.45a2.17,2.17,0,0,1,1.55.53,1.55,1.55,0,0,1,.43,1.19h0a1.68,1.68,0,0,1-1.25,1.66l1.4,2.17h-1.24Zm.18-2.54h-1.34v1.82h1.36c.67,0,1.09-.35,1.09-.9h0C131.24,674,130.8,673.73,130.15,673.73Z" style="fill:#fff"/><path d="M133.83,678c0-.23.19-.42.55-.42s.57.19.57.42-.2.44-.56.44S133.83,678.2,133.83,678Zm.35-1.08-.21-3.51c0-.3.07-.39.46-.39s.5.09.47.39l-.35,3.51Z" style="fill:#fff"/></svg>