<?xml version="1.0" encoding="UTF-8" standalone="no"?>
<svg
   viewBox="0 0 529.13384 566.92915"
   width="529.13385"
   height="566.92914"
   version="1.1"
   id="svg5"
   xml:space="preserve"
   xmlns="http://www.w3.org/2000/svg"
   xmlns:svg="http://www.w3.org/2000/svg"><desc
     id="desc1">bedshapething.dxf - scale = 1.000000, origin = (0.000000, 0.000000), method = manual</desc><defs
     id="defs4"><rect
       x="12.769758"
       y="73.930176"
       width="104.17434"
       height="61.160418"
       id="rect2" /></defs><rect
     style="fill:#333333;stroke-width:8.38288;stroke-dashoffset:62.0002"
     id="rect1"
     width="684.31238"
     height="725.04529"
     x="-80.108002"
     y="-103.18996" /><path
     id="path5"
     style="fill:#f0f0f0;fill-opacity:1;stroke:none;stroke-width:0.99878"
     d="M -3.7128906 -147.50195 L -3.7128906 479.66406 L 532.8457 479.66406 L 532.8457 -147.50195 L -3.7128906 -147.50195 z M 290.20703 76.310547 C 331.24855 76.358647 366.83483 83.214754 399.57422 97.380859 C 419.35745 105.94089 427.29324 112.4686 429.30664 121.83594 C 430.11907 125.61565 424.42155 205.15587 423.0625 209.00781 C 421.33989 213.89024 417.56808 218.56065 406.77539 229.17578 C 396.52058 239.2618 393.39763 241.34056 385.42578 243.38281 C 376.7969 245.59341 369.46951 244.26335 354.5918 237.78516 C 322.04594 223.6137 290.30095 219.79631 259.05859 226.29492 C 246.10469 228.98946 232.11692 235.15557 224.36328 241.58984 L 221.99609 243.55273 L 225.54492 247.23047 C 236.20891 258.28103 253.36553 266.26044 274.83008 270.15625 C 285.71954 272.13274 311.11091 272.16897 321.74805 270.22266 C 332.60091 268.23734 342.65216 265.44604 352.30859 261.73438 C 370.67937 254.67319 371.49815 254.44143 379.40039 254.08398 C 393.25232 253.45742 399.92561 256.91648 413.11914 271.56445 C 422.85659 282.37538 424.5108 284.70518 426.26758 290.07617 C 427.55426 294.00999 427.5004 295.67538 424.77344 335.89258 C 421.58279 382.94786 421.81518 381.71977 414.83594 388.24805 C 410.7365 392.08257 407.3424 393.97848 395.87109 398.83984 C 373.07473 408.50059 348.4517 414.67994 321.44922 417.51562 C 309.20126 418.8018 277.13452 419.01276 264.97266 417.88672 C 206.25661 412.45034 159.54914 392.98446 130.69141 361.92188 C 112.58768 342.43499 102.58662 320.57975 100.17969 295.24805 C 99.390838 286.94588 99.567924 281.6798 101.70117 249.97461 C 105.12098 199.14812 105.60016 193.71473 107.40039 185.33008 C 117.1662 139.84509 157.26754 102.8469 214.77148 86.269531 C 238.7339 79.361578 262.09594 76.277657 290.20703 76.310547 z M 286.47852 92.394531 C 230.80707 92.894631 181.77435 109.8128 151.77539 139.18164 C 133.7842 156.79493 123.51401 177.61214 121.47266 200.60938 C 118.13981 238.15585 137.43525 272.8553 174.4375 295.85742 C 211.48634 318.88856 268.5783 329.95993 323.71875 324.80664 C 350.09246 322.34188 378.62442 314.88356 399.95312 304.87891 C 414.60594 298.00572 414.55813 296.86945 398.91992 280.05078 C 390.9802 271.51173 388.37709 270.07614 380.88867 270.10547 C 375.61169 270.12597 373.91217 270.56177 365.11719 274.16211 C 331.18159 288.05396 299.3711 291.57978 266.86328 285.04883 C 229.48267 277.53891 203.26193 256.14938 194.79492 226.26367 C 192.62234 218.59525 191.87153 204.75538 193.1875 196.59766 C 197.62875 169.06661 218.23047 146.79644 248.11328 137.22266 C 284.19809 125.66198 328.52535 129.04027 366.23828 146.22656 C 377.66261 151.43277 383.82072 152.50852 389.24023 150.24414 C 393.21435 148.58362 394.9869 147.03375 404.62305 136.80469 C 410.5376 130.52621 413.21875 127.10266 413.21875 125.82617 C 413.21875 123.07754 408.43038 119.30798 399.82227 115.28516 C 368.89144 100.83037 336.90536 93.699764 297.69727 92.515625 C 293.93049 92.401865 290.18994 92.361191 286.47852 92.394531 z M 290.73242 146.88281 C 282.26927 147.04064 273.9188 147.63576 268.52148 148.61719 C 253.76871 151.29972 237.05934 158.34111 229.09375 165.23242 L 225.93945 167.96289 L 232.64258 164.45703 C 244.8014 158.09973 259.54388 153.9433 276.23633 152.16602 C 283.78402 151.36242 284.96372 151.40545 286.7207 152.55664 C 289.6934 154.50443 290.63776 157.13413 289.41992 160.07422 C 288.10521 163.24827 287.02513 163.73797 279.95508 164.37109 C 266.54152 165.57228 252.56949 168.80243 243.32617 172.83984 C 233.24902 177.24141 222.00054 185.52519 217.48047 191.87305 C 216.04166 193.89368 216.38576 193.76035 220.5918 190.66406 C 234.00265 180.79157 253.19464 174.10883 274.32227 171.95312 C 284.57857 170.90657 300.88458 170.87048 302.79102 171.89062 C 304.67846 172.90074 305.92917 176.58648 305.12305 178.76562 C 303.81821 182.29292 301.76903 182.75646 285.47461 183.20703 C 269.45333 183.65012 261.22233 184.88738 250.16602 188.51562 C 243.84326 190.59051 233.95042 195.38889 228.83789 198.86133 C 224.7985 201.60491 214.14079 212.02163 214.75 212.63086 C 214.95914 212.83999 217.03167 211.56557 219.35352 209.79883 C 229.77473 201.86941 246.18397 195.42592 263.80469 192.3457 C 280.41902 189.44143 312.56277 189.98281 321.10547 193.31055 C 324.04702 194.45639 325.25471 198.11567 323.68945 201.14258 C 322.18711 204.04774 319.96217 204.58464 314.16406 203.44141 C 306.80739 201.99088 284.57121 201.54291 273.98828 202.63086 C 255.72169 204.5087 238.52142 210.38127 226.80469 218.74219 C 220.47699 223.25754 218.46514 225.68644 223.74219 222.43945 C 232.69136 216.93298 246.83587 211.92574 260.82422 209.3125 C 269.98412 207.60128 297.7245 206.89555 308.0332 208.11133 C 324.05546 210.00099 338.70469 213.87359 354.86719 220.49609 C 360.72212 222.89516 367.28658 225.52852 369.45508 226.34766 C 374.53723 228.26735 381.1493 228.28822 385.22656 226.39648 C 386.96136 225.59163 389.5571 223.69517 390.99609 222.18164 L 393.61328 219.42969 L 389.02539 220.98828 C 385.318 222.24893 383.07491 222.47425 377.33984 222.1582 C 369.59776 221.73152 360.06134 218.75617 357.55469 215.98633 C 355.57555 213.79938 355.78657 209.83187 357.97656 208.05859 C 360.34037 206.1445 362.06257 206.22161 367.81641 208.50586 C 377.53193 212.36295 385.40532 211.77027 391.81055 206.69727 C 393.50529 205.35501 398.21735 200.61445 402.28125 196.16406 C 409.38281 188.38713 409.45735 188.26888 404.20117 193.11133 C 401.02611 196.03644 396.56189 199.17745 393.55664 200.60156 C 388.80531 202.85301 387.73218 203.05117 380.49414 203.00977 C 371.91239 202.96087 372.4679 203.12458 350.55664 194.14844 C 342.44349 190.8248 340.98492 189.95396 340.16211 187.9375 C 338.96778 185.01058 340.14151 182.23007 343.1875 180.76953 C 344.9816 179.9093 346.02138 180.05079 350.89453 181.80859 C 353.99295 182.92627 358.9044 184.91968 361.80859 186.23828 C 370.85911 190.34762 375.34717 191.62109 380.76367 191.62109 C 387.79839 191.62109 390.94688 189.90978 399.02539 181.69727 C 404.62159 176.00823 405.07701 175.37488 401.78516 177.85352 C 395.41192 182.65234 391.64538 183.99163 383.45508 184.37305 C 377.15116 184.66654 375.23826 184.42355 369.33203 182.58203 C 358.96458 179.34962 355.70039 175.07121 359.71094 169.97266 C 361.17263 168.11445 361.83708 167.87226 364.63867 168.17578 C 366.41994 168.36881 369.90965 169.28679 372.39258 170.2168 C 381.07081 173.46724 390.08866 172.14579 394.97656 166.9082 L 396.83984 164.91016 L 393.00391 166.10352 C 390.2747 166.95198 386.89326 167.20252 381.2832 166.97266 C 374.40597 166.69076 372.4903 166.27484 366.30078 163.72266 C 340.26046 152.98522 330.33318 149.98148 313.62109 147.77734 C 307.7703 147.00567 299.19558 146.72498 290.73242 146.88281 z M 140.77734 290.88867 L 149.16016 299.07227 C 165.07741 314.612 185.01103 326.04462 212.91016 335.63086 C 217.81028 337.31456 219.35564 339.73377 217.99609 343.59961 C 216.39582 348.14996 212.66399 347.94924 198.05078 342.52539 C 174.28324 333.70389 151.09406 318.71612 135.53906 302.12305 L 129.1582 295.31445 L 133.39062 301.57617 C 152.88971 330.42233 189.75551 351.55251 237.37305 361.17188 C 249.55889 363.63354 251.56836 364.70896 251.56836 368.77344 C 251.56836 370.86978 248.37414 374.56445 246.5625 374.56445 C 244.87409 374.56445 229.9999 371.54273 222.78516 369.73438 C 185.92048 360.49437 154.97395 343.58936 134.39648 321.45117 C 128.00385 314.57366 127.7519 315.1727 133.66211 323.20117 C 155.17761 352.42789 194.31255 373.36462 242.89258 381.64062 C 253.23711 383.40285 273.30442 385.60352 279.03711 385.60352 C 284.35442 385.60352 287.22982 387.84347 286.89648 391.72656 C 286.73471 393.61118 286.01313 394.99442 284.66797 395.99414 C 282.80632 397.3778 281.93975 397.41836 271.26172 396.63281 C 241.42357 394.43774 210.85933 387.61191 188.48438 378.14648 C 173.94978 371.99774 156.26719 361.52419 146.69141 353.39258 C 138.99908 346.86043 139.02169 347.39524 146.75781 354.95508 C 173.90692 381.48545 216.5702 397.74587 270.49219 402.11328 C 282.71391 403.10322 311.98004 402.49292 324.11328 400.99414 C 349.48301 397.86022 374.66918 390.95374 395.01758 381.55273 C 401.11917 378.73379 406.12305 375.19843 406.12305 373.70508 C 406.12305 373.39479 402.57283 374.70194 398.23438 376.61133 C 393.8959 378.52071 389.62197 380.08398 388.73633 380.08398 C 386.5517 380.08398 383.25391 376.63823 383.25391 374.35547 C 383.25391 371.26082 384.88764 369.94207 393.51367 366.0625 C 405.6654 360.59728 406.91016 359.72867 406.91016 356.72852 L 406.91016 354.21484 L 398.98633 357.70312 C 389.49964 361.87813 370.72036 368.25586 367.91211 368.25586 C 365.0844 368.25586 362.75195 365.63749 362.75195 362.46289 C 362.75195 358.96002 364.3191 357.7259 371.42578 355.62695 C 382.8918 352.24056 404.01179 343.38923 407.46484 340.52344 C 408.44168 339.71274 408.94952 335.13672 408.0625 335.13672 C 407.82838 335.13672 406.32003 335.80418 404.71094 336.61914 C 390.51429 343.80899 353.19889 354.84961 343.09766 354.84961 C 339.52181 354.84961 337.51953 352.80532 337.51953 349.1543 C 337.51953 345.8003 339.8397 344.11675 345.89844 343.07227 C 359.28375 340.76475 383.36355 333.53309 394.74609 328.40234 C 397.31616 327.24389 400.62278 325.77479 402.09375 325.13867 C 404.43816 324.12492 404.62608 323.84089 403.61719 322.83203 C 402.60829 321.82308 401.35328 322.11036 393.45117 325.16406 C 375.30385 332.17698 352.4125 337.7626 331.30078 340.32812 C 317.1647 342.04595 291.3907 342.60473 276.40625 341.51953 C 222.14746 337.59008 179.14948 322.48205 147.08594 296.08203 L 140.77734 290.88867 z " /><path
     d="m 15.46693,522.14284 c 0,13.17432 9.01074,23.05506 23.30363,23.05506 7.5193,0 12.73931,-3.10715 15.53575,-5.28216 1.67786,-1.305 1.74,-3.045 0.55928,-4.78501 l -1.74,-2.42358 c -1.305,-1.86429 -2.92072,-1.92643 -4.78501,-0.62143 -2.11286,1.49144 -5.3443,3.1693 -9.07288,3.1693 -8.57573,0 -12.55288,-6.77359 -12.55288,-13.36075 0,-6.40073 3.66643,-12.67717 12.55288,-12.67717 3.29358,0 6.2143,1.305 8.26502,2.48572 1.92643,1.18072 3.48001,0.99429 4.66073,-0.93214 l 1.55357,-2.54787 c 1.11857,-1.80215 0.99429,-3.48001 -0.74572,-4.72287 -2.61,-1.80214 -7.39501,-4.22572 -14.23074,-4.22572 -13.73361,0 -23.30363,9.94288 -23.30363,22.86862 z m 50.27367,-0.18642 c 0,13.05003 9.44573,23.24148 23.24148,23.24148 13.79575,0 23.24148,-10.19145 23.24148,-23.24148 0,-12.73932 -9.44573,-22.6822 -23.24148,-22.6822 -13.79575,0 -23.24148,9.94288 -23.24148,22.6822 z m 11.24788,0 c 0,-7.27074 4.97144,-12.73932 11.9936,-12.73932 7.02216,0 11.9936,5.46858 11.9936,12.73932 0,7.58144 -4.97144,13.2986 -11.9936,13.2986 -7.02216,0 -11.9936,-5.71716 -11.9936,-13.2986 z m 46.98001,0.18642 c 0,13.17432 9.01073,23.05506 23.30362,23.05506 7.51931,0 12.73932,-3.10715 15.53575,-5.28216 1.67787,-1.305 1.74001,-3.045 0.55929,-4.78501 l -1.74,-2.42358 c -1.30501,-1.86429 -2.92072,-1.92643 -4.78501,-0.62143 -2.11287,1.49144 -5.3443,3.1693 -9.07288,3.1693 -8.57574,0 -12.55289,-6.77359 -12.55289,-13.36075 0,-6.40073 3.66644,-12.67717 12.55289,-12.67717 3.29358,0 6.2143,1.305 8.26502,2.48572 1.92643,1.18072 3.48001,0.99429 4.66072,-0.93214 l 1.55358,-2.54787 c 1.11857,-1.80215 0.99429,-3.48001 -0.74572,-4.72287 -2.61,-1.80214 -7.39502,-4.22572 -14.23075,-4.22572 -13.7336,0 -23.30362,9.94288 -23.30362,22.86862 z m 50.27368,-0.18642 c 0,13.05003 9.44574,23.24148 23.24148,23.24148 13.79575,0 23.24148,-10.19145 23.24148,-23.24148 0,-12.73932 -9.44573,-22.6822 -23.24148,-22.6822 -13.79574,0 -23.24148,9.94288 -23.24148,22.6822 z m 11.24788,0 c 0,-7.27074 4.97144,-12.73932 11.9936,-12.73932 7.02216,0 11.9936,5.46858 11.9936,12.73932 0,7.58144 -4.97144,13.2986 -11.9936,13.2986 -7.02216,0 -11.9936,-5.71716 -11.9936,-13.2986 z m 44.92931,18.58075 c -0.80786,2.36144 0.31072,3.91501 2.79644,3.91501 h 4.10144 c 1.98857,0 3.23143,-0.93214 3.79072,-2.85858 l 1.86429,-6.46287 h 13.85789 l 1.86429,6.46287 c 0.62143,1.92644 1.86429,2.85858 3.85286,2.85858 h 4.10144 c 2.48572,0 3.6043,-1.55357 2.79644,-3.91501 l -12.8636,-37.7208 c -0.62143,-1.92643 -1.86429,-2.79643 -3.85287,-2.79643 h -5.59287 c -1.98858,0 -3.23144,0.87 -3.85287,2.79643 z m 15.10075,-14.10646 2.54787,-8.63788 c 0.80785,-2.79643 1.80214,-7.64358 1.80214,-7.64358 h 0.12429 c 0,0 0.99429,4.84715 1.80215,7.64358 l 2.48572,8.63788 z m 60.09224,14.60361 c 0,2.23714 1.18072,3.41786 3.41787,3.41786 h 4.03929 c 2.23715,0 3.41787,-1.18072 3.41787,-3.41786 v -10.31574 h 7.58144 c 8.63788,0 14.47932,-6.46287 14.47932,-15.41147 0,-8.94859 -5.84144,-15.28717 -14.47932,-15.28717 h -15.0386 c -2.23715,0 -3.41787,1.18071 -3.41787,3.41786 z m 10.87503,-19.63719 v -12.05574 h 5.53073 c 3.60429,0 5.46858,2.42357 5.46858,5.96572 0,3.54216 -1.86429,6.09002 -5.65501,6.09002 z m 35.17286,19.63719 c 0,2.23714 1.18071,3.41786 3.41786,3.41786 h 4.0393 c 2.23714,0 3.41786,-1.18072 3.41786,-3.41786 v -11.5586 h 5.09573 l 6.58715,12.55288 c 0.93215,1.67787 2.17501,2.42358 4.0393,2.42358 h 4.72287 c 2.67215,0 3.72858,-1.74 2.36143,-4.10144 l -6.33858,-11.43431 c -1.05644,-1.86429 -1.67787,-2.67215 -1.67787,-2.67215 V 526.12 c 4.41216,-2.23715 6.64931,-7.39502 6.64931,-12.11789 0,-6.46287 -3.1693,-10.99931 -8.20288,-12.92574 -1.92643,-0.74572 -4.10144,-1.05643 -8.63788,-1.05643 H 355.0781 c -2.23715,0 -3.41786,1.18071 -3.41786,3.41786 z m 10.87502,-20.88005 v -10.81288 h 3.66644 c 1.80214,0 3.10715,0.18643 4.10144,0.62143 2.05071,0.80786 2.61,2.48572 2.61,4.72286 0,3.54216 -2.175,5.46859 -5.65501,5.46859 z m 36.66434,20.88005 c 0,2.23714 1.18072,3.41786 3.41787,3.41786 h 21.87433 c 2.23715,0 3.41787,-1.18072 3.41787,-3.41786 v -2.48572 c 0,-2.23715 -1.18072,-3.41787 -3.41787,-3.41787 h -14.41717 v -8.3893 h 10.12931 c 2.23715,0 3.41786,-1.18072 3.41786,-3.41787 v -2.48572 c 0,-2.23715 -1.18071,-3.41786 -3.41786,-3.41786 h -10.12931 v -8.07859 h 13.54717 c 2.23715,0 3.41787,-1.18072 3.41787,-3.41787 v -2.48572 c 0,-2.23715 -1.18072,-3.41786 -3.41787,-3.41786 h -21.00433 c -2.23715,0 -3.41787,1.18071 -3.41787,3.41786 z m 41.76002,-0.24858 c 2.36143,1.86429 7.89216,4.41216 14.10646,4.41216 10.00502,0 15.59789,-6.40073 15.59789,-13.85789 0,-14.04432 -19.63719,-12.49074 -19.63719,-18.95362 0,-1.74 1.42929,-3.10715 4.84716,-3.10715 2.92072,0 4.97144,1.05643 7.02215,2.05072 1.74001,0.87 3.41787,1.24286 4.66073,-1.18071 l 1.49143,-2.92073 c 0.93215,-1.80214 0.74572,-3.35572 -1.05643,-4.66072 -2.11286,-1.49143 -6.83573,-3.29358 -11.9936,-3.29358 -9.01073,0 -15.84646,5.40644 -15.84646,13.60932 0,13.92003 19.63718,12.92574 19.63718,19.20218 0,1.74001 -1.49143,3.10715 -4.72286,3.10715 -3.85287,0 -6.6493,-1.98857 -8.07859,-2.73429 -2.05072,-1.11857 -3.48001,-0.99429 -4.72287,0.80786 l -1.92643,2.79644 c -1.61572,2.29929 -0.68358,3.66643 0.62143,4.72286 z m 43.00292,0 c 2.36144,1.86429 7.89217,4.41216 14.10647,4.41216 10.00502,0 15.59789,-6.40073 15.59789,-13.85789 0,-14.04432 -19.63719,-12.49074 -19.63719,-18.95362 0,-1.74 1.42929,-3.10715 4.84716,-3.10715 2.92072,0 4.97144,1.05643 7.02215,2.05072 1.74001,0.87 3.41787,1.24286 4.66073,-1.18071 l 1.49143,-2.92073 c 0.93215,-1.80214 0.74572,-3.35572 -1.05643,-4.66072 -2.11286,-1.49143 -6.83573,-3.29358 -11.9936,-3.29358 -9.01073,0 -15.84646,5.40644 -15.84646,13.60932 0,13.92003 19.63718,12.92574 19.63718,19.20218 0,1.74001 -1.49143,3.10715 -4.72286,3.10715 -3.85287,0 -6.64931,-1.98857 -8.07859,-2.73429 -2.05072,-1.11857 -3.48001,-0.99429 -4.72287,0.80786 l -1.92644,2.79644 c -1.61571,2.29929 -0.68357,3.66643 0.62143,4.72286 z"
     id="text6328-5"
     style="-inkscape-font-specification:MuseoSansRounded-900;fill:#e6e6e6;stroke-width:1.03571"
     aria-label="COCOA PRESS" /><rect
     style="fill:none;fill-opacity:0.454429;stroke:none;stroke-width:8.95013;stroke-linecap:round;stroke-linejoin:round;stroke-dashoffset:46.4882;paint-order:stroke markers fill"
     id="rect6"
     width="529.13385"
     height="566.92914"
     x="7.9541014e-06"
     y="2.9199218e-06" /><text
     xml:space="preserve"
     id="text2"
     style="font-weight:bold;font-size:29.3333px;font-family:Tahoma;-inkscape-font-specification:'Tahoma Bold';text-align:end;letter-spacing:-3.96px;word-spacing:-0.519998px;writing-mode:tb-rl;text-orientation:upright;white-space:pre;shape-inside:url(#rect2);display:inline;fill:#333333;fill-opacity:1;stroke-width:8.38288;stroke-dashoffset:62.0002" /></svg>
