solid OpenSCAD_Model
  facet normal 0 0 -1
    outer loop
      vertex 107.105 -109.998 -3
      vertex 107.002 -109.998 -3
      vertex 107.314 -109.984 -3
    endloop
  endfacet
  facet normal -0 0 -1
    outer loop
      vertex 107.314 -109.984 -3
      vertex 107.002 -109.998 -3
      vertex 107.521 -109.954 -3
    endloop
  endfacet
  facet normal -0 0 -1
    outer loop
      vertex 110 -107 -3
      vertex 107.002 -109.998 -3
      vertex 107.002 109.998 -3
    endloop
  endfacet
  facet normal -0 0 -1
    outer loop
      vertex 107.521 -109.954 -3
      vertex 107.002 -109.998 -3
      vertex 107.726 -109.911 -3
    endloop
  endfacet
  facet normal -0 0 -1
    outer loop
      vertex 107.726 -109.911 -3
      vertex 107.002 -109.998 -3
      vertex 107.927 -109.853 -3
    endloop
  endfacet
  facet normal -0 0 -1
    outer loop
      vertex 107.927 -109.853 -3
      vertex 107.002 -109.998 -3
      vertex 108.124 -109.782 -3
    endloop
  endfacet
  facet normal -0 0 -1
    outer loop
      vertex 108.124 -109.782 -3
      vertex 107.002 -109.998 -3
      vertex 108.315 -109.696 -3
    endloop
  endfacet
  facet normal -0 0 -1
    outer loop
      vertex 108.315 -109.696 -3
      vertex 107.002 -109.998 -3
      vertex 108.5 -109.598 -3
    endloop
  endfacet
  facet normal -0 0 -1
    outer loop
      vertex 108.5 -109.598 -3
      vertex 107.002 -109.998 -3
      vertex 108.678 -109.487 -3
    endloop
  endfacet
  facet normal -0 0 -1
    outer loop
      vertex 108.678 -109.487 -3
      vertex 107.002 -109.998 -3
      vertex 108.847 -109.364 -3
    endloop
  endfacet
  facet normal -0 0 -1
    outer loop
      vertex 108.847 -109.364 -3
      vertex 107.002 -109.998 -3
      vertex 109.007 -109.229 -3
    endloop
  endfacet
  facet normal -0 0 -1
    outer loop
      vertex 109.007 -109.229 -3
      vertex 107.002 -109.998 -3
      vertex 109.158 -109.084 -3
    endloop
  endfacet
  facet normal -0 0 -1
    outer loop
      vertex 109.158 -109.084 -3
      vertex 107.002 -109.998 -3
      vertex 109.298 -108.928 -3
    endloop
  endfacet
  facet normal -0 0 -1
    outer loop
      vertex 109.298 -108.928 -3
      vertex 107.002 -109.998 -3
      vertex 109.427 -108.763 -3
    endloop
  endfacet
  facet normal -0 0 -1
    outer loop
      vertex 109.427 -108.763 -3
      vertex 107.002 -109.998 -3
      vertex 109.544 -108.59 -3
    endloop
  endfacet
  facet normal -0 0 -1
    outer loop
      vertex 109.544 -108.59 -3
      vertex 107.002 -109.998 -3
      vertex 109.649 -108.408 -3
    endloop
  endfacet
  facet normal -0 0 -1
    outer loop
      vertex 109.649 -108.408 -3
      vertex 107.002 -109.998 -3
      vertex 109.741 -108.22 -3
    endloop
  endfacet
  facet normal -0 0 -1
    outer loop
      vertex 109.741 -108.22 -3
      vertex 107.002 -109.998 -3
      vertex 109.819 -108.026 -3
    endloop
  endfacet
  facet normal -0 0 -1
    outer loop
      vertex 109.819 -108.026 -3
      vertex 107.002 -109.998 -3
      vertex 109.884 -107.827 -3
    endloop
  endfacet
  facet normal -0 0 -1
    outer loop
      vertex 109.884 -107.827 -3
      vertex 107.002 -109.998 -3
      vertex 109.934 -107.624 -3
    endloop
  endfacet
  facet normal -0 0 -1
    outer loop
      vertex 109.934 -107.624 -3
      vertex 107.002 -109.998 -3
      vertex 109.971 -107.418 -3
    endloop
  endfacet
  facet normal -0 0 -1
    outer loop
      vertex 109.971 -107.418 -3
      vertex 107.002 -109.998 -3
      vertex 109.993 -107.209 -3
    endloop
  endfacet
  facet normal -0 0 -1
    outer loop
      vertex 109.993 -107.209 -3
      vertex 107.002 -109.998 -3
      vertex 110 -107 -3
    endloop
  endfacet
  facet normal 0 0 -1
    outer loop
      vertex 110 -107 -3
      vertex 107.002 109.998 -3
      vertex 110 107 -3
    endloop
  endfacet
  facet normal 0 0 -1
    outer loop
      vertex 107.002 109.998 -3
      vertex 109.971 107.418 -3
      vertex 109.993 107.209 -3
    endloop
  endfacet
  facet normal -0 -0 -1
    outer loop
      vertex 109.884 107.827 -3
      vertex 109.934 107.624 -3
      vertex 107.002 109.998 -3
    endloop
  endfacet
  facet normal 0 0 -1
    outer loop
      vertex 109.741 108.22 -3
      vertex 107.002 109.998 -3
      vertex 109.649 108.408 -3
    endloop
  endfacet
  facet normal -0 -0 -1
    outer loop
      vertex 109.741 108.22 -3
      vertex 109.819 108.026 -3
      vertex 107.002 109.998 -3
    endloop
  endfacet
  facet normal 0 0 -1
    outer loop
      vertex 107.002 109.998 -3
      vertex 109.007 109.229 -3
      vertex 109.158 109.084 -3
    endloop
  endfacet
  facet normal 0 0 -1
    outer loop
      vertex 109.427 108.763 -3
      vertex 107.002 109.998 -3
      vertex 109.298 108.928 -3
    endloop
  endfacet
  facet normal -0 -0 -1
    outer loop
      vertex 109.427 108.763 -3
      vertex 109.544 108.59 -3
      vertex 107.002 109.998 -3
    endloop
  endfacet
  facet normal 0 0 -1
    outer loop
      vertex 109.298 108.928 -3
      vertex 107.002 109.998 -3
      vertex 109.158 109.084 -3
    endloop
  endfacet
  facet normal 0 0 -1
    outer loop
      vertex 107.002 109.998 -3
      vertex 107.927 109.853 -3
      vertex 108.124 109.782 -3
    endloop
  endfacet
  facet normal 0 0 -1
    outer loop
      vertex 108.847 109.364 -3
      vertex 107.002 109.998 -3
      vertex 108.678 109.487 -3
    endloop
  endfacet
  facet normal -0 -0 -1
    outer loop
      vertex 108.847 109.364 -3
      vertex 109.007 109.229 -3
      vertex 107.002 109.998 -3
    endloop
  endfacet
  facet normal 0 0 -1
    outer loop
      vertex 108.678 109.487 -3
      vertex 107.002 109.998 -3
      vertex 108.5 109.598 -3
    endloop
  endfacet
  facet normal 0 0 -1
    outer loop
      vertex 108.5 109.598 -3
      vertex 107.002 109.998 -3
      vertex 108.315 109.696 -3
    endloop
  endfacet
  facet normal 0 0 -1
    outer loop
      vertex 108.315 109.696 -3
      vertex 107.002 109.998 -3
      vertex 108.124 109.782 -3
    endloop
  endfacet
  facet normal 0 0 -1
    outer loop
      vertex 109.649 108.408 -3
      vertex 107.002 109.998 -3
      vertex 109.544 108.59 -3
    endloop
  endfacet
  facet normal 0 0 -1
    outer loop
      vertex 107.726 109.911 -3
      vertex 107.002 109.998 -3
      vertex 107.521 109.954 -3
    endloop
  endfacet
  facet normal -0 -0 -1
    outer loop
      vertex 107.726 109.911 -3
      vertex 107.927 109.853 -3
      vertex 107.002 109.998 -3
    endloop
  endfacet
  facet normal -0 -0 -1
    outer loop
      vertex 109.819 108.026 -3
      vertex 109.884 107.827 -3
      vertex 107.002 109.998 -3
    endloop
  endfacet
  facet normal -0 -0 -1
    outer loop
      vertex 107.314 109.984 -3
      vertex 107.521 109.954 -3
      vertex 107.002 109.998 -3
    endloop
  endfacet
  facet normal 0 0 -1
    outer loop
      vertex 107.002 109.998 -3
      vertex 109.934 107.624 -3
      vertex 109.971 107.418 -3
    endloop
  endfacet
  facet normal 0 0 -1
    outer loop
      vertex 107.002 109.998 -3
      vertex 107.105 109.998 -3
      vertex 107.314 109.984 -3
    endloop
  endfacet
  facet normal 0 0 -1
    outer loop
      vertex 110 107 -3
      vertex 107.002 109.998 -3
      vertex 109.993 107.209 -3
    endloop
  endfacet
  facet normal 0 -0 -1
    outer loop
      vertex -107 110 -3
      vertex 107 110 -3
      vertex -107.002 109.998 -3
    endloop
  endfacet
  facet normal 0 0 -1
    outer loop
      vertex -107.002 109.998 -3
      vertex 107 110 -3
      vertex 107.002 109.998 -3
    endloop
  endfacet
  facet normal 0 0 -1
    outer loop
      vertex 107.002 -109.998 -3
      vertex -107.002 109.998 -3
      vertex 107.002 109.998 -3
    endloop
  endfacet
  facet normal 0 0 -1
    outer loop
      vertex -110 -107 -3
      vertex -110 107 -3
      vertex -107.002 -109.998 -3
    endloop
  endfacet
  facet normal -0 0 -1
    outer loop
      vertex -107.002 109.998 -3
      vertex -107.314 109.984 -3
      vertex -107.105 109.998 -3
    endloop
  endfacet
  facet normal 0 0 -1
    outer loop
      vertex -107.002 109.998 -3
      vertex -107.521 109.954 -3
      vertex -107.314 109.984 -3
    endloop
  endfacet
  facet normal 0 0 -1
    outer loop
      vertex -107.002 109.998 -3
      vertex -107.726 109.911 -3
      vertex -107.521 109.954 -3
    endloop
  endfacet
  facet normal 0 0 -1
    outer loop
      vertex -107.002 109.998 -3
      vertex -107.927 109.853 -3
      vertex -107.726 109.911 -3
    endloop
  endfacet
  facet normal 0 0 -1
    outer loop
      vertex -107.002 109.998 -3
      vertex -108.124 109.782 -3
      vertex -107.927 109.853 -3
    endloop
  endfacet
  facet normal 0 0 -1
    outer loop
      vertex -107.002 109.998 -3
      vertex -108.315 109.696 -3
      vertex -108.124 109.782 -3
    endloop
  endfacet
  facet normal 0 0 -1
    outer loop
      vertex -107.002 109.998 -3
      vertex -108.5 109.598 -3
      vertex -108.315 109.696 -3
    endloop
  endfacet
  facet normal 0 0 -1
    outer loop
      vertex -107.002 109.998 -3
      vertex -108.678 109.487 -3
      vertex -108.5 109.598 -3
    endloop
  endfacet
  facet normal 0 0 -1
    outer loop
      vertex -107.002 109.998 -3
      vertex -108.847 109.364 -3
      vertex -108.678 109.487 -3
    endloop
  endfacet
  facet normal 0 0 -1
    outer loop
      vertex -107.002 109.998 -3
      vertex -109.007 109.229 -3
      vertex -108.847 109.364 -3
    endloop
  endfacet
  facet normal 0 0 -1
    outer loop
      vertex -107.002 109.998 -3
      vertex -109.158 109.084 -3
      vertex -109.007 109.229 -3
    endloop
  endfacet
  facet normal 0 0 -1
    outer loop
      vertex -107.002 109.998 -3
      vertex -109.298 108.928 -3
      vertex -109.158 109.084 -3
    endloop
  endfacet
  facet normal 0 0 -1
    outer loop
      vertex -107.002 109.998 -3
      vertex -109.427 108.763 -3
      vertex -109.298 108.928 -3
    endloop
  endfacet
  facet normal 0 0 -1
    outer loop
      vertex -107.002 109.998 -3
      vertex -109.544 108.59 -3
      vertex -109.427 108.763 -3
    endloop
  endfacet
  facet normal 0 0 -1
    outer loop
      vertex -107.002 109.998 -3
      vertex -109.649 108.408 -3
      vertex -109.544 108.59 -3
    endloop
  endfacet
  facet normal 0 0 -1
    outer loop
      vertex -107.002 109.998 -3
      vertex -109.741 108.22 -3
      vertex -109.649 108.408 -3
    endloop
  endfacet
  facet normal 0 0 -1
    outer loop
      vertex -107.002 109.998 -3
      vertex -109.819 108.026 -3
      vertex -109.741 108.22 -3
    endloop
  endfacet
  facet normal 0 0 -1
    outer loop
      vertex -107.002 109.998 -3
      vertex -109.884 107.827 -3
      vertex -109.819 108.026 -3
    endloop
  endfacet
  facet normal 0 0 -1
    outer loop
      vertex -107.002 109.998 -3
      vertex -109.934 107.624 -3
      vertex -109.884 107.827 -3
    endloop
  endfacet
  facet normal 0 0 -1
    outer loop
      vertex -107.002 109.998 -3
      vertex -109.971 107.418 -3
      vertex -109.934 107.624 -3
    endloop
  endfacet
  facet normal 0 0 -1
    outer loop
      vertex -107.002 109.998 -3
      vertex -109.993 107.209 -3
      vertex -109.971 107.418 -3
    endloop
  endfacet
  facet normal 0 0 -1
    outer loop
      vertex -107.002 109.998 -3
      vertex -110 107 -3
      vertex -109.993 107.209 -3
    endloop
  endfacet
  facet normal 0 0 -1
    outer loop
      vertex -107.002 -109.998 -3
      vertex -110 107 -3
      vertex -107.002 109.998 -3
    endloop
  endfacet
  facet normal 0 0 -1
    outer loop
      vertex 107.002 -109.998 -3
      vertex -107.002 -109.998 -3
      vertex -107.002 109.998 -3
    endloop
  endfacet
  facet normal 0 0 -1
    outer loop
      vertex -107.002 -109.998 -3
      vertex -109.971 -107.418 -3
      vertex -109.993 -107.209 -3
    endloop
  endfacet
  facet normal 0 0 -1
    outer loop
      vertex -109.884 -107.827 -3
      vertex -109.934 -107.624 -3
      vertex -107.002 -109.998 -3
    endloop
  endfacet
  facet normal 0 0 -1
    outer loop
      vertex -109.741 -108.22 -3
      vertex -107.002 -109.998 -3
      vertex -109.649 -108.408 -3
    endloop
  endfacet
  facet normal 0 0 -1
    outer loop
      vertex -109.741 -108.22 -3
      vertex -109.819 -108.026 -3
      vertex -107.002 -109.998 -3
    endloop
  endfacet
  facet normal 0 0 -1
    outer loop
      vertex -107.002 -109.998 -3
      vertex -109.007 -109.229 -3
      vertex -109.158 -109.084 -3
    endloop
  endfacet
  facet normal 0 0 -1
    outer loop
      vertex -109.427 -108.763 -3
      vertex -107.002 -109.998 -3
      vertex -109.298 -108.928 -3
    endloop
  endfacet
  facet normal 0 0 -1
    outer loop
      vertex -109.427 -108.763 -3
      vertex -109.544 -108.59 -3
      vertex -107.002 -109.998 -3
    endloop
  endfacet
  facet normal 0 0 -1
    outer loop
      vertex -109.298 -108.928 -3
      vertex -107.002 -109.998 -3
      vertex -109.158 -109.084 -3
    endloop
  endfacet
  facet normal 0 0 -1
    outer loop
      vertex -107.002 -109.998 -3
      vertex -107.927 -109.853 -3
      vertex -108.124 -109.782 -3
    endloop
  endfacet
  facet normal 0 0 -1
    outer loop
      vertex -108.847 -109.364 -3
      vertex -107.002 -109.998 -3
      vertex -108.678 -109.487 -3
    endloop
  endfacet
  facet normal 0 0 -1
    outer loop
      vertex -108.847 -109.364 -3
      vertex -109.007 -109.229 -3
      vertex -107.002 -109.998 -3
    endloop
  endfacet
  facet normal 0 0 -1
    outer loop
      vertex -108.678 -109.487 -3
      vertex -107.002 -109.998 -3
      vertex -108.5 -109.598 -3
    endloop
  endfacet
  facet normal 0 0 -1
    outer loop
      vertex -108.5 -109.598 -3
      vertex -107.002 -109.998 -3
      vertex -108.315 -109.696 -3
    endloop
  endfacet
  facet normal 0 0 -1
    outer loop
      vertex -108.315 -109.696 -3
      vertex -107.002 -109.998 -3
      vertex -108.124 -109.782 -3
    endloop
  endfacet
  facet normal 0 0 -1
    outer loop
      vertex -109.649 -108.408 -3
      vertex -107.002 -109.998 -3
      vertex -109.544 -108.59 -3
    endloop
  endfacet
  facet normal 0 0 -1
    outer loop
      vertex -107.726 -109.911 -3
      vertex -107.002 -109.998 -3
      vertex -107.521 -109.954 -3
    endloop
  endfacet
  facet normal 0 0 -1
    outer loop
      vertex -107.726 -109.911 -3
      vertex -107.927 -109.853 -3
      vertex -107.002 -109.998 -3
    endloop
  endfacet
  facet normal 0 0 -1
    outer loop
      vertex -109.819 -108.026 -3
      vertex -109.884 -107.827 -3
      vertex -107.002 -109.998 -3
    endloop
  endfacet
  facet normal 0 0 -1
    outer loop
      vertex -107.314 -109.984 -3
      vertex -107.521 -109.954 -3
      vertex -107.002 -109.998 -3
    endloop
  endfacet
  facet normal 0 0 -1
    outer loop
      vertex -107.002 -109.998 -3
      vertex -109.934 -107.624 -3
      vertex -109.971 -107.418 -3
    endloop
  endfacet
  facet normal 0 0 -1
    outer loop
      vertex -107.002 -109.998 -3
      vertex -107.105 -109.998 -3
      vertex -107.314 -109.984 -3
    endloop
  endfacet
  facet normal -0 0 -1
    outer loop
      vertex 107.002 -109.998 -3
      vertex 107 -110 -3
      vertex -107.002 -109.998 -3
    endloop
  endfacet
  facet normal 0 0 -1
    outer loop
      vertex -107.002 -109.998 -3
      vertex 107 -110 -3
      vertex -107 -110 -3
    endloop
  endfacet
  facet normal 0 0 -1
    outer loop
      vertex -110 -107 -3
      vertex -107.002 -109.998 -3
      vertex -109.993 -107.209 -3
    endloop
  endfacet
  facet normal 0 0 1
    outer loop
      vertex 107.314 -109.984 0
      vertex 107.002 -109.998 0
      vertex 107.105 -109.998 0
    endloop
  endfacet
  facet normal 0 0 1
    outer loop
      vertex 107.521 -109.954 0
      vertex 107.002 -109.998 0
      vertex 107.314 -109.984 0
    endloop
  endfacet
  facet normal 0 0 1
    outer loop
      vertex 107.002 109.998 0
      vertex 107.002 -109.998 0
      vertex 110 -107 0
    endloop
  endfacet
  facet normal 0 0 1
    outer loop
      vertex 107.726 -109.911 0
      vertex 107.002 -109.998 0
      vertex 107.521 -109.954 0
    endloop
  endfacet
  facet normal 0 0 1
    outer loop
      vertex 107.927 -109.853 0
      vertex 107.002 -109.998 0
      vertex 107.726 -109.911 0
    endloop
  endfacet
  facet normal 0 0 1
    outer loop
      vertex 108.124 -109.782 0
      vertex 107.002 -109.998 0
      vertex 107.927 -109.853 0
    endloop
  endfacet
  facet normal 0 0 1
    outer loop
      vertex 108.315 -109.696 0
      vertex 107.002 -109.998 0
      vertex 108.124 -109.782 0
    endloop
  endfacet
  facet normal 0 0 1
    outer loop
      vertex 108.5 -109.598 0
      vertex 107.002 -109.998 0
      vertex 108.315 -109.696 0
    endloop
  endfacet
  facet normal 0 0 1
    outer loop
      vertex 108.678 -109.487 0
      vertex 107.002 -109.998 0
      vertex 108.5 -109.598 0
    endloop
  endfacet
  facet normal 0 0 1
    outer loop
      vertex 108.847 -109.364 0
      vertex 107.002 -109.998 0
      vertex 108.678 -109.487 0
    endloop
  endfacet
  facet normal 0 0 1
    outer loop
      vertex 109.007 -109.229 0
      vertex 107.002 -109.998 0
      vertex 108.847 -109.364 0
    endloop
  endfacet
  facet normal 0 0 1
    outer loop
      vertex 109.158 -109.084 0
      vertex 107.002 -109.998 0
      vertex 109.007 -109.229 0
    endloop
  endfacet
  facet normal 0 0 1
    outer loop
      vertex 109.298 -108.928 0
      vertex 107.002 -109.998 0
      vertex 109.158 -109.084 0
    endloop
  endfacet
  facet normal 0 0 1
    outer loop
      vertex 109.427 -108.763 0
      vertex 107.002 -109.998 0
      vertex 109.298 -108.928 0
    endloop
  endfacet
  facet normal 0 0 1
    outer loop
      vertex 109.544 -108.59 0
      vertex 107.002 -109.998 0
      vertex 109.427 -108.763 0
    endloop
  endfacet
  facet normal 0 0 1
    outer loop
      vertex 109.649 -108.408 0
      vertex 107.002 -109.998 0
      vertex 109.544 -108.59 0
    endloop
  endfacet
  facet normal 0 0 1
    outer loop
      vertex 109.741 -108.22 0
      vertex 107.002 -109.998 0
      vertex 109.649 -108.408 0
    endloop
  endfacet
  facet normal 0 0 1
    outer loop
      vertex 109.819 -108.026 0
      vertex 107.002 -109.998 0
      vertex 109.741 -108.22 0
    endloop
  endfacet
  facet normal 0 0 1
    outer loop
      vertex 109.884 -107.827 0
      vertex 107.002 -109.998 0
      vertex 109.819 -108.026 0
    endloop
  endfacet
  facet normal 0 0 1
    outer loop
      vertex 109.934 -107.624 0
      vertex 107.002 -109.998 0
      vertex 109.884 -107.827 0
    endloop
  endfacet
  facet normal 0 0 1
    outer loop
      vertex 109.971 -107.418 0
      vertex 107.002 -109.998 0
      vertex 109.934 -107.624 0
    endloop
  endfacet
  facet normal 0 0 1
    outer loop
      vertex 109.993 -107.209 0
      vertex 107.002 -109.998 0
      vertex 109.971 -107.418 0
    endloop
  endfacet
  facet normal 0 0 1
    outer loop
      vertex 110 -107 0
      vertex 107.002 -109.998 0
      vertex 109.993 -107.209 0
    endloop
  endfacet
  facet normal 0 0 1
    outer loop
      vertex 110 107 0
      vertex 107.002 109.998 0
      vertex 110 -107 0
    endloop
  endfacet
  facet normal 0 0 1
    outer loop
      vertex 109.993 107.209 0
      vertex 109.971 107.418 0
      vertex 107.002 109.998 0
    endloop
  endfacet
  facet normal 0 0 1
    outer loop
      vertex 107.002 109.998 0
      vertex 109.934 107.624 0
      vertex 109.884 107.827 0
    endloop
  endfacet
  facet normal 0 0 1
    outer loop
      vertex 109.649 108.408 0
      vertex 107.002 109.998 0
      vertex 109.741 108.22 0
    endloop
  endfacet
  facet normal 0 0 1
    outer loop
      vertex 107.002 109.998 0
      vertex 109.819 108.026 0
      vertex 109.741 108.22 0
    endloop
  endfacet
  facet normal 0 0 1
    outer loop
      vertex 109.158 109.084 0
      vertex 109.007 109.229 0
      vertex 107.002 109.998 0
    endloop
  endfacet
  facet normal 0 0 1
    outer loop
      vertex 109.298 108.928 0
      vertex 107.002 109.998 0
      vertex 109.427 108.763 0
    endloop
  endfacet
  facet normal 0 0 1
    outer loop
      vertex 107.002 109.998 0
      vertex 109.544 108.59 0
      vertex 109.427 108.763 0
    endloop
  endfacet
  facet normal 0 0 1
    outer loop
      vertex 109.158 109.084 0
      vertex 107.002 109.998 0
      vertex 109.298 108.928 0
    endloop
  endfacet
  facet normal 0 0 1
    outer loop
      vertex 108.124 109.782 0
      vertex 107.927 109.853 0
      vertex 107.002 109.998 0
    endloop
  endfacet
  facet normal 0 0 1
    outer loop
      vertex 108.678 109.487 0
      vertex 107.002 109.998 0
      vertex 108.847 109.364 0
    endloop
  endfacet
  facet normal 0 0 1
    outer loop
      vertex 107.002 109.998 0
      vertex 109.007 109.229 0
      vertex 108.847 109.364 0
    endloop
  endfacet
  facet normal 0 0 1
    outer loop
      vertex 108.5 109.598 0
      vertex 107.002 109.998 0
      vertex 108.678 109.487 0
    endloop
  endfacet
  facet normal 0 0 1
    outer loop
      vertex 108.315 109.696 0
      vertex 107.002 109.998 0
      vertex 108.5 109.598 0
    endloop
  endfacet
  facet normal 0 0 1
    outer loop
      vertex 108.124 109.782 0
      vertex 107.002 109.998 0
      vertex 108.315 109.696 0
    endloop
  endfacet
  facet normal 0 0 1
    outer loop
      vertex 109.544 108.59 0
      vertex 107.002 109.998 0
      vertex 109.649 108.408 0
    endloop
  endfacet
  facet normal 0 0 1
    outer loop
      vertex 107.521 109.954 0
      vertex 107.002 109.998 0
      vertex 107.726 109.911 0
    endloop
  endfacet
  facet normal 0 0 1
    outer loop
      vertex 107.002 109.998 0
      vertex 107.927 109.853 0
      vertex 107.726 109.911 0
    endloop
  endfacet
  facet normal 0 0 1
    outer loop
      vertex 107.002 109.998 0
      vertex 109.884 107.827 0
      vertex 109.819 108.026 0
    endloop
  endfacet
  facet normal 0 0 1
    outer loop
      vertex 107.002 109.998 0
      vertex 107.521 109.954 0
      vertex 107.314 109.984 0
    endloop
  endfacet
  facet normal 0 0 1
    outer loop
      vertex 109.971 107.418 0
      vertex 109.934 107.624 0
      vertex 107.002 109.998 0
    endloop
  endfacet
  facet normal 0 0 1
    outer loop
      vertex 107.314 109.984 0
      vertex 107.105 109.998 0
      vertex 107.002 109.998 0
    endloop
  endfacet
  facet normal 0 0 1
    outer loop
      vertex 109.993 107.209 0
      vertex 107.002 109.998 0
      vertex 110 107 0
    endloop
  endfacet
  facet normal 0 0 1
    outer loop
      vertex -107.002 109.998 0
      vertex 107 110 0
      vertex -107 110 0
    endloop
  endfacet
  facet normal 0 0 1
    outer loop
      vertex 107.002 109.998 0
      vertex 107 110 0
      vertex -107.002 109.998 0
    endloop
  endfacet
  facet normal 0 0 1
    outer loop
      vertex 107.002 109.998 0
      vertex -107.002 109.998 0
      vertex 107.002 -109.998 0
    endloop
  endfacet
  facet normal 0 0 1
    outer loop
      vertex -107.002 -109.998 0
      vertex -110 107 0
      vertex -110 -107 0
    endloop
  endfacet
  facet normal -0 0 1
    outer loop
      vertex -107.105 109.998 0
      vertex -107.314 109.984 0
      vertex -107.002 109.998 0
    endloop
  endfacet
  facet normal -0 0 1
    outer loop
      vertex -107.314 109.984 0
      vertex -107.521 109.954 0
      vertex -107.002 109.998 0
    endloop
  endfacet
  facet normal -0 0 1
    outer loop
      vertex -107.521 109.954 0
      vertex -107.726 109.911 0
      vertex -107.002 109.998 0
    endloop
  endfacet
  facet normal -0 0 1
    outer loop
      vertex -107.726 109.911 0
      vertex -107.927 109.853 0
      vertex -107.002 109.998 0
    endloop
  endfacet
  facet normal -0 0 1
    outer loop
      vertex -107.927 109.853 0
      vertex -108.124 109.782 0
      vertex -107.002 109.998 0
    endloop
  endfacet
  facet normal -0 0 1
    outer loop
      vertex -108.124 109.782 0
      vertex -108.315 109.696 0
      vertex -107.002 109.998 0
    endloop
  endfacet
  facet normal -0 0 1
    outer loop
      vertex -108.315 109.696 0
      vertex -108.5 109.598 0
      vertex -107.002 109.998 0
    endloop
  endfacet
  facet normal -0 0 1
    outer loop
      vertex -108.5 109.598 0
      vertex -108.678 109.487 0
      vertex -107.002 109.998 0
    endloop
  endfacet
  facet normal -0 0 1
    outer loop
      vertex -108.678 109.487 0
      vertex -108.847 109.364 0
      vertex -107.002 109.998 0
    endloop
  endfacet
  facet normal -0 0 1
    outer loop
      vertex -108.847 109.364 0
      vertex -109.007 109.229 0
      vertex -107.002 109.998 0
    endloop
  endfacet
  facet normal -0 0 1
    outer loop
      vertex -109.007 109.229 0
      vertex -109.158 109.084 0
      vertex -107.002 109.998 0
    endloop
  endfacet
  facet normal -0 0 1
    outer loop
      vertex -109.158 109.084 0
      vertex -109.298 108.928 0
      vertex -107.002 109.998 0
    endloop
  endfacet
  facet normal -0 0 1
    outer loop
      vertex -109.298 108.928 0
      vertex -109.427 108.763 0
      vertex -107.002 109.998 0
    endloop
  endfacet
  facet normal -0 0 1
    outer loop
      vertex -109.427 108.763 0
      vertex -109.544 108.59 0
      vertex -107.002 109.998 0
    endloop
  endfacet
  facet normal -0 0 1
    outer loop
      vertex -109.544 108.59 0
      vertex -109.649 108.408 0
      vertex -107.002 109.998 0
    endloop
  endfacet
  facet normal -0 0 1
    outer loop
      vertex -109.649 108.408 0
      vertex -109.741 108.22 0
      vertex -107.002 109.998 0
    endloop
  endfacet
  facet normal -0 0 1
    outer loop
      vertex -109.741 108.22 0
      vertex -109.819 108.026 0
      vertex -107.002 109.998 0
    endloop
  endfacet
  facet normal -0 0 1
    outer loop
      vertex -109.819 108.026 0
      vertex -109.884 107.827 0
      vertex -107.002 109.998 0
    endloop
  endfacet
  facet normal -0 0 1
    outer loop
      vertex -109.884 107.827 0
      vertex -109.934 107.624 0
      vertex -107.002 109.998 0
    endloop
  endfacet
  facet normal -0 0 1
    outer loop
      vertex -109.934 107.624 0
      vertex -109.971 107.418 0
      vertex -107.002 109.998 0
    endloop
  endfacet
  facet normal -0 0 1
    outer loop
      vertex -109.971 107.418 0
      vertex -109.993 107.209 0
      vertex -107.002 109.998 0
    endloop
  endfacet
  facet normal -0 0 1
    outer loop
      vertex -109.993 107.209 0
      vertex -110 107 0
      vertex -107.002 109.998 0
    endloop
  endfacet
  facet normal 0 0 1
    outer loop
      vertex -107.002 109.998 0
      vertex -110 107 0
      vertex -107.002 -109.998 0
    endloop
  endfacet
  facet normal 0 0 1
    outer loop
      vertex -107.002 109.998 0
      vertex -107.002 -109.998 0
      vertex 107.002 -109.998 0
    endloop
  endfacet
  facet normal 0 0 1
    outer loop
      vertex -109.993 -107.209 0
      vertex -109.971 -107.418 0
      vertex -107.002 -109.998 0
    endloop
  endfacet
  facet normal 0 0 1
    outer loop
      vertex -107.002 -109.998 0
      vertex -109.934 -107.624 0
      vertex -109.884 -107.827 0
    endloop
  endfacet
  facet normal -0 -0 1
    outer loop
      vertex -109.649 -108.408 0
      vertex -107.002 -109.998 0
      vertex -109.741 -108.22 0
    endloop
  endfacet
  facet normal 0 0 1
    outer loop
      vertex -107.002 -109.998 0
      vertex -109.819 -108.026 0
      vertex -109.741 -108.22 0
    endloop
  endfacet
  facet normal 0 0 1
    outer loop
      vertex -109.158 -109.084 0
      vertex -109.007 -109.229 0
      vertex -107.002 -109.998 0
    endloop
  endfacet
  facet normal -0 -0 1
    outer loop
      vertex -109.298 -108.928 0
      vertex -107.002 -109.998 0
      vertex -109.427 -108.763 0
    endloop
  endfacet
  facet normal 0 0 1
    outer loop
      vertex -107.002 -109.998 0
      vertex -109.544 -108.59 0
      vertex -109.427 -108.763 0
    endloop
  endfacet
  facet normal -0 -0 1
    outer loop
      vertex -109.158 -109.084 0
      vertex -107.002 -109.998 0
      vertex -109.298 -108.928 0
    endloop
  endfacet
  facet normal 0 0 1
    outer loop
      vertex -108.124 -109.782 0
      vertex -107.927 -109.853 0
      vertex -107.002 -109.998 0
    endloop
  endfacet
  facet normal -0 -0 1
    outer loop
      vertex -108.678 -109.487 0
      vertex -107.002 -109.998 0
      vertex -108.847 -109.364 0
    endloop
  endfacet
  facet normal 0 0 1
    outer loop
      vertex -107.002 -109.998 0
      vertex -109.007 -109.229 0
      vertex -108.847 -109.364 0
    endloop
  endfacet
  facet normal -0 -0 1
    outer loop
      vertex -108.5 -109.598 0
      vertex -107.002 -109.998 0
      vertex -108.678 -109.487 0
    endloop
  endfacet
  facet normal -0 -0 1
    outer loop
      vertex -108.315 -109.696 0
      vertex -107.002 -109.998 0
      vertex -108.5 -109.598 0
    endloop
  endfacet
  facet normal -0 -0 1
    outer loop
      vertex -108.124 -109.782 0
      vertex -107.002 -109.998 0
      vertex -108.315 -109.696 0
    endloop
  endfacet
  facet normal -0 -0 1
    outer loop
      vertex -109.544 -108.59 0
      vertex -107.002 -109.998 0
      vertex -109.649 -108.408 0
    endloop
  endfacet
  facet normal -0 -0 1
    outer loop
      vertex -107.521 -109.954 0
      vertex -107.002 -109.998 0
      vertex -107.726 -109.911 0
    endloop
  endfacet
  facet normal 0 0 1
    outer loop
      vertex -107.002 -109.998 0
      vertex -107.927 -109.853 0
      vertex -107.726 -109.911 0
    endloop
  endfacet
  facet normal 0 0 1
    outer loop
      vertex -107.002 -109.998 0
      vertex -109.884 -107.827 0
      vertex -109.819 -108.026 0
    endloop
  endfacet
  facet normal 0 0 1
    outer loop
      vertex -107.002 -109.998 0
      vertex -107.521 -109.954 0
      vertex -107.314 -109.984 0
    endloop
  endfacet
  facet normal 0 0 1
    outer loop
      vertex -109.971 -107.418 0
      vertex -109.934 -107.624 0
      vertex -107.002 -109.998 0
    endloop
  endfacet
  facet normal 0 0 1
    outer loop
      vertex -107.314 -109.984 0
      vertex -107.105 -109.998 0
      vertex -107.002 -109.998 0
    endloop
  endfacet
  facet normal -0 0 1
    outer loop
      vertex -107.002 -109.998 0
      vertex 107 -110 0
      vertex 107.002 -109.998 0
    endloop
  endfacet
  facet normal 0 -0 1
    outer loop
      vertex -107 -110 0
      vertex 107 -110 0
      vertex -107.002 -109.998 0
    endloop
  endfacet
  facet normal -0 -0 1
    outer loop
      vertex -109.993 -107.209 0
      vertex -107.002 -109.998 0
      vertex -110 -107 0
    endloop
  endfacet
  facet normal 0 -1 0
    outer loop
      vertex 107.105 -109.998 -3
      vertex 107.002 -109.998 0
      vertex 107.002 -109.998 -3
    endloop
  endfacet
  facet normal 0 -1 0
    outer loop
      vertex 107.105 -109.998 -3
      vertex 107.105 -109.998 0
      vertex 107.002 -109.998 0
    endloop
  endfacet
  facet normal 0.0668359 -0.997764 0
    outer loop
      vertex 107.314 -109.984 -3
      vertex 107.105 -109.998 0
      vertex 107.105 -109.998 -3
    endloop
  endfacet
  facet normal 0.0668359 -0.997764 0
    outer loop
      vertex 107.314 -109.984 -3
      vertex 107.314 -109.984 0
      vertex 107.105 -109.998 0
    endloop
  endfacet
  facet normal 0.143429 -0.989661 0
    outer loop
      vertex 107.521 -109.954 -3
      vertex 107.314 -109.984 0
      vertex 107.314 -109.984 -3
    endloop
  endfacet
  facet normal 0.143429 -0.989661 0
    outer loop
      vertex 107.521 -109.954 -3
      vertex 107.521 -109.954 0
      vertex 107.314 -109.984 0
    endloop
  endfacet
  facet normal 0.205289 -0.978701 0
    outer loop
      vertex 107.726 -109.911 -3
      vertex 107.521 -109.954 0
      vertex 107.521 -109.954 -3
    endloop
  endfacet
  facet normal 0.205289 -0.978701 0
    outer loop
      vertex 107.726 -109.911 -3
      vertex 107.726 -109.911 0
      vertex 107.521 -109.954 0
    endloop
  endfacet
  facet normal 0.277246 -0.960799 0
    outer loop
      vertex 107.927 -109.853 -3
      vertex 107.726 -109.911 0
      vertex 107.726 -109.911 -3
    endloop
  endfacet
  facet normal 0.277246 -0.960799 0
    outer loop
      vertex 107.927 -109.853 -3
      vertex 107.927 -109.853 0
      vertex 107.726 -109.911 0
    endloop
  endfacet
  facet normal 0.339058 -0.940766 0
    outer loop
      vertex 108.124 -109.782 -3
      vertex 107.927 -109.853 0
      vertex 107.927 -109.853 -3
    endloop
  endfacet
  facet normal 0.339058 -0.940766 0
    outer loop
      vertex 108.124 -109.782 -3
      vertex 108.124 -109.782 0
      vertex 107.927 -109.853 0
    endloop
  endfacet
  facet normal 0.410563 -0.911832 0
    outer loop
      vertex 108.315 -109.696 -3
      vertex 108.124 -109.782 0
      vertex 108.124 -109.782 -3
    endloop
  endfacet
  facet normal 0.410563 -0.911832 0
    outer loop
      vertex 108.315 -109.696 -3
      vertex 108.315 -109.696 0
      vertex 108.124 -109.782 0
    endloop
  endfacet
  facet normal 0.468107 -0.883672 0
    outer loop
      vertex 108.5 -109.598 -3
      vertex 108.315 -109.696 0
      vertex 108.315 -109.696 -3
    endloop
  endfacet
  facet normal 0.468107 -0.883672 0
    outer loop
      vertex 108.5 -109.598 -3
      vertex 108.5 -109.598 0
      vertex 108.315 -109.696 0
    endloop
  endfacet
  facet normal 0.529142 -0.848533 0
    outer loop
      vertex 108.678 -109.487 -3
      vertex 108.5 -109.598 0
      vertex 108.5 -109.598 -3
    endloop
  endfacet
  facet normal 0.529142 -0.848533 0
    outer loop
      vertex 108.678 -109.487 -3
      vertex 108.678 -109.487 0
      vertex 108.5 -109.598 0
    endloop
  endfacet
  facet normal 0.588456 -0.808529 0
    outer loop
      vertex 108.847 -109.364 -3
      vertex 108.678 -109.487 0
      vertex 108.678 -109.487 -3
    endloop
  endfacet
  facet normal 0.588456 -0.808529 0
    outer loop
      vertex 108.847 -109.364 -3
      vertex 108.847 -109.364 0
      vertex 108.678 -109.487 0
    endloop
  endfacet
  facet normal 0.644871 -0.764291 0
    outer loop
      vertex 109.007 -109.229 -3
      vertex 108.847 -109.364 0
      vertex 108.847 -109.364 -3
    endloop
  endfacet
  facet normal 0.644871 -0.764291 0
    outer loop
      vertex 109.007 -109.229 -3
      vertex 109.007 -109.229 0
      vertex 108.847 -109.364 0
    endloop
  endfacet
  facet normal 0.692631 -0.721292 0
    outer loop
      vertex 109.158 -109.084 -3
      vertex 109.007 -109.229 0
      vertex 109.007 -109.229 -3
    endloop
  endfacet
  facet normal 0.692631 -0.721292 0
    outer loop
      vertex 109.158 -109.084 -3
      vertex 109.158 -109.084 0
      vertex 109.007 -109.229 0
    endloop
  endfacet
  facet normal 0.744242 -0.66791 0
    outer loop
      vertex 109.298 -108.928 -3
      vertex 109.158 -109.084 0
      vertex 109.158 -109.084 -3
    endloop
  endfacet
  facet normal 0.744242 -0.66791 0
    outer loop
      vertex 109.298 -108.928 -3
      vertex 109.298 -108.928 0
      vertex 109.158 -109.084 0
    endloop
  endfacet
  facet normal 0.787807 -0.615922 0
    outer loop
      vertex 109.427 -108.763 -3
      vertex 109.298 -108.928 0
      vertex 109.298 -108.928 -3
    endloop
  endfacet
  facet normal 0.787807 -0.615922 0
    outer loop
      vertex 109.427 -108.763 -3
      vertex 109.427 -108.763 0
      vertex 109.298 -108.928 0
    endloop
  endfacet
  facet normal 0.828349 -0.560213 0
    outer loop
      vertex 109.544 -108.59 -3
      vertex 109.427 -108.763 0
      vertex 109.427 -108.763 -3
    endloop
  endfacet
  facet normal 0.828349 -0.560213 0
    outer loop
      vertex 109.544 -108.59 -3
      vertex 109.544 -108.59 0
      vertex 109.427 -108.763 0
    endloop
  endfacet
  facet normal 0.866186 -0.499722 0
    outer loop
      vertex 109.649 -108.408 -3
      vertex 109.544 -108.59 0
      vertex 109.544 -108.59 -3
    endloop
  endfacet
  facet normal 0.866186 -0.499722 0
    outer loop
      vertex 109.649 -108.408 -3
      vertex 109.649 -108.408 0
      vertex 109.544 -108.59 0
    endloop
  endfacet
  facet normal 0.898217 -0.439553 0
    outer loop
      vertex 109.741 -108.22 -3
      vertex 109.649 -108.408 0
      vertex 109.649 -108.408 -3
    endloop
  endfacet
  facet normal 0.898217 -0.439553 0
    outer loop
      vertex 109.741 -108.22 -3
      vertex 109.741 -108.22 0
      vertex 109.649 -108.408 0
    endloop
  endfacet
  facet normal 0.927816 -0.373039 0
    outer loop
      vertex 109.819 -108.026 -3
      vertex 109.741 -108.22 0
      vertex 109.741 -108.22 -3
    endloop
  endfacet
  facet normal 0.927816 -0.373039 0
    outer loop
      vertex 109.819 -108.026 -3
      vertex 109.819 -108.026 0
      vertex 109.741 -108.22 0
    endloop
  endfacet
  facet normal 0.950577 -0.31049 0
    outer loop
      vertex 109.884 -107.827 -3
      vertex 109.819 -108.026 0
      vertex 109.819 -108.026 -3
    endloop
  endfacet
  facet normal 0.950577 -0.31049 0
    outer loop
      vertex 109.884 -107.827 -3
      vertex 109.884 -107.827 0
      vertex 109.819 -108.026 0
    endloop
  endfacet
  facet normal 0.970981 -0.239158 0
    outer loop
      vertex 109.934 -107.624 -3
      vertex 109.884 -107.827 0
      vertex 109.884 -107.827 -3
    endloop
  endfacet
  facet normal 0.970981 -0.239158 0
    outer loop
      vertex 109.934 -107.624 -3
      vertex 109.934 -107.624 0
      vertex 109.884 -107.827 0
    endloop
  endfacet
  facet normal 0.98425 -0.176783 0
    outer loop
      vertex 109.971 -107.418 -3
      vertex 109.934 -107.624 0
      vertex 109.934 -107.624 -3
    endloop
  endfacet
  facet normal 0.98425 -0.176783 0
    outer loop
      vertex 109.971 -107.418 -3
      vertex 109.971 -107.418 0
      vertex 109.934 -107.624 0
    endloop
  endfacet
  facet normal 0.994505 -0.104685 0
    outer loop
      vertex 109.993 -107.209 -3
      vertex 109.971 -107.418 0
      vertex 109.971 -107.418 -3
    endloop
  endfacet
  facet normal 0.994505 -0.104685 0
    outer loop
      vertex 109.993 -107.209 -3
      vertex 109.993 -107.209 0
      vertex 109.971 -107.418 0
    endloop
  endfacet
  facet normal 0.99944 -0.0334741 0
    outer loop
      vertex 110 -107 -3
      vertex 109.993 -107.209 0
      vertex 109.993 -107.209 -3
    endloop
  endfacet
  facet normal 0.99944 -0.0334741 0
    outer loop
      vertex 110 -107 -3
      vertex 110 -107 0
      vertex 109.993 -107.209 0
    endloop
  endfacet
  facet normal 1 0 0
    outer loop
      vertex 110 107 -3
      vertex 110 -107 0
      vertex 110 -107 -3
    endloop
  endfacet
  facet normal 1 0 -0
    outer loop
      vertex 110 107 -3
      vertex 110 107 0
      vertex 110 -107 0
    endloop
  endfacet
  facet normal 0.99944 0.0334741 0
    outer loop
      vertex 109.993 107.209 -3
      vertex 110 107 0
      vertex 110 107 -3
    endloop
  endfacet
  facet normal 0.99944 0.0334741 -0
    outer loop
      vertex 109.993 107.209 -3
      vertex 109.993 107.209 0
      vertex 110 107 0
    endloop
  endfacet
  facet normal 0.994505 0.104685 0
    outer loop
      vertex 109.971 107.418 -3
      vertex 109.993 107.209 0
      vertex 109.993 107.209 -3
    endloop
  endfacet
  facet normal 0.994505 0.104685 -0
    outer loop
      vertex 109.971 107.418 -3
      vertex 109.971 107.418 0
      vertex 109.993 107.209 0
    endloop
  endfacet
  facet normal 0.98425 0.176783 0
    outer loop
      vertex 109.934 107.624 -3
      vertex 109.971 107.418 0
      vertex 109.971 107.418 -3
    endloop
  endfacet
  facet normal 0.98425 0.176783 -0
    outer loop
      vertex 109.934 107.624 -3
      vertex 109.934 107.624 0
      vertex 109.971 107.418 0
    endloop
  endfacet
  facet normal 0.970981 0.239158 0
    outer loop
      vertex 109.884 107.827 -3
      vertex 109.934 107.624 0
      vertex 109.934 107.624 -3
    endloop
  endfacet
  facet normal 0.970981 0.239158 -0
    outer loop
      vertex 109.884 107.827 -3
      vertex 109.884 107.827 0
      vertex 109.934 107.624 0
    endloop
  endfacet
  facet normal 0.950577 0.31049 0
    outer loop
      vertex 109.819 108.026 -3
      vertex 109.884 107.827 0
      vertex 109.884 107.827 -3
    endloop
  endfacet
  facet normal 0.950577 0.31049 -0
    outer loop
      vertex 109.819 108.026 -3
      vertex 109.819 108.026 0
      vertex 109.884 107.827 0
    endloop
  endfacet
  facet normal 0.927816 0.373039 0
    outer loop
      vertex 109.741 108.22 -3
      vertex 109.819 108.026 0
      vertex 109.819 108.026 -3
    endloop
  endfacet
  facet normal 0.927816 0.373039 -0
    outer loop
      vertex 109.741 108.22 -3
      vertex 109.741 108.22 0
      vertex 109.819 108.026 0
    endloop
  endfacet
  facet normal 0.898217 0.439553 0
    outer loop
      vertex 109.649 108.408 -3
      vertex 109.741 108.22 0
      vertex 109.741 108.22 -3
    endloop
  endfacet
  facet normal 0.898217 0.439553 -0
    outer loop
      vertex 109.649 108.408 -3
      vertex 109.649 108.408 0
      vertex 109.741 108.22 0
    endloop
  endfacet
  facet normal 0.866186 0.499722 0
    outer loop
      vertex 109.544 108.59 -3
      vertex 109.649 108.408 0
      vertex 109.649 108.408 -3
    endloop
  endfacet
  facet normal 0.866186 0.499722 -0
    outer loop
      vertex 109.544 108.59 -3
      vertex 109.544 108.59 0
      vertex 109.649 108.408 0
    endloop
  endfacet
  facet normal 0.828349 0.560213 0
    outer loop
      vertex 109.427 108.763 -3
      vertex 109.544 108.59 0
      vertex 109.544 108.59 -3
    endloop
  endfacet
  facet normal 0.828349 0.560213 -0
    outer loop
      vertex 109.427 108.763 -3
      vertex 109.427 108.763 0
      vertex 109.544 108.59 0
    endloop
  endfacet
  facet normal 0.787807 0.615922 0
    outer loop
      vertex 109.298 108.928 -3
      vertex 109.427 108.763 0
      vertex 109.427 108.763 -3
    endloop
  endfacet
  facet normal 0.787807 0.615922 -0
    outer loop
      vertex 109.298 108.928 -3
      vertex 109.298 108.928 0
      vertex 109.427 108.763 0
    endloop
  endfacet
  facet normal 0.744242 0.66791 0
    outer loop
      vertex 109.158 109.084 -3
      vertex 109.298 108.928 0
      vertex 109.298 108.928 -3
    endloop
  endfacet
  facet normal 0.744242 0.66791 -0
    outer loop
      vertex 109.158 109.084 -3
      vertex 109.158 109.084 0
      vertex 109.298 108.928 0
    endloop
  endfacet
  facet normal 0.692631 0.721292 0
    outer loop
      vertex 109.007 109.229 -3
      vertex 109.158 109.084 0
      vertex 109.158 109.084 -3
    endloop
  endfacet
  facet normal 0.692631 0.721292 -0
    outer loop
      vertex 109.007 109.229 -3
      vertex 109.007 109.229 0
      vertex 109.158 109.084 0
    endloop
  endfacet
  facet normal 0.644871 0.764291 0
    outer loop
      vertex 108.847 109.364 -3
      vertex 109.007 109.229 0
      vertex 109.007 109.229 -3
    endloop
  endfacet
  facet normal 0.644871 0.764291 -0
    outer loop
      vertex 108.847 109.364 -3
      vertex 108.847 109.364 0
      vertex 109.007 109.229 0
    endloop
  endfacet
  facet normal 0.588456 0.808529 0
    outer loop
      vertex 108.678 109.487 -3
      vertex 108.847 109.364 0
      vertex 108.847 109.364 -3
    endloop
  endfacet
  facet normal 0.588456 0.808529 -0
    outer loop
      vertex 108.678 109.487 -3
      vertex 108.678 109.487 0
      vertex 108.847 109.364 0
    endloop
  endfacet
  facet normal 0.529142 0.848533 0
    outer loop
      vertex 108.5 109.598 -3
      vertex 108.678 109.487 0
      vertex 108.678 109.487 -3
    endloop
  endfacet
  facet normal 0.529142 0.848533 -0
    outer loop
      vertex 108.5 109.598 -3
      vertex 108.5 109.598 0
      vertex 108.678 109.487 0
    endloop
  endfacet
  facet normal 0.468107 0.883672 0
    outer loop
      vertex 108.315 109.696 -3
      vertex 108.5 109.598 0
      vertex 108.5 109.598 -3
    endloop
  endfacet
  facet normal 0.468107 0.883672 -0
    outer loop
      vertex 108.315 109.696 -3
      vertex 108.315 109.696 0
      vertex 108.5 109.598 0
    endloop
  endfacet
  facet normal 0.410563 0.911832 0
    outer loop
      vertex 108.124 109.782 -3
      vertex 108.315 109.696 0
      vertex 108.315 109.696 -3
    endloop
  endfacet
  facet normal 0.410563 0.911832 -0
    outer loop
      vertex 108.124 109.782 -3
      vertex 108.124 109.782 0
      vertex 108.315 109.696 0
    endloop
  endfacet
  facet normal 0.339058 0.940766 0
    outer loop
      vertex 107.927 109.853 -3
      vertex 108.124 109.782 0
      vertex 108.124 109.782 -3
    endloop
  endfacet
  facet normal 0.339058 0.940766 -0
    outer loop
      vertex 107.927 109.853 -3
      vertex 107.927 109.853 0
      vertex 108.124 109.782 0
    endloop
  endfacet
  facet normal 0.277246 0.960799 0
    outer loop
      vertex 107.726 109.911 -3
      vertex 107.927 109.853 0
      vertex 107.927 109.853 -3
    endloop
  endfacet
  facet normal 0.277246 0.960799 -0
    outer loop
      vertex 107.726 109.911 -3
      vertex 107.726 109.911 0
      vertex 107.927 109.853 0
    endloop
  endfacet
  facet normal 0.205289 0.978701 0
    outer loop
      vertex 107.521 109.954 -3
      vertex 107.726 109.911 0
      vertex 107.726 109.911 -3
    endloop
  endfacet
  facet normal 0.205289 0.978701 -0
    outer loop
      vertex 107.521 109.954 -3
      vertex 107.521 109.954 0
      vertex 107.726 109.911 0
    endloop
  endfacet
  facet normal 0.143429 0.989661 0
    outer loop
      vertex 107.314 109.984 -3
      vertex 107.521 109.954 0
      vertex 107.521 109.954 -3
    endloop
  endfacet
  facet normal 0.143429 0.989661 -0
    outer loop
      vertex 107.314 109.984 -3
      vertex 107.314 109.984 0
      vertex 107.521 109.954 0
    endloop
  endfacet
  facet normal 0.0668359 0.997764 0
    outer loop
      vertex 107.105 109.998 -3
      vertex 107.314 109.984 0
      vertex 107.314 109.984 -3
    endloop
  endfacet
  facet normal 0.0668359 0.997764 -0
    outer loop
      vertex 107.105 109.998 -3
      vertex 107.105 109.998 0
      vertex 107.314 109.984 0
    endloop
  endfacet
  facet normal 0 1 0
    outer loop
      vertex 107.002 109.998 -3
      vertex 107.105 109.998 0
      vertex 107.105 109.998 -3
    endloop
  endfacet
  facet normal 0 1 0
    outer loop
      vertex 107.002 109.998 -3
      vertex 107.002 109.998 0
      vertex 107.105 109.998 0
    endloop
  endfacet
  facet normal 0.707107 0.707107 0
    outer loop
      vertex 107 110 -3
      vertex 107.002 109.998 0
      vertex 107.002 109.998 -3
    endloop
  endfacet
  facet normal 0.707107 0.707107 -0
    outer loop
      vertex 107 110 -3
      vertex 107 110 0
      vertex 107.002 109.998 0
    endloop
  endfacet
  facet normal 0 1 0
    outer loop
      vertex -107 110 -3
      vertex 107 110 0
      vertex 107 110 -3
    endloop
  endfacet
  facet normal 0 1 0
    outer loop
      vertex -107 110 -3
      vertex -107 110 0
      vertex 107 110 0
    endloop
  endfacet
  facet normal -0.707107 0.707107 0
    outer loop
      vertex -107.002 109.998 -3
      vertex -107 110 0
      vertex -107 110 -3
    endloop
  endfacet
  facet normal -0.707107 0.707107 0
    outer loop
      vertex -107.002 109.998 -3
      vertex -107.002 109.998 0
      vertex -107 110 0
    endloop
  endfacet
  facet normal 0 1 0
    outer loop
      vertex -107.105 109.998 -3
      vertex -107.002 109.998 0
      vertex -107.002 109.998 -3
    endloop
  endfacet
  facet normal 0 1 0
    outer loop
      vertex -107.105 109.998 -3
      vertex -107.105 109.998 0
      vertex -107.002 109.998 0
    endloop
  endfacet
  facet normal -0.0668359 0.997764 0
    outer loop
      vertex -107.314 109.984 -3
      vertex -107.105 109.998 0
      vertex -107.105 109.998 -3
    endloop
  endfacet
  facet normal -0.0668359 0.997764 0
    outer loop
      vertex -107.314 109.984 -3
      vertex -107.314 109.984 0
      vertex -107.105 109.998 0
    endloop
  endfacet
  facet normal -0.143429 0.989661 0
    outer loop
      vertex -107.521 109.954 -3
      vertex -107.314 109.984 0
      vertex -107.314 109.984 -3
    endloop
  endfacet
  facet normal -0.143429 0.989661 0
    outer loop
      vertex -107.521 109.954 -3
      vertex -107.521 109.954 0
      vertex -107.314 109.984 0
    endloop
  endfacet
  facet normal -0.205289 0.978701 0
    outer loop
      vertex -107.726 109.911 -3
      vertex -107.521 109.954 0
      vertex -107.521 109.954 -3
    endloop
  endfacet
  facet normal -0.205289 0.978701 0
    outer loop
      vertex -107.726 109.911 -3
      vertex -107.726 109.911 0
      vertex -107.521 109.954 0
    endloop
  endfacet
  facet normal -0.277246 0.960799 0
    outer loop
      vertex -107.927 109.853 -3
      vertex -107.726 109.911 0
      vertex -107.726 109.911 -3
    endloop
  endfacet
  facet normal -0.277246 0.960799 0
    outer loop
      vertex -107.927 109.853 -3
      vertex -107.927 109.853 0
      vertex -107.726 109.911 0
    endloop
  endfacet
  facet normal -0.339058 0.940766 0
    outer loop
      vertex -108.124 109.782 -3
      vertex -107.927 109.853 0
      vertex -107.927 109.853 -3
    endloop
  endfacet
  facet normal -0.339058 0.940766 0
    outer loop
      vertex -108.124 109.782 -3
      vertex -108.124 109.782 0
      vertex -107.927 109.853 0
    endloop
  endfacet
  facet normal -0.410563 0.911832 0
    outer loop
      vertex -108.315 109.696 -3
      vertex -108.124 109.782 0
      vertex -108.124 109.782 -3
    endloop
  endfacet
  facet normal -0.410563 0.911832 0
    outer loop
      vertex -108.315 109.696 -3
      vertex -108.315 109.696 0
      vertex -108.124 109.782 0
    endloop
  endfacet
  facet normal -0.468107 0.883672 0
    outer loop
      vertex -108.5 109.598 -3
      vertex -108.315 109.696 0
      vertex -108.315 109.696 -3
    endloop
  endfacet
  facet normal -0.468107 0.883672 0
    outer loop
      vertex -108.5 109.598 -3
      vertex -108.5 109.598 0
      vertex -108.315 109.696 0
    endloop
  endfacet
  facet normal -0.529142 0.848533 0
    outer loop
      vertex -108.678 109.487 -3
      vertex -108.5 109.598 0
      vertex -108.5 109.598 -3
    endloop
  endfacet
  facet normal -0.529142 0.848533 0
    outer loop
      vertex -108.678 109.487 -3
      vertex -108.678 109.487 0
      vertex -108.5 109.598 0
    endloop
  endfacet
  facet normal -0.588456 0.808529 0
    outer loop
      vertex -108.847 109.364 -3
      vertex -108.678 109.487 0
      vertex -108.678 109.487 -3
    endloop
  endfacet
  facet normal -0.588456 0.808529 0
    outer loop
      vertex -108.847 109.364 -3
      vertex -108.847 109.364 0
      vertex -108.678 109.487 0
    endloop
  endfacet
  facet normal -0.644871 0.764291 0
    outer loop
      vertex -109.007 109.229 -3
      vertex -108.847 109.364 0
      vertex -108.847 109.364 -3
    endloop
  endfacet
  facet normal -0.644871 0.764291 0
    outer loop
      vertex -109.007 109.229 -3
      vertex -109.007 109.229 0
      vertex -108.847 109.364 0
    endloop
  endfacet
  facet normal -0.692631 0.721292 0
    outer loop
      vertex -109.158 109.084 -3
      vertex -109.007 109.229 0
      vertex -109.007 109.229 -3
    endloop
  endfacet
  facet normal -0.692631 0.721292 0
    outer loop
      vertex -109.158 109.084 -3
      vertex -109.158 109.084 0
      vertex -109.007 109.229 0
    endloop
  endfacet
  facet normal -0.744242 0.66791 0
    outer loop
      vertex -109.298 108.928 -3
      vertex -109.158 109.084 0
      vertex -109.158 109.084 -3
    endloop
  endfacet
  facet normal -0.744242 0.66791 0
    outer loop
      vertex -109.298 108.928 -3
      vertex -109.298 108.928 0
      vertex -109.158 109.084 0
    endloop
  endfacet
  facet normal -0.787807 0.615922 0
    outer loop
      vertex -109.427 108.763 -3
      vertex -109.298 108.928 0
      vertex -109.298 108.928 -3
    endloop
  endfacet
  facet normal -0.787807 0.615922 0
    outer loop
      vertex -109.427 108.763 -3
      vertex -109.427 108.763 0
      vertex -109.298 108.928 0
    endloop
  endfacet
  facet normal -0.828349 0.560213 0
    outer loop
      vertex -109.544 108.59 -3
      vertex -109.427 108.763 0
      vertex -109.427 108.763 -3
    endloop
  endfacet
  facet normal -0.828349 0.560213 0
    outer loop
      vertex -109.544 108.59 -3
      vertex -109.544 108.59 0
      vertex -109.427 108.763 0
    endloop
  endfacet
  facet normal -0.866186 0.499722 0
    outer loop
      vertex -109.649 108.408 -3
      vertex -109.544 108.59 0
      vertex -109.544 108.59 -3
    endloop
  endfacet
  facet normal -0.866186 0.499722 0
    outer loop
      vertex -109.649 108.408 -3
      vertex -109.649 108.408 0
      vertex -109.544 108.59 0
    endloop
  endfacet
  facet normal -0.898217 0.439553 0
    outer loop
      vertex -109.741 108.22 -3
      vertex -109.649 108.408 0
      vertex -109.649 108.408 -3
    endloop
  endfacet
  facet normal -0.898217 0.439553 0
    outer loop
      vertex -109.741 108.22 -3
      vertex -109.741 108.22 0
      vertex -109.649 108.408 0
    endloop
  endfacet
  facet normal -0.927816 0.373039 0
    outer loop
      vertex -109.819 108.026 -3
      vertex -109.741 108.22 0
      vertex -109.741 108.22 -3
    endloop
  endfacet
  facet normal -0.927816 0.373039 0
    outer loop
      vertex -109.819 108.026 -3
      vertex -109.819 108.026 0
      vertex -109.741 108.22 0
    endloop
  endfacet
  facet normal -0.950577 0.31049 0
    outer loop
      vertex -109.884 107.827 -3
      vertex -109.819 108.026 0
      vertex -109.819 108.026 -3
    endloop
  endfacet
  facet normal -0.950577 0.31049 0
    outer loop
      vertex -109.884 107.827 -3
      vertex -109.884 107.827 0
      vertex -109.819 108.026 0
    endloop
  endfacet
  facet normal -0.970981 0.239158 0
    outer loop
      vertex -109.934 107.624 -3
      vertex -109.884 107.827 0
      vertex -109.884 107.827 -3
    endloop
  endfacet
  facet normal -0.970981 0.239158 0
    outer loop
      vertex -109.934 107.624 -3
      vertex -109.934 107.624 0
      vertex -109.884 107.827 0
    endloop
  endfacet
  facet normal -0.98425 0.176783 0
    outer loop
      vertex -109.971 107.418 -3
      vertex -109.934 107.624 0
      vertex -109.934 107.624 -3
    endloop
  endfacet
  facet normal -0.98425 0.176783 0
    outer loop
      vertex -109.971 107.418 -3
      vertex -109.971 107.418 0
      vertex -109.934 107.624 0
    endloop
  endfacet
  facet normal -0.994505 0.104685 0
    outer loop
      vertex -109.993 107.209 -3
      vertex -109.971 107.418 0
      vertex -109.971 107.418 -3
    endloop
  endfacet
  facet normal -0.994505 0.104685 0
    outer loop
      vertex -109.993 107.209 -3
      vertex -109.993 107.209 0
      vertex -109.971 107.418 0
    endloop
  endfacet
  facet normal -0.99944 0.0334741 0
    outer loop
      vertex -110 107 -3
      vertex -109.993 107.209 0
      vertex -109.993 107.209 -3
    endloop
  endfacet
  facet normal -0.99944 0.0334741 0
    outer loop
      vertex -110 107 -3
      vertex -110 107 0
      vertex -109.993 107.209 0
    endloop
  endfacet
  facet normal -1 0 0
    outer loop
      vertex -110 -107 -3
      vertex -110 107 0
      vertex -110 107 -3
    endloop
  endfacet
  facet normal -1 0 0
    outer loop
      vertex -110 -107 -3
      vertex -110 -107 0
      vertex -110 107 0
    endloop
  endfacet
  facet normal -0.99944 -0.0334741 0
    outer loop
      vertex -109.993 -107.209 -3
      vertex -110 -107 0
      vertex -110 -107 -3
    endloop
  endfacet
  facet normal -0.99944 -0.0334741 0
    outer loop
      vertex -109.993 -107.209 -3
      vertex -109.993 -107.209 0
      vertex -110 -107 0
    endloop
  endfacet
  facet normal -0.994505 -0.104685 0
    outer loop
      vertex -109.971 -107.418 -3
      vertex -109.993 -107.209 0
      vertex -109.993 -107.209 -3
    endloop
  endfacet
  facet normal -0.994505 -0.104685 0
    outer loop
      vertex -109.971 -107.418 -3
      vertex -109.971 -107.418 0
      vertex -109.993 -107.209 0
    endloop
  endfacet
  facet normal -0.98425 -0.176783 0
    outer loop
      vertex -109.934 -107.624 -3
      vertex -109.971 -107.418 0
      vertex -109.971 -107.418 -3
    endloop
  endfacet
  facet normal -0.98425 -0.176783 0
    outer loop
      vertex -109.934 -107.624 -3
      vertex -109.934 -107.624 0
      vertex -109.971 -107.418 0
    endloop
  endfacet
  facet normal -0.970981 -0.239158 0
    outer loop
      vertex -109.884 -107.827 -3
      vertex -109.934 -107.624 0
      vertex -109.934 -107.624 -3
    endloop
  endfacet
  facet normal -0.970981 -0.239158 0
    outer loop
      vertex -109.884 -107.827 -3
      vertex -109.884 -107.827 0
      vertex -109.934 -107.624 0
    endloop
  endfacet
  facet normal -0.950577 -0.31049 0
    outer loop
      vertex -109.819 -108.026 -3
      vertex -109.884 -107.827 0
      vertex -109.884 -107.827 -3
    endloop
  endfacet
  facet normal -0.950577 -0.31049 0
    outer loop
      vertex -109.819 -108.026 -3
      vertex -109.819 -108.026 0
      vertex -109.884 -107.827 0
    endloop
  endfacet
  facet normal -0.927816 -0.373039 0
    outer loop
      vertex -109.741 -108.22 -3
      vertex -109.819 -108.026 0
      vertex -109.819 -108.026 -3
    endloop
  endfacet
  facet normal -0.927816 -0.373039 0
    outer loop
      vertex -109.741 -108.22 -3
      vertex -109.741 -108.22 0
      vertex -109.819 -108.026 0
    endloop
  endfacet
  facet normal -0.898217 -0.439553 0
    outer loop
      vertex -109.649 -108.408 -3
      vertex -109.741 -108.22 0
      vertex -109.741 -108.22 -3
    endloop
  endfacet
  facet normal -0.898217 -0.439553 0
    outer loop
      vertex -109.649 -108.408 -3
      vertex -109.649 -108.408 0
      vertex -109.741 -108.22 0
    endloop
  endfacet
  facet normal -0.866186 -0.499722 0
    outer loop
      vertex -109.544 -108.59 -3
      vertex -109.649 -108.408 0
      vertex -109.649 -108.408 -3
    endloop
  endfacet
  facet normal -0.866186 -0.499722 0
    outer loop
      vertex -109.544 -108.59 -3
      vertex -109.544 -108.59 0
      vertex -109.649 -108.408 0
    endloop
  endfacet
  facet normal -0.828349 -0.560213 0
    outer loop
      vertex -109.427 -108.763 -3
      vertex -109.544 -108.59 0
      vertex -109.544 -108.59 -3
    endloop
  endfacet
  facet normal -0.828349 -0.560213 0
    outer loop
      vertex -109.427 -108.763 -3
      vertex -109.427 -108.763 0
      vertex -109.544 -108.59 0
    endloop
  endfacet
  facet normal -0.787807 -0.615922 0
    outer loop
      vertex -109.298 -108.928 -3
      vertex -109.427 -108.763 0
      vertex -109.427 -108.763 -3
    endloop
  endfacet
  facet normal -0.787807 -0.615922 0
    outer loop
      vertex -109.298 -108.928 -3
      vertex -109.298 -108.928 0
      vertex -109.427 -108.763 0
    endloop
  endfacet
  facet normal -0.744242 -0.66791 0
    outer loop
      vertex -109.158 -109.084 -3
      vertex -109.298 -108.928 0
      vertex -109.298 -108.928 -3
    endloop
  endfacet
  facet normal -0.744242 -0.66791 0
    outer loop
      vertex -109.158 -109.084 -3
      vertex -109.158 -109.084 0
      vertex -109.298 -108.928 0
    endloop
  endfacet
  facet normal -0.692631 -0.721292 0
    outer loop
      vertex -109.007 -109.229 -3
      vertex -109.158 -109.084 0
      vertex -109.158 -109.084 -3
    endloop
  endfacet
  facet normal -0.692631 -0.721292 0
    outer loop
      vertex -109.007 -109.229 -3
      vertex -109.007 -109.229 0
      vertex -109.158 -109.084 0
    endloop
  endfacet
  facet normal -0.644871 -0.764291 0
    outer loop
      vertex -108.847 -109.364 -3
      vertex -109.007 -109.229 0
      vertex -109.007 -109.229 -3
    endloop
  endfacet
  facet normal -0.644871 -0.764291 0
    outer loop
      vertex -108.847 -109.364 -3
      vertex -108.847 -109.364 0
      vertex -109.007 -109.229 0
    endloop
  endfacet
  facet normal -0.588456 -0.808529 0
    outer loop
      vertex -108.678 -109.487 -3
      vertex -108.847 -109.364 0
      vertex -108.847 -109.364 -3
    endloop
  endfacet
  facet normal -0.588456 -0.808529 0
    outer loop
      vertex -108.678 -109.487 -3
      vertex -108.678 -109.487 0
      vertex -108.847 -109.364 0
    endloop
  endfacet
  facet normal -0.529142 -0.848533 0
    outer loop
      vertex -108.5 -109.598 -3
      vertex -108.678 -109.487 0
      vertex -108.678 -109.487 -3
    endloop
  endfacet
  facet normal -0.529142 -0.848533 0
    outer loop
      vertex -108.5 -109.598 -3
      vertex -108.5 -109.598 0
      vertex -108.678 -109.487 0
    endloop
  endfacet
  facet normal -0.468107 -0.883672 0
    outer loop
      vertex -108.315 -109.696 -3
      vertex -108.5 -109.598 0
      vertex -108.5 -109.598 -3
    endloop
  endfacet
  facet normal -0.468107 -0.883672 0
    outer loop
      vertex -108.315 -109.696 -3
      vertex -108.315 -109.696 0
      vertex -108.5 -109.598 0
    endloop
  endfacet
  facet normal -0.410563 -0.911832 0
    outer loop
      vertex -108.124 -109.782 -3
      vertex -108.315 -109.696 0
      vertex -108.315 -109.696 -3
    endloop
  endfacet
  facet normal -0.410563 -0.911832 0
    outer loop
      vertex -108.124 -109.782 -3
      vertex -108.124 -109.782 0
      vertex -108.315 -109.696 0
    endloop
  endfacet
  facet normal -0.339058 -0.940766 0
    outer loop
      vertex -107.927 -109.853 -3
      vertex -108.124 -109.782 0
      vertex -108.124 -109.782 -3
    endloop
  endfacet
  facet normal -0.339058 -0.940766 0
    outer loop
      vertex -107.927 -109.853 -3
      vertex -107.927 -109.853 0
      vertex -108.124 -109.782 0
    endloop
  endfacet
  facet normal -0.277246 -0.960799 0
    outer loop
      vertex -107.726 -109.911 -3
      vertex -107.927 -109.853 0
      vertex -107.927 -109.853 -3
    endloop
  endfacet
  facet normal -0.277246 -0.960799 0
    outer loop
      vertex -107.726 -109.911 -3
      vertex -107.726 -109.911 0
      vertex -107.927 -109.853 0
    endloop
  endfacet
  facet normal -0.205289 -0.978701 0
    outer loop
      vertex -107.521 -109.954 -3
      vertex -107.726 -109.911 0
      vertex -107.726 -109.911 -3
    endloop
  endfacet
  facet normal -0.205289 -0.978701 0
    outer loop
      vertex -107.521 -109.954 -3
      vertex -107.521 -109.954 0
      vertex -107.726 -109.911 0
    endloop
  endfacet
  facet normal -0.143429 -0.989661 0
    outer loop
      vertex -107.314 -109.984 -3
      vertex -107.521 -109.954 0
      vertex -107.521 -109.954 -3
    endloop
  endfacet
  facet normal -0.143429 -0.989661 0
    outer loop
      vertex -107.314 -109.984 -3
      vertex -107.314 -109.984 0
      vertex -107.521 -109.954 0
    endloop
  endfacet
  facet normal -0.0668359 -0.997764 0
    outer loop
      vertex -107.105 -109.998 -3
      vertex -107.314 -109.984 0
      vertex -107.314 -109.984 -3
    endloop
  endfacet
  facet normal -0.0668359 -0.997764 0
    outer loop
      vertex -107.105 -109.998 -3
      vertex -107.105 -109.998 0
      vertex -107.314 -109.984 0
    endloop
  endfacet
  facet normal 0 -1 0
    outer loop
      vertex -107.002 -109.998 -3
      vertex -107.105 -109.998 0
      vertex -107.105 -109.998 -3
    endloop
  endfacet
  facet normal 0 -1 0
    outer loop
      vertex -107.002 -109.998 -3
      vertex -107.002 -109.998 0
      vertex -107.105 -109.998 0
    endloop
  endfacet
  facet normal -0.707107 -0.707107 0
    outer loop
      vertex -107 -110 -3
      vertex -107.002 -109.998 0
      vertex -107.002 -109.998 -3
    endloop
  endfacet
  facet normal -0.707107 -0.707107 0
    outer loop
      vertex -107 -110 -3
      vertex -107 -110 0
      vertex -107.002 -109.998 0
    endloop
  endfacet
  facet normal 0 -1 0
    outer loop
      vertex 107 -110 -3
      vertex -107 -110 0
      vertex -107 -110 -3
    endloop
  endfacet
  facet normal 0 -1 0
    outer loop
      vertex 107 -110 -3
      vertex 107 -110 0
      vertex -107 -110 0
    endloop
  endfacet
  facet normal 0.707107 -0.707107 0
    outer loop
      vertex 107.002 -109.998 -3
      vertex 107 -110 0
      vertex 107 -110 -3
    endloop
  endfacet
  facet normal 0.707107 -0.707107 0
    outer loop
      vertex 107.002 -109.998 -3
      vertex 107.002 -109.998 0
      vertex 107 -110 0
    endloop
  endfacet
endsolid OpenSCAD_Model
