solid OpenSCAD_Model
  facet normal 0 0 -1
    outer loop
      vertex 147.105 -149.998 -3
      vertex 147.002 -149.998 -3
      vertex 147.314 -149.984 -3
    endloop
  endfacet
  facet normal -0 0 -1
    outer loop
      vertex 147.314 -149.984 -3
      vertex 147.002 -149.998 -3
      vertex 147.521 -149.954 -3
    endloop
  endfacet
  facet normal -0 0 -1
    outer loop
      vertex 150 -147 -3
      vertex 147.002 -149.998 -3
      vertex 147.002 149.998 -3
    endloop
  endfacet
  facet normal -0 0 -1
    outer loop
      vertex 147.521 -149.954 -3
      vertex 147.002 -149.998 -3
      vertex 147.726 -149.911 -3
    endloop
  endfacet
  facet normal -0 0 -1
    outer loop
      vertex 147.726 -149.911 -3
      vertex 147.002 -149.998 -3
      vertex 147.927 -149.853 -3
    endloop
  endfacet
  facet normal -0 0 -1
    outer loop
      vertex 147.927 -149.853 -3
      vertex 147.002 -149.998 -3
      vertex 148.124 -149.782 -3
    endloop
  endfacet
  facet normal -0 0 -1
    outer loop
      vertex 148.124 -149.782 -3
      vertex 147.002 -149.998 -3
      vertex 148.315 -149.696 -3
    endloop
  endfacet
  facet normal -0 0 -1
    outer loop
      vertex 148.315 -149.696 -3
      vertex 147.002 -149.998 -3
      vertex 148.5 -149.598 -3
    endloop
  endfacet
  facet normal -0 0 -1
    outer loop
      vertex 148.5 -149.598 -3
      vertex 147.002 -149.998 -3
      vertex 148.678 -149.487 -3
    endloop
  endfacet
  facet normal -0 0 -1
    outer loop
      vertex 148.678 -149.487 -3
      vertex 147.002 -149.998 -3
      vertex 148.847 -149.364 -3
    endloop
  endfacet
  facet normal -0 0 -1
    outer loop
      vertex 148.847 -149.364 -3
      vertex 147.002 -149.998 -3
      vertex 149.007 -149.229 -3
    endloop
  endfacet
  facet normal -0 0 -1
    outer loop
      vertex 149.007 -149.229 -3
      vertex 147.002 -149.998 -3
      vertex 149.158 -149.084 -3
    endloop
  endfacet
  facet normal -0 0 -1
    outer loop
      vertex 149.158 -149.084 -3
      vertex 147.002 -149.998 -3
      vertex 149.298 -148.928 -3
    endloop
  endfacet
  facet normal -0 0 -1
    outer loop
      vertex 149.298 -148.928 -3
      vertex 147.002 -149.998 -3
      vertex 149.427 -148.763 -3
    endloop
  endfacet
  facet normal -0 0 -1
    outer loop
      vertex 149.427 -148.763 -3
      vertex 147.002 -149.998 -3
      vertex 149.544 -148.59 -3
    endloop
  endfacet
  facet normal -0 0 -1
    outer loop
      vertex 149.544 -148.59 -3
      vertex 147.002 -149.998 -3
      vertex 149.649 -148.408 -3
    endloop
  endfacet
  facet normal -0 0 -1
    outer loop
      vertex 149.649 -148.408 -3
      vertex 147.002 -149.998 -3
      vertex 149.741 -148.22 -3
    endloop
  endfacet
  facet normal -0 0 -1
    outer loop
      vertex 149.741 -148.22 -3
      vertex 147.002 -149.998 -3
      vertex 149.819 -148.026 -3
    endloop
  endfacet
  facet normal -0 0 -1
    outer loop
      vertex 149.819 -148.026 -3
      vertex 147.002 -149.998 -3
      vertex 149.884 -147.827 -3
    endloop
  endfacet
  facet normal -0 0 -1
    outer loop
      vertex 149.884 -147.827 -3
      vertex 147.002 -149.998 -3
      vertex 149.934 -147.624 -3
    endloop
  endfacet
  facet normal -0 0 -1
    outer loop
      vertex 149.934 -147.624 -3
      vertex 147.002 -149.998 -3
      vertex 149.971 -147.418 -3
    endloop
  endfacet
  facet normal -0 0 -1
    outer loop
      vertex 149.971 -147.418 -3
      vertex 147.002 -149.998 -3
      vertex 149.993 -147.209 -3
    endloop
  endfacet
  facet normal -0 0 -1
    outer loop
      vertex 149.993 -147.209 -3
      vertex 147.002 -149.998 -3
      vertex 150 -147 -3
    endloop
  endfacet
  facet normal 0 0 -1
    outer loop
      vertex 150 -147 -3
      vertex 147.002 149.998 -3
      vertex 150 147 -3
    endloop
  endfacet
  facet normal 0 0 -1
    outer loop
      vertex 147.002 149.998 -3
      vertex 149.971 147.418 -3
      vertex 149.993 147.209 -3
    endloop
  endfacet
  facet normal -0 -0 -1
    outer loop
      vertex 149.884 147.827 -3
      vertex 149.934 147.624 -3
      vertex 147.002 149.998 -3
    endloop
  endfacet
  facet normal 0 0 -1
    outer loop
      vertex 149.741 148.22 -3
      vertex 147.002 149.998 -3
      vertex 149.649 148.408 -3
    endloop
  endfacet
  facet normal -0 -0 -1
    outer loop
      vertex 149.741 148.22 -3
      vertex 149.819 148.026 -3
      vertex 147.002 149.998 -3
    endloop
  endfacet
  facet normal 0 0 -1
    outer loop
      vertex 147.002 149.998 -3
      vertex 149.007 149.229 -3
      vertex 149.158 149.084 -3
    endloop
  endfacet
  facet normal 0 0 -1
    outer loop
      vertex 149.427 148.763 -3
      vertex 147.002 149.998 -3
      vertex 149.298 148.928 -3
    endloop
  endfacet
  facet normal -0 -0 -1
    outer loop
      vertex 149.427 148.763 -3
      vertex 149.544 148.59 -3
      vertex 147.002 149.998 -3
    endloop
  endfacet
  facet normal 0 0 -1
    outer loop
      vertex 149.298 148.928 -3
      vertex 147.002 149.998 -3
      vertex 149.158 149.084 -3
    endloop
  endfacet
  facet normal 0 0 -1
    outer loop
      vertex 147.002 149.998 -3
      vertex 147.927 149.853 -3
      vertex 148.124 149.782 -3
    endloop
  endfacet
  facet normal 0 0 -1
    outer loop
      vertex 148.847 149.364 -3
      vertex 147.002 149.998 -3
      vertex 148.678 149.487 -3
    endloop
  endfacet
  facet normal -0 -0 -1
    outer loop
      vertex 148.847 149.364 -3
      vertex 149.007 149.229 -3
      vertex 147.002 149.998 -3
    endloop
  endfacet
  facet normal 0 0 -1
    outer loop
      vertex 148.678 149.487 -3
      vertex 147.002 149.998 -3
      vertex 148.5 149.598 -3
    endloop
  endfacet
  facet normal 0 0 -1
    outer loop
      vertex 148.5 149.598 -3
      vertex 147.002 149.998 -3
      vertex 148.315 149.696 -3
    endloop
  endfacet
  facet normal 0 0 -1
    outer loop
      vertex 148.315 149.696 -3
      vertex 147.002 149.998 -3
      vertex 148.124 149.782 -3
    endloop
  endfacet
  facet normal 0 0 -1
    outer loop
      vertex 149.649 148.408 -3
      vertex 147.002 149.998 -3
      vertex 149.544 148.59 -3
    endloop
  endfacet
  facet normal 0 0 -1
    outer loop
      vertex 147.726 149.911 -3
      vertex 147.002 149.998 -3
      vertex 147.521 149.954 -3
    endloop
  endfacet
  facet normal -0 -0 -1
    outer loop
      vertex 147.726 149.911 -3
      vertex 147.927 149.853 -3
      vertex 147.002 149.998 -3
    endloop
  endfacet
  facet normal -0 -0 -1
    outer loop
      vertex 149.819 148.026 -3
      vertex 149.884 147.827 -3
      vertex 147.002 149.998 -3
    endloop
  endfacet
  facet normal -0 -0 -1
    outer loop
      vertex 147.314 149.984 -3
      vertex 147.521 149.954 -3
      vertex 147.002 149.998 -3
    endloop
  endfacet
  facet normal 0 0 -1
    outer loop
      vertex 147.002 149.998 -3
      vertex 149.934 147.624 -3
      vertex 149.971 147.418 -3
    endloop
  endfacet
  facet normal 0 0 -1
    outer loop
      vertex 147.002 149.998 -3
      vertex 147.105 149.998 -3
      vertex 147.314 149.984 -3
    endloop
  endfacet
  facet normal 0 0 -1
    outer loop
      vertex 150 147 -3
      vertex 147.002 149.998 -3
      vertex 149.993 147.209 -3
    endloop
  endfacet
  facet normal 0 -0 -1
    outer loop
      vertex -147 150 -3
      vertex 147 150 -3
      vertex -147.002 149.998 -3
    endloop
  endfacet
  facet normal 0 0 -1
    outer loop
      vertex -147.002 149.998 -3
      vertex 147 150 -3
      vertex 147.002 149.998 -3
    endloop
  endfacet
  facet normal 0 0 -1
    outer loop
      vertex 147.002 -149.998 -3
      vertex -147.002 149.998 -3
      vertex 147.002 149.998 -3
    endloop
  endfacet
  facet normal 0 0 -1
    outer loop
      vertex -150 -147 -3
      vertex -150 147 -3
      vertex -147.002 -149.998 -3
    endloop
  endfacet
  facet normal -0 0 -1
    outer loop
      vertex -147.002 149.998 -3
      vertex -147.314 149.984 -3
      vertex -147.105 149.998 -3
    endloop
  endfacet
  facet normal 0 0 -1
    outer loop
      vertex -147.002 149.998 -3
      vertex -147.521 149.954 -3
      vertex -147.314 149.984 -3
    endloop
  endfacet
  facet normal 0 0 -1
    outer loop
      vertex -147.002 149.998 -3
      vertex -147.726 149.911 -3
      vertex -147.521 149.954 -3
    endloop
  endfacet
  facet normal 0 0 -1
    outer loop
      vertex -147.002 149.998 -3
      vertex -147.927 149.853 -3
      vertex -147.726 149.911 -3
    endloop
  endfacet
  facet normal 0 0 -1
    outer loop
      vertex -147.002 149.998 -3
      vertex -148.124 149.782 -3
      vertex -147.927 149.853 -3
    endloop
  endfacet
  facet normal 0 0 -1
    outer loop
      vertex -147.002 149.998 -3
      vertex -148.315 149.696 -3
      vertex -148.124 149.782 -3
    endloop
  endfacet
  facet normal 0 0 -1
    outer loop
      vertex -147.002 149.998 -3
      vertex -148.5 149.598 -3
      vertex -148.315 149.696 -3
    endloop
  endfacet
  facet normal 0 0 -1
    outer loop
      vertex -147.002 149.998 -3
      vertex -148.678 149.487 -3
      vertex -148.5 149.598 -3
    endloop
  endfacet
  facet normal 0 0 -1
    outer loop
      vertex -147.002 149.998 -3
      vertex -148.847 149.364 -3
      vertex -148.678 149.487 -3
    endloop
  endfacet
  facet normal 0 0 -1
    outer loop
      vertex -147.002 149.998 -3
      vertex -149.007 149.229 -3
      vertex -148.847 149.364 -3
    endloop
  endfacet
  facet normal 0 0 -1
    outer loop
      vertex -147.002 149.998 -3
      vertex -149.158 149.084 -3
      vertex -149.007 149.229 -3
    endloop
  endfacet
  facet normal 0 0 -1
    outer loop
      vertex -147.002 149.998 -3
      vertex -149.298 148.928 -3
      vertex -149.158 149.084 -3
    endloop
  endfacet
  facet normal 0 0 -1
    outer loop
      vertex -147.002 149.998 -3
      vertex -149.427 148.763 -3
      vertex -149.298 148.928 -3
    endloop
  endfacet
  facet normal 0 0 -1
    outer loop
      vertex -147.002 149.998 -3
      vertex -149.544 148.59 -3
      vertex -149.427 148.763 -3
    endloop
  endfacet
  facet normal 0 0 -1
    outer loop
      vertex -147.002 149.998 -3
      vertex -149.649 148.408 -3
      vertex -149.544 148.59 -3
    endloop
  endfacet
  facet normal 0 0 -1
    outer loop
      vertex -147.002 149.998 -3
      vertex -149.741 148.22 -3
      vertex -149.649 148.408 -3
    endloop
  endfacet
  facet normal 0 0 -1
    outer loop
      vertex -147.002 149.998 -3
      vertex -149.819 148.026 -3
      vertex -149.741 148.22 -3
    endloop
  endfacet
  facet normal 0 0 -1
    outer loop
      vertex -147.002 149.998 -3
      vertex -149.884 147.827 -3
      vertex -149.819 148.026 -3
    endloop
  endfacet
  facet normal 0 0 -1
    outer loop
      vertex -147.002 149.998 -3
      vertex -149.934 147.624 -3
      vertex -149.884 147.827 -3
    endloop
  endfacet
  facet normal 0 0 -1
    outer loop
      vertex -147.002 149.998 -3
      vertex -149.971 147.418 -3
      vertex -149.934 147.624 -3
    endloop
  endfacet
  facet normal 0 0 -1
    outer loop
      vertex -147.002 149.998 -3
      vertex -149.993 147.209 -3
      vertex -149.971 147.418 -3
    endloop
  endfacet
  facet normal 0 0 -1
    outer loop
      vertex -147.002 149.998 -3
      vertex -150 147 -3
      vertex -149.993 147.209 -3
    endloop
  endfacet
  facet normal 0 0 -1
    outer loop
      vertex -147.002 -149.998 -3
      vertex -150 147 -3
      vertex -147.002 149.998 -3
    endloop
  endfacet
  facet normal 0 0 -1
    outer loop
      vertex 147.002 -149.998 -3
      vertex -147.002 -149.998 -3
      vertex -147.002 149.998 -3
    endloop
  endfacet
  facet normal 0 0 -1
    outer loop
      vertex -147.002 -149.998 -3
      vertex -149.971 -147.418 -3
      vertex -149.993 -147.209 -3
    endloop
  endfacet
  facet normal 0 0 -1
    outer loop
      vertex -149.884 -147.827 -3
      vertex -149.934 -147.624 -3
      vertex -147.002 -149.998 -3
    endloop
  endfacet
  facet normal 0 0 -1
    outer loop
      vertex -149.741 -148.22 -3
      vertex -147.002 -149.998 -3
      vertex -149.649 -148.408 -3
    endloop
  endfacet
  facet normal 0 0 -1
    outer loop
      vertex -149.741 -148.22 -3
      vertex -149.819 -148.026 -3
      vertex -147.002 -149.998 -3
    endloop
  endfacet
  facet normal 0 0 -1
    outer loop
      vertex -147.002 -149.998 -3
      vertex -149.007 -149.229 -3
      vertex -149.158 -149.084 -3
    endloop
  endfacet
  facet normal 0 0 -1
    outer loop
      vertex -149.427 -148.763 -3
      vertex -147.002 -149.998 -3
      vertex -149.298 -148.928 -3
    endloop
  endfacet
  facet normal 0 0 -1
    outer loop
      vertex -149.427 -148.763 -3
      vertex -149.544 -148.59 -3
      vertex -147.002 -149.998 -3
    endloop
  endfacet
  facet normal 0 0 -1
    outer loop
      vertex -149.298 -148.928 -3
      vertex -147.002 -149.998 -3
      vertex -149.158 -149.084 -3
    endloop
  endfacet
  facet normal 0 0 -1
    outer loop
      vertex -147.002 -149.998 -3
      vertex -147.927 -149.853 -3
      vertex -148.124 -149.782 -3
    endloop
  endfacet
  facet normal 0 0 -1
    outer loop
      vertex -148.847 -149.364 -3
      vertex -147.002 -149.998 -3
      vertex -148.678 -149.487 -3
    endloop
  endfacet
  facet normal 0 0 -1
    outer loop
      vertex -148.847 -149.364 -3
      vertex -149.007 -149.229 -3
      vertex -147.002 -149.998 -3
    endloop
  endfacet
  facet normal 0 0 -1
    outer loop
      vertex -148.678 -149.487 -3
      vertex -147.002 -149.998 -3
      vertex -148.5 -149.598 -3
    endloop
  endfacet
  facet normal 0 0 -1
    outer loop
      vertex -148.5 -149.598 -3
      vertex -147.002 -149.998 -3
      vertex -148.315 -149.696 -3
    endloop
  endfacet
  facet normal 0 0 -1
    outer loop
      vertex -148.315 -149.696 -3
      vertex -147.002 -149.998 -3
      vertex -148.124 -149.782 -3
    endloop
  endfacet
  facet normal 0 0 -1
    outer loop
      vertex -149.649 -148.408 -3
      vertex -147.002 -149.998 -3
      vertex -149.544 -148.59 -3
    endloop
  endfacet
  facet normal 0 0 -1
    outer loop
      vertex -147.726 -149.911 -3
      vertex -147.002 -149.998 -3
      vertex -147.521 -149.954 -3
    endloop
  endfacet
  facet normal 0 0 -1
    outer loop
      vertex -147.726 -149.911 -3
      vertex -147.927 -149.853 -3
      vertex -147.002 -149.998 -3
    endloop
  endfacet
  facet normal 0 0 -1
    outer loop
      vertex -149.819 -148.026 -3
      vertex -149.884 -147.827 -3
      vertex -147.002 -149.998 -3
    endloop
  endfacet
  facet normal 0 0 -1
    outer loop
      vertex -147.314 -149.984 -3
      vertex -147.521 -149.954 -3
      vertex -147.002 -149.998 -3
    endloop
  endfacet
  facet normal 0 0 -1
    outer loop
      vertex -147.002 -149.998 -3
      vertex -149.934 -147.624 -3
      vertex -149.971 -147.418 -3
    endloop
  endfacet
  facet normal 0 0 -1
    outer loop
      vertex -147.002 -149.998 -3
      vertex -147.105 -149.998 -3
      vertex -147.314 -149.984 -3
    endloop
  endfacet
  facet normal -0 0 -1
    outer loop
      vertex 147.002 -149.998 -3
      vertex 147 -150 -3
      vertex -147.002 -149.998 -3
    endloop
  endfacet
  facet normal 0 0 -1
    outer loop
      vertex -147.002 -149.998 -3
      vertex 147 -150 -3
      vertex -147 -150 -3
    endloop
  endfacet
  facet normal 0 0 -1
    outer loop
      vertex -150 -147 -3
      vertex -147.002 -149.998 -3
      vertex -149.993 -147.209 -3
    endloop
  endfacet
  facet normal 0 0 1
    outer loop
      vertex 147.314 -149.984 0
      vertex 147.002 -149.998 0
      vertex 147.105 -149.998 0
    endloop
  endfacet
  facet normal 0 0 1
    outer loop
      vertex 147.521 -149.954 0
      vertex 147.002 -149.998 0
      vertex 147.314 -149.984 0
    endloop
  endfacet
  facet normal 0 0 1
    outer loop
      vertex 147.002 149.998 0
      vertex 147.002 -149.998 0
      vertex 150 -147 0
    endloop
  endfacet
  facet normal 0 0 1
    outer loop
      vertex 147.726 -149.911 0
      vertex 147.002 -149.998 0
      vertex 147.521 -149.954 0
    endloop
  endfacet
  facet normal 0 0 1
    outer loop
      vertex 147.927 -149.853 0
      vertex 147.002 -149.998 0
      vertex 147.726 -149.911 0
    endloop
  endfacet
  facet normal 0 0 1
    outer loop
      vertex 148.124 -149.782 0
      vertex 147.002 -149.998 0
      vertex 147.927 -149.853 0
    endloop
  endfacet
  facet normal 0 0 1
    outer loop
      vertex 148.315 -149.696 0
      vertex 147.002 -149.998 0
      vertex 148.124 -149.782 0
    endloop
  endfacet
  facet normal 0 0 1
    outer loop
      vertex 148.5 -149.598 0
      vertex 147.002 -149.998 0
      vertex 148.315 -149.696 0
    endloop
  endfacet
  facet normal 0 0 1
    outer loop
      vertex 148.678 -149.487 0
      vertex 147.002 -149.998 0
      vertex 148.5 -149.598 0
    endloop
  endfacet
  facet normal 0 0 1
    outer loop
      vertex 148.847 -149.364 0
      vertex 147.002 -149.998 0
      vertex 148.678 -149.487 0
    endloop
  endfacet
  facet normal 0 0 1
    outer loop
      vertex 149.007 -149.229 0
      vertex 147.002 -149.998 0
      vertex 148.847 -149.364 0
    endloop
  endfacet
  facet normal 0 0 1
    outer loop
      vertex 149.158 -149.084 0
      vertex 147.002 -149.998 0
      vertex 149.007 -149.229 0
    endloop
  endfacet
  facet normal 0 0 1
    outer loop
      vertex 149.298 -148.928 0
      vertex 147.002 -149.998 0
      vertex 149.158 -149.084 0
    endloop
  endfacet
  facet normal 0 0 1
    outer loop
      vertex 149.427 -148.763 0
      vertex 147.002 -149.998 0
      vertex 149.298 -148.928 0
    endloop
  endfacet
  facet normal 0 0 1
    outer loop
      vertex 149.544 -148.59 0
      vertex 147.002 -149.998 0
      vertex 149.427 -148.763 0
    endloop
  endfacet
  facet normal 0 0 1
    outer loop
      vertex 149.649 -148.408 0
      vertex 147.002 -149.998 0
      vertex 149.544 -148.59 0
    endloop
  endfacet
  facet normal 0 0 1
    outer loop
      vertex 149.741 -148.22 0
      vertex 147.002 -149.998 0
      vertex 149.649 -148.408 0
    endloop
  endfacet
  facet normal 0 0 1
    outer loop
      vertex 149.819 -148.026 0
      vertex 147.002 -149.998 0
      vertex 149.741 -148.22 0
    endloop
  endfacet
  facet normal 0 0 1
    outer loop
      vertex 149.884 -147.827 0
      vertex 147.002 -149.998 0
      vertex 149.819 -148.026 0
    endloop
  endfacet
  facet normal 0 0 1
    outer loop
      vertex 149.934 -147.624 0
      vertex 147.002 -149.998 0
      vertex 149.884 -147.827 0
    endloop
  endfacet
  facet normal 0 0 1
    outer loop
      vertex 149.971 -147.418 0
      vertex 147.002 -149.998 0
      vertex 149.934 -147.624 0
    endloop
  endfacet
  facet normal 0 0 1
    outer loop
      vertex 149.993 -147.209 0
      vertex 147.002 -149.998 0
      vertex 149.971 -147.418 0
    endloop
  endfacet
  facet normal 0 0 1
    outer loop
      vertex 150 -147 0
      vertex 147.002 -149.998 0
      vertex 149.993 -147.209 0
    endloop
  endfacet
  facet normal 0 0 1
    outer loop
      vertex 150 147 0
      vertex 147.002 149.998 0
      vertex 150 -147 0
    endloop
  endfacet
  facet normal 0 0 1
    outer loop
      vertex 149.993 147.209 0
      vertex 149.971 147.418 0
      vertex 147.002 149.998 0
    endloop
  endfacet
  facet normal 0 0 1
    outer loop
      vertex 147.002 149.998 0
      vertex 149.934 147.624 0
      vertex 149.884 147.827 0
    endloop
  endfacet
  facet normal 0 0 1
    outer loop
      vertex 149.649 148.408 0
      vertex 147.002 149.998 0
      vertex 149.741 148.22 0
    endloop
  endfacet
  facet normal 0 0 1
    outer loop
      vertex 147.002 149.998 0
      vertex 149.819 148.026 0
      vertex 149.741 148.22 0
    endloop
  endfacet
  facet normal 0 0 1
    outer loop
      vertex 149.158 149.084 0
      vertex 149.007 149.229 0
      vertex 147.002 149.998 0
    endloop
  endfacet
  facet normal 0 0 1
    outer loop
      vertex 149.298 148.928 0
      vertex 147.002 149.998 0
      vertex 149.427 148.763 0
    endloop
  endfacet
  facet normal 0 0 1
    outer loop
      vertex 147.002 149.998 0
      vertex 149.544 148.59 0
      vertex 149.427 148.763 0
    endloop
  endfacet
  facet normal 0 0 1
    outer loop
      vertex 149.158 149.084 0
      vertex 147.002 149.998 0
      vertex 149.298 148.928 0
    endloop
  endfacet
  facet normal 0 0 1
    outer loop
      vertex 148.124 149.782 0
      vertex 147.927 149.853 0
      vertex 147.002 149.998 0
    endloop
  endfacet
  facet normal 0 0 1
    outer loop
      vertex 148.678 149.487 0
      vertex 147.002 149.998 0
      vertex 148.847 149.364 0
    endloop
  endfacet
  facet normal 0 0 1
    outer loop
      vertex 147.002 149.998 0
      vertex 149.007 149.229 0
      vertex 148.847 149.364 0
    endloop
  endfacet
  facet normal 0 0 1
    outer loop
      vertex 148.5 149.598 0
      vertex 147.002 149.998 0
      vertex 148.678 149.487 0
    endloop
  endfacet
  facet normal 0 0 1
    outer loop
      vertex 148.315 149.696 0
      vertex 147.002 149.998 0
      vertex 148.5 149.598 0
    endloop
  endfacet
  facet normal 0 0 1
    outer loop
      vertex 148.124 149.782 0
      vertex 147.002 149.998 0
      vertex 148.315 149.696 0
    endloop
  endfacet
  facet normal 0 0 1
    outer loop
      vertex 149.544 148.59 0
      vertex 147.002 149.998 0
      vertex 149.649 148.408 0
    endloop
  endfacet
  facet normal 0 0 1
    outer loop
      vertex 147.521 149.954 0
      vertex 147.002 149.998 0
      vertex 147.726 149.911 0
    endloop
  endfacet
  facet normal 0 0 1
    outer loop
      vertex 147.002 149.998 0
      vertex 147.927 149.853 0
      vertex 147.726 149.911 0
    endloop
  endfacet
  facet normal 0 0 1
    outer loop
      vertex 147.002 149.998 0
      vertex 149.884 147.827 0
      vertex 149.819 148.026 0
    endloop
  endfacet
  facet normal 0 0 1
    outer loop
      vertex 147.002 149.998 0
      vertex 147.521 149.954 0
      vertex 147.314 149.984 0
    endloop
  endfacet
  facet normal 0 0 1
    outer loop
      vertex 149.971 147.418 0
      vertex 149.934 147.624 0
      vertex 147.002 149.998 0
    endloop
  endfacet
  facet normal 0 0 1
    outer loop
      vertex 147.314 149.984 0
      vertex 147.105 149.998 0
      vertex 147.002 149.998 0
    endloop
  endfacet
  facet normal 0 0 1
    outer loop
      vertex 149.993 147.209 0
      vertex 147.002 149.998 0
      vertex 150 147 0
    endloop
  endfacet
  facet normal 0 0 1
    outer loop
      vertex -147.002 149.998 0
      vertex 147 150 0
      vertex -147 150 0
    endloop
  endfacet
  facet normal 0 0 1
    outer loop
      vertex 147.002 149.998 0
      vertex 147 150 0
      vertex -147.002 149.998 0
    endloop
  endfacet
  facet normal 0 0 1
    outer loop
      vertex 147.002 149.998 0
      vertex -147.002 149.998 0
      vertex 147.002 -149.998 0
    endloop
  endfacet
  facet normal 0 0 1
    outer loop
      vertex -147.002 -149.998 0
      vertex -150 147 0
      vertex -150 -147 0
    endloop
  endfacet
  facet normal -0 0 1
    outer loop
      vertex -147.105 149.998 0
      vertex -147.314 149.984 0
      vertex -147.002 149.998 0
    endloop
  endfacet
  facet normal -0 0 1
    outer loop
      vertex -147.314 149.984 0
      vertex -147.521 149.954 0
      vertex -147.002 149.998 0
    endloop
  endfacet
  facet normal -0 0 1
    outer loop
      vertex -147.521 149.954 0
      vertex -147.726 149.911 0
      vertex -147.002 149.998 0
    endloop
  endfacet
  facet normal -0 0 1
    outer loop
      vertex -147.726 149.911 0
      vertex -147.927 149.853 0
      vertex -147.002 149.998 0
    endloop
  endfacet
  facet normal -0 0 1
    outer loop
      vertex -147.927 149.853 0
      vertex -148.124 149.782 0
      vertex -147.002 149.998 0
    endloop
  endfacet
  facet normal -0 0 1
    outer loop
      vertex -148.124 149.782 0
      vertex -148.315 149.696 0
      vertex -147.002 149.998 0
    endloop
  endfacet
  facet normal -0 0 1
    outer loop
      vertex -148.315 149.696 0
      vertex -148.5 149.598 0
      vertex -147.002 149.998 0
    endloop
  endfacet
  facet normal -0 0 1
    outer loop
      vertex -148.5 149.598 0
      vertex -148.678 149.487 0
      vertex -147.002 149.998 0
    endloop
  endfacet
  facet normal -0 0 1
    outer loop
      vertex -148.678 149.487 0
      vertex -148.847 149.364 0
      vertex -147.002 149.998 0
    endloop
  endfacet
  facet normal -0 0 1
    outer loop
      vertex -148.847 149.364 0
      vertex -149.007 149.229 0
      vertex -147.002 149.998 0
    endloop
  endfacet
  facet normal -0 0 1
    outer loop
      vertex -149.007 149.229 0
      vertex -149.158 149.084 0
      vertex -147.002 149.998 0
    endloop
  endfacet
  facet normal -0 0 1
    outer loop
      vertex -149.158 149.084 0
      vertex -149.298 148.928 0
      vertex -147.002 149.998 0
    endloop
  endfacet
  facet normal -0 0 1
    outer loop
      vertex -149.298 148.928 0
      vertex -149.427 148.763 0
      vertex -147.002 149.998 0
    endloop
  endfacet
  facet normal -0 0 1
    outer loop
      vertex -149.427 148.763 0
      vertex -149.544 148.59 0
      vertex -147.002 149.998 0
    endloop
  endfacet
  facet normal -0 0 1
    outer loop
      vertex -149.544 148.59 0
      vertex -149.649 148.408 0
      vertex -147.002 149.998 0
    endloop
  endfacet
  facet normal -0 0 1
    outer loop
      vertex -149.649 148.408 0
      vertex -149.741 148.22 0
      vertex -147.002 149.998 0
    endloop
  endfacet
  facet normal -0 0 1
    outer loop
      vertex -149.741 148.22 0
      vertex -149.819 148.026 0
      vertex -147.002 149.998 0
    endloop
  endfacet
  facet normal -0 0 1
    outer loop
      vertex -149.819 148.026 0
      vertex -149.884 147.827 0
      vertex -147.002 149.998 0
    endloop
  endfacet
  facet normal -0 0 1
    outer loop
      vertex -149.884 147.827 0
      vertex -149.934 147.624 0
      vertex -147.002 149.998 0
    endloop
  endfacet
  facet normal -0 0 1
    outer loop
      vertex -149.934 147.624 0
      vertex -149.971 147.418 0
      vertex -147.002 149.998 0
    endloop
  endfacet
  facet normal -0 0 1
    outer loop
      vertex -149.971 147.418 0
      vertex -149.993 147.209 0
      vertex -147.002 149.998 0
    endloop
  endfacet
  facet normal -0 0 1
    outer loop
      vertex -149.993 147.209 0
      vertex -150 147 0
      vertex -147.002 149.998 0
    endloop
  endfacet
  facet normal 0 0 1
    outer loop
      vertex -147.002 149.998 0
      vertex -150 147 0
      vertex -147.002 -149.998 0
    endloop
  endfacet
  facet normal 0 0 1
    outer loop
      vertex -147.002 149.998 0
      vertex -147.002 -149.998 0
      vertex 147.002 -149.998 0
    endloop
  endfacet
  facet normal 0 0 1
    outer loop
      vertex -149.993 -147.209 0
      vertex -149.971 -147.418 0
      vertex -147.002 -149.998 0
    endloop
  endfacet
  facet normal 0 0 1
    outer loop
      vertex -147.002 -149.998 0
      vertex -149.934 -147.624 0
      vertex -149.884 -147.827 0
    endloop
  endfacet
  facet normal -0 -0 1
    outer loop
      vertex -149.649 -148.408 0
      vertex -147.002 -149.998 0
      vertex -149.741 -148.22 0
    endloop
  endfacet
  facet normal 0 0 1
    outer loop
      vertex -147.002 -149.998 0
      vertex -149.819 -148.026 0
      vertex -149.741 -148.22 0
    endloop
  endfacet
  facet normal 0 0 1
    outer loop
      vertex -149.158 -149.084 0
      vertex -149.007 -149.229 0
      vertex -147.002 -149.998 0
    endloop
  endfacet
  facet normal -0 -0 1
    outer loop
      vertex -149.298 -148.928 0
      vertex -147.002 -149.998 0
      vertex -149.427 -148.763 0
    endloop
  endfacet
  facet normal 0 0 1
    outer loop
      vertex -147.002 -149.998 0
      vertex -149.544 -148.59 0
      vertex -149.427 -148.763 0
    endloop
  endfacet
  facet normal -0 -0 1
    outer loop
      vertex -149.158 -149.084 0
      vertex -147.002 -149.998 0
      vertex -149.298 -148.928 0
    endloop
  endfacet
  facet normal 0 0 1
    outer loop
      vertex -148.124 -149.782 0
      vertex -147.927 -149.853 0
      vertex -147.002 -149.998 0
    endloop
  endfacet
  facet normal -0 -0 1
    outer loop
      vertex -148.678 -149.487 0
      vertex -147.002 -149.998 0
      vertex -148.847 -149.364 0
    endloop
  endfacet
  facet normal 0 0 1
    outer loop
      vertex -147.002 -149.998 0
      vertex -149.007 -149.229 0
      vertex -148.847 -149.364 0
    endloop
  endfacet
  facet normal -0 -0 1
    outer loop
      vertex -148.5 -149.598 0
      vertex -147.002 -149.998 0
      vertex -148.678 -149.487 0
    endloop
  endfacet
  facet normal -0 -0 1
    outer loop
      vertex -148.315 -149.696 0
      vertex -147.002 -149.998 0
      vertex -148.5 -149.598 0
    endloop
  endfacet
  facet normal -0 -0 1
    outer loop
      vertex -148.124 -149.782 0
      vertex -147.002 -149.998 0
      vertex -148.315 -149.696 0
    endloop
  endfacet
  facet normal -0 -0 1
    outer loop
      vertex -149.544 -148.59 0
      vertex -147.002 -149.998 0
      vertex -149.649 -148.408 0
    endloop
  endfacet
  facet normal -0 -0 1
    outer loop
      vertex -147.521 -149.954 0
      vertex -147.002 -149.998 0
      vertex -147.726 -149.911 0
    endloop
  endfacet
  facet normal 0 0 1
    outer loop
      vertex -147.002 -149.998 0
      vertex -147.927 -149.853 0
      vertex -147.726 -149.911 0
    endloop
  endfacet
  facet normal 0 0 1
    outer loop
      vertex -147.002 -149.998 0
      vertex -149.884 -147.827 0
      vertex -149.819 -148.026 0
    endloop
  endfacet
  facet normal 0 0 1
    outer loop
      vertex -147.002 -149.998 0
      vertex -147.521 -149.954 0
      vertex -147.314 -149.984 0
    endloop
  endfacet
  facet normal 0 0 1
    outer loop
      vertex -149.971 -147.418 0
      vertex -149.934 -147.624 0
      vertex -147.002 -149.998 0
    endloop
  endfacet
  facet normal 0 0 1
    outer loop
      vertex -147.314 -149.984 0
      vertex -147.105 -149.998 0
      vertex -147.002 -149.998 0
    endloop
  endfacet
  facet normal -0 0 1
    outer loop
      vertex -147.002 -149.998 0
      vertex 147 -150 0
      vertex 147.002 -149.998 0
    endloop
  endfacet
  facet normal 0 -0 1
    outer loop
      vertex -147 -150 0
      vertex 147 -150 0
      vertex -147.002 -149.998 0
    endloop
  endfacet
  facet normal -0 -0 1
    outer loop
      vertex -149.993 -147.209 0
      vertex -147.002 -149.998 0
      vertex -150 -147 0
    endloop
  endfacet
  facet normal 0 -1 0
    outer loop
      vertex 147.105 -149.998 -3
      vertex 147.002 -149.998 0
      vertex 147.002 -149.998 -3
    endloop
  endfacet
  facet normal 0 -1 0
    outer loop
      vertex 147.105 -149.998 -3
      vertex 147.105 -149.998 0
      vertex 147.002 -149.998 0
    endloop
  endfacet
  facet normal 0.0668359 -0.997764 0
    outer loop
      vertex 147.314 -149.984 -3
      vertex 147.105 -149.998 0
      vertex 147.105 -149.998 -3
    endloop
  endfacet
  facet normal 0.0668359 -0.997764 0
    outer loop
      vertex 147.314 -149.984 -3
      vertex 147.314 -149.984 0
      vertex 147.105 -149.998 0
    endloop
  endfacet
  facet normal 0.143429 -0.989661 0
    outer loop
      vertex 147.521 -149.954 -3
      vertex 147.314 -149.984 0
      vertex 147.314 -149.984 -3
    endloop
  endfacet
  facet normal 0.143429 -0.989661 0
    outer loop
      vertex 147.521 -149.954 -3
      vertex 147.521 -149.954 0
      vertex 147.314 -149.984 0
    endloop
  endfacet
  facet normal 0.205289 -0.978701 0
    outer loop
      vertex 147.726 -149.911 -3
      vertex 147.521 -149.954 0
      vertex 147.521 -149.954 -3
    endloop
  endfacet
  facet normal 0.205289 -0.978701 0
    outer loop
      vertex 147.726 -149.911 -3
      vertex 147.726 -149.911 0
      vertex 147.521 -149.954 0
    endloop
  endfacet
  facet normal 0.277246 -0.960799 0
    outer loop
      vertex 147.927 -149.853 -3
      vertex 147.726 -149.911 0
      vertex 147.726 -149.911 -3
    endloop
  endfacet
  facet normal 0.277246 -0.960799 0
    outer loop
      vertex 147.927 -149.853 -3
      vertex 147.927 -149.853 0
      vertex 147.726 -149.911 0
    endloop
  endfacet
  facet normal 0.339058 -0.940766 0
    outer loop
      vertex 148.124 -149.782 -3
      vertex 147.927 -149.853 0
      vertex 147.927 -149.853 -3
    endloop
  endfacet
  facet normal 0.339058 -0.940766 0
    outer loop
      vertex 148.124 -149.782 -3
      vertex 148.124 -149.782 0
      vertex 147.927 -149.853 0
    endloop
  endfacet
  facet normal 0.410563 -0.911832 0
    outer loop
      vertex 148.315 -149.696 -3
      vertex 148.124 -149.782 0
      vertex 148.124 -149.782 -3
    endloop
  endfacet
  facet normal 0.410563 -0.911832 0
    outer loop
      vertex 148.315 -149.696 -3
      vertex 148.315 -149.696 0
      vertex 148.124 -149.782 0
    endloop
  endfacet
  facet normal 0.468107 -0.883672 0
    outer loop
      vertex 148.5 -149.598 -3
      vertex 148.315 -149.696 0
      vertex 148.315 -149.696 -3
    endloop
  endfacet
  facet normal 0.468107 -0.883672 0
    outer loop
      vertex 148.5 -149.598 -3
      vertex 148.5 -149.598 0
      vertex 148.315 -149.696 0
    endloop
  endfacet
  facet normal 0.529142 -0.848533 0
    outer loop
      vertex 148.678 -149.487 -3
      vertex 148.5 -149.598 0
      vertex 148.5 -149.598 -3
    endloop
  endfacet
  facet normal 0.529142 -0.848533 0
    outer loop
      vertex 148.678 -149.487 -3
      vertex 148.678 -149.487 0
      vertex 148.5 -149.598 0
    endloop
  endfacet
  facet normal 0.588456 -0.808529 0
    outer loop
      vertex 148.847 -149.364 -3
      vertex 148.678 -149.487 0
      vertex 148.678 -149.487 -3
    endloop
  endfacet
  facet normal 0.588456 -0.808529 0
    outer loop
      vertex 148.847 -149.364 -3
      vertex 148.847 -149.364 0
      vertex 148.678 -149.487 0
    endloop
  endfacet
  facet normal 0.644871 -0.764291 0
    outer loop
      vertex 149.007 -149.229 -3
      vertex 148.847 -149.364 0
      vertex 148.847 -149.364 -3
    endloop
  endfacet
  facet normal 0.644871 -0.764291 0
    outer loop
      vertex 149.007 -149.229 -3
      vertex 149.007 -149.229 0
      vertex 148.847 -149.364 0
    endloop
  endfacet
  facet normal 0.692631 -0.721292 0
    outer loop
      vertex 149.158 -149.084 -3
      vertex 149.007 -149.229 0
      vertex 149.007 -149.229 -3
    endloop
  endfacet
  facet normal 0.692631 -0.721292 0
    outer loop
      vertex 149.158 -149.084 -3
      vertex 149.158 -149.084 0
      vertex 149.007 -149.229 0
    endloop
  endfacet
  facet normal 0.744242 -0.66791 0
    outer loop
      vertex 149.298 -148.928 -3
      vertex 149.158 -149.084 0
      vertex 149.158 -149.084 -3
    endloop
  endfacet
  facet normal 0.744242 -0.66791 0
    outer loop
      vertex 149.298 -148.928 -3
      vertex 149.298 -148.928 0
      vertex 149.158 -149.084 0
    endloop
  endfacet
  facet normal 0.787807 -0.615922 0
    outer loop
      vertex 149.427 -148.763 -3
      vertex 149.298 -148.928 0
      vertex 149.298 -148.928 -3
    endloop
  endfacet
  facet normal 0.787807 -0.615922 0
    outer loop
      vertex 149.427 -148.763 -3
      vertex 149.427 -148.763 0
      vertex 149.298 -148.928 0
    endloop
  endfacet
  facet normal 0.828349 -0.560213 0
    outer loop
      vertex 149.544 -148.59 -3
      vertex 149.427 -148.763 0
      vertex 149.427 -148.763 -3
    endloop
  endfacet
  facet normal 0.828349 -0.560213 0
    outer loop
      vertex 149.544 -148.59 -3
      vertex 149.544 -148.59 0
      vertex 149.427 -148.763 0
    endloop
  endfacet
  facet normal 0.866186 -0.499722 0
    outer loop
      vertex 149.649 -148.408 -3
      vertex 149.544 -148.59 0
      vertex 149.544 -148.59 -3
    endloop
  endfacet
  facet normal 0.866186 -0.499722 0
    outer loop
      vertex 149.649 -148.408 -3
      vertex 149.649 -148.408 0
      vertex 149.544 -148.59 0
    endloop
  endfacet
  facet normal 0.898217 -0.439553 0
    outer loop
      vertex 149.741 -148.22 -3
      vertex 149.649 -148.408 0
      vertex 149.649 -148.408 -3
    endloop
  endfacet
  facet normal 0.898217 -0.439553 0
    outer loop
      vertex 149.741 -148.22 -3
      vertex 149.741 -148.22 0
      vertex 149.649 -148.408 0
    endloop
  endfacet
  facet normal 0.927816 -0.373039 0
    outer loop
      vertex 149.819 -148.026 -3
      vertex 149.741 -148.22 0
      vertex 149.741 -148.22 -3
    endloop
  endfacet
  facet normal 0.927816 -0.373039 0
    outer loop
      vertex 149.819 -148.026 -3
      vertex 149.819 -148.026 0
      vertex 149.741 -148.22 0
    endloop
  endfacet
  facet normal 0.950577 -0.31049 0
    outer loop
      vertex 149.884 -147.827 -3
      vertex 149.819 -148.026 0
      vertex 149.819 -148.026 -3
    endloop
  endfacet
  facet normal 0.950577 -0.31049 0
    outer loop
      vertex 149.884 -147.827 -3
      vertex 149.884 -147.827 0
      vertex 149.819 -148.026 0
    endloop
  endfacet
  facet normal 0.970981 -0.239158 0
    outer loop
      vertex 149.934 -147.624 -3
      vertex 149.884 -147.827 0
      vertex 149.884 -147.827 -3
    endloop
  endfacet
  facet normal 0.970981 -0.239158 0
    outer loop
      vertex 149.934 -147.624 -3
      vertex 149.934 -147.624 0
      vertex 149.884 -147.827 0
    endloop
  endfacet
  facet normal 0.98425 -0.176783 0
    outer loop
      vertex 149.971 -147.418 -3
      vertex 149.934 -147.624 0
      vertex 149.934 -147.624 -3
    endloop
  endfacet
  facet normal 0.98425 -0.176783 0
    outer loop
      vertex 149.971 -147.418 -3
      vertex 149.971 -147.418 0
      vertex 149.934 -147.624 0
    endloop
  endfacet
  facet normal 0.994505 -0.104685 0
    outer loop
      vertex 149.993 -147.209 -3
      vertex 149.971 -147.418 0
      vertex 149.971 -147.418 -3
    endloop
  endfacet
  facet normal 0.994505 -0.104685 0
    outer loop
      vertex 149.993 -147.209 -3
      vertex 149.993 -147.209 0
      vertex 149.971 -147.418 0
    endloop
  endfacet
  facet normal 0.99944 -0.0334741 0
    outer loop
      vertex 150 -147 -3
      vertex 149.993 -147.209 0
      vertex 149.993 -147.209 -3
    endloop
  endfacet
  facet normal 0.99944 -0.0334741 0
    outer loop
      vertex 150 -147 -3
      vertex 150 -147 0
      vertex 149.993 -147.209 0
    endloop
  endfacet
  facet normal 1 0 0
    outer loop
      vertex 150 147 -3
      vertex 150 -147 0
      vertex 150 -147 -3
    endloop
  endfacet
  facet normal 1 0 -0
    outer loop
      vertex 150 147 -3
      vertex 150 147 0
      vertex 150 -147 0
    endloop
  endfacet
  facet normal 0.99944 0.0334741 0
    outer loop
      vertex 149.993 147.209 -3
      vertex 150 147 0
      vertex 150 147 -3
    endloop
  endfacet
  facet normal 0.99944 0.0334741 -0
    outer loop
      vertex 149.993 147.209 -3
      vertex 149.993 147.209 0
      vertex 150 147 0
    endloop
  endfacet
  facet normal 0.994505 0.104685 0
    outer loop
      vertex 149.971 147.418 -3
      vertex 149.993 147.209 0
      vertex 149.993 147.209 -3
    endloop
  endfacet
  facet normal 0.994505 0.104685 -0
    outer loop
      vertex 149.971 147.418 -3
      vertex 149.971 147.418 0
      vertex 149.993 147.209 0
    endloop
  endfacet
  facet normal 0.98425 0.176783 0
    outer loop
      vertex 149.934 147.624 -3
      vertex 149.971 147.418 0
      vertex 149.971 147.418 -3
    endloop
  endfacet
  facet normal 0.98425 0.176783 -0
    outer loop
      vertex 149.934 147.624 -3
      vertex 149.934 147.624 0
      vertex 149.971 147.418 0
    endloop
  endfacet
  facet normal 0.970981 0.239158 0
    outer loop
      vertex 149.884 147.827 -3
      vertex 149.934 147.624 0
      vertex 149.934 147.624 -3
    endloop
  endfacet
  facet normal 0.970981 0.239158 -0
    outer loop
      vertex 149.884 147.827 -3
      vertex 149.884 147.827 0
      vertex 149.934 147.624 0
    endloop
  endfacet
  facet normal 0.950577 0.31049 0
    outer loop
      vertex 149.819 148.026 -3
      vertex 149.884 147.827 0
      vertex 149.884 147.827 -3
    endloop
  endfacet
  facet normal 0.950577 0.31049 -0
    outer loop
      vertex 149.819 148.026 -3
      vertex 149.819 148.026 0
      vertex 149.884 147.827 0
    endloop
  endfacet
  facet normal 0.927816 0.373039 0
    outer loop
      vertex 149.741 148.22 -3
      vertex 149.819 148.026 0
      vertex 149.819 148.026 -3
    endloop
  endfacet
  facet normal 0.927816 0.373039 -0
    outer loop
      vertex 149.741 148.22 -3
      vertex 149.741 148.22 0
      vertex 149.819 148.026 0
    endloop
  endfacet
  facet normal 0.898217 0.439553 0
    outer loop
      vertex 149.649 148.408 -3
      vertex 149.741 148.22 0
      vertex 149.741 148.22 -3
    endloop
  endfacet
  facet normal 0.898217 0.439553 -0
    outer loop
      vertex 149.649 148.408 -3
      vertex 149.649 148.408 0
      vertex 149.741 148.22 0
    endloop
  endfacet
  facet normal 0.866186 0.499722 0
    outer loop
      vertex 149.544 148.59 -3
      vertex 149.649 148.408 0
      vertex 149.649 148.408 -3
    endloop
  endfacet
  facet normal 0.866186 0.499722 -0
    outer loop
      vertex 149.544 148.59 -3
      vertex 149.544 148.59 0
      vertex 149.649 148.408 0
    endloop
  endfacet
  facet normal 0.828349 0.560213 0
    outer loop
      vertex 149.427 148.763 -3
      vertex 149.544 148.59 0
      vertex 149.544 148.59 -3
    endloop
  endfacet
  facet normal 0.828349 0.560213 -0
    outer loop
      vertex 149.427 148.763 -3
      vertex 149.427 148.763 0
      vertex 149.544 148.59 0
    endloop
  endfacet
  facet normal 0.787807 0.615922 0
    outer loop
      vertex 149.298 148.928 -3
      vertex 149.427 148.763 0
      vertex 149.427 148.763 -3
    endloop
  endfacet
  facet normal 0.787807 0.615922 -0
    outer loop
      vertex 149.298 148.928 -3
      vertex 149.298 148.928 0
      vertex 149.427 148.763 0
    endloop
  endfacet
  facet normal 0.744242 0.66791 0
    outer loop
      vertex 149.158 149.084 -3
      vertex 149.298 148.928 0
      vertex 149.298 148.928 -3
    endloop
  endfacet
  facet normal 0.744242 0.66791 -0
    outer loop
      vertex 149.158 149.084 -3
      vertex 149.158 149.084 0
      vertex 149.298 148.928 0
    endloop
  endfacet
  facet normal 0.692631 0.721292 0
    outer loop
      vertex 149.007 149.229 -3
      vertex 149.158 149.084 0
      vertex 149.158 149.084 -3
    endloop
  endfacet
  facet normal 0.692631 0.721292 -0
    outer loop
      vertex 149.007 149.229 -3
      vertex 149.007 149.229 0
      vertex 149.158 149.084 0
    endloop
  endfacet
  facet normal 0.644871 0.764291 0
    outer loop
      vertex 148.847 149.364 -3
      vertex 149.007 149.229 0
      vertex 149.007 149.229 -3
    endloop
  endfacet
  facet normal 0.644871 0.764291 -0
    outer loop
      vertex 148.847 149.364 -3
      vertex 148.847 149.364 0
      vertex 149.007 149.229 0
    endloop
  endfacet
  facet normal 0.588456 0.808529 0
    outer loop
      vertex 148.678 149.487 -3
      vertex 148.847 149.364 0
      vertex 148.847 149.364 -3
    endloop
  endfacet
  facet normal 0.588456 0.808529 -0
    outer loop
      vertex 148.678 149.487 -3
      vertex 148.678 149.487 0
      vertex 148.847 149.364 0
    endloop
  endfacet
  facet normal 0.529142 0.848533 0
    outer loop
      vertex 148.5 149.598 -3
      vertex 148.678 149.487 0
      vertex 148.678 149.487 -3
    endloop
  endfacet
  facet normal 0.529142 0.848533 -0
    outer loop
      vertex 148.5 149.598 -3
      vertex 148.5 149.598 0
      vertex 148.678 149.487 0
    endloop
  endfacet
  facet normal 0.468107 0.883672 0
    outer loop
      vertex 148.315 149.696 -3
      vertex 148.5 149.598 0
      vertex 148.5 149.598 -3
    endloop
  endfacet
  facet normal 0.468107 0.883672 -0
    outer loop
      vertex 148.315 149.696 -3
      vertex 148.315 149.696 0
      vertex 148.5 149.598 0
    endloop
  endfacet
  facet normal 0.410563 0.911832 0
    outer loop
      vertex 148.124 149.782 -3
      vertex 148.315 149.696 0
      vertex 148.315 149.696 -3
    endloop
  endfacet
  facet normal 0.410563 0.911832 -0
    outer loop
      vertex 148.124 149.782 -3
      vertex 148.124 149.782 0
      vertex 148.315 149.696 0
    endloop
  endfacet
  facet normal 0.339058 0.940766 0
    outer loop
      vertex 147.927 149.853 -3
      vertex 148.124 149.782 0
      vertex 148.124 149.782 -3
    endloop
  endfacet
  facet normal 0.339058 0.940766 -0
    outer loop
      vertex 147.927 149.853 -3
      vertex 147.927 149.853 0
      vertex 148.124 149.782 0
    endloop
  endfacet
  facet normal 0.277246 0.960799 0
    outer loop
      vertex 147.726 149.911 -3
      vertex 147.927 149.853 0
      vertex 147.927 149.853 -3
    endloop
  endfacet
  facet normal 0.277246 0.960799 -0
    outer loop
      vertex 147.726 149.911 -3
      vertex 147.726 149.911 0
      vertex 147.927 149.853 0
    endloop
  endfacet
  facet normal 0.205289 0.978701 0
    outer loop
      vertex 147.521 149.954 -3
      vertex 147.726 149.911 0
      vertex 147.726 149.911 -3
    endloop
  endfacet
  facet normal 0.205289 0.978701 -0
    outer loop
      vertex 147.521 149.954 -3
      vertex 147.521 149.954 0
      vertex 147.726 149.911 0
    endloop
  endfacet
  facet normal 0.143429 0.989661 0
    outer loop
      vertex 147.314 149.984 -3
      vertex 147.521 149.954 0
      vertex 147.521 149.954 -3
    endloop
  endfacet
  facet normal 0.143429 0.989661 -0
    outer loop
      vertex 147.314 149.984 -3
      vertex 147.314 149.984 0
      vertex 147.521 149.954 0
    endloop
  endfacet
  facet normal 0.0668359 0.997764 0
    outer loop
      vertex 147.105 149.998 -3
      vertex 147.314 149.984 0
      vertex 147.314 149.984 -3
    endloop
  endfacet
  facet normal 0.0668359 0.997764 -0
    outer loop
      vertex 147.105 149.998 -3
      vertex 147.105 149.998 0
      vertex 147.314 149.984 0
    endloop
  endfacet
  facet normal 0 1 0
    outer loop
      vertex 147.002 149.998 -3
      vertex 147.105 149.998 0
      vertex 147.105 149.998 -3
    endloop
  endfacet
  facet normal 0 1 0
    outer loop
      vertex 147.002 149.998 -3
      vertex 147.002 149.998 0
      vertex 147.105 149.998 0
    endloop
  endfacet
  facet normal 0.707107 0.707107 0
    outer loop
      vertex 147 150 -3
      vertex 147.002 149.998 0
      vertex 147.002 149.998 -3
    endloop
  endfacet
  facet normal 0.707107 0.707107 -0
    outer loop
      vertex 147 150 -3
      vertex 147 150 0
      vertex 147.002 149.998 0
    endloop
  endfacet
  facet normal 0 1 0
    outer loop
      vertex -147 150 -3
      vertex 147 150 0
      vertex 147 150 -3
    endloop
  endfacet
  facet normal 0 1 0
    outer loop
      vertex -147 150 -3
      vertex -147 150 0
      vertex 147 150 0
    endloop
  endfacet
  facet normal -0.707107 0.707107 0
    outer loop
      vertex -147.002 149.998 -3
      vertex -147 150 0
      vertex -147 150 -3
    endloop
  endfacet
  facet normal -0.707107 0.707107 0
    outer loop
      vertex -147.002 149.998 -3
      vertex -147.002 149.998 0
      vertex -147 150 0
    endloop
  endfacet
  facet normal 0 1 0
    outer loop
      vertex -147.105 149.998 -3
      vertex -147.002 149.998 0
      vertex -147.002 149.998 -3
    endloop
  endfacet
  facet normal 0 1 0
    outer loop
      vertex -147.105 149.998 -3
      vertex -147.105 149.998 0
      vertex -147.002 149.998 0
    endloop
  endfacet
  facet normal -0.0668359 0.997764 0
    outer loop
      vertex -147.314 149.984 -3
      vertex -147.105 149.998 0
      vertex -147.105 149.998 -3
    endloop
  endfacet
  facet normal -0.0668359 0.997764 0
    outer loop
      vertex -147.314 149.984 -3
      vertex -147.314 149.984 0
      vertex -147.105 149.998 0
    endloop
  endfacet
  facet normal -0.143429 0.989661 0
    outer loop
      vertex -147.521 149.954 -3
      vertex -147.314 149.984 0
      vertex -147.314 149.984 -3
    endloop
  endfacet
  facet normal -0.143429 0.989661 0
    outer loop
      vertex -147.521 149.954 -3
      vertex -147.521 149.954 0
      vertex -147.314 149.984 0
    endloop
  endfacet
  facet normal -0.205289 0.978701 0
    outer loop
      vertex -147.726 149.911 -3
      vertex -147.521 149.954 0
      vertex -147.521 149.954 -3
    endloop
  endfacet
  facet normal -0.205289 0.978701 0
    outer loop
      vertex -147.726 149.911 -3
      vertex -147.726 149.911 0
      vertex -147.521 149.954 0
    endloop
  endfacet
  facet normal -0.277246 0.960799 0
    outer loop
      vertex -147.927 149.853 -3
      vertex -147.726 149.911 0
      vertex -147.726 149.911 -3
    endloop
  endfacet
  facet normal -0.277246 0.960799 0
    outer loop
      vertex -147.927 149.853 -3
      vertex -147.927 149.853 0
      vertex -147.726 149.911 0
    endloop
  endfacet
  facet normal -0.339058 0.940766 0
    outer loop
      vertex -148.124 149.782 -3
      vertex -147.927 149.853 0
      vertex -147.927 149.853 -3
    endloop
  endfacet
  facet normal -0.339058 0.940766 0
    outer loop
      vertex -148.124 149.782 -3
      vertex -148.124 149.782 0
      vertex -147.927 149.853 0
    endloop
  endfacet
  facet normal -0.410563 0.911832 0
    outer loop
      vertex -148.315 149.696 -3
      vertex -148.124 149.782 0
      vertex -148.124 149.782 -3
    endloop
  endfacet
  facet normal -0.410563 0.911832 0
    outer loop
      vertex -148.315 149.696 -3
      vertex -148.315 149.696 0
      vertex -148.124 149.782 0
    endloop
  endfacet
  facet normal -0.468107 0.883672 0
    outer loop
      vertex -148.5 149.598 -3
      vertex -148.315 149.696 0
      vertex -148.315 149.696 -3
    endloop
  endfacet
  facet normal -0.468107 0.883672 0
    outer loop
      vertex -148.5 149.598 -3
      vertex -148.5 149.598 0
      vertex -148.315 149.696 0
    endloop
  endfacet
  facet normal -0.529142 0.848533 0
    outer loop
      vertex -148.678 149.487 -3
      vertex -148.5 149.598 0
      vertex -148.5 149.598 -3
    endloop
  endfacet
  facet normal -0.529142 0.848533 0
    outer loop
      vertex -148.678 149.487 -3
      vertex -148.678 149.487 0
      vertex -148.5 149.598 0
    endloop
  endfacet
  facet normal -0.588456 0.808529 0
    outer loop
      vertex -148.847 149.364 -3
      vertex -148.678 149.487 0
      vertex -148.678 149.487 -3
    endloop
  endfacet
  facet normal -0.588456 0.808529 0
    outer loop
      vertex -148.847 149.364 -3
      vertex -148.847 149.364 0
      vertex -148.678 149.487 0
    endloop
  endfacet
  facet normal -0.644871 0.764291 0
    outer loop
      vertex -149.007 149.229 -3
      vertex -148.847 149.364 0
      vertex -148.847 149.364 -3
    endloop
  endfacet
  facet normal -0.644871 0.764291 0
    outer loop
      vertex -149.007 149.229 -3
      vertex -149.007 149.229 0
      vertex -148.847 149.364 0
    endloop
  endfacet
  facet normal -0.692631 0.721292 0
    outer loop
      vertex -149.158 149.084 -3
      vertex -149.007 149.229 0
      vertex -149.007 149.229 -3
    endloop
  endfacet
  facet normal -0.692631 0.721292 0
    outer loop
      vertex -149.158 149.084 -3
      vertex -149.158 149.084 0
      vertex -149.007 149.229 0
    endloop
  endfacet
  facet normal -0.744242 0.66791 0
    outer loop
      vertex -149.298 148.928 -3
      vertex -149.158 149.084 0
      vertex -149.158 149.084 -3
    endloop
  endfacet
  facet normal -0.744242 0.66791 0
    outer loop
      vertex -149.298 148.928 -3
      vertex -149.298 148.928 0
      vertex -149.158 149.084 0
    endloop
  endfacet
  facet normal -0.787807 0.615922 0
    outer loop
      vertex -149.427 148.763 -3
      vertex -149.298 148.928 0
      vertex -149.298 148.928 -3
    endloop
  endfacet
  facet normal -0.787807 0.615922 0
    outer loop
      vertex -149.427 148.763 -3
      vertex -149.427 148.763 0
      vertex -149.298 148.928 0
    endloop
  endfacet
  facet normal -0.828349 0.560213 0
    outer loop
      vertex -149.544 148.59 -3
      vertex -149.427 148.763 0
      vertex -149.427 148.763 -3
    endloop
  endfacet
  facet normal -0.828349 0.560213 0
    outer loop
      vertex -149.544 148.59 -3
      vertex -149.544 148.59 0
      vertex -149.427 148.763 0
    endloop
  endfacet
  facet normal -0.866186 0.499722 0
    outer loop
      vertex -149.649 148.408 -3
      vertex -149.544 148.59 0
      vertex -149.544 148.59 -3
    endloop
  endfacet
  facet normal -0.866186 0.499722 0
    outer loop
      vertex -149.649 148.408 -3
      vertex -149.649 148.408 0
      vertex -149.544 148.59 0
    endloop
  endfacet
  facet normal -0.898217 0.439553 0
    outer loop
      vertex -149.741 148.22 -3
      vertex -149.649 148.408 0
      vertex -149.649 148.408 -3
    endloop
  endfacet
  facet normal -0.898217 0.439553 0
    outer loop
      vertex -149.741 148.22 -3
      vertex -149.741 148.22 0
      vertex -149.649 148.408 0
    endloop
  endfacet
  facet normal -0.927816 0.373039 0
    outer loop
      vertex -149.819 148.026 -3
      vertex -149.741 148.22 0
      vertex -149.741 148.22 -3
    endloop
  endfacet
  facet normal -0.927816 0.373039 0
    outer loop
      vertex -149.819 148.026 -3
      vertex -149.819 148.026 0
      vertex -149.741 148.22 0
    endloop
  endfacet
  facet normal -0.950577 0.31049 0
    outer loop
      vertex -149.884 147.827 -3
      vertex -149.819 148.026 0
      vertex -149.819 148.026 -3
    endloop
  endfacet
  facet normal -0.950577 0.31049 0
    outer loop
      vertex -149.884 147.827 -3
      vertex -149.884 147.827 0
      vertex -149.819 148.026 0
    endloop
  endfacet
  facet normal -0.970981 0.239158 0
    outer loop
      vertex -149.934 147.624 -3
      vertex -149.884 147.827 0
      vertex -149.884 147.827 -3
    endloop
  endfacet
  facet normal -0.970981 0.239158 0
    outer loop
      vertex -149.934 147.624 -3
      vertex -149.934 147.624 0
      vertex -149.884 147.827 0
    endloop
  endfacet
  facet normal -0.98425 0.176783 0
    outer loop
      vertex -149.971 147.418 -3
      vertex -149.934 147.624 0
      vertex -149.934 147.624 -3
    endloop
  endfacet
  facet normal -0.98425 0.176783 0
    outer loop
      vertex -149.971 147.418 -3
      vertex -149.971 147.418 0
      vertex -149.934 147.624 0
    endloop
  endfacet
  facet normal -0.994505 0.104685 0
    outer loop
      vertex -149.993 147.209 -3
      vertex -149.971 147.418 0
      vertex -149.971 147.418 -3
    endloop
  endfacet
  facet normal -0.994505 0.104685 0
    outer loop
      vertex -149.993 147.209 -3
      vertex -149.993 147.209 0
      vertex -149.971 147.418 0
    endloop
  endfacet
  facet normal -0.99944 0.0334741 0
    outer loop
      vertex -150 147 -3
      vertex -149.993 147.209 0
      vertex -149.993 147.209 -3
    endloop
  endfacet
  facet normal -0.99944 0.0334741 0
    outer loop
      vertex -150 147 -3
      vertex -150 147 0
      vertex -149.993 147.209 0
    endloop
  endfacet
  facet normal -1 0 0
    outer loop
      vertex -150 -147 -3
      vertex -150 147 0
      vertex -150 147 -3
    endloop
  endfacet
  facet normal -1 0 0
    outer loop
      vertex -150 -147 -3
      vertex -150 -147 0
      vertex -150 147 0
    endloop
  endfacet
  facet normal -0.99944 -0.0334741 0
    outer loop
      vertex -149.993 -147.209 -3
      vertex -150 -147 0
      vertex -150 -147 -3
    endloop
  endfacet
  facet normal -0.99944 -0.0334741 0
    outer loop
      vertex -149.993 -147.209 -3
      vertex -149.993 -147.209 0
      vertex -150 -147 0
    endloop
  endfacet
  facet normal -0.994505 -0.104685 0
    outer loop
      vertex -149.971 -147.418 -3
      vertex -149.993 -147.209 0
      vertex -149.993 -147.209 -3
    endloop
  endfacet
  facet normal -0.994505 -0.104685 0
    outer loop
      vertex -149.971 -147.418 -3
      vertex -149.971 -147.418 0
      vertex -149.993 -147.209 0
    endloop
  endfacet
  facet normal -0.98425 -0.176783 0
    outer loop
      vertex -149.934 -147.624 -3
      vertex -149.971 -147.418 0
      vertex -149.971 -147.418 -3
    endloop
  endfacet
  facet normal -0.98425 -0.176783 0
    outer loop
      vertex -149.934 -147.624 -3
      vertex -149.934 -147.624 0
      vertex -149.971 -147.418 0
    endloop
  endfacet
  facet normal -0.970981 -0.239158 0
    outer loop
      vertex -149.884 -147.827 -3
      vertex -149.934 -147.624 0
      vertex -149.934 -147.624 -3
    endloop
  endfacet
  facet normal -0.970981 -0.239158 0
    outer loop
      vertex -149.884 -147.827 -3
      vertex -149.884 -147.827 0
      vertex -149.934 -147.624 0
    endloop
  endfacet
  facet normal -0.950577 -0.31049 0
    outer loop
      vertex -149.819 -148.026 -3
      vertex -149.884 -147.827 0
      vertex -149.884 -147.827 -3
    endloop
  endfacet
  facet normal -0.950577 -0.31049 0
    outer loop
      vertex -149.819 -148.026 -3
      vertex -149.819 -148.026 0
      vertex -149.884 -147.827 0
    endloop
  endfacet
  facet normal -0.927816 -0.373039 0
    outer loop
      vertex -149.741 -148.22 -3
      vertex -149.819 -148.026 0
      vertex -149.819 -148.026 -3
    endloop
  endfacet
  facet normal -0.927816 -0.373039 0
    outer loop
      vertex -149.741 -148.22 -3
      vertex -149.741 -148.22 0
      vertex -149.819 -148.026 0
    endloop
  endfacet
  facet normal -0.898217 -0.439553 0
    outer loop
      vertex -149.649 -148.408 -3
      vertex -149.741 -148.22 0
      vertex -149.741 -148.22 -3
    endloop
  endfacet
  facet normal -0.898217 -0.439553 0
    outer loop
      vertex -149.649 -148.408 -3
      vertex -149.649 -148.408 0
      vertex -149.741 -148.22 0
    endloop
  endfacet
  facet normal -0.866186 -0.499722 0
    outer loop
      vertex -149.544 -148.59 -3
      vertex -149.649 -148.408 0
      vertex -149.649 -148.408 -3
    endloop
  endfacet
  facet normal -0.866186 -0.499722 0
    outer loop
      vertex -149.544 -148.59 -3
      vertex -149.544 -148.59 0
      vertex -149.649 -148.408 0
    endloop
  endfacet
  facet normal -0.828349 -0.560213 0
    outer loop
      vertex -149.427 -148.763 -3
      vertex -149.544 -148.59 0
      vertex -149.544 -148.59 -3
    endloop
  endfacet
  facet normal -0.828349 -0.560213 0
    outer loop
      vertex -149.427 -148.763 -3
      vertex -149.427 -148.763 0
      vertex -149.544 -148.59 0
    endloop
  endfacet
  facet normal -0.787807 -0.615922 0
    outer loop
      vertex -149.298 -148.928 -3
      vertex -149.427 -148.763 0
      vertex -149.427 -148.763 -3
    endloop
  endfacet
  facet normal -0.787807 -0.615922 0
    outer loop
      vertex -149.298 -148.928 -3
      vertex -149.298 -148.928 0
      vertex -149.427 -148.763 0
    endloop
  endfacet
  facet normal -0.744242 -0.66791 0
    outer loop
      vertex -149.158 -149.084 -3
      vertex -149.298 -148.928 0
      vertex -149.298 -148.928 -3
    endloop
  endfacet
  facet normal -0.744242 -0.66791 0
    outer loop
      vertex -149.158 -149.084 -3
      vertex -149.158 -149.084 0
      vertex -149.298 -148.928 0
    endloop
  endfacet
  facet normal -0.692631 -0.721292 0
    outer loop
      vertex -149.007 -149.229 -3
      vertex -149.158 -149.084 0
      vertex -149.158 -149.084 -3
    endloop
  endfacet
  facet normal -0.692631 -0.721292 0
    outer loop
      vertex -149.007 -149.229 -3
      vertex -149.007 -149.229 0
      vertex -149.158 -149.084 0
    endloop
  endfacet
  facet normal -0.644871 -0.764291 0
    outer loop
      vertex -148.847 -149.364 -3
      vertex -149.007 -149.229 0
      vertex -149.007 -149.229 -3
    endloop
  endfacet
  facet normal -0.644871 -0.764291 0
    outer loop
      vertex -148.847 -149.364 -3
      vertex -148.847 -149.364 0
      vertex -149.007 -149.229 0
    endloop
  endfacet
  facet normal -0.588456 -0.808529 0
    outer loop
      vertex -148.678 -149.487 -3
      vertex -148.847 -149.364 0
      vertex -148.847 -149.364 -3
    endloop
  endfacet
  facet normal -0.588456 -0.808529 0
    outer loop
      vertex -148.678 -149.487 -3
      vertex -148.678 -149.487 0
      vertex -148.847 -149.364 0
    endloop
  endfacet
  facet normal -0.529142 -0.848533 0
    outer loop
      vertex -148.5 -149.598 -3
      vertex -148.678 -149.487 0
      vertex -148.678 -149.487 -3
    endloop
  endfacet
  facet normal -0.529142 -0.848533 0
    outer loop
      vertex -148.5 -149.598 -3
      vertex -148.5 -149.598 0
      vertex -148.678 -149.487 0
    endloop
  endfacet
  facet normal -0.468107 -0.883672 0
    outer loop
      vertex -148.315 -149.696 -3
      vertex -148.5 -149.598 0
      vertex -148.5 -149.598 -3
    endloop
  endfacet
  facet normal -0.468107 -0.883672 0
    outer loop
      vertex -148.315 -149.696 -3
      vertex -148.315 -149.696 0
      vertex -148.5 -149.598 0
    endloop
  endfacet
  facet normal -0.410563 -0.911832 0
    outer loop
      vertex -148.124 -149.782 -3
      vertex -148.315 -149.696 0
      vertex -148.315 -149.696 -3
    endloop
  endfacet
  facet normal -0.410563 -0.911832 0
    outer loop
      vertex -148.124 -149.782 -3
      vertex -148.124 -149.782 0
      vertex -148.315 -149.696 0
    endloop
  endfacet
  facet normal -0.339058 -0.940766 0
    outer loop
      vertex -147.927 -149.853 -3
      vertex -148.124 -149.782 0
      vertex -148.124 -149.782 -3
    endloop
  endfacet
  facet normal -0.339058 -0.940766 0
    outer loop
      vertex -147.927 -149.853 -3
      vertex -147.927 -149.853 0
      vertex -148.124 -149.782 0
    endloop
  endfacet
  facet normal -0.277246 -0.960799 0
    outer loop
      vertex -147.726 -149.911 -3
      vertex -147.927 -149.853 0
      vertex -147.927 -149.853 -3
    endloop
  endfacet
  facet normal -0.277246 -0.960799 0
    outer loop
      vertex -147.726 -149.911 -3
      vertex -147.726 -149.911 0
      vertex -147.927 -149.853 0
    endloop
  endfacet
  facet normal -0.205289 -0.978701 0
    outer loop
      vertex -147.521 -149.954 -3
      vertex -147.726 -149.911 0
      vertex -147.726 -149.911 -3
    endloop
  endfacet
  facet normal -0.205289 -0.978701 0
    outer loop
      vertex -147.521 -149.954 -3
      vertex -147.521 -149.954 0
      vertex -147.726 -149.911 0
    endloop
  endfacet
  facet normal -0.143429 -0.989661 0
    outer loop
      vertex -147.314 -149.984 -3
      vertex -147.521 -149.954 0
      vertex -147.521 -149.954 -3
    endloop
  endfacet
  facet normal -0.143429 -0.989661 0
    outer loop
      vertex -147.314 -149.984 -3
      vertex -147.314 -149.984 0
      vertex -147.521 -149.954 0
    endloop
  endfacet
  facet normal -0.0668359 -0.997764 0
    outer loop
      vertex -147.105 -149.998 -3
      vertex -147.314 -149.984 0
      vertex -147.314 -149.984 -3
    endloop
  endfacet
  facet normal -0.0668359 -0.997764 0
    outer loop
      vertex -147.105 -149.998 -3
      vertex -147.105 -149.998 0
      vertex -147.314 -149.984 0
    endloop
  endfacet
  facet normal 0 -1 0
    outer loop
      vertex -147.002 -149.998 -3
      vertex -147.105 -149.998 0
      vertex -147.105 -149.998 -3
    endloop
  endfacet
  facet normal 0 -1 0
    outer loop
      vertex -147.002 -149.998 -3
      vertex -147.002 -149.998 0
      vertex -147.105 -149.998 0
    endloop
  endfacet
  facet normal -0.707107 -0.707107 0
    outer loop
      vertex -147 -150 -3
      vertex -147.002 -149.998 0
      vertex -147.002 -149.998 -3
    endloop
  endfacet
  facet normal -0.707107 -0.707107 0
    outer loop
      vertex -147 -150 -3
      vertex -147 -150 0
      vertex -147.002 -149.998 0
    endloop
  endfacet
  facet normal 0 -1 0
    outer loop
      vertex 147 -150 -3
      vertex -147 -150 0
      vertex -147 -150 -3
    endloop
  endfacet
  facet normal 0 -1 0
    outer loop
      vertex 147 -150 -3
      vertex 147 -150 0
      vertex -147 -150 0
    endloop
  endfacet
  facet normal 0.707107 -0.707107 0
    outer loop
      vertex 147.002 -149.998 -3
      vertex 147 -150 0
      vertex 147 -150 -3
    endloop
  endfacet
  facet normal 0.707107 -0.707107 0
    outer loop
      vertex 147.002 -149.998 -3
      vertex 147.002 -149.998 0
      vertex 147 -150 0
    endloop
  endfacet
endsolid OpenSCAD_Model
