<?xml version="1.0" encoding="UTF-8" standalone="no"?>
<svg
   xmlns:dc="http://purl.org/dc/elements/1.1/"
   xmlns:cc="http://creativecommons.org/ns#"
   xmlns:rdf="http://www.w3.org/1999/02/22-rdf-syntax-ns#"
   xmlns:svg="http://www.w3.org/2000/svg"
   xmlns="http://www.w3.org/2000/svg"
   id="Layer_1"
   data-name="Layer 1"
   width="180.5mm"
   height="180.6mm"
   viewBox="0 0 511.7 512"
   version="1.1">
  <metadata
     id="metadata1085">
    <rdf:RDF>
      <cc:Work
         rdf:about="">
        <dc:format>image/svg+xml</dc:format>
        <dc:type
           rdf:resource="http://purl.org/dc/dcmitype/StillImage" />
        <dc:title>MINI_bed_texture</dc:title>
      </cc:Work>
    </rdf:RDF>
  </metadata>
  <defs
     id="defs1083" />
  <title
     id="title960">MINI_bed_texture</title>
  <path
     d="M510.6,510.9"
     transform="translate(0.4 0.4)"
     style="fill: none;stroke: #fff;stroke-linecap: round;stroke-linejoin: round;stroke-width: 1.5px"
     id="path962" />
  <path
     d="M.4,510.9"
     transform="translate(0.4 0.4)"
     style="fill: none;stroke: #fff;stroke-linecap: round;stroke-linejoin: round;stroke-width: 1.5px"
     id="path964" />
  <line
     x1="511"
     y1="511.3"
     x2="511"
     y2="0.8"
     style="fill: none;stroke: #fff;stroke-linecap: round;stroke-linejoin: round;stroke-width: 1.5px"
     id="line966" />
  <path
     d="M.4.4"
     transform="translate(0.4 0.4)"
     style="fill: none;stroke: #fff;stroke-linecap: round;stroke-linejoin: round;stroke-width: 1.5px"
     id="path968" />
  <path
     d="M510.6.4"
     transform="translate(0.4 0.4)"
     style="fill: none;stroke: #fff;stroke-linecap: round;stroke-linejoin: round;stroke-width: 1.5px"
     id="path970" />
  <line
     x1="0.8"
     y1="0.8"
     x2="0.8"
     y2="511.3"
     style="fill: none;stroke: #fff;stroke-linecap: round;stroke-linejoin: round;stroke-width: 1.5px"
     id="line972" />
  <line
     x1="0.8"
     y1="511.3"
     x2="0.8"
     y2="0.8"
     style="fill: none;stroke: #fff;stroke-linecap: round;stroke-linejoin: round;stroke-width: 1.5px"
     id="line974" />
  <line
     x1="511"
     y1="0.8"
     x2="511"
     y2="511.3"
     style="fill: none;stroke: #fff;stroke-linecap: round;stroke-linejoin: round;stroke-width: 1.5px"
     id="line976" />
  <line
     x1="0.8"
     y1="511.3"
     x2="511"
     y2="511.3"
     style="fill: none;stroke: #fff;stroke-linecap: round;stroke-linejoin: round;stroke-width: 1.5px"
     id="line978" />
  <line
     x1="0.8"
     y1="0.8"
     x2="511"
     y2="0.8"
     style="fill: none;stroke: #fff;stroke-linecap: round;stroke-linejoin: round;stroke-width: 1.5px"
     id="line980" />
  <g
     id="g1042">
    <g
       id="g990">
      <line
         x1="0.8"
         y1="383.6"
         x2="2.9"
         y2="383.6"
         style="fill: none;stroke: #fff;stroke-linecap: round;stroke-linejoin: round"
         id="line982" />
      <line
         x1="5"
         y1="383.6"
         x2="6.6"
         y2="383.6"
         style="fill: none;stroke: #fff;stroke-linecap: round;stroke-linejoin: round;stroke-dasharray: 0.5694814920425415,2.1355555057525635"
         id="line984" />
      <line
         x1="7.7"
         y1="383.6"
         x2="507.8"
         y2="383.6"
         style="fill: none;stroke: #fff;stroke-linecap: round;stroke-linejoin: round;stroke-dasharray: 4.271111011505127,2.1355555057525635,0.5694814920425415,2.1355555057525635"
         id="line986" />
      <line
         x1="508.9"
         y1="383.6"
         x2="511"
         y2="383.6"
         style="fill: none;stroke: #fff;stroke-linecap: round;stroke-linejoin: round"
         id="line988" />
    </g>
    <g
       id="g1000">
      <line
         x1="0.8"
         y1="256"
         x2="2.9"
         y2="256"
         style="fill: none;stroke: #fff;stroke-linecap: round;stroke-linejoin: round"
         id="line992" />
      <line
         x1="5"
         y1="256"
         x2="6.6"
         y2="256"
         style="fill: none;stroke: #fff;stroke-linecap: round;stroke-linejoin: round;stroke-dasharray: 0.5694814920425415,2.1355555057525635"
         id="line994" />
      <line
         x1="7.7"
         y1="256"
         x2="507.8"
         y2="256"
         style="fill: none;stroke: #fff;stroke-linecap: round;stroke-linejoin: round;stroke-dasharray: 4.271111011505127,2.1355555057525635,0.5694814920425415,2.1355555057525635"
         id="line996" />
      <line
         x1="508.9"
         y1="256"
         x2="511"
         y2="256"
         style="fill: none;stroke: #fff;stroke-linecap: round;stroke-linejoin: round"
         id="line998" />
    </g>
    <g
       id="g1010">
      <line
         x1="511"
         y1="128.4"
         x2="508.9"
         y2="128.4"
         style="fill: none;stroke: #fff;stroke-linecap: round;stroke-linejoin: round"
         id="line1002" />
      <line
         x1="506.7"
         y1="128.4"
         x2="505.1"
         y2="128.4"
         style="fill: none;stroke: #fff;stroke-linecap: round;stroke-linejoin: round;stroke-dasharray: 0.5694814920425415,2.1355555057525635"
         id="line1004" />
      <line
         x1="504"
         y1="128.4"
         x2="3.9"
         y2="128.4"
         style="fill: none;stroke: #fff;stroke-linecap: round;stroke-linejoin: round;stroke-dasharray: 4.271111011505127,2.1355555057525635,0.5694814920425415,2.1355555057525635"
         id="line1006" />
      <line
         x1="2.9"
         y1="128.4"
         x2="0.8"
         y2="128.4"
         style="fill: none;stroke: #fff;stroke-linecap: round;stroke-linejoin: round"
         id="line1008" />
    </g>
    <g
       id="g1020">
      <line
         x1="128.3"
         y1="511.3"
         x2="128.3"
         y2="509.1"
         style="fill: none;stroke: #fff;stroke-linecap: round;stroke-linejoin: round"
         id="line1012" />
      <line
         x1="128.3"
         y1="507"
         x2="128.3"
         y2="505.4"
         style="fill: none;stroke: #fff;stroke-linecap: round;stroke-linejoin: round;stroke-dasharray: 0.569789707660675,2.1367111206054688"
         id="line1014" />
      <line
         x1="128.3"
         y1="504.3"
         x2="128.3"
         y2="3.9"
         style="fill: none;stroke: #fff;stroke-linecap: round;stroke-linejoin: round;stroke-dasharray: 4.2734222412109375,2.1367111206054688,0.569789707660675,2.1367111206054688"
         id="line1016" />
      <line
         x1="128.3"
         y1="2.9"
         x2="128.3"
         y2="0.8"
         style="fill: none;stroke: #fff;stroke-linecap: round;stroke-linejoin: round"
         id="line1018" />
    </g>
    <g
       id="g1030">
      <line
         x1="255.9"
         y1="0.8"
         x2="255.9"
         y2="2.9"
         style="fill: none;stroke: #fff;stroke-linecap: round;stroke-linejoin: round"
         id="line1022" />
      <line
         x1="255.9"
         y1="5"
         x2="255.9"
         y2="6.7"
         style="fill: none;stroke: #fff;stroke-linecap: round;stroke-linejoin: round;stroke-dasharray: 0.569789707660675,2.1367111206054688"
         id="line1024" />
      <line
         x1="255.9"
         y1="7.7"
         x2="255.9"
         y2="508.1"
         style="fill: none;stroke: #fff;stroke-linecap: round;stroke-linejoin: round;stroke-dasharray: 4.2734222412109375,2.1367111206054688,0.569789707660675,2.1367111206054688"
         id="line1026" />
      <line
         x1="255.9"
         y1="509.1"
         x2="255.9"
         y2="511.3"
         style="fill: none;stroke: #fff;stroke-linecap: round;stroke-linejoin: round"
         id="line1028" />
    </g>
    <g
       id="g1040">
      <line
         x1="383.4"
         y1="484.8"
         x2="383.4"
         y2="482.6"
         style="fill: none;stroke: #fff;stroke-linecap: round;stroke-linejoin: round"
         id="line1032" />
      <line
         x1="383.4"
         y1="480.5"
         x2="383.4"
         y2="478.9"
         style="fill: none;stroke: #fff;stroke-linecap: round;stroke-linejoin: round;stroke-dasharray: 0.5708136558532715,2.1405510902404785"
         id="line1034" />
      <line
         x1="383.4"
         y1="477.8"
         x2="383.4"
         y2="3.9"
         style="fill: none;stroke: #fff;stroke-linecap: round;stroke-linejoin: round;stroke-dasharray: 4.281102180480957,2.1405510902404785,0.5708136558532715,2.1405510902404785"
         id="line1036" />
      <line
         x1="383.4"
         y1="2.9"
         x2="383.4"
         y2="0.8"
         style="fill: none;stroke: #fff;stroke-linecap: round;stroke-linejoin: round"
         id="line1038" />
    </g>
  </g>
  <g
     id="g1078">
    <path
       d="M277.3,489.1c4.6,0,7.4,2.8,7.4,8.1s-2.9,8.1-7.4,8.1-7.4-2.9-7.4-8.1S272.9,489.1,277.3,489.1Zm3.7,8.1c0-3.8-1.5-5.7-3.7-5.7s-3.8,1.9-3.8,5.7,1.3,5.6,3.8,5.6S281,500.9,281,497.2Z"
       transform="translate(0.4 0.4)"
       style="fill: #fff"
       id="path1044" />
    <path
       d="M293.1,499h-2.5v6h-3.3V489.3h6.1a7.3,7.3,0,0,1,3.2.6,4.1,4.1,0,0,1,2.6,4,4.4,4.4,0,0,1-3.1,4.3h0l3.5,6.8H296Zm-.1-2.4c1.5,0,2.7-.7,2.7-2.5a2.4,2.4,0,0,0-2.7-2.5h-2.4v5Z"
       transform="translate(0.4 0.4)"
       style="fill: #fff"
       id="path1046" />
    <path
       d="M302,489.3h3.4V505H302Z"
       transform="translate(0.4 0.4)"
       style="fill: #fff"
       id="path1048" />
    <path
       d="M311.6,497.2c0,4,1.4,5.6,3.8,5.6s3.4-1.3,3.6-3.5V499h-3.7v-2.4h6.8V505h-2.6v-2.2h-.1a5,5,0,0,1-4.6,2.5c-4.4,0-6.8-3.1-6.8-7.9s3-8.3,7.4-8.3,6.1,1.7,6.4,4.9h-3.4a2.8,2.8,0,0,0-3-2.5C313,491.5,311.6,493.5,311.6,497.2Z"
       transform="translate(0.4 0.4)"
       style="fill: #fff"
       id="path1050" />
    <path
       d="M325.1,489.3h3.4V505h-3.4Z"
       transform="translate(0.4 0.4)"
       style="fill: #fff"
       id="path1052" />
    <path
       d="M331.7,489.3h3.7l5,8.5a16.8,16.8,0,0,1,1.2,2.3h0V489.3h3.1V505h-3.5l-5.3-8.7a12.8,12.8,0,0,1-1.1-2.4h-.1V505h-3Z"
       transform="translate(0.4 0.4)"
       style="fill: #fff"
       id="path1054" />
    <path
       d="M356.8,501.5H351l-1.1,3.5h-3.2l5.4-15.7h3.8l5.6,15.7h-3.6Zm-3.5-7.1-1.5,4.6H356l-1.5-4.5c-.4-1.4-.6-2.3-.6-2.3h0A15.3,15.3,0,0,1,353.3,494.4Z"
       transform="translate(0.4 0.4)"
       style="fill: #fff"
       id="path1056" />
    <path
       d="M363.4,489.3h3.4v13h6.8V505H363.4Z"
       transform="translate(0.4 0.4)"
       style="fill: #fff"
       id="path1058" />
    <path
       d="M384,499.6V505h-3.4V489.3h5.5c3.4,0,6,1.4,6,5s-2.8,5.3-6.3,5.3Zm2-2.5a2.5,2.5,0,0,0,2.8-2.7c0-1.9-1.1-2.7-2.8-2.7h-2v5.4Z"
       transform="translate(0.4 0.4)"
       style="fill: #fff"
       id="path1060" />
    <path
       d="M400.1,499h-2.4v6h-3.4V489.3h6.1a7.3,7.3,0,0,1,3.2.6,3.9,3.9,0,0,1,2.6,4,4.5,4.5,0,0,1-3,4.3h0l3.5,6.8H403Zm-.1-2.4c1.5,0,2.8-.7,2.8-2.5a2.4,2.4,0,0,0-2.7-2.5h-2.4v5Z"
       transform="translate(0.4 0.4)"
       style="fill: #fff"
       id="path1062" />
    <path
       d="M408.7,489.3H412v9.1a5.6,5.6,0,0,0,.6,3.2,3.6,3.6,0,0,0,5,0c.6-.8.5-2.1.5-3.2v-9.1h3.3v10.2c0,3.9-2.5,5.8-6.4,5.8s-6.3-1.8-6.3-5.8Z"
       transform="translate(0.4 0.4)"
       style="fill: #fff"
       id="path1064" />
    <path
       d="M432.4,493.5a2,2,0,0,0-2.3-2c-1.5,0-2.4.8-2.4,1.9s.6,1.7,2.1,1.9l2.4.5c2.8.5,4.1,2,4.1,4.3s-2.3,5.2-6.3,5.2-6.1-1.9-6.2-4.8h3.5a2.5,2.5,0,0,0,2.8,2.3c1.9,0,2.7-.9,2.7-2.1s-.5-1.7-2.2-2l-2.3-.4c-2.4-.5-4.1-1.9-4.1-4.4s2.2-4.8,5.9-4.8,5.7,2,5.8,4.4Z"
       transform="translate(0.4 0.4)"
       style="fill: #fff"
       id="path1066" />
    <path
       d="M447.4,501.5h-5.7l-1.2,3.5h-3.2l5.5-15.7h3.7l5.6,15.7h-3.5Zm-3.5-7.1-1.4,4.6h4.1l-1.4-4.5a11.3,11.3,0,0,1-.6-2.3h-.1A15.3,15.3,0,0,1,443.9,494.4Z"
       transform="translate(0.4 0.4)"
       style="fill: #fff"
       id="path1068" />
    <path
       d="M458.7,489.3h4.9l2.8,8.4a15.7,15.7,0,0,1,.7,2.3h0l.7-2.3,2.8-8.4h4.9V505h-3.3V492.7h-.1a26.9,26.9,0,0,1-1,3.3l-2.9,9h-2.5l-2.9-9a26.9,26.9,0,0,1-1-3.3h0V505h-3.1Z"
       transform="translate(0.4 0.4)"
       style="fill: #fff"
       id="path1070" />
    <path
       d="M478.6,489.3H482V505h-3.4Z"
       transform="translate(0.4 0.4)"
       style="fill: #fff"
       id="path1072" />
    <path
       d="M485.2,489.3h3.7l5,8.5a16.8,16.8,0,0,1,1.2,2.3h0V489.3h3.1V505h-3.5l-5.3-8.7a12.8,12.8,0,0,1-1.1-2.4h-.1V505h-3Z"
       transform="translate(0.4 0.4)"
       style="fill: #fff"
       id="path1074" />
    <path
       d="M501.3,489.3h3.4V505h-3.4Z"
       transform="translate(0.4 0.4)"
       style="fill: #fff"
       id="path1076" />
  </g>
  <rect
     x="270.34909"
     y="469.54761"
     width="41.180065"
     height="15.751938"
     style="fill:#ff3c00;stroke-width:0.750092"
     id="rect1336" />
  <g
     id="g1348"
     transform="matrix(0.75009226,0,0,0.75009226,-18.88648,72.823744)">
    <path
       d="m 401.3,545.4 c 0,0.2 0,0.4 -0.2,0.4 h -2 c -0.2,0 -0.4,0 -0.4,-0.3 l -0.4,-1.7 h -3.2 l -0.4,1.7 c 0,0.2 -0.2,0.3 -0.4,0.3 h -2 c -0.2,0 -0.3,-0.1 -0.2,-0.4 l 3.3,-11.9 c 0,-0.2 0.2,-0.3 0.4,-0.3 h 1.7 c 0.2,0 0.3,0 0.4,0.3 l 3.3,11.9 z m -4.5,-9.2 -0.2,1.2 -0.9,4.2 h 2.2 l -0.9,-4.2 z"
       style="fill:#ffffff"
       id="path1338" />
    <path
       d="m 402.5,532.1 c 0,-0.2 0.1,-0.4 0.3,-0.4 h 1.8 c 0.2,0 0.3,0.1 0.3,0.4 v 13.3 c 0,0.2 0,0.4 -0.3,0.4 h -1.8 c -0.2,0 -0.3,-0.1 -0.3,-0.4 z"
       style="fill:#ffffff"
       id="path1340" />
    <path
       d="m 415,541.9 c 0,2.3 -1.4,4.1 -3.7,4.1 -2.3,0 -1.4,-0.5 -1.8,-1.1 v 3.9 c 0,0.2 -0.2,0.4 -0.4,0.4 h -1.7 c -0.2,0 -0.3,-0.1 -0.3,-0.4 v -13.5 c 0,-0.2 0.1,-0.4 0.3,-0.4 h 1.3 c 0.2,0 0.4,0.1 0.4,0.4 l 0.2,0.9 c 0.4,-0.8 1.1,-1.5 2.1,-1.5 2.2,0 3.6,1.9 3.6,4.1 z m -2.5,-3.2 c 0,-0.9 -0.6,-1.7 -1.5,-1.7 -0.9,0 -1.4,0.8 -1.5,1.8 v 3 c 0,1 0.6,1.9 1.5,1.9 0.9,0 1.5,-0.8 1.5,-1.7 z"
       style="fill:#ffffff"
       id="path1342" />
    <path
       d="m 422,538.6 c 0,-0.8 -0.6,-1.6 -1.5,-1.6 -0.9,0 -1.5,0.9 -1.5,1.6 v 6.8 c 0,0.2 -0.3,0.4 -0.5,0.4 h -1.7 c -0.2,0 -0.3,-0.1 -0.3,-0.4 v -13.3 c 0,-0.2 0.1,-0.4 0.3,-0.4 h 1.8 c 0.2,0 0.3,0 0.3,0.3 v 3.9 c 0.5,-0.8 1.2,-1.3 2.2,-1.3 1.9,0 3.3,1.3 3.3,4 v 6.7 c 0,0.2 -0.1,0.4 -0.3,0.4 h -1.8 c -0.2,0 -0.3,-0.1 -0.3,-0.4 v -6.8 z"
       style="fill:#ffffff"
       id="path1344" />
    <path
       d="m 426,538.8 c 0,-2.2 1.5,-4.1 3.7,-4.1 2.2,0 1.6,0.6 2,1.4 v -0.8 c 0.2,-0.2 0.3,-0.4 0.6,-0.4 h 1.3 c 0.2,0 0.3,0.1 0.3,0.4 v 10.1 c 0,0.2 -0.1,0.4 -0.3,0.4 h -1.3 c -0.2,0 -0.4,-0.1 -0.4,-0.4 v -0.9 c -0.5,0.8 -1.1,1.4 -2.2,1.4 -2.2,0 -3.7,-1.8 -3.7,-4.1 v -3.1 z m 2.5,3.2 c 0,0.9 0.6,1.7 1.5,1.7 0.9,0 1.4,-0.8 1.5,-1.8 v -3.1 c 0,-1 -0.6,-1.8 -1.5,-1.8 -0.9,0 -1.5,0.8 -1.5,1.7 z"
       style="fill:#ffffff"
       id="path1346" />
  </g>
</svg>
