<?xml version="1.0" encoding="UTF-8" standalone="no"?>
<svg
   xmlns:dc="http://purl.org/dc/elements/1.1/"
   xmlns:cc="http://creativecommons.org/ns#"
   xmlns:rdf="http://www.w3.org/1999/02/22-rdf-syntax-ns#"
   xmlns:svg="http://www.w3.org/2000/svg"
   xmlns="http://www.w3.org/2000/svg"
   id="Layer_1"
   data-name="Layer 1"
   width="360mm"
   height="360mm"
   viewBox="0 0 1020.5 1020.5"
   version="1.1">
  <metadata
     id="metadata129">
    <rdf:RDF>
      <cc:Work
         rdf:about="">
        <dc:format>image/svg+xml</dc:format>
        <dc:type
           rdf:resource="http://purl.org/dc/dcmitype/StillImage" />
        <dc:title></dc:title>
      </cc:Work>
    </rdf:RDF>
  </metadata>
  <defs
     id="defs1646" />
  <rect
     width="1020.5"
     height="1020.5"
     style="fill: none; stroke: #fff; stroke-miterlimit: 10; stroke-width: 5.7px;"
     id="rect1407" />
  <g
     id="g1577">
    <rect
       width="1020.5"
       height="1020.5"
       style="fill: none; stroke: #fff; stroke-miterlimit: 10; stroke-width: .7px;"
       id="rect1409" />
    <line
       y1="992.1"
       x2="1020.5"
       y2="992.1"
       style="fill: none; stroke: #fff; stroke-miterlimit: 10; stroke-width: .7px;"
       id="line1411" />
    <line
       x1="954"
       y1="963.8"
       x2="1020.5"
       y2="963.8"
       style="fill: none; stroke: #fff; stroke-miterlimit: 10; stroke-width: .7px;"
       id="line1413" />
    <line
       y1="963.8"
       x2="576.3"
       y2="963.8"
       style="fill: none; stroke: #fff; stroke-miterlimit: 10; stroke-width: .7px;"
       id="line1415" />
    <line
       y1="935.4"
       x2="1020.5"
       y2="935.4"
       style="fill: none; stroke: #fff; stroke-miterlimit: 10; stroke-width: .7px;"
       id="line1417" />
    <line
       y1="907.1"
       x2="1020.5"
       y2="907.1"
       style="fill: none; stroke: #fff; stroke-miterlimit: 10; stroke-width: .7px;"
       id="line1419" />
    <line
       y1="878.7"
       x2="1020.5"
       y2="878.7"
       style="fill: none; stroke: #fff; stroke-miterlimit: 10; stroke-width: .7px;"
       id="line1421" />
    <line
       y1="850.4"
       x2="1020.5"
       y2="850.4"
       style="fill: none; stroke: #fff; stroke-miterlimit: 10; stroke-width: .7px;"
       id="line1423" />
    <line
       y1="822"
       x2="1020.5"
       y2="822"
       style="fill: none; stroke: #fff; stroke-miterlimit: 10; stroke-width: .7px;"
       id="line1425" />
    <line
       y1="793.7"
       x2="1020.5"
       y2="793.7"
       style="fill: none; stroke: #fff; stroke-miterlimit: 10; stroke-width: .7px;"
       id="line1427" />
    <line
       y1="765.4"
       x2="1020.5"
       y2="765.4"
       style="fill: none; stroke: #fff; stroke-miterlimit: 10; stroke-width: .7px;"
       id="line1429" />
    <line
       y1="737"
       x2="1020.5"
       y2="737"
       style="fill: none; stroke: #fff; stroke-miterlimit: 10; stroke-width: .7px;"
       id="line1431" />
    <line
       y1="708.7"
       x2="1020.5"
       y2="708.7"
       style="fill: none; stroke: #fff; stroke-miterlimit: 10; stroke-width: .7px;"
       id="line1433" />
    <line
       y1="680.3"
       x2="1020.5"
       y2="680.3"
       style="fill: none; stroke: #fff; stroke-miterlimit: 10; stroke-width: .7px;"
       id="line1435" />
    <line
       y1="652"
       x2="1020.5"
       y2="652"
       style="fill: none; stroke: #fff; stroke-miterlimit: 10; stroke-width: .7px;"
       id="line1437" />
    <line
       y1="623.6"
       x2="1020.5"
       y2="623.6"
       style="fill: none; stroke: #fff; stroke-miterlimit: 10; stroke-width: .7px;"
       id="line1439" />
    <line
       y1="595.3"
       x2="1020.5"
       y2="595.3"
       style="fill: none; stroke: #fff; stroke-miterlimit: 10; stroke-width: .7px;"
       id="line1441" />
    <line
       y1="566.9"
       x2="1020.5"
       y2="566.9"
       style="fill: none; stroke: #fff; stroke-miterlimit: 10; stroke-width: .7px;"
       id="line1443" />
    <line
       y1="538.6"
       x2="1020.5"
       y2="538.6"
       style="fill: none; stroke: #fff; stroke-miterlimit: 10; stroke-width: .7px;"
       id="line1445" />
    <line
       y1="510.2"
       x2="1020.5"
       y2="510.2"
       style="fill: none; stroke: #fff; stroke-miterlimit: 10; stroke-width: .7px;"
       id="line1447" />
    <line
       y1="481.9"
       x2="1020.5"
       y2="481.9"
       style="fill: none; stroke: #fff; stroke-miterlimit: 10; stroke-width: .7px;"
       id="line1449" />
    <line
       y1="453.5"
       x2="1020.5"
       y2="453.5"
       style="fill: none; stroke: #fff; stroke-miterlimit: 10; stroke-width: .7px;"
       id="line1451" />
    <line
       y1="425.2"
       x2="1020.5"
       y2="425.2"
       style="fill: none; stroke: #fff; stroke-miterlimit: 10; stroke-width: .7px;"
       id="line1453" />
    <line
       y1="396.9"
       x2="1020.5"
       y2="396.9"
       style="fill: none; stroke: #fff; stroke-miterlimit: 10; stroke-width: .7px;"
       id="line1455" />
    <line
       y1="368.5"
       x2="1020.5"
       y2="368.5"
       style="fill: none; stroke: #fff; stroke-miterlimit: 10; stroke-width: .7px;"
       id="line1457" />
    <line
       y1="340.2"
       x2="1020.5"
       y2="340.2"
       style="fill: none; stroke: #fff; stroke-miterlimit: 10; stroke-width: .7px;"
       id="line1459" />
    <line
       y1="311.8"
       x2="1020.5"
       y2="311.8"
       style="fill: none; stroke: #fff; stroke-miterlimit: 10; stroke-width: .7px;"
       id="line1461" />
    <line
       y1="283.5"
       x2="1020.5"
       y2="283.5"
       style="fill: none; stroke: #fff; stroke-miterlimit: 10; stroke-width: .7px;"
       id="line1463" />
    <line
       y1="255.1"
       x2="1020.5"
       y2="255.1"
       style="fill: none; stroke: #fff; stroke-miterlimit: 10; stroke-width: .7px;"
       id="line1465" />
    <line
       y1="226.8"
       x2="1020.5"
       y2="226.8"
       style="fill: none; stroke: #fff; stroke-miterlimit: 10; stroke-width: .7px;"
       id="line1467" />
    <line
       y1="198.4"
       x2="1020.5"
       y2="198.4"
       style="fill: none; stroke: #fff; stroke-miterlimit: 10; stroke-width: .7px;"
       id="line1469" />
    <line
       y1="170.1"
       x2="1020.5"
       y2="170.1"
       style="fill: none; stroke: #fff; stroke-miterlimit: 10; stroke-width: .7px;"
       id="line1471" />
    <line
       y1="141.7"
       x2="1020.5"
       y2="141.7"
       style="fill: none; stroke: #fff; stroke-miterlimit: 10; stroke-width: .7px;"
       id="line1473" />
    <line
       y1="113.4"
       x2="1020.5"
       y2="113.4"
       style="fill: none; stroke: #fff; stroke-miterlimit: 10; stroke-width: .7px;"
       id="line1475" />
    <line
       y1="85"
       x2="1020.5"
       y2="85"
       style="fill: none; stroke: #fff; stroke-miterlimit: 10; stroke-width: .7px;"
       id="line1477" />
    <line
       y1="56.7"
       x2="1020.5"
       y2="56.7"
       style="fill: none; stroke: #fff; stroke-miterlimit: 10; stroke-width: .7px;"
       id="line1479" />
    <line
       y1="28.3"
       x2="1020.5"
       y2="28.3"
       style="fill: none; stroke: #fff; stroke-miterlimit: 10; stroke-width: .7px;"
       id="line1481" />
    <line
       x1="992.1"
       x2="992.1"
       y2="1020.5"
       style="fill: none; stroke: #fff; stroke-miterlimit: 10; stroke-width: .7px;"
       id="line1483" />
    <line
       x1="963.8"
       x2="963.8"
       y2="1020.5"
       style="fill: none; stroke: #fff; stroke-miterlimit: 10; stroke-width: .7px;"
       id="line1485" />
    <line
       x1="935.4"
       y1="984.3"
       x2="935.4"
       y2="1020.5"
       style="fill: none; stroke: #fff; stroke-miterlimit: 10; stroke-width: .7px;"
       id="line1487" />
    <line
       x1="935.4"
       x2="935.4"
       y2="944.9"
       style="fill: none; stroke: #fff; stroke-miterlimit: 10; stroke-width: .7px;"
       id="line1489" />
    <line
       x1="907.1"
       y1="984.3"
       x2="907.1"
       y2="1020.5"
       style="fill: none; stroke: #fff; stroke-miterlimit: 10; stroke-width: .7px;"
       id="line1491" />
    <line
       x1="907.1"
       x2="907.1"
       y2="944.9"
       style="fill: none; stroke: #fff; stroke-miterlimit: 10; stroke-width: .7px;"
       id="line1493" />
    <line
       x1="878.8"
       y1="984.3"
       x2="878.7"
       y2="1020.5"
       style="fill: none; stroke: #fff; stroke-miterlimit: 10; stroke-width: .7px;"
       id="line1495" />
    <line
       x1="878.7"
       x2="878.7"
       y2="944.9"
       style="fill: none; stroke: #fff; stroke-miterlimit: 10; stroke-width: .7px;"
       id="line1497" />
    <line
       x1="850.5"
       y1="984.3"
       x2="850.4"
       y2="1020.5"
       style="fill: none; stroke: #fff; stroke-miterlimit: 10; stroke-width: .7px;"
       id="line1499" />
    <line
       x1="850.4"
       x2="850.4"
       y2="944.9"
       style="fill: none; stroke: #fff; stroke-miterlimit: 10; stroke-width: .7px;"
       id="line1501" />
    <line
       x1="822.1"
       y1="984.3"
       x2="822"
       y2="1020.5"
       style="fill: none; stroke: #fff; stroke-miterlimit: 10; stroke-width: .7px;"
       id="line1503" />
    <line
       x1="822"
       x2="822"
       y2="944.9"
       style="fill: none; stroke: #fff; stroke-miterlimit: 10; stroke-width: .7px;"
       id="line1505" />
    <line
       x1="793.8"
       y1="984.3"
       x2="793.7"
       y2="1020.5"
       style="fill: none; stroke: #fff; stroke-miterlimit: 10; stroke-width: .7px;"
       id="line1507" />
    <line
       x1="793.7"
       x2="793.7"
       y2="944.9"
       style="fill: none; stroke: #fff; stroke-miterlimit: 10; stroke-width: .7px;"
       id="line1509" />
    <line
       x1="765.4"
       x2="765.4"
       y2="935.4"
       style="fill: none; stroke: #fff; stroke-miterlimit: 10; stroke-width: .7px;"
       id="line1511" />
    <line
       x1="737"
       y1="984.2"
       x2="737"
       y2="1020.5"
       style="fill: none; stroke: #fff; stroke-miterlimit: 10; stroke-width: .7px;"
       id="line1513" />
    <line
       x1="737"
       x2="737"
       y2="944.9"
       style="fill: none; stroke: #fff; stroke-miterlimit: 10; stroke-width: .7px;"
       id="line1515" />
    <line
       x1="708.7"
       y1="984.2"
       x2="708.7"
       y2="1020.5"
       style="fill: none; stroke: #fff; stroke-miterlimit: 10; stroke-width: .7px;"
       id="line1517" />
    <line
       x1="708.7"
       x2="708.7"
       y2="944.9"
       style="fill: none; stroke: #fff; stroke-miterlimit: 10; stroke-width: .7px;"
       id="line1519" />
    <line
       x1="680.3"
       y1="984.2"
       x2="680.3"
       y2="1020.5"
       style="fill: none; stroke: #fff; stroke-miterlimit: 10; stroke-width: .7px;"
       id="line1521" />
    <line
       x1="680.3"
       x2="680.3"
       y2="944.9"
       style="fill: none; stroke: #fff; stroke-miterlimit: 10; stroke-width: .7px;"
       id="line1523" />
    <line
       x1="652"
       y1="984.2"
       x2="652"
       y2="1020.5"
       style="fill: none; stroke: #fff; stroke-miterlimit: 10; stroke-width: .7px;"
       id="line1525" />
    <line
       x1="652"
       x2="652"
       y2="944.9"
       style="fill: none; stroke: #fff; stroke-miterlimit: 10; stroke-width: .7px;"
       id="line1527" />
    <line
       x1="623.6"
       y1="984.2"
       x2="623.6"
       y2="1020.5"
       style="fill: none; stroke: #fff; stroke-miterlimit: 10; stroke-width: .7px;"
       id="line1529" />
    <line
       x1="623.6"
       x2="623.6"
       y2="944.9"
       style="fill: none; stroke: #fff; stroke-miterlimit: 10; stroke-width: .7px;"
       id="line1531" />
    <line
       x1="595.3"
       y1="984.2"
       x2="595.3"
       y2="1020.5"
       style="fill: none; stroke: #fff; stroke-miterlimit: 10; stroke-width: .7px;"
       id="line1533" />
    <line
       x1="595.3"
       x2="595.3"
       y2="944.9"
       style="fill: none; stroke: #fff; stroke-miterlimit: 10; stroke-width: .7px;"
       id="line1535" />
    <line
       x1="566.9"
       x2="566.9"
       y2="1020.5"
       style="fill: none; stroke: #fff; stroke-miterlimit: 10; stroke-width: .7px;"
       id="line1537" />
    <line
       x1="538.6"
       x2="538.6"
       y2="1020.5"
       style="fill: none; stroke: #fff; stroke-miterlimit: 10; stroke-width: .7px;"
       id="line1539" />
    <line
       x1="510.2"
       x2="510.2"
       y2="1020.5"
       style="fill: none; stroke: #fff; stroke-miterlimit: 10; stroke-width: .7px;"
       id="line1541" />
    <line
       x1="481.9"
       x2="481.9"
       y2="1020.5"
       style="fill: none; stroke: #fff; stroke-miterlimit: 10; stroke-width: .7px;"
       id="line1543" />
    <line
       x1="453.5"
       x2="453.5"
       y2="1020.5"
       style="fill: none; stroke: #fff; stroke-miterlimit: 10; stroke-width: .7px;"
       id="line1545" />
    <line
       x1="425.2"
       x2="425.2"
       y2="1020.5"
       style="fill: none; stroke: #fff; stroke-miterlimit: 10; stroke-width: .7px;"
       id="line1547" />
    <line
       x1="396.9"
       x2="396.9"
       y2="1020.5"
       style="fill: none; stroke: #fff; stroke-miterlimit: 10; stroke-width: .7px;"
       id="line1549" />
    <line
       x1="368.5"
       x2="368.5"
       y2="1020.5"
       style="fill: none; stroke: #fff; stroke-miterlimit: 10; stroke-width: .7px;"
       id="line1551" />
    <line
       x1="340.2"
       x2="340.2"
       y2="1020.5"
       style="fill: none; stroke: #fff; stroke-miterlimit: 10; stroke-width: .7px;"
       id="line1553" />
    <line
       x1="311.8"
       x2="311.8"
       y2="1020.5"
       style="fill: none; stroke: #fff; stroke-miterlimit: 10; stroke-width: .7px;"
       id="line1555" />
    <line
       x1="283.5"
       x2="283.5"
       y2="1020.5"
       style="fill: none; stroke: #fff; stroke-miterlimit: 10; stroke-width: .7px;"
       id="line1557" />
    <line
       x1="255.1"
       x2="255.1"
       y2="1020.5"
       style="fill: none; stroke: #fff; stroke-miterlimit: 10; stroke-width: .7px;"
       id="line1559" />
    <line
       x1="226.8"
       x2="226.8"
       y2="1020.5"
       style="fill: none; stroke: #fff; stroke-miterlimit: 10; stroke-width: .7px;"
       id="line1561" />
    <line
       x1="198.4"
       x2="198.4"
       y2="1020.5"
       style="fill: none; stroke: #fff; stroke-miterlimit: 10; stroke-width: .7px;"
       id="line1563" />
    <line
       x1="170.1"
       x2="170.1"
       y2="1020.5"
       style="fill: none; stroke: #fff; stroke-miterlimit: 10; stroke-width: .7px;"
       id="line1565" />
    <line
       x1="141.7"
       x2="141.7"
       y2="1020.5"
       style="fill: none; stroke: #fff; stroke-miterlimit: 10; stroke-width: .7px;"
       id="line1567" />
    <line
       x1="113.4"
       x2="113.4"
       y2="1020.5"
       style="fill: none; stroke: #fff; stroke-miterlimit: 10; stroke-width: .7px;"
       id="line1569" />
    <line
       x1="85"
       x2="85"
       y2="1020.5"
       style="fill: none; stroke: #fff; stroke-miterlimit: 10; stroke-width: .7px;"
       id="line1571" />
    <line
       x1="56.7"
       x2="56.7"
       y2="1020.5"
       style="fill: none; stroke: #fff; stroke-miterlimit: 10; stroke-width: .7px;"
       id="line1573" />
    <line
       x1="28.3"
       x2="28.3"
       y2="1020.5"
       style="fill: none; stroke: #fff; stroke-miterlimit: 10; stroke-width: .7px;"
       id="line1575" />
  </g>
  <rect
     y="765.4"
     width="255.1"
     height="255.1"
     style="fill: none; stroke: #fff; stroke-miterlimit: 10; stroke-width: 1.4px;"
     id="rect1579" />
  <rect
     x="255.1"
     y="765.4"
     width="255.1"
     height="255.1"
     style="fill: none; stroke: #fff; stroke-miterlimit: 10; stroke-width: 1.4px;"
     id="rect1581" />
  <polyline
     points="765.4 992.1 765.4 1020.5 510.2 1020.5 510.2 765.4 765.4 765.4 765.4 935.4"
     style="fill: none; stroke: #fff; stroke-miterlimit: 10; stroke-width: 1.4px;"
     id="polyline1583" />
  <polyline
     points="765.4 944.9 765.4 765.4 1020.5 765.4 1020.5 1020.5 765.4 1020.5 765.4 984.2"
     style="fill: none; stroke: #fff; stroke-miterlimit: 10; stroke-width: 1.4px;"
     id="polyline1585" />
  <rect
     y="510.2"
     width="255.1"
     height="255.1"
     style="fill: none; stroke: #fff; stroke-miterlimit: 10; stroke-width: 1.4px;"
     id="rect1587" />
  <rect
     x="255.1"
     y="510.2"
     width="255.1"
     height="255.1"
     style="fill: none; stroke: #fff; stroke-miterlimit: 10; stroke-width: 1.4px;"
     id="rect1589" />
  <rect
     x="510.2"
     y="510.2"
     width="255.1"
     height="255.1"
     style="fill: none; stroke: #fff; stroke-miterlimit: 10; stroke-width: 1.4px;"
     id="rect1591" />
  <rect
     x="765.4"
     y="510.2"
     width="255.1"
     height="255.1"
     style="fill: none; stroke: #fff; stroke-miterlimit: 10; stroke-width: 1.4px;"
     id="rect1593" />
  <rect
     y="255.1"
     width="255.1"
     height="255.1"
     style="fill: none; stroke: #fff; stroke-miterlimit: 10; stroke-width: 1.4px;"
     id="rect1595" />
  <rect
     x="255.1"
     y="255.1"
     width="255.1"
     height="255.1"
     style="fill: none; stroke: #fff; stroke-miterlimit: 10; stroke-width: 1.4px;"
     id="rect1597" />
  <rect
     x="510.2"
     y="255.1"
     width="255.1"
     height="255.1"
     style="fill: none; stroke: #fff; stroke-miterlimit: 10; stroke-width: 1.4px;"
     id="rect1599" />
  <rect
     x="765.4"
     y="255.1"
     width="255.1"
     height="255.1"
     style="fill: none; stroke: #fff; stroke-miterlimit: 10; stroke-width: 1.4px;"
     id="rect1601" />
  <rect
     width="255.1"
     height="255.1"
     style="fill: none; stroke: #fff; stroke-miterlimit: 10; stroke-width: 1.4px;"
     id="rect1603" />
  <rect
     x="255.1"
     width="255.1"
     height="255.1"
     style="fill: none; stroke: #fff; stroke-miterlimit: 10; stroke-width: 1.4px;"
     id="rect1605" />
  <rect
     x="510.2"
     width="255.1"
     height="255.1"
     style="fill: none; stroke: #fff; stroke-miterlimit: 10; stroke-width: 1.4px;"
     id="rect1607" />
  <rect
     x="765.4"
     width="255.1"
     height="255.1"
     style="fill: none; stroke: #fff; stroke-miterlimit: 10; stroke-width: 1.4px;"
     id="rect1609" />
  <g
     id="g1641">
    <path
       d="m584.3,964.3c0-1.9.3-3.7.9-5.3.6-1.7,1.4-3.1,2.5-4.3,1.1-1.2,2.4-2.2,4-2.9,1.6-.7,3.3-1,5.3-1s3.8.3,5.3,1c1.6.7,2.9,1.7,4,2.9,1.1,1.2,1.9,2.7,2.5,4.3.6,1.7.9,3.4.9,5.3s-.3,3.6-.9,5.2c-.6,1.6-1.4,3-2.5,4.2-1.1,1.2-2.4,2.1-4,2.8-1.6.7-3.3,1-5.3,1s-3.8-.3-5.3-1c-1.6-.7-2.9-1.6-4-2.8-1.1-1.2-1.9-2.6-2.5-4.2-.6-1.6-.9-3.4-.9-5.2Zm5.7,0c0,1.1.1,2.1.4,3.2s.7,1.9,1.2,2.8c.6.8,1.3,1.5,2.2,2,.9.5,2,.7,3.2.7s2.4-.2,3.2-.7c.9-.5,1.6-1.1,2.2-2,.6-.8,1-1.7,1.2-2.8s.4-2.1.4-3.2-.1-2.2-.4-3.3c-.3-1.1-.7-2-1.2-2.8s-1.3-1.5-2.2-2c-.9-.5-2-.7-3.2-.7s-2.4.2-3.2.7c-.9.5-1.6,1.2-2.2,2-.6.8-1,1.8-1.2,2.8-.3,1.1-.4,2.1-.4,3.3Z"
       style="fill: #fff;"
       id="path1611" />
    <path
       d="m613.4,951.3h13.9c1.2,0,2.2.2,3.1.6.9.4,1.7.9,2.4,1.5.7.6,1.2,1.4,1.5,2.3.3.9.5,1.8.5,2.7,0,1.5-.3,2.8-1,3.9-.6,1.1-1.7,1.9-3.1,2.5h0c.7.3,1.3.6,1.7,1,.5.4.8.9,1.1,1.4.3.6.5,1.1.6,1.8.1.6.2,1.3.3,1.9,0,.4,0,.9,0,1.4,0,.6,0,1.1.1,1.7,0,.6.2,1.1.3,1.6.1.5.3,1,.6,1.3h-5.7c-.2-.4-.3-.9-.4-1.3,0-.5-.2-1-.2-1.5,0-.5-.1-1.1-.1-1.7,0-.6,0-1.1-.2-1.6-.2-1.3-.6-2.3-1.2-3-.6-.6-1.6-.9-3.1-.9h-5.7v10h-5.7v-25.7Zm5.7,11.6h6.2c1.3,0,2.2-.3,2.9-.9.7-.6,1-1.5,1-2.8s-.3-2.2-1-2.7c-.7-.6-1.6-.8-2.9-.8h-6.2v7.2Z"
       style="fill: #fff;"
       id="path1613" />
    <path
       d="m639.4,951.3h5.7v25.7h-5.7v-25.7Z"
       style="fill: #fff;"
       id="path1615" />
    <path
       d="m668.6,974.1c-1,1.3-2.1,2.2-3.3,2.7-1.2.5-2.5.8-3.7.8-2,0-3.8-.3-5.3-1-1.6-.7-2.9-1.6-4-2.8-1.1-1.2-1.9-2.6-2.5-4.2-.6-1.6-.9-3.4-.9-5.2s.3-3.7.9-5.3c.6-1.7,1.4-3.1,2.5-4.3,1.1-1.2,2.4-2.2,4-2.9,1.6-.7,3.3-1,5.3-1s2.6.2,3.8.6c1.2.4,2.3,1,3.3,1.7,1,.8,1.8,1.7,2.5,2.8s1.1,2.4,1.2,3.9h-5.4c-.3-1.4-1-2.5-2-3.2-1-.7-2.1-1.1-3.5-1.1s-2.4.2-3.2.7c-.9.5-1.6,1.2-2.2,2-.6.8-1,1.8-1.2,2.8-.3,1.1-.4,2.1-.4,3.3s.1,2.1.4,3.2.7,1.9,1.2,2.8c.6.8,1.3,1.5,2.2,2,.9.5,2,.7,3.2.7,1.8,0,3.3-.5,4.3-1.4,1-.9,1.6-2.3,1.8-4.1h-5.7v-4.2h10.8v13.9h-3.6l-.6-2.9Z"
       style="fill: #fff;"
       id="path1617" />
    <path
       d="m677.4,951.3h5.7v25.7h-5.7v-25.7Z"
       style="fill: #fff;"
       id="path1619" />
    <path
       d="m688,951.3h5.6l10.7,17.2h0v-17.2h5.3v25.7h-5.7l-10.7-17.2h0v17.2h-5.3v-25.7Z"
       style="fill: #fff;"
       id="path1621" />
    <path
       d="m721.7,951.3h5.8l9.6,25.7h-5.9l-1.9-5.7h-9.6l-2,5.7h-5.7l9.8-25.7Zm-.5,15.8h6.7l-3.2-9.4h0l-3.3,9.4Z"
       style="fill: #fff;"
       id="path1623" />
    <path
       d="m739.3,951.3h5.7v21h12.5v4.8h-18.2v-25.7Z"
       style="fill: #fff;"
       id="path1625" />
    <path
       d="m770.7,951.3h11.6c1.6,0,3,.2,4.1.7s2,1.1,2.8,1.9c.7.8,1.2,1.7,1.5,2.6.3,1,.5,2,.5,3s-.2,2.1-.5,3.1c-.3,1-.8,1.9-1.5,2.6-.7.8-1.6,1.4-2.8,1.9s-2.5.7-4.1.7h-5.9v9.2h-5.7v-25.7Zm5.7,12.1h4.4c.6,0,1.3,0,1.9-.1.6,0,1.1-.3,1.6-.6.5-.3.8-.7,1.1-1.2.3-.5.4-1.2.4-2s-.1-1.5-.4-2c-.3-.5-.6-.9-1.1-1.2-.5-.3-1-.5-1.6-.6-.6,0-1.2-.1-1.9-.1h-4.4v7.7Z"
       style="fill: #fff;"
       id="path1627" />
    <path
       d="m794.7,951.3h13.9c1.2,0,2.2.2,3.1.6.9.4,1.7.9,2.4,1.5.7.6,1.2,1.4,1.5,2.3.3.9.5,1.8.5,2.7,0,1.5-.3,2.8-1,3.9-.6,1.1-1.7,1.9-3.1,2.5h0c.7.3,1.3.6,1.7,1,.5.4.8.9,1.1,1.4.3.6.5,1.1.6,1.8.1.6.2,1.3.3,1.9,0,.4,0,.9,0,1.4,0,.6,0,1.1.1,1.7,0,.6.2,1.1.3,1.6.1.5.3,1,.6,1.3h-5.7c-.2-.4-.3-.9-.4-1.3s-.2-1-.2-1.5c0-.5-.1-1.1-.1-1.7,0-.6,0-1.1-.2-1.6-.2-1.3-.6-2.3-1.2-3-.6-.6-1.6-.9-3.1-.9h-5.7v10h-5.7v-25.7Zm5.7,11.6h6.2c1.3,0,2.2-.3,2.9-.9.7-.6,1-1.5,1-2.8s-.3-2.2-1-2.7c-.7-.6-1.6-.8-2.9-.8h-6.2v7.2Z"
       style="fill: #fff;"
       id="path1629" />
    <path
       d="m842.5,967.3c0,3.5-1,6.1-2.9,7.8-1.9,1.7-4.6,2.6-8.1,2.6s-6.2-.8-8.1-2.5c-1.9-1.7-2.9-4.3-2.9-7.8v-16h5.7v16c0,.7,0,1.4.2,2.1s.4,1.3.8,1.8c.4.5.9.9,1.6,1.3.7.3,1.6.5,2.8.5,2,0,3.4-.5,4.2-1.4.8-.9,1.2-2.3,1.2-4.2v-16h5.7v16Z"
       style="fill: #fff;"
       id="path1631" />
    <path
       d="m851.2,968.5c0,.9.2,1.6.5,2.2.3.6.7,1.1,1.2,1.5.5.4,1.1.6,1.8.8.7.2,1.4.3,2.2.3s1,0,1.6-.1c.6,0,1.1-.2,1.6-.5s.9-.6,1.3-1c.3-.4.5-1,.5-1.6s-.2-1.3-.7-1.7c-.4-.4-1-.8-1.7-1.1-.7-.3-1.5-.6-2.4-.8-.9-.2-1.8-.4-2.8-.7-1-.2-1.9-.5-2.8-.9-.9-.3-1.7-.8-2.4-1.3-.7-.6-1.3-1.2-1.7-2.1-.4-.8-.7-1.8-.7-3s.3-2.5.8-3.4c.6-1,1.3-1.8,2.2-2.4.9-.6,1.9-1.1,3.1-1.4,1.2-.3,2.3-.5,3.5-.5s2.6.2,3.9.5c1.2.3,2.3.8,3.3,1.5,1,.7,1.7,1.5,2.3,2.6.6,1,.8,2.3.8,3.8h-5.5c0-.8-.2-1.4-.5-1.9s-.6-.9-1.1-1.2c-.5-.3-1-.5-1.6-.6-.6-.1-1.2-.2-1.9-.2s-.9,0-1.4.1c-.5,0-.9.3-1.2.5-.4.2-.7.5-.9.9-.2.4-.4.8-.4,1.4s0,.9.3,1.2c.2.3.6.6,1.1.8.6.3,1.3.5,2.3.8,1,.3,2.3.6,3.9,1,.3,0,.7.2,1.2.3.5.1,1,.3,1.6.5.6.2,1.1.5,1.7.9.6.4,1.1.8,1.5,1.3.5.5.8,1.2,1.1,1.9.3.7.4,1.6.4,2.5s-.2,2.3-.7,3.3c-.5,1-1.1,1.9-2,2.6-.9.7-2,1.3-3.3,1.7-1.3.4-2.9.6-4.6.6s-2.8-.2-4.1-.5c-1.3-.4-2.5-.9-3.5-1.7-1-.7-1.8-1.7-2.4-2.8-.6-1.2-.9-2.5-.9-4.1h5.5Z"
       style="fill: #fff;"
       id="path1633" />
    <path
       d="m877.7,951.3h5.8l9.6,25.7h-5.9l-1.9-5.7h-9.6l-2,5.7h-5.7l9.8-25.7Zm-.5,15.8h6.7l-3.2-9.4h0l-3.3,9.4Z"
       style="fill: #fff;"
       id="path1635" />
    <path
       d="m911.7,963.6l-8.3-12.2h6.6l5,8.2,5.2-8.2h6.2l-8.2,12.3,9,13.4h-6.7l-5.6-8.9-5.7,8.9h-6.4l9-13.5Z"
       style="fill: #fff;"
       id="path1637" />
    <path
       d="m929.4,951.3h5.7v21h12.5v4.8h-18.2v-25.7Z"
       style="fill: #fff;"
       id="path1639" />
  </g>
  <rect
     x="583.99792"
     y="983.4502"
     width="36.601933"
     height="15.750426"
     style="fill:#ff3c00;stroke-width:0.75002"
     id="rect1069" />
  <g
     id="g1079"
     transform="matrix(0.75002028,0,0,0.75002028,294.94528,586.92865)">
    <path
       d="m 393.9,533.5 c 0,-0.2 0.1,-0.4 0.3,-0.4 h 4 c 2,0 3.4,1.4 3.4,3.3 v 0.6 c 0,1 -0.7,1.9 -1.3,2.1 0.7,0.2 1.6,1.1 1.6,2.6 v 0.8 c 0,1.8 -1.6,3.2 -3.3,3.2 h -4.4 c -0.2,0 -0.3,-0.1 -0.3,-0.3 z m 2.4,2 v 2.8 h 1.7 c 0.6,0 1.2,-0.3 1.2,-1.1 v -0.6 c 0,-0.8 -0.4,-1.2 -1.2,-1.2 h -1.6 z m 0,4.8 v 3.1 h 2 c 0.7,0 1.2,-0.6 1.2,-1.2 v -0.7 c 0,-0.8 -0.6,-1.3 -1.2,-1.3 h -1.9 z"
       style="fill:#ffffff"
       id="path1071" />
    <path
       d="m 403,538.8 c 0,-2.3 1.8,-4.1 3.9,-4.1 2.1,0 3.9,1.3 3.9,4.2 v 1.7 c 0,0.4 -0.2,0.5 -0.5,0.5 h -1.1 c 0,0 -3.7,0 -3.7,0 v 0.9 c 0,1 0.7,1.7 1.6,1.7 0.9,0 1.4,-0.6 1.4,-1.2 v 0 c 0,-0.2 0.1,-0.3 0.2,-0.3 h 1.8 c 0.1,0 0.2,0.1 0.2,0.3 v 0 c 0,1.9 -1.7,3.4 -3.6,3.4 -1.9,0 -4,-1.8 -4,-4.1 v -3 z m 2.4,0.5 h 3 v -0.8 c 0,-0.8 -0.5,-1.6 -1.5,-1.6 -1,0 -1.5,0.8 -1.5,1.6 v 0.7 z"
       style="fill:#ffffff"
       id="path1073" />
    <path
       d="m 415.4,537.2 v 8.2 c 0,0.2 0,0.3 -0.3,0.3 h -1.9 c -0.2,0 -0.3,-0.1 -0.3,-0.3 v -8.2 H 412 c -0.2,0 -0.3,-0.1 -0.3,-0.3 v -1.7 c 0,-0.2 0.2,-0.3 0.3,-0.3 h 0.9 v -1.6 c 0,-0.2 0,-0.4 0.3,-0.4 l 1.6,-0.5 c 0,0 0,0 0.1,0 0.2,0 0.4,0.2 0.4,0.5 v 2.1 h 1.3 c 0.2,0 0.3,0.1 0.3,0.3 v 1.7 c 0,0.2 -0.2,0.3 -0.3,0.3 h -1.3 z"
       style="fill:#ffffff"
       id="path1075" />
    <path
       d="m 417.8,538.8 c 0,-2.2 1.5,-4.1 3.7,-4.1 2.2,0 1.6,0.6 2,1.4 v -0.8 c 0.2,-0.2 0.3,-0.4 0.6,-0.4 h 1.3 c 0.2,0 0.3,0.1 0.3,0.4 v 10.1 c 0,0.2 -0.1,0.4 -0.3,0.4 h -1.3 c -0.2,0 -0.4,-0.1 -0.4,-0.4 v -0.9 c -0.5,0.8 -1.1,1.4 -2.2,1.4 -2.2,0 -3.7,-1.8 -3.7,-4.1 v -3.1 z m 2.5,3.2 c 0,0.9 0.6,1.7 1.5,1.7 0.9,0 1.4,-0.8 1.5,-1.8 v -3.1 c 0,-1 -0.6,-1.8 -1.5,-1.8 -0.9,0 -1.5,0.8 -1.5,1.7 z"
       style="fill:#ffffff"
       id="path1077" />
  </g>
</svg>
