<svg xmlns="http://www.w3.org/2000/svg" width="350.4mm" height="350.4mm" viewBox="0 0 993.3 993.3"><path d="M28.8.5H974.1a18.9,18.9,0,0,1,18.7,18.8h0V974.1a18.7,18.7,0,0,1-18.7,18.7H19.3A18.9,18.9,0,0,1,.5,974.1h0V28.8A28.3,28.3,0,0,1,28.8.5Z" style="fill:none;stroke:#fff;stroke-miterlimit:11.340407739524835"/><path d="M417.2,928.7l3.4-.3a8.5,8.5,0,0,0,1.1,3.5,7.1,7.1,0,0,0,2.7,2.1,12,12,0,0,0,4.2.8,11.5,11.5,0,0,0,3.7-.6,5.3,5.3,0,0,0,2.4-1.7,4,4,0,0,0,.7-2.4,3.2,3.2,0,0,0-.7-2.2,6.5,6.5,0,0,0-2.5-1.7l-4.8-1.3a20.5,20.5,0,0,1-5.3-1.7,6.5,6.5,0,0,1-3.9-5.9,7.1,7.1,0,0,1,1.2-3.9,7.6,7.6,0,0,1,3.4-2.7,14.4,14.4,0,0,1,5-1,14,14,0,0,1,5.4,1,9.4,9.4,0,0,1,3.6,2.9,8.3,8.3,0,0,1,1.3,4.3l-3.5.3a5.4,5.4,0,0,0-1.9-4,7.8,7.8,0,0,0-4.7-1.3,8,8,0,0,0-4.8,1.2,3.8,3.8,0,0,0-1.5,2.9,2.9,2.9,0,0,0,1.1,2.4c.6.7,2.5,1.3,5.4,2a60.9,60.9,0,0,1,6.1,1.7,10.8,10.8,0,0,1,3.5,2.8,7,7,0,0,1,1.1,3.9,7.9,7.9,0,0,1-1.2,4.2,8.8,8.8,0,0,1-3.6,3,14,14,0,0,1-5.3,1.1,18.8,18.8,0,0,1-6.2-1.1,9.4,9.4,0,0,1-3.9-3.2A9.2,9.2,0,0,1,417.2,928.7Z" style="fill:none;stroke:#fff;stroke-miterlimit:11.340407739524835"/><path d="M446.5,927.6c0-3.6,1.1-6.4,3.1-8.1a9.8,9.8,0,0,1,6.2-2.2,9.4,9.4,0,0,1,6.7,2.7,10.4,10.4,0,0,1,2.6,7.3,13.2,13.2,0,0,1-1.2,6.2,9,9,0,0,1-3.3,3.4,10.3,10.3,0,0,1-4.8,1.2,9.2,9.2,0,0,1-6.7-2.7C447.4,933.6,446.5,931,446.5,927.6Zm3.5,0c0,2.6.5,4.5,1.7,5.8a5.3,5.3,0,0,0,4.1,1.9,5.7,5.7,0,0,0,4.2-1.9c1.1-1.4,1.6-3.3,1.6-5.9a8.9,8.9,0,0,0-1.6-5.6,6,6,0,0,0-4.2-1.8,5.6,5.6,0,0,0-4.1,1.8C450.5,923.2,450,925.1,450,927.6Z" style="fill:none;stroke:#fff;stroke-miterlimit:11.340407739524835"/><path d="M474,937.6l-7.6-19.9H470l4.2,11.9c.5,1.3.9,2.7,1.3,4.1a29.7,29.7,0,0,1,1.3-3.9l4.4-12.1h3.4l-7.5,19.9Z" style="fill:none;stroke:#fff;stroke-miterlimit:11.340407739524835"/><path d="M485.4,927.6c0-3.6,1-6.4,3-8.1a9.8,9.8,0,0,1,6.2-2.2,9,9,0,0,1,6.7,2.7,10.4,10.4,0,0,1,2.6,7.3,14.8,14.8,0,0,1-1.1,6.2,9.1,9.1,0,0,1-8.2,4.6,9.2,9.2,0,0,1-6.7-2.7C486.2,933.6,485.4,931,485.4,927.6Zm3.4,0a8.7,8.7,0,0,0,1.7,5.8,5.3,5.3,0,0,0,4.1,1.9,5.5,5.5,0,0,0,4.2-1.9,9.5,9.5,0,0,0,1.7-5.9,8.8,8.8,0,0,0-1.7-5.6,6,6,0,0,0-4.2-1.8,5.6,5.6,0,0,0-4.1,1.8,8.5,8.5,0,0,0-1.7,5.7Z" style="fill:none;stroke:#fff;stroke-miterlimit:11.340407739524835"/><path d="M507.8,937.6V910.2h3.3v27.4Z" style="fill:none;stroke:#fff;stroke-miterlimit:11.340407739524835"/><path d="M526,930.3l3.4-.4a8.1,8.1,0,0,0,1.9,4.2,5.6,5.6,0,0,0,3.4,1.2,5.6,5.6,0,0,0,5.7-5.8,5.5,5.5,0,0,0-1.5-3.8,5.8,5.8,0,0,0-3.9-1.5l-2.4.4.4-3h.6a5.8,5.8,0,0,0,3.8-1.1,3.7,3.7,0,0,0,1.7-3.4,4.7,4.7,0,0,0-1.2-3.1,4.7,4.7,0,0,0-3.2-1.2,5.1,5.1,0,0,0-3.3,1.3,6,6,0,0,0-1.7,3.7l-3.3-.6a7.8,7.8,0,0,1,8.2-7.1,9.8,9.8,0,0,1,4.1.9,8.4,8.4,0,0,1,2.9,2.7,7.4,7.4,0,0,1,1,3.5,5.1,5.1,0,0,1-1,3.2,5.7,5.7,0,0,1-2.8,2.3,6.2,6.2,0,0,1,5.1,6.7,8,8,0,0,1-2.6,6.2,9.1,9.1,0,0,1-6.6,2.5,8.3,8.3,0,0,1-8.7-7.7Z" style="fill:none;stroke:#fff;stroke-miterlimit:11.340407739524835"/><path d="M548.6,937.6V910.2H558a27,27,0,0,1,4.9.4,9.9,9.9,0,0,1,4,1.9,12.7,12.7,0,0,1,3.2,4.7,20.6,20.6,0,0,1,1.1,6.5,19.7,19.7,0,0,1-.7,5.5,12.8,12.8,0,0,1-1.9,4.1,11.8,11.8,0,0,1-2.5,2.5,18.3,18.3,0,0,1-3.2,1.4,32.7,32.7,0,0,1-4.4.4Zm3.6-3.2h5.9a20.1,20.1,0,0,0,4.2-.5,7.2,7.2,0,0,0,2.4-1.4,8.2,8.2,0,0,0,2.1-3.6,17.7,17.7,0,0,0,.7-5.2,14,14,0,0,0-1.4-6.6,7.1,7.1,0,0,0-3.5-3.1,18.2,18.2,0,0,0-4.6-.6h-5.8Z" style="fill:none;stroke:#fff;stroke-miterlimit:11.340407739524835"/></svg>