<svg xmlns="http://www.w3.org/2000/svg" width="300.4mm" height="313.4mm" viewBox="0 0 851.5 888.3"><path d="M24.8.5H834.9A16.1,16.1,0,0,1,851,16.6h0V834.8a16.1,16.1,0,0,1-16.1,16.1H16.6A16.1,16.1,0,0,1,.5,834.8h0V24.7A24.3,24.3,0,0,1,24.8.5Z" style="fill:none;stroke:#fff;stroke-miterlimit:11.34066596283833"/><polygon points="568.6 887.8 283.4 887.8 255.8 850.9 596.8 850.9 568.6 887.8" style="fill:#efe4e4;stroke:#fff;stroke-miterlimit:11.34066596283833"/><path d="M364.8,769.5l2.9-.2a5.6,5.6,0,0,0,1,2.8,5.5,5.5,0,0,0,2.4,1.8,13.5,13.5,0,0,0,3.6.7,11.2,11.2,0,0,0,3.1-.5,4.3,4.3,0,0,0,2-1.5,4,4,0,0,0,.7-1.9,3.2,3.2,0,0,0-.6-1.8,5.7,5.7,0,0,0-2.1-1.3l-4.2-1.1a16.9,16.9,0,0,1-4.5-1.4,5.7,5.7,0,0,1-2.5-2.1,5.4,5.4,0,0,1-.8-2.8,5.5,5.5,0,0,1,1-3.2,6.7,6.7,0,0,1,3-2.2,12.2,12.2,0,0,1,4.3-.8,14.8,14.8,0,0,1,4.6.8,7.3,7.3,0,0,1,3.1,2.4,7.7,7.7,0,0,1,1.2,3.5l-3,.2a5.2,5.2,0,0,0-1.6-3.2,7.4,7.4,0,0,0-4.1-1.1c-1.9,0-3.3.3-4.1,1a3.1,3.1,0,0,0-1.3,2.4,2.4,2.4,0,0,0,.9,2,11,11,0,0,0,4.7,1.6,44.2,44.2,0,0,1,5.2,1.4,7.6,7.6,0,0,1,3,2.3,5.5,5.5,0,0,1,1,3.2,6.3,6.3,0,0,1-1.1,3.5,7.5,7.5,0,0,1-3.1,2.5,11.7,11.7,0,0,1-4.5.9,16.1,16.1,0,0,1-5.4-.9,7.6,7.6,0,0,1-3.4-2.7A7.4,7.4,0,0,1,364.8,769.5Z" style="fill:none;stroke:#fff;stroke-miterlimit:11.338966460304619"/><path d="M380.6,768.6c0-3,.9-5.2,2.6-6.7a8.6,8.6,0,0,1,5.4-1.8,7.6,7.6,0,0,1,5.7,2.2,8.7,8.7,0,0,1,2.2,6.1,10.3,10.3,0,0,1-1,4.9,8.1,8.1,0,0,1-2.9,2.9,9.9,9.9,0,0,1-4.1,1,7.7,7.7,0,0,1-5.8-2.2C381.2,773.5,380.6,771.3,380.6,768.6Zm3,0a7.1,7.1,0,0,0,1.4,4.7,4.9,4.9,0,0,0,3.6,1.7,4.6,4.6,0,0,0,3.6-1.7c1-1,1.4-2.6,1.4-4.8a7.1,7.1,0,0,0-1.4-4.6,4.8,4.8,0,0,0-3.6-1.6,5.1,5.1,0,0,0-3.6,1.5A7.5,7.5,0,0,0,383.6,768.6Z" style="fill:none;stroke:#fff;stroke-miterlimit:11.338966460304619"/><path d="M404.3,776.8l-6.5-16.3h3.1l3.7,9.7a33.8,33.8,0,0,1,1.1,3.4,30.7,30.7,0,0,1,1.1-3.2l3.8-9.9h3l-6.5,16.3Z" style="fill:none;stroke:#fff;stroke-miterlimit:11.338966460304619"/><path d="M414,768.6c0-3,.9-5.2,2.6-6.7a8.6,8.6,0,0,1,5.4-1.8,7.6,7.6,0,0,1,5.7,2.2,8.7,8.7,0,0,1,2.2,6.1,10.3,10.3,0,0,1-1,4.9,8.1,8.1,0,0,1-2.9,2.9,9.9,9.9,0,0,1-4.1,1,7.7,7.7,0,0,1-5.8-2.2C414.6,773.5,414,771.3,414,768.6Zm2.9,0a7.1,7.1,0,0,0,1.4,4.7,4.9,4.9,0,0,0,3.6,1.7,4.6,4.6,0,0,0,3.6-1.7c1-1,1.4-2.6,1.4-4.8a7.1,7.1,0,0,0-1.4-4.6,4.8,4.8,0,0,0-3.6-1.6,5.1,5.1,0,0,0-3.6,1.5A7.5,7.5,0,0,0,416.9,768.6Z" style="fill:none;stroke:#fff;stroke-miterlimit:11.338966460304619"/><path d="M433.3,776.8V754.3h2.9v22.5Z" style="fill:none;stroke:#fff;stroke-miterlimit:11.338966460304619"/><path d="M449,770.8l2.9-.4a6.1,6.1,0,0,0,1.7,3.5,4.8,4.8,0,0,0,2.9,1,4.7,4.7,0,0,0,4.8-4.4v-.3a4.2,4.2,0,0,0-1.3-3.1,5,5,0,0,0-3.3-1.2l-2,.3.3-2.4h.5a5.7,5.7,0,0,0,3.3-.9,3,3,0,0,0,1.5-2.8,3.6,3.6,0,0,0-1.1-2.5,4.2,4.2,0,0,0-2.8-1,4.5,4.5,0,0,0-2.8,1,5.2,5.2,0,0,0-1.4,3l-2.9-.5a6.7,6.7,0,0,1,7.1-5.8,8.5,8.5,0,0,1,3.5.8,6.4,6.4,0,0,1,2.5,2.1,5.2,5.2,0,0,1,.9,2.9,4.5,4.5,0,0,1-.8,2.6,6.1,6.1,0,0,1-2.4,1.9,5.1,5.1,0,0,1,3.2,1.9,6,6,0,0,1,1.2,3.6,6.9,6.9,0,0,1-2.2,5.1,8.5,8.5,0,0,1-5.7,2,7.8,7.8,0,0,1-5.1-1.8A6,6,0,0,1,449,770.8Z" style="fill:none;stroke:#fff;stroke-miterlimit:11.338966460304619"/><path d="M468.4,776.8V754.3h8.1a29.7,29.7,0,0,1,4.2.3,10.2,10.2,0,0,1,3.5,1.6A11.4,11.4,0,0,1,487,760a16,16,0,0,1,.9,5.3,16.3,16.3,0,0,1-.6,4.5,12.6,12.6,0,0,1-1.6,3.3,8,8,0,0,1-2.1,2,6.1,6.1,0,0,1-2.8,1.1,16.5,16.5,0,0,1-3.8.5h-8.6Zm3.1-2.6h5a15.5,15.5,0,0,0,3.7-.4,5.7,5.7,0,0,0,2.1-1.3,6.6,6.6,0,0,0,1.7-2.8,14.9,14.9,0,0,0,.6-4.3,10.4,10.4,0,0,0-1.2-5.4,6.4,6.4,0,0,0-2.9-2.5,18.3,18.3,0,0,0-4-.5h-4.9v17.2Z" style="fill:none;stroke:#fff;stroke-miterlimit:11.338966460304619"/></svg>