<svg xmlns="http://www.w3.org/2000/svg" width="300.4mm" height="300.6mm" viewBox="0 0 851.5 852.2"><line x1="0.5" y1="0.5" x2="39.2" y2="0.5" style="fill:none;stroke:#fff;stroke-miterlimit:9.999500274658203"/><line x1="812.4" y1="0.5" x2="851" y2="0.5" style="fill:none;stroke:#fff;stroke-miterlimit:9.999500274658203"/><line x1="812.4" y1="848.8" x2="851" y2="848.8" style="fill:none;stroke:#fff;stroke-miterlimit:9.999500274658203"/><line x1="851" y1="849.3" x2="851" y2="811" style="fill:none;stroke:#fff;stroke-miterlimit:9.999500274658203"/><line x1="851" y1="38.8" x2="851" y2="0.5" style="fill:none;stroke:#fff;stroke-miterlimit:9.999500274658203"/><line x1="0.5" y1="849.3" x2="0.5" y2="811" style="fill:none;stroke:#fff;stroke-miterlimit:9.999500274658203"/><line x1="0.5" y1="38.8" x2="0.5" y2="0.5" style="fill:none;stroke:#fff;stroke-miterlimit:9.999500274658203"/><line x1="0.5" y1="849.3" x2="39.2" y2="849.3" style="fill:none;stroke:#fff;stroke-miterlimit:9.999500274658203"/><line x1="14.1" y1="513.1" x2="836.2" y2="513.1" style="fill:none;stroke:#fff;stroke-miterlimit:9.999500274658203;stroke-width:0.9921259842519686px;stroke-dasharray:28.35070037841797,28.35070037841797"/><line x1="14.1" y1="181.3" x2="836.2" y2="181.3" style="fill:none;stroke:#fff;stroke-miterlimit:9.999500274658203;stroke-width:0.9921259842519686px;stroke-dasharray:28.35070037841797,28.35070037841797"/><line x1="14.1" y1="14.1" x2="836.2" y2="14.1" style="fill:none;stroke:#fff;stroke-miterlimit:9.999500274658203;stroke-width:0.9921259842519686px;stroke-dasharray:28.35070037841797,28.35070037841797"/><line x1="14.1" y1="836.2" x2="836.2" y2="836.2" style="fill:none;stroke:#fff;stroke-miterlimit:9.999500274658203;stroke-width:0.9921259842519686px;stroke-dasharray:28.35070037841797,28.35070037841797"/><line x1="14.1" y1="683.2" x2="836.2" y2="683.2" style="fill:none;stroke:#fff;stroke-miterlimit:9.999500274658203;stroke-width:0.9921259842519686px;stroke-dasharray:28.35070037841797,28.35070037841797"/><line x1="14.1" y1="348.7" x2="836.2" y2="348.7" style="fill:none;stroke:#fff;stroke-miterlimit:9.999500274658203;stroke-width:0.9921259842519686px;stroke-dasharray:28.35070037841797,28.35070037841797"/><line x1="337.3" y1="14.1" x2="337.3" y2="836.2" style="fill:none;stroke:#fff;stroke-miterlimit:9.999500274658203;stroke-width:0.9921259842519686px;stroke-dasharray:28.35070037841797,28.35070037841797"/><line x1="669" y1="14.1" x2="669" y2="836.2" style="fill:none;stroke:#fff;stroke-miterlimit:9.999500274658203;stroke-width:0.9921259842519686px;stroke-dasharray:28.35070037841797,28.35070037841797"/><line x1="836.2" y1="14.1" x2="836.2" y2="836.2" style="fill:none;stroke:#fff;stroke-miterlimit:9.999500274658203;stroke-width:0.9921259842519686px;stroke-dasharray:28.35070037841797,28.35070037841797"/><line x1="14.1" y1="14.1" x2="14.1" y2="836.2" style="fill:none;stroke:#fff;stroke-miterlimit:9.999500274658203;stroke-width:0.9921259842519686px;stroke-dasharray:28.35070037841797,28.35070037841797"/><line x1="167.1" y1="14.1" x2="167.1" y2="836.2" style="fill:none;stroke:#fff;stroke-miterlimit:9.999500274658203;stroke-width:0.9921259842519686px;stroke-dasharray:28.35070037841797,28.35070037841797"/><line x1="501.7" y1="14.1" x2="501.7" y2="836.2" style="fill:none;stroke:#fff;stroke-miterlimit:9.999500274658203;stroke-width:0.9921259842519686px;stroke-dasharray:28.35070037841797,28.35070037841797"/><text transform="translate(295.6 825.3) scale(0.99 1)" style="isolation:isolate;font-size:69.95559692382812px;fill:#fff;font-family:Arial-BoldMT, Arial;font-weight:700">S</text><text transform="translate(345.8 825.3) scale(0.99 1)" style="isolation:isolate;font-size:69.95559692382812px;fill:#fff;font-family:Arial-BoldMT, Arial;font-weight:700;letter-spacing:-0.027992532059223356em">O</text><text transform="translate(400.7 825.3) scale(0.99 1)" style="isolation:isolate;font-size:69.95559692382812px;fill:#fff;font-family:Arial-BoldMT, Arial;font-weight:700;letter-spacing:-0.027992532059223356em">V</text><text transform="translate(452.4 825.3) scale(0.99 1)" style="isolation:isolate;font-size:69.95559692382812px;fill:#fff;font-family:Arial-BoldMT, Arial;font-weight:700">O<tspan x="54.4" y="0" style="letter-spacing:-0.01806241657208291em">L</tspan></text><text transform="translate(295.6 825.3) scale(0.99 1)" style="isolation:isolate;font-size:69.95559692382812px;fill:none;stroke:#fff;stroke-miterlimit:9.998000144958496;font-family:Arial-BoldMT, Arial;font-weight:700">S</text><text transform="translate(345.8 825.3) scale(0.99 1)" style="isolation:isolate;font-size:69.95559692382812px;fill:none;stroke:#fff;stroke-miterlimit:9.998000144958496;font-family:Arial-BoldMT, Arial;font-weight:700;letter-spacing:-0.027992532059223356em">O</text><text transform="translate(400.7 825.3) scale(0.99 1)" style="isolation:isolate;font-size:69.95559692382812px;fill:none;stroke:#fff;stroke-miterlimit:9.998000144958496;font-family:Arial-BoldMT, Arial;font-weight:700;letter-spacing:-0.027992532059223356em">V</text><text transform="translate(452.4 825.3) scale(0.99 1)" style="isolation:isolate;font-size:69.95559692382812px;fill:none;stroke:#fff;stroke-miterlimit:9.998000144958496;font-family:Arial-BoldMT, Arial;font-weight:700">O<tspan x="54.4" y="0" style="letter-spacing:-0.01806241657208291em">L</tspan></text><text transform="translate(295.6 825.3) scale(0.99 1)" style="isolation:isolate;font-size:69.95559692382812px;fill:#fff;font-family:Arial-BoldMT, Arial;font-weight:700">S</text><text transform="translate(345.8 825.3) scale(0.99 1)" style="isolation:isolate;font-size:69.95559692382812px;fill:#fff;font-family:Arial-BoldMT, Arial;font-weight:700;letter-spacing:-0.027992532059223356em">O</text><text transform="translate(400.7 825.3) scale(0.99 1)" style="isolation:isolate;font-size:69.95559692382812px;fill:#fff;font-family:Arial-BoldMT, Arial;font-weight:700;letter-spacing:-0.027992532059223356em">V</text><text transform="translate(452.4 825.3) scale(0.99 1)" style="isolation:isolate;font-size:69.95559692382812px;fill:#fff;font-family:Arial-BoldMT, Arial;font-weight:700">O<tspan x="54.4" y="0" style="letter-spacing:-0.01806241657208291em">L</tspan></text><path d="M291,803.5l14.5-1.3a17.2,17.2,0,0,0,1.9,6.9,7.8,7.8,0,0,0,6.8,3.9,6.9,6.9,0,0,0,5.1-2,6,6,0,0,0,1.9-4.5,6.3,6.3,0,0,0-1.7-4.4c-1.2-1.3-3.8-2.4-7.8-3.6-6.7-1.9-11.5-4.4-14.4-7.6a17.6,17.6,0,0,1-4.3-12.3,20,20,0,0,1,2.2-9.1,17.5,17.5,0,0,1,6.7-6.8,26.9,26.9,0,0,1,12.2-2.4c6.4,0,11.2,1.5,14.5,4.4s5.4,7.9,6,14.3l-14.5,1.1a12,12,0,0,0-2.3-6.2,7,7,0,0,0-5.2-1.9,4.4,4.4,0,0,0-3.9,1.5,4.2,4.2,0,0,0-1.4,3.5,4.7,4.7,0,0,0,1.2,2.8,12.6,12.6,0,0,0,5.1,2.1c6.8,1.9,11.6,3.6,14.5,5.6a15.7,15.7,0,0,1,6.3,6.9,21.7,21.7,0,0,1,2,9.2,23.5,23.5,0,0,1-2.7,11.2,18.9,18.9,0,0,1-7.4,7.9,24.8,24.8,0,0,1-11.9,2.5c-8.5,0-14.2-2-17.6-6.3A26,26,0,0,1,291,803.5Z" style="fill:none;stroke:#fff;stroke-miterlimit:9.998000144958496"/><path d="M341.8,792.8c0-10.3,2.2-18.3,6.8-23.9s10.7-8.6,18.7-8.6,14.8,2.8,19.1,8.4,6.7,13.6,6.7,23.6a49.8,49.8,0,0,1-2.8,18.1,26.2,26.2,0,0,1-8.5,10.9,25.1,25.1,0,0,1-13.9,3.9,27.1,27.1,0,0,1-13.8-3.3,23.8,23.8,0,0,1-8.8-10.8A41.8,41.8,0,0,1,341.8,792.8Zm15.4,0c0,6.4.9,10.9,2.8,13.7s4.6,4.4,7.6,4.2a8.6,8.6,0,0,0,7.7-4.2c1.7-2.5,2.8-7.5,2.8-14.7s-1-10-2.9-12.8c-3.8-5.3-10.3-5.6-14.4-.9a7.1,7.1,0,0,0-.7.9C358,781.9,357.2,786.4,357.2,792.8Z" style="fill:none;stroke:#fff;stroke-miterlimit:9.998000144958496"/><path d="M393.6,761.3h16.1l11.1,45.2,11-45.2h15.6L429,824H412.3Z" style="fill:none;stroke:#fff;stroke-miterlimit:9.998000144958496"/><path d="M448.1,792.8c0-10.3,2.2-18.3,6.7-23.9s10.9-8.6,18.8-8.6,14.7,2.8,19.2,8.4,6.7,13.6,6.7,23.6a47.8,47.8,0,0,1-2.9,18.1,26.2,26.2,0,0,1-8.5,10.9,24.6,24.6,0,0,1-13.7,3.9,27.4,27.4,0,0,1-14.1-3.3,23.8,23.8,0,0,1-8.8-10.8A41.8,41.8,0,0,1,448.1,792.8Zm15.3,0c0,6.4,1,10.9,2.9,13.7s4.6,4.4,7.5,4.2,5.7-1.3,7.6-4.2,2.8-7.5,2.8-14.7-1-10-2.9-12.8-4.6-4.4-7.6-4.2-5.6,1.5-7.4,4.2S463.4,786.4,463.4,792.8Z" style="fill:none;stroke:#fff;stroke-miterlimit:9.998000144958496"/><path d="M507.6,761.3H523v47.3h23.9v15.3H507.6Z" style="fill:none;stroke:#fff;stroke-miterlimit:9.998000144958496"/></svg>