<svg xmlns="http://www.w3.org/2000/svg" width="220.3mm" height="221.9mm" viewBox="0 0 624.5 629"><line x1="0.5" y1="0.5" x2="28.9" y2="0.5" style="fill:none;stroke:#fff;stroke-miterlimit:9.998000144958496"/><line x1="595.7" y1="0.5" x2="624" y2="0.5" style="fill:none;stroke:#fff;stroke-miterlimit:9.998000144958496"/><line x1="595.7" y1="623.6" x2="624" y2="623.6" style="fill:none;stroke:#fff;stroke-miterlimit:9.998000144958496"/><line x1="624" y1="624" x2="624" y2="595.7" style="fill:none;stroke:#fff;stroke-miterlimit:9.998000144958496"/><line x1="624" y1="28.8" x2="624" y2="0.5" style="fill:none;stroke:#fff;stroke-miterlimit:9.998000144958496"/><line x1="0.5" y1="624" x2="0.5" y2="595.7" style="fill:none;stroke:#fff;stroke-miterlimit:9.998000144958496"/><line x1="0.5" y1="28.8" x2="0.5" y2="0.5" style="fill:none;stroke:#fff;stroke-miterlimit:9.998000144958496"/><line x1="0.5" y1="624" x2="28.9" y2="624" style="fill:none;stroke:#fff;stroke-miterlimit:9.998000144958496"/><line x1="52.1" y1="538.4" x2="562.2" y2="538.4" style="fill:none;stroke:#fff;stroke-miterlimit:9.998000144958496;stroke-width:0.37389999628067017px"/><line x1="52.1" y1="511.5" x2="562.2" y2="511.5" style="fill:none;stroke:#fff;stroke-miterlimit:9.998000144958496;stroke-width:0.37389999628067017px"/><line x1="52.1" y1="484.7" x2="562.2" y2="484.7" style="fill:none;stroke:#fff;stroke-miterlimit:9.998000144958496;stroke-width:0.37389999628067017px"/><line x1="52.1" y1="457.8" x2="562.2" y2="457.8" style="fill:none;stroke:#fff;stroke-miterlimit:9.998000144958496;stroke-width:0.37389999628067017px"/><line x1="52.1" y1="431" x2="562.2" y2="431" style="fill:none;stroke:#fff;stroke-miterlimit:9.998000144958496;stroke-width:0.37389999628067017px"/><line x1="52.1" y1="404.1" x2="562.2" y2="404.1" style="fill:none;stroke:#fff;stroke-miterlimit:9.998000144958496;stroke-width:0.37389999628067017px"/><line x1="52.1" y1="377.3" x2="562.2" y2="377.3" style="fill:none;stroke:#fff;stroke-miterlimit:9.998000144958496;stroke-width:0.37389999628067017px"/><line x1="52.1" y1="350.4" x2="562.2" y2="350.4" style="fill:none;stroke:#fff;stroke-miterlimit:9.998000144958496;stroke-width:0.37389999628067017px"/><line x1="52.1" y1="323.7" x2="562.2" y2="323.7" style="fill:none;stroke:#fff;stroke-miterlimit:9.998000144958496;stroke-width:0.37389999628067017px"/><line x1="52.1" y1="296.8" x2="562.2" y2="296.8" style="fill:none;stroke:#fff;stroke-miterlimit:9.998000144958496;stroke-width:0.37389999628067017px"/><line x1="52.1" y1="270" x2="562.2" y2="270" style="fill:none;stroke:#fff;stroke-miterlimit:9.998000144958496;stroke-width:0.37389999628067017px"/><line x1="52.1" y1="243.1" x2="562.2" y2="243.1" style="fill:none;stroke:#fff;stroke-miterlimit:9.998000144958496;stroke-width:0.37389999628067017px"/><line x1="52.1" y1="216.2" x2="562.2" y2="216.2" style="fill:none;stroke:#fff;stroke-miterlimit:9.998000144958496;stroke-width:0.37389999628067017px"/><line x1="52.1" y1="189.4" x2="562.2" y2="189.4" style="fill:none;stroke:#fff;stroke-miterlimit:9.998000144958496;stroke-width:0.37389999628067017px"/><line x1="52.1" y1="162.5" x2="562.2" y2="162.5" style="fill:none;stroke:#fff;stroke-miterlimit:9.998000144958496;stroke-width:0.37389999628067017px"/><line x1="52.1" y1="135.7" x2="562.2" y2="135.7" style="fill:none;stroke:#fff;stroke-miterlimit:9.998000144958496;stroke-width:0.37389999628067017px"/><line x1="52.1" y1="108.8" x2="562.2" y2="108.8" style="fill:none;stroke:#fff;stroke-miterlimit:9.998000144958496;stroke-width:0.37389999628067017px"/><line x1="52.1" y1="82" x2="562.2" y2="82" style="fill:none;stroke:#fff;stroke-miterlimit:9.998000144958496;stroke-width:0.37389999628067017px"/><line x1="535.4" y1="55.1" x2="535.4" y2="565.3" style="fill:none;stroke:#fff;stroke-miterlimit:9.998000144958496;stroke-width:0.37389999628067017px"/><line x1="508.5" y1="55.1" x2="508.5" y2="565.3" style="fill:none;stroke:#fff;stroke-miterlimit:9.998000144958496;stroke-width:0.37389999628067017px"/><line x1="481.7" y1="55.1" x2="481.7" y2="565.3" style="fill:none;stroke:#fff;stroke-miterlimit:9.998000144958496;stroke-width:0.37389999628067017px"/><line x1="454.8" y1="55.1" x2="454.8" y2="565.3" style="fill:none;stroke:#fff;stroke-miterlimit:9.998000144958496;stroke-width:0.37389999628067017px"/><line x1="427.9" y1="55.1" x2="427.9" y2="565.3" style="fill:none;stroke:#fff;stroke-miterlimit:9.998000144958496;stroke-width:0.37389999628067017px"/><line x1="401.1" y1="55.1" x2="401.1" y2="565.3" style="fill:none;stroke:#fff;stroke-miterlimit:9.998000144958496;stroke-width:0.37389999628067017px"/><line x1="374.2" y1="55.1" x2="374.2" y2="565.3" style="fill:none;stroke:#fff;stroke-miterlimit:9.998000144958496;stroke-width:0.37389999628067017px"/><line x1="347.4" y1="55.1" x2="347.4" y2="565.3" style="fill:none;stroke:#fff;stroke-miterlimit:9.998000144958496;stroke-width:0.37389999628067017px"/><line x1="320.5" y1="55.1" x2="320.5" y2="565.3" style="fill:none;stroke:#fff;stroke-miterlimit:9.998000144958496;stroke-width:0.37389999628067017px"/><line x1="293.7" y1="55.1" x2="293.7" y2="565.3" style="fill:none;stroke:#fff;stroke-miterlimit:9.998000144958496;stroke-width:0.37389999628067017px"/><line x1="266.8" y1="55.1" x2="266.8" y2="565.3" style="fill:none;stroke:#fff;stroke-miterlimit:9.998000144958496;stroke-width:0.37389999628067017px"/><line x1="240.1" y1="55.1" x2="240.1" y2="565.3" style="fill:none;stroke:#fff;stroke-miterlimit:9.998000144958496;stroke-width:0.37389999628067017px"/><line x1="213.2" y1="55.1" x2="213.2" y2="565.3" style="fill:none;stroke:#fff;stroke-miterlimit:9.998000144958496;stroke-width:0.37389999628067017px"/><line x1="186.4" y1="55.1" x2="186.4" y2="565.3" style="fill:none;stroke:#fff;stroke-miterlimit:9.998000144958496;stroke-width:0.37389999628067017px"/><line x1="159.5" y1="55.1" x2="159.5" y2="565.3" style="fill:none;stroke:#fff;stroke-miterlimit:9.998000144958496;stroke-width:0.37389999628067017px"/><line x1="132.6" y1="55.1" x2="132.6" y2="565.3" style="fill:none;stroke:#fff;stroke-miterlimit:9.998000144958496;stroke-width:0.37389999628067017px"/><line x1="105.8" y1="55.1" x2="105.8" y2="565.3" style="fill:none;stroke:#fff;stroke-miterlimit:9.998000144958496;stroke-width:0.37389999628067017px"/><line x1="78.9" y1="55.1" x2="78.9" y2="565.3" style="fill:none;stroke:#fff;stroke-miterlimit:9.998000144958496;stroke-width:0.37389999628067017px"/><path d="M81.1,38v8.7H78.7V41l-1.2.7-1.3.6v-2a6.6,6.6,0,0,0,1.9-.9,4.5,4.5,0,0,0,1-1.4Z" style="fill:none;stroke:#fff;stroke-miterlimit:9.998000144958496"/><path d="M81.1,38v8.7H78.7V41l-1.2.7-1.3.6v-2a6.6,6.6,0,0,0,1.9-.9,4.5,4.5,0,0,0,1-1.4Z" style="fill:none;stroke:#fff;stroke-miterlimit:9.998000144958496"/><path d="M81.1,38v8.7H78.7V41l-1.2.7-1.3.6v-2a6.6,6.6,0,0,0,1.9-.9,4.5,4.5,0,0,0,1-1.4Z" style="fill:none;stroke:#fff;stroke-miterlimit:9.998000144958496"/><path d="M81.1,38v8.7H78.7V41l-1.2.7-1.3.6v-2a6.6,6.6,0,0,0,1.9-.9,4.5,4.5,0,0,0,1-1.4Z" style="fill:none;stroke:#fff;stroke-miterlimit:9.998000144958496"/><path d="M110.6,46.7h-7.1a4.4,4.4,0,0,1,.7-1.9,8.8,8.8,0,0,1,2.4-2.3l1.3-1.1a1.1,1.1,0,0,0,.3-.8.9.9,0,0,0-1-1,1.1,1.1,0,0,0-.8.3,3,3,0,0,0-.4,1h-2.4a4.4,4.4,0,0,1,.6-1.6,2.2,2.2,0,0,1,1-.9,6.3,6.3,0,0,1,1.9-.3,6.4,6.4,0,0,1,2,.3,3.1,3.1,0,0,1,1.1.9,2.8,2.8,0,0,1,.4,1.3,2.7,2.7,0,0,1-.5,1.5,6.5,6.5,0,0,1-1.7,1.6c-.4.3-.8.5-.9.7l-.6.5h3.7Z" style="fill:none;stroke:#fff;stroke-miterlimit:9.998000144958496"/><path d="M110.6,46.7h-7.1a4.4,4.4,0,0,1,.7-1.9,8.8,8.8,0,0,1,2.4-2.3l1.3-1.1a1.1,1.1,0,0,0,.3-.8.9.9,0,0,0-1-1,1.1,1.1,0,0,0-.8.3,3,3,0,0,0-.4,1h-2.4a4.4,4.4,0,0,1,.6-1.6,2.2,2.2,0,0,1,1-.9,6.3,6.3,0,0,1,1.9-.3,6.4,6.4,0,0,1,2,.3,3.1,3.1,0,0,1,1.1.9,2.8,2.8,0,0,1,.4,1.3,2.7,2.7,0,0,1-.5,1.5,6.5,6.5,0,0,1-1.7,1.6c-.4.3-.8.5-.9.7l-.6.5h3.7Z" style="fill:none;stroke:#fff;stroke-miterlimit:9.998000144958496"/><path d="M110.6,46.7h-7.1a4.4,4.4,0,0,1,.7-1.9,8.8,8.8,0,0,1,2.4-2.3l1.3-1.1a1.1,1.1,0,0,0,.3-.8.9.9,0,0,0-1-1,1.1,1.1,0,0,0-.8.3,3,3,0,0,0-.4,1h-2.4a4.4,4.4,0,0,1,.6-1.6,2.2,2.2,0,0,1,1-.9,6.3,6.3,0,0,1,1.9-.3,6.4,6.4,0,0,1,2,.3,3.1,3.1,0,0,1,1.1.9,2.8,2.8,0,0,1,.4,1.3,2.7,2.7,0,0,1-.5,1.5,6.5,6.5,0,0,1-1.7,1.6c-.4.3-.8.5-.9.7l-.6.5h3.7Z" style="fill:none;stroke:#fff;stroke-miterlimit:9.998000144958496"/><path d="M110.6,46.7h-7.1a4.4,4.4,0,0,1,.7-1.9,8.8,8.8,0,0,1,2.4-2.3l1.3-1.1a1.1,1.1,0,0,0,.3-.8.9.9,0,0,0-1-1,1.1,1.1,0,0,0-.8.3,3,3,0,0,0-.4,1h-2.4a4.4,4.4,0,0,1,.6-1.6,2.2,2.2,0,0,1,1-.9,6.3,6.3,0,0,1,1.9-.3,6.4,6.4,0,0,1,2,.3,3.1,3.1,0,0,1,1.1.9,2.8,2.8,0,0,1,.4,1.3,2.7,2.7,0,0,1-.5,1.5,6.5,6.5,0,0,1-1.7,1.6c-.4.3-.8.5-.9.7l-.6.5h3.7Z" style="fill:none;stroke:#fff;stroke-miterlimit:9.998000144958496"/><path d="M132.3,40.6l-2.3-.4a3.6,3.6,0,0,1,1.1-1.6,4.6,4.6,0,0,1,2.3-.6,3.5,3.5,0,0,1,2.4.6,2.1,2.1,0,0,1,.8,1.6,1.7,1.7,0,0,1-.3,1,3.9,3.9,0,0,1-1,.8l.8.3a2.3,2.3,0,0,1,.7.7,3.6,3.6,0,0,1,.2,1,2.8,2.8,0,0,1-.4,1.5,2.7,2.7,0,0,1-1.1,1,4.5,4.5,0,0,1-2,.4l-1.8-.3a2.1,2.1,0,0,1-1.1-.8,5.4,5.4,0,0,1-.7-1.3l2.4-.3a3,3,0,0,0,.4,1l.8.2a1.1,1.1,0,0,0,.8-.3,1.7,1.7,0,0,0,.3-1,1.6,1.6,0,0,0-.3-.9,1.1,1.1,0,0,0-.8-.3h-.8V41.3h.3a1.1,1.1,0,0,0,.8-.3.9.9,0,0,0,.3-.7,1.9,1.9,0,0,0-.2-.7l-.7-.2-.7.2A3.6,3.6,0,0,0,132.3,40.6Z" style="fill:none;stroke:#fff;stroke-miterlimit:9.998000144958496"/><path d="M132.3,40.6l-2.3-.4a3.6,3.6,0,0,1,1.1-1.6,4.6,4.6,0,0,1,2.3-.6,3.5,3.5,0,0,1,2.4.6,2.1,2.1,0,0,1,.8,1.6,1.7,1.7,0,0,1-.3,1,3.9,3.9,0,0,1-1,.8l.8.3a2.3,2.3,0,0,1,.7.7,3.6,3.6,0,0,1,.2,1,2.8,2.8,0,0,1-.4,1.5,2.7,2.7,0,0,1-1.1,1,4.5,4.5,0,0,1-2,.4l-1.8-.3a2.1,2.1,0,0,1-1.1-.8,5.4,5.4,0,0,1-.7-1.3l2.4-.3a3,3,0,0,0,.4,1l.8.2a1.1,1.1,0,0,0,.8-.3,1.7,1.7,0,0,0,.3-1,1.6,1.6,0,0,0-.3-.9,1.1,1.1,0,0,0-.8-.3h-.8V41.3h.3a1.1,1.1,0,0,0,.8-.3.9.9,0,0,0,.3-.7,1.9,1.9,0,0,0-.2-.7l-.7-.2-.7.2A3.6,3.6,0,0,0,132.3,40.6Z" style="fill:none;stroke:#fff;stroke-miterlimit:9.998000144958496"/><path d="M132.3,40.6l-2.3-.4a3.6,3.6,0,0,1,1.1-1.6,4.6,4.6,0,0,1,2.3-.6,3.5,3.5,0,0,1,2.4.6,2.1,2.1,0,0,1,.8,1.6,1.7,1.7,0,0,1-.3,1,3.9,3.9,0,0,1-1,.8l.8.3a2.3,2.3,0,0,1,.7.7,3.6,3.6,0,0,1,.2,1,2.8,2.8,0,0,1-.4,1.5,2.7,2.7,0,0,1-1.1,1,4.5,4.5,0,0,1-2,.4l-1.8-.3a2.1,2.1,0,0,1-1.1-.8,5.4,5.4,0,0,1-.7-1.3l2.4-.3a3,3,0,0,0,.4,1l.8.2a1.1,1.1,0,0,0,.8-.3,1.7,1.7,0,0,0,.3-1,1.6,1.6,0,0,0-.3-.9,1.1,1.1,0,0,0-.8-.3h-.8V41.3h.3a1.1,1.1,0,0,0,.8-.3.9.9,0,0,0,.3-.7,1.9,1.9,0,0,0-.2-.7l-.7-.2-.7.2A3.6,3.6,0,0,0,132.3,40.6Z" style="fill:none;stroke:#fff;stroke-miterlimit:9.998000144958496"/><path d="M132.3,40.6l-2.3-.4a3.6,3.6,0,0,1,1.1-1.6,4.6,4.6,0,0,1,2.3-.6,3.5,3.5,0,0,1,2.4.6,2.1,2.1,0,0,1,.8,1.6,1.7,1.7,0,0,1-.3,1,3.9,3.9,0,0,1-1,.8l.8.3a2.3,2.3,0,0,1,.7.7,3.6,3.6,0,0,1,.2,1,2.8,2.8,0,0,1-.4,1.5,2.7,2.7,0,0,1-1.1,1,4.5,4.5,0,0,1-2,.4l-1.8-.3a2.1,2.1,0,0,1-1.1-.8,5.4,5.4,0,0,1-.7-1.3l2.4-.3a3,3,0,0,0,.4,1l.8.2a1.1,1.1,0,0,0,.8-.3,1.7,1.7,0,0,0,.3-1,1.6,1.6,0,0,0-.3-.9,1.1,1.1,0,0,0-.8-.3h-.8V41.3h.3a1.1,1.1,0,0,0,.8-.3.9.9,0,0,0,.3-.7,1.9,1.9,0,0,0-.2-.7l-.7-.2-.7.2A3.6,3.6,0,0,0,132.3,40.6Z" style="fill:none;stroke:#fff;stroke-miterlimit:9.998000144958496"/><path d="M161.1,45.3h-4.3v-2l4.3-5.1h2.1v5.2h1.1v1.9h-1.1v1.6h-2.1Zm0-1.9V40.7l-2.3,2.7Z" style="fill:none;stroke:#fff;stroke-miterlimit:9.998000144958496"/><path d="M161.1,45.3h-4.3v-2l4.3-5.1h2.1v5.2h1.1v1.9h-1.1v1.6h-2.1Zm0-1.9V40.7l-2.3,2.7Z" style="fill:none;stroke:#fff;stroke-miterlimit:9.998000144958496"/><path d="M161.1,45.3h-4.3v-2l4.3-5.1h2.1v5.2h1.1v1.9h-1.1v1.6h-2.1Zm0-1.9V40.7l-2.3,2.7Z" style="fill:none;stroke:#fff;stroke-miterlimit:9.998000144958496"/><path d="M161.1,45.3h-4.3v-2l4.3-5.1h2.1v5.2h1.1v1.9h-1.1v1.6h-2.1Zm0-1.9V40.7l-2.3,2.7Z" style="fill:none;stroke:#fff;stroke-miterlimit:9.998000144958496"/><path d="M184.8,38.2h5.7v1.9h-3.9l-.2,1.2.8-.2h.8a2.4,2.4,0,0,1,2.1.8,2.7,2.7,0,0,1,.8,1.9,2.9,2.9,0,0,1-.4,1.6,3.4,3.4,0,0,1-1.2,1.2,4.1,4.1,0,0,1-1.9.4l-1.5-.2-1-.4-.7-.8a3,3,0,0,1-.4-1l2.4-.2a1.2,1.2,0,0,0,.4.8.9.9,0,0,0,.7.3,1.6,1.6,0,0,0,.9-.3,2.7,2.7,0,0,0,.3-1.2,2,2,0,0,0-.3-1.1,1.6,1.6,0,0,0-.9-.3h-.7l-.5.5-2-.3Z" style="fill:none;stroke:#fff;stroke-miterlimit:9.998000144958496"/><path d="M184.8,38.2h5.7v1.9h-3.9l-.2,1.2.8-.2h.8a2.4,2.4,0,0,1,2.1.8,2.7,2.7,0,0,1,.8,1.9,2.9,2.9,0,0,1-.4,1.6,3.4,3.4,0,0,1-1.2,1.2,4.1,4.1,0,0,1-1.9.4l-1.5-.2-1-.4-.7-.8a3,3,0,0,1-.4-1l2.4-.2a1.2,1.2,0,0,0,.4.8.9.9,0,0,0,.7.3,1.6,1.6,0,0,0,.9-.3,2.7,2.7,0,0,0,.3-1.2,2,2,0,0,0-.3-1.1,1.6,1.6,0,0,0-.9-.3h-.7l-.5.5-2-.3Z" style="fill:none;stroke:#fff;stroke-miterlimit:9.998000144958496"/><path d="M184.8,38.2h5.7v1.9h-3.9l-.2,1.2.8-.2h.8a2.4,2.4,0,0,1,2.1.8,2.7,2.7,0,0,1,.8,1.9,2.9,2.9,0,0,1-.4,1.6,3.4,3.4,0,0,1-1.2,1.2,4.1,4.1,0,0,1-1.9.4l-1.5-.2-1-.4-.7-.8a3,3,0,0,1-.4-1l2.4-.2a1.2,1.2,0,0,0,.4.8.9.9,0,0,0,.7.3,1.6,1.6,0,0,0,.9-.3,2.7,2.7,0,0,0,.3-1.2,2,2,0,0,0-.3-1.1,1.6,1.6,0,0,0-.9-.3h-.7l-.5.5-2-.3Z" style="fill:none;stroke:#fff;stroke-miterlimit:9.998000144958496"/><path d="M184.8,38.2h5.7v1.9h-3.9l-.2,1.2.8-.2h.8a2.4,2.4,0,0,1,2.1.8,2.7,2.7,0,0,1,.8,1.9,2.9,2.9,0,0,1-.4,1.6,3.4,3.4,0,0,1-1.2,1.2,4.1,4.1,0,0,1-1.9.4l-1.5-.2-1-.4-.7-.8a3,3,0,0,1-.4-1l2.4-.2a1.2,1.2,0,0,0,.4.8.9.9,0,0,0,.7.3,1.6,1.6,0,0,0,.9-.3,2.7,2.7,0,0,0,.3-1.2,2,2,0,0,0-.3-1.1,1.6,1.6,0,0,0-.9-.3h-.7l-.5.5-2-.3Z" style="fill:none;stroke:#fff;stroke-miterlimit:9.998000144958496"/><path d="M216.6,40.1l-2.4.3-.3-.7c-.2-.2-.3-.2-.6-.2a1.1,1.1,0,0,0-.9.6,5.7,5.7,0,0,0-.3,1.8l.9-.7,1-.2a3,3,0,0,1,2,.8,3.2,3.2,0,0,1,.8,2.1,4.2,4.2,0,0,1-.4,1.6,2.9,2.9,0,0,1-1.2,1,3.3,3.3,0,0,1-1.7.4,5.2,5.2,0,0,1-2.1-.4,3.7,3.7,0,0,1-1.3-1.5,5.3,5.3,0,0,1-.4-2.5,4.7,4.7,0,0,1,1-3.4,3.2,3.2,0,0,1,2.7-1.1l1.6.2,1,.7Zm-4.4,3.8a2,2,0,0,0,.3,1.1,1.1,1.1,0,0,0,.9.4.9.9,0,0,0,.8-.4,1.7,1.7,0,0,0,.3-1,2,2,0,0,0-.3-1.1.9.9,0,0,0-.8-.4,1.1,1.1,0,0,0-.9.4,1,1,0,0,0-.3,1Z" style="fill:none;stroke:#fff;stroke-miterlimit:9.998000144958496"/><path d="M216.6,40.1l-2.4.3-.3-.7c-.2-.2-.3-.2-.6-.2a1.1,1.1,0,0,0-.9.6,5.7,5.7,0,0,0-.3,1.8l.9-.7,1-.2a3,3,0,0,1,2,.8,3.2,3.2,0,0,1,.8,2.1,4.2,4.2,0,0,1-.4,1.6,2.9,2.9,0,0,1-1.2,1,3.3,3.3,0,0,1-1.7.4,5.2,5.2,0,0,1-2.1-.4,3.7,3.7,0,0,1-1.3-1.5,5.3,5.3,0,0,1-.4-2.5,4.7,4.7,0,0,1,1-3.4,3.2,3.2,0,0,1,2.7-1.1l1.6.2,1,.7Zm-4.4,3.8a2,2,0,0,0,.3,1.1,1.1,1.1,0,0,0,.9.4.9.9,0,0,0,.8-.4,1.7,1.7,0,0,0,.3-1,2,2,0,0,0-.3-1.1.9.9,0,0,0-.8-.4,1.1,1.1,0,0,0-.9.4,1,1,0,0,0-.3,1Z" style="fill:none;stroke:#fff;stroke-miterlimit:9.998000144958496"/><path d="M216.6,40.1l-2.4.3-.3-.7c-.2-.2-.3-.2-.6-.2a1.1,1.1,0,0,0-.9.6,5.7,5.7,0,0,0-.3,1.8l.9-.7,1-.2a3,3,0,0,1,2,.8,3.2,3.2,0,0,1,.8,2.1,4.2,4.2,0,0,1-.4,1.6,2.9,2.9,0,0,1-1.2,1,3.3,3.3,0,0,1-1.7.4,5.2,5.2,0,0,1-2.1-.4,3.7,3.7,0,0,1-1.3-1.5,5.3,5.3,0,0,1-.4-2.5,4.7,4.7,0,0,1,1-3.4,3.2,3.2,0,0,1,2.7-1.1l1.6.2,1,.7Zm-4.4,3.8a2,2,0,0,0,.3,1.1,1.1,1.1,0,0,0,.9.4.9.9,0,0,0,.8-.4,1.7,1.7,0,0,0,.3-1,2,2,0,0,0-.3-1.1.9.9,0,0,0-.8-.4,1.1,1.1,0,0,0-.9.4,1,1,0,0,0-.3,1Z" style="fill:none;stroke:#fff;stroke-miterlimit:9.998000144958496"/><path d="M216.6,40.1l-2.4.3-.3-.7c-.2-.2-.3-.2-.6-.2a1.1,1.1,0,0,0-.9.6,5.7,5.7,0,0,0-.3,1.8l.9-.7,1-.2a3,3,0,0,1,2,.8,3.2,3.2,0,0,1,.8,2.1,4.2,4.2,0,0,1-.4,1.6,2.9,2.9,0,0,1-1.2,1,3.3,3.3,0,0,1-1.7.4,5.2,5.2,0,0,1-2.1-.4,3.7,3.7,0,0,1-1.3-1.5,5.3,5.3,0,0,1-.4-2.5,4.7,4.7,0,0,1,1-3.4,3.2,3.2,0,0,1,2.7-1.1l1.6.2,1,.7Zm-4.4,3.8a2,2,0,0,0,.3,1.1,1.1,1.1,0,0,0,.9.4.9.9,0,0,0,.8-.4,1.7,1.7,0,0,0,.3-1,2,2,0,0,0-.3-1.1.9.9,0,0,0-.8-.4,1.1,1.1,0,0,0-.9.4,1,1,0,0,0-.3,1Z" style="fill:none;stroke:#fff;stroke-miterlimit:9.998000144958496"/><path d="M236.7,38.3h7v1.6a6.5,6.5,0,0,0-1.5,1.8,12.3,12.3,0,0,0-1.2,2.6,23.8,23.8,0,0,0-.5,2.6h-2.3a10.5,10.5,0,0,1,.8-3.5,12.7,12.7,0,0,1,2-3.1h-4.3Z" style="fill:none;stroke:#fff;stroke-miterlimit:9.998000144958496"/><path d="M236.7,38.3h7v1.6a6.5,6.5,0,0,0-1.5,1.8,12.3,12.3,0,0,0-1.2,2.6,23.8,23.8,0,0,0-.5,2.6h-2.3a10.5,10.5,0,0,1,.8-3.5,12.7,12.7,0,0,1,2-3.1h-4.3Z" style="fill:none;stroke:#fff;stroke-miterlimit:9.998000144958496"/><path d="M236.7,38.3h7v1.6a6.5,6.5,0,0,0-1.5,1.8,12.3,12.3,0,0,0-1.2,2.6,23.8,23.8,0,0,0-.5,2.6h-2.3a10.5,10.5,0,0,1,.8-3.5,12.7,12.7,0,0,1,2-3.1h-4.3Z" style="fill:none;stroke:#fff;stroke-miterlimit:9.998000144958496"/><path d="M236.7,38.3h7v1.6a6.5,6.5,0,0,0-1.5,1.8,12.3,12.3,0,0,0-1.2,2.6,23.8,23.8,0,0,0-.5,2.6h-2.3a10.5,10.5,0,0,1,.8-3.5,12.7,12.7,0,0,1,2-3.1h-4.3Z" style="fill:none;stroke:#fff;stroke-miterlimit:9.998000144958496"/><path d="M266,42.1a1.6,1.6,0,0,1-.8-.6,1.7,1.7,0,0,1-.4-1.2,2.2,2.2,0,0,1,1-1.8,3.8,3.8,0,0,1,2.1-.5,4.1,4.1,0,0,1,2.6.7,2.1,2.1,0,0,1,.8,1.6,2,2,0,0,1-.3,1.1,2.7,2.7,0,0,1-.8.7c.4.3.8.5,1,.9a2.8,2.8,0,0,1,.4,1.2,2.7,2.7,0,0,1-.3,1.2,2.4,2.4,0,0,1-.8.9,1.3,1.3,0,0,1-1,.4l-1.4.2a7.6,7.6,0,0,1-2.1-.3,2.7,2.7,0,0,1-1.1-1,3.3,3.3,0,0,1-.4-1.4,2.2,2.2,0,0,1,1.5-2.1Zm.9,2a1.3,1.3,0,0,0,.4,1,1.1,1.1,0,0,0,.8.3.9.9,0,0,0,.7-.3,1.3,1.3,0,0,0,.4-1,1.1,1.1,0,0,0-.4-.9,1.2,1.2,0,0,0-.8-.4,1,1,0,0,0-.7.4A1.5,1.5,0,0,0,266.9,44.1Zm.2-3.7a1.1,1.1,0,0,0,.2.8l.8.2.6-.2a.9.9,0,0,0,.3-.7,1.1,1.1,0,0,0-.3-.8l-.7-.2-.7.2A1.9,1.9,0,0,0,267.1,40.4Z" style="fill:none;stroke:#fff;stroke-miterlimit:9.998000144958496"/><path d="M266,42.1a1.6,1.6,0,0,1-.8-.6,1.7,1.7,0,0,1-.4-1.2,2.2,2.2,0,0,1,1-1.8,3.8,3.8,0,0,1,2.1-.5,4.1,4.1,0,0,1,2.6.7,2.1,2.1,0,0,1,.8,1.6,2,2,0,0,1-.3,1.1,2.7,2.7,0,0,1-.8.7c.4.3.8.5,1,.9a2.8,2.8,0,0,1,.4,1.2,2.7,2.7,0,0,1-.3,1.2,2.4,2.4,0,0,1-.8.9,1.3,1.3,0,0,1-1,.4l-1.4.2a7.6,7.6,0,0,1-2.1-.3,2.7,2.7,0,0,1-1.1-1,3.3,3.3,0,0,1-.4-1.4,2.2,2.2,0,0,1,1.5-2.1Zm.9,2a1.3,1.3,0,0,0,.4,1,1.1,1.1,0,0,0,.8.3.9.9,0,0,0,.7-.3,1.3,1.3,0,0,0,.4-1,1.1,1.1,0,0,0-.4-.9,1.2,1.2,0,0,0-.8-.4,1,1,0,0,0-.7.4A1.5,1.5,0,0,0,266.9,44.1Zm.2-3.7a1.1,1.1,0,0,0,.2.8l.8.2.6-.2a.9.9,0,0,0,.3-.7,1.1,1.1,0,0,0-.3-.8l-.7-.2-.7.2A1.9,1.9,0,0,0,267.1,40.4Z" style="fill:none;stroke:#fff;stroke-miterlimit:9.998000144958496"/><path d="M266,42.1a1.6,1.6,0,0,1-.8-.6,1.7,1.7,0,0,1-.4-1.2,2.2,2.2,0,0,1,1-1.8,3.8,3.8,0,0,1,2.1-.5,4.1,4.1,0,0,1,2.6.7,2.1,2.1,0,0,1,.8,1.6,2,2,0,0,1-.3,1.1,2.7,2.7,0,0,1-.8.7c.4.3.8.5,1,.9a2.8,2.8,0,0,1,.4,1.2,2.7,2.7,0,0,1-.3,1.2,2.4,2.4,0,0,1-.8.9,1.3,1.3,0,0,1-1,.4l-1.4.2a7.6,7.6,0,0,1-2.1-.3,2.7,2.7,0,0,1-1.1-1,3.3,3.3,0,0,1-.4-1.4,2.2,2.2,0,0,1,1.5-2.1Zm.9,2a1.3,1.3,0,0,0,.4,1,1.1,1.1,0,0,0,.8.3.9.9,0,0,0,.7-.3,1.3,1.3,0,0,0,.4-1,1.1,1.1,0,0,0-.4-.9,1.2,1.2,0,0,0-.8-.4,1,1,0,0,0-.7.4A1.5,1.5,0,0,0,266.9,44.1Zm.2-3.7a1.1,1.1,0,0,0,.2.8l.8.2.6-.2a.9.9,0,0,0,.3-.7,1.1,1.1,0,0,0-.3-.8l-.7-.2-.7.2A1.9,1.9,0,0,0,267.1,40.4Z" style="fill:none;stroke:#fff;stroke-miterlimit:9.998000144958496"/><path d="M266,42.1a1.6,1.6,0,0,1-.8-.6,1.7,1.7,0,0,1-.4-1.2,2.2,2.2,0,0,1,1-1.8,3.8,3.8,0,0,1,2.1-.5,4.1,4.1,0,0,1,2.6.7,2.1,2.1,0,0,1,.8,1.6,2,2,0,0,1-.3,1.1,2.7,2.7,0,0,1-.8.7c.4.3.8.5,1,.9a2.8,2.8,0,0,1,.4,1.2,2.7,2.7,0,0,1-.3,1.2,2.4,2.4,0,0,1-.8.9,1.3,1.3,0,0,1-1,.4l-1.4.2a7.6,7.6,0,0,1-2.1-.3,2.7,2.7,0,0,1-1.1-1,3.3,3.3,0,0,1-.4-1.4,2.2,2.2,0,0,1,1.5-2.1Zm.9,2a1.3,1.3,0,0,0,.4,1,1.1,1.1,0,0,0,.8.3.9.9,0,0,0,.7-.3,1.3,1.3,0,0,0,.4-1,1.1,1.1,0,0,0-.4-.9,1.2,1.2,0,0,0-.8-.4,1,1,0,0,0-.7.4A1.5,1.5,0,0,0,266.9,44.1Zm.2-3.7a1.1,1.1,0,0,0,.2.8l.8.2.6-.2a.9.9,0,0,0,.3-.7,1.1,1.1,0,0,0-.3-.8l-.7-.2-.7.2A1.9,1.9,0,0,0,267.1,40.4Z" style="fill:none;stroke:#fff;stroke-miterlimit:9.998000144958496"/><path d="M289.8,45l2.3-.3a1.6,1.6,0,0,0,.4.7l.5.2a1,1,0,0,0,.9-.6,5.8,5.8,0,0,0,.4-1.8,2.4,2.4,0,0,1-.9.6,2,2,0,0,1-1.1.2,2.7,2.7,0,0,1-1.9-.8,3.2,3.2,0,0,1-.8-2.1,2.6,2.6,0,0,1,.4-1.5,2.9,2.9,0,0,1,1.1-1.1,5.7,5.7,0,0,1,1.8-.3,5.2,5.2,0,0,1,2.1.4,3.3,3.3,0,0,1,1.2,1.4,7,7,0,0,1,.5,2.5,5.5,5.5,0,0,1-1,3.5,3.4,3.4,0,0,1-2.7,1,3,3,0,0,1-1.6-.2l-1-.7A2.4,2.4,0,0,1,289.8,45Zm4.4-3.9a1.5,1.5,0,0,0-.4-1.1,1.2,1.2,0,0,0-.8-.4.9.9,0,0,0-.8.4,2.2,2.2,0,0,0,0,2.2,1.1,1.1,0,0,0,1.4.2l.2-.2A1.2,1.2,0,0,0,294.2,41.1Z" style="fill:none;stroke:#fff;stroke-miterlimit:9.998000144958496"/><path d="M289.8,45l2.3-.3a1.6,1.6,0,0,0,.4.7l.5.2a1,1,0,0,0,.9-.6,5.8,5.8,0,0,0,.4-1.8,2.4,2.4,0,0,1-.9.6,2,2,0,0,1-1.1.2,2.7,2.7,0,0,1-1.9-.8,3.2,3.2,0,0,1-.8-2.1,2.6,2.6,0,0,1,.4-1.5,2.9,2.9,0,0,1,1.1-1.1,5.7,5.7,0,0,1,1.8-.3,5.2,5.2,0,0,1,2.1.4,3.3,3.3,0,0,1,1.2,1.4,7,7,0,0,1,.5,2.5,5.5,5.5,0,0,1-1,3.5,3.4,3.4,0,0,1-2.7,1,3,3,0,0,1-1.6-.2l-1-.7A2.4,2.4,0,0,1,289.8,45Zm4.4-3.9a1.5,1.5,0,0,0-.4-1.1,1.2,1.2,0,0,0-.8-.4.9.9,0,0,0-.8.4,2.2,2.2,0,0,0,0,2.2,1.1,1.1,0,0,0,1.4.2l.2-.2A1.2,1.2,0,0,0,294.2,41.1Z" style="fill:none;stroke:#fff;stroke-miterlimit:9.998000144958496"/><path d="M289.8,45l2.3-.3a1.6,1.6,0,0,0,.4.7l.5.2a1,1,0,0,0,.9-.6,5.8,5.8,0,0,0,.4-1.8,2.4,2.4,0,0,1-.9.6,2,2,0,0,1-1.1.2,2.7,2.7,0,0,1-1.9-.8,3.2,3.2,0,0,1-.8-2.1,2.6,2.6,0,0,1,.4-1.5,2.9,2.9,0,0,1,1.1-1.1,5.7,5.7,0,0,1,1.8-.3,5.2,5.2,0,0,1,2.1.4,3.3,3.3,0,0,1,1.2,1.4,7,7,0,0,1,.5,2.5,5.5,5.5,0,0,1-1,3.5,3.4,3.4,0,0,1-2.7,1,3,3,0,0,1-1.6-.2l-1-.7A2.4,2.4,0,0,1,289.8,45Zm4.4-3.9a1.5,1.5,0,0,0-.4-1.1,1.2,1.2,0,0,0-.8-.4.9.9,0,0,0-.8.4,2.2,2.2,0,0,0,0,2.2,1.1,1.1,0,0,0,1.4.2l.2-.2A1.2,1.2,0,0,0,294.2,41.1Z" style="fill:none;stroke:#fff;stroke-miterlimit:9.998000144958496"/><path d="M289.8,45l2.3-.3a1.6,1.6,0,0,0,.4.7l.5.2a1,1,0,0,0,.9-.6,5.8,5.8,0,0,0,.4-1.8,2.4,2.4,0,0,1-.9.6,2,2,0,0,1-1.1.2,2.7,2.7,0,0,1-1.9-.8,3.2,3.2,0,0,1-.8-2.1,2.6,2.6,0,0,1,.4-1.5,2.9,2.9,0,0,1,1.1-1.1,5.7,5.7,0,0,1,1.8-.3,5.2,5.2,0,0,1,2.1.4,3.3,3.3,0,0,1,1.2,1.4,7,7,0,0,1,.5,2.5,5.5,5.5,0,0,1-1,3.5,3.4,3.4,0,0,1-2.7,1,3,3,0,0,1-1.6-.2l-1-.7A2.4,2.4,0,0,1,289.8,45Zm4.4-3.9a1.5,1.5,0,0,0-.4-1.1,1.2,1.2,0,0,0-.8-.4.9.9,0,0,0-.8.4,2.2,2.2,0,0,0,0,2.2,1.1,1.1,0,0,0,1.4.2l.2-.2A1.2,1.2,0,0,0,294.2,41.1Z" style="fill:none;stroke:#fff;stroke-miterlimit:9.998000144958496"/><path d="M318.1,38.3V47h-2.4V41.3l-1.1.7-1.4.6v-2l1.9-.9a4.5,4.5,0,0,0,1-1.4Z" style="fill:none;stroke:#fff;stroke-miterlimit:9.998000144958496"/><path d="M320.7,42.7a5.2,5.2,0,0,1,.9-3.4,3.4,3.4,0,0,1,2.7-1l1.4.2a1.8,1.8,0,0,1,.9.6l.6.7.3.9a13.6,13.6,0,0,1,.2,2,5.7,5.7,0,0,1-.8,3.4,3.2,3.2,0,0,1-2.7,1.1,3.3,3.3,0,0,1-1.7-.4,1.8,1.8,0,0,1-1.1-1,2.9,2.9,0,0,1-.5-1.3A11,11,0,0,1,320.7,42.7Zm2.4,0a5.8,5.8,0,0,0,.3,2.3c.2.4.4.6.8.6a.7.7,0,0,0,.6-.3,1.2,1.2,0,0,0,.4-.8,9.9,9.9,0,0,0,.2-1.7,4.5,4.5,0,0,0-.3-2.3,1,1,0,0,0-1.3-.5,1.2,1.2,0,0,0-.5.5,16.4,16.4,0,0,0-.2,2.2Z" style="fill:none;stroke:#fff;stroke-miterlimit:9.998000144958496"/><path d="M318.1,38.3V47h-2.4V41.3l-1.1.7-1.4.6v-2l1.9-.9a4.5,4.5,0,0,0,1-1.4Z" style="fill:none;stroke:#fff;stroke-miterlimit:9.998000144958496"/><path d="M320.7,42.7a5.2,5.2,0,0,1,.9-3.4,3.4,3.4,0,0,1,2.7-1l1.4.2a1.8,1.8,0,0,1,.9.6l.6.7.3.9a13.6,13.6,0,0,1,.2,2,5.7,5.7,0,0,1-.8,3.4,3.2,3.2,0,0,1-2.7,1.1,3.3,3.3,0,0,1-1.7-.4,1.8,1.8,0,0,1-1.1-1,2.9,2.9,0,0,1-.5-1.3A11,11,0,0,1,320.7,42.7Zm2.4,0a5.8,5.8,0,0,0,.3,2.3c.2.4.4.6.8.6a.7.7,0,0,0,.6-.3,1.2,1.2,0,0,0,.4-.8,9.9,9.9,0,0,0,.2-1.7,4.5,4.5,0,0,0-.3-2.3,1,1,0,0,0-1.3-.5,1.2,1.2,0,0,0-.5.5,16.4,16.4,0,0,0-.2,2.2Z" style="fill:none;stroke:#fff;stroke-miterlimit:9.998000144958496"/><path d="M318.1,38.3V47h-2.4V41.3l-1.1.7-1.4.6v-2l1.9-.9a4.5,4.5,0,0,0,1-1.4Z" style="fill:none;stroke:#fff;stroke-miterlimit:9.998000144958496"/><path d="M320.7,42.7a5.2,5.2,0,0,1,.9-3.4,3.4,3.4,0,0,1,2.7-1l1.4.2a1.8,1.8,0,0,1,.9.6l.6.7.3.9a13.6,13.6,0,0,1,.2,2,5.7,5.7,0,0,1-.8,3.4,3.2,3.2,0,0,1-2.7,1.1,3.3,3.3,0,0,1-1.7-.4,1.8,1.8,0,0,1-1.1-1,2.9,2.9,0,0,1-.5-1.3A11,11,0,0,1,320.7,42.7Zm2.4,0a5.8,5.8,0,0,0,.3,2.3c.2.4.4.6.8.6a.7.7,0,0,0,.6-.3,1.2,1.2,0,0,0,.4-.8,9.9,9.9,0,0,0,.2-1.7,4.5,4.5,0,0,0-.3-2.3,1,1,0,0,0-1.3-.5,1.2,1.2,0,0,0-.5.5,16.4,16.4,0,0,0-.2,2.2Z" style="fill:none;stroke:#fff;stroke-miterlimit:9.998000144958496"/><path d="M318.1,38.3V47h-2.4V41.3l-1.1.7-1.4.6v-2l1.9-.9a4.5,4.5,0,0,0,1-1.4Z" style="fill:none;stroke:#fff;stroke-miterlimit:9.998000144958496"/><path d="M320.7,42.7a5.2,5.2,0,0,1,.9-3.4,3.4,3.4,0,0,1,2.7-1l1.4.2a1.8,1.8,0,0,1,.9.6l.6.7.3.9a13.6,13.6,0,0,1,.2,2,5.7,5.7,0,0,1-.8,3.4,3.2,3.2,0,0,1-2.7,1.1,3.3,3.3,0,0,1-1.7-.4,1.8,1.8,0,0,1-1.1-1,2.9,2.9,0,0,1-.5-1.3A11,11,0,0,1,320.7,42.7Zm2.4,0a5.8,5.8,0,0,0,.3,2.3c.2.4.4.6.8.6a.7.7,0,0,0,.6-.3,1.2,1.2,0,0,0,.4-.8,9.9,9.9,0,0,0,.2-1.7,4.5,4.5,0,0,0-.3-2.3,1,1,0,0,0-1.3-.5,1.2,1.2,0,0,0-.5.5,16.4,16.4,0,0,0-.2,2.2Z" style="fill:none;stroke:#fff;stroke-miterlimit:9.998000144958496"/><path d="M344.2,38.4v8.8h-2.4V41.5l-1.1.7-1.4.5v-2a3.4,3.4,0,0,0,1.9-.9,4.9,4.9,0,0,0,1.1-1.4Z" style="fill:none;stroke:#fff;stroke-miterlimit:9.998000144958496"/><path d="M352.2,38.4v8.8h-2.4V41.5l-1.1.7-1.4.5v-2a3.4,3.4,0,0,0,1.9-.9,4.9,4.9,0,0,0,1.1-1.4Z" style="fill:none;stroke:#fff;stroke-miterlimit:9.998000144958496"/><path d="M344.2,38.4v8.8h-2.4V41.5l-1.1.7-1.4.5v-2a3.4,3.4,0,0,0,1.9-.9,4.9,4.9,0,0,0,1.1-1.4Z" style="fill:none;stroke:#fff;stroke-miterlimit:9.998000144958496"/><path d="M352.2,38.4v8.8h-2.4V41.5l-1.1.7-1.4.5v-2a3.4,3.4,0,0,0,1.9-.9,4.9,4.9,0,0,0,1.1-1.4Z" style="fill:none;stroke:#fff;stroke-miterlimit:9.998000144958496"/><path d="M344.2,38.4v8.8h-2.4V41.5l-1.1.7-1.4.5v-2a3.4,3.4,0,0,0,1.9-.9,4.9,4.9,0,0,0,1.1-1.4Z" style="fill:none;stroke:#fff;stroke-miterlimit:9.998000144958496"/><path d="M352.2,38.4v8.8h-2.4V41.5l-1.1.7-1.4.5v-2a3.4,3.4,0,0,0,1.9-.9,4.9,4.9,0,0,0,1.1-1.4Z" style="fill:none;stroke:#fff;stroke-miterlimit:9.998000144958496"/><path d="M344.2,38.4v8.8h-2.4V41.5l-1.1.7-1.4.5v-2a3.4,3.4,0,0,0,1.9-.9,4.9,4.9,0,0,0,1.1-1.4Z" style="fill:none;stroke:#fff;stroke-miterlimit:9.998000144958496"/><path d="M352.2,38.4v8.8h-2.4V41.5l-1.1.7-1.4.5v-2a3.4,3.4,0,0,0,1.9-.9,4.9,4.9,0,0,0,1.1-1.4Z" style="fill:none;stroke:#fff;stroke-miterlimit:9.998000144958496"/><path d="M371.6,38v8.7h-2.4V41l-1.1.7-1.4.6v-2a6.6,6.6,0,0,0,1.9-.9,4.5,4.5,0,0,0,1-1.4Z" style="fill:none;stroke:#fff;stroke-miterlimit:9.998000144958496"/><path d="M381.2,46.7H374a4.6,4.6,0,0,1,.8-1.9,8.4,8.4,0,0,1,2.3-2.3l1.4-1.1a1.1,1.1,0,0,0,.3-.8.9.9,0,0,0-.3-.7,1.1,1.1,0,0,0-.8-.3.9.9,0,0,0-.7.3,3,3,0,0,0-.4,1h-2.4a4.3,4.3,0,0,1,.5-1.6,3.1,3.1,0,0,1,1.1-.9,6.2,6.2,0,0,1,3.8,0,2.4,2.4,0,0,1,1.5,2.2,2.8,2.8,0,0,1-.4,1.5,6.5,6.5,0,0,1-1.7,1.6l-1,.7-.5.5h3.7Z" style="fill:none;stroke:#fff;stroke-miterlimit:9.998000144958496"/><path d="M371.6,38v8.7h-2.4V41l-1.1.7-1.4.6v-2a6.6,6.6,0,0,0,1.9-.9,4.5,4.5,0,0,0,1-1.4Z" style="fill:none;stroke:#fff;stroke-miterlimit:9.998000144958496"/><path d="M381.2,46.7H374a4.6,4.6,0,0,1,.8-1.9,8.4,8.4,0,0,1,2.3-2.3l1.4-1.1a1.1,1.1,0,0,0,.3-.8.9.9,0,0,0-.3-.7,1.1,1.1,0,0,0-.8-.3.9.9,0,0,0-.7.3,3,3,0,0,0-.4,1h-2.4a4.3,4.3,0,0,1,.5-1.6,3.1,3.1,0,0,1,1.1-.9,6.2,6.2,0,0,1,3.8,0,2.4,2.4,0,0,1,1.5,2.2,2.8,2.8,0,0,1-.4,1.5,6.5,6.5,0,0,1-1.7,1.6l-1,.7-.5.5h3.7Z" style="fill:none;stroke:#fff;stroke-miterlimit:9.998000144958496"/><path d="M371.6,38v8.7h-2.4V41l-1.1.7-1.4.6v-2a6.6,6.6,0,0,0,1.9-.9,4.5,4.5,0,0,0,1-1.4Z" style="fill:none;stroke:#fff;stroke-miterlimit:9.998000144958496"/><path d="M381.2,46.7H374a4.6,4.6,0,0,1,.8-1.9,8.4,8.4,0,0,1,2.3-2.3l1.4-1.1a1.1,1.1,0,0,0,.3-.8.9.9,0,0,0-.3-.7,1.1,1.1,0,0,0-.8-.3.9.9,0,0,0-.7.3,3,3,0,0,0-.4,1h-2.4a4.3,4.3,0,0,1,.5-1.6,3.1,3.1,0,0,1,1.1-.9,6.2,6.2,0,0,1,3.8,0,2.4,2.4,0,0,1,1.5,2.2,2.8,2.8,0,0,1-.4,1.5,6.5,6.5,0,0,1-1.7,1.6l-1,.7-.5.5h3.7Z" style="fill:none;stroke:#fff;stroke-miterlimit:9.998000144958496"/><path d="M371.6,38v8.7h-2.4V41l-1.1.7-1.4.6v-2a6.6,6.6,0,0,0,1.9-.9,4.5,4.5,0,0,0,1-1.4Z" style="fill:none;stroke:#fff;stroke-miterlimit:9.998000144958496"/><path d="M381.2,46.7H374a4.6,4.6,0,0,1,.8-1.9,8.4,8.4,0,0,1,2.3-2.3l1.4-1.1a1.1,1.1,0,0,0,.3-.8.9.9,0,0,0-.3-.7,1.1,1.1,0,0,0-.8-.3.9.9,0,0,0-.7.3,3,3,0,0,0-.4,1h-2.4a4.3,4.3,0,0,1,.5-1.6,3.1,3.1,0,0,1,1.1-.9,6.2,6.2,0,0,1,3.8,0,2.4,2.4,0,0,1,1.5,2.2,2.8,2.8,0,0,1-.4,1.5,6.5,6.5,0,0,1-1.7,1.6l-1,.7-.5.5h3.7Z" style="fill:none;stroke:#fff;stroke-miterlimit:9.998000144958496"/><path d="M398.1,38.4v8.8h-2.4V41.5l-1.1.7-1.4.5v-2a3.4,3.4,0,0,0,1.9-.9,4.9,4.9,0,0,0,1.1-1.4Z" style="fill:none;stroke:#fff;stroke-miterlimit:9.998000144958496"/><path d="M403.1,41.1l-2.3-.4a2.8,2.8,0,0,1,1.1-1.7,4,4,0,0,1,2.2-.6,3.7,3.7,0,0,1,2.5.7,1.8,1.8,0,0,1,.7,1.5,2,2,0,0,1-.3,1.1,2.2,2.2,0,0,1-.9.7l.8.3a1.3,1.3,0,0,1,.6.7,2,2,0,0,1,.3,1.1,3.3,3.3,0,0,1-.4,1.4,3.2,3.2,0,0,1-1.2,1.1,6.3,6.3,0,0,1-1.9.3,5.7,5.7,0,0,1-1.8-.3,2,2,0,0,1-1.2-.8,3.1,3.1,0,0,1-.6-1.3l2.4-.3a1.8,1.8,0,0,0,.4,1,1,1,0,0,0,1.5-.1,1.1,1.1,0,0,0,.4-.9,1.4,1.4,0,0,0-.3-.9,1.1,1.1,0,0,0-.9-.4l-.7.2V41.8h.3a1.1,1.1,0,0,0,.8-.3.9.9,0,0,0,.3-.7,1.1,1.1,0,0,0-.9-.9.9.9,0,0,0-.7.3A1.4,1.4,0,0,0,403.1,41.1Z" style="fill:none;stroke:#fff;stroke-miterlimit:9.998000144958496"/><path d="M398.1,38.4v8.8h-2.4V41.5l-1.1.7-1.4.5v-2a3.4,3.4,0,0,0,1.9-.9,4.9,4.9,0,0,0,1.1-1.4Z" style="fill:none;stroke:#fff;stroke-miterlimit:9.998000144958496"/><path d="M403.1,41.1l-2.3-.4a2.8,2.8,0,0,1,1.1-1.7,4,4,0,0,1,2.2-.6,3.7,3.7,0,0,1,2.5.7,1.8,1.8,0,0,1,.7,1.5,2,2,0,0,1-.3,1.1,2.2,2.2,0,0,1-.9.7l.8.3a1.3,1.3,0,0,1,.6.7,2,2,0,0,1,.3,1.1,3.3,3.3,0,0,1-.4,1.4,3.2,3.2,0,0,1-1.2,1.1,6.3,6.3,0,0,1-1.9.3,5.7,5.7,0,0,1-1.8-.3,2,2,0,0,1-1.2-.8,3.1,3.1,0,0,1-.6-1.3l2.4-.3a1.8,1.8,0,0,0,.4,1,1,1,0,0,0,1.5-.1,1.1,1.1,0,0,0,.4-.9,1.4,1.4,0,0,0-.3-.9,1.1,1.1,0,0,0-.9-.4l-.7.2V41.8h.3a1.1,1.1,0,0,0,.8-.3.9.9,0,0,0,.3-.7,1.1,1.1,0,0,0-.9-.9.9.9,0,0,0-.7.3A1.4,1.4,0,0,0,403.1,41.1Z" style="fill:none;stroke:#fff;stroke-miterlimit:9.998000144958496"/><path d="M398.1,38.4v8.8h-2.4V41.5l-1.1.7-1.4.5v-2a3.4,3.4,0,0,0,1.9-.9,4.9,4.9,0,0,0,1.1-1.4Z" style="fill:none;stroke:#fff;stroke-miterlimit:9.998000144958496"/><path d="M403.1,41.1l-2.3-.4a2.8,2.8,0,0,1,1.1-1.7,4,4,0,0,1,2.2-.6,3.7,3.7,0,0,1,2.5.7,1.8,1.8,0,0,1,.7,1.5,2,2,0,0,1-.3,1.1,2.2,2.2,0,0,1-.9.7l.8.3a1.3,1.3,0,0,1,.6.7,2,2,0,0,1,.3,1.1,3.3,3.3,0,0,1-.4,1.4,3.2,3.2,0,0,1-1.2,1.1,6.3,6.3,0,0,1-1.9.3,5.7,5.7,0,0,1-1.8-.3,2,2,0,0,1-1.2-.8,3.1,3.1,0,0,1-.6-1.3l2.4-.3a1.8,1.8,0,0,0,.4,1,1,1,0,0,0,1.5-.1,1.1,1.1,0,0,0,.4-.9,1.4,1.4,0,0,0-.3-.9,1.1,1.1,0,0,0-.9-.4l-.7.2V41.8h.3a1.1,1.1,0,0,0,.8-.3.9.9,0,0,0,.3-.7,1.1,1.1,0,0,0-.9-.9.9.9,0,0,0-.7.3A1.4,1.4,0,0,0,403.1,41.1Z" style="fill:none;stroke:#fff;stroke-miterlimit:9.998000144958496"/><path d="M398.1,38.4v8.8h-2.4V41.5l-1.1.7-1.4.5v-2a3.4,3.4,0,0,0,1.9-.9,4.9,4.9,0,0,0,1.1-1.4Z" style="fill:none;stroke:#fff;stroke-miterlimit:9.998000144958496"/><path d="M403.1,41.1l-2.3-.4a2.8,2.8,0,0,1,1.1-1.7,4,4,0,0,1,2.2-.6,3.7,3.7,0,0,1,2.5.7,1.8,1.8,0,0,1,.7,1.5,2,2,0,0,1-.3,1.1,2.2,2.2,0,0,1-.9.7l.8.3a1.3,1.3,0,0,1,.6.7,2,2,0,0,1,.3,1.1,3.3,3.3,0,0,1-.4,1.4,3.2,3.2,0,0,1-1.2,1.1,6.3,6.3,0,0,1-1.9.3,5.7,5.7,0,0,1-1.8-.3,2,2,0,0,1-1.2-.8,3.1,3.1,0,0,1-.6-1.3l2.4-.3a1.8,1.8,0,0,0,.4,1,1,1,0,0,0,1.5-.1,1.1,1.1,0,0,0,.4-.9,1.4,1.4,0,0,0-.3-.9,1.1,1.1,0,0,0-.9-.4l-.7.2V41.8h.3a1.1,1.1,0,0,0,.8-.3.9.9,0,0,0,.3-.7,1.1,1.1,0,0,0-.9-.9.9.9,0,0,0-.7.3A1.4,1.4,0,0,0,403.1,41.1Z" style="fill:none;stroke:#fff;stroke-miterlimit:9.998000144958496"/><path d="M424.6,38v8.7h-2.4V41l-1.2.7-1.3.6v-2a6.6,6.6,0,0,0,1.9-.9,4.5,4.5,0,0,0,1-1.4Z" style="fill:none;stroke:#fff;stroke-miterlimit:9.998000144958496"/><path d="M431.3,45.1h-4.4V43.2l4.4-5.2h2.1v5.3h1v1.8h-1v1.6h-2.1Zm0-1.8V40.6L429,43.3Z" style="fill:none;stroke:#fff;stroke-miterlimit:9.998000144958496"/><path d="M424.6,38v8.7h-2.4V41l-1.2.7-1.3.6v-2a6.6,6.6,0,0,0,1.9-.9,4.5,4.5,0,0,0,1-1.4Z" style="fill:none;stroke:#fff;stroke-miterlimit:9.998000144958496"/><path d="M431.3,45.1h-4.4V43.2l4.4-5.2h2.1v5.3h1v1.8h-1v1.6h-2.1Zm0-1.8V40.6L429,43.3Z" style="fill:none;stroke:#fff;stroke-miterlimit:9.998000144958496"/><path d="M424.6,38v8.7h-2.4V41l-1.2.7-1.3.6v-2a6.6,6.6,0,0,0,1.9-.9,4.5,4.5,0,0,0,1-1.4Z" style="fill:none;stroke:#fff;stroke-miterlimit:9.998000144958496"/><path d="M431.3,45.1h-4.4V43.2l4.4-5.2h2.1v5.3h1v1.8h-1v1.6h-2.1Zm0-1.8V40.6L429,43.3Z" style="fill:none;stroke:#fff;stroke-miterlimit:9.998000144958496"/><path d="M424.6,38v8.7h-2.4V41l-1.2.7-1.3.6v-2a6.6,6.6,0,0,0,1.9-.9,4.5,4.5,0,0,0,1-1.4Z" style="fill:none;stroke:#fff;stroke-miterlimit:9.998000144958496"/><path d="M431.3,45.1h-4.4V43.2l4.4-5.2h2.1v5.3h1v1.8h-1v1.6h-2.1Zm0-1.8V40.6L429,43.3Z" style="fill:none;stroke:#fff;stroke-miterlimit:9.998000144958496"/><path d="M453.5,38v8.7h-2.4V41l-1.2.7-1.3.6v-2a6.6,6.6,0,0,0,1.9-.9,4.5,4.5,0,0,0,1-1.4Z" style="fill:none;stroke:#fff;stroke-miterlimit:9.998000144958496"/><path d="M457,38.2h5.7v1.9h-3.8l-.2,1.2.8-.2h.7a2.4,2.4,0,0,1,2.1.8,2.1,2.1,0,0,1,.8,1.9,2.9,2.9,0,0,1-.4,1.6,3.4,3.4,0,0,1-1.2,1.2,4.1,4.1,0,0,1-1.9.4l-1.5-.2-1-.4-.7-.8a3,3,0,0,1-.4-1l2.4-.2a2,2,0,0,0,.4.8,1.2,1.2,0,0,0,1.6,0,2.7,2.7,0,0,0,.3-1.2,2,2,0,0,0-.3-1.1,1.4,1.4,0,0,0-.9-.3h-.6l-.6.5-2-.3Z" style="fill:none;stroke:#fff;stroke-miterlimit:9.998000144958496"/><path d="M453.5,38v8.7h-2.4V41l-1.2.7-1.3.6v-2a6.6,6.6,0,0,0,1.9-.9,4.5,4.5,0,0,0,1-1.4Z" style="fill:none;stroke:#fff;stroke-miterlimit:9.998000144958496"/><path d="M457,38.2h5.7v1.9h-3.8l-.2,1.2.8-.2h.7a2.4,2.4,0,0,1,2.1.8,2.1,2.1,0,0,1,.8,1.9,2.9,2.9,0,0,1-.4,1.6,3.4,3.4,0,0,1-1.2,1.2,4.1,4.1,0,0,1-1.9.4l-1.5-.2-1-.4-.7-.8a3,3,0,0,1-.4-1l2.4-.2a2,2,0,0,0,.4.8,1.2,1.2,0,0,0,1.6,0,2.7,2.7,0,0,0,.3-1.2,2,2,0,0,0-.3-1.1,1.4,1.4,0,0,0-.9-.3h-.6l-.6.5-2-.3Z" style="fill:none;stroke:#fff;stroke-miterlimit:9.998000144958496"/><path d="M453.5,38v8.7h-2.4V41l-1.2.7-1.3.6v-2a6.6,6.6,0,0,0,1.9-.9,4.5,4.5,0,0,0,1-1.4Z" style="fill:none;stroke:#fff;stroke-miterlimit:9.998000144958496"/><path d="M457,38.2h5.7v1.9h-3.8l-.2,1.2.8-.2h.7a2.4,2.4,0,0,1,2.1.8,2.1,2.1,0,0,1,.8,1.9,2.9,2.9,0,0,1-.4,1.6,3.4,3.4,0,0,1-1.2,1.2,4.1,4.1,0,0,1-1.9.4l-1.5-.2-1-.4-.7-.8a3,3,0,0,1-.4-1l2.4-.2a2,2,0,0,0,.4.8,1.2,1.2,0,0,0,1.6,0,2.7,2.7,0,0,0,.3-1.2,2,2,0,0,0-.3-1.1,1.4,1.4,0,0,0-.9-.3h-.6l-.6.5-2-.3Z" style="fill:none;stroke:#fff;stroke-miterlimit:9.998000144958496"/><path d="M453.5,38v8.7h-2.4V41l-1.2.7-1.3.6v-2a6.6,6.6,0,0,0,1.9-.9,4.5,4.5,0,0,0,1-1.4Z" style="fill:none;stroke:#fff;stroke-miterlimit:9.998000144958496"/><path d="M457,38.2h5.7v1.9h-3.8l-.2,1.2.8-.2h.7a2.4,2.4,0,0,1,2.1.8,2.1,2.1,0,0,1,.8,1.9,2.9,2.9,0,0,1-.4,1.6,3.4,3.4,0,0,1-1.2,1.2,4.1,4.1,0,0,1-1.9.4l-1.5-.2-1-.4-.7-.8a3,3,0,0,1-.4-1l2.4-.2a2,2,0,0,0,.4.8,1.2,1.2,0,0,0,1.6,0,2.7,2.7,0,0,0,.3-1.2,2,2,0,0,0-.3-1.1,1.4,1.4,0,0,0-.9-.3h-.6l-.6.5-2-.3Z" style="fill:none;stroke:#fff;stroke-miterlimit:9.998000144958496"/><path d="M478.6,38v8.7h-2.4V41l-1.1.7-1.4.6v-2a6.6,6.6,0,0,0,1.9-.9,4.5,4.5,0,0,0,1-1.4Z" style="fill:none;stroke:#fff;stroke-miterlimit:9.998000144958496"/><path d="M488.1,40.1l-2.4.3a.9.9,0,0,0-.3-.7c-.1-.2-.3-.2-.5-.2a1,1,0,0,0-.9.6,3.9,3.9,0,0,0-.4,1.8l.9-.7,1.1-.2a2.7,2.7,0,0,1,1.9.8,3.2,3.2,0,0,1,.8,2.1,2.9,2.9,0,0,1-.4,1.6,2.7,2.7,0,0,1-1.1,1,3.9,3.9,0,0,1-1.8.4,5.2,5.2,0,0,1-2.1-.4,3.5,3.5,0,0,1-1.2-1.5,5.3,5.3,0,0,1-.5-2.5,4.7,4.7,0,0,1,1-3.4,3.2,3.2,0,0,1,2.7-1.1l1.6.2,1,.7A2.7,2.7,0,0,1,488.1,40.1Zm-4.4,3.8a1.5,1.5,0,0,0,.4,1.1,1.1,1.1,0,0,0,1.4.2l.2-.2a1.7,1.7,0,0,0,.3-1,2,2,0,0,0-.3-1.1,1.1,1.1,0,0,0-1.4-.2l-.2.2a1.3,1.3,0,0,0-.4,1Z" style="fill:none;stroke:#fff;stroke-miterlimit:9.998000144958496"/><path d="M478.6,38v8.7h-2.4V41l-1.1.7-1.4.6v-2a6.6,6.6,0,0,0,1.9-.9,4.5,4.5,0,0,0,1-1.4Z" style="fill:none;stroke:#fff;stroke-miterlimit:9.998000144958496"/><path d="M488.1,40.1l-2.4.3a.9.9,0,0,0-.3-.7c-.1-.2-.3-.2-.5-.2a1,1,0,0,0-.9.6,3.9,3.9,0,0,0-.4,1.8l.9-.7,1.1-.2a2.7,2.7,0,0,1,1.9.8,3.2,3.2,0,0,1,.8,2.1,2.9,2.9,0,0,1-.4,1.6,2.7,2.7,0,0,1-1.1,1,3.9,3.9,0,0,1-1.8.4,5.2,5.2,0,0,1-2.1-.4,3.5,3.5,0,0,1-1.2-1.5,5.3,5.3,0,0,1-.5-2.5,4.7,4.7,0,0,1,1-3.4,3.2,3.2,0,0,1,2.7-1.1l1.6.2,1,.7A2.7,2.7,0,0,1,488.1,40.1Zm-4.4,3.8a1.5,1.5,0,0,0,.4,1.1,1.1,1.1,0,0,0,1.4.2l.2-.2a1.7,1.7,0,0,0,.3-1,2,2,0,0,0-.3-1.1,1.1,1.1,0,0,0-1.4-.2l-.2.2a1.3,1.3,0,0,0-.4,1Z" style="fill:none;stroke:#fff;stroke-miterlimit:9.998000144958496"/><path d="M478.6,38v8.7h-2.4V41l-1.1.7-1.4.6v-2a6.6,6.6,0,0,0,1.9-.9,4.5,4.5,0,0,0,1-1.4Z" style="fill:none;stroke:#fff;stroke-miterlimit:9.998000144958496"/><path d="M488.1,40.1l-2.4.3a.9.9,0,0,0-.3-.7c-.1-.2-.3-.2-.5-.2a1,1,0,0,0-.9.6,3.9,3.9,0,0,0-.4,1.8l.9-.7,1.1-.2a2.7,2.7,0,0,1,1.9.8,3.2,3.2,0,0,1,.8,2.1,2.9,2.9,0,0,1-.4,1.6,2.7,2.7,0,0,1-1.1,1,3.9,3.9,0,0,1-1.8.4,5.2,5.2,0,0,1-2.1-.4,3.5,3.5,0,0,1-1.2-1.5,5.3,5.3,0,0,1-.5-2.5,4.7,4.7,0,0,1,1-3.4,3.2,3.2,0,0,1,2.7-1.1l1.6.2,1,.7A2.7,2.7,0,0,1,488.1,40.1Zm-4.4,3.8a1.5,1.5,0,0,0,.4,1.1,1.1,1.1,0,0,0,1.4.2l.2-.2a1.7,1.7,0,0,0,.3-1,2,2,0,0,0-.3-1.1,1.1,1.1,0,0,0-1.4-.2l-.2.2a1.3,1.3,0,0,0-.4,1Z" style="fill:none;stroke:#fff;stroke-miterlimit:9.998000144958496"/><path d="M478.6,38v8.7h-2.4V41l-1.1.7-1.4.6v-2a6.6,6.6,0,0,0,1.9-.9,4.5,4.5,0,0,0,1-1.4Z" style="fill:none;stroke:#fff;stroke-miterlimit:9.998000144958496"/><path d="M488.1,40.1l-2.4.3a.9.9,0,0,0-.3-.7c-.1-.2-.3-.2-.5-.2a1,1,0,0,0-.9.6,3.9,3.9,0,0,0-.4,1.8l.9-.7,1.1-.2a2.7,2.7,0,0,1,1.9.8,3.2,3.2,0,0,1,.8,2.1,2.9,2.9,0,0,1-.4,1.6,2.7,2.7,0,0,1-1.1,1,3.9,3.9,0,0,1-1.8.4,5.2,5.2,0,0,1-2.1-.4,3.5,3.5,0,0,1-1.2-1.5,5.3,5.3,0,0,1-.5-2.5,4.7,4.7,0,0,1,1-3.4,3.2,3.2,0,0,1,2.7-1.1l1.6.2,1,.7A2.7,2.7,0,0,1,488.1,40.1Zm-4.4,3.8a1.5,1.5,0,0,0,.4,1.1,1.1,1.1,0,0,0,1.4.2l.2-.2a1.7,1.7,0,0,0,.3-1,2,2,0,0,0-.3-1.1,1.1,1.1,0,0,0-1.4-.2l-.2.2a1.3,1.3,0,0,0-.4,1Z" style="fill:none;stroke:#fff;stroke-miterlimit:9.998000144958496"/><path d="M505.8,38.6v8.7h-2.5V41.6a4.1,4.1,0,0,1-1.1.7l-1.4.5V40.9a4.4,4.4,0,0,0,1.9-1,3.5,3.5,0,0,0,1.1-1.3Z" style="fill:none;stroke:#fff;stroke-miterlimit:9.998000144958496"/><path d="M508.4,38.7h7v1.6l-1.6,1.8a20.3,20.3,0,0,0-1.1,2.6,23.8,23.8,0,0,0-.5,2.6h-2.4a10.6,10.6,0,0,1,.9-3.5,14.4,14.4,0,0,1,1.9-3.1h-4.2Z" style="fill:none;stroke:#fff;stroke-miterlimit:9.998000144958496"/><path d="M505.8,38.6v8.7h-2.5V41.6a4.1,4.1,0,0,1-1.1.7l-1.4.5V40.9a4.4,4.4,0,0,0,1.9-1,3.5,3.5,0,0,0,1.1-1.3Z" style="fill:none;stroke:#fff;stroke-miterlimit:9.998000144958496"/><path d="M508.4,38.7h7v1.6l-1.6,1.8a20.3,20.3,0,0,0-1.1,2.6,23.8,23.8,0,0,0-.5,2.6h-2.4a10.6,10.6,0,0,1,.9-3.5,14.4,14.4,0,0,1,1.9-3.1h-4.2Z" style="fill:none;stroke:#fff;stroke-miterlimit:9.998000144958496"/><path d="M505.8,38.6v8.7h-2.5V41.6a4.1,4.1,0,0,1-1.1.7l-1.4.5V40.9a4.4,4.4,0,0,0,1.9-1,3.5,3.5,0,0,0,1.1-1.3Z" style="fill:none;stroke:#fff;stroke-miterlimit:9.998000144958496"/><path d="M508.4,38.7h7v1.6l-1.6,1.8a20.3,20.3,0,0,0-1.1,2.6,23.8,23.8,0,0,0-.5,2.6h-2.4a10.6,10.6,0,0,1,.9-3.5,14.4,14.4,0,0,1,1.9-3.1h-4.2Z" style="fill:none;stroke:#fff;stroke-miterlimit:9.998000144958496"/><path d="M505.8,38.6v8.7h-2.5V41.6a4.1,4.1,0,0,1-1.1.7l-1.4.5V40.9a4.4,4.4,0,0,0,1.9-1,3.5,3.5,0,0,0,1.1-1.3Z" style="fill:none;stroke:#fff;stroke-miterlimit:9.998000144958496"/><path d="M508.4,38.7h7v1.6l-1.6,1.8a20.3,20.3,0,0,0-1.1,2.6,23.8,23.8,0,0,0-.5,2.6h-2.4a10.6,10.6,0,0,1,.9-3.5,14.4,14.4,0,0,1,1.9-3.1h-4.2Z" style="fill:none;stroke:#fff;stroke-miterlimit:9.998000144958496"/><path d="M532.7,38v8.7h-2.4V41l-1.1.7-1.4.6v-2a6.6,6.6,0,0,0,1.9-.9,4.5,4.5,0,0,0,1-1.4Z" style="fill:none;stroke:#fff;stroke-miterlimit:9.998000144958496"/><path d="M536.7,42.1l-.8-.6a2.7,2.7,0,0,1-.3-1.2,2.2,2.2,0,0,1,1-1.8,3.8,3.8,0,0,1,2.1-.5,3.7,3.7,0,0,1,2.5.7,2.1,2.1,0,0,1,.8,1.6,2,2,0,0,1-.3,1.1c-.1.3-.4.5-.8.7s.9.5,1.1.9a2.6,2.6,0,0,1,0,2.4,2.2,2.2,0,0,1-.7.9,1.5,1.5,0,0,1-1.1.4l-1.3.2-2.1-.3a1.8,1.8,0,0,1-1.1-1,2.3,2.3,0,0,1-.4-1.4,2,2,0,0,1,.4-1.3A3.9,3.9,0,0,1,536.7,42.1Zm1,2a1.7,1.7,0,0,0,.3,1,1.2,1.2,0,0,0,1.6,0,1.7,1.7,0,0,0,.3-1,1.6,1.6,0,0,0-.3-.9,1.1,1.1,0,0,0-1.9.9Zm.1-3.7a1.1,1.1,0,0,0,.3.8l.7.2.7-.2a.9.9,0,0,0,.3-.7,1.1,1.1,0,0,0-.3-.8l-.7-.2-.7.2a.9.9,0,0,0-.3.7Z" style="fill:none;stroke:#fff;stroke-miterlimit:9.998000144958496"/><path d="M532.7,38v8.7h-2.4V41l-1.1.7-1.4.6v-2a6.6,6.6,0,0,0,1.9-.9,4.5,4.5,0,0,0,1-1.4Z" style="fill:none;stroke:#fff;stroke-miterlimit:9.998000144958496"/><path d="M536.7,42.1l-.8-.6a2.7,2.7,0,0,1-.3-1.2,2.2,2.2,0,0,1,1-1.8,3.8,3.8,0,0,1,2.1-.5,3.7,3.7,0,0,1,2.5.7,2.1,2.1,0,0,1,.8,1.6,2,2,0,0,1-.3,1.1c-.1.3-.4.5-.8.7s.9.5,1.1.9a2.6,2.6,0,0,1,0,2.4,2.2,2.2,0,0,1-.7.9,1.5,1.5,0,0,1-1.1.4l-1.3.2-2.1-.3a1.8,1.8,0,0,1-1.1-1,2.3,2.3,0,0,1-.4-1.4,2,2,0,0,1,.4-1.3A3.9,3.9,0,0,1,536.7,42.1Zm1,2a1.7,1.7,0,0,0,.3,1,1.2,1.2,0,0,0,1.6,0,1.7,1.7,0,0,0,.3-1,1.6,1.6,0,0,0-.3-.9,1.1,1.1,0,0,0-1.9.9Zm.1-3.7a1.1,1.1,0,0,0,.3.8l.7.2.7-.2a.9.9,0,0,0,.3-.7,1.1,1.1,0,0,0-.3-.8l-.7-.2-.7.2a.9.9,0,0,0-.3.7Z" style="fill:none;stroke:#fff;stroke-miterlimit:9.998000144958496"/><path d="M532.7,38v8.7h-2.4V41l-1.1.7-1.4.6v-2a6.6,6.6,0,0,0,1.9-.9,4.5,4.5,0,0,0,1-1.4Z" style="fill:none;stroke:#fff;stroke-miterlimit:9.998000144958496"/><path d="M536.7,42.1l-.8-.6a2.7,2.7,0,0,1-.3-1.2,2.2,2.2,0,0,1,1-1.8,3.8,3.8,0,0,1,2.1-.5,3.7,3.7,0,0,1,2.5.7,2.1,2.1,0,0,1,.8,1.6,2,2,0,0,1-.3,1.1c-.1.3-.4.5-.8.7s.9.5,1.1.9a2.6,2.6,0,0,1,0,2.4,2.2,2.2,0,0,1-.7.9,1.5,1.5,0,0,1-1.1.4l-1.3.2-2.1-.3a1.8,1.8,0,0,1-1.1-1,2.3,2.3,0,0,1-.4-1.4,2,2,0,0,1,.4-1.3A3.9,3.9,0,0,1,536.7,42.1Zm1,2a1.7,1.7,0,0,0,.3,1,1.2,1.2,0,0,0,1.6,0,1.7,1.7,0,0,0,.3-1,1.6,1.6,0,0,0-.3-.9,1.1,1.1,0,0,0-1.9.9Zm.1-3.7a1.1,1.1,0,0,0,.3.8l.7.2.7-.2a.9.9,0,0,0,.3-.7,1.1,1.1,0,0,0-.3-.8l-.7-.2-.7.2a.9.9,0,0,0-.3.7Z" style="fill:none;stroke:#fff;stroke-miterlimit:9.998000144958496"/><path d="M532.7,38v8.7h-2.4V41l-1.1.7-1.4.6v-2a6.6,6.6,0,0,0,1.9-.9,4.5,4.5,0,0,0,1-1.4Z" style="fill:none;stroke:#fff;stroke-miterlimit:9.998000144958496"/><path d="M536.7,42.1l-.8-.6a2.7,2.7,0,0,1-.3-1.2,2.2,2.2,0,0,1,1-1.8,3.8,3.8,0,0,1,2.1-.5,3.7,3.7,0,0,1,2.5.7,2.1,2.1,0,0,1,.8,1.6,2,2,0,0,1-.3,1.1c-.1.3-.4.5-.8.7s.9.5,1.1.9a2.6,2.6,0,0,1,0,2.4,2.2,2.2,0,0,1-.7.9,1.5,1.5,0,0,1-1.1.4l-1.3.2-2.1-.3a1.8,1.8,0,0,1-1.1-1,2.3,2.3,0,0,1-.4-1.4,2,2,0,0,1,.4-1.3A3.9,3.9,0,0,1,536.7,42.1Zm1,2a1.7,1.7,0,0,0,.3,1,1.2,1.2,0,0,0,1.6,0,1.7,1.7,0,0,0,.3-1,1.6,1.6,0,0,0-.3-.9,1.1,1.1,0,0,0-1.9.9Zm.1-3.7a1.1,1.1,0,0,0,.3.8l.7.2.7-.2a.9.9,0,0,0,.3-.7,1.1,1.1,0,0,0-.3-.8l-.7-.2-.7.2a.9.9,0,0,0-.3.7Z" style="fill:none;stroke:#fff;stroke-miterlimit:9.998000144958496"/><path d="M43.3,534.4v8.7H40.9v-5.7l-1.1.7-1.4.5v-1.9a5,5,0,0,0,1.9-1,3.5,3.5,0,0,0,1.1-1.3Z" style="fill:none;stroke:#fff;stroke-miterlimit:9.998000144958496"/><path d="M43.3,534.4v8.7H40.9v-5.7l-1.1.7-1.4.5v-1.9a5,5,0,0,0,1.9-1,3.5,3.5,0,0,0,1.1-1.3Z" style="fill:none;stroke:#fff;stroke-miterlimit:9.998000144958496"/><path d="M44.9,516.2H37.8a3.7,3.7,0,0,1,.7-2,12,12,0,0,1,2.3-2.2l1.4-1.1a1.1,1.1,0,0,0,.3-.8.9.9,0,0,0-1-1,1.1,1.1,0,0,0-.8.3,3,3,0,0,0-.4,1H37.9a4.3,4.3,0,0,1,.5-1.6,3.1,3.1,0,0,1,1.1-.9,6.3,6.3,0,0,1,1.9-.3,6.4,6.4,0,0,1,2,.3,3.1,3.1,0,0,1,1.1.9,2.8,2.8,0,0,1,.4,1.3,2.7,2.7,0,0,1-.5,1.5,6.5,6.5,0,0,1-1.7,1.6,3.1,3.1,0,0,0-.9.7l-.6.5h3.7Z" style="fill:none;stroke:#fff;stroke-miterlimit:9.998000144958496"/><path d="M44.9,516.2H37.8a3.7,3.7,0,0,1,.7-2,12,12,0,0,1,2.3-2.2l1.4-1.1a1.1,1.1,0,0,0,.3-.8.9.9,0,0,0-1-1,1.1,1.1,0,0,0-.8.3,3,3,0,0,0-.4,1H37.9a4.3,4.3,0,0,1,.5-1.6,3.1,3.1,0,0,1,1.1-.9,6.3,6.3,0,0,1,1.9-.3,6.4,6.4,0,0,1,2,.3,3.1,3.1,0,0,1,1.1.9,2.8,2.8,0,0,1,.4,1.3,2.7,2.7,0,0,1-.5,1.5,6.5,6.5,0,0,1-1.7,1.6,3.1,3.1,0,0,0-.9.7l-.6.5h3.7Z" style="fill:none;stroke:#fff;stroke-miterlimit:9.998000144958496"/><path d="M40.2,483.3l-2.2-.4a2.5,2.5,0,0,1,1.1-1.7,3.4,3.4,0,0,1,2.2-.5,3.6,3.6,0,0,1,2.5.6,2,2,0,0,1,.7,1.6,1.7,1.7,0,0,1-.3,1l-.9.8.8.2.6.7a2,2,0,0,1,.3,1.1,3.3,3.3,0,0,1-.4,1.4,3.2,3.2,0,0,1-1.2,1.1,6.3,6.3,0,0,1-1.9.3l-1.9-.2-1.1-.8a3.5,3.5,0,0,1-.6-1.4l2.3-.3a1.9,1.9,0,0,0,.5,1,1,1,0,0,0,1.5-.1,1.2,1.2,0,0,0,.1-1.7h-.1a.9.9,0,0,0-.8-.4l-.8.2.2-1.7h.3a1.1,1.1,0,0,0,.8-.3.9.9,0,0,0,.3-.7,1.1,1.1,0,0,0-.9-.9.9.9,0,0,0-.7.3A1.8,1.8,0,0,0,40.2,483.3Z" style="fill:none;stroke:#fff;stroke-miterlimit:9.998000144958496"/><path d="M40.2,483.3l-2.2-.4a2.5,2.5,0,0,1,1.1-1.7,3.4,3.4,0,0,1,2.2-.5,3.6,3.6,0,0,1,2.5.6,2,2,0,0,1,.7,1.6,1.7,1.7,0,0,1-.3,1l-.9.8.8.2.6.7a2,2,0,0,1,.3,1.1,3.3,3.3,0,0,1-.4,1.4,3.2,3.2,0,0,1-1.2,1.1,6.3,6.3,0,0,1-1.9.3l-1.9-.2-1.1-.8a3.5,3.5,0,0,1-.6-1.4l2.3-.3a1.9,1.9,0,0,0,.5,1,1,1,0,0,0,1.5-.1,1.2,1.2,0,0,0,.1-1.7h-.1a.9.9,0,0,0-.8-.4l-.8.2.2-1.7h.3a1.1,1.1,0,0,0,.8-.3.9.9,0,0,0,.3-.7,1.1,1.1,0,0,0-.9-.9.9.9,0,0,0-.7.3A1.8,1.8,0,0,0,40.2,483.3Z" style="fill:none;stroke:#fff;stroke-miterlimit:9.998000144958496"/><path d="M42,460.9H37.7V459l4.3-5.2h2.1v5.3h1.1v1.8H44.1v1.6H42Zm0-1.8v-2.7l-2.3,2.7Z" style="fill:none;stroke:#fff;stroke-miterlimit:9.998000144958496"/><path d="M42,460.9H37.7V459l4.3-5.2h2.1v5.3h1.1v1.8H44.1v1.6H42Zm0-1.8v-2.7l-2.3,2.7Z" style="fill:none;stroke:#fff;stroke-miterlimit:9.998000144958496"/><path d="M38.9,427.1h5.7V429H40.7l-.2,1.3.8-.3h.8a3.2,3.2,0,0,1,2.1.8,3,3,0,0,1,.8,2,4.2,4.2,0,0,1-.4,1.6,2.5,2.5,0,0,1-1.2,1.1,4.5,4.5,0,0,1-2,.4H40l-1-.5a2.3,2.3,0,0,1-.7-.7l-.5-1,2.4-.3a1.1,1.1,0,0,0,.5.9,1,1,0,0,0,1.5-.1,1.5,1.5,0,0,0,.4-1.1,1.7,1.7,0,0,0-.4-1.2,1.1,1.1,0,0,0-.8-.3.8.8,0,0,0-.7.2c-.2,0-.3.2-.5.4l-2.1-.3Z" style="fill:none;stroke:#fff;stroke-miterlimit:9.998000144958496"/><path d="M38.9,427.1h5.7V429H40.7l-.2,1.3.8-.3h.8a3.2,3.2,0,0,1,2.1.8,3,3,0,0,1,.8,2,4.2,4.2,0,0,1-.4,1.6,2.5,2.5,0,0,1-1.2,1.1,4.5,4.5,0,0,1-2,.4H40l-1-.5a2.3,2.3,0,0,1-.7-.7l-.5-1,2.4-.3a1.1,1.1,0,0,0,.5.9,1,1,0,0,0,1.5-.1,1.5,1.5,0,0,0,.4-1.1,1.7,1.7,0,0,0-.4-1.2,1.1,1.1,0,0,0-.8-.3.8.8,0,0,0-.7.2c-.2,0-.3.2-.5.4l-2.1-.3Z" style="fill:none;stroke:#fff;stroke-miterlimit:9.998000144958496"/><path d="M44.8,402.2l-2.3.3a.9.9,0,0,0-.3-.7.7.7,0,0,0-.6-.2,1.1,1.1,0,0,0-.9.5,5.7,5.7,0,0,0-.3,1.8c.3-.2.5-.5.8-.6l1.1-.2a2.7,2.7,0,0,1,1.9.8A3.2,3.2,0,0,1,45,406a2.6,2.6,0,0,1-.4,1.5,2,2,0,0,1-1.1,1.1,3.9,3.9,0,0,1-1.8.4,4.6,4.6,0,0,1-2-.5,2.5,2.5,0,0,1-1.3-1.4,7,7,0,0,1-.5-2.5,5.2,5.2,0,0,1,1-3.4,3.9,3.9,0,0,1,2.7-1.1l1.7.2a2.2,2.2,0,0,1,.9.7A3.4,3.4,0,0,1,44.8,402.2ZM40.4,406a1.5,1.5,0,0,0,.4,1.1,1.1,1.1,0,0,0,.9.4.8.8,0,0,0,.7-.4,1.3,1.3,0,0,0,.4-1,1.2,1.2,0,0,0-.4-1.1.9.9,0,0,0-.8-.4,1.1,1.1,0,0,0-.8.3,1.5,1.5,0,0,0-.4,1.1Z" style="fill:none;stroke:#fff;stroke-miterlimit:9.998000144958496"/><path d="M44.8,402.2l-2.3.3a.9.9,0,0,0-.3-.7.7.7,0,0,0-.6-.2,1.1,1.1,0,0,0-.9.5,5.7,5.7,0,0,0-.3,1.8c.3-.2.5-.5.8-.6l1.1-.2a2.7,2.7,0,0,1,1.9.8A3.2,3.2,0,0,1,45,406a2.6,2.6,0,0,1-.4,1.5,2,2,0,0,1-1.1,1.1,3.9,3.9,0,0,1-1.8.4,4.6,4.6,0,0,1-2-.5,2.5,2.5,0,0,1-1.3-1.4,7,7,0,0,1-.5-2.5,5.2,5.2,0,0,1,1-3.4,3.9,3.9,0,0,1,2.7-1.1l1.7.2a2.2,2.2,0,0,1,.9.7A3.4,3.4,0,0,1,44.8,402.2ZM40.4,406a1.5,1.5,0,0,0,.4,1.1,1.1,1.1,0,0,0,.9.4.8.8,0,0,0,.7-.4,1.3,1.3,0,0,0,.4-1,1.2,1.2,0,0,0-.4-1.1.9.9,0,0,0-.8-.4,1.1,1.1,0,0,0-.8.3,1.5,1.5,0,0,0-.4,1.1Z" style="fill:none;stroke:#fff;stroke-miterlimit:9.998000144958496"/><path d="M38,373.4h6.9V375a6.5,6.5,0,0,0-1.5,1.8,8.5,8.5,0,0,0-1.1,2.6,7.5,7.5,0,0,0-.5,2.6H39.4a23.7,23.7,0,0,1,.9-3.6,11.7,11.7,0,0,1,1.9-3H38Z" style="fill:none;stroke:#fff;stroke-miterlimit:9.998000144958496"/><path d="M38,373.4h6.9V375a6.5,6.5,0,0,0-1.5,1.8,8.5,8.5,0,0,0-1.1,2.6,7.5,7.5,0,0,0-.5,2.6H39.4a23.7,23.7,0,0,1,.9-3.6,11.7,11.7,0,0,1,1.9-3H38Z" style="fill:none;stroke:#fff;stroke-miterlimit:9.998000144958496"/><path d="M39.4,350.5a2.2,2.2,0,0,1-.9-.7,2,2,0,0,1-.3-1.1,2.2,2.2,0,0,1,1-1.8,3.8,3.8,0,0,1,2.1-.5,3.6,3.6,0,0,1,2.5.6,2,2,0,0,1,.9,1.7,1.5,1.5,0,0,1-.4,1.1,2.3,2.3,0,0,1-.7.7,2.2,2.2,0,0,1,1,.9,2.8,2.8,0,0,1,.4,1.2,2.7,2.7,0,0,1-.3,1.2,2.4,2.4,0,0,1-.8.9l-1,.4-1.4.2a3.9,3.9,0,0,1-2.1-.4,3.1,3.1,0,0,1-1.1-.9,3.3,3.3,0,0,1-.4-1.4,2.8,2.8,0,0,1,.4-1.3Zm.9,2a1.1,1.1,0,0,0,.4.9,1,1,0,0,0,.7.4.9.9,0,0,0,.8-.4,1.2,1.2,0,0,0,.1-1.7h-.1a1,1,0,0,0-1.6,0A1.6,1.6,0,0,0,40.3,352.5Zm.1-3.7a.9.9,0,0,0,.3.7,1.1,1.1,0,0,0,.8.3.7.7,0,0,0,.6-.3.9.9,0,0,0,.3-.7.9.9,0,0,0-1-1A1,1,0,0,0,40.4,348.8Z" style="fill:none;stroke:#fff;stroke-miterlimit:9.998000144958496"/><path d="M39.4,350.5a2.2,2.2,0,0,1-.9-.7,2,2,0,0,1-.3-1.1,2.2,2.2,0,0,1,1-1.8,3.8,3.8,0,0,1,2.1-.5,3.6,3.6,0,0,1,2.5.6,2,2,0,0,1,.9,1.7,1.5,1.5,0,0,1-.4,1.1,2.3,2.3,0,0,1-.7.7,2.2,2.2,0,0,1,1,.9,2.8,2.8,0,0,1,.4,1.2,2.7,2.7,0,0,1-.3,1.2,2.4,2.4,0,0,1-.8.9l-1,.4-1.4.2a3.9,3.9,0,0,1-2.1-.4,3.1,3.1,0,0,1-1.1-.9,3.3,3.3,0,0,1-.4-1.4,2.8,2.8,0,0,1,.4-1.3Zm.9,2a1.1,1.1,0,0,0,.4.9,1,1,0,0,0,.7.4.9.9,0,0,0,.8-.4,1.2,1.2,0,0,0,.1-1.7h-.1a1,1,0,0,0-1.6,0A1.6,1.6,0,0,0,40.3,352.5Zm.1-3.7a.9.9,0,0,0,.3.7,1.1,1.1,0,0,0,.8.3.7.7,0,0,0,.6-.3.9.9,0,0,0,.3-.7.9.9,0,0,0-1-1A1,1,0,0,0,40.4,348.8Z" style="fill:none;stroke:#fff;stroke-miterlimit:9.998000144958496"/><path d="M38,326.4l2.4-.3a.9.9,0,0,0,.3.7.7.7,0,0,0,.6.2,1.1,1.1,0,0,0,.9-.5,5.7,5.7,0,0,0,.3-1.8l-.9.6-1,.2a2.7,2.7,0,0,1-1.9-.8,3.2,3.2,0,0,1-.8-2.1,2.6,2.6,0,0,1,.4-1.5,2,2,0,0,1,1.1-1.1,2.8,2.8,0,0,1,1.8-.4,4.6,4.6,0,0,1,2,.5,2.9,2.9,0,0,1,1.3,1.4,6.9,6.9,0,0,1,.4,2.5,5.2,5.2,0,0,1-.9,3.4,3.3,3.3,0,0,1-2.8,1.1l-1.6-.2-1-.7Zm4.4-3.8a2,2,0,0,0-.3-1.1,1.1,1.1,0,0,0-.9-.4.9.9,0,0,0-.8.4,1.7,1.7,0,0,0-.3,1,1.2,1.2,0,0,0,.4,1.1.9.9,0,0,0,.8.4,1.1,1.1,0,0,0,.8-.3A2.6,2.6,0,0,0,42.4,322.6Z" style="fill:none;stroke:#fff;stroke-miterlimit:9.998000144958496"/><path d="M38,326.4l2.4-.3a.9.9,0,0,0,.3.7.7.7,0,0,0,.6.2,1.1,1.1,0,0,0,.9-.5,5.7,5.7,0,0,0,.3-1.8l-.9.6-1,.2a2.7,2.7,0,0,1-1.9-.8,3.2,3.2,0,0,1-.8-2.1,2.6,2.6,0,0,1,.4-1.5,2,2,0,0,1,1.1-1.1,2.8,2.8,0,0,1,1.8-.4,4.6,4.6,0,0,1,2,.5,2.9,2.9,0,0,1,1.3,1.4,6.9,6.9,0,0,1,.4,2.5,5.2,5.2,0,0,1-.9,3.4,3.3,3.3,0,0,1-2.8,1.1l-1.6-.2-1-.7Zm4.4-3.8a2,2,0,0,0-.3-1.1,1.1,1.1,0,0,0-.9-.4.9.9,0,0,0-.8.4,1.7,1.7,0,0,0-.3,1,1.2,1.2,0,0,0,.4,1.1.9.9,0,0,0,.8.4,1.1,1.1,0,0,0,.8-.3A2.6,2.6,0,0,0,42.4,322.6Z" style="fill:none;stroke:#fff;stroke-miterlimit:9.998000144958496"/><path d="M39.5,292.8v8.7H37.1v-5.7l-1.1.7-1.4.5v-1.9a6.9,6.9,0,0,0,1.9-1,3.2,3.2,0,0,0,1-1.3Z" style="fill:none;stroke:#fff;stroke-miterlimit:9.998000144958496"/><path d="M42.1,297.2c0-1.7.3-2.8.9-3.4a3.4,3.4,0,0,1,2.7-1,3.2,3.2,0,0,1,1.4.2l.9.5.6.8.3.8a13.6,13.6,0,0,1,.2,2,6.2,6.2,0,0,1-.8,3.5,3.2,3.2,0,0,1-2.7,1.1,3.3,3.3,0,0,1-1.7-.4,2.7,2.7,0,0,1-1.1-1,5,5,0,0,1-.5-1.3A11,11,0,0,1,42.1,297.2Zm2.4,0a4.2,4.2,0,0,0,.3,2.2c.2.4.4.6.8.6l.6-.2a2,2,0,0,0,.4-.8,11,11,0,0,0,.2-1.8,5.8,5.8,0,0,0-.3-2.3,1.1,1.1,0,0,0-.9-.5,1,1,0,0,0-.9.6A7.8,7.8,0,0,0,44.5,297.2Z" style="fill:none;stroke:#fff;stroke-miterlimit:9.998000144958496"/><path d="M39.5,292.8v8.7H37.1v-5.7l-1.1.7-1.4.5v-1.9a6.9,6.9,0,0,0,1.9-1,3.2,3.2,0,0,0,1-1.3Z" style="fill:none;stroke:#fff;stroke-miterlimit:9.998000144958496"/><path d="M42.1,297.2c0-1.7.3-2.8.9-3.4a3.4,3.4,0,0,1,2.7-1,3.2,3.2,0,0,1,1.4.2l.9.5.6.8.3.8a13.6,13.6,0,0,1,.2,2,6.2,6.2,0,0,1-.8,3.5,3.2,3.2,0,0,1-2.7,1.1,3.3,3.3,0,0,1-1.7-.4,2.7,2.7,0,0,1-1.1-1,5,5,0,0,1-.5-1.3A11,11,0,0,1,42.1,297.2Zm2.4,0a4.2,4.2,0,0,0,.3,2.2c.2.4.4.6.8.6l.6-.2a2,2,0,0,0,.4-.8,11,11,0,0,0,.2-1.8,5.8,5.8,0,0,0-.3-2.3,1.1,1.1,0,0,0-.9-.5,1,1,0,0,0-.9.6A7.8,7.8,0,0,0,44.5,297.2Z" style="fill:none;stroke:#fff;stroke-miterlimit:9.998000144958496"/><path d="M39.5,265.9v8.8H37.1v-5.8l-1.1.8-1.4.5v-2a6.6,6.6,0,0,0,1.9-.9,4.5,4.5,0,0,0,1-1.4Z" style="fill:none;stroke:#fff;stroke-miterlimit:9.998000144958496"/><path d="M47.5,265.9v8.8H45.1v-5.8l-1.1.8-1.4.5v-2a6.6,6.6,0,0,0,1.9-.9,4.5,4.5,0,0,0,1-1.4Z" style="fill:none;stroke:#fff;stroke-miterlimit:9.998000144958496"/><path d="M39.5,265.9v8.8H37.1v-5.8l-1.1.8-1.4.5v-2a6.6,6.6,0,0,0,1.9-.9,4.5,4.5,0,0,0,1-1.4Z" style="fill:none;stroke:#fff;stroke-miterlimit:9.998000144958496"/><path d="M47.5,265.9v8.8H45.1v-5.8l-1.1.8-1.4.5v-2a6.6,6.6,0,0,0,1.9-.9,4.5,4.5,0,0,0,1-1.4Z" style="fill:none;stroke:#fff;stroke-miterlimit:9.998000144958496"/><path d="M39.5,239.1v8.7H37.1v-5.7l-1.1.7-1.4.5v-1.9a6.9,6.9,0,0,0,1.9-1,3.2,3.2,0,0,0,1-1.3Z" style="fill:none;stroke:#fff;stroke-miterlimit:9.998000144958496"/><path d="M49.1,247.8H41.9a5,5,0,0,1,.8-2,8,8,0,0,1,2.3-2.2,5.3,5.3,0,0,0,1.4-1.2,1.1,1.1,0,0,0,.3-.8.9.9,0,0,0-.3-.6,1.1,1.1,0,0,0-.8-.3.9.9,0,0,0-.7.3,1.8,1.8,0,0,0-.4,1l-2.4-.2a4.3,4.3,0,0,1,.5-1.6l1.1-.8a6.2,6.2,0,0,1,3.8,0,1.5,1.5,0,0,1,1.1.8,2.3,2.3,0,0,1,.4,1.4,2.8,2.8,0,0,1-.4,1.5,8,8,0,0,1-1.7,1.5l-1,.7-.5.6h3.7Z" style="fill:none;stroke:#fff;stroke-miterlimit:9.998000144958496"/><path d="M39.5,239.1v8.7H37.1v-5.7l-1.1.7-1.4.5v-1.9a6.9,6.9,0,0,0,1.9-1,3.2,3.2,0,0,0,1-1.3Z" style="fill:none;stroke:#fff;stroke-miterlimit:9.998000144958496"/><path d="M49.1,247.8H41.9a5,5,0,0,1,.8-2,8,8,0,0,1,2.3-2.2,5.3,5.3,0,0,0,1.4-1.2,1.1,1.1,0,0,0,.3-.8.9.9,0,0,0-.3-.6,1.1,1.1,0,0,0-.8-.3.9.9,0,0,0-.7.3,1.8,1.8,0,0,0-.4,1l-2.4-.2a4.3,4.3,0,0,1,.5-1.6l1.1-.8a6.2,6.2,0,0,1,3.8,0,1.5,1.5,0,0,1,1.1.8,2.3,2.3,0,0,1,.4,1.4,2.8,2.8,0,0,1-.4,1.5,8,8,0,0,1-1.7,1.5l-1,.7-.5.6h3.7Z" style="fill:none;stroke:#fff;stroke-miterlimit:9.998000144958496"/><path d="M39.5,212.2v8.7H37.1v-5.7l-1.1.7-1.4.6v-2a6.6,6.6,0,0,0,1.9-.9,4.5,4.5,0,0,0,1-1.4Z" style="fill:none;stroke:#fff;stroke-miterlimit:9.998000144958496"/><path d="M44.4,214.8l-2.2-.4a2.7,2.7,0,0,1,1-1.6,4.6,4.6,0,0,1,2.3-.6,3.5,3.5,0,0,1,2.4.6,2.1,2.1,0,0,1,.8,1.6,1.7,1.7,0,0,1-.3,1,2.4,2.4,0,0,1-.9.8l.7.3.7.7a1.8,1.8,0,0,1,.2,1,2.8,2.8,0,0,1-.4,1.5,1.8,1.8,0,0,1-1.1,1,4.1,4.1,0,0,1-1.9.4,6.3,6.3,0,0,1-1.9-.3,2.8,2.8,0,0,1-1.1-.8,5.4,5.4,0,0,1-.7-1.3l2.4-.3a3.1,3.1,0,0,0,.5,1l.7.2a1.1,1.1,0,0,0,.8-.3,1.6,1.6,0,0,0,.3-.9,1.7,1.7,0,0,0-.3-1,1.1,1.1,0,0,0-.8-.3h-.8v-1.7h.3a1.1,1.1,0,0,0,.8-.3.9.9,0,0,0,.3-.7.8.8,0,0,0-.2-.7l-.6-.2-.7.2A2,2,0,0,0,44.4,214.8Z" style="fill:none;stroke:#fff;stroke-miterlimit:9.998000144958496"/><path d="M39.5,212.2v8.7H37.1v-5.7l-1.1.7-1.4.6v-2a6.6,6.6,0,0,0,1.9-.9,4.5,4.5,0,0,0,1-1.4Z" style="fill:none;stroke:#fff;stroke-miterlimit:9.998000144958496"/><path d="M44.4,214.8l-2.2-.4a2.7,2.7,0,0,1,1-1.6,4.6,4.6,0,0,1,2.3-.6,3.5,3.5,0,0,1,2.4.6,2.1,2.1,0,0,1,.8,1.6,1.7,1.7,0,0,1-.3,1,2.4,2.4,0,0,1-.9.8l.7.3.7.7a1.8,1.8,0,0,1,.2,1,2.8,2.8,0,0,1-.4,1.5,1.8,1.8,0,0,1-1.1,1,4.1,4.1,0,0,1-1.9.4,6.3,6.3,0,0,1-1.9-.3,2.8,2.8,0,0,1-1.1-.8,5.4,5.4,0,0,1-.7-1.3l2.4-.3a3.1,3.1,0,0,0,.5,1l.7.2a1.1,1.1,0,0,0,.8-.3,1.6,1.6,0,0,0,.3-.9,1.7,1.7,0,0,0-.3-1,1.1,1.1,0,0,0-.8-.3h-.8v-1.7h.3a1.1,1.1,0,0,0,.8-.3.9.9,0,0,0,.3-.7.8.8,0,0,0-.2-.7l-.6-.2-.7.2A2,2,0,0,0,44.4,214.8Z" style="fill:none;stroke:#fff;stroke-miterlimit:9.998000144958496"/><path d="M39.5,185.4v8.7H37.1v-5.7l-1.1.7-1.4.5v-1.9a6.9,6.9,0,0,0,1.9-1,4.1,4.1,0,0,0,1-1.3Z" style="fill:none;stroke:#fff;stroke-miterlimit:9.998000144958496"/><path d="M46.2,192.5H41.9v-2l4.3-5.1h2.1v5.2h1.1v1.9H48.3v1.6H46.2Zm0-1.9v-2.7l-2.3,2.7Z" style="fill:none;stroke:#fff;stroke-miterlimit:9.998000144958496"/><path d="M39.5,185.4v8.7H37.1v-5.7l-1.1.7-1.4.5v-1.9a6.9,6.9,0,0,0,1.9-1,4.1,4.1,0,0,0,1-1.3Z" style="fill:none;stroke:#fff;stroke-miterlimit:9.998000144958496"/><path d="M46.2,192.5H41.9v-2l4.3-5.1h2.1v5.2h1.1v1.9H48.3v1.6H46.2Zm0-1.9v-2.7l-2.3,2.7Z" style="fill:none;stroke:#fff;stroke-miterlimit:9.998000144958496"/><path d="M39.5,158.5v8.7H37.1v-5.7l-1.1.7-1.4.6v-2l1.9-.9a4.5,4.5,0,0,0,1-1.4Z" style="fill:none;stroke:#fff;stroke-miterlimit:9.998000144958496"/><path d="M43.1,158.6h5.6v2H44.9l-.2,1.2.8-.2h.8a2.9,2.9,0,0,1,2,.7,2.5,2.5,0,0,1,.9,2,3,3,0,0,1-.5,1.6,2.5,2.5,0,0,1-1.1,1.2,4.5,4.5,0,0,1-2,.4l-1.4-.2a2.2,2.2,0,0,1-1.1-.5l-.7-.7a4.2,4.2,0,0,1-.4-1l2.4-.3a3.6,3.6,0,0,0,.4.9,1.2,1.2,0,0,0,1.6,0,1.7,1.7,0,0,0,.4-1.2,1.4,1.4,0,0,0-1.3-1.5l-.6.2-.5.5-2.1-.3Z" style="fill:none;stroke:#fff;stroke-miterlimit:9.998000144958496"/><path d="M39.5,158.5v8.7H37.1v-5.7l-1.1.7-1.4.6v-2l1.9-.9a4.5,4.5,0,0,0,1-1.4Z" style="fill:none;stroke:#fff;stroke-miterlimit:9.998000144958496"/><path d="M43.1,158.6h5.6v2H44.9l-.2,1.2.8-.2h.8a2.9,2.9,0,0,1,2,.7,2.5,2.5,0,0,1,.9,2,3,3,0,0,1-.5,1.6,2.5,2.5,0,0,1-1.1,1.2,4.5,4.5,0,0,1-2,.4l-1.4-.2a2.2,2.2,0,0,1-1.1-.5l-.7-.7a4.2,4.2,0,0,1-.4-1l2.4-.3a3.6,3.6,0,0,0,.4.9,1.2,1.2,0,0,0,1.6,0,1.7,1.7,0,0,0,.4-1.2,1.4,1.4,0,0,0-1.3-1.5l-.6.2-.5.5-2.1-.3Z" style="fill:none;stroke:#fff;stroke-miterlimit:9.998000144958496"/><path d="M39.5,131.6v8.8H37.1v-5.7l-1.1.7-1.4.5v-2a6.6,6.6,0,0,0,1.9-.9,4.5,4.5,0,0,0,1-1.4Z" style="fill:none;stroke:#fff;stroke-miterlimit:9.998000144958496"/><path d="M49,133.7l-2.4.3a.9.9,0,0,0-.3-.7l-.5-.2a1,1,0,0,0-.9.6,5.8,5.8,0,0,0-.4,1.8,2.4,2.4,0,0,1,.9-.6,2,2,0,0,1,1.1-.2,2.7,2.7,0,0,1,1.9.8,3.2,3.2,0,0,1,.8,2.1,2.8,2.8,0,0,1-.4,1.5,2.9,2.9,0,0,1-1.1,1.1,5.7,5.7,0,0,1-1.8.3,5.2,5.2,0,0,1-2.1-.4,3.3,3.3,0,0,1-1.2-1.4,7.5,7.5,0,0,1-.5-2.6,4.7,4.7,0,0,1,1-3.4,3.9,3.9,0,0,1,2.7-1.1,4.5,4.5,0,0,1,1.6.3,1.8,1.8,0,0,1,1,.7A2.4,2.4,0,0,1,49,133.7Zm-4.4,3.9a1.3,1.3,0,0,0,.4,1,.9.9,0,0,0,.8.4,1.1,1.1,0,0,0,.8-.3,2.2,2.2,0,0,0,0-2.2,1.2,1.2,0,0,0-1.7.1A.9.9,0,0,0,44.6,137.6Z" style="fill:none;stroke:#fff;stroke-miterlimit:9.998000144958496"/><path d="M39.5,131.6v8.8H37.1v-5.7l-1.1.7-1.4.5v-2a6.6,6.6,0,0,0,1.9-.9,4.5,4.5,0,0,0,1-1.4Z" style="fill:none;stroke:#fff;stroke-miterlimit:9.998000144958496"/><path d="M49,133.7l-2.4.3a.9.9,0,0,0-.3-.7l-.5-.2a1,1,0,0,0-.9.6,5.8,5.8,0,0,0-.4,1.8,2.4,2.4,0,0,1,.9-.6,2,2,0,0,1,1.1-.2,2.7,2.7,0,0,1,1.9.8,3.2,3.2,0,0,1,.8,2.1,2.8,2.8,0,0,1-.4,1.5,2.9,2.9,0,0,1-1.1,1.1,5.7,5.7,0,0,1-1.8.3,5.2,5.2,0,0,1-2.1-.4,3.3,3.3,0,0,1-1.2-1.4,7.5,7.5,0,0,1-.5-2.6,4.7,4.7,0,0,1,1-3.4,3.9,3.9,0,0,1,2.7-1.1,4.5,4.5,0,0,1,1.6.3,1.8,1.8,0,0,1,1,.7A2.4,2.4,0,0,1,49,133.7Zm-4.4,3.9a1.3,1.3,0,0,0,.4,1,.9.9,0,0,0,.8.4,1.1,1.1,0,0,0,.8-.3,2.2,2.2,0,0,0,0-2.2,1.2,1.2,0,0,0-1.7.1A.9.9,0,0,0,44.6,137.6Z" style="fill:none;stroke:#fff;stroke-miterlimit:9.998000144958496"/><path d="M39.5,104.8v8.7H37.1v-5.7l-1.1.7-1.4.6v-2a6.9,6.9,0,0,0,1.9-1,3.2,3.2,0,0,0,1-1.3Z" style="fill:none;stroke:#fff;stroke-miterlimit:9.998000144958496"/><path d="M42.2,104.9h6.9v1.6a8.4,8.4,0,0,0-1.5,1.8,12.3,12.3,0,0,0-1.2,2.6,23.4,23.4,0,0,0-.4,2.6H43.6a10.6,10.6,0,0,1,.9-3.5,11.7,11.7,0,0,1,1.9-3H42.2Z" style="fill:none;stroke:#fff;stroke-miterlimit:9.998000144958496"/><path d="M39.5,104.8v8.7H37.1v-5.7l-1.1.7-1.4.6v-2a6.9,6.9,0,0,0,1.9-1,3.2,3.2,0,0,0,1-1.3Z" style="fill:none;stroke:#fff;stroke-miterlimit:9.998000144958496"/><path d="M42.2,104.9h6.9v1.6a8.4,8.4,0,0,0-1.5,1.8,12.3,12.3,0,0,0-1.2,2.6,23.4,23.4,0,0,0-.4,2.6H43.6a10.6,10.6,0,0,1,.9-3.5,11.7,11.7,0,0,1,1.9-3H42.2Z" style="fill:none;stroke:#fff;stroke-miterlimit:9.998000144958496"/><path d="M39.5,77.9v8.8H37.1V80.9l-1.1.8-1.4.5v-2a6.6,6.6,0,0,0,1.9-.9,4.5,4.5,0,0,0,1-1.4Z" style="fill:none;stroke:#fff;stroke-miterlimit:9.998000144958496"/><path d="M43.5,82.1l-.8-.7a2.7,2.7,0,0,1-.3-1.2,1.9,1.9,0,0,1,1-1.7,3.9,3.9,0,0,1,2.1-.6,4.3,4.3,0,0,1,2.5.7,2.1,2.1,0,0,1,.8,1.6,2,2,0,0,1-.3,1.1c-.1.3-.4.5-.8.8a2.8,2.8,0,0,1,1.1.8,2.8,2.8,0,0,1,.3,1.3,2.7,2.7,0,0,1-.3,1.2,2.7,2.7,0,0,1-.7.8l-1.1.5H45.7l-2.1-.3a1.8,1.8,0,0,1-1.1-1,2.3,2.3,0,0,1-.4-1.4,2,2,0,0,1,1.4-1.9Zm1,2a1.6,1.6,0,0,0,.3.9c.3.2.5.4.8.4a1.2,1.2,0,0,0,.8-.4,1.6,1.6,0,0,0,.3-.9,1.7,1.7,0,0,0-.3-1,1.2,1.2,0,0,0-1.6,0A1.7,1.7,0,0,0,44.5,84.1Zm.1-3.7a1,1,0,1,0,1-1,1,1,0,0,0-1,1Z" style="fill:none;stroke:#fff;stroke-miterlimit:9.998000144958496"/><path d="M39.5,77.9v8.8H37.1V80.9l-1.1.8-1.4.5v-2a6.6,6.6,0,0,0,1.9-.9,4.5,4.5,0,0,0,1-1.4Z" style="fill:none;stroke:#fff;stroke-miterlimit:9.998000144958496"/><path d="M43.5,82.1l-.8-.7a2.7,2.7,0,0,1-.3-1.2,1.9,1.9,0,0,1,1-1.7,3.9,3.9,0,0,1,2.1-.6,4.3,4.3,0,0,1,2.5.7,2.1,2.1,0,0,1,.8,1.6,2,2,0,0,1-.3,1.1c-.1.3-.4.5-.8.8a2.8,2.8,0,0,1,1.1.8,2.8,2.8,0,0,1,.3,1.3,2.7,2.7,0,0,1-.3,1.2,2.7,2.7,0,0,1-.7.8l-1.1.5H45.7l-2.1-.3a1.8,1.8,0,0,1-1.1-1,2.3,2.3,0,0,1-.4-1.4,2,2,0,0,1,1.4-1.9Zm1,2a1.6,1.6,0,0,0,.3.9c.3.2.5.4.8.4a1.2,1.2,0,0,0,.8-.4,1.6,1.6,0,0,0,.3-.9,1.7,1.7,0,0,0-.3-1,1.2,1.2,0,0,0-1.6,0A1.7,1.7,0,0,0,44.5,84.1Zm.1-3.7a1,1,0,1,0,1-1,1,1,0,0,0-1,1Z" style="fill:none;stroke:#fff;stroke-miterlimit:9.998000144958496"/><path d="M575.2,534.4v8.7h-2.4v-5.7l-1.1.7-1.4.5v-1.9a5,5,0,0,0,3-2.3Z" style="fill:none;stroke:#fff;stroke-miterlimit:9.998000144958496"/><path d="M575.2,534.4v8.7h-2.4v-5.7l-1.1.7-1.4.5v-1.9a5,5,0,0,0,3-2.3Z" style="fill:none;stroke:#fff;stroke-miterlimit:9.998000144958496"/><path d="M576.8,516.2h-7.2a5,5,0,0,1,.8-2,12,12,0,0,1,2.3-2.2l1.4-1.1a1.1,1.1,0,0,0,.3-.8.9.9,0,0,0-.3-.7,1.1,1.1,0,0,0-.8-.3.9.9,0,0,0-.7.3,3,3,0,0,0-.4,1h-2.4a4.3,4.3,0,0,1,.5-1.6,3.1,3.1,0,0,1,1.1-.9,6.2,6.2,0,0,1,3.8,0,2.4,2.4,0,0,1,1.5,2.2,2.8,2.8,0,0,1-.4,1.5,6.5,6.5,0,0,1-1.7,1.6l-1,.7-.5.5h3.7Z" style="fill:none;stroke:#fff;stroke-miterlimit:9.998000144958496"/><path d="M576.8,516.2h-7.2a5,5,0,0,1,.8-2,12,12,0,0,1,2.3-2.2l1.4-1.1a1.1,1.1,0,0,0,.3-.8.9.9,0,0,0-.3-.7,1.1,1.1,0,0,0-.8-.3.9.9,0,0,0-.7.3,3,3,0,0,0-.4,1h-2.4a4.3,4.3,0,0,1,.5-1.6,3.1,3.1,0,0,1,1.1-.9,6.2,6.2,0,0,1,3.8,0,2.4,2.4,0,0,1,1.5,2.2,2.8,2.8,0,0,1-.4,1.5,6.5,6.5,0,0,1-1.7,1.6l-1,.7-.5.5h3.7Z" style="fill:none;stroke:#fff;stroke-miterlimit:9.998000144958496"/><path d="M572.1,483.3l-2.2-.4a2.5,2.5,0,0,1,1.1-1.7,3.4,3.4,0,0,1,2.2-.5,3.7,3.7,0,0,1,2.5.6,2,2,0,0,1,.7,1.6,1.7,1.7,0,0,1-.3,1l-.9.8.7.2.7.7a2,2,0,0,1,.2,1.1,2.5,2.5,0,0,1-1.5,2.5,6.3,6.3,0,0,1-1.9.3l-1.9-.2-1.1-.8a6.1,6.1,0,0,1-.7-1.4l2.4-.3a1.9,1.9,0,0,0,.5,1,1,1,0,0,0,1.4,0h.1a1.5,1.5,0,0,0,0-1.8.9.9,0,0,0-.8-.4l-.8.2V484h.4a.9.9,0,0,0,.7-.3.8.8,0,0,0,.4-.7,1.1,1.1,0,0,0-.9-.9.9.9,0,0,0-.7.3A1.6,1.6,0,0,0,572.1,483.3Z" style="fill:none;stroke:#fff;stroke-miterlimit:9.998000144958496"/><path d="M572.1,483.3l-2.2-.4a2.5,2.5,0,0,1,1.1-1.7,3.4,3.4,0,0,1,2.2-.5,3.7,3.7,0,0,1,2.5.6,2,2,0,0,1,.7,1.6,1.7,1.7,0,0,1-.3,1l-.9.8.7.2.7.7a2,2,0,0,1,.2,1.1,2.5,2.5,0,0,1-1.5,2.5,6.3,6.3,0,0,1-1.9.3l-1.9-.2-1.1-.8a6.1,6.1,0,0,1-.7-1.4l2.4-.3a1.9,1.9,0,0,0,.5,1,1,1,0,0,0,1.4,0h.1a1.5,1.5,0,0,0,0-1.8.9.9,0,0,0-.8-.4l-.8.2V484h.4a.9.9,0,0,0,.7-.3.8.8,0,0,0,.4-.7,1.1,1.1,0,0,0-.9-.9.9.9,0,0,0-.7.3A1.6,1.6,0,0,0,572.1,483.3Z" style="fill:none;stroke:#fff;stroke-miterlimit:9.998000144958496"/><path d="M573.9,460.9h-4.3V459l4.3-5.2H576v5.3h1.1v1.8H576v1.6h-2.1Zm0-1.8v-2.7l-2.3,2.7Z" style="fill:none;stroke:#fff;stroke-miterlimit:9.998000144958496"/><path d="M573.9,460.9h-4.3V459l4.3-5.2H576v5.3h1.1v1.8H576v1.6h-2.1Zm0-1.8v-2.7l-2.3,2.7Z" style="fill:none;stroke:#fff;stroke-miterlimit:9.998000144958496"/><path d="M570.8,427.1h5.7V429h-3.9l-.2,1.3.8-.3h.8a3.2,3.2,0,0,1,2.1.8,3,3,0,0,1,.8,2,3,3,0,0,1-.5,1.6,2,2,0,0,1-1.1,1.1,4.5,4.5,0,0,1-2,.4h-1.4l-1.1-.5-.6-.7a3.1,3.1,0,0,1-.5-1l2.4-.3a3.6,3.6,0,0,0,.4.9,1.1,1.1,0,0,0,.8.3,1.2,1.2,0,0,0,.8-.4,1.5,1.5,0,0,0,.4-1.1,1.7,1.7,0,0,0-.4-1.2,1.1,1.1,0,0,0-.8-.3.8.8,0,0,0-.7.2c-.2,0-.3.2-.5.4l-2.1-.3Z" style="fill:none;stroke:#fff;stroke-miterlimit:9.998000144958496"/><path d="M570.8,427.1h5.7V429h-3.9l-.2,1.3.8-.3h.8a3.2,3.2,0,0,1,2.1.8,3,3,0,0,1,.8,2,3,3,0,0,1-.5,1.6,2,2,0,0,1-1.1,1.1,4.5,4.5,0,0,1-2,.4h-1.4l-1.1-.5-.6-.7a3.1,3.1,0,0,1-.5-1l2.4-.3a3.6,3.6,0,0,0,.4.9,1.1,1.1,0,0,0,.8.3,1.2,1.2,0,0,0,.8-.4,1.5,1.5,0,0,0,.4-1.1,1.7,1.7,0,0,0-.4-1.2,1.1,1.1,0,0,0-.8-.3.8.8,0,0,0-.7.2c-.2,0-.3.2-.5.4l-2.1-.3Z" style="fill:none;stroke:#fff;stroke-miterlimit:9.998000144958496"/><path d="M576.7,402.2l-2.3.3c-.1-.4-.2-.6-.4-.7l-.5-.2a1.1,1.1,0,0,0-.9.5,5.8,5.8,0,0,0-.4,1.8l.9-.6,1.1-.2a2.7,2.7,0,0,1,1.9.8,3.2,3.2,0,0,1,.8,2.1,2.6,2.6,0,0,1-.4,1.5,2,2,0,0,1-1.1,1.1,3.9,3.9,0,0,1-1.8.4,5,5,0,0,1-2.1-.5,2.8,2.8,0,0,1-1.2-1.4,7,7,0,0,1-.5-2.5,5.2,5.2,0,0,1,1-3.4,3.9,3.9,0,0,1,2.7-1.1l1.6.2,1,.7A3.4,3.4,0,0,1,576.7,402.2Zm-4.4,3.8a1.5,1.5,0,0,0,.4,1.1,1,1,0,0,0,1.6,0,1.7,1.7,0,0,0,.3-1,2,2,0,0,0-.3-1.1.9.9,0,0,0-.8-.4,1.1,1.1,0,0,0-.8.3,1.2,1.2,0,0,0-.4,1.1Z" style="fill:none;stroke:#fff;stroke-miterlimit:9.998000144958496"/><path d="M576.7,402.2l-2.3.3c-.1-.4-.2-.6-.4-.7l-.5-.2a1.1,1.1,0,0,0-.9.5,5.8,5.8,0,0,0-.4,1.8l.9-.6,1.1-.2a2.7,2.7,0,0,1,1.9.8,3.2,3.2,0,0,1,.8,2.1,2.6,2.6,0,0,1-.4,1.5,2,2,0,0,1-1.1,1.1,3.9,3.9,0,0,1-1.8.4,5,5,0,0,1-2.1-.5,2.8,2.8,0,0,1-1.2-1.4,7,7,0,0,1-.5-2.5,5.2,5.2,0,0,1,1-3.4,3.9,3.9,0,0,1,2.7-1.1l1.6.2,1,.7A3.4,3.4,0,0,1,576.7,402.2Zm-4.4,3.8a1.5,1.5,0,0,0,.4,1.1,1,1,0,0,0,1.6,0,1.7,1.7,0,0,0,.3-1,2,2,0,0,0-.3-1.1.9.9,0,0,0-.8-.4,1.1,1.1,0,0,0-.8.3,1.2,1.2,0,0,0-.4,1.1Z" style="fill:none;stroke:#fff;stroke-miterlimit:9.998000144958496"/><path d="M569.9,373.4h6.9V375a6.5,6.5,0,0,0-1.5,1.8,12.3,12.3,0,0,0-1.2,2.6,23.4,23.4,0,0,0-.4,2.6h-2.4a23.7,23.7,0,0,1,.9-3.6,11.7,11.7,0,0,1,1.9-3h-4.2Z" style="fill:none;stroke:#fff;stroke-miterlimit:9.998000144958496"/><path d="M569.9,373.4h6.9V375a6.5,6.5,0,0,0-1.5,1.8,12.3,12.3,0,0,0-1.2,2.6,23.4,23.4,0,0,0-.4,2.6h-2.4a23.7,23.7,0,0,1,.9-3.6,11.7,11.7,0,0,1,1.9-3h-4.2Z" style="fill:none;stroke:#fff;stroke-miterlimit:9.998000144958496"/><path d="M571.3,350.5a2.2,2.2,0,0,1-.9-.7,2,2,0,0,1-.3-1.1,2.2,2.2,0,0,1,1-1.8,3.8,3.8,0,0,1,2.1-.5,3.7,3.7,0,0,1,2.5.6,2,2,0,0,1,.9,1.7,2.1,2.1,0,0,1-.4,1.1l-.7.7a2.2,2.2,0,0,1,1,.9,2.5,2.5,0,0,1,0,2.4,2.2,2.2,0,0,1-.7.9l-1.1.4-1.3.2a3.9,3.9,0,0,1-2.1-.4,2,2,0,0,1-1.1-.9,2.3,2.3,0,0,1-.4-1.4,2,2,0,0,1,.4-1.3A3.1,3.1,0,0,1,571.3,350.5Zm.9,2a1.4,1.4,0,0,0,.3.9,1,1,0,0,0,1.6,0,1.5,1.5,0,0,0,0-1.8,1.1,1.1,0,0,0-1.4-.2l-.2.2a1.6,1.6,0,0,0-.3.9Zm.1-3.7a1,1,0,0,0,1,1,1,1,0,0,0,1-1,.9.9,0,0,0-1-1A1,1,0,0,0,572.3,348.8Z" style="fill:none;stroke:#fff;stroke-miterlimit:9.998000144958496"/><path d="M571.3,350.5a2.2,2.2,0,0,1-.9-.7,2,2,0,0,1-.3-1.1,2.2,2.2,0,0,1,1-1.8,3.8,3.8,0,0,1,2.1-.5,3.7,3.7,0,0,1,2.5.6,2,2,0,0,1,.9,1.7,2.1,2.1,0,0,1-.4,1.1l-.7.7a2.2,2.2,0,0,1,1,.9,2.5,2.5,0,0,1,0,2.4,2.2,2.2,0,0,1-.7.9l-1.1.4-1.3.2a3.9,3.9,0,0,1-2.1-.4,2,2,0,0,1-1.1-.9,2.3,2.3,0,0,1-.4-1.4,2,2,0,0,1,.4-1.3A3.1,3.1,0,0,1,571.3,350.5Zm.9,2a1.4,1.4,0,0,0,.3.9,1,1,0,0,0,1.6,0,1.5,1.5,0,0,0,0-1.8,1.1,1.1,0,0,0-1.4-.2l-.2.2a1.6,1.6,0,0,0-.3.9Zm.1-3.7a1,1,0,0,0,1,1,1,1,0,0,0,1-1,.9.9,0,0,0-1-1A1,1,0,0,0,572.3,348.8Z" style="fill:none;stroke:#fff;stroke-miterlimit:9.998000144958496"/><path d="M569.9,326.4l2.4-.3a.9.9,0,0,0,.3.7c.2.2.3.2.6.2a1.1,1.1,0,0,0,.9-.5,5.7,5.7,0,0,0,.3-1.8l-.9.6-1,.2a3,3,0,0,1-2-.8,3.2,3.2,0,0,1-.8-2.1,2.8,2.8,0,0,1,.4-1.5,2.5,2.5,0,0,1,1.2-1.1,3.3,3.3,0,0,1,1.7-.4,3.8,3.8,0,0,1,2.1.5,2.9,2.9,0,0,1,1.3,1.4,6.9,6.9,0,0,1,.4,2.5,4.7,4.7,0,0,1-1,3.4,3.2,3.2,0,0,1-2.7,1.1l-1.6-.2-1-.7A3.4,3.4,0,0,1,569.9,326.4Zm4.4-3.8a2,2,0,0,0-.3-1.1,1.1,1.1,0,0,0-.9-.4.9.9,0,0,0-.8.4,1.7,1.7,0,0,0-.3,1,2,2,0,0,0,.3,1.1.9.9,0,0,0,.8.4,1.4,1.4,0,0,0,.9-.3A2.6,2.6,0,0,0,574.3,322.6Z" style="fill:none;stroke:#fff;stroke-miterlimit:9.998000144958496"/><path d="M569.9,326.4l2.4-.3a.9.9,0,0,0,.3.7c.2.2.3.2.6.2a1.1,1.1,0,0,0,.9-.5,5.7,5.7,0,0,0,.3-1.8l-.9.6-1,.2a3,3,0,0,1-2-.8,3.2,3.2,0,0,1-.8-2.1,2.8,2.8,0,0,1,.4-1.5,2.5,2.5,0,0,1,1.2-1.1,3.3,3.3,0,0,1,1.7-.4,3.8,3.8,0,0,1,2.1.5,2.9,2.9,0,0,1,1.3,1.4,6.9,6.9,0,0,1,.4,2.5,4.7,4.7,0,0,1-1,3.4,3.2,3.2,0,0,1-2.7,1.1l-1.6-.2-1-.7A3.4,3.4,0,0,1,569.9,326.4Zm4.4-3.8a2,2,0,0,0-.3-1.1,1.1,1.1,0,0,0-.9-.4.9.9,0,0,0-.8.4,1.7,1.7,0,0,0-.3,1,2,2,0,0,0,.3,1.1.9.9,0,0,0,.8.4,1.4,1.4,0,0,0,.9-.3A2.6,2.6,0,0,0,574.3,322.6Z" style="fill:none;stroke:#fff;stroke-miterlimit:9.998000144958496"/><path d="M571.4,292.8v8.7H569v-5.7l-1.1.7-1.4.5v-1.9a6.9,6.9,0,0,0,1.9-1,3.2,3.2,0,0,0,1-1.3Z" style="fill:none;stroke:#fff;stroke-miterlimit:9.998000144958496"/><path d="M574,297.2c0-1.7.3-2.8.9-3.4a3.4,3.4,0,0,1,2.7-1,3.2,3.2,0,0,1,1.4.2l.9.5a2.2,2.2,0,0,1,.5.8,2,2,0,0,1,.4.8,13.6,13.6,0,0,1,.2,2,6.2,6.2,0,0,1-.8,3.5,3.2,3.2,0,0,1-2.7,1.1,5.8,5.8,0,0,1-1.8-.4,2.4,2.4,0,0,1-1-1,2.1,2.1,0,0,1-.5-1.3A11,11,0,0,1,574,297.2Zm2.4,0a4.2,4.2,0,0,0,.3,2.2.8.8,0,0,0,.8.6l.6-.2a2,2,0,0,0,.4-.8,10.9,10.9,0,0,0,.1-1.8,9,9,0,0,0-.2-2.3,1.1,1.1,0,0,0-.9-.5,1,1,0,0,0-.9.6A5.3,5.3,0,0,0,576.4,297.2Z" style="fill:none;stroke:#fff;stroke-miterlimit:9.998000144958496"/><path d="M571.4,292.8v8.7H569v-5.7l-1.1.7-1.4.5v-1.9a6.9,6.9,0,0,0,1.9-1,3.2,3.2,0,0,0,1-1.3Z" style="fill:none;stroke:#fff;stroke-miterlimit:9.998000144958496"/><path d="M574,297.2c0-1.7.3-2.8.9-3.4a3.4,3.4,0,0,1,2.7-1,3.2,3.2,0,0,1,1.4.2l.9.5a2.2,2.2,0,0,1,.5.8,2,2,0,0,1,.4.8,13.6,13.6,0,0,1,.2,2,6.2,6.2,0,0,1-.8,3.5,3.2,3.2,0,0,1-2.7,1.1,5.8,5.8,0,0,1-1.8-.4,2.4,2.4,0,0,1-1-1,2.1,2.1,0,0,1-.5-1.3A11,11,0,0,1,574,297.2Zm2.4,0a4.2,4.2,0,0,0,.3,2.2.8.8,0,0,0,.8.6l.6-.2a2,2,0,0,0,.4-.8,10.9,10.9,0,0,0,.1-1.8,9,9,0,0,0-.2-2.3,1.1,1.1,0,0,0-.9-.5,1,1,0,0,0-.9.6A5.3,5.3,0,0,0,576.4,297.2Z" style="fill:none;stroke:#fff;stroke-miterlimit:9.998000144958496"/><path d="M571.4,265.9v8.8H569v-5.8l-1.1.8-1.4.5v-2a6.6,6.6,0,0,0,1.9-.9,4.5,4.5,0,0,0,1-1.4Z" style="fill:none;stroke:#fff;stroke-miterlimit:9.998000144958496"/><path d="M579.4,265.9v8.8H577v-5.8l-1.1.8-1.4.5v-2a6.6,6.6,0,0,0,1.9-.9,4.5,4.5,0,0,0,1-1.4Z" style="fill:none;stroke:#fff;stroke-miterlimit:9.998000144958496"/><path d="M571.4,265.9v8.8H569v-5.8l-1.1.8-1.4.5v-2a6.6,6.6,0,0,0,1.9-.9,4.5,4.5,0,0,0,1-1.4Z" style="fill:none;stroke:#fff;stroke-miterlimit:9.998000144958496"/><path d="M579.4,265.9v8.8H577v-5.8l-1.1.8-1.4.5v-2a6.6,6.6,0,0,0,1.9-.9,4.5,4.5,0,0,0,1-1.4Z" style="fill:none;stroke:#fff;stroke-miterlimit:9.998000144958496"/><path d="M571.4,239.1v8.7H569v-5.7l-1.1.7-1.4.5v-1.9a6.9,6.9,0,0,0,1.9-1,3.2,3.2,0,0,0,1-1.3Z" style="fill:none;stroke:#fff;stroke-miterlimit:9.998000144958496"/><path d="M581,247.8h-7.2a5,5,0,0,1,.8-2,8,8,0,0,1,2.3-2.2c.7-.5,1.2-.9,1.3-1.2a1.1,1.1,0,0,0,.3-.8,1.4,1.4,0,0,0-.2-.6,1.1,1.1,0,0,0-.8-.3.9.9,0,0,0-.7.3,1.8,1.8,0,0,0-.4,1l-2.4-.2a4.3,4.3,0,0,1,.5-1.6l1.1-.8a6.2,6.2,0,0,1,3.8,0,1.5,1.5,0,0,1,1.1.8,2.3,2.3,0,0,1,.4,1.4,2.8,2.8,0,0,1-.4,1.5,8,8,0,0,1-1.7,1.5l-1,.7-.5.6H581Z" style="fill:none;stroke:#fff;stroke-miterlimit:9.998000144958496"/><path d="M571.4,239.1v8.7H569v-5.7l-1.1.7-1.4.5v-1.9a6.9,6.9,0,0,0,1.9-1,3.2,3.2,0,0,0,1-1.3Z" style="fill:none;stroke:#fff;stroke-miterlimit:9.998000144958496"/><path d="M581,247.8h-7.2a5,5,0,0,1,.8-2,8,8,0,0,1,2.3-2.2c.7-.5,1.2-.9,1.3-1.2a1.1,1.1,0,0,0,.3-.8,1.4,1.4,0,0,0-.2-.6,1.1,1.1,0,0,0-.8-.3.9.9,0,0,0-.7.3,1.8,1.8,0,0,0-.4,1l-2.4-.2a4.3,4.3,0,0,1,.5-1.6l1.1-.8a6.2,6.2,0,0,1,3.8,0,1.5,1.5,0,0,1,1.1.8,2.3,2.3,0,0,1,.4,1.4,2.8,2.8,0,0,1-.4,1.5,8,8,0,0,1-1.7,1.5l-1,.7-.5.6H581Z" style="fill:none;stroke:#fff;stroke-miterlimit:9.998000144958496"/><path d="M571.4,212.2v8.7H569v-5.7l-1.1.7-1.4.6v-2a6.6,6.6,0,0,0,1.9-.9,4.5,4.5,0,0,0,1-1.4Z" style="fill:none;stroke:#fff;stroke-miterlimit:9.998000144958496"/><path d="M576.3,214.8l-2.2-.4a2.7,2.7,0,0,1,1-1.6,4.6,4.6,0,0,1,2.3-.6,3.5,3.5,0,0,1,2.4.6,2.1,2.1,0,0,1,.8,1.6,1.7,1.7,0,0,1-.3,1,2.4,2.4,0,0,1-.9.8l.7.3a2.3,2.3,0,0,1,.7.7,3.6,3.6,0,0,1,.2,1,2.8,2.8,0,0,1-.4,1.5,1.8,1.8,0,0,1-1.1,1,4.1,4.1,0,0,1-1.9.4,6.3,6.3,0,0,1-1.9-.3,2.8,2.8,0,0,1-1.1-.8,5.4,5.4,0,0,1-.7-1.3l2.4-.3a3,3,0,0,0,.4,1l.8.2a1.1,1.1,0,0,0,.8-.3,1.6,1.6,0,0,0,.3-.9,1.7,1.7,0,0,0-.3-1,1.1,1.1,0,0,0-.8-.3h-.8v-1.7h.3a1.1,1.1,0,0,0,.8-.3.9.9,0,0,0,.3-.7.8.8,0,0,0-.2-.7l-.6-.2-.7.2A2,2,0,0,0,576.3,214.8Z" style="fill:none;stroke:#fff;stroke-miterlimit:9.998000144958496"/><path d="M571.4,212.2v8.7H569v-5.7l-1.1.7-1.4.6v-2a6.6,6.6,0,0,0,1.9-.9,4.5,4.5,0,0,0,1-1.4Z" style="fill:none;stroke:#fff;stroke-miterlimit:9.998000144958496"/><path d="M576.3,214.8l-2.2-.4a2.7,2.7,0,0,1,1-1.6,4.6,4.6,0,0,1,2.3-.6,3.5,3.5,0,0,1,2.4.6,2.1,2.1,0,0,1,.8,1.6,1.7,1.7,0,0,1-.3,1,2.4,2.4,0,0,1-.9.8l.7.3a2.3,2.3,0,0,1,.7.7,3.6,3.6,0,0,1,.2,1,2.8,2.8,0,0,1-.4,1.5,1.8,1.8,0,0,1-1.1,1,4.1,4.1,0,0,1-1.9.4,6.3,6.3,0,0,1-1.9-.3,2.8,2.8,0,0,1-1.1-.8,5.4,5.4,0,0,1-.7-1.3l2.4-.3a3,3,0,0,0,.4,1l.8.2a1.1,1.1,0,0,0,.8-.3,1.6,1.6,0,0,0,.3-.9,1.7,1.7,0,0,0-.3-1,1.1,1.1,0,0,0-.8-.3h-.8v-1.7h.3a1.1,1.1,0,0,0,.8-.3.9.9,0,0,0,.3-.7.8.8,0,0,0-.2-.7l-.6-.2-.7.2A2,2,0,0,0,576.3,214.8Z" style="fill:none;stroke:#fff;stroke-miterlimit:9.998000144958496"/><path d="M571.4,185.4v8.7H569v-5.7l-1.1.7-1.4.5v-1.9a6.9,6.9,0,0,0,1.9-1,4.1,4.1,0,0,0,1-1.3Z" style="fill:none;stroke:#fff;stroke-miterlimit:9.998000144958496"/><path d="M578.1,192.5h-4.4v-2l4.4-5.1h2.1v5.2h1.1v1.9h-1.1v1.6h-2.1Zm0-1.9v-2.7l-2.3,2.7Z" style="fill:none;stroke:#fff;stroke-miterlimit:9.998000144958496"/><path d="M571.4,185.4v8.7H569v-5.7l-1.1.7-1.4.5v-1.9a6.9,6.9,0,0,0,1.9-1,4.1,4.1,0,0,0,1-1.3Z" style="fill:none;stroke:#fff;stroke-miterlimit:9.998000144958496"/><path d="M578.1,192.5h-4.4v-2l4.4-5.1h2.1v5.2h1.1v1.9h-1.1v1.6h-2.1Zm0-1.9v-2.7l-2.3,2.7Z" style="fill:none;stroke:#fff;stroke-miterlimit:9.998000144958496"/><path d="M571.4,158.5v8.7H569v-5.7l-1.1.7-1.4.6v-2l1.9-.9a4.5,4.5,0,0,0,1-1.4Z" style="fill:none;stroke:#fff;stroke-miterlimit:9.998000144958496"/><path d="M575,158.6h5.6v2h-3.8l-.2,1.2.8-.2h.7a2.7,2.7,0,0,1,2.1.7,2.8,2.8,0,0,1,.8,2,2.9,2.9,0,0,1-.4,1.6,3.2,3.2,0,0,1-1.1,1.2,6.5,6.5,0,0,1-2,.4l-1.4-.2a1.6,1.6,0,0,1-1.1-.5l-.7-.7a4.2,4.2,0,0,1-.4-1l2.4-.3a3.6,3.6,0,0,0,.4.9,1.2,1.2,0,0,0,1.6,0,2.7,2.7,0,0,0,.3-1.2,2,2,0,0,0-.3-1.1,1.5,1.5,0,0,0-.9-.4l-.6.2a1.5,1.5,0,0,0-.6.5l-2-.3Z" style="fill:none;stroke:#fff;stroke-miterlimit:9.998000144958496"/><path d="M571.4,158.5v8.7H569v-5.7l-1.1.7-1.4.6v-2l1.9-.9a4.5,4.5,0,0,0,1-1.4Z" style="fill:none;stroke:#fff;stroke-miterlimit:9.998000144958496"/><path d="M575,158.6h5.6v2h-3.8l-.2,1.2.8-.2h.7a2.7,2.7,0,0,1,2.1.7,2.8,2.8,0,0,1,.8,2,2.9,2.9,0,0,1-.4,1.6,3.2,3.2,0,0,1-1.1,1.2,6.5,6.5,0,0,1-2,.4l-1.4-.2a1.6,1.6,0,0,1-1.1-.5l-.7-.7a4.2,4.2,0,0,1-.4-1l2.4-.3a3.6,3.6,0,0,0,.4.9,1.2,1.2,0,0,0,1.6,0,2.7,2.7,0,0,0,.3-1.2,2,2,0,0,0-.3-1.1,1.5,1.5,0,0,0-.9-.4l-.6.2a1.5,1.5,0,0,0-.6.5l-2-.3Z" style="fill:none;stroke:#fff;stroke-miterlimit:9.998000144958496"/><path d="M571.4,131.6v8.8H569v-5.7l-1.1.7-1.4.5v-2a6.6,6.6,0,0,0,1.9-.9,4.5,4.5,0,0,0,1-1.4Z" style="fill:none;stroke:#fff;stroke-miterlimit:9.998000144958496"/><path d="M580.9,133.7l-2.4.3a.9.9,0,0,0-.3-.7l-.5-.2a1,1,0,0,0-.9.6,5.8,5.8,0,0,0-.4,1.8l.9-.6a1.8,1.8,0,0,1,1-.2,2.2,2.2,0,0,1,2,.8,3.2,3.2,0,0,1,.8,2.1,4.2,4.2,0,0,1-.4,1.5l-1.1,1.1a5.7,5.7,0,0,1-1.8.3,3.9,3.9,0,0,1-2.1-.4,3.3,3.3,0,0,1-1.2-1.4,7.5,7.5,0,0,1-.5-2.6,4.7,4.7,0,0,1,1-3.4,3.2,3.2,0,0,1,2.7-1.1,4.5,4.5,0,0,1,1.6.3,2.3,2.3,0,0,1,1,.7A2.4,2.4,0,0,1,580.9,133.7Zm-4.4,3.9a1.3,1.3,0,0,0,.4,1,.9.9,0,0,0,.8.4,1.1,1.1,0,0,0,.8-.3,2.2,2.2,0,0,0,0-2.2,1.2,1.2,0,0,0-.8-.4,1.5,1.5,0,0,0-.9.4,1.4,1.4,0,0,0-.3,1.1Z" style="fill:none;stroke:#fff;stroke-miterlimit:9.998000144958496"/><path d="M571.4,131.6v8.8H569v-5.7l-1.1.7-1.4.5v-2a6.6,6.6,0,0,0,1.9-.9,4.5,4.5,0,0,0,1-1.4Z" style="fill:none;stroke:#fff;stroke-miterlimit:9.998000144958496"/><path d="M580.9,133.7l-2.4.3a.9.9,0,0,0-.3-.7l-.5-.2a1,1,0,0,0-.9.6,5.8,5.8,0,0,0-.4,1.8l.9-.6a1.8,1.8,0,0,1,1-.2,2.2,2.2,0,0,1,2,.8,3.2,3.2,0,0,1,.8,2.1,4.2,4.2,0,0,1-.4,1.5l-1.1,1.1a5.7,5.7,0,0,1-1.8.3,3.9,3.9,0,0,1-2.1-.4,3.3,3.3,0,0,1-1.2-1.4,7.5,7.5,0,0,1-.5-2.6,4.7,4.7,0,0,1,1-3.4,3.2,3.2,0,0,1,2.7-1.1,4.5,4.5,0,0,1,1.6.3,2.3,2.3,0,0,1,1,.7A2.4,2.4,0,0,1,580.9,133.7Zm-4.4,3.9a1.3,1.3,0,0,0,.4,1,.9.9,0,0,0,.8.4,1.1,1.1,0,0,0,.8-.3,2.2,2.2,0,0,0,0-2.2,1.2,1.2,0,0,0-.8-.4,1.5,1.5,0,0,0-.9.4,1.4,1.4,0,0,0-.3,1.1Z" style="fill:none;stroke:#fff;stroke-miterlimit:9.998000144958496"/><path d="M571.4,104.8v8.7H569v-5.7l-1.1.7-1.4.6v-2a6.9,6.9,0,0,0,1.9-1,3.2,3.2,0,0,0,1-1.3Z" style="fill:none;stroke:#fff;stroke-miterlimit:9.998000144958496"/><path d="M574,104.9h7v1.6a8.4,8.4,0,0,0-1.5,1.8,12.3,12.3,0,0,0-1.2,2.6,7.5,7.5,0,0,0-.4,2.6h-2.4a10.6,10.6,0,0,1,.9-3.5,11.7,11.7,0,0,1,1.9-3H574Z" style="fill:none;stroke:#fff;stroke-miterlimit:9.998000144958496"/><path d="M571.4,104.8v8.7H569v-5.7l-1.1.7-1.4.6v-2a6.9,6.9,0,0,0,1.9-1,3.2,3.2,0,0,0,1-1.3Z" style="fill:none;stroke:#fff;stroke-miterlimit:9.998000144958496"/><path d="M574,104.9h7v1.6a8.4,8.4,0,0,0-1.5,1.8,12.3,12.3,0,0,0-1.2,2.6,7.5,7.5,0,0,0-.4,2.6h-2.4a10.6,10.6,0,0,1,.9-3.5,11.7,11.7,0,0,1,1.9-3H574Z" style="fill:none;stroke:#fff;stroke-miterlimit:9.998000144958496"/><path d="M571.4,77.9v8.8H569V80.9l-1.1.8-1.4.5v-2a6.6,6.6,0,0,0,1.9-.9,4.5,4.5,0,0,0,1-1.4Z" style="fill:none;stroke:#fff;stroke-miterlimit:9.998000144958496"/><path d="M575.4,82.1l-.8-.7a2.7,2.7,0,0,1-.3-1.2,1.9,1.9,0,0,1,1-1.7,3.9,3.9,0,0,1,2.1-.6,4.3,4.3,0,0,1,2.5.7,2.1,2.1,0,0,1,.8,1.6,2,2,0,0,1-.3,1.1,3,3,0,0,1-.8.8l1.1.8a2.8,2.8,0,0,1,.3,1.3,2.7,2.7,0,0,1-.3,1.2,2.7,2.7,0,0,1-.7.8l-1.1.5h-1.3a7.6,7.6,0,0,1-2.1-.3,1.8,1.8,0,0,1-1.1-1,2.7,2.7,0,0,1-.1-2.6A1.4,1.4,0,0,1,575.4,82.1Zm1,2a1.6,1.6,0,0,0,.3.9,1.1,1.1,0,0,0,1.4.2l.2-.2a1.6,1.6,0,0,0,.3-.9,1.7,1.7,0,0,0-.3-1,1.2,1.2,0,0,0-1.6,0A1.7,1.7,0,0,0,576.4,84.1Zm.1-3.7a1,1,0,1,0,1-1,1,1,0,0,0-1,1Z" style="fill:none;stroke:#fff;stroke-miterlimit:9.998000144958496"/><path d="M571.4,77.9v8.8H569V80.9l-1.1.8-1.4.5v-2a6.6,6.6,0,0,0,1.9-.9,4.5,4.5,0,0,0,1-1.4Z" style="fill:none;stroke:#fff;stroke-miterlimit:9.998000144958496"/><path d="M575.4,82.1l-.8-.7a2.7,2.7,0,0,1-.3-1.2,1.9,1.9,0,0,1,1-1.7,3.9,3.9,0,0,1,2.1-.6,4.3,4.3,0,0,1,2.5.7,2.1,2.1,0,0,1,.8,1.6,2,2,0,0,1-.3,1.1,3,3,0,0,1-.8.8l1.1.8a2.8,2.8,0,0,1,.3,1.3,2.7,2.7,0,0,1-.3,1.2,2.7,2.7,0,0,1-.7.8l-1.1.5h-1.3a7.6,7.6,0,0,1-2.1-.3,1.8,1.8,0,0,1-1.1-1,2.7,2.7,0,0,1-.1-2.6A1.4,1.4,0,0,1,575.4,82.1Zm1,2a1.6,1.6,0,0,0,.3.9,1.1,1.1,0,0,0,1.4.2l.2-.2a1.6,1.6,0,0,0,.3-.9,1.7,1.7,0,0,0-.3-1,1.2,1.2,0,0,0-1.6,0A1.7,1.7,0,0,0,576.4,84.1Zm.1-3.7a1,1,0,1,0,1-1,1,1,0,0,0-1,1Z" style="fill:none;stroke:#fff;stroke-miterlimit:9.998000144958496"/><text transform="translate(228.6 610.4)" style="isolation:isolate;font-size:47.99020004272461px;fill:none;stroke:#fff;stroke-miterlimit:10;font-family:Arial-BoldMT, Arial;font-weight:700">S</text><text transform="translate(263.2 610.4)" style="isolation:isolate;font-size:47.99020004272461px;fill:none;stroke:#fff;stroke-miterlimit:10;font-family:Arial-BoldMT, Arial;font-weight:700;letter-spacing:-0.04099347688691795em">O</text><text transform="translate(301.1 610.4)" style="isolation:isolate;font-size:47.99020004272461px;fill:none;stroke:#fff;stroke-miterlimit:10;font-family:Arial-BoldMT, Arial;font-weight:700;letter-spacing:-0.020003270181107143em">V</text><text transform="translate(336.8 610.4)" style="isolation:isolate;font-size:47.99020004272461px;fill:none;stroke:#fff;stroke-miterlimit:10;font-family:Arial-BoldMT, Arial;font-weight:700">O<tspan x="37.3" y="0" style="letter-spacing:-0.01807009554508967em">L</tspan></text><text transform="translate(228.6 610.4)" style="isolation:isolate;font-size:47.99020004272461px;fill:none;stroke:#fff;stroke-miterlimit:9.998000144958496;font-family:Arial-BoldMT, Arial;font-weight:700">S</text><text transform="translate(263.2 610.4)" style="isolation:isolate;font-size:47.99020004272461px;fill:none;stroke:#fff;stroke-miterlimit:9.998000144958496;font-family:Arial-BoldMT, Arial;font-weight:700;letter-spacing:-0.04099347688691795em">O</text><text transform="translate(301.1 610.4)" style="isolation:isolate;font-size:47.99020004272461px;fill:none;stroke:#fff;stroke-miterlimit:9.998000144958496;font-family:Arial-BoldMT, Arial;font-weight:700;letter-spacing:-0.020003270181107143em">V</text><text transform="translate(336.8 610.4)" style="isolation:isolate;font-size:47.99020004272461px;fill:none;stroke:#fff;stroke-miterlimit:9.998000144958496;font-family:Arial-BoldMT, Arial;font-weight:700">O<tspan x="37.3" y="0" style="letter-spacing:-0.01807009554508967em">L</tspan></text><text transform="translate(228.6 610.4)" style="isolation:isolate;font-size:47.99020004272461px;fill:none;stroke:#fff;stroke-miterlimit:10;font-family:Arial-BoldMT, Arial;font-weight:700">S</text><text transform="translate(263.2 610.4)" style="isolation:isolate;font-size:47.99020004272461px;fill:none;stroke:#fff;stroke-miterlimit:10;font-family:Arial-BoldMT, Arial;font-weight:700;letter-spacing:-0.04099347688691795em">O</text><text transform="translate(301.1 610.4)" style="isolation:isolate;font-size:47.99020004272461px;fill:none;stroke:#fff;stroke-miterlimit:10;font-family:Arial-BoldMT, Arial;font-weight:700;letter-spacing:-0.020003270181107143em">V</text><text transform="translate(336.8 610.4)" style="isolation:isolate;font-size:47.99020004272461px;fill:none;stroke:#fff;stroke-miterlimit:10;font-family:Arial-BoldMT, Arial;font-weight:700">O<tspan x="37.3" y="0" style="letter-spacing:-0.01807009554508967em">L</tspan></text><path d="M230.3,599.1l10.1-.7a8.2,8.2,0,0,0,1.3,3.8,5.6,5.6,0,0,0,4.7,2.1,4.9,4.9,0,0,0,3.5-1.1,3.1,3.1,0,0,0,1.3-2.5,3.3,3.3,0,0,0-1.2-2.4c-.8-.7-2.6-1.3-5.4-2-4.7-1-8-2.4-10-4.1a8.3,8.3,0,0,1-3-6.7,8.9,8.9,0,0,1,1.5-5,11.8,11.8,0,0,1,4.6-3.7,22.3,22.3,0,0,1,8.5-1.3c4.4,0,7.7.8,10,2.4s3.7,4.3,4.2,7.8l-10.1.6a5.4,5.4,0,0,0-1.6-3.4,5.8,5.8,0,0,0-3.6-1,3.8,3.8,0,0,0-2.7.8,2.3,2.3,0,0,0-1,1.9,2.2,2.2,0,0,0,.8,1.5,11.2,11.2,0,0,0,3.5,1.2c4.7,1,8,2,10,3.1a9.5,9.5,0,0,1,5.8,8.8,10.3,10.3,0,0,1-1.9,6.1,11.3,11.3,0,0,1-5.1,4.3,20.8,20.8,0,0,1-8.2,1.4c-5.9,0-9.9-1.1-12.2-3.4A13.1,13.1,0,0,1,230.3,599.1Z" style="fill:none;stroke:#fff;stroke-miterlimit:9.998000144958496"/><path d="M301.3,576.1h11.1l7.7,24.7,7.6-24.7h10.8l-12.7,34.3H314.2Z" style="fill:none;stroke:#fff;stroke-miterlimit:9.998000144958496"/><path d="M380.3,576.1h10.6V602h16.6v8.4H380.3Z" style="fill:none;stroke:#fff;stroke-miterlimit:9.998000144958496"/><path d="M277.9,600.8c-1.3-1.5-1.9-4-1.9-7.5s.6-6,1.9-7.5l.5-.5a7.6,7.6,0,0,1,2.6-1.5v-8.2a17,17,0,0,0-10.9,4.6c-3.2,3.1-4.7,7.5-4.7,13.1a19.5,19.5,0,0,0,2.4,10,14.5,14.5,0,0,0,6.1,5.9,21.7,21.7,0,0,0,7.1,1.7v-8.1A7.9,7.9,0,0,1,277.9,600.8Z" style="fill:none;stroke:#fff;stroke-miterlimit:9.998000144958496"/><path d="M301,593c0-5.5-1.7-9.8-4.7-12.9s-6.3-4.1-10.9-4.5v8.3a8,8,0,0,1,3,1.9c1.3,1.5,2,3.1,2,7s-.7,6.6-1.9,8a5.8,5.8,0,0,1-3.1,2v8.1a20.5,20.5,0,0,0,7.7-2.1,15.5,15.5,0,0,0,5.9-6A20.5,20.5,0,0,0,301,593Z" style="fill:none;stroke:#fff;stroke-miterlimit:9.998000144958496"/><path d="M351.5,600.8c-1.3-1.5-1.9-4-1.9-7.5s.6-6,1.9-7.5l.5-.5a7.6,7.6,0,0,1,2.6-1.5v-8.2a17,17,0,0,0-10.9,4.6c-3.2,3.1-4.7,7.5-4.7,13.1a19.5,19.5,0,0,0,2.4,10,14.5,14.5,0,0,0,6.1,5.9,21.7,21.7,0,0,0,7.1,1.7v-8.1A6.2,6.2,0,0,1,351.5,600.8Z" style="fill:none;stroke:#fff;stroke-miterlimit:9.998000144958496"/><path d="M374.6,593c0-5.5-1.7-9.8-4.7-12.9s-6.3-4.1-10.9-4.5v8.3a8,8,0,0,1,3,1.9c1.3,1.5,2,3.1,2,7s-.7,6.6-1.9,8a5.8,5.8,0,0,1-3.1,2v8.1a20.5,20.5,0,0,0,7.7-2.1,15.5,15.5,0,0,0,5.9-6A21.8,21.8,0,0,0,374.6,593Z" style="fill:none;stroke:#fff;stroke-miterlimit:9.998000144958496"/></svg>