<?xml version="1.0" encoding="UTF-8" standalone="no"?>
<svg
   xmlns:sketch="http://www.bohemiancoding.com/sketch/ns"
   xmlns:dc="http://purl.org/dc/elements/1.1/"
   xmlns:cc="http://creativecommons.org/ns#"
   xmlns:rdf="http://www.w3.org/1999/02/22-rdf-syntax-ns#"
   xmlns:svg="http://www.w3.org/2000/svg"
   xmlns="http://www.w3.org/2000/svg"
   xmlns:sodipodi="http://sodipodi.sourceforge.net/DTD/sodipodi-0.dtd"
   xmlns:inkscape="http://www.inkscape.org/namespaces/inkscape"
   width="300px"
   height="300px"
   viewBox="0 0 300 300"
   version="1.1"
   id="svg159"
   sodipodi:docname="rr-vminion.svg"
   inkscape:version="1.0.2-2 (e86c870879, 2021-01-15)">
  <metadata
     id="metadata163">
    <rdf:RDF>
      <cc:Work
         rdf:about="">
        <dc:format>image/svg+xml</dc:format>
        <dc:type
           rdf:resource="http://purl.org/dc/dcmitype/StillImage" />
      </cc:Work>
    </rdf:RDF>
  </metadata>
  <sodipodi:namedview
     pagecolor="#ffffff"
     bordercolor="#666666"
     borderopacity="1"
     objecttolerance="10"
     gridtolerance="10"
     guidetolerance="10"
     inkscape:pageopacity="0"
     inkscape:pageshadow="2"
     inkscape:window-width="2185"
     inkscape:window-height="1274"
     id="namedview161"
     showgrid="false"
     inkscape:zoom="3.36"
     inkscape:cx="150"
     inkscape:cy="150"
     inkscape:window-x="0"
     inkscape:window-y="0"
     inkscape:window-maximized="0"
     inkscape:current-layer="Bed-Texture" />
  <!-- Generator: Sketch 3.4.2 (15855) - http://www.bohemiancoding.com/sketch -->
  <title
     id="title2">Bed-Texture</title>
  <desc
     id="desc4">Created with Sketch.</desc>
  <defs
     id="defs6" />
  <g
     id="Page-1"
     stroke="none"
     stroke-width="1"
     fill="none"
     fill-rule="evenodd"
     sketch:type="MSPage">
    <g
       id="Bed-Texture"
       sketch:type="MSLayerGroup">
      <rect
         id="Rectangle-1"
         sketch:type="MSShapeGroup"
         x="0"
         y="0"
         width="300"
         height="300" />
      <g
         id="Rat"
         transform="translate(51.000000, 44.000000)"
         stroke="#A4A4A4"
         stroke-width="2"
         sketch:type="MSShapeGroup">
        <path
           d="M53.1863017,68.8934971 C51.7448159,70.7362658 50.5700656,74.728412 52.1759679,79.9212672 C53.9116279,85.5337072 59.0265264,93.0456191 62.5614289,97.83691 C65.4044733,101.69044 66.9560191,103.651981 66.9560191,102.45545 C66.9560191,97.5183173 67.4726397,86.116796 67.4726397,86.116796 C67.4726397,86.116796 62.5071023,77.0787946 59.8429912,73.0505749 C58.4653649,70.9675607 55.3474276,67.7830944 55.3474276,67.7830944 C55.3474276,67.7830944 54.1040938,67.7202088 53.1863017,68.8934971 Z"
           id="Path-1" />
        <path
           d="M28.4795395,24.4758805 C27.6462119,25.5133639 25.5179075,28.0390895 24.0731938,29.6405795 C22.3815456,31.5158005 21.4177518,32.4063383 21.4177518,32.4063383 C21.4177518,32.4063383 20.3939318,31.7981924 19.1924252,28.9340692 C17.8707264,25.7834344 16.3356088,20.2839047 15.7487902,18.6978077 C14.7333568,15.9532187 15.0106316,15.0886973 15.0106316,15.0886973 C15.0106316,15.0886973 22.7646769,18.0618222 25.5338375,19.4712315 C26.3694078,19.8965086 27.3832462,20.3336221 28.0430946,20.8625505 C28.9926221,21.6236829 29.4320022,22.4286885 29.4320022,22.4286885 C29.4320022,22.4286885 29.3418664,23.4022934 28.4795395,24.4758805 Z"
           id="Path-2" />
        <g
           id="Path-3-+-Line">
          <path
             d="M99.8081462,14.8032599 L33.32444,14.8249616 L0.285135991,0.068119169 L55.3061342,138.158033 C55.3061342,138.158033 55.0018129,138.648807 53.3517771,138.785272 C47.365433,139.280366 32.3969945,140.05271 32.3969945,140.05271 C32.3969945,140.05271 48.1175378,139.966232 54.6195171,140.743246 C56.6753349,140.988924 58.0703859,143.120785 58.0703859,143.120785 C58.0703859,143.120785 58.9977822,146.230003 57.353929,147.339653 C55.5432294,148.561929 46.818777,152.071818 43.7738,153.568337 C37.7446674,156.531482 36.9510322,157.376982 36.9510322,157.376982 C36.9510322,157.376982 38.0657847,157.412254 39.0856338,157.064719 C43.3418487,155.614323 51.613483,152.071493 56.4551177,150.299822 C59.3296896,149.247947 60.3602148,149.399805 60.3602148,149.399805 C60.3602148,149.399805 61.3426032,151.438756 61.6225293,152.264126 C61.8676633,152.98691 61.9353952,154.044267 61.9353952,154.044267 C61.9353952,154.044267 61.2106128,156.265146 60.3602148,157.376982 C58.3914999,159.95094 54.0689535,164.594391 51.3317122,167.871252 C48.3106102,171.487935 46.9594261,173.624308 46.9594261,173.624308 C46.9594261,173.624308 51.0528596,170.118595 52.290806,168.968092 C55.2248289,166.241316 59.512001,161.753989 61.9353952,159.413323 C63.1183301,158.270771 63.7719001,157.999398 63.7719001,157.999398 C63.7719001,157.999398 67.0801145,165.166646 68.3096616,167.175292 C71.925216,173.081832 78.3072046,181.744957 78.3072046,181.744957 L99.9009811,181.690703"
             id="Path-3" />
          <path
             d="M99.3840591,15.1236612 L99.3840591,181.483934"
             id="path130"
             stroke-linecap="square" />
        </g>
        <path
           d="M99.3704958,185.423362 C99.3704958,185.423362 88.2282785,185.268085 83.2594081,185.423362 C82.5472604,185.445617 82.3274414,185.955957 82.3274414,185.955957 C82.3274414,185.955957 81.9641327,187.333597 82.8558171,188.102917 C84.8520648,189.825223 88.8865453,196.993087 91.9421906,199.284407 C93.9419971,200.78399 95.5351189,200.616024 96.8256719,200.594947 C98.269265,200.571372 99.2948413,200.594948 99.2948413,200.594948 L99.3704958,185.423362 Z"
           id="Path-4" />
      </g>
      <rect
         id="rect155"
         stroke="#000000"
         stroke-width="2"
         sketch:type="MSShapeGroup"
         x="0"
         y="0"
         width="300"
         height="300" />
    </g>
  </g>
</svg>
