<?xml version="1.0" encoding="UTF-8"?>
<svg width="500px" height="500px" viewBox="0 0 500 500" version="1.1" xmlns="http://www.w3.org/2000/svg" xmlns:xlink="http://www.w3.org/1999/xlink" xmlns:sketch="http://www.bohemiancoding.com/sketch/ns">
    <!-- Generator: Sketch 3.4.2 (15855) - http://www.bohemiancoding.com/sketch -->
    <title>Bed-Texture</title>
    <desc>Created with Sketch.</desc>
    <defs></defs>
    <g id="Page-1" stroke="none" stroke-width="1" fill="none" fill-rule="evenodd" sketch:type="MSPage">
        <g id="Bed-Texture" sketch:type="MSLayerGroup">
            <rect id="Rectangle-1" sketch:type="MSShapeGroup" x="0" y="0" width="500" height="500"></rect>
            <g id="Grid-H-10" transform="translate(10.000000, 9.000000)" stroke="#5D5D5D" stroke-linecap="square" stroke-dasharray="4,2" sketch:type="MSShapeGroup">
                <path d="M0,1 L489,1" id="Line"></path>
                <path d="M0,11 L489,11" id="Line"></path>
                <path d="M0,21 L489,21" id="Line"></path>
                <path d="M0,31 L489,31" id="Line"></path>
                <path d="M0,51 L489,51" id="Line"></path>
                <path d="M0,61 L489,61" id="Line"></path>
                <path d="M0,71 L489,71" id="Line"></path>
                <path d="M0,81 L489,81" id="Line"></path>
                <path d="M0,101 L489,101" id="Line"></path>
                <path d="M0,111 L489,111" id="Line"></path>
                <path d="M0,121 L489,121" id="Line"></path>
                <path d="M0,131 L489,131" id="Line"></path>
                <path d="M0,151 L489,151" id="Line"></path>
                <path d="M0,161 L489,161" id="Line"></path>
                <path d="M0,171 L489,171" id="Line"></path>
                <path d="M0,181 L489,181" id="Line"></path>
                <path d="M0,201 L489,201" id="Line"></path>
                <path d="M0,211 L489,211" id="Line"></path>
                <path d="M0,221 L489,221" id="Line"></path>
                <path d="M0,231 L489,231" id="Line"></path>
                <path d="M0,251 L489,251" id="Line"></path>
                <path d="M0,261 L489,261" id="Line"></path>
                <path d="M0,271 L489,271" id="Line"></path>
                <path d="M0,281 L489,281" id="Line"></path>
                <path d="M0,301 L489,301" id="Line"></path>
                <path d="M0,311 L489,311" id="Line"></path>
                <path d="M0,321 L489,321" id="Line"></path>
                <path d="M0,331 L489,331" id="Line"></path>
                <path d="M0,351 L489,351" id="Line"></path>
                <path d="M0,361 L489,361" id="Line"></path>
                <path d="M0,371 L489,371" id="Line"></path>
                <path d="M0,381 L489,381" id="Line"></path>
                <path d="M0,401 L489,401" id="Line"></path>
                <path d="M0,411 L489,411" id="Line"></path>
                <path d="M0,421 L489,421" id="Line"></path>
                <path d="M0,431 L489,431" id="Line"></path>
                <path d="M0,451 L489,451" id="Line"></path>
                <path d="M0,461 L489,461" id="Line"></path>
                <path d="M0,471 L489,471" id="Line"></path>
                <path d="M0,481 L489,481" id="Line"></path>
            </g>
            <g id="Grid-V-10" transform="translate(9.000000, 1.000000)" stroke="#5D5D5D" stroke-linecap="square" stroke-dasharray="4,2" sketch:type="MSShapeGroup">
                <path d="M1,0 L1,489" id="Line"></path>
                <path d="M11,0 L11,489" id="Line"></path>
                <path d="M21,0 L21,489" id="Line"></path>
                <path d="M31,0 L31,489" id="Line"></path>
                <path d="M51,0 L51,489" id="Line"></path>
                <path d="M61,0 L61,489" id="Line"></path>
                <path d="M71,0 L71,489" id="Line"></path>
                <path d="M81,0 L81,489" id="Line"></path>
                <path d="M101,0 L101,489" id="Line"></path>
                <path d="M111,0 L111,489" id="Line"></path>
                <path d="M121,0 L121,489" id="Line"></path>
                <path d="M131,0 L131,489" id="Line"></path>
                <path d="M151,0 L151,489" id="Line"></path>
                <path d="M161,0 L161,489" id="Line"></path>
                <path d="M171,0 L171,489" id="Line"></path>
                <path d="M181,0 L181,489" id="Line"></path>
                <path d="M201,0 L201,489" id="Line"></path>
                <path d="M211,0 L211,489" id="Line"></path>
                <path d="M221,0 L221,489" id="Line"></path>
                <path d="M231,0 L231,489" id="Line"></path>
                <path d="M251,0 L251,489" id="Line"></path>
                <path d="M261,0 L261,489" id="Line"></path>
                <path d="M271,0 L271,489" id="Line"></path>
                <path d="M281,0 L281,489" id="Line"></path>
                <path d="M301,0 L301,489" id="Line"></path>
                <path d="M311,0 L311,489" id="Line"></path>
                <path d="M321,0 L321,489" id="Line"></path>
                <path d="M331,0 L331,489" id="Line"></path>
                <path d="M351,0 L351,489" id="Line"></path>
                <path d="M361,0 L361,489" id="Line"></path>
                <path d="M371,0 L371,489" id="Line"></path>
                <path d="M381,0 L381,489" id="Line"></path>
                <path d="M401,0 L401,489" id="Line"></path>
                <path d="M411,0 L411,489" id="Line"></path>
                <path d="M421,0 L421,489" id="Line"></path>
                <path d="M431,0 L431,489" id="Line"></path>
                <path d="M451,0 L451,489" id="Line"></path>
                <path d="M461,0 L461,489" id="Line"></path>
                <path d="M471,0 L471,489" id="Line"></path>
                <path d="M481,0 L481,489" id="Line"></path>
            </g>
            <g id="Grid-50" transform="translate(10.000000, 1.000000)" stroke="#979797" stroke-linecap="square" sketch:type="MSShapeGroup">
                <path d="M0,49 L489,49" id="Line"></path>
                <path d="M0,99 L489,99" id="Line"></path>
                <path d="M0,149 L489,149" id="Line"></path>
                <path d="M0,199 L489,199" id="Line"></path>
                <path d="M0,249 L489,249" id="Line"></path>
                <path d="M0,299 L489,299" id="Line"></path>
                <path d="M0,349 L489,349" id="Line"></path>
                <path d="M0,399 L489,399" id="Line"></path>
                <path d="M0,449 L489,449" id="Line"></path>
                <path d="M40,0 L40,489" id="Line"></path>
                <path d="M90,0 L90,489" id="Line"></path>
                <path d="M140,0 L140,489" id="Line"></path>
                <path d="M190,0 L190,489" id="Line"></path>
                <path d="M240,0 L240,489" id="Line"></path>
                <path d="M290,0 L290,489" id="Line"></path>
                <path d="M340,0 L340,489" id="Line"></path>
                <path d="M390,0 L390,489" id="Line"></path>
                <path d="M440,0 L440,489" id="Line"></path>
            </g>
            <g id="Rat" transform="translate(89.000000, 87.000000)" stroke="#A4A4A4" stroke-width="2" sketch:type="MSShapeGroup">
                <path d="M86.1606444,111.605957 C83.8254689,114.591202 81.9223991,121.058391 84.5239258,129.470703 C87.3356569,138.562733 95.6216806,150.731866 101.348145,158.493652 C105.953815,164.736287 108.467285,167.913939 108.467285,165.975586 C108.467285,157.977539 109.304199,139.507324 109.304199,139.507324 C109.304199,139.507324 101.260137,124.86596 96.9443356,118.340332 C94.7126112,114.965895 89.6616211,109.807129 89.6616211,109.807129 C89.6616211,109.807129 87.6474474,109.705256 86.1606444,111.605957 Z" id="Path-1"></path>
                <path d="M46.1362305,39.6503906 C44.786258,41.3310909 41.3384515,45.4227111 38.9980469,48.0170898 C36.2576139,51.0549068 34.6962891,52.4975586 34.6962891,52.4975586 C34.6962891,52.4975586 33.037723,51.5123755 31.0913087,46.8725586 C28.9501856,41.7685993 26.4633287,32.8594815 25.5126953,30.2900391 C23.8677154,25.843865 24.3168945,24.4433594 24.3168945,24.4433594 C24.3168945,24.4433594 36.8782782,29.2597565 41.3642578,31.5429688 C42.7178633,32.2319083 44.3602594,32.9400226 45.4291993,33.796875 C46.967413,35.0298929 47.6791992,36.3339844 47.6791992,36.3339844 C47.6791992,36.3339844 47.5331813,37.9112029 46.1362305,39.6503906 Z" id="Path-2"></path>
                <g id="Path-3-+-Line">
                    <path d="M161.687012,23.980957 L53.9848633,24.0161133 L0.461914062,0.110351563 L89.5947266,223.812988 C89.5947266,223.812988 89.1017327,224.608032 86.4287109,224.829102 C76.7309645,225.631144 52.4824219,226.882324 52.4824219,226.882324 C52.4824219,226.882324 77.9493578,226.742232 88.4824219,228.000977 C91.8128018,228.398971 94.0727539,231.852539 94.0727539,231.852539 C94.0727539,231.852539 95.5751156,236.889403 92.9121094,238.687012 C89.9788156,240.667073 75.8453937,246.353016 70.9125977,248.777344 C61.1455348,253.577574 59.8598633,254.947266 59.8598633,254.947266 C59.8598633,254.947266 61.6657379,255.004406 63.3178711,254.441406 C70.212846,252.091797 83.6127126,246.352489 91.4560547,243.482422 C96.1127983,241.778407 97.7822266,242.024414 97.7822266,242.024414 C97.7822266,242.024414 99.3736742,245.32747 99.8271484,246.664551 C100.22426,247.835445 100.333984,249.54834 100.333984,249.54834 C100.333984,249.54834 99.1598526,253.146115 97.7822266,254.947266 C94.5929516,259.117022 87.590521,266.63931 83.15625,271.947754 C78.2621309,277.8067 76.0732422,281.267578 76.0732422,281.267578 C76.0732422,281.267578 82.7045149,275.588399 84.7099609,273.724609 C89.4630138,269.307293 96.4081387,262.037921 100.333984,258.246094 C102.250313,256.395184 103.309082,255.955566 103.309082,255.955566 C103.309082,255.955566 108.668317,267.56635 110.660156,270.820312 C116.517275,280.388778 126.855957,294.422852 126.855957,294.422852 L161.837402,294.334961" id="Path-3"></path>
                    <path d="M161,24.5 L161,294" id="Line" stroke-linecap="square"></path>
                </g>
                <path d="M160.978028,300.381787 C160.978028,300.381787 142.92788,300.130241 134.878418,300.381787 C133.724755,300.417839 133.368653,301.24458 133.368653,301.24458 C133.368653,301.24458 132.7801,303.476326 134.22461,304.722608 C137.458487,307.512705 143.994257,319.124489 148.944336,322.836376 C152.183979,325.265669 154.764801,324.993566 156.855469,324.959423 C159.194058,324.921231 160.855469,324.959424 160.855469,324.959424 L160.978028,300.381787 Z" id="Path-4"></path>
            </g>
            <g id="Numbers" transform="translate(2.000000, 8.000000)" sketch:type="MSShapeGroup">
                <path d="M4.125,483 L3.57617188,483 L3.57617188,480.931641 C3.37565004,481.119142 3.13932428,481.257812 2.8671875,481.347656 L2.8671875,480.849609 C3.01041738,480.802734 3.16601479,480.713868 3.33398438,480.583008 C3.50195396,480.452148 3.61718719,480.29948 3.6796875,480.125 L4.125,480.125 L4.125,483 Z M5.87304688,480.125 C6.15039201,480.125 6.36718672,480.223957 6.5234375,480.421875 C6.70963635,480.656251 6.80273438,481.044919 6.80273438,481.587891 C6.80273438,482.12956 6.70898531,482.518879 6.52148438,482.755859 C6.36653568,482.951173 6.15039201,483.048828 5.87304688,483.048828 C5.59439965,483.048828 5.36979252,482.941733 5.19921875,482.727539 C5.02864498,482.513345 4.94335938,482.131513 4.94335938,481.582031 C4.94335938,481.042966 5.03710844,480.654949 5.22460938,480.417969 C5.37955807,480.222655 5.59570174,480.125 5.87304688,480.125 L5.87304688,480.125 Z M5.87304688,480.580078 C5.80664029,480.580078 5.74739609,480.601237 5.6953125,480.643555 C5.64322891,480.685873 5.60286473,480.761718 5.57421875,480.871094 C5.53645814,481.013022 5.51757812,481.251951 5.51757812,481.587891 C5.51757812,481.92383 5.53450504,482.154622 5.56835938,482.280273 C5.60221371,482.405925 5.64485651,482.489583 5.69628906,482.53125 C5.74772161,482.572917 5.80664029,482.59375 5.87304688,482.59375 C5.93945346,482.59375 5.99869766,482.572591 6.05078125,482.530273 C6.10286484,482.487956 6.14322902,482.41211 6.171875,482.302734 C6.20963561,482.162109 6.22851562,481.92383 6.22851562,481.587891 C6.22851562,481.251951 6.21158871,481.021159 6.17773438,480.895508 C6.14388004,480.769856 6.10123724,480.685873 6.04980469,480.643555 C5.99837214,480.601237 5.93945346,480.580078 5.87304688,480.580078 L5.87304688,480.580078 Z" id="10" fill="#A4A4A4"></path>
                <path d="M2.72851562,442.263672 L3.27539062,442.207031 C3.2910157,442.33073 3.3372392,442.428711 3.4140625,442.500977 C3.4908858,442.573243 3.57942658,442.609375 3.6796875,442.609375 C3.79427141,442.609375 3.89127564,442.562826 3.97070312,442.469727 C4.05013061,442.376627 4.08984375,442.236329 4.08984375,442.048828 C4.08984375,441.873046 4.05045612,441.741211 3.97167969,441.65332 C3.89290325,441.565429 3.79036521,441.521484 3.6640625,441.521484 C3.50650963,441.521484 3.365235,441.591145 3.24023438,441.730469 L2.79492188,441.666016 L3.07617188,440.175781 L4.52734375,440.175781 L4.52734375,440.689453 L3.4921875,440.689453 L3.40625,441.175781 C3.52864645,441.114583 3.6536452,441.083984 3.78125,441.083984 C4.0247408,441.083984 4.23111895,441.172525 4.40039062,441.349609 C4.5696623,441.526694 4.65429688,441.756509 4.65429688,442.039062 C4.65429688,442.274741 4.58593818,442.485025 4.44921875,442.669922 C4.2630199,442.922527 4.00455895,443.048828 3.67382812,443.048828 C3.40950389,443.048828 3.19401125,442.977865 3.02734375,442.835938 C2.86067625,442.69401 2.76106787,442.503256 2.72851562,442.263672 L2.72851562,442.263672 Z M5.87304688,440.125 C6.15039201,440.125 6.36718672,440.223957 6.5234375,440.421875 C6.70963635,440.656251 6.80273438,441.044919 6.80273438,441.587891 C6.80273438,442.12956 6.70898531,442.518879 6.52148438,442.755859 C6.36653568,442.951173 6.15039201,443.048828 5.87304688,443.048828 C5.59439965,443.048828 5.36979252,442.941733 5.19921875,442.727539 C5.02864498,442.513345 4.94335938,442.131513 4.94335938,441.582031 C4.94335938,441.042966 5.03710844,440.654949 5.22460938,440.417969 C5.37955807,440.222655 5.59570174,440.125 5.87304688,440.125 L5.87304688,440.125 Z M5.87304688,440.580078 C5.80664029,440.580078 5.74739609,440.601237 5.6953125,440.643555 C5.64322891,440.685873 5.60286473,440.761718 5.57421875,440.871094 C5.53645814,441.013022 5.51757812,441.251951 5.51757812,441.587891 C5.51757812,441.92383 5.53450504,442.154622 5.56835938,442.280273 C5.60221371,442.405925 5.64485651,442.489583 5.69628906,442.53125 C5.74772161,442.572917 5.80664029,442.59375 5.87304688,442.59375 C5.93945346,442.59375 5.99869766,442.572591 6.05078125,442.530273 C6.10286484,442.487956 6.14322902,442.41211 6.171875,442.302734 C6.20963561,442.162109 6.22851562,441.92383 6.22851562,441.587891 C6.22851562,441.251951 6.21158871,441.021159 6.17773438,440.895508 C6.14388004,440.769856 6.10123724,440.685873 6.04980469,440.643555 C5.99837214,440.601237 5.93945346,440.580078 5.87304688,440.580078 L5.87304688,440.580078 Z" id="50" fill="#E0E0E0"></path>
                <path d="M1.90039062,393 L1.3515625,393 L1.3515625,390.931641 C1.15104066,391.119142 0.914714902,391.257812 0.642578125,391.347656 L0.642578125,390.849609 C0.785808008,390.802734 0.94140541,390.713868 1.109375,390.583008 C1.27734459,390.452148 1.39257781,390.29948 1.45507812,390.125 L1.90039062,390.125 L1.90039062,393 Z M3.6484375,390.125 C3.92578264,390.125 4.14257734,390.223957 4.29882812,390.421875 C4.48502697,390.656251 4.578125,391.044919 4.578125,391.587891 C4.578125,392.12956 4.48437594,392.518879 4.296875,392.755859 C4.14192631,392.951173 3.92578264,393.048828 3.6484375,393.048828 C3.36979027,393.048828 3.14518314,392.941733 2.97460938,392.727539 C2.80403561,392.513345 2.71875,392.131513 2.71875,391.582031 C2.71875,391.042966 2.81249906,390.654949 3,390.417969 C3.15494869,390.222655 3.37109236,390.125 3.6484375,390.125 L3.6484375,390.125 Z M3.6484375,390.580078 C3.58203092,390.580078 3.52278672,390.601237 3.47070312,390.643555 C3.41861953,390.685873 3.37825535,390.761718 3.34960938,390.871094 C3.31184877,391.013022 3.29296875,391.251951 3.29296875,391.587891 C3.29296875,391.92383 3.30989566,392.154622 3.34375,392.280273 C3.37760434,392.405925 3.42024714,392.489583 3.47167969,392.53125 C3.52311224,392.572917 3.58203092,392.59375 3.6484375,392.59375 C3.71484408,392.59375 3.77408828,392.572591 3.82617188,392.530273 C3.87825547,392.487956 3.91861965,392.41211 3.94726562,392.302734 C3.98502623,392.162109 4.00390625,391.92383 4.00390625,391.587891 C4.00390625,391.251951 3.98697934,391.021159 3.953125,390.895508 C3.91927066,390.769856 3.87662786,390.685873 3.82519531,390.643555 C3.77376276,390.601237 3.71484408,390.580078 3.6484375,390.580078 L3.6484375,390.580078 Z M5.87304688,390.125 C6.15039201,390.125 6.36718672,390.223957 6.5234375,390.421875 C6.70963635,390.656251 6.80273438,391.044919 6.80273438,391.587891 C6.80273438,392.12956 6.70898531,392.518879 6.52148438,392.755859 C6.36653568,392.951173 6.15039201,393.048828 5.87304688,393.048828 C5.59439965,393.048828 5.36979252,392.941733 5.19921875,392.727539 C5.02864498,392.513345 4.94335938,392.131513 4.94335938,391.582031 C4.94335938,391.042966 5.03710844,390.654949 5.22460938,390.417969 C5.37955807,390.222655 5.59570174,390.125 5.87304688,390.125 L5.87304688,390.125 Z M5.87304688,390.580078 C5.80664029,390.580078 5.74739609,390.601237 5.6953125,390.643555 C5.64322891,390.685873 5.60286473,390.761718 5.57421875,390.871094 C5.53645814,391.013022 5.51757812,391.251951 5.51757812,391.587891 C5.51757812,391.92383 5.53450504,392.154622 5.56835938,392.280273 C5.60221371,392.405925 5.64485651,392.489583 5.69628906,392.53125 C5.74772161,392.572917 5.80664029,392.59375 5.87304688,392.59375 C5.93945346,392.59375 5.99869766,392.572591 6.05078125,392.530273 C6.10286484,392.487956 6.14322902,392.41211 6.171875,392.302734 C6.20963561,392.162109 6.22851562,391.92383 6.22851562,391.587891 C6.22851562,391.251951 6.21158871,391.021159 6.17773438,390.895508 C6.14388004,390.769856 6.10123724,390.685873 6.04980469,390.643555 C5.99837214,390.601237 5.93945346,390.580078 5.87304688,390.580078 L5.87304688,390.580078 Z" id="100" fill="#E0E0E0"></path>
                <path d="M1.90039062,343 L1.3515625,343 L1.3515625,340.931641 C1.15104066,341.119142 0.914714902,341.257812 0.642578125,341.347656 L0.642578125,340.849609 C0.785808008,340.802734 0.94140541,340.713868 1.109375,340.583008 C1.27734459,340.452148 1.39257781,340.29948 1.45507812,340.125 L1.90039062,340.125 L1.90039062,343 Z M2.72851562,342.263672 L3.27539062,342.207031 C3.2910157,342.33073 3.3372392,342.428711 3.4140625,342.500977 C3.4908858,342.573243 3.57942658,342.609375 3.6796875,342.609375 C3.79427141,342.609375 3.89127564,342.562826 3.97070312,342.469727 C4.05013061,342.376627 4.08984375,342.236329 4.08984375,342.048828 C4.08984375,341.873046 4.05045612,341.741211 3.97167969,341.65332 C3.89290325,341.565429 3.79036521,341.521484 3.6640625,341.521484 C3.50650963,341.521484 3.365235,341.591145 3.24023438,341.730469 L2.79492188,341.666016 L3.07617188,340.175781 L4.52734375,340.175781 L4.52734375,340.689453 L3.4921875,340.689453 L3.40625,341.175781 C3.52864645,341.114583 3.6536452,341.083984 3.78125,341.083984 C4.0247408,341.083984 4.23111895,341.172525 4.40039062,341.349609 C4.5696623,341.526694 4.65429688,341.756509 4.65429688,342.039062 C4.65429688,342.274741 4.58593818,342.485025 4.44921875,342.669922 C4.2630199,342.922527 4.00455895,343.048828 3.67382812,343.048828 C3.40950389,343.048828 3.19401125,342.977865 3.02734375,342.835938 C2.86067625,342.69401 2.76106787,342.503256 2.72851562,342.263672 L2.72851562,342.263672 Z M5.87304688,340.125 C6.15039201,340.125 6.36718672,340.223957 6.5234375,340.421875 C6.70963635,340.656251 6.80273438,341.044919 6.80273438,341.587891 C6.80273438,342.12956 6.70898531,342.518879 6.52148438,342.755859 C6.36653568,342.951173 6.15039201,343.048828 5.87304688,343.048828 C5.59439965,343.048828 5.36979252,342.941733 5.19921875,342.727539 C5.02864498,342.513345 4.94335938,342.131513 4.94335938,341.582031 C4.94335938,341.042966 5.03710844,340.654949 5.22460938,340.417969 C5.37955807,340.222655 5.59570174,340.125 5.87304688,340.125 L5.87304688,340.125 Z M5.87304688,340.580078 C5.80664029,340.580078 5.74739609,340.601237 5.6953125,340.643555 C5.64322891,340.685873 5.60286473,340.761718 5.57421875,340.871094 C5.53645814,341.013022 5.51757812,341.251951 5.51757812,341.587891 C5.51757812,341.92383 5.53450504,342.154622 5.56835938,342.280273 C5.60221371,342.405925 5.64485651,342.489583 5.69628906,342.53125 C5.74772161,342.572917 5.80664029,342.59375 5.87304688,342.59375 C5.93945346,342.59375 5.99869766,342.572591 6.05078125,342.530273 C6.10286484,342.487956 6.14322902,342.41211 6.171875,342.302734 C6.20963561,342.162109 6.22851562,341.92383 6.22851562,341.587891 C6.22851562,341.251951 6.21158871,341.021159 6.17773438,340.895508 C6.14388004,340.769856 6.10123724,340.685873 6.04980469,340.643555 C5.99837214,340.601237 5.93945346,340.580078 5.87304688,340.580078 L5.87304688,340.580078 Z" id="150" fill="#E0E0E0"></path>
                <path d="M2.34960938,292.490234 L2.34960938,293 L0.42578125,293 C0.446614687,292.807291 0.509114063,292.624675 0.61328125,292.452148 C0.717448437,292.279622 0.923175547,292.050783 1.23046875,291.765625 C1.47786582,291.535155 1.62955701,291.378907 1.68554688,291.296875 C1.76106809,291.183593 1.79882812,291.071615 1.79882812,290.960938 C1.79882812,290.838541 1.76595085,290.744466 1.70019531,290.678711 C1.63443978,290.612955 1.54362037,290.580078 1.42773438,290.580078 C1.31315047,290.580078 1.22200555,290.614583 1.15429688,290.683594 C1.0865882,290.752605 1.04752609,290.867187 1.03710938,291.027344 L0.490234375,290.972656 C0.522786621,290.670571 0.624999141,290.453777 0.796875,290.322266 C0.968750859,290.190755 1.18359246,290.125 1.44140625,290.125 C1.72395975,290.125 1.94596273,290.201171 2.10742188,290.353516 C2.26888102,290.50586 2.34960938,290.695311 2.34960938,290.921875 C2.34960938,291.050782 2.32649763,291.173502 2.28027344,291.290039 C2.23404925,291.406576 2.16080779,291.528645 2.06054688,291.65625 C1.99414029,291.740886 1.87434982,291.862629 1.70117188,292.021484 C1.52799393,292.180339 1.4182945,292.285807 1.37207031,292.337891 C1.32584612,292.389974 1.2884116,292.440755 1.25976562,292.490234 L2.34960938,292.490234 Z M3.6484375,290.125 C3.92578264,290.125 4.14257734,290.223957 4.29882812,290.421875 C4.48502697,290.656251 4.578125,291.044919 4.578125,291.587891 C4.578125,292.12956 4.48437594,292.518879 4.296875,292.755859 C4.14192631,292.951173 3.92578264,293.048828 3.6484375,293.048828 C3.36979027,293.048828 3.14518314,292.941733 2.97460938,292.727539 C2.80403561,292.513345 2.71875,292.131513 2.71875,291.582031 C2.71875,291.042966 2.81249906,290.654949 3,290.417969 C3.15494869,290.222655 3.37109236,290.125 3.6484375,290.125 L3.6484375,290.125 Z M3.6484375,290.580078 C3.58203092,290.580078 3.52278672,290.601237 3.47070312,290.643555 C3.41861953,290.685873 3.37825535,290.761718 3.34960938,290.871094 C3.31184877,291.013022 3.29296875,291.251951 3.29296875,291.587891 C3.29296875,291.92383 3.30989566,292.154622 3.34375,292.280273 C3.37760434,292.405925 3.42024714,292.489583 3.47167969,292.53125 C3.52311224,292.572917 3.58203092,292.59375 3.6484375,292.59375 C3.71484408,292.59375 3.77408828,292.572591 3.82617188,292.530273 C3.87825547,292.487956 3.91861965,292.41211 3.94726562,292.302734 C3.98502623,292.162109 4.00390625,291.92383 4.00390625,291.587891 C4.00390625,291.251951 3.98697934,291.021159 3.953125,290.895508 C3.91927066,290.769856 3.87662786,290.685873 3.82519531,290.643555 C3.77376276,290.601237 3.71484408,290.580078 3.6484375,290.580078 L3.6484375,290.580078 Z M5.87304688,290.125 C6.15039201,290.125 6.36718672,290.223957 6.5234375,290.421875 C6.70963635,290.656251 6.80273438,291.044919 6.80273438,291.587891 C6.80273438,292.12956 6.70898531,292.518879 6.52148438,292.755859 C6.36653568,292.951173 6.15039201,293.048828 5.87304688,293.048828 C5.59439965,293.048828 5.36979252,292.941733 5.19921875,292.727539 C5.02864498,292.513345 4.94335938,292.131513 4.94335938,291.582031 C4.94335938,291.042966 5.03710844,290.654949 5.22460938,290.417969 C5.37955807,290.222655 5.59570174,290.125 5.87304688,290.125 L5.87304688,290.125 Z M5.87304688,290.580078 C5.80664029,290.580078 5.74739609,290.601237 5.6953125,290.643555 C5.64322891,290.685873 5.60286473,290.761718 5.57421875,290.871094 C5.53645814,291.013022 5.51757812,291.251951 5.51757812,291.587891 C5.51757812,291.92383 5.53450504,292.154622 5.56835938,292.280273 C5.60221371,292.405925 5.64485651,292.489583 5.69628906,292.53125 C5.74772161,292.572917 5.80664029,292.59375 5.87304688,292.59375 C5.93945346,292.59375 5.99869766,292.572591 6.05078125,292.530273 C6.10286484,292.487956 6.14322902,292.41211 6.171875,292.302734 C6.20963561,292.162109 6.22851562,291.92383 6.22851562,291.587891 C6.22851562,291.251951 6.21158871,291.021159 6.17773438,290.895508 C6.14388004,290.769856 6.10123724,290.685873 6.04980469,290.643555 C5.99837214,290.601237 5.93945346,290.580078 5.87304688,290.580078 L5.87304688,290.580078 Z" id="200" fill="#E0E0E0"></path>
                <path d="M2.34960938,242.490234 L2.34960938,243 L0.42578125,243 C0.446614687,242.807291 0.509114063,242.624675 0.61328125,242.452148 C0.717448437,242.279622 0.923175547,242.050783 1.23046875,241.765625 C1.47786582,241.535155 1.62955701,241.378907 1.68554688,241.296875 C1.76106809,241.183593 1.79882812,241.071615 1.79882812,240.960938 C1.79882812,240.838541 1.76595085,240.744466 1.70019531,240.678711 C1.63443978,240.612955 1.54362037,240.580078 1.42773438,240.580078 C1.31315047,240.580078 1.22200555,240.614583 1.15429688,240.683594 C1.0865882,240.752605 1.04752609,240.867187 1.03710938,241.027344 L0.490234375,240.972656 C0.522786621,240.670571 0.624999141,240.453777 0.796875,240.322266 C0.968750859,240.190755 1.18359246,240.125 1.44140625,240.125 C1.72395975,240.125 1.94596273,240.201171 2.10742188,240.353516 C2.26888102,240.50586 2.34960938,240.695311 2.34960938,240.921875 C2.34960938,241.050782 2.32649763,241.173502 2.28027344,241.290039 C2.23404925,241.406576 2.16080779,241.528645 2.06054688,241.65625 C1.99414029,241.740886 1.87434982,241.862629 1.70117188,242.021484 C1.52799393,242.180339 1.4182945,242.285807 1.37207031,242.337891 C1.32584612,242.389974 1.2884116,242.440755 1.25976562,242.490234 L2.34960938,242.490234 Z M2.72851562,242.263672 L3.27539062,242.207031 C3.2910157,242.33073 3.3372392,242.428711 3.4140625,242.500977 C3.4908858,242.573243 3.57942658,242.609375 3.6796875,242.609375 C3.79427141,242.609375 3.89127564,242.562826 3.97070312,242.469727 C4.05013061,242.376627 4.08984375,242.236329 4.08984375,242.048828 C4.08984375,241.873046 4.05045612,241.741211 3.97167969,241.65332 C3.89290325,241.565429 3.79036521,241.521484 3.6640625,241.521484 C3.50650963,241.521484 3.365235,241.591145 3.24023438,241.730469 L2.79492188,241.666016 L3.07617188,240.175781 L4.52734375,240.175781 L4.52734375,240.689453 L3.4921875,240.689453 L3.40625,241.175781 C3.52864645,241.114583 3.6536452,241.083984 3.78125,241.083984 C4.0247408,241.083984 4.23111895,241.172525 4.40039062,241.349609 C4.5696623,241.526694 4.65429688,241.756509 4.65429688,242.039062 C4.65429688,242.274741 4.58593818,242.485025 4.44921875,242.669922 C4.2630199,242.922527 4.00455895,243.048828 3.67382812,243.048828 C3.40950389,243.048828 3.19401125,242.977865 3.02734375,242.835938 C2.86067625,242.69401 2.76106787,242.503256 2.72851562,242.263672 L2.72851562,242.263672 Z M5.87304688,240.125 C6.15039201,240.125 6.36718672,240.223957 6.5234375,240.421875 C6.70963635,240.656251 6.80273438,241.044919 6.80273438,241.587891 C6.80273438,242.12956 6.70898531,242.518879 6.52148438,242.755859 C6.36653568,242.951173 6.15039201,243.048828 5.87304688,243.048828 C5.59439965,243.048828 5.36979252,242.941733 5.19921875,242.727539 C5.02864498,242.513345 4.94335938,242.131513 4.94335938,241.582031 C4.94335938,241.042966 5.03710844,240.654949 5.22460938,240.417969 C5.37955807,240.222655 5.59570174,240.125 5.87304688,240.125 L5.87304688,240.125 Z M5.87304688,240.580078 C5.80664029,240.580078 5.74739609,240.601237 5.6953125,240.643555 C5.64322891,240.685873 5.60286473,240.761718 5.57421875,240.871094 C5.53645814,241.013022 5.51757812,241.251951 5.51757812,241.587891 C5.51757812,241.92383 5.53450504,242.154622 5.56835938,242.280273 C5.60221371,242.405925 5.64485651,242.489583 5.69628906,242.53125 C5.74772161,242.572917 5.80664029,242.59375 5.87304688,242.59375 C5.93945346,242.59375 5.99869766,242.572591 6.05078125,242.530273 C6.10286484,242.487956 6.14322902,242.41211 6.171875,242.302734 C6.20963561,242.162109 6.22851562,241.92383 6.22851562,241.587891 C6.22851562,241.251951 6.21158871,241.021159 6.17773438,240.895508 C6.14388004,240.769856 6.10123724,240.685873 6.04980469,240.643555 C5.99837214,240.601237 5.93945346,240.580078 5.87304688,240.580078 L5.87304688,240.580078 Z" id="250" fill="#E0E0E0"></path>
                <path d="M0.4765625,192.240234 L1.0078125,192.175781 C1.02473967,192.311199 1.07031213,192.414713 1.14453125,192.486328 C1.21875037,192.557943 1.30859322,192.59375 1.4140625,192.59375 C1.52734432,192.59375 1.62272097,192.550782 1.70019531,192.464844 C1.77766966,192.378906 1.81640625,192.263022 1.81640625,192.117188 C1.81640625,191.979166 1.77929725,191.869792 1.70507812,191.789062 C1.630859,191.708333 1.54036512,191.667969 1.43359375,191.667969 C1.3632809,191.667969 1.27929736,191.68164 1.18164062,191.708984 L1.2421875,191.261719 C1.39062574,191.265625 1.50390586,191.233399 1.58203125,191.165039 C1.66015664,191.096679 1.69921875,191.00586 1.69921875,190.892578 C1.69921875,190.796223 1.6705732,190.719401 1.61328125,190.662109 C1.5559893,190.604817 1.47981818,190.576172 1.38476562,190.576172 C1.29101516,190.576172 1.21093783,190.608724 1.14453125,190.673828 C1.07812467,190.738933 1.03776049,190.833984 1.0234375,190.958984 L0.517578125,190.873047 C0.552734551,190.699869 0.605793916,190.561524 0.676757812,190.458008 C0.747721709,190.354492 0.846679053,190.273112 0.973632812,190.213867 C1.10058657,190.154622 1.24283775,190.125 1.40039062,190.125 C1.66992322,190.125 1.88606689,190.210937 2.04882812,190.382812 C2.18294338,190.523438 2.25,190.682291 2.25,190.859375 C2.25,191.110678 2.11263158,191.311197 1.83789062,191.460938 C2.00195395,191.496094 2.13313753,191.574869 2.23144531,191.697266 C2.3297531,191.819662 2.37890625,191.967447 2.37890625,192.140625 C2.37890625,192.391928 2.28711029,192.606119 2.10351562,192.783203 C1.91992096,192.960287 1.69140762,193.048828 1.41796875,193.048828 C1.15885287,193.048828 0.94401127,192.974285 0.7734375,192.825195 C0.60286373,192.676106 0.503906387,192.481121 0.4765625,192.240234 L0.4765625,192.240234 Z M3.6484375,190.125 C3.92578264,190.125 4.14257734,190.223957 4.29882812,190.421875 C4.48502697,190.656251 4.578125,191.044919 4.578125,191.587891 C4.578125,192.12956 4.48437594,192.518879 4.296875,192.755859 C4.14192631,192.951173 3.92578264,193.048828 3.6484375,193.048828 C3.36979027,193.048828 3.14518314,192.941733 2.97460938,192.727539 C2.80403561,192.513345 2.71875,192.131513 2.71875,191.582031 C2.71875,191.042966 2.81249906,190.654949 3,190.417969 C3.15494869,190.222655 3.37109236,190.125 3.6484375,190.125 L3.6484375,190.125 Z M3.6484375,190.580078 C3.58203092,190.580078 3.52278672,190.601237 3.47070312,190.643555 C3.41861953,190.685873 3.37825535,190.761718 3.34960938,190.871094 C3.31184877,191.013022 3.29296875,191.251951 3.29296875,191.587891 C3.29296875,191.92383 3.30989566,192.154622 3.34375,192.280273 C3.37760434,192.405925 3.42024714,192.489583 3.47167969,192.53125 C3.52311224,192.572917 3.58203092,192.59375 3.6484375,192.59375 C3.71484408,192.59375 3.77408828,192.572591 3.82617188,192.530273 C3.87825547,192.487956 3.91861965,192.41211 3.94726562,192.302734 C3.98502623,192.162109 4.00390625,191.92383 4.00390625,191.587891 C4.00390625,191.251951 3.98697934,191.021159 3.953125,190.895508 C3.91927066,190.769856 3.87662786,190.685873 3.82519531,190.643555 C3.77376276,190.601237 3.71484408,190.580078 3.6484375,190.580078 L3.6484375,190.580078 Z M5.87304688,190.125 C6.15039201,190.125 6.36718672,190.223957 6.5234375,190.421875 C6.70963635,190.656251 6.80273438,191.044919 6.80273438,191.587891 C6.80273438,192.12956 6.70898531,192.518879 6.52148438,192.755859 C6.36653568,192.951173 6.15039201,193.048828 5.87304688,193.048828 C5.59439965,193.048828 5.36979252,192.941733 5.19921875,192.727539 C5.02864498,192.513345 4.94335938,192.131513 4.94335938,191.582031 C4.94335938,191.042966 5.03710844,190.654949 5.22460938,190.417969 C5.37955807,190.222655 5.59570174,190.125 5.87304688,190.125 L5.87304688,190.125 Z M5.87304688,190.580078 C5.80664029,190.580078 5.74739609,190.601237 5.6953125,190.643555 C5.64322891,190.685873 5.60286473,190.761718 5.57421875,190.871094 C5.53645814,191.013022 5.51757812,191.251951 5.51757812,191.587891 C5.51757812,191.92383 5.53450504,192.154622 5.56835938,192.280273 C5.60221371,192.405925 5.64485651,192.489583 5.69628906,192.53125 C5.74772161,192.572917 5.80664029,192.59375 5.87304688,192.59375 C5.93945346,192.59375 5.99869766,192.572591 6.05078125,192.530273 C6.10286484,192.487956 6.14322902,192.41211 6.171875,192.302734 C6.20963561,192.162109 6.22851562,191.92383 6.22851562,191.587891 C6.22851562,191.251951 6.21158871,191.021159 6.17773438,190.895508 C6.14388004,190.769856 6.10123724,190.685873 6.04980469,190.643555 C5.99837214,190.601237 5.93945346,190.580078 5.87304688,190.580078 L5.87304688,190.580078 Z" id="300" fill="#E0E0E0"></path>
                <path d="M0.4765625,142.240234 L1.0078125,142.175781 C1.02473967,142.311199 1.07031213,142.414713 1.14453125,142.486328 C1.21875037,142.557943 1.30859322,142.59375 1.4140625,142.59375 C1.52734432,142.59375 1.62272097,142.550782 1.70019531,142.464844 C1.77766966,142.378906 1.81640625,142.263022 1.81640625,142.117188 C1.81640625,141.979166 1.77929725,141.869792 1.70507812,141.789062 C1.630859,141.708333 1.54036512,141.667969 1.43359375,141.667969 C1.3632809,141.667969 1.27929736,141.68164 1.18164062,141.708984 L1.2421875,141.261719 C1.39062574,141.265625 1.50390586,141.233399 1.58203125,141.165039 C1.66015664,141.096679 1.69921875,141.00586 1.69921875,140.892578 C1.69921875,140.796223 1.6705732,140.719401 1.61328125,140.662109 C1.5559893,140.604817 1.47981818,140.576172 1.38476562,140.576172 C1.29101516,140.576172 1.21093783,140.608724 1.14453125,140.673828 C1.07812467,140.738933 1.03776049,140.833984 1.0234375,140.958984 L0.517578125,140.873047 C0.552734551,140.699869 0.605793916,140.561524 0.676757812,140.458008 C0.747721709,140.354492 0.846679053,140.273112 0.973632812,140.213867 C1.10058657,140.154622 1.24283775,140.125 1.40039062,140.125 C1.66992322,140.125 1.88606689,140.210937 2.04882812,140.382812 C2.18294338,140.523438 2.25,140.682291 2.25,140.859375 C2.25,141.110678 2.11263158,141.311197 1.83789062,141.460938 C2.00195395,141.496094 2.13313753,141.574869 2.23144531,141.697266 C2.3297531,141.819662 2.37890625,141.967447 2.37890625,142.140625 C2.37890625,142.391928 2.28711029,142.606119 2.10351562,142.783203 C1.91992096,142.960287 1.69140762,143.048828 1.41796875,143.048828 C1.15885287,143.048828 0.94401127,142.974285 0.7734375,142.825195 C0.60286373,142.676106 0.503906387,142.481121 0.4765625,142.240234 L0.4765625,142.240234 Z M2.72851562,142.263672 L3.27539062,142.207031 C3.2910157,142.33073 3.3372392,142.428711 3.4140625,142.500977 C3.4908858,142.573243 3.57942658,142.609375 3.6796875,142.609375 C3.79427141,142.609375 3.89127564,142.562826 3.97070312,142.469727 C4.05013061,142.376627 4.08984375,142.236329 4.08984375,142.048828 C4.08984375,141.873046 4.05045612,141.741211 3.97167969,141.65332 C3.89290325,141.565429 3.79036521,141.521484 3.6640625,141.521484 C3.50650963,141.521484 3.365235,141.591145 3.24023438,141.730469 L2.79492188,141.666016 L3.07617188,140.175781 L4.52734375,140.175781 L4.52734375,140.689453 L3.4921875,140.689453 L3.40625,141.175781 C3.52864645,141.114583 3.6536452,141.083984 3.78125,141.083984 C4.0247408,141.083984 4.23111895,141.172525 4.40039062,141.349609 C4.5696623,141.526694 4.65429688,141.756509 4.65429688,142.039062 C4.65429688,142.274741 4.58593818,142.485025 4.44921875,142.669922 C4.2630199,142.922527 4.00455895,143.048828 3.67382812,143.048828 C3.40950389,143.048828 3.19401125,142.977865 3.02734375,142.835938 C2.86067625,142.69401 2.76106787,142.503256 2.72851562,142.263672 L2.72851562,142.263672 Z M5.87304688,140.125 C6.15039201,140.125 6.36718672,140.223957 6.5234375,140.421875 C6.70963635,140.656251 6.80273438,141.044919 6.80273438,141.587891 C6.80273438,142.12956 6.70898531,142.518879 6.52148438,142.755859 C6.36653568,142.951173 6.15039201,143.048828 5.87304688,143.048828 C5.59439965,143.048828 5.36979252,142.941733 5.19921875,142.727539 C5.02864498,142.513345 4.94335938,142.131513 4.94335938,141.582031 C4.94335938,141.042966 5.03710844,140.654949 5.22460938,140.417969 C5.37955807,140.222655 5.59570174,140.125 5.87304688,140.125 L5.87304688,140.125 Z M5.87304688,140.580078 C5.80664029,140.580078 5.74739609,140.601237 5.6953125,140.643555 C5.64322891,140.685873 5.60286473,140.761718 5.57421875,140.871094 C5.53645814,141.013022 5.51757812,141.251951 5.51757812,141.587891 C5.51757812,141.92383 5.53450504,142.154622 5.56835938,142.280273 C5.60221371,142.405925 5.64485651,142.489583 5.69628906,142.53125 C5.74772161,142.572917 5.80664029,142.59375 5.87304688,142.59375 C5.93945346,142.59375 5.99869766,142.572591 6.05078125,142.530273 C6.10286484,142.487956 6.14322902,142.41211 6.171875,142.302734 C6.20963561,142.162109 6.22851562,141.92383 6.22851562,141.587891 C6.22851562,141.251951 6.21158871,141.021159 6.17773438,140.895508 C6.14388004,140.769856 6.10123724,140.685873 6.04980469,140.643555 C5.99837214,140.601237 5.93945346,140.580078 5.87304688,140.580078 L5.87304688,140.580078 Z" id="350" fill="#E0E0E0"></path>
                <path d="M1.57226562,93 L1.57226562,92.4238281 L0.400390625,92.4238281 L0.400390625,91.9433594 L1.64257812,90.125 L2.10351562,90.125 L2.10351562,91.9414062 L2.45898438,91.9414062 L2.45898438,92.4238281 L2.10351562,92.4238281 L2.10351562,93 L1.57226562,93 Z M1.57226562,91.9414062 L1.57226562,90.9628906 L0.9140625,91.9414062 L1.57226562,91.9414062 Z M3.6484375,90.125 C3.92578264,90.125 4.14257734,90.2239573 4.29882812,90.421875 C4.48502697,90.6562512 4.578125,91.0449192 4.578125,91.5878906 C4.578125,92.12956 4.48437594,92.518879 4.296875,92.7558594 C4.14192631,92.9511729 3.92578264,93.0488281 3.6484375,93.0488281 C3.36979027,93.0488281 3.14518314,92.9417328 2.97460938,92.7275391 C2.80403561,92.5133453 2.71875,92.1315132 2.71875,91.5820312 C2.71875,91.0429661 2.81249906,90.6549491 3,90.4179688 C3.15494869,90.2226553 3.37109236,90.125 3.6484375,90.125 L3.6484375,90.125 Z M3.6484375,90.5800781 C3.58203092,90.5800781 3.52278672,90.6012368 3.47070312,90.6435547 C3.41861953,90.6858726 3.37825535,90.7617182 3.34960938,90.8710938 C3.31184877,91.0130215 3.29296875,91.2519514 3.29296875,91.5878906 C3.29296875,91.9238298 3.30989566,92.1546218 3.34375,92.2802734 C3.37760434,92.4059251 3.42024714,92.4895831 3.47167969,92.53125 C3.52311224,92.5729169 3.58203092,92.59375 3.6484375,92.59375 C3.71484408,92.59375 3.77408828,92.5725914 3.82617188,92.5302734 C3.87825547,92.4879555 3.91861965,92.4121099 3.94726562,92.3027344 C3.98502623,92.1621087 4.00390625,91.9238298 4.00390625,91.5878906 C4.00390625,91.2519514 3.98697934,91.0211595 3.953125,90.8955078 C3.91927066,90.7698561 3.87662786,90.6858726 3.82519531,90.6435547 C3.77376276,90.6012368 3.71484408,90.5800781 3.6484375,90.5800781 L3.6484375,90.5800781 Z M5.87304688,90.125 C6.15039201,90.125 6.36718672,90.2239573 6.5234375,90.421875 C6.70963635,90.6562512 6.80273438,91.0449192 6.80273438,91.5878906 C6.80273438,92.12956 6.70898531,92.518879 6.52148438,92.7558594 C6.36653568,92.9511729 6.15039201,93.0488281 5.87304688,93.0488281 C5.59439965,93.0488281 5.36979252,92.9417328 5.19921875,92.7275391 C5.02864498,92.5133453 4.94335938,92.1315132 4.94335938,91.5820312 C4.94335938,91.0429661 5.03710844,90.6549491 5.22460938,90.4179688 C5.37955807,90.2226553 5.59570174,90.125 5.87304688,90.125 L5.87304688,90.125 Z M5.87304688,90.5800781 C5.80664029,90.5800781 5.74739609,90.6012368 5.6953125,90.6435547 C5.64322891,90.6858726 5.60286473,90.7617182 5.57421875,90.8710938 C5.53645814,91.0130215 5.51757812,91.2519514 5.51757812,91.5878906 C5.51757812,91.9238298 5.53450504,92.1546218 5.56835938,92.2802734 C5.60221371,92.4059251 5.64485651,92.4895831 5.69628906,92.53125 C5.74772161,92.5729169 5.80664029,92.59375 5.87304688,92.59375 C5.93945346,92.59375 5.99869766,92.5725914 6.05078125,92.5302734 C6.10286484,92.4879555 6.14322902,92.4121099 6.171875,92.3027344 C6.20963561,92.1621087 6.22851562,91.9238298 6.22851562,91.5878906 C6.22851562,91.2519514 6.21158871,91.0211595 6.17773438,90.8955078 C6.14388004,90.7698561 6.10123724,90.6858726 6.04980469,90.6435547 C5.99837214,90.6012368 5.93945346,90.5800781 5.87304688,90.5800781 L5.87304688,90.5800781 Z" id="400" fill="#E0E0E0"></path>
                <path d="M1.57226562,43 L1.57226562,42.4238281 L0.400390625,42.4238281 L0.400390625,41.9433594 L1.64257812,40.125 L2.10351562,40.125 L2.10351562,41.9414062 L2.45898438,41.9414062 L2.45898438,42.4238281 L2.10351562,42.4238281 L2.10351562,43 L1.57226562,43 Z M1.57226562,41.9414062 L1.57226562,40.9628906 L0.9140625,41.9414062 L1.57226562,41.9414062 Z M2.72851562,42.2636719 L3.27539062,42.2070312 C3.2910157,42.3307298 3.3372392,42.4287106 3.4140625,42.5009766 C3.4908858,42.5732425 3.57942658,42.609375 3.6796875,42.609375 C3.79427141,42.609375 3.89127564,42.562826 3.97070312,42.4697266 C4.05013061,42.3766271 4.08984375,42.2363291 4.08984375,42.0488281 C4.08984375,41.873046 4.05045612,41.7412114 3.97167969,41.6533203 C3.89290325,41.5654292 3.79036521,41.5214844 3.6640625,41.5214844 C3.50650963,41.5214844 3.365235,41.5911451 3.24023438,41.7304688 L2.79492188,41.6660156 L3.07617188,40.1757812 L4.52734375,40.1757812 L4.52734375,40.6894531 L3.4921875,40.6894531 L3.40625,41.1757812 C3.52864645,41.114583 3.6536452,41.0839844 3.78125,41.0839844 C4.0247408,41.0839844 4.23111895,41.1725252 4.40039062,41.3496094 C4.5696623,41.5266936 4.65429688,41.756509 4.65429688,42.0390625 C4.65429688,42.2747408 4.58593818,42.4850251 4.44921875,42.6699219 C4.2630199,42.9225273 4.00455895,43.0488281 3.67382812,43.0488281 C3.40950389,43.0488281 3.19401125,42.9778653 3.02734375,42.8359375 C2.86067625,42.6940097 2.76106787,42.5032564 2.72851562,42.2636719 L2.72851562,42.2636719 Z M5.87304688,40.125 C6.15039201,40.125 6.36718672,40.2239573 6.5234375,40.421875 C6.70963635,40.6562512 6.80273438,41.0449192 6.80273438,41.5878906 C6.80273438,42.12956 6.70898531,42.518879 6.52148438,42.7558594 C6.36653568,42.9511729 6.15039201,43.0488281 5.87304688,43.0488281 C5.59439965,43.0488281 5.36979252,42.9417328 5.19921875,42.7275391 C5.02864498,42.5133453 4.94335938,42.1315132 4.94335938,41.5820312 C4.94335938,41.0429661 5.03710844,40.6549491 5.22460938,40.4179688 C5.37955807,40.2226553 5.59570174,40.125 5.87304688,40.125 L5.87304688,40.125 Z M5.87304688,40.5800781 C5.80664029,40.5800781 5.74739609,40.6012368 5.6953125,40.6435547 C5.64322891,40.6858726 5.60286473,40.7617182 5.57421875,40.8710938 C5.53645814,41.0130215 5.51757812,41.2519514 5.51757812,41.5878906 C5.51757812,41.9238298 5.53450504,42.1546218 5.56835938,42.2802734 C5.60221371,42.4059251 5.64485651,42.4895831 5.69628906,42.53125 C5.74772161,42.5729169 5.80664029,42.59375 5.87304688,42.59375 C5.93945346,42.59375 5.99869766,42.5725914 6.05078125,42.5302734 C6.10286484,42.4879555 6.14322902,42.4121099 6.171875,42.3027344 C6.20963561,42.1621087 6.22851562,41.9238298 6.22851562,41.5878906 C6.22851562,41.2519514 6.21158871,41.0211595 6.17773438,40.8955078 C6.14388004,40.7698561 6.10123724,40.6858726 6.04980469,40.6435547 C5.99837214,40.6012368 5.93945346,40.5800781 5.87304688,40.5800781 L5.87304688,40.5800781 Z" id="450" fill="#E0E0E0"></path>
                <path d="M1.57226562,3 L1.57226562,2.42382812 L0.400390625,2.42382812 L0.400390625,1.94335938 L1.64257812,0.125 L2.10351562,0.125 L2.10351562,1.94140625 L2.45898438,1.94140625 L2.45898438,2.42382812 L2.10351562,2.42382812 L2.10351562,3 L1.57226562,3 Z M1.57226562,1.94140625 L1.57226562,0.962890625 L0.9140625,1.94140625 L1.57226562,1.94140625 Z M2.73242188,2.33789062 L3.26367188,2.27929688 C3.27669277,2.38737033 3.3105466,2.46744766 3.36523438,2.51953125 C3.41992215,2.57161484 3.49218705,2.59765625 3.58203125,2.59765625 C3.69531307,2.59765625 3.79166627,2.54557344 3.87109375,2.44140625 C3.95052123,2.33723906 4.00130197,2.12109539 4.0234375,1.79296875 C3.88541598,1.9531258 3.71289166,2.03320312 3.50585938,2.03320312 C3.28059783,2.03320312 3.08626384,1.94628993 2.92285156,1.77246094 C2.75943929,1.59863194 2.67773438,1.37239723 2.67773438,1.09375 C2.67773438,0.803383965 2.76399653,0.569336826 2.93652344,0.391601562 C3.10905034,0.213866299 3.32877471,0.125 3.59570312,0.125 C3.88606916,0.125 4.12434803,0.237303564 4.31054688,0.461914062 C4.49674572,0.686524561 4.58984375,1.05598701 4.58984375,1.5703125 C4.58984375,2.09375262 4.49283951,2.47135301 4.29882812,2.703125 C4.10481674,2.93489699 3.8522151,3.05078125 3.54101562,3.05078125 C3.31705617,3.05078125 3.1360684,2.99121153 2.99804688,2.87207031 C2.86002535,2.75292909 2.77148457,2.57487098 2.73242188,2.33789062 L2.73242188,2.33789062 Z M3.97460938,1.13867188 C3.97460938,0.961587656 3.93391968,0.824219238 3.85253906,0.7265625 C3.77115845,0.628905762 3.67708387,0.580078125 3.5703125,0.580078125 C3.46874949,0.580078125 3.38444044,0.620116787 3.31738281,0.700195312 C3.25032519,0.780273838 3.21679688,0.911457422 3.21679688,1.09375 C3.21679688,1.27864676 3.25325484,1.41438759 3.32617188,1.50097656 C3.39908891,1.58756554 3.49023383,1.63085938 3.59960938,1.63085938 C3.70507865,1.63085938 3.79394495,1.58919312 3.86621094,1.50585938 C3.93847692,1.42252563 3.97460938,1.30013102 3.97460938,1.13867188 L3.97460938,1.13867188 Z M5.87304688,0.125 C6.15039201,0.125 6.36718672,0.223957344 6.5234375,0.421875 C6.70963635,0.656251172 6.80273438,1.04491916 6.80273438,1.58789062 C6.80273438,2.12956 6.70898531,2.51887902 6.52148438,2.75585938 C6.36653568,2.95117285 6.15039201,3.04882812 5.87304688,3.04882812 C5.59439965,3.04882812 5.36979252,2.94173284 5.19921875,2.72753906 C5.02864498,2.51334528 4.94335938,2.13151316 4.94335938,1.58203125 C4.94335938,1.04296605 5.03710844,0.654949102 5.22460938,0.41796875 C5.37955807,0.222655273 5.59570174,0.125 5.87304688,0.125 L5.87304688,0.125 Z M5.87304688,0.580078125 C5.80664029,0.580078125 5.74739609,0.601236768 5.6953125,0.643554688 C5.64322891,0.685872607 5.60286473,0.761718203 5.57421875,0.87109375 C5.53645814,1.01302154 5.51757812,1.25195145 5.51757812,1.58789062 C5.51757812,1.9238298 5.53450504,2.15462177 5.56835938,2.28027344 C5.60221371,2.40592511 5.64485651,2.48958312 5.69628906,2.53125 C5.74772161,2.57291687 5.80664029,2.59375 5.87304688,2.59375 C5.93945346,2.59375 5.99869766,2.57259136 6.05078125,2.53027344 C6.10286484,2.48795552 6.14322902,2.41210992 6.171875,2.30273438 C6.20963561,2.16210867 6.22851562,1.9238298 6.22851562,1.58789062 C6.22851562,1.25195145 6.21158871,1.02115948 6.17773438,0.895507812 C6.14388004,0.769856143 6.10123724,0.685872607 6.04980469,0.643554688 C5.99837214,0.601236768 5.93945346,0.580078125 5.87304688,0.580078125 L5.87304688,0.580078125 Z" id="490" fill="#A4A4A4"></path>
                <path d="M45.453125,486.263672 L46,486.207031 C46.0156251,486.33073 46.0618486,486.428711 46.1386719,486.500977 C46.2154952,486.573243 46.304036,486.609375 46.4042969,486.609375 C46.5188808,486.609375 46.615885,486.562826 46.6953125,486.469727 C46.77474,486.376627 46.8144531,486.236329 46.8144531,486.048828 C46.8144531,485.873046 46.7750655,485.741211 46.6962891,485.65332 C46.6175126,485.565429 46.5149746,485.521484 46.3886719,485.521484 C46.231119,485.521484 46.0898444,485.591145 45.9648438,485.730469 L45.5195312,485.666016 L45.8007812,484.175781 L47.2519531,484.175781 L47.2519531,484.689453 L46.2167969,484.689453 L46.1308594,485.175781 C46.2532558,485.114583 46.3782546,485.083984 46.5058594,485.083984 C46.7493502,485.083984 46.9557283,485.172525 47.125,485.349609 C47.2942717,485.526694 47.3789062,485.756509 47.3789062,486.039062 C47.3789062,486.274741 47.3105476,486.485025 47.1738281,486.669922 C46.9876293,486.922527 46.7291683,487.048828 46.3984375,487.048828 C46.1341133,487.048828 45.9186206,486.977865 45.7519531,486.835938 C45.5852856,486.69401 45.4856772,486.503256 45.453125,486.263672 L45.453125,486.263672 Z M48.5976562,484.125 C48.8750014,484.125 49.0917961,484.223957 49.2480469,484.421875 C49.4342457,484.656251 49.5273438,485.044919 49.5273438,485.587891 C49.5273438,486.12956 49.4335947,486.518879 49.2460938,486.755859 C49.0911451,486.951173 48.8750014,487.048828 48.5976562,487.048828 C48.319009,487.048828 48.0944019,486.941733 47.9238281,486.727539 C47.7532544,486.513345 47.6679688,486.131513 47.6679688,485.582031 C47.6679688,485.042966 47.7617178,484.654949 47.9492188,484.417969 C48.1041674,484.222655 48.3203111,484.125 48.5976562,484.125 L48.5976562,484.125 Z M48.5976562,484.580078 C48.5312497,484.580078 48.4720055,484.601237 48.4199219,484.643555 C48.3678383,484.685873 48.3274741,484.761718 48.2988281,484.871094 C48.2610675,485.013022 48.2421875,485.251951 48.2421875,485.587891 C48.2421875,485.92383 48.2591144,486.154622 48.2929688,486.280273 C48.3268231,486.405925 48.3694659,486.489583 48.4208984,486.53125 C48.472331,486.572917 48.5312497,486.59375 48.5976562,486.59375 C48.6640628,486.59375 48.723307,486.572591 48.7753906,486.530273 C48.8274742,486.487956 48.8678384,486.41211 48.8964844,486.302734 C48.934245,486.162109 48.953125,485.92383 48.953125,485.587891 C48.953125,485.251951 48.9361981,485.021159 48.9023438,484.895508 C48.8684894,484.769856 48.8258466,484.685873 48.7744141,484.643555 C48.7229815,484.601237 48.6640628,484.580078 48.5976562,484.580078 L48.5976562,484.580078 Z" id="50" fill="#E0E0E0"></path>
                <path d="M95.7373047,487 L95.1884766,487 L95.1884766,484.931641 C94.9879547,485.119142 94.751629,485.257812 94.4794922,485.347656 L94.4794922,484.849609 C94.6227221,484.802734 94.7783195,484.713868 94.9462891,484.583008 C95.1142587,484.452148 95.2294919,484.29948 95.2919922,484.125 L95.7373047,484.125 L95.7373047,487 Z M97.4853516,484.125 C97.7626967,484.125 97.9794914,484.223957 98.1357422,484.421875 C98.321941,484.656251 98.4150391,485.044919 98.4150391,485.587891 C98.4150391,486.12956 98.32129,486.518879 98.1337891,486.755859 C97.9788404,486.951173 97.7626967,487.048828 97.4853516,487.048828 C97.2067043,487.048828 96.9820972,486.941733 96.8115234,486.727539 C96.6409497,486.513345 96.5556641,486.131513 96.5556641,485.582031 C96.5556641,485.042966 96.6494131,484.654949 96.8369141,484.417969 C96.9918628,484.222655 97.2080064,484.125 97.4853516,484.125 L97.4853516,484.125 Z M97.4853516,484.580078 C97.418945,484.580078 97.3597008,484.601237 97.3076172,484.643555 C97.2555336,484.685873 97.2151694,484.761718 97.1865234,484.871094 C97.1487628,485.013022 97.1298828,485.251951 97.1298828,485.587891 C97.1298828,485.92383 97.1468097,486.154622 97.1806641,486.280273 C97.2145184,486.405925 97.2571612,486.489583 97.3085938,486.53125 C97.3600263,486.572917 97.418945,486.59375 97.4853516,486.59375 C97.5517581,486.59375 97.6110023,486.572591 97.6630859,486.530273 C97.7151695,486.487956 97.7555337,486.41211 97.7841797,486.302734 C97.8219403,486.162109 97.8408203,485.92383 97.8408203,485.587891 C97.8408203,485.251951 97.8238934,485.021159 97.7900391,484.895508 C97.7561847,484.769856 97.7135419,484.685873 97.6621094,484.643555 C97.6106768,484.601237 97.5517581,484.580078 97.4853516,484.580078 L97.4853516,484.580078 Z M99.7099609,484.125 C99.9873061,484.125 100.204101,484.223957 100.360352,484.421875 C100.54655,484.656251 100.639648,485.044919 100.639648,485.587891 C100.639648,486.12956 100.545899,486.518879 100.358398,486.755859 C100.20345,486.951173 99.9873061,487.048828 99.7099609,487.048828 C99.4313137,487.048828 99.2067066,486.941733 99.0361328,486.727539 C98.865559,486.513345 98.7802734,486.131513 98.7802734,485.582031 C98.7802734,485.042966 98.8740225,484.654949 99.0615234,484.417969 C99.2164721,484.222655 99.4326158,484.125 99.7099609,484.125 L99.7099609,484.125 Z M99.7099609,484.580078 C99.6435544,484.580078 99.5843102,484.601237 99.5322266,484.643555 C99.480143,484.685873 99.4397788,484.761718 99.4111328,484.871094 C99.3733722,485.013022 99.3544922,485.251951 99.3544922,485.587891 C99.3544922,485.92383 99.3714191,486.154622 99.4052734,486.280273 C99.4391278,486.405925 99.4817706,486.489583 99.5332031,486.53125 C99.5846357,486.572917 99.6435544,486.59375 99.7099609,486.59375 C99.7763675,486.59375 99.8356117,486.572591 99.8876953,486.530273 C99.9397789,486.487956 99.9801431,486.41211 100.008789,486.302734 C100.04655,486.162109 100.06543,485.92383 100.06543,485.587891 C100.06543,485.251951 100.048503,485.021159 100.014648,484.895508 C99.9807941,484.769856 99.9381513,484.685873 99.8867188,484.643555 C99.8352862,484.601237 99.7763675,484.580078 99.7099609,484.580078 L99.7099609,484.580078 Z" id="100" fill="#E0E0E0"></path>
                <path d="M145.737305,487 L145.188477,487 L145.188477,484.931641 C144.987955,485.119142 144.751629,485.257812 144.479492,485.347656 L144.479492,484.849609 C144.622722,484.802734 144.778319,484.713868 144.946289,484.583008 C145.114259,484.452148 145.229492,484.29948 145.291992,484.125 L145.737305,484.125 L145.737305,487 Z M146.56543,486.263672 L147.112305,486.207031 C147.12793,486.33073 147.174153,486.428711 147.250977,486.500977 C147.3278,486.573243 147.416341,486.609375 147.516602,486.609375 C147.631185,486.609375 147.72819,486.562826 147.807617,486.469727 C147.887045,486.376627 147.926758,486.236329 147.926758,486.048828 C147.926758,485.873046 147.88737,485.741211 147.808594,485.65332 C147.729817,485.565429 147.627279,485.521484 147.500977,485.521484 C147.343424,485.521484 147.202149,485.591145 147.077148,485.730469 L146.631836,485.666016 L146.913086,484.175781 L148.364258,484.175781 L148.364258,484.689453 L147.329102,484.689453 L147.243164,485.175781 C147.365561,485.114583 147.490559,485.083984 147.618164,485.083984 C147.861655,485.083984 148.068033,485.172525 148.237305,485.349609 C148.406576,485.526694 148.491211,485.756509 148.491211,486.039062 C148.491211,486.274741 148.422852,486.485025 148.286133,486.669922 C148.099934,486.922527 147.841473,487.048828 147.510742,487.048828 C147.246418,487.048828 147.030925,486.977865 146.864258,486.835938 C146.69759,486.69401 146.597982,486.503256 146.56543,486.263672 L146.56543,486.263672 Z M149.709961,484.125 C149.987306,484.125 150.204101,484.223957 150.360352,484.421875 C150.54655,484.656251 150.639648,485.044919 150.639648,485.587891 C150.639648,486.12956 150.545899,486.518879 150.358398,486.755859 C150.20345,486.951173 149.987306,487.048828 149.709961,487.048828 C149.431314,487.048828 149.206707,486.941733 149.036133,486.727539 C148.865559,486.513345 148.780273,486.131513 148.780273,485.582031 C148.780273,485.042966 148.874022,484.654949 149.061523,484.417969 C149.216472,484.222655 149.432616,484.125 149.709961,484.125 L149.709961,484.125 Z M149.709961,484.580078 C149.643554,484.580078 149.58431,484.601237 149.532227,484.643555 C149.480143,484.685873 149.439779,484.761718 149.411133,484.871094 C149.373372,485.013022 149.354492,485.251951 149.354492,485.587891 C149.354492,485.92383 149.371419,486.154622 149.405273,486.280273 C149.439128,486.405925 149.481771,486.489583 149.533203,486.53125 C149.584636,486.572917 149.643554,486.59375 149.709961,486.59375 C149.776368,486.59375 149.835612,486.572591 149.887695,486.530273 C149.939779,486.487956 149.980143,486.41211 150.008789,486.302734 C150.04655,486.162109 150.06543,485.92383 150.06543,485.587891 C150.06543,485.251951 150.048503,485.021159 150.014648,484.895508 C149.980794,484.769856 149.938151,484.685873 149.886719,484.643555 C149.835286,484.601237 149.776368,484.580078 149.709961,484.580078 L149.709961,484.580078 Z" id="150" fill="#E0E0E0"></path>
                <path d="M196.186523,486.490234 L196.186523,487 L194.262695,487 C194.283529,486.807291 194.346028,486.624675 194.450195,486.452148 C194.554362,486.279622 194.76009,486.050783 195.067383,485.765625 C195.31478,485.535155 195.466471,485.378907 195.522461,485.296875 C195.597982,485.183593 195.635742,485.071615 195.635742,484.960938 C195.635742,484.838541 195.602865,484.744466 195.537109,484.678711 C195.471354,484.612955 195.380534,484.580078 195.264648,484.580078 C195.150065,484.580078 195.05892,484.614583 194.991211,484.683594 C194.923502,484.752605 194.88444,484.867187 194.874023,485.027344 L194.327148,484.972656 C194.359701,484.670571 194.461913,484.453777 194.633789,484.322266 C194.805665,484.190755 195.020507,484.125 195.27832,484.125 C195.560874,484.125 195.782877,484.201171 195.944336,484.353516 C196.105795,484.50586 196.186523,484.695311 196.186523,484.921875 C196.186523,485.050782 196.163412,485.173502 196.117188,485.290039 C196.070963,485.406576 195.997722,485.528645 195.897461,485.65625 C195.831054,485.740886 195.711264,485.862629 195.538086,486.021484 C195.364908,486.180339 195.255209,486.285807 195.208984,486.337891 C195.16276,486.389974 195.125326,486.440755 195.09668,486.490234 L196.186523,486.490234 Z M197.485352,484.125 C197.762697,484.125 197.979491,484.223957 198.135742,484.421875 C198.321941,484.656251 198.415039,485.044919 198.415039,485.587891 C198.415039,486.12956 198.32129,486.518879 198.133789,486.755859 C197.97884,486.951173 197.762697,487.048828 197.485352,487.048828 C197.206704,487.048828 196.982097,486.941733 196.811523,486.727539 C196.64095,486.513345 196.555664,486.131513 196.555664,485.582031 C196.555664,485.042966 196.649413,484.654949 196.836914,484.417969 C196.991863,484.222655 197.208006,484.125 197.485352,484.125 L197.485352,484.125 Z M197.485352,484.580078 C197.418945,484.580078 197.359701,484.601237 197.307617,484.643555 C197.255534,484.685873 197.215169,484.761718 197.186523,484.871094 C197.148763,485.013022 197.129883,485.251951 197.129883,485.587891 C197.129883,485.92383 197.14681,486.154622 197.180664,486.280273 C197.214518,486.405925 197.257161,486.489583 197.308594,486.53125 C197.360026,486.572917 197.418945,486.59375 197.485352,486.59375 C197.551758,486.59375 197.611002,486.572591 197.663086,486.530273 C197.71517,486.487956 197.755534,486.41211 197.78418,486.302734 C197.82194,486.162109 197.84082,485.92383 197.84082,485.587891 C197.84082,485.251951 197.823893,485.021159 197.790039,484.895508 C197.756185,484.769856 197.713542,484.685873 197.662109,484.643555 C197.610677,484.601237 197.551758,484.580078 197.485352,484.580078 L197.485352,484.580078 Z M199.709961,484.125 C199.987306,484.125 200.204101,484.223957 200.360352,484.421875 C200.54655,484.656251 200.639648,485.044919 200.639648,485.587891 C200.639648,486.12956 200.545899,486.518879 200.358398,486.755859 C200.20345,486.951173 199.987306,487.048828 199.709961,487.048828 C199.431314,487.048828 199.206707,486.941733 199.036133,486.727539 C198.865559,486.513345 198.780273,486.131513 198.780273,485.582031 C198.780273,485.042966 198.874022,484.654949 199.061523,484.417969 C199.216472,484.222655 199.432616,484.125 199.709961,484.125 L199.709961,484.125 Z M199.709961,484.580078 C199.643554,484.580078 199.58431,484.601237 199.532227,484.643555 C199.480143,484.685873 199.439779,484.761718 199.411133,484.871094 C199.373372,485.013022 199.354492,485.251951 199.354492,485.587891 C199.354492,485.92383 199.371419,486.154622 199.405273,486.280273 C199.439128,486.405925 199.481771,486.489583 199.533203,486.53125 C199.584636,486.572917 199.643554,486.59375 199.709961,486.59375 C199.776368,486.59375 199.835612,486.572591 199.887695,486.530273 C199.939779,486.487956 199.980143,486.41211 200.008789,486.302734 C200.04655,486.162109 200.06543,485.92383 200.06543,485.587891 C200.06543,485.251951 200.048503,485.021159 200.014648,484.895508 C199.980794,484.769856 199.938151,484.685873 199.886719,484.643555 C199.835286,484.601237 199.776368,484.580078 199.709961,484.580078 L199.709961,484.580078 Z" id="200" fill="#E0E0E0"></path>
                <path d="M246.186523,486.490234 L246.186523,487 L244.262695,487 C244.283529,486.807291 244.346028,486.624675 244.450195,486.452148 C244.554362,486.279622 244.76009,486.050783 245.067383,485.765625 C245.31478,485.535155 245.466471,485.378907 245.522461,485.296875 C245.597982,485.183593 245.635742,485.071615 245.635742,484.960938 C245.635742,484.838541 245.602865,484.744466 245.537109,484.678711 C245.471354,484.612955 245.380534,484.580078 245.264648,484.580078 C245.150065,484.580078 245.05892,484.614583 244.991211,484.683594 C244.923502,484.752605 244.88444,484.867187 244.874023,485.027344 L244.327148,484.972656 C244.359701,484.670571 244.461913,484.453777 244.633789,484.322266 C244.805665,484.190755 245.020507,484.125 245.27832,484.125 C245.560874,484.125 245.782877,484.201171 245.944336,484.353516 C246.105795,484.50586 246.186523,484.695311 246.186523,484.921875 C246.186523,485.050782 246.163412,485.173502 246.117188,485.290039 C246.070963,485.406576 245.997722,485.528645 245.897461,485.65625 C245.831054,485.740886 245.711264,485.862629 245.538086,486.021484 C245.364908,486.180339 245.255209,486.285807 245.208984,486.337891 C245.16276,486.389974 245.125326,486.440755 245.09668,486.490234 L246.186523,486.490234 Z M246.56543,486.263672 L247.112305,486.207031 C247.12793,486.33073 247.174153,486.428711 247.250977,486.500977 C247.3278,486.573243 247.416341,486.609375 247.516602,486.609375 C247.631185,486.609375 247.72819,486.562826 247.807617,486.469727 C247.887045,486.376627 247.926758,486.236329 247.926758,486.048828 C247.926758,485.873046 247.88737,485.741211 247.808594,485.65332 C247.729817,485.565429 247.627279,485.521484 247.500977,485.521484 C247.343424,485.521484 247.202149,485.591145 247.077148,485.730469 L246.631836,485.666016 L246.913086,484.175781 L248.364258,484.175781 L248.364258,484.689453 L247.329102,484.689453 L247.243164,485.175781 C247.365561,485.114583 247.490559,485.083984 247.618164,485.083984 C247.861655,485.083984 248.068033,485.172525 248.237305,485.349609 C248.406576,485.526694 248.491211,485.756509 248.491211,486.039062 C248.491211,486.274741 248.422852,486.485025 248.286133,486.669922 C248.099934,486.922527 247.841473,487.048828 247.510742,487.048828 C247.246418,487.048828 247.030925,486.977865 246.864258,486.835938 C246.69759,486.69401 246.597982,486.503256 246.56543,486.263672 L246.56543,486.263672 Z M249.709961,484.125 C249.987306,484.125 250.204101,484.223957 250.360352,484.421875 C250.54655,484.656251 250.639648,485.044919 250.639648,485.587891 C250.639648,486.12956 250.545899,486.518879 250.358398,486.755859 C250.20345,486.951173 249.987306,487.048828 249.709961,487.048828 C249.431314,487.048828 249.206707,486.941733 249.036133,486.727539 C248.865559,486.513345 248.780273,486.131513 248.780273,485.582031 C248.780273,485.042966 248.874022,484.654949 249.061523,484.417969 C249.216472,484.222655 249.432616,484.125 249.709961,484.125 L249.709961,484.125 Z M249.709961,484.580078 C249.643554,484.580078 249.58431,484.601237 249.532227,484.643555 C249.480143,484.685873 249.439779,484.761718 249.411133,484.871094 C249.373372,485.013022 249.354492,485.251951 249.354492,485.587891 C249.354492,485.92383 249.371419,486.154622 249.405273,486.280273 C249.439128,486.405925 249.481771,486.489583 249.533203,486.53125 C249.584636,486.572917 249.643554,486.59375 249.709961,486.59375 C249.776368,486.59375 249.835612,486.572591 249.887695,486.530273 C249.939779,486.487956 249.980143,486.41211 250.008789,486.302734 C250.04655,486.162109 250.06543,485.92383 250.06543,485.587891 C250.06543,485.251951 250.048503,485.021159 250.014648,484.895508 C249.980794,484.769856 249.938151,484.685873 249.886719,484.643555 C249.835286,484.601237 249.776368,484.580078 249.709961,484.580078 L249.709961,484.580078 Z" id="250" fill="#E0E0E0"></path>
                <path d="M294.313477,486.240234 L294.844727,486.175781 C294.861654,486.311199 294.907226,486.414713 294.981445,486.486328 C295.055664,486.557943 295.145507,486.59375 295.250977,486.59375 C295.364258,486.59375 295.459635,486.550782 295.537109,486.464844 C295.614584,486.378906 295.65332,486.263022 295.65332,486.117188 C295.65332,485.979166 295.616211,485.869792 295.541992,485.789062 C295.467773,485.708333 295.377279,485.667969 295.270508,485.667969 C295.200195,485.667969 295.116211,485.68164 295.018555,485.708984 L295.079102,485.261719 C295.22754,485.265625 295.34082,485.233399 295.418945,485.165039 C295.497071,485.096679 295.536133,485.00586 295.536133,484.892578 C295.536133,484.796223 295.507487,484.719401 295.450195,484.662109 C295.392903,484.604817 295.316732,484.576172 295.22168,484.576172 C295.127929,484.576172 295.047852,484.608724 294.981445,484.673828 C294.915039,484.738933 294.874675,484.833984 294.860352,484.958984 L294.354492,484.873047 C294.389649,484.699869 294.442708,484.561524 294.513672,484.458008 C294.584636,484.354492 294.683593,484.273112 294.810547,484.213867 C294.937501,484.154622 295.079752,484.125 295.237305,484.125 C295.506837,484.125 295.722981,484.210937 295.885742,484.382812 C296.019857,484.523438 296.086914,484.682291 296.086914,484.859375 C296.086914,485.110678 295.949546,485.311197 295.674805,485.460938 C295.838868,485.496094 295.970052,485.574869 296.068359,485.697266 C296.166667,485.819662 296.21582,485.967447 296.21582,486.140625 C296.21582,486.391928 296.124024,486.606119 295.94043,486.783203 C295.756835,486.960287 295.528322,487.048828 295.254883,487.048828 C294.995767,487.048828 294.780925,486.974285 294.610352,486.825195 C294.439778,486.676106 294.34082,486.481121 294.313477,486.240234 L294.313477,486.240234 Z M297.485352,484.125 C297.762697,484.125 297.979491,484.223957 298.135742,484.421875 C298.321941,484.656251 298.415039,485.044919 298.415039,485.587891 C298.415039,486.12956 298.32129,486.518879 298.133789,486.755859 C297.97884,486.951173 297.762697,487.048828 297.485352,487.048828 C297.206704,487.048828 296.982097,486.941733 296.811523,486.727539 C296.64095,486.513345 296.555664,486.131513 296.555664,485.582031 C296.555664,485.042966 296.649413,484.654949 296.836914,484.417969 C296.991863,484.222655 297.208006,484.125 297.485352,484.125 L297.485352,484.125 Z M297.485352,484.580078 C297.418945,484.580078 297.359701,484.601237 297.307617,484.643555 C297.255534,484.685873 297.215169,484.761718 297.186523,484.871094 C297.148763,485.013022 297.129883,485.251951 297.129883,485.587891 C297.129883,485.92383 297.14681,486.154622 297.180664,486.280273 C297.214518,486.405925 297.257161,486.489583 297.308594,486.53125 C297.360026,486.572917 297.418945,486.59375 297.485352,486.59375 C297.551758,486.59375 297.611002,486.572591 297.663086,486.530273 C297.71517,486.487956 297.755534,486.41211 297.78418,486.302734 C297.82194,486.162109 297.84082,485.92383 297.84082,485.587891 C297.84082,485.251951 297.823893,485.021159 297.790039,484.895508 C297.756185,484.769856 297.713542,484.685873 297.662109,484.643555 C297.610677,484.601237 297.551758,484.580078 297.485352,484.580078 L297.485352,484.580078 Z M299.709961,484.125 C299.987306,484.125 300.204101,484.223957 300.360352,484.421875 C300.54655,484.656251 300.639648,485.044919 300.639648,485.587891 C300.639648,486.12956 300.545899,486.518879 300.358398,486.755859 C300.20345,486.951173 299.987306,487.048828 299.709961,487.048828 C299.431314,487.048828 299.206707,486.941733 299.036133,486.727539 C298.865559,486.513345 298.780273,486.131513 298.780273,485.582031 C298.780273,485.042966 298.874023,484.654949 299.061523,484.417969 C299.216472,484.222655 299.432616,484.125 299.709961,484.125 L299.709961,484.125 Z M299.709961,484.580078 C299.643554,484.580078 299.58431,484.601237 299.532227,484.643555 C299.480143,484.685873 299.439779,484.761718 299.411133,484.871094 C299.373372,485.013022 299.354492,485.251951 299.354492,485.587891 C299.354492,485.92383 299.371419,486.154622 299.405273,486.280273 C299.439128,486.405925 299.481771,486.489583 299.533203,486.53125 C299.584636,486.572917 299.643554,486.59375 299.709961,486.59375 C299.776368,486.59375 299.835612,486.572591 299.887695,486.530273 C299.939779,486.487956 299.980143,486.41211 300.008789,486.302734 C300.04655,486.162109 300.06543,485.92383 300.06543,485.587891 C300.06543,485.251951 300.048503,485.021159 300.014648,484.895508 C299.980794,484.769856 299.938151,484.685873 299.886719,484.643555 C299.835286,484.601237 299.776368,484.580078 299.709961,484.580078 L299.709961,484.580078 Z" id="300" fill="#E0E0E0"></path>
                <path d="M344.313477,486.240234 L344.844727,486.175781 C344.861654,486.311199 344.907226,486.414713 344.981445,486.486328 C345.055664,486.557943 345.145507,486.59375 345.250977,486.59375 C345.364258,486.59375 345.459635,486.550782 345.537109,486.464844 C345.614584,486.378906 345.65332,486.263022 345.65332,486.117188 C345.65332,485.979166 345.616211,485.869792 345.541992,485.789062 C345.467773,485.708333 345.377279,485.667969 345.270508,485.667969 C345.200195,485.667969 345.116211,485.68164 345.018555,485.708984 L345.079102,485.261719 C345.22754,485.265625 345.34082,485.233399 345.418945,485.165039 C345.497071,485.096679 345.536133,485.00586 345.536133,484.892578 C345.536133,484.796223 345.507487,484.719401 345.450195,484.662109 C345.392903,484.604817 345.316732,484.576172 345.22168,484.576172 C345.127929,484.576172 345.047852,484.608724 344.981445,484.673828 C344.915039,484.738933 344.874675,484.833984 344.860352,484.958984 L344.354492,484.873047 C344.389649,484.699869 344.442708,484.561524 344.513672,484.458008 C344.584636,484.354492 344.683593,484.273112 344.810547,484.213867 C344.937501,484.154622 345.079752,484.125 345.237305,484.125 C345.506837,484.125 345.722981,484.210937 345.885742,484.382812 C346.019857,484.523438 346.086914,484.682291 346.086914,484.859375 C346.086914,485.110678 345.949546,485.311197 345.674805,485.460938 C345.838868,485.496094 345.970052,485.574869 346.068359,485.697266 C346.166667,485.819662 346.21582,485.967447 346.21582,486.140625 C346.21582,486.391928 346.124024,486.606119 345.94043,486.783203 C345.756835,486.960287 345.528322,487.048828 345.254883,487.048828 C344.995767,487.048828 344.780925,486.974285 344.610352,486.825195 C344.439778,486.676106 344.34082,486.481121 344.313477,486.240234 L344.313477,486.240234 Z M346.56543,486.263672 L347.112305,486.207031 C347.12793,486.33073 347.174153,486.428711 347.250977,486.500977 C347.3278,486.573243 347.416341,486.609375 347.516602,486.609375 C347.631185,486.609375 347.72819,486.562826 347.807617,486.469727 C347.887045,486.376627 347.926758,486.236329 347.926758,486.048828 C347.926758,485.873046 347.88737,485.741211 347.808594,485.65332 C347.729817,485.565429 347.627279,485.521484 347.500977,485.521484 C347.343424,485.521484 347.202149,485.591145 347.077148,485.730469 L346.631836,485.666016 L346.913086,484.175781 L348.364258,484.175781 L348.364258,484.689453 L347.329102,484.689453 L347.243164,485.175781 C347.365561,485.114583 347.490559,485.083984 347.618164,485.083984 C347.861655,485.083984 348.068033,485.172525 348.237305,485.349609 C348.406576,485.526694 348.491211,485.756509 348.491211,486.039062 C348.491211,486.274741 348.422852,486.485025 348.286133,486.669922 C348.099934,486.922527 347.841473,487.048828 347.510742,487.048828 C347.246418,487.048828 347.030925,486.977865 346.864258,486.835938 C346.69759,486.69401 346.597982,486.503256 346.56543,486.263672 L346.56543,486.263672 Z M349.709961,484.125 C349.987306,484.125 350.204101,484.223957 350.360352,484.421875 C350.54655,484.656251 350.639648,485.044919 350.639648,485.587891 C350.639648,486.12956 350.545899,486.518879 350.358398,486.755859 C350.20345,486.951173 349.987306,487.048828 349.709961,487.048828 C349.431314,487.048828 349.206707,486.941733 349.036133,486.727539 C348.865559,486.513345 348.780273,486.131513 348.780273,485.582031 C348.780273,485.042966 348.874023,484.654949 349.061523,484.417969 C349.216472,484.222655 349.432616,484.125 349.709961,484.125 L349.709961,484.125 Z M349.709961,484.580078 C349.643554,484.580078 349.58431,484.601237 349.532227,484.643555 C349.480143,484.685873 349.439779,484.761718 349.411133,484.871094 C349.373372,485.013022 349.354492,485.251951 349.354492,485.587891 C349.354492,485.92383 349.371419,486.154622 349.405273,486.280273 C349.439128,486.405925 349.481771,486.489583 349.533203,486.53125 C349.584636,486.572917 349.643554,486.59375 349.709961,486.59375 C349.776368,486.59375 349.835612,486.572591 349.887695,486.530273 C349.939779,486.487956 349.980143,486.41211 350.008789,486.302734 C350.04655,486.162109 350.06543,485.92383 350.06543,485.587891 C350.06543,485.251951 350.048503,485.021159 350.014648,484.895508 C349.980794,484.769856 349.938151,484.685873 349.886719,484.643555 C349.835286,484.601237 349.776368,484.580078 349.709961,484.580078 L349.709961,484.580078 Z" id="350" fill="#E0E0E0"></path>
                <path d="M395.40918,487 L395.40918,486.423828 L394.237305,486.423828 L394.237305,485.943359 L395.479492,484.125 L395.94043,484.125 L395.94043,485.941406 L396.295898,485.941406 L396.295898,486.423828 L395.94043,486.423828 L395.94043,487 L395.40918,487 Z M395.40918,485.941406 L395.40918,484.962891 L394.750977,485.941406 L395.40918,485.941406 Z M397.485352,484.125 C397.762697,484.125 397.979491,484.223957 398.135742,484.421875 C398.321941,484.656251 398.415039,485.044919 398.415039,485.587891 C398.415039,486.12956 398.32129,486.518879 398.133789,486.755859 C397.97884,486.951173 397.762697,487.048828 397.485352,487.048828 C397.206704,487.048828 396.982097,486.941733 396.811523,486.727539 C396.64095,486.513345 396.555664,486.131513 396.555664,485.582031 C396.555664,485.042966 396.649413,484.654949 396.836914,484.417969 C396.991863,484.222655 397.208006,484.125 397.485352,484.125 L397.485352,484.125 Z M397.485352,484.580078 C397.418945,484.580078 397.359701,484.601237 397.307617,484.643555 C397.255534,484.685873 397.215169,484.761718 397.186523,484.871094 C397.148763,485.013022 397.129883,485.251951 397.129883,485.587891 C397.129883,485.92383 397.14681,486.154622 397.180664,486.280273 C397.214518,486.405925 397.257161,486.489583 397.308594,486.53125 C397.360026,486.572917 397.418945,486.59375 397.485352,486.59375 C397.551758,486.59375 397.611002,486.572591 397.663086,486.530273 C397.71517,486.487956 397.755534,486.41211 397.78418,486.302734 C397.82194,486.162109 397.84082,485.92383 397.84082,485.587891 C397.84082,485.251951 397.823893,485.021159 397.790039,484.895508 C397.756185,484.769856 397.713542,484.685873 397.662109,484.643555 C397.610677,484.601237 397.551758,484.580078 397.485352,484.580078 L397.485352,484.580078 Z M399.709961,484.125 C399.987306,484.125 400.204101,484.223957 400.360352,484.421875 C400.54655,484.656251 400.639648,485.044919 400.639648,485.587891 C400.639648,486.12956 400.545899,486.518879 400.358398,486.755859 C400.20345,486.951173 399.987306,487.048828 399.709961,487.048828 C399.431314,487.048828 399.206707,486.941733 399.036133,486.727539 C398.865559,486.513345 398.780273,486.131513 398.780273,485.582031 C398.780273,485.042966 398.874023,484.654949 399.061523,484.417969 C399.216472,484.222655 399.432616,484.125 399.709961,484.125 L399.709961,484.125 Z M399.709961,484.580078 C399.643554,484.580078 399.58431,484.601237 399.532227,484.643555 C399.480143,484.685873 399.439779,484.761718 399.411133,484.871094 C399.373372,485.013022 399.354492,485.251951 399.354492,485.587891 C399.354492,485.92383 399.371419,486.154622 399.405273,486.280273 C399.439128,486.405925 399.481771,486.489583 399.533203,486.53125 C399.584636,486.572917 399.643554,486.59375 399.709961,486.59375 C399.776368,486.59375 399.835612,486.572591 399.887695,486.530273 C399.939779,486.487956 399.980143,486.41211 400.008789,486.302734 C400.04655,486.162109 400.06543,485.92383 400.06543,485.587891 C400.06543,485.251951 400.048503,485.021159 400.014648,484.895508 C399.980794,484.769856 399.938151,484.685873 399.886719,484.643555 C399.835286,484.601237 399.776368,484.580078 399.709961,484.580078 L399.709961,484.580078 Z" id="400" fill="#E0E0E0"></path>
                <path d="M445.40918,487 L445.40918,486.423828 L444.237305,486.423828 L444.237305,485.943359 L445.479492,484.125 L445.94043,484.125 L445.94043,485.941406 L446.295898,485.941406 L446.295898,486.423828 L445.94043,486.423828 L445.94043,487 L445.40918,487 Z M445.40918,485.941406 L445.40918,484.962891 L444.750977,485.941406 L445.40918,485.941406 Z M446.56543,486.263672 L447.112305,486.207031 C447.12793,486.33073 447.174153,486.428711 447.250977,486.500977 C447.3278,486.573243 447.416341,486.609375 447.516602,486.609375 C447.631185,486.609375 447.72819,486.562826 447.807617,486.469727 C447.887045,486.376627 447.926758,486.236329 447.926758,486.048828 C447.926758,485.873046 447.88737,485.741211 447.808594,485.65332 C447.729817,485.565429 447.627279,485.521484 447.500977,485.521484 C447.343424,485.521484 447.202149,485.591145 447.077148,485.730469 L446.631836,485.666016 L446.913086,484.175781 L448.364258,484.175781 L448.364258,484.689453 L447.329102,484.689453 L447.243164,485.175781 C447.365561,485.114583 447.490559,485.083984 447.618164,485.083984 C447.861655,485.083984 448.068033,485.172525 448.237305,485.349609 C448.406576,485.526694 448.491211,485.756509 448.491211,486.039062 C448.491211,486.274741 448.422852,486.485025 448.286133,486.669922 C448.099934,486.922527 447.841473,487.048828 447.510742,487.048828 C447.246418,487.048828 447.030925,486.977865 446.864258,486.835938 C446.69759,486.69401 446.597982,486.503256 446.56543,486.263672 L446.56543,486.263672 Z M449.709961,484.125 C449.987306,484.125 450.204101,484.223957 450.360352,484.421875 C450.54655,484.656251 450.639648,485.044919 450.639648,485.587891 C450.639648,486.12956 450.545899,486.518879 450.358398,486.755859 C450.20345,486.951173 449.987306,487.048828 449.709961,487.048828 C449.431314,487.048828 449.206707,486.941733 449.036133,486.727539 C448.865559,486.513345 448.780273,486.131513 448.780273,485.582031 C448.780273,485.042966 448.874023,484.654949 449.061523,484.417969 C449.216472,484.222655 449.432616,484.125 449.709961,484.125 L449.709961,484.125 Z M449.709961,484.580078 C449.643554,484.580078 449.58431,484.601237 449.532227,484.643555 C449.480143,484.685873 449.439779,484.761718 449.411133,484.871094 C449.373372,485.013022 449.354492,485.251951 449.354492,485.587891 C449.354492,485.92383 449.371419,486.154622 449.405273,486.280273 C449.439128,486.405925 449.481771,486.489583 449.533203,486.53125 C449.584636,486.572917 449.643554,486.59375 449.709961,486.59375 C449.776368,486.59375 449.835612,486.572591 449.887695,486.530273 C449.939779,486.487956 449.980143,486.41211 450.008789,486.302734 C450.04655,486.162109 450.06543,485.92383 450.06543,485.587891 C450.06543,485.251951 450.048503,485.021159 450.014648,484.895508 C449.980794,484.769856 449.938151,484.685873 449.886719,484.643555 C449.835286,484.601237 449.776368,484.580078 449.709961,484.580078 L449.709961,484.580078 Z" id="450" fill="#E0E0E0"></path>
                <path d="M485.40918,487 L485.40918,486.423828 L484.237305,486.423828 L484.237305,485.943359 L485.479492,484.125 L485.94043,484.125 L485.94043,485.941406 L486.295898,485.941406 L486.295898,486.423828 L485.94043,486.423828 L485.94043,487 L485.40918,487 Z M485.40918,485.941406 L485.40918,484.962891 L484.750977,485.941406 L485.40918,485.941406 Z M486.569336,486.337891 L487.100586,486.279297 C487.113607,486.38737 487.147461,486.467448 487.202148,486.519531 C487.256836,486.571615 487.329101,486.597656 487.418945,486.597656 C487.532227,486.597656 487.62858,486.545573 487.708008,486.441406 C487.787435,486.337239 487.838216,486.121095 487.860352,485.792969 C487.72233,485.953126 487.549806,486.033203 487.342773,486.033203 C487.117512,486.033203 486.923178,485.94629 486.759766,485.772461 C486.596353,485.598632 486.514648,485.372397 486.514648,485.09375 C486.514648,484.803384 486.600911,484.569337 486.773438,484.391602 C486.945964,484.213866 487.165689,484.125 487.432617,484.125 C487.722983,484.125 487.961262,484.237304 488.147461,484.461914 C488.33366,484.686525 488.426758,485.055987 488.426758,485.570312 C488.426758,486.093753 488.329754,486.471353 488.135742,486.703125 C487.941731,486.934897 487.689129,487.050781 487.37793,487.050781 C487.15397,487.050781 486.972982,486.991212 486.834961,486.87207 C486.696939,486.752929 486.608399,486.574871 486.569336,486.337891 L486.569336,486.337891 Z M487.811523,485.138672 C487.811523,484.961588 487.770834,484.824219 487.689453,484.726562 C487.608073,484.628906 487.513998,484.580078 487.407227,484.580078 C487.305664,484.580078 487.221355,484.620117 487.154297,484.700195 C487.087239,484.780274 487.053711,484.911457 487.053711,485.09375 C487.053711,485.278647 487.090169,485.414388 487.163086,485.500977 C487.236003,485.587566 487.327148,485.630859 487.436523,485.630859 C487.541993,485.630859 487.630859,485.589193 487.703125,485.505859 C487.775391,485.422526 487.811523,485.300131 487.811523,485.138672 L487.811523,485.138672 Z M489.709961,484.125 C489.987306,484.125 490.204101,484.223957 490.360352,484.421875 C490.54655,484.656251 490.639648,485.044919 490.639648,485.587891 C490.639648,486.12956 490.545899,486.518879 490.358398,486.755859 C490.20345,486.951173 489.987306,487.048828 489.709961,487.048828 C489.431314,487.048828 489.206707,486.941733 489.036133,486.727539 C488.865559,486.513345 488.780273,486.131513 488.780273,485.582031 C488.780273,485.042966 488.874023,484.654949 489.061523,484.417969 C489.216472,484.222655 489.432616,484.125 489.709961,484.125 L489.709961,484.125 Z M489.709961,484.580078 C489.643554,484.580078 489.58431,484.601237 489.532227,484.643555 C489.480143,484.685873 489.439779,484.761718 489.411133,484.871094 C489.373372,485.013022 489.354492,485.251951 489.354492,485.587891 C489.354492,485.92383 489.371419,486.154622 489.405273,486.280273 C489.439128,486.405925 489.481771,486.489583 489.533203,486.53125 C489.584636,486.572917 489.643554,486.59375 489.709961,486.59375 C489.776368,486.59375 489.835612,486.572591 489.887695,486.530273 C489.939779,486.487956 489.980143,486.41211 490.008789,486.302734 C490.04655,486.162109 490.06543,485.92383 490.06543,485.587891 C490.06543,485.251951 490.048503,485.021159 490.014648,484.895508 C489.980794,484.769856 489.938151,484.685873 489.886719,484.643555 C489.835286,484.601237 489.776368,484.580078 489.709961,484.580078 L489.709961,484.580078 Z" id="490" fill="#A4A4A4"></path>
            </g>
            <rect id="Rectangle-1" stroke="#000000" stroke-width="2" sketch:type="MSShapeGroup" x="0" y="0" width="500" height="500"></rect>
        </g>
    </g>
</svg>