<?xml version="1.0" encoding="UTF-8"?>
<svg width="400px" height="400px" viewBox="0 0 400 400" version="1.1" xmlns="http://www.w3.org/2000/svg" xmlns:xlink="http://www.w3.org/1999/xlink" xmlns:sketch="http://www.bohemiancoding.com/sketch/ns">
    <!-- Generator: Sketch 3.4.2 (15855) - http://www.bohemiancoding.com/sketch -->
    <title>Bed-Texture</title>
    <desc>Created with Sketch.</desc>
    <defs></defs>
    <g id="Page-1" stroke="none" stroke-width="1" fill="none" fill-rule="evenodd" sketch:type="MSPage">
        <g id="Bed-Texture" sketch:type="MSLayerGroup">
            <rect id="Rectangle-1" sketch:type="MSShapeGroup" x="0" y="0" width="400" height="400"></rect>
            <g id="Grid-H-10" transform="translate(10.000000, 9.000000)" stroke="#5D5D5D" stroke-linecap="square" stroke-dasharray="4,2" sketch:type="MSShapeGroup">
                <path d="M0,1 L389,1" id="Line"></path>
                <path d="M0,11 L389,11" id="Line"></path>
                <path d="M0,21 L389,21" id="Line"></path>
                <path d="M0,31 L389,31" id="Line"></path>
                <path d="M0,51 L389,51" id="Line"></path>
                <path d="M0,61 L389,61" id="Line"></path>
                <path d="M0,71 L389,71" id="Line"></path>
                <path d="M0,81 L389,81" id="Line"></path>
                <path d="M0,101 L389,101" id="Line"></path>
                <path d="M0,111 L389,111" id="Line"></path>
                <path d="M0,121 L389,121" id="Line"></path>
                <path d="M0,131 L389,131" id="Line"></path>
                <path d="M0,151 L389,151" id="Line"></path>
                <path d="M0,161 L389,161" id="Line"></path>
                <path d="M0,171 L389,171" id="Line"></path>
                <path d="M0,181 L389,181" id="Line"></path>
                <path d="M0,201 L389,201" id="Line"></path>
                <path d="M0,211 L389,211" id="Line"></path>
                <path d="M0,221 L389,221" id="Line"></path>
                <path d="M0,231 L389,231" id="Line"></path>
                <path d="M0,251 L389,251" id="Line"></path>
                <path d="M0,261 L389,261" id="Line"></path>
                <path d="M0,271 L389,271" id="Line"></path>
                <path d="M0,281 L389,281" id="Line"></path>
                <path d="M0,301 L389,301" id="Line"></path>
                <path d="M0,311 L389,311" id="Line"></path>
                <path d="M0,321 L389,321" id="Line"></path>
                <path d="M0,331 L389,331" id="Line"></path>
                <path d="M0,351 L389,351" id="Line"></path>
                <path d="M0,361 L389,361" id="Line"></path>
                <path d="M0,371 L389,371" id="Line"></path>
                <path d="M0,381 L389,381" id="Line"></path>
            </g>
            <g id="Grid-V-10" transform="translate(9.000000, 1.000000)" stroke="#5D5D5D" stroke-linecap="square" stroke-dasharray="4,2" sketch:type="MSShapeGroup">
                <path d="M1,0 L1,389" id="Line"></path>
                <path d="M11,0 L11,389" id="Line"></path>
                <path d="M21,0 L21,389" id="Line"></path>
                <path d="M31,0 L31,389" id="Line"></path>
                <path d="M51,0 L51,389" id="Line"></path>
                <path d="M61,0 L61,389" id="Line"></path>
                <path d="M71,0 L71,389" id="Line"></path>
                <path d="M81,0 L81,389" id="Line"></path>
                <path d="M101,0 L101,389" id="Line"></path>
                <path d="M111,0 L111,389" id="Line"></path>
                <path d="M121,0 L121,389" id="Line"></path>
                <path d="M131,0 L131,389" id="Line"></path>
                <path d="M151,0 L151,389" id="Line"></path>
                <path d="M161,0 L161,389" id="Line"></path>
                <path d="M171,0 L171,389" id="Line"></path>
                <path d="M181,0 L181,389" id="Line"></path>
                <path d="M201,0 L201,389" id="Line"></path>
                <path d="M211,0 L211,389" id="Line"></path>
                <path d="M221,0 L221,389" id="Line"></path>
                <path d="M231,0 L231,389" id="Line"></path>
                <path d="M251,0 L251,389" id="Line"></path>
                <path d="M261,0 L261,389" id="Line"></path>
                <path d="M271,0 L271,389" id="Line"></path>
                <path d="M281,0 L281,389" id="Line"></path>
                <path d="M301,0 L301,389" id="Line"></path>
                <path d="M311,0 L311,389" id="Line"></path>
                <path d="M321,0 L321,389" id="Line"></path>
                <path d="M331,0 L331,389" id="Line"></path>
                <path d="M351,0 L351,389" id="Line"></path>
                <path d="M361,0 L361,389" id="Line"></path>
                <path d="M371,0 L371,389" id="Line"></path>
                <path d="M381,0 L381,389" id="Line"></path>
            </g>
            <g id="Grid-50" transform="translate(10.000000, 1.000000)" stroke="#979797" stroke-linecap="square" sketch:type="MSShapeGroup">
                <path d="M0,49 L389,49" id="Line"></path>
                <path d="M0,99 L389,99" id="Line"></path>
                <path d="M0,149 L389,149" id="Line"></path>
                <path d="M0,199 L389,199" id="Line"></path>
                <path d="M0,249 L389,249" id="Line"></path>
                <path d="M0,299 L389,299" id="Line"></path>
                <path d="M0,349 L389,349" id="Line"></path>
                <path d="M40,0 L40,389" id="Line"></path>
                <path d="M90,0 L90,389" id="Line"></path>
                <path d="M140,0 L140,389" id="Line"></path>
                <path d="M190,0 L190,389" id="Line"></path>
                <path d="M240,0 L240,389" id="Line"></path>
                <path d="M290,0 L290,389" id="Line"></path>
                <path d="M340,0 L340,389" id="Line"></path>
            </g>
            <g id="Rat" transform="translate(72.000000, 74.000000)" stroke="#A4A4A4" stroke-width="2" sketch:type="MSShapeGroup">
                <path d="M68.609402,88.8714102 C66.7499104,91.2485497 65.234503,96.3983488 67.306089,103.097041 C69.5450601,110.336991 76.1431901,120.027227 80.7031526,126.207908 C84.3706304,131.178895 86.3720974,133.709248 86.3720974,132.165744 C86.3720974,125.796929 87.038529,111.089166 87.038529,111.089166 C87.038529,111.089166 80.6330723,99.4303013 77.1964154,94.2339681 C75.4193015,91.5469161 71.3972168,87.4390101 71.3972168,87.4390101 C71.3972168,87.4390101 69.7933378,87.3578888 68.609402,88.8714102 Z" id="Path-1"></path>
                <path d="M36.7381094,31.5734592 C35.6631314,32.9117946 32.9176559,36.1699366 31.0540003,38.2358308 C28.8718037,40.6548332 27.6285265,41.8036115 27.6285265,41.8036115 C27.6285265,41.8036115 26.3078165,41.0191138 24.757894,37.3244448 C23.0529255,33.2601809 21.0726506,26.1658834 20.3156648,24.1198459 C19.0057734,20.579374 19.3634531,19.4641565 19.3634531,19.4641565 C19.3634531,19.4641565 29.3660364,23.2994357 32.9382053,25.1175492 C34.0160763,25.6661492 35.3239102,26.230018 36.1751032,26.9123264 C37.399977,27.894174 37.9667697,28.9326172 37.9667697,28.9326172 C37.9667697,28.9326172 37.8504962,30.1885505 36.7381094,31.5734592 Z" id="Path-2"></path>
                <g id="Path-3-+-Line">
                    <path d="M128.750769,19.0959473 L42.9879467,19.1239421 L0.367820457,0.0878725405 L71.3439489,178.221454 C71.3439489,178.221454 70.9513797,178.854544 68.8228624,179.030581 C61.1005828,179.669244 41.7915582,180.665554 41.7915582,180.665554 C41.7915582,180.665554 62.0707849,180.554 70.4582248,181.556333 C73.110194,181.873254 74.9097855,184.623318 74.9097855,184.623318 C74.9097855,184.623318 76.1061106,188.634154 73.9855686,190.065583 C71.6497976,191.642299 60.3954061,196.169994 56.4674389,198.100477 C48.6899629,201.922883 47.6661874,203.013563 47.6661874,203.013563 C47.6661874,203.013563 49.1041987,203.059064 50.4197862,202.610749 C55.9102292,200.739764 66.5804933,196.169575 72.8261176,193.884151 C76.5342653,192.52725 77.8636249,192.723145 77.8636249,192.723145 C77.8636249,192.723145 79.1308887,195.353356 79.4919886,196.418068 C79.8082071,197.350447 79.8955802,198.714419 79.8955802,198.714419 C79.8955802,198.714419 78.9606234,201.579314 77.8636249,203.013563 C75.324017,206.333925 69.7480075,212.323895 66.2170139,216.550989 C62.319845,221.216446 60.576841,223.972331 60.576841,223.972331 C60.576841,223.972331 65.8572989,219.450021 67.4542282,217.965893 C71.2390666,214.4484 76.7694438,208.659826 79.8955802,205.640408 C81.4215454,204.166535 82.2646394,203.81647 82.2646394,203.81647 C82.2646394,203.81647 86.5321783,213.062093 88.1182726,215.653212 C92.7822747,223.272546 101.014929,234.447826 101.014929,234.447826 L128.870524,234.377839" id="Path-3"></path>
                    <path d="M128.203704,19.5092593 L128.203704,234.111111" id="Line" stroke-linecap="square"></path>
                </g>
                <path d="M128.186207,239.192905 C128.186207,239.192905 113.812941,238.9926 107.403185,239.192905 C106.484527,239.221613 106.200964,239.879943 106.200964,239.879943 C106.200964,239.879943 105.732302,241.657075 106.88256,242.649484 C109.457684,244.871228 114.662094,254.117648 118.603823,257.073411 C121.183539,259.007847 123.238638,258.791173 124.903429,258.763985 C126.765639,258.733573 128.088614,258.763986 128.088614,258.763986 L128.186207,239.192905 Z" id="Path-4"></path>
            </g>
            <g id="Num-Shapes" transform="translate(2.000000, 8.000000)" sketch:type="MSShapeGroup">
                <path d="M4.125,383 L3.57617188,383 L3.57617188,380.931641 C3.37565004,381.119142 3.13932428,381.257812 2.8671875,381.347656 L2.8671875,380.849609 C3.01041738,380.802734 3.16601479,380.713868 3.33398438,380.583008 C3.50195396,380.452148 3.61718719,380.29948 3.6796875,380.125 L4.125,380.125 L4.125,383 Z M5.87304688,380.125 C6.15039201,380.125 6.36718672,380.223957 6.5234375,380.421875 C6.70963635,380.656251 6.80273438,381.044919 6.80273438,381.587891 C6.80273438,382.12956 6.70898531,382.518879 6.52148438,382.755859 C6.36653568,382.951173 6.15039201,383.048828 5.87304688,383.048828 C5.59439965,383.048828 5.36979252,382.941733 5.19921875,382.727539 C5.02864498,382.513345 4.94335938,382.131513 4.94335938,381.582031 C4.94335938,381.042966 5.03710844,380.654949 5.22460938,380.417969 C5.37955807,380.222655 5.59570174,380.125 5.87304688,380.125 L5.87304688,380.125 Z M5.87304688,380.580078 C5.80664029,380.580078 5.74739609,380.601237 5.6953125,380.643555 C5.64322891,380.685873 5.60286473,380.761718 5.57421875,380.871094 C5.53645814,381.013022 5.51757812,381.251951 5.51757812,381.587891 C5.51757812,381.92383 5.53450504,382.154622 5.56835938,382.280273 C5.60221371,382.405925 5.64485651,382.489583 5.69628906,382.53125 C5.74772161,382.572917 5.80664029,382.59375 5.87304688,382.59375 C5.93945346,382.59375 5.99869766,382.572591 6.05078125,382.530273 C6.10286484,382.487956 6.14322902,382.41211 6.171875,382.302734 C6.20963561,382.162109 6.22851562,381.92383 6.22851562,381.587891 C6.22851562,381.251951 6.21158871,381.021159 6.17773438,380.895508 C6.14388004,380.769856 6.10123724,380.685873 6.04980469,380.643555 C5.99837214,380.601237 5.93945346,380.580078 5.87304688,380.580078 L5.87304688,380.580078 Z" id="10" fill="#A4A4A4"></path>
                <path d="M2.72851562,342.263672 L3.27539062,342.207031 C3.2910157,342.33073 3.3372392,342.428711 3.4140625,342.500977 C3.4908858,342.573243 3.57942658,342.609375 3.6796875,342.609375 C3.79427141,342.609375 3.89127564,342.562826 3.97070312,342.469727 C4.05013061,342.376627 4.08984375,342.236329 4.08984375,342.048828 C4.08984375,341.873046 4.05045612,341.741211 3.97167969,341.65332 C3.89290325,341.565429 3.79036521,341.521484 3.6640625,341.521484 C3.50650963,341.521484 3.365235,341.591145 3.24023438,341.730469 L2.79492188,341.666016 L3.07617188,340.175781 L4.52734375,340.175781 L4.52734375,340.689453 L3.4921875,340.689453 L3.40625,341.175781 C3.52864645,341.114583 3.6536452,341.083984 3.78125,341.083984 C4.0247408,341.083984 4.23111895,341.172525 4.40039062,341.349609 C4.5696623,341.526694 4.65429688,341.756509 4.65429688,342.039062 C4.65429688,342.274741 4.58593818,342.485025 4.44921875,342.669922 C4.2630199,342.922527 4.00455895,343.048828 3.67382812,343.048828 C3.40950389,343.048828 3.19401125,342.977865 3.02734375,342.835938 C2.86067625,342.69401 2.76106787,342.503256 2.72851562,342.263672 L2.72851562,342.263672 Z M5.87304688,340.125 C6.15039201,340.125 6.36718672,340.223957 6.5234375,340.421875 C6.70963635,340.656251 6.80273438,341.044919 6.80273438,341.587891 C6.80273438,342.12956 6.70898531,342.518879 6.52148438,342.755859 C6.36653568,342.951173 6.15039201,343.048828 5.87304688,343.048828 C5.59439965,343.048828 5.36979252,342.941733 5.19921875,342.727539 C5.02864498,342.513345 4.94335938,342.131513 4.94335938,341.582031 C4.94335938,341.042966 5.03710844,340.654949 5.22460938,340.417969 C5.37955807,340.222655 5.59570174,340.125 5.87304688,340.125 L5.87304688,340.125 Z M5.87304688,340.580078 C5.80664029,340.580078 5.74739609,340.601237 5.6953125,340.643555 C5.64322891,340.685873 5.60286473,340.761718 5.57421875,340.871094 C5.53645814,341.013022 5.51757812,341.251951 5.51757812,341.587891 C5.51757812,341.92383 5.53450504,342.154622 5.56835938,342.280273 C5.60221371,342.405925 5.64485651,342.489583 5.69628906,342.53125 C5.74772161,342.572917 5.80664029,342.59375 5.87304688,342.59375 C5.93945346,342.59375 5.99869766,342.572591 6.05078125,342.530273 C6.10286484,342.487956 6.14322902,342.41211 6.171875,342.302734 C6.20963561,342.162109 6.22851562,341.92383 6.22851562,341.587891 C6.22851562,341.251951 6.21158871,341.021159 6.17773438,340.895508 C6.14388004,340.769856 6.10123724,340.685873 6.04980469,340.643555 C5.99837214,340.601237 5.93945346,340.580078 5.87304688,340.580078 L5.87304688,340.580078 Z" id="50" fill="#E0E0E0"></path>
                <path d="M1.90039062,293 L1.3515625,293 L1.3515625,290.931641 C1.15104066,291.119142 0.914714902,291.257812 0.642578125,291.347656 L0.642578125,290.849609 C0.785808008,290.802734 0.94140541,290.713868 1.109375,290.583008 C1.27734459,290.452148 1.39257781,290.29948 1.45507812,290.125 L1.90039062,290.125 L1.90039062,293 Z M3.6484375,290.125 C3.92578264,290.125 4.14257734,290.223957 4.29882812,290.421875 C4.48502697,290.656251 4.578125,291.044919 4.578125,291.587891 C4.578125,292.12956 4.48437594,292.518879 4.296875,292.755859 C4.14192631,292.951173 3.92578264,293.048828 3.6484375,293.048828 C3.36979027,293.048828 3.14518314,292.941733 2.97460938,292.727539 C2.80403561,292.513345 2.71875,292.131513 2.71875,291.582031 C2.71875,291.042966 2.81249906,290.654949 3,290.417969 C3.15494869,290.222655 3.37109236,290.125 3.6484375,290.125 L3.6484375,290.125 Z M3.6484375,290.580078 C3.58203092,290.580078 3.52278672,290.601237 3.47070312,290.643555 C3.41861953,290.685873 3.37825535,290.761718 3.34960938,290.871094 C3.31184877,291.013022 3.29296875,291.251951 3.29296875,291.587891 C3.29296875,291.92383 3.30989566,292.154622 3.34375,292.280273 C3.37760434,292.405925 3.42024714,292.489583 3.47167969,292.53125 C3.52311224,292.572917 3.58203092,292.59375 3.6484375,292.59375 C3.71484408,292.59375 3.77408828,292.572591 3.82617188,292.530273 C3.87825547,292.487956 3.91861965,292.41211 3.94726562,292.302734 C3.98502623,292.162109 4.00390625,291.92383 4.00390625,291.587891 C4.00390625,291.251951 3.98697934,291.021159 3.953125,290.895508 C3.91927066,290.769856 3.87662786,290.685873 3.82519531,290.643555 C3.77376276,290.601237 3.71484408,290.580078 3.6484375,290.580078 L3.6484375,290.580078 Z M5.87304688,290.125 C6.15039201,290.125 6.36718672,290.223957 6.5234375,290.421875 C6.70963635,290.656251 6.80273438,291.044919 6.80273438,291.587891 C6.80273438,292.12956 6.70898531,292.518879 6.52148438,292.755859 C6.36653568,292.951173 6.15039201,293.048828 5.87304688,293.048828 C5.59439965,293.048828 5.36979252,292.941733 5.19921875,292.727539 C5.02864498,292.513345 4.94335938,292.131513 4.94335938,291.582031 C4.94335938,291.042966 5.03710844,290.654949 5.22460938,290.417969 C5.37955807,290.222655 5.59570174,290.125 5.87304688,290.125 L5.87304688,290.125 Z M5.87304688,290.580078 C5.80664029,290.580078 5.74739609,290.601237 5.6953125,290.643555 C5.64322891,290.685873 5.60286473,290.761718 5.57421875,290.871094 C5.53645814,291.013022 5.51757812,291.251951 5.51757812,291.587891 C5.51757812,291.92383 5.53450504,292.154622 5.56835938,292.280273 C5.60221371,292.405925 5.64485651,292.489583 5.69628906,292.53125 C5.74772161,292.572917 5.80664029,292.59375 5.87304688,292.59375 C5.93945346,292.59375 5.99869766,292.572591 6.05078125,292.530273 C6.10286484,292.487956 6.14322902,292.41211 6.171875,292.302734 C6.20963561,292.162109 6.22851562,291.92383 6.22851562,291.587891 C6.22851562,291.251951 6.21158871,291.021159 6.17773438,290.895508 C6.14388004,290.769856 6.10123724,290.685873 6.04980469,290.643555 C5.99837214,290.601237 5.93945346,290.580078 5.87304688,290.580078 L5.87304688,290.580078 Z" id="100" fill="#E0E0E0"></path>
                <path d="M1.90039062,243 L1.3515625,243 L1.3515625,240.931641 C1.15104066,241.119142 0.914714902,241.257812 0.642578125,241.347656 L0.642578125,240.849609 C0.785808008,240.802734 0.94140541,240.713868 1.109375,240.583008 C1.27734459,240.452148 1.39257781,240.29948 1.45507812,240.125 L1.90039062,240.125 L1.90039062,243 Z M2.72851562,242.263672 L3.27539062,242.207031 C3.2910157,242.33073 3.3372392,242.428711 3.4140625,242.500977 C3.4908858,242.573243 3.57942658,242.609375 3.6796875,242.609375 C3.79427141,242.609375 3.89127564,242.562826 3.97070312,242.469727 C4.05013061,242.376627 4.08984375,242.236329 4.08984375,242.048828 C4.08984375,241.873046 4.05045612,241.741211 3.97167969,241.65332 C3.89290325,241.565429 3.79036521,241.521484 3.6640625,241.521484 C3.50650963,241.521484 3.365235,241.591145 3.24023438,241.730469 L2.79492188,241.666016 L3.07617188,240.175781 L4.52734375,240.175781 L4.52734375,240.689453 L3.4921875,240.689453 L3.40625,241.175781 C3.52864645,241.114583 3.6536452,241.083984 3.78125,241.083984 C4.0247408,241.083984 4.23111895,241.172525 4.40039062,241.349609 C4.5696623,241.526694 4.65429688,241.756509 4.65429688,242.039062 C4.65429688,242.274741 4.58593818,242.485025 4.44921875,242.669922 C4.2630199,242.922527 4.00455895,243.048828 3.67382812,243.048828 C3.40950389,243.048828 3.19401125,242.977865 3.02734375,242.835938 C2.86067625,242.69401 2.76106787,242.503256 2.72851562,242.263672 L2.72851562,242.263672 Z M5.87304688,240.125 C6.15039201,240.125 6.36718672,240.223957 6.5234375,240.421875 C6.70963635,240.656251 6.80273438,241.044919 6.80273438,241.587891 C6.80273438,242.12956 6.70898531,242.518879 6.52148438,242.755859 C6.36653568,242.951173 6.15039201,243.048828 5.87304688,243.048828 C5.59439965,243.048828 5.36979252,242.941733 5.19921875,242.727539 C5.02864498,242.513345 4.94335938,242.131513 4.94335938,241.582031 C4.94335938,241.042966 5.03710844,240.654949 5.22460938,240.417969 C5.37955807,240.222655 5.59570174,240.125 5.87304688,240.125 L5.87304688,240.125 Z M5.87304688,240.580078 C5.80664029,240.580078 5.74739609,240.601237 5.6953125,240.643555 C5.64322891,240.685873 5.60286473,240.761718 5.57421875,240.871094 C5.53645814,241.013022 5.51757812,241.251951 5.51757812,241.587891 C5.51757812,241.92383 5.53450504,242.154622 5.56835938,242.280273 C5.60221371,242.405925 5.64485651,242.489583 5.69628906,242.53125 C5.74772161,242.572917 5.80664029,242.59375 5.87304688,242.59375 C5.93945346,242.59375 5.99869766,242.572591 6.05078125,242.530273 C6.10286484,242.487956 6.14322902,242.41211 6.171875,242.302734 C6.20963561,242.162109 6.22851562,241.92383 6.22851562,241.587891 C6.22851562,241.251951 6.21158871,241.021159 6.17773438,240.895508 C6.14388004,240.769856 6.10123724,240.685873 6.04980469,240.643555 C5.99837214,240.601237 5.93945346,240.580078 5.87304688,240.580078 L5.87304688,240.580078 Z" id="150" fill="#E0E0E0"></path>
                <path d="M2.34960938,192.490234 L2.34960938,193 L0.42578125,193 C0.446614687,192.807291 0.509114063,192.624675 0.61328125,192.452148 C0.717448437,192.279622 0.923175547,192.050783 1.23046875,191.765625 C1.47786582,191.535155 1.62955701,191.378907 1.68554688,191.296875 C1.76106809,191.183593 1.79882812,191.071615 1.79882812,190.960938 C1.79882812,190.838541 1.76595085,190.744466 1.70019531,190.678711 C1.63443978,190.612955 1.54362037,190.580078 1.42773438,190.580078 C1.31315047,190.580078 1.22200555,190.614583 1.15429688,190.683594 C1.0865882,190.752605 1.04752609,190.867187 1.03710938,191.027344 L0.490234375,190.972656 C0.522786621,190.670571 0.624999141,190.453777 0.796875,190.322266 C0.968750859,190.190755 1.18359246,190.125 1.44140625,190.125 C1.72395975,190.125 1.94596273,190.201171 2.10742188,190.353516 C2.26888102,190.50586 2.34960938,190.695311 2.34960938,190.921875 C2.34960938,191.050782 2.32649763,191.173502 2.28027344,191.290039 C2.23404925,191.406576 2.16080779,191.528645 2.06054688,191.65625 C1.99414029,191.740886 1.87434982,191.862629 1.70117188,192.021484 C1.52799393,192.180339 1.4182945,192.285807 1.37207031,192.337891 C1.32584612,192.389974 1.2884116,192.440755 1.25976562,192.490234 L2.34960938,192.490234 Z M3.6484375,190.125 C3.92578264,190.125 4.14257734,190.223957 4.29882812,190.421875 C4.48502697,190.656251 4.578125,191.044919 4.578125,191.587891 C4.578125,192.12956 4.48437594,192.518879 4.296875,192.755859 C4.14192631,192.951173 3.92578264,193.048828 3.6484375,193.048828 C3.36979027,193.048828 3.14518314,192.941733 2.97460938,192.727539 C2.80403561,192.513345 2.71875,192.131513 2.71875,191.582031 C2.71875,191.042966 2.81249906,190.654949 3,190.417969 C3.15494869,190.222655 3.37109236,190.125 3.6484375,190.125 L3.6484375,190.125 Z M3.6484375,190.580078 C3.58203092,190.580078 3.52278672,190.601237 3.47070312,190.643555 C3.41861953,190.685873 3.37825535,190.761718 3.34960938,190.871094 C3.31184877,191.013022 3.29296875,191.251951 3.29296875,191.587891 C3.29296875,191.92383 3.30989566,192.154622 3.34375,192.280273 C3.37760434,192.405925 3.42024714,192.489583 3.47167969,192.53125 C3.52311224,192.572917 3.58203092,192.59375 3.6484375,192.59375 C3.71484408,192.59375 3.77408828,192.572591 3.82617188,192.530273 C3.87825547,192.487956 3.91861965,192.41211 3.94726562,192.302734 C3.98502623,192.162109 4.00390625,191.92383 4.00390625,191.587891 C4.00390625,191.251951 3.98697934,191.021159 3.953125,190.895508 C3.91927066,190.769856 3.87662786,190.685873 3.82519531,190.643555 C3.77376276,190.601237 3.71484408,190.580078 3.6484375,190.580078 L3.6484375,190.580078 Z M5.87304688,190.125 C6.15039201,190.125 6.36718672,190.223957 6.5234375,190.421875 C6.70963635,190.656251 6.80273438,191.044919 6.80273438,191.587891 C6.80273438,192.12956 6.70898531,192.518879 6.52148438,192.755859 C6.36653568,192.951173 6.15039201,193.048828 5.87304688,193.048828 C5.59439965,193.048828 5.36979252,192.941733 5.19921875,192.727539 C5.02864498,192.513345 4.94335938,192.131513 4.94335938,191.582031 C4.94335938,191.042966 5.03710844,190.654949 5.22460938,190.417969 C5.37955807,190.222655 5.59570174,190.125 5.87304688,190.125 L5.87304688,190.125 Z M5.87304688,190.580078 C5.80664029,190.580078 5.74739609,190.601237 5.6953125,190.643555 C5.64322891,190.685873 5.60286473,190.761718 5.57421875,190.871094 C5.53645814,191.013022 5.51757812,191.251951 5.51757812,191.587891 C5.51757812,191.92383 5.53450504,192.154622 5.56835938,192.280273 C5.60221371,192.405925 5.64485651,192.489583 5.69628906,192.53125 C5.74772161,192.572917 5.80664029,192.59375 5.87304688,192.59375 C5.93945346,192.59375 5.99869766,192.572591 6.05078125,192.530273 C6.10286484,192.487956 6.14322902,192.41211 6.171875,192.302734 C6.20963561,192.162109 6.22851562,191.92383 6.22851562,191.587891 C6.22851562,191.251951 6.21158871,191.021159 6.17773438,190.895508 C6.14388004,190.769856 6.10123724,190.685873 6.04980469,190.643555 C5.99837214,190.601237 5.93945346,190.580078 5.87304688,190.580078 L5.87304688,190.580078 Z" id="200" fill="#E0E0E0"></path>
                <path d="M2.34960938,142.490234 L2.34960938,143 L0.42578125,143 C0.446614687,142.807291 0.509114063,142.624675 0.61328125,142.452148 C0.717448437,142.279622 0.923175547,142.050783 1.23046875,141.765625 C1.47786582,141.535155 1.62955701,141.378907 1.68554688,141.296875 C1.76106809,141.183593 1.79882812,141.071615 1.79882812,140.960938 C1.79882812,140.838541 1.76595085,140.744466 1.70019531,140.678711 C1.63443978,140.612955 1.54362037,140.580078 1.42773438,140.580078 C1.31315047,140.580078 1.22200555,140.614583 1.15429688,140.683594 C1.0865882,140.752605 1.04752609,140.867187 1.03710938,141.027344 L0.490234375,140.972656 C0.522786621,140.670571 0.624999141,140.453777 0.796875,140.322266 C0.968750859,140.190755 1.18359246,140.125 1.44140625,140.125 C1.72395975,140.125 1.94596273,140.201171 2.10742188,140.353516 C2.26888102,140.50586 2.34960938,140.695311 2.34960938,140.921875 C2.34960938,141.050782 2.32649763,141.173502 2.28027344,141.290039 C2.23404925,141.406576 2.16080779,141.528645 2.06054688,141.65625 C1.99414029,141.740886 1.87434982,141.862629 1.70117188,142.021484 C1.52799393,142.180339 1.4182945,142.285807 1.37207031,142.337891 C1.32584612,142.389974 1.2884116,142.440755 1.25976562,142.490234 L2.34960938,142.490234 Z M2.72851562,142.263672 L3.27539062,142.207031 C3.2910157,142.33073 3.3372392,142.428711 3.4140625,142.500977 C3.4908858,142.573243 3.57942658,142.609375 3.6796875,142.609375 C3.79427141,142.609375 3.89127564,142.562826 3.97070312,142.469727 C4.05013061,142.376627 4.08984375,142.236329 4.08984375,142.048828 C4.08984375,141.873046 4.05045612,141.741211 3.97167969,141.65332 C3.89290325,141.565429 3.79036521,141.521484 3.6640625,141.521484 C3.50650963,141.521484 3.365235,141.591145 3.24023438,141.730469 L2.79492188,141.666016 L3.07617188,140.175781 L4.52734375,140.175781 L4.52734375,140.689453 L3.4921875,140.689453 L3.40625,141.175781 C3.52864645,141.114583 3.6536452,141.083984 3.78125,141.083984 C4.0247408,141.083984 4.23111895,141.172525 4.40039062,141.349609 C4.5696623,141.526694 4.65429688,141.756509 4.65429688,142.039062 C4.65429688,142.274741 4.58593818,142.485025 4.44921875,142.669922 C4.2630199,142.922527 4.00455895,143.048828 3.67382812,143.048828 C3.40950389,143.048828 3.19401125,142.977865 3.02734375,142.835938 C2.86067625,142.69401 2.76106787,142.503256 2.72851562,142.263672 L2.72851562,142.263672 Z M5.87304688,140.125 C6.15039201,140.125 6.36718672,140.223957 6.5234375,140.421875 C6.70963635,140.656251 6.80273438,141.044919 6.80273438,141.587891 C6.80273438,142.12956 6.70898531,142.518879 6.52148438,142.755859 C6.36653568,142.951173 6.15039201,143.048828 5.87304688,143.048828 C5.59439965,143.048828 5.36979252,142.941733 5.19921875,142.727539 C5.02864498,142.513345 4.94335938,142.131513 4.94335938,141.582031 C4.94335938,141.042966 5.03710844,140.654949 5.22460938,140.417969 C5.37955807,140.222655 5.59570174,140.125 5.87304688,140.125 L5.87304688,140.125 Z M5.87304688,140.580078 C5.80664029,140.580078 5.74739609,140.601237 5.6953125,140.643555 C5.64322891,140.685873 5.60286473,140.761718 5.57421875,140.871094 C5.53645814,141.013022 5.51757812,141.251951 5.51757812,141.587891 C5.51757812,141.92383 5.53450504,142.154622 5.56835938,142.280273 C5.60221371,142.405925 5.64485651,142.489583 5.69628906,142.53125 C5.74772161,142.572917 5.80664029,142.59375 5.87304688,142.59375 C5.93945346,142.59375 5.99869766,142.572591 6.05078125,142.530273 C6.10286484,142.487956 6.14322902,142.41211 6.171875,142.302734 C6.20963561,142.162109 6.22851562,141.92383 6.22851562,141.587891 C6.22851562,141.251951 6.21158871,141.021159 6.17773438,140.895508 C6.14388004,140.769856 6.10123724,140.685873 6.04980469,140.643555 C5.99837214,140.601237 5.93945346,140.580078 5.87304688,140.580078 L5.87304688,140.580078 Z" id="250" fill="#E0E0E0"></path>
                <path d="M0.4765625,92.2402344 L1.0078125,92.1757812 C1.02473967,92.3111986 1.07031213,92.4147132 1.14453125,92.4863281 C1.21875037,92.5579431 1.30859322,92.59375 1.4140625,92.59375 C1.52734432,92.59375 1.62272097,92.5507817 1.70019531,92.4648438 C1.77766966,92.3789058 1.81640625,92.2630216 1.81640625,92.1171875 C1.81640625,91.979166 1.77929725,91.8697921 1.70507812,91.7890625 C1.630859,91.7083329 1.54036512,91.6679688 1.43359375,91.6679688 C1.3632809,91.6679688 1.27929736,91.6816405 1.18164062,91.7089844 L1.2421875,91.2617188 C1.39062574,91.265625 1.50390586,91.2333988 1.58203125,91.1650391 C1.66015664,91.0966793 1.69921875,91.0058599 1.69921875,90.8925781 C1.69921875,90.7962235 1.6705732,90.7194013 1.61328125,90.6621094 C1.5559893,90.6048174 1.47981818,90.5761719 1.38476562,90.5761719 C1.29101516,90.5761719 1.21093783,90.6087236 1.14453125,90.6738281 C1.07812467,90.7389326 1.03776049,90.8339837 1.0234375,90.9589844 L0.517578125,90.8730469 C0.552734551,90.6998689 0.605793916,90.561524 0.676757812,90.4580078 C0.747721709,90.3544917 0.846679053,90.2731123 0.973632812,90.2138672 C1.10058657,90.1546221 1.24283775,90.125 1.40039062,90.125 C1.66992322,90.125 1.88606689,90.2109366 2.04882812,90.3828125 C2.18294338,90.5234382 2.25,90.6822908 2.25,90.859375 C2.25,91.1106783 2.11263158,91.3111972 1.83789062,91.4609375 C2.00195395,91.4960939 2.13313753,91.5748692 2.23144531,91.6972656 C2.3297531,91.8196621 2.37890625,91.9674471 2.37890625,92.140625 C2.37890625,92.3919283 2.28711029,92.6061189 2.10351562,92.7832031 C1.91992096,92.9602873 1.69140762,93.0488281 1.41796875,93.0488281 C1.15885287,93.0488281 0.94401127,92.9742846 0.7734375,92.8251953 C0.60286373,92.676106 0.503906387,92.481121 0.4765625,92.2402344 L0.4765625,92.2402344 Z M3.6484375,90.125 C3.92578264,90.125 4.14257734,90.2239573 4.29882812,90.421875 C4.48502697,90.6562512 4.578125,91.0449192 4.578125,91.5878906 C4.578125,92.12956 4.48437594,92.518879 4.296875,92.7558594 C4.14192631,92.9511729 3.92578264,93.0488281 3.6484375,93.0488281 C3.36979027,93.0488281 3.14518314,92.9417328 2.97460938,92.7275391 C2.80403561,92.5133453 2.71875,92.1315132 2.71875,91.5820312 C2.71875,91.0429661 2.81249906,90.6549491 3,90.4179688 C3.15494869,90.2226553 3.37109236,90.125 3.6484375,90.125 L3.6484375,90.125 Z M3.6484375,90.5800781 C3.58203092,90.5800781 3.52278672,90.6012368 3.47070312,90.6435547 C3.41861953,90.6858726 3.37825535,90.7617182 3.34960938,90.8710938 C3.31184877,91.0130215 3.29296875,91.2519514 3.29296875,91.5878906 C3.29296875,91.9238298 3.30989566,92.1546218 3.34375,92.2802734 C3.37760434,92.4059251 3.42024714,92.4895831 3.47167969,92.53125 C3.52311224,92.5729169 3.58203092,92.59375 3.6484375,92.59375 C3.71484408,92.59375 3.77408828,92.5725914 3.82617188,92.5302734 C3.87825547,92.4879555 3.91861965,92.4121099 3.94726562,92.3027344 C3.98502623,92.1621087 4.00390625,91.9238298 4.00390625,91.5878906 C4.00390625,91.2519514 3.98697934,91.0211595 3.953125,90.8955078 C3.91927066,90.7698561 3.87662786,90.6858726 3.82519531,90.6435547 C3.77376276,90.6012368 3.71484408,90.5800781 3.6484375,90.5800781 L3.6484375,90.5800781 Z M5.87304688,90.125 C6.15039201,90.125 6.36718672,90.2239573 6.5234375,90.421875 C6.70963635,90.6562512 6.80273438,91.0449192 6.80273438,91.5878906 C6.80273438,92.12956 6.70898531,92.518879 6.52148438,92.7558594 C6.36653568,92.9511729 6.15039201,93.0488281 5.87304688,93.0488281 C5.59439965,93.0488281 5.36979252,92.9417328 5.19921875,92.7275391 C5.02864498,92.5133453 4.94335938,92.1315132 4.94335938,91.5820312 C4.94335938,91.0429661 5.03710844,90.6549491 5.22460938,90.4179688 C5.37955807,90.2226553 5.59570174,90.125 5.87304688,90.125 L5.87304688,90.125 Z M5.87304688,90.5800781 C5.80664029,90.5800781 5.74739609,90.6012368 5.6953125,90.6435547 C5.64322891,90.6858726 5.60286473,90.7617182 5.57421875,90.8710938 C5.53645814,91.0130215 5.51757812,91.2519514 5.51757812,91.5878906 C5.51757812,91.9238298 5.53450504,92.1546218 5.56835938,92.2802734 C5.60221371,92.4059251 5.64485651,92.4895831 5.69628906,92.53125 C5.74772161,92.5729169 5.80664029,92.59375 5.87304688,92.59375 C5.93945346,92.59375 5.99869766,92.5725914 6.05078125,92.5302734 C6.10286484,92.4879555 6.14322902,92.4121099 6.171875,92.3027344 C6.20963561,92.1621087 6.22851562,91.9238298 6.22851562,91.5878906 C6.22851562,91.2519514 6.21158871,91.0211595 6.17773438,90.8955078 C6.14388004,90.7698561 6.10123724,90.6858726 6.04980469,90.6435547 C5.99837214,90.6012368 5.93945346,90.5800781 5.87304688,90.5800781 L5.87304688,90.5800781 Z" id="300" fill="#E0E0E0"></path>
                <path d="M0.4765625,42.2402344 L1.0078125,42.1757812 C1.02473967,42.3111986 1.07031213,42.4147132 1.14453125,42.4863281 C1.21875037,42.5579431 1.30859322,42.59375 1.4140625,42.59375 C1.52734432,42.59375 1.62272097,42.5507817 1.70019531,42.4648438 C1.77766966,42.3789058 1.81640625,42.2630216 1.81640625,42.1171875 C1.81640625,41.979166 1.77929725,41.8697921 1.70507812,41.7890625 C1.630859,41.7083329 1.54036512,41.6679688 1.43359375,41.6679688 C1.3632809,41.6679688 1.27929736,41.6816405 1.18164062,41.7089844 L1.2421875,41.2617188 C1.39062574,41.265625 1.50390586,41.2333988 1.58203125,41.1650391 C1.66015664,41.0966793 1.69921875,41.0058599 1.69921875,40.8925781 C1.69921875,40.7962235 1.6705732,40.7194013 1.61328125,40.6621094 C1.5559893,40.6048174 1.47981818,40.5761719 1.38476562,40.5761719 C1.29101516,40.5761719 1.21093783,40.6087236 1.14453125,40.6738281 C1.07812467,40.7389326 1.03776049,40.8339837 1.0234375,40.9589844 L0.517578125,40.8730469 C0.552734551,40.6998689 0.605793916,40.561524 0.676757812,40.4580078 C0.747721709,40.3544917 0.846679053,40.2731123 0.973632812,40.2138672 C1.10058657,40.1546221 1.24283775,40.125 1.40039062,40.125 C1.66992322,40.125 1.88606689,40.2109366 2.04882812,40.3828125 C2.18294338,40.5234382 2.25,40.6822908 2.25,40.859375 C2.25,41.1106783 2.11263158,41.3111972 1.83789062,41.4609375 C2.00195395,41.4960939 2.13313753,41.5748692 2.23144531,41.6972656 C2.3297531,41.8196621 2.37890625,41.9674471 2.37890625,42.140625 C2.37890625,42.3919283 2.28711029,42.6061189 2.10351562,42.7832031 C1.91992096,42.9602873 1.69140762,43.0488281 1.41796875,43.0488281 C1.15885287,43.0488281 0.94401127,42.9742846 0.7734375,42.8251953 C0.60286373,42.676106 0.503906387,42.481121 0.4765625,42.2402344 L0.4765625,42.2402344 Z M2.72851562,42.2636719 L3.27539062,42.2070312 C3.2910157,42.3307298 3.3372392,42.4287106 3.4140625,42.5009766 C3.4908858,42.5732425 3.57942658,42.609375 3.6796875,42.609375 C3.79427141,42.609375 3.89127564,42.562826 3.97070312,42.4697266 C4.05013061,42.3766271 4.08984375,42.2363291 4.08984375,42.0488281 C4.08984375,41.873046 4.05045612,41.7412114 3.97167969,41.6533203 C3.89290325,41.5654292 3.79036521,41.5214844 3.6640625,41.5214844 C3.50650963,41.5214844 3.365235,41.5911451 3.24023438,41.7304688 L2.79492188,41.6660156 L3.07617188,40.1757812 L4.52734375,40.1757812 L4.52734375,40.6894531 L3.4921875,40.6894531 L3.40625,41.1757812 C3.52864645,41.114583 3.6536452,41.0839844 3.78125,41.0839844 C4.0247408,41.0839844 4.23111895,41.1725252 4.40039062,41.3496094 C4.5696623,41.5266936 4.65429688,41.756509 4.65429688,42.0390625 C4.65429688,42.2747408 4.58593818,42.4850251 4.44921875,42.6699219 C4.2630199,42.9225273 4.00455895,43.0488281 3.67382812,43.0488281 C3.40950389,43.0488281 3.19401125,42.9778653 3.02734375,42.8359375 C2.86067625,42.6940097 2.76106787,42.5032564 2.72851562,42.2636719 L2.72851562,42.2636719 Z M5.87304688,40.125 C6.15039201,40.125 6.36718672,40.2239573 6.5234375,40.421875 C6.70963635,40.6562512 6.80273438,41.0449192 6.80273438,41.5878906 C6.80273438,42.12956 6.70898531,42.518879 6.52148438,42.7558594 C6.36653568,42.9511729 6.15039201,43.0488281 5.87304688,43.0488281 C5.59439965,43.0488281 5.36979252,42.9417328 5.19921875,42.7275391 C5.02864498,42.5133453 4.94335938,42.1315132 4.94335938,41.5820312 C4.94335938,41.0429661 5.03710844,40.6549491 5.22460938,40.4179688 C5.37955807,40.2226553 5.59570174,40.125 5.87304688,40.125 L5.87304688,40.125 Z M5.87304688,40.5800781 C5.80664029,40.5800781 5.74739609,40.6012368 5.6953125,40.6435547 C5.64322891,40.6858726 5.60286473,40.7617182 5.57421875,40.8710938 C5.53645814,41.0130215 5.51757812,41.2519514 5.51757812,41.5878906 C5.51757812,41.9238298 5.53450504,42.1546218 5.56835938,42.2802734 C5.60221371,42.4059251 5.64485651,42.4895831 5.69628906,42.53125 C5.74772161,42.5729169 5.80664029,42.59375 5.87304688,42.59375 C5.93945346,42.59375 5.99869766,42.5725914 6.05078125,42.5302734 C6.10286484,42.4879555 6.14322902,42.4121099 6.171875,42.3027344 C6.20963561,42.1621087 6.22851562,41.9238298 6.22851562,41.5878906 C6.22851562,41.2519514 6.21158871,41.0211595 6.17773438,40.8955078 C6.14388004,40.7698561 6.10123724,40.6858726 6.04980469,40.6435547 C5.99837214,40.6012368 5.93945346,40.5800781 5.87304688,40.5800781 L5.87304688,40.5800781 Z" id="350" fill="#E0E0E0"></path>
                <path d="M45.453125,386.263672 L46,386.207031 C46.0156251,386.33073 46.0618486,386.428711 46.1386719,386.500977 C46.2154952,386.573243 46.304036,386.609375 46.4042969,386.609375 C46.5188808,386.609375 46.615885,386.562826 46.6953125,386.469727 C46.77474,386.376627 46.8144531,386.236329 46.8144531,386.048828 C46.8144531,385.873046 46.7750655,385.741211 46.6962891,385.65332 C46.6175126,385.565429 46.5149746,385.521484 46.3886719,385.521484 C46.231119,385.521484 46.0898444,385.591145 45.9648438,385.730469 L45.5195312,385.666016 L45.8007812,384.175781 L47.2519531,384.175781 L47.2519531,384.689453 L46.2167969,384.689453 L46.1308594,385.175781 C46.2532558,385.114583 46.3782546,385.083984 46.5058594,385.083984 C46.7493502,385.083984 46.9557283,385.172525 47.125,385.349609 C47.2942717,385.526694 47.3789062,385.756509 47.3789062,386.039062 C47.3789062,386.274741 47.3105476,386.485025 47.1738281,386.669922 C46.9876293,386.922527 46.7291683,387.048828 46.3984375,387.048828 C46.1341133,387.048828 45.9186206,386.977865 45.7519531,386.835938 C45.5852856,386.69401 45.4856772,386.503256 45.453125,386.263672 L45.453125,386.263672 Z M48.5976562,384.125 C48.8750014,384.125 49.0917961,384.223957 49.2480469,384.421875 C49.4342457,384.656251 49.5273438,385.044919 49.5273438,385.587891 C49.5273438,386.12956 49.4335947,386.518879 49.2460938,386.755859 C49.0911451,386.951173 48.8750014,387.048828 48.5976562,387.048828 C48.319009,387.048828 48.0944019,386.941733 47.9238281,386.727539 C47.7532544,386.513345 47.6679688,386.131513 47.6679688,385.582031 C47.6679688,385.042966 47.7617178,384.654949 47.9492188,384.417969 C48.1041674,384.222655 48.3203111,384.125 48.5976562,384.125 L48.5976562,384.125 Z M48.5976562,384.580078 C48.5312497,384.580078 48.4720055,384.601237 48.4199219,384.643555 C48.3678383,384.685873 48.3274741,384.761718 48.2988281,384.871094 C48.2610675,385.013022 48.2421875,385.251951 48.2421875,385.587891 C48.2421875,385.92383 48.2591144,386.154622 48.2929688,386.280273 C48.3268231,386.405925 48.3694659,386.489583 48.4208984,386.53125 C48.472331,386.572917 48.5312497,386.59375 48.5976562,386.59375 C48.6640628,386.59375 48.723307,386.572591 48.7753906,386.530273 C48.8274742,386.487956 48.8678384,386.41211 48.8964844,386.302734 C48.934245,386.162109 48.953125,385.92383 48.953125,385.587891 C48.953125,385.251951 48.9361981,385.021159 48.9023438,384.895508 C48.8684894,384.769856 48.8258466,384.685873 48.7744141,384.643555 C48.7229815,384.601237 48.6640628,384.580078 48.5976562,384.580078 L48.5976562,384.580078 Z" id="50" fill="#E0E0E0"></path>
                <path d="M95.7373047,387 L95.1884766,387 L95.1884766,384.931641 C94.9879547,385.119142 94.751629,385.257812 94.4794922,385.347656 L94.4794922,384.849609 C94.6227221,384.802734 94.7783195,384.713868 94.9462891,384.583008 C95.1142587,384.452148 95.2294919,384.29948 95.2919922,384.125 L95.7373047,384.125 L95.7373047,387 Z M97.4853516,384.125 C97.7626967,384.125 97.9794914,384.223957 98.1357422,384.421875 C98.321941,384.656251 98.4150391,385.044919 98.4150391,385.587891 C98.4150391,386.12956 98.32129,386.518879 98.1337891,386.755859 C97.9788404,386.951173 97.7626967,387.048828 97.4853516,387.048828 C97.2067043,387.048828 96.9820972,386.941733 96.8115234,386.727539 C96.6409497,386.513345 96.5556641,386.131513 96.5556641,385.582031 C96.5556641,385.042966 96.6494131,384.654949 96.8369141,384.417969 C96.9918628,384.222655 97.2080064,384.125 97.4853516,384.125 L97.4853516,384.125 Z M97.4853516,384.580078 C97.418945,384.580078 97.3597008,384.601237 97.3076172,384.643555 C97.2555336,384.685873 97.2151694,384.761718 97.1865234,384.871094 C97.1487628,385.013022 97.1298828,385.251951 97.1298828,385.587891 C97.1298828,385.92383 97.1468097,386.154622 97.1806641,386.280273 C97.2145184,386.405925 97.2571612,386.489583 97.3085938,386.53125 C97.3600263,386.572917 97.418945,386.59375 97.4853516,386.59375 C97.5517581,386.59375 97.6110023,386.572591 97.6630859,386.530273 C97.7151695,386.487956 97.7555337,386.41211 97.7841797,386.302734 C97.8219403,386.162109 97.8408203,385.92383 97.8408203,385.587891 C97.8408203,385.251951 97.8238934,385.021159 97.7900391,384.895508 C97.7561847,384.769856 97.7135419,384.685873 97.6621094,384.643555 C97.6106768,384.601237 97.5517581,384.580078 97.4853516,384.580078 L97.4853516,384.580078 Z M99.7099609,384.125 C99.9873061,384.125 100.204101,384.223957 100.360352,384.421875 C100.54655,384.656251 100.639648,385.044919 100.639648,385.587891 C100.639648,386.12956 100.545899,386.518879 100.358398,386.755859 C100.20345,386.951173 99.9873061,387.048828 99.7099609,387.048828 C99.4313137,387.048828 99.2067066,386.941733 99.0361328,386.727539 C98.865559,386.513345 98.7802734,386.131513 98.7802734,385.582031 C98.7802734,385.042966 98.8740225,384.654949 99.0615234,384.417969 C99.2164721,384.222655 99.4326158,384.125 99.7099609,384.125 L99.7099609,384.125 Z M99.7099609,384.580078 C99.6435544,384.580078 99.5843102,384.601237 99.5322266,384.643555 C99.480143,384.685873 99.4397788,384.761718 99.4111328,384.871094 C99.3733722,385.013022 99.3544922,385.251951 99.3544922,385.587891 C99.3544922,385.92383 99.3714191,386.154622 99.4052734,386.280273 C99.4391278,386.405925 99.4817706,386.489583 99.5332031,386.53125 C99.5846357,386.572917 99.6435544,386.59375 99.7099609,386.59375 C99.7763675,386.59375 99.8356117,386.572591 99.8876953,386.530273 C99.9397789,386.487956 99.9801431,386.41211 100.008789,386.302734 C100.04655,386.162109 100.06543,385.92383 100.06543,385.587891 C100.06543,385.251951 100.048503,385.021159 100.014648,384.895508 C99.9807941,384.769856 99.9381513,384.685873 99.8867188,384.643555 C99.8352862,384.601237 99.7763675,384.580078 99.7099609,384.580078 L99.7099609,384.580078 Z" id="100" fill="#E0E0E0"></path>
                <path d="M145.737305,387 L145.188477,387 L145.188477,384.931641 C144.987955,385.119142 144.751629,385.257812 144.479492,385.347656 L144.479492,384.849609 C144.622722,384.802734 144.778319,384.713868 144.946289,384.583008 C145.114259,384.452148 145.229492,384.29948 145.291992,384.125 L145.737305,384.125 L145.737305,387 Z M146.56543,386.263672 L147.112305,386.207031 C147.12793,386.33073 147.174153,386.428711 147.250977,386.500977 C147.3278,386.573243 147.416341,386.609375 147.516602,386.609375 C147.631185,386.609375 147.72819,386.562826 147.807617,386.469727 C147.887045,386.376627 147.926758,386.236329 147.926758,386.048828 C147.926758,385.873046 147.88737,385.741211 147.808594,385.65332 C147.729817,385.565429 147.627279,385.521484 147.500977,385.521484 C147.343424,385.521484 147.202149,385.591145 147.077148,385.730469 L146.631836,385.666016 L146.913086,384.175781 L148.364258,384.175781 L148.364258,384.689453 L147.329102,384.689453 L147.243164,385.175781 C147.365561,385.114583 147.490559,385.083984 147.618164,385.083984 C147.861655,385.083984 148.068033,385.172525 148.237305,385.349609 C148.406576,385.526694 148.491211,385.756509 148.491211,386.039062 C148.491211,386.274741 148.422852,386.485025 148.286133,386.669922 C148.099934,386.922527 147.841473,387.048828 147.510742,387.048828 C147.246418,387.048828 147.030925,386.977865 146.864258,386.835938 C146.69759,386.69401 146.597982,386.503256 146.56543,386.263672 L146.56543,386.263672 Z M149.709961,384.125 C149.987306,384.125 150.204101,384.223957 150.360352,384.421875 C150.54655,384.656251 150.639648,385.044919 150.639648,385.587891 C150.639648,386.12956 150.545899,386.518879 150.358398,386.755859 C150.20345,386.951173 149.987306,387.048828 149.709961,387.048828 C149.431314,387.048828 149.206707,386.941733 149.036133,386.727539 C148.865559,386.513345 148.780273,386.131513 148.780273,385.582031 C148.780273,385.042966 148.874022,384.654949 149.061523,384.417969 C149.216472,384.222655 149.432616,384.125 149.709961,384.125 L149.709961,384.125 Z M149.709961,384.580078 C149.643554,384.580078 149.58431,384.601237 149.532227,384.643555 C149.480143,384.685873 149.439779,384.761718 149.411133,384.871094 C149.373372,385.013022 149.354492,385.251951 149.354492,385.587891 C149.354492,385.92383 149.371419,386.154622 149.405273,386.280273 C149.439128,386.405925 149.481771,386.489583 149.533203,386.53125 C149.584636,386.572917 149.643554,386.59375 149.709961,386.59375 C149.776368,386.59375 149.835612,386.572591 149.887695,386.530273 C149.939779,386.487956 149.980143,386.41211 150.008789,386.302734 C150.04655,386.162109 150.06543,385.92383 150.06543,385.587891 C150.06543,385.251951 150.048503,385.021159 150.014648,384.895508 C149.980794,384.769856 149.938151,384.685873 149.886719,384.643555 C149.835286,384.601237 149.776368,384.580078 149.709961,384.580078 L149.709961,384.580078 Z" id="150" fill="#E0E0E0"></path>
                <path d="M196.186523,386.490234 L196.186523,387 L194.262695,387 C194.283529,386.807291 194.346028,386.624675 194.450195,386.452148 C194.554362,386.279622 194.76009,386.050783 195.067383,385.765625 C195.31478,385.535155 195.466471,385.378907 195.522461,385.296875 C195.597982,385.183593 195.635742,385.071615 195.635742,384.960938 C195.635742,384.838541 195.602865,384.744466 195.537109,384.678711 C195.471354,384.612955 195.380534,384.580078 195.264648,384.580078 C195.150065,384.580078 195.05892,384.614583 194.991211,384.683594 C194.923502,384.752605 194.88444,384.867187 194.874023,385.027344 L194.327148,384.972656 C194.359701,384.670571 194.461913,384.453777 194.633789,384.322266 C194.805665,384.190755 195.020507,384.125 195.27832,384.125 C195.560874,384.125 195.782877,384.201171 195.944336,384.353516 C196.105795,384.50586 196.186523,384.695311 196.186523,384.921875 C196.186523,385.050782 196.163412,385.173502 196.117188,385.290039 C196.070963,385.406576 195.997722,385.528645 195.897461,385.65625 C195.831054,385.740886 195.711264,385.862629 195.538086,386.021484 C195.364908,386.180339 195.255209,386.285807 195.208984,386.337891 C195.16276,386.389974 195.125326,386.440755 195.09668,386.490234 L196.186523,386.490234 Z M197.485352,384.125 C197.762697,384.125 197.979491,384.223957 198.135742,384.421875 C198.321941,384.656251 198.415039,385.044919 198.415039,385.587891 C198.415039,386.12956 198.32129,386.518879 198.133789,386.755859 C197.97884,386.951173 197.762697,387.048828 197.485352,387.048828 C197.206704,387.048828 196.982097,386.941733 196.811523,386.727539 C196.64095,386.513345 196.555664,386.131513 196.555664,385.582031 C196.555664,385.042966 196.649413,384.654949 196.836914,384.417969 C196.991863,384.222655 197.208006,384.125 197.485352,384.125 L197.485352,384.125 Z M197.485352,384.580078 C197.418945,384.580078 197.359701,384.601237 197.307617,384.643555 C197.255534,384.685873 197.215169,384.761718 197.186523,384.871094 C197.148763,385.013022 197.129883,385.251951 197.129883,385.587891 C197.129883,385.92383 197.14681,386.154622 197.180664,386.280273 C197.214518,386.405925 197.257161,386.489583 197.308594,386.53125 C197.360026,386.572917 197.418945,386.59375 197.485352,386.59375 C197.551758,386.59375 197.611002,386.572591 197.663086,386.530273 C197.71517,386.487956 197.755534,386.41211 197.78418,386.302734 C197.82194,386.162109 197.84082,385.92383 197.84082,385.587891 C197.84082,385.251951 197.823893,385.021159 197.790039,384.895508 C197.756185,384.769856 197.713542,384.685873 197.662109,384.643555 C197.610677,384.601237 197.551758,384.580078 197.485352,384.580078 L197.485352,384.580078 Z M199.709961,384.125 C199.987306,384.125 200.204101,384.223957 200.360352,384.421875 C200.54655,384.656251 200.639648,385.044919 200.639648,385.587891 C200.639648,386.12956 200.545899,386.518879 200.358398,386.755859 C200.20345,386.951173 199.987306,387.048828 199.709961,387.048828 C199.431314,387.048828 199.206707,386.941733 199.036133,386.727539 C198.865559,386.513345 198.780273,386.131513 198.780273,385.582031 C198.780273,385.042966 198.874022,384.654949 199.061523,384.417969 C199.216472,384.222655 199.432616,384.125 199.709961,384.125 L199.709961,384.125 Z M199.709961,384.580078 C199.643554,384.580078 199.58431,384.601237 199.532227,384.643555 C199.480143,384.685873 199.439779,384.761718 199.411133,384.871094 C199.373372,385.013022 199.354492,385.251951 199.354492,385.587891 C199.354492,385.92383 199.371419,386.154622 199.405273,386.280273 C199.439128,386.405925 199.481771,386.489583 199.533203,386.53125 C199.584636,386.572917 199.643554,386.59375 199.709961,386.59375 C199.776368,386.59375 199.835612,386.572591 199.887695,386.530273 C199.939779,386.487956 199.980143,386.41211 200.008789,386.302734 C200.04655,386.162109 200.06543,385.92383 200.06543,385.587891 C200.06543,385.251951 200.048503,385.021159 200.014648,384.895508 C199.980794,384.769856 199.938151,384.685873 199.886719,384.643555 C199.835286,384.601237 199.776368,384.580078 199.709961,384.580078 L199.709961,384.580078 Z" id="200" fill="#E0E0E0"></path>
                <path d="M246.186523,386.490234 L246.186523,387 L244.262695,387 C244.283529,386.807291 244.346028,386.624675 244.450195,386.452148 C244.554362,386.279622 244.76009,386.050783 245.067383,385.765625 C245.31478,385.535155 245.466471,385.378907 245.522461,385.296875 C245.597982,385.183593 245.635742,385.071615 245.635742,384.960938 C245.635742,384.838541 245.602865,384.744466 245.537109,384.678711 C245.471354,384.612955 245.380534,384.580078 245.264648,384.580078 C245.150065,384.580078 245.05892,384.614583 244.991211,384.683594 C244.923502,384.752605 244.88444,384.867187 244.874023,385.027344 L244.327148,384.972656 C244.359701,384.670571 244.461913,384.453777 244.633789,384.322266 C244.805665,384.190755 245.020507,384.125 245.27832,384.125 C245.560874,384.125 245.782877,384.201171 245.944336,384.353516 C246.105795,384.50586 246.186523,384.695311 246.186523,384.921875 C246.186523,385.050782 246.163412,385.173502 246.117188,385.290039 C246.070963,385.406576 245.997722,385.528645 245.897461,385.65625 C245.831054,385.740886 245.711264,385.862629 245.538086,386.021484 C245.364908,386.180339 245.255209,386.285807 245.208984,386.337891 C245.16276,386.389974 245.125326,386.440755 245.09668,386.490234 L246.186523,386.490234 Z M246.56543,386.263672 L247.112305,386.207031 C247.12793,386.33073 247.174153,386.428711 247.250977,386.500977 C247.3278,386.573243 247.416341,386.609375 247.516602,386.609375 C247.631185,386.609375 247.72819,386.562826 247.807617,386.469727 C247.887045,386.376627 247.926758,386.236329 247.926758,386.048828 C247.926758,385.873046 247.88737,385.741211 247.808594,385.65332 C247.729817,385.565429 247.627279,385.521484 247.500977,385.521484 C247.343424,385.521484 247.202149,385.591145 247.077148,385.730469 L246.631836,385.666016 L246.913086,384.175781 L248.364258,384.175781 L248.364258,384.689453 L247.329102,384.689453 L247.243164,385.175781 C247.365561,385.114583 247.490559,385.083984 247.618164,385.083984 C247.861655,385.083984 248.068033,385.172525 248.237305,385.349609 C248.406576,385.526694 248.491211,385.756509 248.491211,386.039062 C248.491211,386.274741 248.422852,386.485025 248.286133,386.669922 C248.099934,386.922527 247.841473,387.048828 247.510742,387.048828 C247.246418,387.048828 247.030925,386.977865 246.864258,386.835938 C246.69759,386.69401 246.597982,386.503256 246.56543,386.263672 L246.56543,386.263672 Z M249.709961,384.125 C249.987306,384.125 250.204101,384.223957 250.360352,384.421875 C250.54655,384.656251 250.639648,385.044919 250.639648,385.587891 C250.639648,386.12956 250.545899,386.518879 250.358398,386.755859 C250.20345,386.951173 249.987306,387.048828 249.709961,387.048828 C249.431314,387.048828 249.206707,386.941733 249.036133,386.727539 C248.865559,386.513345 248.780273,386.131513 248.780273,385.582031 C248.780273,385.042966 248.874022,384.654949 249.061523,384.417969 C249.216472,384.222655 249.432616,384.125 249.709961,384.125 L249.709961,384.125 Z M249.709961,384.580078 C249.643554,384.580078 249.58431,384.601237 249.532227,384.643555 C249.480143,384.685873 249.439779,384.761718 249.411133,384.871094 C249.373372,385.013022 249.354492,385.251951 249.354492,385.587891 C249.354492,385.92383 249.371419,386.154622 249.405273,386.280273 C249.439128,386.405925 249.481771,386.489583 249.533203,386.53125 C249.584636,386.572917 249.643554,386.59375 249.709961,386.59375 C249.776368,386.59375 249.835612,386.572591 249.887695,386.530273 C249.939779,386.487956 249.980143,386.41211 250.008789,386.302734 C250.04655,386.162109 250.06543,385.92383 250.06543,385.587891 C250.06543,385.251951 250.048503,385.021159 250.014648,384.895508 C249.980794,384.769856 249.938151,384.685873 249.886719,384.643555 C249.835286,384.601237 249.776368,384.580078 249.709961,384.580078 L249.709961,384.580078 Z" id="250" fill="#E0E0E0"></path>
                <path d="M294.313477,386.240234 L294.844727,386.175781 C294.861654,386.311199 294.907226,386.414713 294.981445,386.486328 C295.055664,386.557943 295.145507,386.59375 295.250977,386.59375 C295.364258,386.59375 295.459635,386.550782 295.537109,386.464844 C295.614584,386.378906 295.65332,386.263022 295.65332,386.117188 C295.65332,385.979166 295.616211,385.869792 295.541992,385.789062 C295.467773,385.708333 295.377279,385.667969 295.270508,385.667969 C295.200195,385.667969 295.116211,385.68164 295.018555,385.708984 L295.079102,385.261719 C295.22754,385.265625 295.34082,385.233399 295.418945,385.165039 C295.497071,385.096679 295.536133,385.00586 295.536133,384.892578 C295.536133,384.796223 295.507487,384.719401 295.450195,384.662109 C295.392903,384.604817 295.316732,384.576172 295.22168,384.576172 C295.127929,384.576172 295.047852,384.608724 294.981445,384.673828 C294.915039,384.738933 294.874675,384.833984 294.860352,384.958984 L294.354492,384.873047 C294.389649,384.699869 294.442708,384.561524 294.513672,384.458008 C294.584636,384.354492 294.683593,384.273112 294.810547,384.213867 C294.937501,384.154622 295.079752,384.125 295.237305,384.125 C295.506837,384.125 295.722981,384.210937 295.885742,384.382812 C296.019857,384.523438 296.086914,384.682291 296.086914,384.859375 C296.086914,385.110678 295.949546,385.311197 295.674805,385.460938 C295.838868,385.496094 295.970052,385.574869 296.068359,385.697266 C296.166667,385.819662 296.21582,385.967447 296.21582,386.140625 C296.21582,386.391928 296.124024,386.606119 295.94043,386.783203 C295.756835,386.960287 295.528322,387.048828 295.254883,387.048828 C294.995767,387.048828 294.780925,386.974285 294.610352,386.825195 C294.439778,386.676106 294.34082,386.481121 294.313477,386.240234 L294.313477,386.240234 Z M297.485352,384.125 C297.762697,384.125 297.979491,384.223957 298.135742,384.421875 C298.321941,384.656251 298.415039,385.044919 298.415039,385.587891 C298.415039,386.12956 298.32129,386.518879 298.133789,386.755859 C297.97884,386.951173 297.762697,387.048828 297.485352,387.048828 C297.206704,387.048828 296.982097,386.941733 296.811523,386.727539 C296.64095,386.513345 296.555664,386.131513 296.555664,385.582031 C296.555664,385.042966 296.649413,384.654949 296.836914,384.417969 C296.991863,384.222655 297.208006,384.125 297.485352,384.125 L297.485352,384.125 Z M297.485352,384.580078 C297.418945,384.580078 297.359701,384.601237 297.307617,384.643555 C297.255534,384.685873 297.215169,384.761718 297.186523,384.871094 C297.148763,385.013022 297.129883,385.251951 297.129883,385.587891 C297.129883,385.92383 297.14681,386.154622 297.180664,386.280273 C297.214518,386.405925 297.257161,386.489583 297.308594,386.53125 C297.360026,386.572917 297.418945,386.59375 297.485352,386.59375 C297.551758,386.59375 297.611002,386.572591 297.663086,386.530273 C297.71517,386.487956 297.755534,386.41211 297.78418,386.302734 C297.82194,386.162109 297.84082,385.92383 297.84082,385.587891 C297.84082,385.251951 297.823893,385.021159 297.790039,384.895508 C297.756185,384.769856 297.713542,384.685873 297.662109,384.643555 C297.610677,384.601237 297.551758,384.580078 297.485352,384.580078 L297.485352,384.580078 Z M299.709961,384.125 C299.987306,384.125 300.204101,384.223957 300.360352,384.421875 C300.54655,384.656251 300.639648,385.044919 300.639648,385.587891 C300.639648,386.12956 300.545899,386.518879 300.358398,386.755859 C300.20345,386.951173 299.987306,387.048828 299.709961,387.048828 C299.431314,387.048828 299.206707,386.941733 299.036133,386.727539 C298.865559,386.513345 298.780273,386.131513 298.780273,385.582031 C298.780273,385.042966 298.874023,384.654949 299.061523,384.417969 C299.216472,384.222655 299.432616,384.125 299.709961,384.125 L299.709961,384.125 Z M299.709961,384.580078 C299.643554,384.580078 299.58431,384.601237 299.532227,384.643555 C299.480143,384.685873 299.439779,384.761718 299.411133,384.871094 C299.373372,385.013022 299.354492,385.251951 299.354492,385.587891 C299.354492,385.92383 299.371419,386.154622 299.405273,386.280273 C299.439128,386.405925 299.481771,386.489583 299.533203,386.53125 C299.584636,386.572917 299.643554,386.59375 299.709961,386.59375 C299.776368,386.59375 299.835612,386.572591 299.887695,386.530273 C299.939779,386.487956 299.980143,386.41211 300.008789,386.302734 C300.04655,386.162109 300.06543,385.92383 300.06543,385.587891 C300.06543,385.251951 300.048503,385.021159 300.014648,384.895508 C299.980794,384.769856 299.938151,384.685873 299.886719,384.643555 C299.835286,384.601237 299.776368,384.580078 299.709961,384.580078 L299.709961,384.580078 Z" id="300" fill="#E0E0E0"></path>
                <path d="M344.313477,386.240234 L344.844727,386.175781 C344.861654,386.311199 344.907226,386.414713 344.981445,386.486328 C345.055664,386.557943 345.145507,386.59375 345.250977,386.59375 C345.364258,386.59375 345.459635,386.550782 345.537109,386.464844 C345.614584,386.378906 345.65332,386.263022 345.65332,386.117188 C345.65332,385.979166 345.616211,385.869792 345.541992,385.789062 C345.467773,385.708333 345.377279,385.667969 345.270508,385.667969 C345.200195,385.667969 345.116211,385.68164 345.018555,385.708984 L345.079102,385.261719 C345.22754,385.265625 345.34082,385.233399 345.418945,385.165039 C345.497071,385.096679 345.536133,385.00586 345.536133,384.892578 C345.536133,384.796223 345.507487,384.719401 345.450195,384.662109 C345.392903,384.604817 345.316732,384.576172 345.22168,384.576172 C345.127929,384.576172 345.047852,384.608724 344.981445,384.673828 C344.915039,384.738933 344.874675,384.833984 344.860352,384.958984 L344.354492,384.873047 C344.389649,384.699869 344.442708,384.561524 344.513672,384.458008 C344.584636,384.354492 344.683593,384.273112 344.810547,384.213867 C344.937501,384.154622 345.079752,384.125 345.237305,384.125 C345.506837,384.125 345.722981,384.210937 345.885742,384.382812 C346.019857,384.523438 346.086914,384.682291 346.086914,384.859375 C346.086914,385.110678 345.949546,385.311197 345.674805,385.460938 C345.838868,385.496094 345.970052,385.574869 346.068359,385.697266 C346.166667,385.819662 346.21582,385.967447 346.21582,386.140625 C346.21582,386.391928 346.124024,386.606119 345.94043,386.783203 C345.756835,386.960287 345.528322,387.048828 345.254883,387.048828 C344.995767,387.048828 344.780925,386.974285 344.610352,386.825195 C344.439778,386.676106 344.34082,386.481121 344.313477,386.240234 L344.313477,386.240234 Z M346.56543,386.263672 L347.112305,386.207031 C347.12793,386.33073 347.174153,386.428711 347.250977,386.500977 C347.3278,386.573243 347.416341,386.609375 347.516602,386.609375 C347.631185,386.609375 347.72819,386.562826 347.807617,386.469727 C347.887045,386.376627 347.926758,386.236329 347.926758,386.048828 C347.926758,385.873046 347.88737,385.741211 347.808594,385.65332 C347.729817,385.565429 347.627279,385.521484 347.500977,385.521484 C347.343424,385.521484 347.202149,385.591145 347.077148,385.730469 L346.631836,385.666016 L346.913086,384.175781 L348.364258,384.175781 L348.364258,384.689453 L347.329102,384.689453 L347.243164,385.175781 C347.365561,385.114583 347.490559,385.083984 347.618164,385.083984 C347.861655,385.083984 348.068033,385.172525 348.237305,385.349609 C348.406576,385.526694 348.491211,385.756509 348.491211,386.039062 C348.491211,386.274741 348.422852,386.485025 348.286133,386.669922 C348.099934,386.922527 347.841473,387.048828 347.510742,387.048828 C347.246418,387.048828 347.030925,386.977865 346.864258,386.835938 C346.69759,386.69401 346.597982,386.503256 346.56543,386.263672 L346.56543,386.263672 Z M349.709961,384.125 C349.987306,384.125 350.204101,384.223957 350.360352,384.421875 C350.54655,384.656251 350.639648,385.044919 350.639648,385.587891 C350.639648,386.12956 350.545899,386.518879 350.358398,386.755859 C350.20345,386.951173 349.987306,387.048828 349.709961,387.048828 C349.431314,387.048828 349.206707,386.941733 349.036133,386.727539 C348.865559,386.513345 348.780273,386.131513 348.780273,385.582031 C348.780273,385.042966 348.874023,384.654949 349.061523,384.417969 C349.216472,384.222655 349.432616,384.125 349.709961,384.125 L349.709961,384.125 Z M349.709961,384.580078 C349.643554,384.580078 349.58431,384.601237 349.532227,384.643555 C349.480143,384.685873 349.439779,384.761718 349.411133,384.871094 C349.373372,385.013022 349.354492,385.251951 349.354492,385.587891 C349.354492,385.92383 349.371419,386.154622 349.405273,386.280273 C349.439128,386.405925 349.481771,386.489583 349.533203,386.53125 C349.584636,386.572917 349.643554,386.59375 349.709961,386.59375 C349.776368,386.59375 349.835612,386.572591 349.887695,386.530273 C349.939779,386.487956 349.980143,386.41211 350.008789,386.302734 C350.04655,386.162109 350.06543,385.92383 350.06543,385.587891 C350.06543,385.251951 350.048503,385.021159 350.014648,384.895508 C349.980794,384.769856 349.938151,384.685873 349.886719,384.643555 C349.835286,384.601237 349.776368,384.580078 349.709961,384.580078 L349.709961,384.580078 Z" id="350" fill="#E0E0E0"></path>
                <path d="M384.313477,386.240234 L384.844727,386.175781 C384.861654,386.311199 384.907226,386.414713 384.981445,386.486328 C385.055664,386.557943 385.145507,386.59375 385.250977,386.59375 C385.364258,386.59375 385.459635,386.550782 385.537109,386.464844 C385.614584,386.378906 385.65332,386.263022 385.65332,386.117188 C385.65332,385.979166 385.616211,385.869792 385.541992,385.789062 C385.467773,385.708333 385.377279,385.667969 385.270508,385.667969 C385.200195,385.667969 385.116211,385.68164 385.018555,385.708984 L385.079102,385.261719 C385.22754,385.265625 385.34082,385.233399 385.418945,385.165039 C385.497071,385.096679 385.536133,385.00586 385.536133,384.892578 C385.536133,384.796223 385.507487,384.719401 385.450195,384.662109 C385.392903,384.604817 385.316732,384.576172 385.22168,384.576172 C385.127929,384.576172 385.047852,384.608724 384.981445,384.673828 C384.915039,384.738933 384.874675,384.833984 384.860352,384.958984 L384.354492,384.873047 C384.389649,384.699869 384.442708,384.561524 384.513672,384.458008 C384.584636,384.354492 384.683593,384.273112 384.810547,384.213867 C384.937501,384.154622 385.079752,384.125 385.237305,384.125 C385.506837,384.125 385.722981,384.210937 385.885742,384.382812 C386.019857,384.523438 386.086914,384.682291 386.086914,384.859375 C386.086914,385.110678 385.949546,385.311197 385.674805,385.460938 C385.838868,385.496094 385.970052,385.574869 386.068359,385.697266 C386.166667,385.819662 386.21582,385.967447 386.21582,386.140625 C386.21582,386.391928 386.124024,386.606119 385.94043,386.783203 C385.756835,386.960287 385.528322,387.048828 385.254883,387.048828 C384.995767,387.048828 384.780925,386.974285 384.610352,386.825195 C384.439778,386.676106 384.34082,386.481121 384.313477,386.240234 L384.313477,386.240234 Z M386.569336,386.337891 L387.100586,386.279297 C387.113607,386.38737 387.147461,386.467448 387.202148,386.519531 C387.256836,386.571615 387.329101,386.597656 387.418945,386.597656 C387.532227,386.597656 387.62858,386.545573 387.708008,386.441406 C387.787435,386.337239 387.838216,386.121095 387.860352,385.792969 C387.72233,385.953126 387.549806,386.033203 387.342773,386.033203 C387.117512,386.033203 386.923178,385.94629 386.759766,385.772461 C386.596353,385.598632 386.514648,385.372397 386.514648,385.09375 C386.514648,384.803384 386.600911,384.569337 386.773438,384.391602 C386.945964,384.213866 387.165689,384.125 387.432617,384.125 C387.722983,384.125 387.961262,384.237304 388.147461,384.461914 C388.33366,384.686525 388.426758,385.055987 388.426758,385.570312 C388.426758,386.093753 388.329754,386.471353 388.135742,386.703125 C387.941731,386.934897 387.689129,387.050781 387.37793,387.050781 C387.15397,387.050781 386.972982,386.991212 386.834961,386.87207 C386.696939,386.752929 386.608399,386.574871 386.569336,386.337891 L386.569336,386.337891 Z M387.811523,385.138672 C387.811523,384.961588 387.770834,384.824219 387.689453,384.726562 C387.608073,384.628906 387.513998,384.580078 387.407227,384.580078 C387.305664,384.580078 387.221355,384.620117 387.154297,384.700195 C387.087239,384.780274 387.053711,384.911457 387.053711,385.09375 C387.053711,385.278647 387.090169,385.414388 387.163086,385.500977 C387.236003,385.587566 387.327148,385.630859 387.436523,385.630859 C387.541993,385.630859 387.630859,385.589193 387.703125,385.505859 C387.775391,385.422526 387.811523,385.300131 387.811523,385.138672 L387.811523,385.138672 Z M389.709961,384.125 C389.987306,384.125 390.204101,384.223957 390.360352,384.421875 C390.54655,384.656251 390.639648,385.044919 390.639648,385.587891 C390.639648,386.12956 390.545899,386.518879 390.358398,386.755859 C390.20345,386.951173 389.987306,387.048828 389.709961,387.048828 C389.431314,387.048828 389.206707,386.941733 389.036133,386.727539 C388.865559,386.513345 388.780273,386.131513 388.780273,385.582031 C388.780273,385.042966 388.874023,384.654949 389.061523,384.417969 C389.216472,384.222655 389.432616,384.125 389.709961,384.125 L389.709961,384.125 Z M389.709961,384.580078 C389.643554,384.580078 389.58431,384.601237 389.532227,384.643555 C389.480143,384.685873 389.439779,384.761718 389.411133,384.871094 C389.373372,385.013022 389.354492,385.251951 389.354492,385.587891 C389.354492,385.92383 389.371419,386.154622 389.405273,386.280273 C389.439128,386.405925 389.481771,386.489583 389.533203,386.53125 C389.584636,386.572917 389.643554,386.59375 389.709961,386.59375 C389.776368,386.59375 389.835612,386.572591 389.887695,386.530273 C389.939779,386.487956 389.980143,386.41211 390.008789,386.302734 C390.04655,386.162109 390.06543,385.92383 390.06543,385.587891 C390.06543,385.251951 390.048503,385.021159 390.014648,384.895508 C389.980794,384.769856 389.938151,384.685873 389.886719,384.643555 C389.835286,384.601237 389.776368,384.580078 389.709961,384.580078 L389.709961,384.580078 Z" id="390" fill="#A4A4A4"></path>
                <path d="M0.4765625,2.24023438 L1.0078125,2.17578125 C1.02473967,2.31119859 1.07031213,2.41471318 1.14453125,2.48632812 C1.21875037,2.55794307 1.30859322,2.59375 1.4140625,2.59375 C1.52734432,2.59375 1.62272097,2.55078168 1.70019531,2.46484375 C1.77766966,2.37890582 1.81640625,2.26302156 1.81640625,2.1171875 C1.81640625,1.97916598 1.77929725,1.86979207 1.70507812,1.7890625 C1.630859,1.70833293 1.54036512,1.66796875 1.43359375,1.66796875 C1.3632809,1.66796875 1.27929736,1.68164049 1.18164062,1.70898438 L1.2421875,1.26171875 C1.39062574,1.26562502 1.50390586,1.23339878 1.58203125,1.16503906 C1.66015664,1.09667935 1.69921875,1.00585994 1.69921875,0.892578125 C1.69921875,0.796223477 1.6705732,0.719401328 1.61328125,0.662109375 C1.5559893,0.604817422 1.47981818,0.576171875 1.38476562,0.576171875 C1.29101516,0.576171875 1.21093783,0.608723633 1.14453125,0.673828125 C1.07812467,0.738932617 1.03776049,0.83398375 1.0234375,0.958984375 L0.517578125,0.873046875 C0.552734551,0.699868926 0.605793916,0.561523955 0.676757812,0.458007812 C0.747721709,0.35449167 0.846679053,0.273112275 0.973632812,0.213867188 C1.10058657,0.1546221 1.24283775,0.125 1.40039062,0.125 C1.66992322,0.125 1.88606689,0.210936641 2.04882812,0.3828125 C2.18294338,0.523438203 2.25,0.682290781 2.25,0.859375 C2.25,1.11067834 2.11263158,1.31119717 1.83789062,1.4609375 C2.00195395,1.49609393 2.13313753,1.57486918 2.23144531,1.69726562 C2.3297531,1.81966207 2.37890625,1.96744705 2.37890625,2.140625 C2.37890625,2.39192834 2.28711029,2.60611891 2.10351562,2.78320312 C1.91992096,2.96028734 1.69140762,3.04882812 1.41796875,3.04882812 C1.15885287,3.04882812 0.94401127,2.9742846 0.7734375,2.82519531 C0.60286373,2.67610603 0.503906387,2.481121 0.4765625,2.24023438 L0.4765625,2.24023438 Z M2.73242188,2.33789062 L3.26367188,2.27929688 C3.27669277,2.38737033 3.3105466,2.46744766 3.36523438,2.51953125 C3.41992215,2.57161484 3.49218705,2.59765625 3.58203125,2.59765625 C3.69531307,2.59765625 3.79166627,2.54557344 3.87109375,2.44140625 C3.95052123,2.33723906 4.00130197,2.12109539 4.0234375,1.79296875 C3.88541598,1.9531258 3.71289166,2.03320312 3.50585938,2.03320312 C3.28059783,2.03320312 3.08626384,1.94628993 2.92285156,1.77246094 C2.75943929,1.59863194 2.67773438,1.37239723 2.67773438,1.09375 C2.67773438,0.803383965 2.76399653,0.569336826 2.93652344,0.391601562 C3.10905034,0.213866299 3.32877471,0.125 3.59570312,0.125 C3.88606916,0.125 4.12434803,0.237303564 4.31054688,0.461914062 C4.49674572,0.686524561 4.58984375,1.05598701 4.58984375,1.5703125 C4.58984375,2.09375262 4.49283951,2.47135301 4.29882812,2.703125 C4.10481674,2.93489699 3.8522151,3.05078125 3.54101562,3.05078125 C3.31705617,3.05078125 3.1360684,2.99121153 2.99804688,2.87207031 C2.86002535,2.75292909 2.77148457,2.57487098 2.73242188,2.33789062 L2.73242188,2.33789062 Z M3.97460938,1.13867188 C3.97460938,0.961587656 3.93391968,0.824219238 3.85253906,0.7265625 C3.77115845,0.628905762 3.67708387,0.580078125 3.5703125,0.580078125 C3.46874949,0.580078125 3.38444044,0.620116787 3.31738281,0.700195312 C3.25032519,0.780273838 3.21679688,0.911457422 3.21679688,1.09375 C3.21679688,1.27864676 3.25325484,1.41438759 3.32617188,1.50097656 C3.39908891,1.58756554 3.49023383,1.63085938 3.59960938,1.63085938 C3.70507865,1.63085938 3.79394495,1.58919312 3.86621094,1.50585938 C3.93847692,1.42252563 3.97460938,1.30013102 3.97460938,1.13867188 L3.97460938,1.13867188 Z M5.87304688,0.125 C6.15039201,0.125 6.36718672,0.223957344 6.5234375,0.421875 C6.70963635,0.656251172 6.80273438,1.04491916 6.80273438,1.58789062 C6.80273438,2.12956 6.70898531,2.51887902 6.52148438,2.75585938 C6.36653568,2.95117285 6.15039201,3.04882812 5.87304688,3.04882812 C5.59439965,3.04882812 5.36979252,2.94173284 5.19921875,2.72753906 C5.02864498,2.51334528 4.94335938,2.13151316 4.94335938,1.58203125 C4.94335938,1.04296605 5.03710844,0.654949102 5.22460938,0.41796875 C5.37955807,0.222655273 5.59570174,0.125 5.87304688,0.125 L5.87304688,0.125 Z M5.87304688,0.580078125 C5.80664029,0.580078125 5.74739609,0.601236768 5.6953125,0.643554688 C5.64322891,0.685872607 5.60286473,0.761718203 5.57421875,0.87109375 C5.53645814,1.01302154 5.51757812,1.25195145 5.51757812,1.58789062 C5.51757812,1.9238298 5.53450504,2.15462177 5.56835938,2.28027344 C5.60221371,2.40592511 5.64485651,2.48958312 5.69628906,2.53125 C5.74772161,2.57291687 5.80664029,2.59375 5.87304688,2.59375 C5.93945346,2.59375 5.99869766,2.57259136 6.05078125,2.53027344 C6.10286484,2.48795552 6.14322902,2.41210992 6.171875,2.30273438 C6.20963561,2.16210867 6.22851562,1.9238298 6.22851562,1.58789062 C6.22851562,1.25195145 6.21158871,1.02115948 6.17773438,0.895507812 C6.14388004,0.769856143 6.10123724,0.685872607 6.04980469,0.643554688 C5.99837214,0.601236768 5.93945346,0.580078125 5.87304688,0.580078125 L5.87304688,0.580078125 Z" id="390" fill="#A4A4A4"></path>
            </g>
            <rect id="Rectangle-1" stroke="#000000" stroke-width="2" sketch:type="MSShapeGroup" x="0" y="0" width="400" height="400"></rect>
        </g>
    </g>
</svg>