<?xml version="1.0" encoding="UTF-8" standalone="no"?><!DOCTYPE svg PUBLIC "-//W3C//DTD SVG 1.1//EN" "http://www.w3.org/Graphics/SVG/1.1/DTD/svg11.dtd"><svg width="100%" height="100%" viewBox="0 0 2776 2776" version="1.1" xmlns="http://www.w3.org/2000/svg" xmlns:xlink="http://www.w3.org/1999/xlink" xml:space="preserve" xmlns:serif="http://www.serif.com/" style="fill-rule:evenodd;clip-rule:evenodd;"><g id="Layer-1" serif:id="Layer 1"><g><rect id="rect13" x="2.245" y="2.245" width="2771.1" height="2771.1" style="fill:none;stroke:#BABABA;stroke-opacity:0.75;stroke-width:4.49px;"/><path id="path15" d="M551.349,0l0,2775.59" style="fill:none;fill-rule:nonzero;stroke:#BABABA;stroke-opacity:0.75;stroke-width:4.48px;"/><path id="path17" d="M1106.47,0l0,1320.48" style="fill:none;fill-rule:nonzero;stroke:#BABABA;stroke-opacity:0.75;stroke-width:3.09px;"/><path id="path19" d="M1661.59,0l-0,1277.57" style="fill:none;fill-rule:nonzero;stroke:#BABABA;stroke-opacity:0.75;stroke-width:3.04px;"/><path id="path21" d="M2216.7,0l-0,2775.59" style="fill:none;fill-rule:nonzero;stroke:#BABABA;stroke-opacity:0.75;stroke-width:4.48px;"/><path id="path25" d="M2775.59,555.118l-2775.59,0" style="fill:none;fill-rule:nonzero;stroke:#BABABA;stroke-opacity:0.75;stroke-width:4.48px;"/><path id="path27" d="M2775.59,1110.24l-2775.59,0" style="fill:none;fill-rule:nonzero;stroke:#BABABA;stroke-opacity:0.75;stroke-width:4.48px;"/><path id="path29" d="M2775.59,1665.35l-2775.59,-0" style="fill:none;fill-rule:nonzero;stroke:#BABABA;stroke-opacity:0.75;stroke-width:4.48px;"/><path id="path31" d="M2775.59,2220.47l-2775.59,-0" style="fill:none;fill-rule:nonzero;stroke:#BABABA;stroke-opacity:0.75;stroke-width:4.48px;"/><path id="path1119" d="M97.476,0l0,2775.59" style="fill:none;fill-rule:nonzero;stroke:#BABABA;stroke-opacity:0.75;stroke-width:1.55px;"/><path id="path1123" d="M281.807,0l0,2775.59" style="fill:none;fill-rule:nonzero;stroke:#BABABA;stroke-opacity:0.75;stroke-width:1.55px;"/><path id="path1127" d="M466.139,0l0,2775.59" style="fill:none;fill-rule:nonzero;stroke:#BABABA;stroke-opacity:0.75;stroke-width:1.55px;"/><path id="path1131" d="M650.47,0l0,2775.59" style="fill:none;fill-rule:nonzero;stroke:#BABABA;stroke-opacity:0.75;stroke-width:1.55px;"/><path id="path1135" d="M834.801,0l0,2775.59" style="fill:none;fill-rule:nonzero;stroke:#BABABA;stroke-opacity:0.75;stroke-width:1.55px;"/><path id="path1147" d="M189.642,0l0,2775.59" style="fill:none;fill-rule:nonzero;stroke:#BABABA;stroke-opacity:0.75;stroke-width:1.55px;"/><path id="path1151" d="M373.973,0l0,2775.59" style="fill:none;fill-rule:nonzero;stroke:#BABABA;stroke-opacity:0.75;stroke-width:1.55px;"/><path id="path1159" d="M742.636,0l0,2775.59" style="fill:none;fill-rule:nonzero;stroke:#BABABA;stroke-opacity:0.75;stroke-width:1.55px;"/><path id="path1163" d="M926.967,0l0,1281.64" style="fill:none;fill-rule:nonzero;stroke:#BABABA;stroke-opacity:0.75;stroke-width:1.6px;"/><path id="path1239" d="M1019.13,0l0,1317.57" style="fill:none;fill-rule:nonzero;stroke:#BABABA;stroke-opacity:0.75;stroke-width:1.37px;"/><path id="path1247" d="M1203.46,0l0,1282.07" style="fill:none;fill-rule:nonzero;stroke:#BABABA;stroke-opacity:0.75;stroke-width:1.37px;"/><path id="path1251" d="M1295.63,0l0,1315.43" style="fill:none;fill-rule:nonzero;stroke:#BABABA;stroke-opacity:0.75;stroke-width:1.37px;"/><path id="path1255" d="M1387.8,1.262l0,1313.52" style="fill:none;fill-rule:nonzero;stroke:#BABABA;stroke-opacity:0.75;stroke-width:1.59px;"/><path id="path1259" d="M1479.96,0l0,1312.05" style="fill:none;fill-rule:nonzero;stroke:#BABABA;stroke-opacity:0.75;stroke-width:1.37px;"/><path id="path1263" d="M1572.13,0l0,1283.38" style="fill:none;fill-rule:nonzero;stroke:#BABABA;stroke-opacity:0.75;stroke-width:1.37px;"/><path id="path1271" d="M1756.46,0l0,1290.51" style="fill:none;fill-rule:nonzero;stroke:#BABABA;stroke-opacity:0.75;stroke-width:1.37px;"/><path id="path1275" d="M1848.62,0l-0,1325.82" style="fill:none;fill-rule:nonzero;stroke:#BABABA;stroke-opacity:0.75;stroke-width:1.61px;"/><path id="path1279" d="M1940.79,0l0,2775.59" style="fill:none;fill-rule:nonzero;stroke:#BABABA;stroke-opacity:0.75;stroke-width:1.55px;"/><path id="path1283" d="M2032.96,0l0,2775.59" style="fill:none;fill-rule:nonzero;stroke:#BABABA;stroke-opacity:0.75;stroke-width:1.55px;"/><path id="path1287" d="M2125.12,0l0,2775.59" style="fill:none;fill-rule:nonzero;stroke:#BABABA;stroke-opacity:0.75;stroke-width:1.55px;"/><path id="path1295" d="M2309.45,0l-0,2775.59" style="fill:none;fill-rule:nonzero;stroke:#BABABA;stroke-opacity:0.75;stroke-width:1.76px;"/><path id="path1299" d="M2401.62,0l0,2775.59" style="fill:none;fill-rule:nonzero;stroke:#BABABA;stroke-opacity:0.75;stroke-width:1.55px;"/><path id="path1303" d="M2493.78,0l0,2775.59" style="fill:none;fill-rule:nonzero;stroke:#BABABA;stroke-opacity:0.75;stroke-width:1.55px;"/><path id="path1307" d="M2585.95,0l-0,2775.59" style="fill:none;fill-rule:nonzero;stroke:#BABABA;stroke-opacity:0.75;stroke-width:1.55px;"/><path id="path1311" d="M2678.12,0l0,2775.59" style="fill:none;fill-rule:nonzero;stroke:#BABABA;stroke-opacity:0.75;stroke-width:1.55px;"/><path id="path1549" d="M2775.59,97.476l-2775.59,0" style="fill:none;fill-rule:nonzero;stroke:#BABABA;stroke-opacity:0.75;stroke-width:1.55px;"/><path id="path1553" d="M2775.59,281.807l-2775.59,0" style="fill:none;fill-rule:nonzero;stroke:#BABABA;stroke-opacity:0.75;stroke-width:1.55px;"/><path id="path1557" d="M2775.59,466.139l-2775.59,0" style="fill:none;fill-rule:nonzero;stroke:#BABABA;stroke-opacity:0.75;stroke-width:1.55px;"/><path id="path1561" d="M2775.59,650.47l-2775.59,0" style="fill:none;fill-rule:nonzero;stroke:#BABABA;stroke-opacity:0.75;stroke-width:1.55px;"/><path id="path1565" d="M2775.59,834.801l-2775.59,0" style="fill:none;fill-rule:nonzero;stroke:#BABABA;stroke-opacity:0.75;stroke-width:1.55px;"/><path id="path1569" d="M2775.59,189.642l-2775.59,0" style="fill:none;fill-rule:nonzero;stroke:#BABABA;stroke-opacity:0.75;stroke-width:1.55px;"/><path id="path1573" d="M2775.59,373.973l-2775.59,0" style="fill:none;fill-rule:nonzero;stroke:#BABABA;stroke-opacity:0.75;stroke-width:1.55px;"/><path id="path1577" d="M2775.59,742.636l-2775.59,0" style="fill:none;fill-rule:nonzero;stroke:#BABABA;stroke-opacity:0.75;stroke-width:1.55px;"/><path id="path1581" d="M2775.59,926.967l-2775.59,0" style="fill:none;fill-rule:nonzero;stroke:#BABABA;stroke-opacity:0.75;stroke-width:1.76px;"/><path id="path1585" d="M2775.59,1019.13l-2775.59,0" style="fill:none;fill-rule:nonzero;stroke:#BABABA;stroke-opacity:0.75;stroke-width:1.55px;"/><path id="path1589" d="M2775.59,1203.46l-2775.59,0" style="fill:none;fill-rule:nonzero;stroke:#BABABA;stroke-opacity:0.75;stroke-width:1.55px;"/><path id="path1593" d="M2765.72,1295.63l-1005.55,0" style="fill:none;fill-rule:nonzero;stroke:#BABABA;stroke-opacity:0.75;stroke-width:1.35px;"/><path id="path1597" d="M2772.99,1387.8l-857.158,0" style="fill:none;fill-rule:nonzero;stroke:#BABABA;stroke-opacity:0.75;stroke-width:1.58px;"/><path id="path1601" d="M2768.51,1479.96l-917.239,0" style="fill:none;fill-rule:nonzero;stroke:#BABABA;stroke-opacity:0.75;stroke-width:1.34px;"/><path id="path1605" d="M2775.59,1572.13l-2775.59,0" style="fill:none;fill-rule:nonzero;stroke:#BABABA;stroke-opacity:0.75;stroke-width:1.55px;"/><path id="path1609" d="M2775.59,1756.46l-2775.59,0" style="fill:none;fill-rule:nonzero;stroke:#BABABA;stroke-opacity:0.75;stroke-width:1.55px;"/><path id="path1613" d="M2775.59,1848.62l-2775.59,-0" style="fill:none;fill-rule:nonzero;stroke:#BABABA;stroke-opacity:0.75;stroke-width:1.76px;"/><path id="path1617" d="M2775.59,1940.79l-2775.59,0" style="fill:none;fill-rule:nonzero;stroke:#BABABA;stroke-opacity:0.75;stroke-width:1.55px;"/><path id="path1621" d="M2775.59,2032.96l-2775.59,0" style="fill:none;fill-rule:nonzero;stroke:#BABABA;stroke-opacity:0.75;stroke-width:1.55px;"/><path id="path1625" d="M2775.59,2125.12l-2775.59,0" style="fill:none;fill-rule:nonzero;stroke:#BABABA;stroke-opacity:0.75;stroke-width:1.55px;"/><path id="path1629" d="M2775.59,2309.45l-2775.59,-0" style="fill:none;fill-rule:nonzero;stroke:#BABABA;stroke-opacity:0.75;stroke-width:1.76px;"/><path id="path1633" d="M2775.59,2401.62l-2775.59,0" style="fill:none;fill-rule:nonzero;stroke:#BABABA;stroke-opacity:0.75;stroke-width:1.55px;"/><path id="path1637" d="M2775.59,2493.78l-2775.59,0" style="fill:none;fill-rule:nonzero;stroke:#BABABA;stroke-opacity:0.75;stroke-width:1.55px;"/><path id="path1641" d="M2775.59,2585.95l-2775.59,-0" style="fill:none;fill-rule:nonzero;stroke:#BABABA;stroke-opacity:0.75;stroke-width:1.55px;"/><path id="path1645" d="M2775.59,2678.12l-2775.59,0" style="fill:none;fill-rule:nonzero;stroke:#BABABA;stroke-opacity:0.75;stroke-width:1.55px;"/><path id="path1025" d="M1113.17,1480.33l0,1295.26" style="fill:none;fill-rule:nonzero;stroke:#BABABA;stroke-opacity:0.75;stroke-width:3.06px;"/><path id="path1027" d="M1668.28,1480.33l0,1295.26" style="fill:none;fill-rule:nonzero;stroke:#BABABA;stroke-opacity:0.75;stroke-width:3.06px;"/><path id="path1029" d="M929.168,1480.33l0,1295.26" style="fill:none;fill-rule:nonzero;stroke:#BABABA;stroke-opacity:0.75;stroke-width:1.6px;"/><path id="path1033" d="M1021.33,1480.33l0,1295.26" style="fill:none;fill-rule:nonzero;stroke:#BABABA;stroke-opacity:0.75;stroke-width:1.37px;"/><path id="path1037" d="M1205.66,1480.33l0,1295.26" style="fill:none;fill-rule:nonzero;stroke:#BABABA;stroke-opacity:0.75;stroke-width:1.37px;"/><path id="path1041" d="M1297.83,1480.33l0,1295.26" style="fill:none;fill-rule:nonzero;stroke:#BABABA;stroke-opacity:0.75;stroke-width:1.37px;"/><path id="path1045" d="M1390,1480.33l0,1295.26" style="fill:none;fill-rule:nonzero;stroke:#BABABA;stroke-opacity:0.75;stroke-width:1.6px;"/><path id="path1049" d="M1482.16,1480.33l0,1295.26" style="fill:none;fill-rule:nonzero;stroke:#BABABA;stroke-opacity:0.75;stroke-width:1.37px;"/><path id="path1053" d="M1574.33,1480.33l0,1295.26" style="fill:none;fill-rule:nonzero;stroke:#BABABA;stroke-opacity:0.75;stroke-width:1.37px;"/><path id="path1057" d="M1758.66,1480.33l0,1295.26" style="fill:none;fill-rule:nonzero;stroke:#BABABA;stroke-opacity:0.75;stroke-width:1.37px;"/><path id="path1061" d="M1850.83,1480.33l0,1295.26" style="fill:none;fill-rule:nonzero;stroke:#BABABA;stroke-opacity:0.75;stroke-width:1.6px;"/><path id="path1139" d="M919.983,1295.63l-916.91,0" style="fill:none;fill-rule:nonzero;stroke:#BABABA;stroke-opacity:0.75;stroke-width:1.34px;"/><path id="path1143" d="M885.798,1387.8l-876.575,0" style="fill:none;fill-rule:nonzero;stroke:#BABABA;stroke-opacity:0.75;stroke-width:1.58px;"/><path id="path1148" d="M852.954,1479.96l-839.198,0" style="fill:none;fill-rule:nonzero;stroke:#BABABA;stroke-opacity:0.75;stroke-width:1.34px;"/><path id="path1152" d="M992.186,1295.63l149.337,0" style="fill:none;fill-rule:nonzero;stroke:#BABABA;stroke-opacity:0.75;stroke-width:1.32px;"/><path id="path1156" d="M1211.9,1294.68l333.825,0" style="fill:none;fill-rule:nonzero;stroke:#BABABA;stroke-opacity:0.75;stroke-width:1.32px;"/><path id="path1160" d="M1593.13,1295.63l92.898,0" style="fill:none;fill-rule:nonzero;stroke:#BABABA;stroke-opacity:0.75;stroke-width:1.32px;"/></g><g><path id="path1042" d="M893.14,1449.47c0.413,-1.099 30.874,-84.829 40.354,-110.921c4.138,-11.388 7.841,-21.519 8.229,-22.512l0.708,-1.808l33.239,0l0.979,2.794c1.208,3.447 47.501,130.522 48.13,132.117c0.425,1.078 -0.611,1.151 -16.323,1.151l-16.777,0l-8.764,-26.292l-47.655,0l-4.458,13.146l-4.459,13.146l-16.754,0c-13.13,0 -16.688,-0.177 -16.447,-0.822l-0.002,0.001Zm79.462,-48.887l2.395,-0.397l-7.653,-22.913c-4.21,-12.603 -7.803,-22.922 -7.984,-22.931c-0.335,-0.011 -14.996,42.44 -15.601,45.173l-0.327,1.478l13.387,-0.007c7.363,-0.005 14.465,-0.185 15.782,-0.403l0.001,-0Zm64.979,-0.247l-0,-49.955l31.55,-0l-0,13.12l4.925,-3.342c7.283,-4.941 13.212,-6.696 22.682,-6.713c6.545,-0.011 8.265,0.228 12.818,1.789c10.527,3.608 19.285,11.301 24.021,21.104c4.449,9.205 4.55,10.183 4.561,43.894l0.008,30.083l-31.223,-0.352l-0.118,-25.964c-0.059,-14.279 -0.269,-27.345 -0.456,-29.034c-0.943,-8.559 -8.01,-15.348 -16.798,-16.136c-7.581,-0.681 -13.935,2.795 -17.757,9.716l-2.339,4.233l-0.19,28.757l-0.191,28.756l-31.499,-0l0.006,-49.956Zm113.056,-18.088l-0,-68.043l31.879,0.352l0.658,71.533l7.962,-9.803c4.38,-5.392 10.706,-13.204 14.059,-17.362c3.352,-4.158 6.292,-7.782 6.532,-8.054c0.616,-0.695 33.208,-0.767 33.347,-0.071c0.059,0.313 -8.447,11.181 -18.91,24.15c-12.426,15.405 -18.823,23.837 -18.45,24.32c0.314,0.407 9.489,11.927 20.388,25.601c10.898,13.673 19.815,24.988 19.815,25.141c-0,0.155 -8.06,0.279 -17.911,0.278l-17.912,-0.003l-28.921,-36.048l-0.349,36.054l-32.188,-0l0.001,-68.045Zm129.818,66.968c-10.309,-2.169 -22.273,-9.914 -28.612,-18.523c-7.089,-9.629 -10.068,-18.625 -10.049,-30.357c0.012,-8.775 1.072,-13.523 4.763,-21.363c6.117,-12.991 16.784,-22.27 30.612,-26.626c7.063,-2.225 18.717,-2.558 25.983,-0.742c6.741,1.685 14.762,5.56 19.845,9.588c13.196,10.458 20.741,28.93 18.499,45.29l-0.417,3.044l-70.872,0.34l2.047,4.095c2.232,4.468 5.656,7.805 10.412,10.151c2.485,1.226 4.14,1.505 8.963,1.513c6.947,0.012 10.341,-1.237 14.979,-5.512l2.916,-2.688l29.191,-0l-0.434,1.479c-0.878,2.984 -5.894,11.111 -9.033,14.633c-6.704,7.522 -17.268,13.817 -26.445,15.758c-5.784,1.223 -16.334,1.186 -22.348,-0.083l0,0.003Zm30.883,-62.048c-6.584,-12.992 -23.896,-16.175 -34.419,-6.329c-2.484,2.325 -5.994,7.466 -5.994,8.78c0,0.688 4.18,0.858 21.044,0.858l21.045,-0l-1.676,-3.309Zm43.064,13.18l0,-49.966l30.894,-0l0.083,6.08c0.047,3.344 0.047,6.302 0,6.573c-0.142,0.88 0.612,0.529 3.083,-1.441c8.561,-6.824 20.717,-10.99 28.052,-9.614l2.309,0.433l0,14.103c0,7.756 -0.221,14.091 -0.494,14.078c-0.27,-0.011 -2.267,-0.452 -4.437,-0.975c-12.079,-2.917 -21.655,0.509 -26.021,9.309l-1.585,3.193l-0.658,57.843l-31.222,0.351l-0.004,-49.967Zm76.905,-18.088l-0,-68.031l13.498,-0l25.525,25.555c22.138,22.165 25.436,25.719 24.852,26.785c-0.37,0.676 -5.105,5.617 -10.523,10.98c-8.396,8.311 -10.029,9.652 -11.06,9.084c-0.665,-0.367 -3.273,-2.757 -5.794,-5.313c-2.521,-2.556 -4.739,-4.648 -4.929,-4.648c-0.192,-0 -0.268,15.898 -0.173,35.329c0.095,19.432 0.012,35.996 -0.177,36.81l-0.349,1.479l-30.869,-0l-0.001,-68.03Zm110.428,31.223c-0,-20.245 -0.229,-36.809 -0.51,-36.809c-0.282,-0 -2.714,2.218 -5.407,4.929c-2.861,2.881 -5.447,4.93 -6.22,4.93c-1.799,-0 -20.729,-18.903 -20.729,-20.7c-0,-0.869 8.673,-9.997 25.145,-26.465l25.146,-25.138l13.468,-0l-0,136.062l-30.893,-0l-0,-36.809Zm80.306,35.475c-16.552,-4.335 -29.655,-17.304 -34.515,-34.16c-5.332,-18.493 -0.632,-37.825 12.381,-50.912c8.91,-8.961 17.247,-12.801 28.96,-13.34c9.631,-0.443 16.929,1.621 23.465,6.637c1.72,1.321 3.273,2.401 3.451,2.401c0.178,-0 0.323,-2.219 0.323,-4.93l-0,-4.93l30.894,-0l-0,100.568l-30.894,-0l-0,-9.338l-2.324,2.041c-7.39,6.488 -20.404,8.933 -31.74,5.964l-0.001,-0.001Zm20.727,-29.587c4.461,-2.186 7.802,-5.605 10.162,-10.4c1.202,-2.441 1.502,-4.159 1.51,-8.634c0.011,-6.688 -1.493,-10.607 -5.761,-15.01c-4.249,-4.383 -8.319,-6.193 -14.719,-6.546c-4.927,-0.27 -5.735,-0.127 -9.531,1.652c-12.958,6.086 -16.971,21.561 -8.502,32.788c2.677,3.549 8.026,7.104 12.184,8.099c4.38,1.048 10.089,0.289 14.656,-1.949l0.001,-0Zm56.719,-37.111l-0,-68.031l32.23,-0l-0.176,36.089c-0.094,19.849 -0.007,35.986 0.196,35.859c0.205,-0.127 6.988,-8.369 15.075,-18.318l14.704,-18.09l16.288,0.002c8.958,0.002 16.428,0.228 16.598,0.505c0.171,0.276 -0.802,1.818 -2.161,3.425c-1.359,1.608 -10.074,12.35 -19.365,23.872c-11.151,13.828 -16.696,21.2 -16.312,21.692c0.32,0.408 9.293,11.687 19.942,25.063c10.648,13.376 19.58,24.691 19.849,25.141c0.386,0.649 -3.275,0.821 -17.46,0.814l-17.95,-0.007l-14.461,-18.019l-14.462,-18.018l-0.349,36.054l-32.188,-0l-0,-68.032l0.002,-0.001Zm129.16,66.785c-9.616,-2.605 -16.862,-6.867 -23.763,-13.977c-9.166,-9.444 -14.017,-21.294 -14.027,-34.267c-0.008,-13.414 4.415,-24.837 13.319,-34.37c10.699,-11.457 23.763,-16.684 39.7,-15.884c13.023,0.653 23.959,5.755 33.143,15.46c9.003,9.515 13.096,18.989 13.607,31.493c0.164,4.044 0.094,8.407 -0.142,9.695l-0.44,2.343l-35.135,-0c-23.74,-0 -35.135,0.221 -35.135,0.679c-0,1.535 3.323,7.049 5.686,9.435c1.391,1.406 4.157,3.328 6.145,4.273c3.076,1.461 4.497,1.715 9.531,1.705c5.154,-0.008 6.357,-0.244 9.345,-1.808c1.885,-0.987 4.464,-2.83 5.729,-4.096l2.301,-2.3l29.554,-0l-0.678,1.942c-1.049,3.008 -5.377,9.866 -8.547,13.544c-6.037,7.001 -13.619,12.114 -22.368,15.085c-4.728,1.604 -6.693,1.889 -14.351,2.077c-7.156,0.176 -9.764,-0.024 -13.475,-1.029l0.001,-0Zm33.189,-59.061c-0.008,-0.27 -0.867,-1.995 -1.921,-3.831c-8.493,-14.807 -29.72,-14.807 -38.214,-0c-1.053,1.836 -1.917,3.56 -1.92,3.831c-0.008,0.271 9.459,0.494 21.027,0.494c11.568,-0 21.031,-0.221 21.027,-0.494l0.001,-0Z" style="fill:#BABABA;fill-opacity:0.67;fill-rule:nonzero;"/><path id="path1036" d="M1502.16,1372.88l21.117,21.117l-21.117,21.118l-21.118,-21.118l21.118,-21.117Z" style="fill:#BABABA;fill-opacity:0.67;fill-rule:nonzero;"/></g></g><g id="grid"></g></svg>
