<?xml version="1.0" encoding="UTF-8" standalone="no"?>
<!-- Generator: Adobe Illustrator 23.0.1, SVG Export Plug-In . SVG Version: 6.00 Build 0)  -->

<svg
   version="1.1"
   x="0px"
   y="0px"
   viewBox="0 0 680.31502 680.31502"
   enable-background="new 0 0 680.3149 680.3149"
   xml:space="preserve"
   id="svg66"
   sodipodi:docname="Jubilee_texture.svg"
   inkscape:version="1.1 (c68e22c387, 2021-05-23)"
   width="680.315"
   height="680.315"
   xmlns:inkscape="http://www.inkscape.org/namespaces/inkscape"
   xmlns:sodipodi="http://sodipodi.sourceforge.net/DTD/sodipodi-0.dtd"
   xmlns="http://www.w3.org/2000/svg"
   xmlns:svg="http://www.w3.org/2000/svg"><defs
   id="defs70" /><sodipodi:namedview
   id="namedview68"
   pagecolor="#505050"
   bordercolor="#eeeeee"
   borderopacity="1"
   inkscape:pageshadow="0"
   inkscape:pageopacity="0"
   inkscape:pagecheckerboard="0"
   showgrid="true"
   inkscape:zoom="0.64161465"
   inkscape:cx="225.21306"
   inkscape:cy="295.34862"
   inkscape:window-width="1920"
   inkscape:window-height="1129"
   inkscape:window-x="-8"
   inkscape:window-y="-8"
   inkscape:window-maximized="1"
   inkscape:current-layer="g24"><inkscape:grid
     type="xygrid"
     id="grid4311"
     empcolor="#ffffff"
     empopacity="0.49803922"
     color="#ffffff"
     opacity="0.50196078"
     spacingx="37.795277"
     spacingy="37.795277"
     units="cm"
     dotted="false"
     originx="340.1575"
     originy="340.1575" /></sodipodi:namedview>


<path
   style="fill:none;stroke:#000000;stroke-width:1px;stroke-linecap:butt;stroke-linejoin:miter;stroke-opacity:1"
   d="M 37.795277,0 V 680.31498"
   id="path4436" /><path
   style="fill:none;stroke:#000000;stroke-width:1px;stroke-linecap:butt;stroke-linejoin:miter;stroke-opacity:1"
   d="M 75.590554,680.31498 V 0"
   id="path4438" /><path
   style="fill:none;stroke:#000000;stroke-width:1px;stroke-linecap:butt;stroke-linejoin:miter;stroke-opacity:1"
   d="M 113.38583,0 V 680.31498"
   id="path4553" /><path
   style="fill:none;stroke:#000000;stroke-width:1px;stroke-linecap:butt;stroke-linejoin:miter;stroke-opacity:1"
   d="M 151.1811,680.31498 V 0"
   id="path4555" /><path
   style="fill:none;stroke:#000000;stroke-width:1px;stroke-linecap:butt;stroke-linejoin:miter;stroke-opacity:1"
   d="M 188.97638,0 V 680.31498"
   id="path4557" /><path
   style="fill:none;stroke:#000000;stroke-width:1px;stroke-linecap:butt;stroke-linejoin:miter;stroke-opacity:1"
   d="M 226.77166,680.31498 V 0"
   id="path4559" /><path
   style="fill:none;stroke:#000000;stroke-width:1px;stroke-linecap:butt;stroke-linejoin:miter;stroke-opacity:1"
   d="M 264.56694,0 V 680.31498"
   id="path4561" /><path
   style="fill:none;stroke:#000000;stroke-width:1px;stroke-linecap:butt;stroke-linejoin:miter;stroke-opacity:1"
   d="M 302.36221,680.31498 V 0"
   id="path4563" /><path
   style="fill:none;stroke:#000000;stroke-width:1px;stroke-linecap:butt;stroke-linejoin:miter;stroke-opacity:1"
   d="M 340.15749,0 V 680.31498"
   id="path4565" /><path
   style="fill:none;stroke:#000000;stroke-width:1px;stroke-linecap:butt;stroke-linejoin:miter;stroke-opacity:1"
   d="M 377.95277,680.31498 V 0"
   id="path4567" /><path
   style="fill:none;stroke:#000000;stroke-width:1px;stroke-linecap:butt;stroke-linejoin:miter;stroke-opacity:1"
   d="M 415.74804,0 V 680.31498"
   id="path4569" /><path
   style="fill:none;stroke:#000000;stroke-width:1px;stroke-linecap:butt;stroke-linejoin:miter;stroke-opacity:1"
   d="M 453.54332,680.31498 V 0"
   id="path4571" /><path
   style="fill:none;stroke:#000000;stroke-width:1px;stroke-linecap:butt;stroke-linejoin:miter;stroke-opacity:1"
   d="M 491.3386,0 V 680.31498"
   id="path4573" /><path
   style="fill:none;stroke:#000000;stroke-width:1px;stroke-linecap:butt;stroke-linejoin:miter;stroke-opacity:1"
   d="M 529.13388,680.31498 529.13387,0"
   id="path4575" /><path
   style="fill:none;stroke:#000000;stroke-width:1px;stroke-linecap:butt;stroke-linejoin:miter;stroke-opacity:1"
   d="M 566.92915,0 V 680.31498"
   id="path4577" /><path
   style="fill:none;stroke:#000000;stroke-width:1px;stroke-linecap:butt;stroke-linejoin:miter;stroke-opacity:1"
   d="M 604.72443,680.31498 V 0"
   id="path4579" /><path
   style="fill:none;stroke:#000000;stroke-width:1px;stroke-linecap:butt;stroke-linejoin:miter;stroke-opacity:1"
   d="M 642.51971,0 V 680.31498"
   id="path4581" /><path
   style="fill:none;stroke:#000000;stroke-width:1px;stroke-linecap:butt;stroke-linejoin:miter;stroke-opacity:1"
   d="M 680.31498,642.51971 H 0"
   id="path4583" /><path
   style="fill:none;stroke:#000000;stroke-width:1px;stroke-linecap:butt;stroke-linejoin:miter;stroke-opacity:1"
   d="M 0,604.72443 H 680.31498"
   id="path4585" /><path
   style="fill:none;stroke:#000000;stroke-width:1px;stroke-linecap:butt;stroke-linejoin:miter;stroke-opacity:1"
   d="M 680.31498,566.92915 H 0"
   id="path4587" /><path
   style="fill:none;stroke:#000000;stroke-width:1px;stroke-linecap:butt;stroke-linejoin:miter;stroke-opacity:1"
   d="M 0,529.13387 H 680.31498"
   id="path4589" /><path
   style="fill:none;stroke:#000000;stroke-width:1px;stroke-linecap:butt;stroke-linejoin:miter;stroke-opacity:1"
   d="M 680.31498,491.3386 H 0"
   id="path4591" /><path
   style="fill:none;stroke:#000000;stroke-width:1px;stroke-linecap:butt;stroke-linejoin:miter;stroke-opacity:1"
   d="M 0,453.54332 H 680.31498"
   id="path4593" /><path
   style="fill:none;stroke:#000000;stroke-width:1px;stroke-linecap:butt;stroke-linejoin:miter;stroke-opacity:1"
   d="M 680.31498,415.74804 H 0"
   id="path4595" /><path
   style="fill:none;stroke:#000000;stroke-width:1px;stroke-linecap:butt;stroke-linejoin:miter;stroke-opacity:1"
   d="M 0,377.95277 H 680.31498"
   id="path4597" /><path
   style="fill:none;stroke:#000000;stroke-width:1px;stroke-linecap:butt;stroke-linejoin:miter;stroke-opacity:1"
   d="M 680.31498,340.15749 H 0"
   id="path4599" /><path
   style="fill:none;stroke:#000000;stroke-width:1px;stroke-linecap:butt;stroke-linejoin:miter;stroke-opacity:1"
   d="M 0,302.36221 H 680.31498"
   id="path4601" /><path
   style="fill:none;stroke:#000000;stroke-width:1px;stroke-linecap:butt;stroke-linejoin:miter;stroke-opacity:1"
   d="M 680.31498,264.56694 H 0"
   id="path4603" /><path
   style="fill:none;stroke:#000000;stroke-width:1px;stroke-linecap:butt;stroke-linejoin:miter;stroke-opacity:1"
   d="M 0,226.77166 H 680.31498"
   id="path4605" /><path
   style="fill:none;stroke:#000000;stroke-width:1px;stroke-linecap:butt;stroke-linejoin:miter;stroke-opacity:1"
   d="M 680.31498,188.97638 H 0"
   id="path4607" /><path
   style="fill:none;stroke:#000000;stroke-width:1px;stroke-linecap:butt;stroke-linejoin:miter;stroke-opacity:1"
   d="M 0,151.1811 H 680.31498"
   id="path4609" /><path
   style="fill:none;stroke:#000000;stroke-width:1px;stroke-linecap:butt;stroke-linejoin:miter;stroke-opacity:1"
   d="M 680.31498,113.38583 H 0"
   id="path4611" /><path
   style="fill:none;stroke:#000000;stroke-width:1px;stroke-linecap:butt;stroke-linejoin:miter;stroke-opacity:1"
   d="M 0,75.590554 H 680.31498"
   id="path4613" /><path
   style="fill:none;stroke:#000000;stroke-width:1px;stroke-linecap:butt;stroke-linejoin:miter;stroke-opacity:1"
   d="M 680.31498,37.795277 H 0"
   id="path4615" /><g
   id="logo"
   transform="rotate(180,347.24687,326.4726)">
	<g
   id="g24">
		<path
   d="m 280.4813,484.2325 c 18.38,7.6201 38.54,11.83 59.6801,11.83 v -14.17 c -19.22,0 -37.54,-3.82 -54.25,-10.75 h -0.01 c -17.3201,-7.18 -32.9,-17.7 -45.9599,-30.77 -13.05,-13.04 -23.5801,-28.63 -30.76,-45.96 l -13.1001,5.43 c 7.9,19.05 19.47,36.2 33.8301,50.56 14.3598,14.3601 31.5098,25.9301 50.5698,33.83 z"
   id="path2"
   style="fill:#000000;fill-opacity:1;stroke:#d4d4d4;stroke-opacity:1" />
		<path
   d="m 196.0813,280.4726 c 7.9,-19.05 19.47,-36.2 33.8301,-50.56 l -10.02,-10.02 c -15.67,15.67 -28.29,34.37 -36.9,55.16 -8.3199,20.05 -12.91,42.04 -12.91,65.1 0,23.06 4.5901,45.06 12.91,65.11 l 13.09,-5.42 c -7.6199,-18.39 -11.83,-38.54 -11.83,-59.69 -1e-4,-21.14 4.21,-41.3 11.8299,-59.68 z"
   id="path4"
   style="fill:#000000;fill-opacity:1;stroke:#d4d4d4;stroke-opacity:1" />
		<path
   d="m 209.1814,394.4126 13.1099,-5.4301 c -6.25,-15.04 -9.6899,-31.54 -9.6899,-48.83 h -14.1799 c -2e-4,19.2201 3.8298,37.5501 10.7599,54.2601 z"
   id="path6"
   style="fill:#000000;fill-opacity:1;stroke:#d4d4d4;stroke-opacity:1" />
		<path
   d="m 240.9414,340.1526 c 0,-13.45 2.6799,-26.28 7.5299,-37.97 l -13.09,-5.43 c -5.55,13.37 -8.61,28.03 -8.61,43.4 z"
   id="path8"
   style="fill:#000000;fill-opacity:1;stroke:#d4d4d4;stroke-opacity:1" />
		<path
   d="m 313.0412,405.6426 c 8.3501,3.47 17.51,5.38 27.1201,5.38 9.61,0 18.77,-1.91 27.1199,-5.38 l -5.4199,-13.09 c -6.6899,2.77 -14.02,4.3 -21.7,4.3 -7.6801,0 -15.01,-1.53 -21.7,-4.3 -6.9302,-2.87 -13.1702,-7.08 -18.3901,-12.3 v -0.01 c -5.23,-5.22 -9.4299,-11.45 -12.2999,-18.38 l -13.1,5.42 c 3.59,8.66 8.85,16.45 15.3799,22.98 6.53,6.5299 14.3301,11.8 22.99,15.38 z"
   id="path10"
   style="fill:#000000;fill-opacity:1;stroke:#d4d4d4;stroke-opacity:1" />
		<path
   d="m 248.4813,378.1326 c 5.02,12.13 12.38,23.04 21.52,32.18 9.14,9.14 20.0499,16.51 32.1801,21.52 11.7,4.86 24.53,7.54 37.98,7.54 13.45,0 26.27,-2.68 37.97,-7.54 12.13,-5.01 23.04,-12.38 32.1799,-21.52 9.1401,-9.14 16.5,-20.05 21.52,-32.18 l -13.09,-5.42 c -4.3099,10.4 -10.63,19.75 -18.4601,27.57 -7.8298,7.84 -17.1799,14.15 -27.5698,18.45 -10.03,4.16 -21.02,6.46 -32.55,6.46 -11.53,0 -22.52,-2.29 -32.55,-6.45 -10.3999,-4.31 -19.75,-10.62 -27.5801,-18.46 -7.8298,-7.83 -14.1499,-17.19 -18.45,-27.58 -4.1599,-10.03 -6.4599,-21.02 -6.4599,-32.55 h -14.1799 c -1e-4,13.4599 2.6798,26.28 7.5398,37.98 z"
   id="path12"
   style="fill:#000000;fill-opacity:1;stroke:#d4d4d4;stroke-opacity:1" />
		<path
   d="m 383.5623,444.9326 c -13.36,5.55 -28.02,8.61 -43.4,8.61 -15.37,0 -30.03,-3.06 -43.3999,-8.61 -13.8601,-5.74 -26.3301,-14.15 -36.78,-24.6 -10.44,-10.44 -18.8601,-22.91 -24.6001,-36.77 l -13.09,5.42 c 6.4601,15.59 15.92,29.6201 27.67,41.3701 11.75,11.75 25.78,21.21 41.37,27.68 15.0399,6.24 31.5299,9.68 48.83,9.68 17.3001,0 33.79,-3.44 48.8301,-9.68 15.58,-6.46 29.61,-15.93 41.36,-27.68 11.75,-11.7401 21.22,-25.77 27.6801,-41.36 6.25,-15.04 9.6899,-31.54 9.6899,-48.84 v -204.44 c -4.5601,-2.85 -9.23,-5.56 -13.99,-8.1 -0.0701,-0.04 -0.13,-0.08 -0.1901,-0.1 v 212.64 c 0,7.69 -0.7699,15.2 -2.22,22.46 -1.4601,7.26 -3.61,14.26 -6.39,20.95 -5.74,13.86 -14.1599,26.33 -24.6,36.77 -10.4401,10.44 -22.91,18.8599 -36.77,24.5999 z"
   id="path14"
   style="fill:#000000;fill-opacity:1;stroke:#d4d4d4;stroke-opacity:1" />
		<path
   d="m 394.4123,471.1326 5.4301,13.1 c 19.0499,-7.9 36.2,-19.47 50.5599,-33.83 14.3601,-14.36 25.9301,-31.51 33.8301,-50.56 7.62,-18.39 11.83,-38.54 11.83,-59.68 v -183.72 c -4.49,-3.81 -9.12,-7.47 -13.89,-10.95 -0.09,-0.07 -0.1899,-0.14 -0.28,-0.2 v 194.87 c 0,9.61 -0.96,18.99 -2.78,28.06 -1.8199,9.0699 -4.5099,17.83 -7.98,26.19 -7.1799,17.33 -17.71,32.92 -30.76,45.96 -13.0501,13.07 -28.64,23.58 -45.9601,30.76 z"
   id="path16"
   style="fill:#000000;fill-opacity:1;stroke:#d4d4d4;stroke-opacity:1" />
		<path
   d="m 510.6122,169.8626 c -0.1199,-0.12 -0.24,-0.25 -0.3699,-0.37 v 170.66 h -0.01 c 0,23.06 -4.5901,45.06 -12.91,65.11 -8.62,20.79 -21.24,39.49 -36.9,55.16 -15.6699,15.66 -34.37,28.28 -55.1599,36.9 -20.05,8.32 -42.04,12.91 -65.1001,12.91 -23.0599,0 -45.05,-4.59 -65.1,-12.91 -20.7899,-8.61 -39.5,-21.24 -55.17,-36.9 l -10.02,10.02 c 33.3401,33.35 79.4101,53.97 130.29,53.97 50.8701,0 96.9301,-20.6201 130.28,-53.97 33.3401,-33.34 53.97,-79.4 53.97,-130.28 v -155.27 c -4.3899,-5.2 -8.99,-10.22 -13.8001,-15.03 z"
   id="path18"
   style="fill:#000000;fill-opacity:1;stroke:#d4d4d4;stroke-opacity:1" />
		<path
   d="m 439.3923,120.5326 c -4.6199,-2.09 -9.3199,-4.04 -14.1,-5.85 -0.0199,-0.01 -0.0399,-0.01 -0.0699,-0.02 v 225.5 h 14.1699 z"
   id="path20"
   style="fill:#000000;fill-opacity:1;stroke:#d4d4d4;stroke-opacity:1" />
		<path
   d="m 405.6423,367.2826 c 3.47,-8.36 5.3801,-17.52 5.3801,-27.12 h 0.0299 v -230.35 c -4.67,-1.44 -9.4,-2.73 -14.1801,-3.88 v 234.22 h -0.0199 c 0,7.69 -1.53,15.02 -4.3,21.71 -2.87,6.93 -7.08,13.17 -12.2999,18.39 l 10.01,10.01 c 6.5299,-6.5301 11.7899,-14.32 15.3799,-22.98 z"
   id="path22"
   style="fill:#000000;fill-opacity:1;stroke:#d4d4d4;stroke-opacity:1" />
	</g>
	<path
   fill="none"
   d="m 418.7413,307.6026 c -2.1,-5.0601 -4.68,-9.88 -7.67,-14.4 v 46.95 h -0.05 c 0,9.61 -1.91,18.77 -5.38,27.13 -3.59,8.66 -8.85,16.45 -15.38,22.98 l -10.01,-10.01 c 5.22,-5.22 9.43,-11.46 12.3,-18.39 2.77,-6.69 4.3,-14.02 4.3,-21.71 v -63.37 c -7.08,-6.34 -15.23,-11.51 -24.14,-15.2 -10.03,-4.16 -21.02,-6.46 -32.55,-6.46 -11.53,0 -22.52,2.29 -32.55,6.45 -10.4,4.31 -19.75,10.62 -27.58,18.46 -7.83,7.83 -14.15,17.18 -18.45,27.57 -4.16,10.03 -6.46,21.02 -6.46,32.55 0,11.53 2.3,22.52 6.46,32.55 4.3,10.39 10.62,19.75 18.45,27.58 7.83,7.84 17.1801,14.15 27.58,18.46 10.03,4.16 21.02,6.45 32.55,6.45 11.53,0 22.52,-2.3 32.55,-6.46 10.39,-4.3 19.74,-10.61 27.5699,-18.45 7.83,-7.82 14.15,-17.17 18.46,-27.57 4.16,-10.03 6.46,-21.03 6.46,-32.56 1e-4,-11.53 -2.2999,-22.52 -6.4599,-32.55 z m -78.58,103.42 c -9.61,0 -18.77,-1.91 -27.12,-5.38 -8.66,-3.58 -16.46,-8.85 -22.99,-15.38 -6.53,-6.53 -11.79,-14.32 -15.38,-22.98 l 13.1,-5.42 c 2.87,6.93 7.0699,13.16 12.3,18.38 v 0.01 c 5.22,5.22 11.46,9.43 18.39,12.3 6.69,2.77 14.02,4.3 21.7,4.3 7.68,0 15.01,-1.53 21.7,-4.3 l 5.42,13.09 c -8.35,3.4699 -17.51,5.38 -27.12,5.38 z"
   id="path26" />
	<path
   fill="none"
   d="m 425.2913,340.1526 v -50.97 c -4.01,-6.69 -8.79,-12.86 -14.22,-18.4 v 69.37 h -0.05 c 0,9.61 -1.91,18.77 -5.38,27.13 -3.59,8.66 -8.85,16.45 -15.38,22.98 l -10.01,-10.01 c 5.22,-5.22 9.43,-11.46 12.3,-18.39 2.77,-6.69 4.3,-14.02 4.3,-21.71 v -81.42 c -5.81,-4.06 -12.08,-7.5 -18.72,-10.25 -11.7,-4.86 -24.52,-7.54 -37.97,-7.54 -13.45,0 -26.28,2.68 -37.98,7.54 -12.13,5.02 -23.04,12.38 -32.18,21.52 -9.14,9.14 -16.5,20.05 -21.53,32.18 -4.85,11.69 -7.53,24.52 -7.53,37.97 h 14.18 c 0,11.53 2.3,22.52 6.46,32.55 4.3,10.39 10.62,19.75 18.45,27.58 7.83,7.84 17.1801,14.15 27.58,18.46 10.03,4.16 21.02,6.45 32.55,6.45 11.53,0 22.52,-2.3 32.55,-6.46 10.39,-4.3 19.74,-10.61 27.5699,-18.45 7.83,-7.82 14.15,-17.17 18.46,-27.57 l 13.09,5.42 c 4.86,-11.7 7.54,-24.52 7.54,-37.98 z m -85.13,70.87 c -9.61,0 -18.77,-1.91 -27.12,-5.38 -8.66,-3.58 -16.46,-8.85 -22.99,-15.38 -6.53,-6.53 -11.79,-14.32 -15.38,-22.98 l 13.1,-5.42 c 2.87,6.93 7.0699,13.16 12.3,18.38 v 0.01 c 5.22,5.22 11.46,9.43 18.39,12.3 6.69,2.77 14.02,4.3 21.7,4.3 7.68,0 15.01,-1.53 21.7,-4.3 l 5.42,13.09 c -8.35,3.4699 -17.51,5.38 -27.12,5.38 z"
   id="path28" />
	<path
   fill="none"
   d="m 411.0713,270.7826 v 69.37 h -0.05 c 0,9.61 -1.91,18.77 -5.38,27.13 -3.59,8.66 -8.85,16.45 -15.38,22.98 l -10.01,-10.01 c 5.22,-5.22 9.43,-11.46 12.3,-18.39 2.77,-6.69 4.3,-14.02 4.3,-21.71 v -98.2 c -4.26,-2.47 -8.7,-4.67 -13.29,-6.57 -13.36,-5.55 -28.02,-8.61 -43.4,-8.61 -15.37,0 -30.03,3.06 -43.4,8.61 -13.86,5.74 -26.33,14.15 -36.78,24.6 -10.45,10.44 -18.86,22.91 -24.6,36.77 l 13.09,5.43 c -4.85,11.69 -7.53,24.52 -7.53,37.97 h 14.18 c 0,11.53 2.3,22.52 6.46,32.55 4.3,10.39 10.62,19.75 18.45,27.58 7.83,7.84 17.1801,14.15 27.58,18.46 10.03,4.16 21.02,6.45 32.55,6.45 11.53,0 22.52,-2.3 32.55,-6.46 10.39,-4.3 19.74,-10.61 27.5699,-18.45 7.83,-7.82 14.15,-17.17 18.46,-27.57 l 13.09,5.42 c -5.02,12.13 -12.38,23.04 -21.52,32.18 -9.14,9.14 -20.05,16.51 -32.18,21.52 -11.7,4.86 -24.52,7.54 -37.97,7.54 -13.45,0 -26.28,-2.68 -37.98,-7.54 -12.13,-5.01 -23.04,-12.38 -32.18,-21.52 -9.14,-9.14 -16.5,-20.05 -21.52,-32.18 -4.86,-11.7 -7.54,-24.52 -7.54,-37.98 h -14.17 c 0,15.38 3.06,30.04 8.61,43.41 5.74,13.86 14.16,26.33 24.6,36.77 10.45,10.45 22.92,18.86 36.78,24.6 13.37,5.55 28.03,8.61 43.4,8.61 15.38,0 30.04,-3.06 43.4,-8.61 13.86,-5.74 26.33,-14.16 36.77,-24.6 10.44,-10.44 18.86,-22.91 24.6,-36.77 5.55,-13.37 8.61,-28.03 8.61,-43.41 0,-15.37 -3.06,-30.03 -8.61,-43.4 -1.6,-3.86 -3.41,-7.62 -5.42,-11.25 v 54.65 h -14.22 v -74.88 c -1.6,-1.82 -3.25,-3.58 -4.96,-5.29 -2.93,-2.93 -6.02,-5.6999 -9.26,-8.29 v 17.55 m -70.9099,141.78 c -9.61,0 -18.77,-1.91 -27.12,-5.38 -8.66,-3.58 -16.46,-8.85 -22.99,-15.38 -6.53,-6.53 -11.79,-14.32 -15.38,-22.98 l 13.1,-5.42 c 2.87,6.93 7.0699,13.16 12.3,18.38 v 0.01 c 5.22,5.22 11.46,9.43 18.39,12.3 6.69,2.77 14.02,4.3 21.7,4.3 7.68,0 15.01,-1.53 21.7,-4.3 l 5.42,13.09 c -8.35,3.4699 -17.51,5.38 -27.12,5.38 z"
   id="path30" />
	<path
   fill="none"
   d="m 400.2813,400.2826 c 7.83,-7.82 14.15,-17.17 18.46,-27.57 l 13.09,5.42 c -5.02,12.13 -12.38,23.04 -21.52,32.18 -9.14,9.14 -20.05,16.51 -32.18,21.52 -11.7,4.86 -24.52,7.54 -37.97,7.54 -13.45,0 -26.28,-2.68 -37.98,-7.54 -12.13,-5.01 -23.04,-12.38 -32.18,-21.52 -9.14,-9.14 -16.5,-20.05 -21.52,-32.18 -4.86,-11.7 -7.54,-24.52 -7.54,-37.98 h -14.17 c 0,-15.37 3.06,-30.03 8.61,-43.4 l 13.09,5.43 c -4.85,11.69 -7.53,24.52 -7.53,37.97 h 14.18 c 0,11.53 2.3,22.52 6.46,32.55 4.3,10.39 10.62,19.75 18.45,27.58 7.83,7.84 17.1801,14.15 27.58,18.46 10.03,4.16 21.02,6.45 32.55,6.45 11.53,0 22.52,-2.3 32.55,-6.46 10.39,-4.3 19.74,-10.61 27.57,-18.45 z m -33,5.36 c -8.35,3.47 -17.5099,5.38 -27.12,5.38 -9.61,0 -18.77,-1.91 -27.12,-5.38 -8.66,-3.58 -16.46,-8.85 -22.99,-15.38 -6.53,-6.53 -11.79,-14.32 -15.38,-22.98 l 13.1,-5.42 c 2.87,6.93 7.0699,13.16 12.3,18.38 v 0.01 c 5.22,5.22 11.46,9.43 18.39,12.3 6.69,2.77 14.02,4.3 21.7,4.3 7.68,0 15.01,-1.53 21.7,-4.3 z"
   id="path32" />
	<path
   fill="none"
   d="m 418.7413,307.6026 c -2.1,-5.0601 -4.68,-9.88 -7.67,-14.4 v 46.95 h -0.05 c 0,9.61 -1.91,18.77 -5.38,27.13 -3.59,8.66 -8.85,16.45 -15.38,22.98 l -10.01,-10.01 c 5.22,-5.22 9.43,-11.46 12.3,-18.39 2.77,-6.69 4.3,-14.02 4.3,-21.71 v -63.37 c -7.08,-6.34 -15.23,-11.51 -24.14,-15.2 -10.03,-4.16 -21.02,-6.46 -32.55,-6.46 -11.53,0 -22.52,2.29 -32.55,6.45 -10.4,4.31 -19.75,10.62 -27.58,18.46 -7.83,7.83 -14.15,17.18 -18.45,27.57 -4.16,10.03 -6.46,21.02 -6.46,32.55 0,11.53 2.3,22.52 6.46,32.55 4.3,10.39 10.62,19.75 18.45,27.58 7.83,7.84 17.1801,14.15 27.58,18.46 10.03,4.16 21.02,6.45 32.55,6.45 11.53,0 22.52,-2.3 32.55,-6.46 10.39,-4.3 19.74,-10.61 27.5699,-18.45 7.83,-7.82 14.15,-17.17 18.46,-27.57 4.16,-10.03 6.46,-21.03 6.46,-32.56 1e-4,-11.53 -2.2999,-22.52 -6.4599,-32.55 z m -78.58,103.42 c -9.61,0 -18.77,-1.91 -27.12,-5.38 -8.66,-3.58 -16.46,-8.85 -22.99,-15.38 -6.53,-6.53 -11.79,-14.32 -15.38,-22.98 l 13.1,-5.42 c 2.87,6.93 7.0699,13.16 12.3,18.38 v 0.01 c 5.22,5.22 11.46,9.43 18.39,12.3 6.69,2.77 14.02,4.3 21.7,4.3 7.68,0 15.01,-1.53 21.7,-4.3 l 5.42,13.09 c -8.35,3.4699 -17.51,5.38 -27.12,5.38 z"
   id="path34" />
	<path
   fill="none"
   d="m 425.2913,340.1526 v -50.97 c -4.01,-6.69 -8.79,-12.86 -14.22,-18.4 v 69.37 h -0.05 c 0,9.61 -1.91,18.77 -5.38,27.13 -3.59,8.66 -8.85,16.45 -15.38,22.98 l -10.01,-10.01 c 5.22,-5.22 9.43,-11.46 12.3,-18.39 2.77,-6.69 4.3,-14.02 4.3,-21.71 v -81.42 c -5.81,-4.06 -12.08,-7.5 -18.72,-10.25 -11.7,-4.86 -24.52,-7.54 -37.97,-7.54 -13.45,0 -26.28,2.68 -37.98,7.54 -12.13,5.02 -23.04,12.38 -32.18,21.52 -9.14,9.14 -16.5,20.05 -21.53,32.18 -4.85,11.69 -7.53,24.52 -7.53,37.97 h 14.18 c 0,11.53 2.3,22.52 6.46,32.55 4.3,10.39 10.62,19.75 18.45,27.58 7.83,7.84 17.1801,14.15 27.58,18.46 10.03,4.16 21.02,6.45 32.55,6.45 11.53,0 22.52,-2.3 32.55,-6.46 10.39,-4.3 19.74,-10.61 27.5699,-18.45 7.83,-7.82 14.15,-17.17 18.46,-27.57 l 13.09,5.42 c 4.86,-11.7 7.54,-24.52 7.54,-37.98 z m -85.13,70.87 c -9.61,0 -18.77,-1.91 -27.12,-5.38 -8.66,-3.58 -16.46,-8.85 -22.99,-15.38 -6.53,-6.53 -11.79,-14.32 -15.38,-22.98 l 13.1,-5.42 c 2.87,6.93 7.0699,13.16 12.3,18.38 v 0.01 c 5.22,5.22 11.46,9.43 18.39,12.3 6.69,2.77 14.02,4.3 21.7,4.3 7.68,0 15.01,-1.53 21.7,-4.3 l 5.42,13.09 c -8.35,3.4699 -17.51,5.38 -27.12,5.38 z"
   id="path36" />
	<path
   fill="none"
   d="m 411.0713,270.7826 v 69.37 h -0.05 c 0,9.61 -1.91,18.77 -5.38,27.13 -3.59,8.66 -8.85,16.45 -15.38,22.98 l -10.01,-10.01 c 5.22,-5.22 9.43,-11.46 12.3,-18.39 2.77,-6.69 4.3,-14.02 4.3,-21.71 v -98.2 c -4.26,-2.47 -8.7,-4.67 -13.29,-6.57 -13.36,-5.55 -28.02,-8.61 -43.4,-8.61 -15.37,0 -30.03,3.06 -43.4,8.61 -13.86,5.74 -26.33,14.15 -36.78,24.6 -10.45,10.44 -18.86,22.91 -24.6,36.77 l 13.09,5.43 c -4.85,11.69 -7.53,24.52 -7.53,37.97 h 14.18 c 0,11.53 2.3,22.52 6.46,32.55 4.3,10.39 10.62,19.75 18.45,27.58 7.83,7.84 17.1801,14.15 27.58,18.46 10.03,4.16 21.02,6.45 32.55,6.45 11.53,0 22.52,-2.3 32.55,-6.46 10.39,-4.3 19.74,-10.61 27.5699,-18.45 7.83,-7.82 14.15,-17.17 18.46,-27.57 l 13.09,5.42 c -5.02,12.13 -12.38,23.04 -21.52,32.18 -9.14,9.14 -20.05,16.51 -32.18,21.52 -11.7,4.86 -24.52,7.54 -37.97,7.54 -13.45,0 -26.28,-2.68 -37.98,-7.54 -12.13,-5.01 -23.04,-12.38 -32.18,-21.52 -9.14,-9.14 -16.5,-20.05 -21.52,-32.18 -4.86,-11.7 -7.54,-24.52 -7.54,-37.98 h -14.17 c 0,15.38 3.06,30.04 8.61,43.41 5.74,13.86 14.16,26.33 24.6,36.77 10.45,10.45 22.92,18.86 36.78,24.6 13.37,5.55 28.03,8.61 43.4,8.61 15.38,0 30.04,-3.06 43.4,-8.61 13.86,-5.74 26.33,-14.16 36.77,-24.6 10.44,-10.44 18.86,-22.91 24.6,-36.77 5.55,-13.37 8.61,-28.03 8.61,-43.41 0,-15.37 -3.06,-30.03 -8.61,-43.4 -1.6,-3.86 -3.41,-7.62 -5.42,-11.25 v 54.65 h -14.22 v -74.88 c -1.6,-1.82 -3.25,-3.58 -4.96,-5.29 -2.93,-2.93 -6.02,-5.6999 -9.26,-8.29 v 17.55 m -70.9099,141.78 c -9.61,0 -18.77,-1.91 -27.12,-5.38 -8.66,-3.58 -16.46,-8.85 -22.99,-15.38 -6.53,-6.53 -11.79,-14.32 -15.38,-22.98 l 13.1,-5.42 c 2.87,6.93 7.0699,13.16 12.3,18.38 v 0.01 c 5.22,5.22 11.46,9.43 18.39,12.3 6.69,2.77 14.02,4.3 21.7,4.3 7.68,0 15.01,-1.53 21.7,-4.3 l 5.42,13.09 c -8.35,3.4699 -17.51,5.38 -27.12,5.38 z"
   id="path38" />
</g></svg>
